<?xml version="1.0" encoding="UTF-8"?>
<svg width="275px" height="84px" viewBox="0 0 275 84" version="1.1" xmlns="http://www.w3.org/2000/svg" xmlns:xlink="http://www.w3.org/1999/xlink">
    <!-- Generator: Sketch 41.2 (35397) - http://www.bohemiancoding.com/sketch -->
    <title>Group 10</title>
    <desc>Created with Sketch.</desc>
    <defs></defs>
    <g id="Page-1" stroke="none" stroke-width="1" fill="none" fill-rule="evenodd">
        <g id="Desktop-HD" transform="translate(-420.000000, -572.000000)" fill="#000000">
            <g id="Group-10" transform="translate(420.000000, 572.000000)">
                <path d="M9.55078125,11 L7.70507812,11 L7.70507812,6.26123047 L2.93701172,6.26123047 L2.93701172,11 L1.08398438,11 L1.08398438,0.3359375 L2.93701172,0.3359375 L2.93701172,4.77441406 L7.70507812,4.77441406 L7.70507812,0.3359375 L9.55078125,0.3359375 L9.55078125,11 Z M15.6962891,11 L13.8505859,11 L13.8505859,0.3359375 L15.6962891,0.3359375 L15.6962891,11 Z M28.1479492,9.61572266 C27.7622051,10.1186549 27.2275425,10.4995104 26.5439453,10.7583008 C25.8603481,11.0170911 25.0839887,11.1464844 24.2148438,11.1464844 C23.3212846,11.1464844 22.5302769,10.9438497 21.8417969,10.5385742 C21.1533169,10.1332988 20.6223163,9.55347057 20.2487793,8.79907227 C19.8752423,8.04467396 19.6811524,7.16455581 19.6665039,6.15869141 L19.6665039,5.32373047 C19.6665039,3.71239429 20.0522422,2.45386195 20.8237305,1.5480957 C21.5952187,0.642329456 22.6718681,0.189453125 24.0537109,0.189453125 C25.2402403,0.189453125 26.1826137,0.482418945 26.8808594,1.06835938 C27.5791051,1.6542998 27.9990227,2.49901792 28.140625,3.60253906 L26.3242188,3.60253906 C26.1191396,2.31835295 25.3745181,1.67626953 24.090332,1.67626953 C23.2602498,1.67626953 22.6291526,1.97533881 22.1970215,2.57348633 C21.7648904,3.17163385 21.541504,4.04931062 21.5268555,5.20654297 L21.5268555,6.02685547 C21.5268555,7.17920498 21.769773,8.07397142 22.2556152,8.71118164 C22.7414575,9.34839186 23.4164996,9.66699219 24.2807617,9.66699219 C25.2280321,9.66699219 25.9018535,9.45215059 26.3022461,9.02246094 L26.3022461,6.93505859 L24.1049805,6.93505859 L24.1049805,5.52880859 L28.1479492,5.52880859 L28.1479492,9.61572266 Z M40.6508789,11 L38.8051758,11 L38.8051758,6.26123047 L34.0371094,6.26123047 L34.0371094,11 L32.184082,11 L32.184082,0.3359375 L34.0371094,0.3359375 L34.0371094,4.77441406 L38.8051758,4.77441406 L38.8051758,0.3359375 L40.6508789,0.3359375 L40.6508789,11 Z M46.6938477,9.52050781 L51.5351562,9.52050781 L51.5351562,11 L44.8408203,11 L44.8408203,0.3359375 L46.6938477,0.3359375 L46.6938477,9.52050781 Z M56.9116211,11 L55.065918,11 L55.065918,0.3359375 L56.9116211,0.3359375 L56.9116211,11 Z M69.6489258,11 L67.7958984,11 L63.0424805,3.43408203 L63.0424805,11 L61.1894531,11 L61.1894531,0.3359375 L63.0424805,0.3359375 L67.8105469,7.93115234 L67.8105469,0.3359375 L69.6489258,0.3359375 L69.6489258,11 Z M80.0717773,6.23925781 L75.6918945,6.23925781 L75.6918945,9.52050781 L80.8115234,9.52050781 L80.8115234,11 L73.8388672,11 L73.8388672,0.3359375 L80.7602539,0.3359375 L80.7602539,1.83007812 L75.6918945,1.83007812 L75.6918945,4.77441406 L80.0717773,4.77441406 L80.0717773,6.23925781 Z" id="HIGHLINE"></path>
                <path d="M3.31787109,41.121582 L3.64746094,42.7768555 L4.05029297,41.1948242 L6.36474609,33.3359375 L7.17773437,33.3359375 L9.46289062,41.1948242 L9.85839844,42.7915039 L10.2099609,41.121582 L12.1362305,33.3359375 L13.059082,33.3359375 L10.3271484,44 L9.46289062,44 L7.04589844,35.6577148 L6.77490234,34.6030273 L6.51123047,35.6577148 L4.03564453,44 L3.17138672,44 L0.446777344,33.3359375 L1.36962891,33.3359375 L3.31787109,41.121582 Z M19.4316406,44.1464844 C18.7578091,44.1464844 18.1486844,43.9804704 17.604248,43.6484375 C17.0598117,43.3164046 16.636232,42.8537627 16.3334961,42.260498 C16.0307602,41.6672334 15.8793945,41.0019568 15.8793945,40.2646484 L15.8793945,39.949707 C15.8793945,39.1879845 16.0270981,38.5019562 16.3225098,37.8916016 C16.6179214,37.2812469 17.0292942,36.8015154 17.5566406,36.4523926 C18.083987,36.1032697 18.6552704,35.9287109 19.2705078,35.9287109 C20.2324267,35.9287109 20.9953585,36.2570768 21.5593262,36.9138184 C22.1232938,37.5705599 22.4052734,38.4677677 22.4052734,39.6054688 L22.4052734,40.0961914 L16.7509766,40.0961914 L16.7509766,40.2646484 C16.7509766,41.1630904 17.0085423,41.911374 17.5236816,42.5095215 C18.0388209,43.107669 18.6870078,43.4067383 19.4682617,43.4067383 C19.9370141,43.4067383 20.3508283,43.3212899 20.7097168,43.1503906 C21.0686053,42.9794913 21.3945298,42.7060566 21.6875,42.3300781 L22.2368164,42.7475586 C21.5922819,43.6801804 20.6572327,44.1464844 19.4316406,44.1464844 Z M19.2705078,36.6757812 C18.6113248,36.6757812 18.0559105,36.9174781 17.604248,37.4008789 C17.1525856,37.8842798 16.8779302,38.5336873 16.7802734,39.3491211 L21.5336914,39.3491211 L21.5336914,39.2539062 C21.5092772,38.4921837 21.2919942,37.8720727 20.8818359,37.3935547 C20.4716776,36.9150367 19.9345736,36.6757812 19.2705078,36.6757812 Z M31.2758789,39.9204102 C31.2758789,39.1586876 31.4235825,38.4726593 31.7189941,37.8623047 C32.0144058,37.2519501 32.4318821,36.7771013 32.9714355,36.4377441 C33.510989,36.098387 34.1225552,35.9287109 34.8061523,35.9287109 C35.8608451,35.9287109 36.7153288,36.2985803 37.3696289,37.0383301 C38.0239291,37.7780799 38.3510742,38.7582947 38.3510742,39.9790039 L38.3510742,40.1621094 C38.3510742,40.9287148 38.2033706,41.6184051 37.907959,42.2312012 C37.6125474,42.8439972 37.1962917,43.3164046 36.6591797,43.6484375 C36.1220676,43.9804704 35.5092808,44.1464844 34.8208008,44.1464844 C33.7709908,44.1464844 32.9177279,43.776615 32.2609863,43.0368652 C31.6042448,42.2971154 31.2758789,41.3169006 31.2758789,40.0961914 L31.2758789,39.9204102 Z M32.1547852,40.1621094 C32.1547852,41.1093797 32.400144,41.8869599 32.8908691,42.494873 C33.3815943,43.1027862 34.0248984,43.4067383 34.8208008,43.4067383 C35.6118204,43.4067383 36.2526831,43.1027862 36.7434082,42.494873 C37.2341333,41.8869599 37.4794922,41.0849659 37.4794922,40.0888672 L37.4794922,39.9204102 C37.4794922,39.3149384 37.3671886,38.7607447 37.1425781,38.2578125 C36.9179676,37.7548803 36.6030294,37.3654799 36.1977539,37.0895996 C35.7924784,36.8137193 35.3286159,36.6757812 34.8061523,36.6757812 C34.0248984,36.6757812 33.3876978,36.9821747 32.8945312,37.5949707 C32.4013647,38.2077667 32.1547852,39.0097607 32.1547852,40.0009766 L32.1547852,40.1621094 Z M48.5322266,40.1181641 C48.5322266,41.3535218 48.2587918,42.3337366 47.7119141,43.0588379 C47.1650363,43.7839392 46.4326218,44.1464844 45.5146484,44.1464844 C44.4306586,44.1464844 43.6005888,43.7656288 43.0244141,43.0039062 L43.0244141,47.046875 L42.152832,47.046875 L42.152832,36.0751953 L42.9658203,36.0751953 L43.0097656,37.1958008 C43.5810575,36.35107 44.408686,35.9287109 45.4926758,35.9287109 C46.4399461,35.9287109 47.1833469,36.2875941 47.7229004,37.0053711 C48.2624539,37.7231481 48.5322266,38.7192319 48.5322266,39.9936523 L48.5322266,40.1181641 Z M47.6533203,39.9643555 C47.6533203,38.9536082 47.4458029,38.1552764 47.0307617,37.5693359 C46.6157206,36.9833955 46.0371131,36.6904297 45.2949219,36.6904297 C44.7578098,36.6904297 44.2963886,36.8198229 43.9106445,37.0786133 C43.5249004,37.3374036 43.2294932,37.7133764 43.0244141,38.206543 L43.0244141,42.0078125 C43.234376,42.4619163 43.534666,42.8085926 43.925293,43.0478516 C44.3159199,43.2871106 44.7773411,43.4067383 45.3095703,43.4067383 C46.0468787,43.4067383 46.6218241,43.1125518 47.0344238,42.5241699 C47.4470235,41.9357881 47.6533203,41.0825251 47.6533203,39.9643555 Z M55.5419922,44.1464844 C54.8681607,44.1464844 54.2590359,43.9804704 53.7145996,43.6484375 C53.1701633,43.3164046 52.7465835,42.8537627 52.4438477,42.260498 C52.1411118,41.6672334 51.9897461,41.0019568 51.9897461,40.2646484 L51.9897461,39.949707 C51.9897461,39.1879845 52.1374497,38.5019562 52.4328613,37.8916016 C52.728273,37.2812469 53.1396458,36.8015154 53.6669922,36.4523926 C54.1943386,36.1032697 54.7656219,35.9287109 55.3808594,35.9287109 C56.3427782,35.9287109 57.1057101,36.2570768 57.6696777,36.9138184 C58.2336454,37.5705599 58.515625,38.4677677 58.515625,39.6054688 L58.515625,40.0961914 L52.8613281,40.0961914 L52.8613281,40.2646484 C52.8613281,41.1630904 53.1188939,41.911374 53.6340332,42.5095215 C54.1491725,43.107669 54.7973594,43.4067383 55.5786133,43.4067383 C56.0473656,43.4067383 56.4611798,43.3212899 56.8200684,43.1503906 C57.1789569,42.9794913 57.5048813,42.7060566 57.7978516,42.3300781 L58.347168,42.7475586 C57.7026335,43.6801804 56.7675843,44.1464844 55.5419922,44.1464844 Z M55.3808594,36.6757812 C54.7216764,36.6757812 54.166262,36.9174781 53.7145996,37.4008789 C53.2629372,37.8842798 52.9882817,38.5336873 52.890625,39.3491211 L57.644043,39.3491211 L57.644043,39.2539062 C57.6196288,38.4921837 57.4023458,37.8720727 56.9921875,37.3935547 C56.5820292,36.9150367 56.0449252,36.6757812 55.3808594,36.6757812 Z M63.0571289,36.0751953 L63.0864258,37.4301758 C63.3842788,36.9418921 63.7553689,36.5695814 64.199707,36.3132324 C64.6440452,36.0568835 65.1347629,35.9287109 65.671875,35.9287109 C66.5214886,35.9287109 67.1538065,36.1679664 67.5688477,36.6464844 C67.9838888,37.1250024 68.1938476,37.8427687 68.1987305,38.7998047 L68.1987305,44 L67.3271484,44 L67.3271484,38.7924805 C67.3222656,38.0844691 67.1721206,37.5571306 66.876709,37.2104492 C66.5812974,36.8637678 66.10889,36.6904297 65.4594727,36.6904297 C64.9174778,36.6904297 64.4377462,36.8601057 64.0202637,37.1994629 C63.6027811,37.5388201 63.2939463,37.9965792 63.09375,38.5727539 L63.09375,44 L62.222168,44 L62.222168,36.0751953 L63.0571289,36.0751953 Z M83.1118164,44 C83.0239253,43.7509753 82.9677736,43.3823267 82.9433594,42.894043 C82.6357406,43.2944356 82.2438989,43.6032704 81.7678223,43.8205566 C81.2917457,44.0378429 80.7876003,44.1464844 80.2553711,44.1464844 C79.4936485,44.1464844 78.8771996,43.9340842 78.4060059,43.5092773 C77.9348121,43.0844705 77.6992188,42.5473665 77.6992188,41.8979492 C77.6992188,41.126461 78.0202605,40.5161155 78.6623535,40.0668945 C79.3044466,39.6176735 80.199213,39.3930664 81.3466797,39.3930664 L82.9360352,39.3930664 L82.9360352,38.4921875 C82.9360352,37.9257784 82.7614764,37.4802262 82.4123535,37.1555176 C82.0632307,36.8308089 81.5542026,36.668457 80.8852539,36.668457 C80.2748993,36.668457 79.7695333,36.8247055 79.3691406,37.137207 C78.968748,37.4497086 78.7685547,37.8256814 78.7685547,38.2651367 L77.8896484,38.2578125 C77.8896484,37.6279265 78.1826143,37.0822777 78.7685547,36.6208496 C79.3544951,36.1594215 80.0747028,35.9287109 80.9291992,35.9287109 C81.8129927,35.9287109 82.5100072,36.149656 83.0202637,36.5915527 C83.5305201,37.0334495 83.7929687,37.6498984 83.8076172,38.440918 L83.8076172,42.190918 C83.8076172,42.9575234 83.8881828,43.5312481 84.0493164,43.9121094 L84.0493164,44 L83.1118164,44 Z M80.3579102,43.3701172 C80.9438506,43.3701172 81.467527,43.228517 81.9289551,42.9453125 C82.3903832,42.662108 82.7260732,42.2836938 82.9360352,41.8100586 L82.9360352,40.0668945 L81.3686523,40.0668945 C80.4946245,40.0766602 79.8110376,40.2365707 79.3178711,40.5466309 C78.8247046,40.856691 78.578125,41.2827121 78.578125,41.824707 C78.578125,42.2690452 78.7429183,42.6376938 79.0725098,42.9306641 C79.4021013,43.2236343 79.8305638,43.3701172 80.3579102,43.3701172 Z M94.6264648,36.0751953 L94.6557617,37.4301758 C94.9536148,36.9418921 95.3247048,36.5695814 95.769043,36.3132324 C96.2133811,36.0568835 96.7040989,35.9287109 97.2412109,35.9287109 C98.0908246,35.9287109 98.7231425,36.1679664 99.1381836,36.6464844 C99.5532247,37.1250024 99.7631836,37.8427687 99.7680664,38.7998047 L99.7680664,44 L98.8964844,44 L98.8964844,38.7924805 C98.8916015,38.0844691 98.7414566,37.5571306 98.4460449,37.2104492 C98.1506333,36.8637678 97.6782259,36.6904297 97.0288086,36.6904297 C96.4868137,36.6904297 96.0070822,36.8601057 95.5895996,37.1994629 C95.1721171,37.5388201 94.8632823,37.9965792 94.6630859,38.5727539 L94.6630859,44 L93.7915039,44 L93.7915039,36.0751953 L94.6264648,36.0751953 Z M107.100098,44.1464844 C106.426266,44.1464844 105.817141,43.9804704 105.272705,43.6484375 C104.728269,43.3164046 104.304689,42.8537627 104.001953,42.260498 C103.699217,41.6672334 103.547852,41.0019568 103.547852,40.2646484 L103.547852,39.949707 C103.547852,39.1879845 103.695555,38.5019562 103.990967,37.8916016 C104.286378,37.2812469 104.697751,36.8015154 105.225098,36.4523926 C105.752444,36.1032697 106.323727,35.9287109 106.938965,35.9287109 C107.900884,35.9287109 108.663816,36.2570768 109.227783,36.9138184 C109.791751,37.5705599 110.07373,38.4677677 110.07373,39.6054688 L110.07373,40.0961914 L104.419434,40.0961914 L104.419434,40.2646484 C104.419434,41.1630904 104.676999,41.911374 105.192139,42.5095215 C105.707278,43.107669 106.355465,43.4067383 107.136719,43.4067383 C107.605471,43.4067383 108.019285,43.3212899 108.378174,43.1503906 C108.737062,42.9794913 109.062987,42.7060566 109.355957,42.3300781 L109.905273,42.7475586 C109.260739,43.6801804 108.32569,44.1464844 107.100098,44.1464844 Z M106.938965,36.6757812 C106.279782,36.6757812 105.724367,36.9174781 105.272705,37.4008789 C104.821043,37.8842798 104.546387,38.5336873 104.44873,39.3491211 L109.202148,39.3491211 L109.202148,39.2539062 C109.177734,38.4921837 108.960451,37.8720727 108.550293,37.3935547 C108.140135,36.9150367 107.603031,36.6757812 106.938965,36.6757812 Z M115.677246,42.1762695 L115.809082,42.8574219 L115.984863,42.1396484 L117.88916,36.0751953 L118.63623,36.0751953 L120.518555,42.0883789 L120.723633,42.9233398 L120.89209,42.1542969 L122.518066,36.0751953 L123.42627,36.0751953 L121.119141,44 L120.37207,44 L118.335937,37.7158203 L118.240723,37.2836914 L118.145508,37.7231445 L116.145996,44 L115.398926,44 L113.099121,36.0751953 L114,36.0751953 L115.677246,42.1762695 Z M140.844238,44 L139.936035,44 L139.936035,38.8876953 L133.842285,38.8876953 L133.842285,44 L132.941406,44 L132.941406,33.3359375 L133.842285,33.3359375 L133.842285,38.1259766 L139.936035,38.1259766 L139.936035,33.3359375 L140.844238,33.3359375 L140.844238,44 Z M146.330566,44 L145.45166,44 L145.45166,36.0751953 L146.330566,36.0751953 L146.330566,44 Z M145.297852,33.7827148 C145.297852,33.6166984 145.351562,33.4763189 145.458984,33.3615723 C145.566407,33.2468256 145.71289,33.1894531 145.898438,33.1894531 C146.083985,33.1894531 146.231689,33.2468256 146.341553,33.3615723 C146.451417,33.4763189 146.506348,33.6166984 146.506348,33.7827148 C146.506348,33.9487313 146.451417,34.0878901 146.341553,34.2001953 C146.231689,34.3125006 146.083985,34.3686523 145.898438,34.3686523 C145.71289,34.3686523 145.566407,34.3125006 145.458984,34.2001953 C145.351562,34.0878901 145.297852,33.9487313 145.297852,33.7827148 Z M150.359375,39.9643555 C150.359375,38.7241149 150.63403,37.7414587 151.18335,37.0163574 C151.732669,36.2912561 152.478511,35.9287109 153.420898,35.9287109 C154.500005,35.9287109 155.32031,36.3583941 155.881836,37.2177734 L155.925781,36.0751953 L156.746094,36.0751953 L156.746094,43.8388672 C156.746094,44.8593801 156.460452,45.6674775 155.88916,46.2631836 C155.317868,46.8588897 154.54395,47.1567383 153.567383,47.1567383 C153.015622,47.1567383 152.489504,47.0334485 151.989014,46.7868652 C151.488523,46.540282 151.09424,46.2119161 150.806152,45.8017578 L151.296875,45.2744141 C151.916995,46.0361366 152.654293,46.4169922 153.508789,46.4169922 C154.241215,46.4169922 154.812498,46.2009299 155.222656,45.7687988 C155.632815,45.3366678 155.845215,44.7373085 155.859863,43.9707031 L155.859863,42.9746094 C155.298337,43.7558633 154.480474,44.1464844 153.40625,44.1464844 C152.488277,44.1464844 151.750979,43.7802771 151.194336,43.0478516 C150.637693,42.315426 150.359375,41.3266664 150.359375,40.081543 L150.359375,39.9643555 Z M151.245605,40.1181641 C151.245605,41.1289113 151.44824,41.9260225 151.853516,42.5095215 C152.258791,43.0930205 152.830074,43.3847656 153.567383,43.3847656 C154.64649,43.3847656 155.410642,42.901372 155.859863,41.9345703 L155.859863,38.2504883 C155.654784,37.7426732 155.359377,37.3557142 154.973633,37.0895996 C154.587889,36.823485 154.124026,36.6904297 153.582031,36.6904297 C152.844723,36.6904297 152.270998,36.9797334 151.86084,37.5583496 C151.450682,38.1369658 151.245605,38.9902287 151.245605,40.1181641 Z M161.902832,37.4155273 C162.190919,36.9418922 162.559568,36.5756849 163.008789,36.3168945 C163.45801,36.0581042 163.948728,35.9287109 164.480957,35.9287109 C165.330571,35.9287109 165.962889,36.1679664 166.37793,36.6464844 C166.792971,37.1250024 167.00293,37.8427687 167.007812,38.7998047 L167.007812,44 L166.13623,44 L166.13623,38.7924805 C166.131348,38.0844691 165.981203,37.5571306 165.685791,37.2104492 C165.390379,36.8637678 164.917972,36.6904297 164.268555,36.6904297 C163.72656,36.6904297 163.246828,36.8601057 162.829346,37.1994629 C162.411863,37.5388201 162.103028,37.9965792 161.902832,38.5727539 L161.902832,44 L161.03125,44 L161.03125,32.75 L161.902832,32.75 L161.902832,37.4155273 Z M172.245117,44 L171.366211,44 L171.366211,32.75 L172.245117,32.75 L172.245117,44 Z M177.606934,44 L176.728027,44 L176.728027,36.0751953 L177.606934,36.0751953 L177.606934,44 Z M176.574219,33.7827148 C176.574219,33.6166984 176.627929,33.4763189 176.735352,33.3615723 C176.842774,33.2468256 176.989257,33.1894531 177.174805,33.1894531 C177.360352,33.1894531 177.508056,33.2468256 177.61792,33.3615723 C177.727784,33.4763189 177.782715,33.6166984 177.782715,33.7827148 C177.782715,33.9487313 177.727784,34.0878901 177.61792,34.2001953 C177.508056,34.3125006 177.360352,34.3686523 177.174805,34.3686523 C176.989257,34.3686523 176.842774,34.3125006 176.735352,34.2001953 C176.627929,34.0878901 176.574219,33.9487313 176.574219,33.7827148 Z M182.822266,36.0751953 L182.851563,37.4301758 C183.149416,36.9418921 183.520506,36.5695814 183.964844,36.3132324 C184.409182,36.0568835 184.8999,35.9287109 185.437012,35.9287109 C186.286625,35.9287109 186.918943,36.1679664 187.333984,36.6464844 C187.749026,37.1250024 187.958984,37.8427687 187.963867,38.7998047 L187.963867,44 L187.092285,44 L187.092285,38.7924805 C187.087402,38.0844691 186.937257,37.5571306 186.641846,37.2104492 C186.346434,36.8637678 185.874027,36.6904297 185.224609,36.6904297 C184.682614,36.6904297 184.202883,36.8601057 183.7854,37.1994629 C183.367918,37.5388201 183.059083,37.9965792 182.858887,38.5727539 L182.858887,44 L181.987305,44 L181.987305,36.0751953 L182.822266,36.0751953 Z M195.295898,44.1464844 C194.622067,44.1464844 194.012942,43.9804704 193.468506,43.6484375 C192.92407,43.3164046 192.50049,42.8537627 192.197754,42.260498 C191.895018,41.6672334 191.743652,41.0019568 191.743652,40.2646484 L191.743652,39.949707 C191.743652,39.1879845 191.891356,38.5019562 192.186768,37.8916016 C192.482179,37.2812469 192.893552,36.8015154 193.420898,36.4523926 C193.948245,36.1032697 194.519528,35.9287109 195.134766,35.9287109 C196.096684,35.9287109 196.859616,36.2570768 197.423584,36.9138184 C197.987552,37.5705599 198.269531,38.4677677 198.269531,39.6054688 L198.269531,40.0961914 L192.615234,40.0961914 L192.615234,40.2646484 C192.615234,41.1630904 192.8728,41.911374 193.387939,42.5095215 C193.903079,43.107669 194.551266,43.4067383 195.33252,43.4067383 C195.801272,43.4067383 196.215086,43.3212899 196.573975,43.1503906 C196.932863,42.9794913 197.258788,42.7060566 197.551758,42.3300781 L198.101074,42.7475586 C197.45654,43.6801804 196.521491,44.1464844 195.295898,44.1464844 Z M195.134766,36.6757812 C194.475583,36.6757812 193.920168,36.9174781 193.468506,37.4008789 C193.016843,37.8842798 192.742188,38.5336873 192.644531,39.3491211 L197.397949,39.3491211 L197.397949,39.2539062 C197.373535,38.4921837 197.156252,37.8720727 196.746094,37.3935547 C196.335935,36.9150367 195.798831,36.6757812 195.134766,36.6757812 Z M208.60498,44 L207.726074,44 L207.726074,36.0751953 L208.60498,36.0751953 L208.60498,44 Z M207.572266,33.7827148 C207.572266,33.6166984 207.625976,33.4763189 207.733398,33.3615723 C207.840821,33.2468256 207.987304,33.1894531 208.172852,33.1894531 C208.358399,33.1894531 208.506103,33.2468256 208.615967,33.3615723 C208.725831,33.4763189 208.780762,33.6166984 208.780762,33.7827148 C208.780762,33.9487313 208.725831,34.0878901 208.615967,34.2001953 C208.506103,34.3125006 208.358399,34.3686523 208.172852,34.3686523 C207.987304,34.3686523 207.840821,34.3125006 207.733398,34.2001953 C207.625976,34.0878901 207.572266,33.9487313 207.572266,33.7827148 Z M213.820312,36.0751953 L213.849609,37.4301758 C214.147462,36.9418921 214.518552,36.5695814 214.962891,36.3132324 C215.407229,36.0568835 215.897947,35.9287109 216.435059,35.9287109 C217.284672,35.9287109 217.91699,36.1679664 218.332031,36.6464844 C218.747072,37.1250024 218.957031,37.8427687 218.961914,38.7998047 L218.961914,44 L218.090332,44 L218.090332,38.7924805 C218.085449,38.0844691 217.935304,37.5571306 217.639893,37.2104492 C217.344481,36.8637678 216.872074,36.6904297 216.222656,36.6904297 C215.680661,36.6904297 215.20093,36.8601057 214.783447,37.1994629 C214.365965,37.5388201 214.05713,37.9965792 213.856934,38.5727539 L213.856934,44 L212.985352,44 L212.985352,36.0751953 L213.820312,36.0751953 Z M236.628906,40.6748047 C236.506835,41.7978572 236.105228,42.6572236 235.424072,43.2529297 C234.742917,43.8486358 233.835943,44.1464844 232.703125,44.1464844 C231.912105,44.1464844 231.21265,43.9487324 230.604736,43.5532227 C229.996823,43.1577129 229.526857,42.5974157 229.194824,41.8723145 C228.862791,41.1472132 228.694336,40.318364 228.689453,39.3857422 L228.689453,38.0014648 C228.689453,37.0541945 228.855467,36.2143591 229.1875,35.4819336 C229.519533,34.7495081 229.996823,34.1843282 230.619385,33.786377 C231.241946,33.3884257 231.958492,33.1894531 232.769043,33.1894531 C233.911627,33.1894531 234.813717,33.4982879 235.475342,34.1159668 C236.136966,34.7336457 236.521484,35.5869086 236.628906,36.6757812 L235.720703,36.6757812 C235.496093,34.8642488 234.512216,33.9584961 232.769043,33.9584961 C231.802241,33.9584961 231.031985,34.3198206 230.458252,35.0424805 C229.884519,35.7651403 229.597656,36.7636655 229.597656,38.0380859 L229.597656,39.3417969 C229.597656,40.5722718 229.877194,41.5537073 230.436279,42.2861328 C230.995364,43.0185583 231.750972,43.3847656 232.703125,43.3847656 C233.645513,43.3847656 234.355955,43.1589378 234.834473,42.7072754 C235.312991,42.255613 235.608398,41.5781295 235.720703,40.6748047 L236.628906,40.6748047 Z M243.682617,44.1464844 C243.008786,44.1464844 242.399661,43.9804704 241.855225,43.6484375 C241.310788,43.3164046 240.887209,42.8537627 240.584473,42.260498 C240.281737,41.6672334 240.130371,41.0019568 240.130371,40.2646484 L240.130371,39.949707 C240.130371,39.1879845 240.278075,38.5019562 240.573486,37.8916016 C240.868898,37.2812469 241.280271,36.8015154 241.807617,36.4523926 C242.334964,36.1032697 242.906247,35.9287109 243.521484,35.9287109 C244.483403,35.9287109 245.246335,36.2570768 245.810303,36.9138184 C246.37427,37.5705599 246.65625,38.4677677 246.65625,39.6054688 L246.65625,40.0961914 L241.001953,40.0961914 L241.001953,40.2646484 C241.001953,41.1630904 241.259519,41.911374 241.774658,42.5095215 C242.289797,43.107669 242.937984,43.4067383 243.719238,43.4067383 C244.187991,43.4067383 244.601805,43.3212899 244.960693,43.1503906 C245.319582,42.9794913 245.645506,42.7060566 245.938477,42.3300781 L246.487793,42.7475586 C245.843258,43.6801804 244.908209,44.1464844 243.682617,44.1464844 Z M243.521484,36.6757812 C242.862301,36.6757812 242.306887,36.9174781 241.855225,37.4008789 C241.403562,37.8842798 241.128907,38.5336873 241.03125,39.3491211 L245.784668,39.3491211 L245.784668,39.2539062 C245.760254,38.4921837 245.542971,37.8720727 245.132812,37.3935547 C244.722654,36.9150367 244.18555,36.6757812 243.521484,36.6757812 Z M250.01123,39.9643555 C250.01123,38.7338806 250.285886,37.7536658 250.835205,37.0236816 C251.384524,36.2936975 252.130366,35.9287109 253.072754,35.9287109 C254.142095,35.9287109 254.957517,36.35107 255.519043,37.1958008 L255.519043,32.75 L256.390625,32.75 L256.390625,44 L255.570312,44 L255.533691,42.9453125 C254.972165,43.7460978 254.146978,44.1464844 253.058105,44.1464844 C252.145015,44.1464844 251.408938,43.7790564 250.849854,43.0441895 C250.290769,42.3093225 250.01123,41.3169008 250.01123,40.0668945 L250.01123,39.9643555 Z M250.897461,40.1181641 C250.897461,41.1289113 251.100096,41.9260225 251.505371,42.5095215 C251.910647,43.0930205 252.48193,43.3847656 253.219238,43.3847656 C254.298345,43.3847656 255.064939,42.9086962 255.519043,41.956543 L255.519043,38.2358398 C255.064939,37.2055613 254.303228,36.6904297 253.233887,36.6904297 C252.496578,36.6904297 251.922854,36.9797334 251.512695,37.5583496 C251.102537,38.1369658 250.897461,38.9902287 250.897461,40.1181641 Z M265.700195,44 C265.612304,43.7509753 265.556152,43.3823267 265.531738,42.894043 C265.22412,43.2944356 264.832278,43.6032704 264.356201,43.8205566 C263.880125,44.0378429 263.375979,44.1464844 262.84375,44.1464844 C262.082027,44.1464844 261.465579,43.9340842 260.994385,43.5092773 C260.523191,43.0844705 260.287598,42.5473665 260.287598,41.8979492 C260.287598,41.126461 260.608639,40.5161155 261.250732,40.0668945 C261.892825,39.6176735 262.787592,39.3930664 263.935059,39.3930664 L265.524414,39.3930664 L265.524414,38.4921875 C265.524414,37.9257784 265.349855,37.4802262 265.000732,37.1555176 C264.65161,36.8308089 264.142581,36.668457 263.473633,36.668457 C262.863278,36.668457 262.357912,36.8247055 261.95752,37.137207 C261.557127,37.4497086 261.356934,37.8256814 261.356934,38.2651367 L260.478027,38.2578125 C260.478027,37.6279265 260.770993,37.0822777 261.356934,36.6208496 C261.942874,36.1594215 262.663082,35.9287109 263.517578,35.9287109 C264.401372,35.9287109 265.098386,36.149656 265.608643,36.5915527 C266.118899,37.0334495 266.381348,37.6498984 266.395996,38.440918 L266.395996,42.190918 C266.395996,42.9575234 266.476562,43.5312481 266.637695,43.9121094 L266.637695,44 L265.700195,44 Z M262.946289,43.3701172 C263.532229,43.3701172 264.055906,43.228517 264.517334,42.9453125 C264.978762,42.662108 265.314452,42.2836938 265.524414,41.8100586 L265.524414,40.0668945 L263.957031,40.0668945 C263.083003,40.0766602 262.399417,40.2365707 261.90625,40.5466309 C261.413083,40.856691 261.166504,41.2827121 261.166504,41.824707 C261.166504,42.2690452 261.331297,42.6376938 261.660889,42.9306641 C261.99048,43.2236343 262.418943,43.3701172 262.946289,43.3701172 Z M274.394531,36.8222656 C274.208983,36.7880858 274.011232,36.7709961 273.80127,36.7709961 C273.254392,36.7709961 272.79175,36.9235825 272.41333,37.2287598 C272.03491,37.5339371 271.765138,37.9770479 271.604004,38.5581055 L271.604004,44 L270.732422,44 L270.732422,36.0751953 L271.589355,36.0751953 L271.604004,37.3349609 C272.067873,36.3974563 272.812495,35.9287109 273.837891,35.9287109 C274.082032,35.9287109 274.274902,35.9604489 274.416504,36.0239258 L274.394531,36.8222656 Z M1.34765625,62 L1.34765625,51.3359375 L4.49707031,51.3359375 C5.63965415,51.3359375 6.5063447,51.5715308 7.09716797,52.0427246 C7.68799124,52.5139184 7.98339844,53.2084915 7.98339844,54.1264648 C7.98339844,54.6782254 7.83325345,55.1579569 7.53295898,55.5656738 C7.23266451,55.9733907 6.82129167,56.2651358 6.29882812,56.440918 C6.91894841,56.5776374 7.418211,56.8828101 7.79663086,57.3564453 C8.17505072,57.8300805 8.36425781,58.37695 8.36425781,58.9970703 C8.36425781,59.9394578 8.06030577,60.6755345 7.45239258,61.2053223 C6.84447938,61.7351101 5.99854058,62 4.91455078,62 L1.34765625,62 Z M2.24853516,56.8730469 L2.24853516,61.2382812 L4.95117188,61.2382812 C5.72266011,61.2382812 6.33422626,61.04175 6.78588867,60.6486816 C7.23755109,60.2556133 7.46337891,59.7099644 7.46337891,59.0117188 C7.46337891,58.3525358 7.24731661,57.8313007 6.81518555,57.447998 C6.38305448,57.0646953 5.78613662,56.8730469 5.02441406,56.8730469 L2.24853516,56.8730469 Z M2.24853516,56.1186523 L4.70947266,56.1186523 C5.46142954,56.1040038 6.04369911,55.9270036 6.45629883,55.5876465 C6.86889855,55.2482893 7.07519531,54.7539095 7.07519531,54.1044922 C7.07519531,53.420895 6.8615744,52.9167497 6.43432617,52.592041 C6.00707794,52.2673324 5.36133245,52.1049805 4.49707031,52.1049805 L2.24853516,52.1049805 L2.24853516,56.1186523 Z M15.996582,54.8222656 C15.8110342,54.7880858 15.6132823,54.7709961 15.4033203,54.7709961 C14.8564426,54.7709961 14.3938007,54.9235825 14.0153809,55.2287598 C13.636961,55.5339371 13.3671883,55.9770479 13.2060547,56.5581055 L13.2060547,62 L12.3344727,62 L12.3344727,54.0751953 L13.1914062,54.0751953 L13.2060547,55.3349609 C13.6699242,54.3974563 14.4145457,53.9287109 15.4399414,53.9287109 C15.6840833,53.9287109 15.8769524,53.9604489 16.0185547,54.0239258 L15.996582,54.8222656 Z M22.3105469,62.1464844 C21.6367154,62.1464844 21.0275906,61.9804704 20.4831543,61.6484375 C19.938718,61.3164046 19.5151382,60.8537627 19.2124023,60.260498 C18.9096665,59.6672334 18.7583008,59.0019568 18.7583008,58.2646484 L18.7583008,57.949707 C18.7583008,57.1879845 18.9060044,56.5019562 19.201416,55.8916016 C19.4968276,55.2812469 19.9082005,54.8015154 20.4355469,54.4523926 C20.9628933,54.1032697 21.5341766,53.9287109 22.1494141,53.9287109 C23.1113329,53.9287109 23.8742648,54.2570768 24.4382324,54.9138184 C25.0022001,55.5705599 25.2841797,56.4677677 25.2841797,57.6054688 L25.2841797,58.0961914 L19.6298828,58.0961914 L19.6298828,58.2646484 C19.6298828,59.1630904 19.8874486,59.911374 20.4025879,60.5095215 C20.9177272,61.107669 21.5659141,61.4067383 22.347168,61.4067383 C22.8159203,61.4067383 23.2297345,61.3212899 23.588623,61.1503906 C23.9475116,60.9794913 24.273436,60.7060566 24.5664062,60.3300781 L25.1157227,60.7475586 C24.4711882,61.6801804 23.5361389,62.1464844 22.3105469,62.1464844 Z M22.1494141,54.6757812 C21.4902311,54.6757812 20.9348167,54.9174781 20.4831543,55.4008789 C20.0314919,55.8842798 19.7568364,56.5336873 19.6591797,57.3491211 L24.4125977,57.3491211 L24.4125977,57.2539062 C24.3881835,56.4921837 24.1709005,55.8720727 23.7607422,55.3935547 C23.3505839,54.9150367 22.8134799,54.6757812 22.1494141,54.6757812 Z M33.9931641,62 C33.905273,61.7509753 33.8491212,61.3823267 33.824707,60.894043 C33.5170883,61.2944356 33.1252465,61.6032704 32.6491699,61.8205566 C32.1730933,62.0378429 31.668948,62.1464844 31.1367188,62.1464844 C30.3749962,62.1464844 29.7585473,61.9340842 29.2873535,61.5092773 C28.8161598,61.0844705 28.5805664,60.5473665 28.5805664,59.8979492 C28.5805664,59.126461 28.9016081,58.5161155 29.5437012,58.0668945 C30.1857942,57.6176735 31.0805607,57.3930664 32.2280273,57.3930664 L33.8173828,57.3930664 L33.8173828,56.4921875 C33.8173828,55.9257784 33.642824,55.4802262 33.2937012,55.1555176 C32.9445783,54.8308089 32.4355502,54.668457 31.7666016,54.668457 C31.1562469,54.668457 30.6508809,54.8247055 30.2504883,55.137207 C29.8500957,55.4497086 29.6499023,55.8256814 29.6499023,56.2651367 L28.7709961,56.2578125 C28.7709961,55.6279265 29.0639619,55.0822777 29.6499023,54.6208496 C30.2358428,54.1594215 30.9560504,53.9287109 31.8105469,53.9287109 C32.6943404,53.9287109 33.3913549,54.149656 33.9016113,54.5915527 C34.4118678,55.0334495 34.6743163,55.6498984 34.6889648,56.440918 L34.6889648,60.190918 C34.6889648,60.9575234 34.7695304,61.5312481 34.9306641,61.9121094 L34.9306641,62 L33.9931641,62 Z M31.2392578,61.3701172 C31.8251982,61.3701172 32.3488746,61.228517 32.8103027,60.9453125 C33.2717308,60.662108 33.6074208,60.2836938 33.8173828,59.8100586 L33.8173828,58.0668945 L32.25,58.0668945 C31.3759722,58.0766602 30.6923853,58.2365707 30.1992188,58.5466309 C29.7060522,58.856691 29.4594727,59.2827121 29.4594727,59.824707 C29.4594727,60.2690452 29.6242659,60.6376938 29.9538574,60.9306641 C30.2834489,61.2236343 30.7119114,61.3701172 31.2392578,61.3701172 Z M40.9077148,58.0083008 L39.9042969,58.9750977 L39.9042969,62 L39.0253906,62 L39.0253906,50.75 L39.9042969,50.75 L39.9042969,57.949707 L40.7319336,57.0561523 L43.7641602,54.0751953 L44.8701172,54.0751953 L41.5083008,57.4150391 L45.1630859,62 L44.1157227,62 L40.9077148,58.0083008 Z M53.1176758,59.9858398 C53.1176758,59.5512674 52.943117,59.2021498 52.5939941,58.9384766 C52.2448713,58.6748034 51.7187535,58.4685066 51.015625,58.3195801 C50.3124965,58.1706536 49.7668476,57.9997568 49.3786621,57.8068848 C48.9904766,57.6140127 48.7023935,57.3784194 48.5144043,57.1000977 C48.3264151,56.821776 48.2324219,56.4848653 48.2324219,56.0893555 C48.2324219,55.4643523 48.4936497,54.9480001 49.0161133,54.5402832 C49.5385768,54.1325663 50.2075155,53.9287109 51.0229492,53.9287109 C51.9067427,53.9287109 52.6159641,54.1472146 53.1506348,54.5842285 C53.6853054,55.0212424 53.9526367,55.5913051 53.9526367,56.2944336 L53.0737305,56.2944336 C53.0737305,55.8305641 52.8796406,55.4448258 52.4914551,55.137207 C52.1032695,54.8295883 51.6137725,54.6757812 51.0229492,54.6757812 C50.4467745,54.6757812 49.9841326,54.8039538 49.6350098,55.0603027 C49.2858869,55.3166517 49.1113281,55.6499003 49.1113281,56.0600586 C49.1113281,56.4555684 49.2565903,56.7619618 49.5471191,56.979248 C49.8376479,57.1965343 50.3674278,57.3955069 51.1364746,57.5761719 C51.9055214,57.7568368 52.4816875,57.949706 52.8649902,58.1547852 C53.2482929,58.3598643 53.5327139,58.6064439 53.7182617,58.8945312 C53.9038095,59.1826186 53.996582,59.5317362 53.996582,59.9418945 C53.996582,60.6108432 53.7268093,61.1455058 53.1872559,61.5458984 C52.6477024,61.9462911 51.9433637,62.1464844 51.0742188,62.1464844 C50.1513626,62.1464844 49.403079,61.9230979 48.8293457,61.4763184 C48.2556124,61.0295388 47.96875,60.4643589 47.96875,59.7807617 L48.8476562,59.7807617 C48.8818361,60.2934596 49.0978984,60.6926255 49.4958496,60.9782715 C49.8938008,61.2639174 50.4199186,61.4067383 51.0742188,61.4067383 C51.6845734,61.4067383 52.1777325,61.2724623 52.5537109,61.0039062 C52.9296894,60.7353502 53.1176758,60.3959981 53.1176758,59.9858398 Z M71.7587891,62 L70.8579102,62 L64.7275391,52.8740234 L64.7275391,62 L63.8193359,62 L63.8193359,51.3359375 L64.7275391,51.3359375 L70.8652344,60.4692383 L70.8652344,51.3359375 L71.7587891,51.3359375 L71.7587891,62 Z M81.2661133,62 C81.1782222,61.7509753 81.1220704,61.3823267 81.0976562,60.894043 C80.7900375,61.2944356 80.3981957,61.6032704 79.9221191,61.8205566 C79.4460425,62.0378429 78.9418972,62.1464844 78.409668,62.1464844 C77.6479454,62.1464844 77.0314965,61.9340842 76.5603027,61.5092773 C76.089109,61.0844705 75.8535156,60.5473665 75.8535156,59.8979492 C75.8535156,59.126461 76.1745573,58.5161155 76.8166504,58.0668945 C77.4587434,57.6176735 78.3535099,57.3930664 79.5009766,57.3930664 L81.090332,57.3930664 L81.090332,56.4921875 C81.090332,55.9257784 80.9157732,55.4802262 80.5666504,55.1555176 C80.2175276,54.8308089 79.7084994,54.668457 79.0395508,54.668457 C78.4291962,54.668457 77.9238301,54.8247055 77.5234375,55.137207 C77.1230449,55.4497086 76.9228516,55.8256814 76.9228516,56.2651367 L76.0439453,56.2578125 C76.0439453,55.6279265 76.3369111,55.0822777 76.9228516,54.6208496 C77.508792,54.1594215 78.2289996,53.9287109 79.0834961,53.9287109 C79.9672896,53.9287109 80.6643041,54.149656 81.1745605,54.5915527 C81.684817,55.0334495 81.9472656,55.6498984 81.9619141,56.440918 L81.9619141,60.190918 C81.9619141,60.9575234 82.0424797,61.5312481 82.2036133,61.9121094 L82.2036133,62 L81.2661133,62 Z M78.512207,61.3701172 C79.0981475,61.3701172 79.6218239,61.228517 80.083252,60.9453125 C80.54468,60.662108 80.88037,60.2836938 81.090332,59.8100586 L81.090332,58.0668945 L79.5229492,58.0668945 C78.6489214,58.0766602 77.9653345,58.2365707 77.472168,58.5466309 C76.9790014,58.856691 76.7324219,59.2827121 76.7324219,59.824707 C76.7324219,60.2690452 76.8972151,60.6376938 77.2268066,60.9306641 C77.5563981,61.2236343 77.9848606,61.3701172 78.512207,61.3701172 Z M87.6606445,52.0463867 L87.6606445,54.0751953 L89.3012695,54.0751953 L89.3012695,54.7929688 L87.6606445,54.7929688 L87.6606445,60.0737305 C87.6606445,60.5131858 87.7399894,60.840331 87.8986816,61.0551758 C88.0573738,61.2700206 88.3222638,61.3774414 88.6933594,61.3774414 C88.8398445,61.3774414 89.0766585,61.3530276 89.4038086,61.3041992 L89.4404297,62.0219727 C89.2109364,62.1049809 88.8984395,62.1464844 88.5029297,62.1464844 C87.9023407,62.1464844 87.4653334,61.9719256 87.1918945,61.6228027 C86.9184557,61.2736799 86.7817383,60.759769 86.7817383,60.0810547 L86.7817383,54.7929688 L85.3242188,54.7929688 L85.3242188,54.0751953 L86.7817383,54.0751953 L86.7817383,52.0463867 L87.6606445,52.0463867 Z M94.0991211,62 L93.2202148,62 L93.2202148,54.0751953 L94.0991211,54.0751953 L94.0991211,62 Z M93.0664062,51.7827148 C93.0664062,51.6166984 93.1201167,51.4763189 93.2275391,51.3615723 C93.3349615,51.2468256 93.4814444,51.1894531 93.6669922,51.1894531 C93.85254,51.1894531 94.0002436,51.2468256 94.1101074,51.3615723 C94.2199713,51.4763189 94.2749023,51.6166984 94.2749023,51.7827148 C94.2749023,51.9487313 94.2199713,52.0878901 94.1101074,52.2001953 C94.0002436,52.3125006 93.85254,52.3686523 93.6669922,52.3686523 C93.4814444,52.3686523 93.3349615,52.3125006 93.2275391,52.2001953 C93.1201167,52.0878901 93.0664062,51.9487313 93.0664062,51.7827148 Z M97.9960938,57.9204102 C97.9960938,57.1586876 98.1437974,56.4726593 98.439209,55.8623047 C98.7346206,55.2519501 99.1520969,54.7771013 99.6916504,54.4377441 C100.231204,54.098387 100.84277,53.9287109 101.526367,53.9287109 C102.58106,53.9287109 103.435544,54.2985803 104.089844,55.0383301 C104.744144,55.7780799 105.071289,56.7582947 105.071289,57.9790039 L105.071289,58.1621094 C105.071289,58.9287148 104.923585,59.6184051 104.628174,60.2312012 C104.332762,60.8439972 103.916507,61.3164046 103.379395,61.6484375 C102.842282,61.9804704 102.229496,62.1464844 101.541016,62.1464844 C100.491206,62.1464844 99.6379427,61.776615 98.9812012,61.0368652 C98.3244596,60.2971154 97.9960938,59.3169006 97.9960938,58.0961914 L97.9960938,57.9204102 Z M98.875,58.1621094 C98.875,59.1093797 99.1203589,59.8869599 99.611084,60.494873 C100.101809,61.1027862 100.745113,61.4067383 101.541016,61.4067383 C102.332035,61.4067383 102.972898,61.1027862 103.463623,60.494873 C103.954348,59.8869599 104.199707,59.0849659 104.199707,58.0888672 L104.199707,57.9204102 C104.199707,57.3149384 104.087403,56.7607447 103.862793,56.2578125 C103.638182,55.7548803 103.323244,55.3654799 102.917969,55.0895996 C102.512693,54.8137193 102.048831,54.6757812 101.526367,54.6757812 C100.745113,54.6757812 100.107913,54.9821747 99.6147461,55.5949707 C99.1215796,56.2077667 98.875,57.0097607 98.875,58.0009766 L98.875,58.1621094 Z M109.715332,54.0751953 L109.744629,55.4301758 C110.042482,54.9418921 110.413572,54.5695814 110.85791,54.3132324 C111.302248,54.0568835 111.792966,53.9287109 112.330078,53.9287109 C113.179692,53.9287109 113.81201,54.1679664 114.227051,54.6464844 C114.642092,55.1250024 114.852051,55.8427687 114.856934,56.7998047 L114.856934,62 L113.985352,62 L113.985352,56.7924805 C113.980469,56.0844691 113.830324,55.5571306 113.534912,55.2104492 C113.2395,54.8637678 112.767093,54.6904297 112.117676,54.6904297 C111.575681,54.6904297 111.095949,54.8601057 110.678467,55.1994629 C110.260984,55.5388201 109.952149,55.9965792 109.751953,56.5727539 L109.751953,62 L108.880371,62 L108.880371,54.0751953 L109.715332,54.0751953 Z M124.122559,62 C124.034668,61.7509753 123.978516,61.3823267 123.954102,60.894043 C123.646483,61.2944356 123.254641,61.6032704 122.778564,61.8205566 C122.302488,62.0378429 121.798343,62.1464844 121.266113,62.1464844 C120.504391,62.1464844 119.887942,61.9340842 119.416748,61.5092773 C118.945554,61.0844705 118.709961,60.5473665 118.709961,59.8979492 C118.709961,59.126461 119.031003,58.5161155 119.673096,58.0668945 C120.315189,57.6176735 121.209955,57.3930664 122.357422,57.3930664 L123.946777,57.3930664 L123.946777,56.4921875 C123.946777,55.9257784 123.772219,55.4802262 123.423096,55.1555176 C123.073973,54.8308089 122.564945,54.668457 121.895996,54.668457 C121.285641,54.668457 120.780275,54.8247055 120.379883,55.137207 C119.97949,55.4497086 119.779297,55.8256814 119.779297,56.2651367 L118.900391,56.2578125 C118.900391,55.6279265 119.193356,55.0822777 119.779297,54.6208496 C120.365237,54.1594215 121.085445,53.9287109 121.939941,53.9287109 C122.823735,53.9287109 123.520749,54.149656 124.031006,54.5915527 C124.541262,55.0334495 124.803711,55.6498984 124.818359,56.440918 L124.818359,60.190918 C124.818359,60.9575234 124.898925,61.5312481 125.060059,61.9121094 L125.060059,62 L124.122559,62 Z M121.368652,61.3701172 C121.954593,61.3701172 122.478269,61.228517 122.939697,60.9453125 C123.401125,60.662108 123.736815,60.2836938 123.946777,59.8100586 L123.946777,58.0668945 L122.379395,58.0668945 C121.505367,58.0766602 120.82178,58.2365707 120.328613,58.5466309 C119.835447,58.856691 119.588867,59.2827121 119.588867,59.824707 C119.588867,60.2690452 119.75366,60.6376938 120.083252,60.9306641 C120.412843,61.2236343 120.841306,61.3701172 121.368652,61.3701172 Z M130.13623,62 L129.257324,62 L129.257324,50.75 L130.13623,50.75 L130.13623,62 Z M141.562988,51.3359375 L145.496094,60.7475586 L149.443848,51.3359375 L150.64502,51.3359375 L150.64502,62 L149.744141,62 L149.744141,57.3564453 L149.817383,52.5957031 L145.847656,62 L145.151855,62 L141.196777,52.6323242 L141.27002,57.3271484 L141.27002,62 L140.369141,62 L140.369141,51.3359375 L141.562988,51.3359375 Z M154.65918,57.9204102 C154.65918,57.1586876 154.806883,56.4726593 155.102295,55.8623047 C155.397707,55.2519501 155.815183,54.7771013 156.354736,54.4377441 C156.89429,54.098387 157.505856,53.9287109 158.189453,53.9287109 C159.244146,53.9287109 160.09863,54.2985803 160.75293,55.0383301 C161.40723,55.7780799 161.734375,56.7582947 161.734375,57.9790039 L161.734375,58.1621094 C161.734375,58.9287148 161.586671,59.6184051 161.29126,60.2312012 C160.995848,60.8439972 160.579593,61.3164046 160.04248,61.6484375 C159.505368,61.9804704 158.892582,62.1464844 158.204102,62.1464844 C157.154292,62.1464844 156.301029,61.776615 155.644287,61.0368652 C154.987546,60.2971154 154.65918,59.3169006 154.65918,58.0961914 L154.65918,57.9204102 Z M155.538086,58.1621094 C155.538086,59.1093797 155.783445,59.8869599 156.27417,60.494873 C156.764895,61.1027862 157.408199,61.4067383 158.204102,61.4067383 C158.995121,61.4067383 159.635984,61.1027862 160.126709,60.494873 C160.617434,59.8869599 160.862793,59.0849659 160.862793,58.0888672 L160.862793,57.9204102 C160.862793,57.3149384 160.750489,56.7607447 160.525879,56.2578125 C160.301268,55.7548803 159.98633,55.3654799 159.581055,55.0895996 C159.175779,54.8137193 158.711917,54.6757812 158.189453,54.6757812 C157.408199,54.6757812 156.770999,54.9821747 156.277832,55.5949707 C155.784666,56.2077667 155.538086,57.0097607 155.538086,58.0009766 L155.538086,58.1621094 Z M166.378418,54.0751953 L166.407715,55.4301758 C166.705568,54.9418921 167.076658,54.5695814 167.520996,54.3132324 C167.965334,54.0568835 168.456052,53.9287109 168.993164,53.9287109 C169.842778,53.9287109 170.475096,54.1679664 170.890137,54.6464844 C171.305178,55.1250024 171.515137,55.8427687 171.52002,56.7998047 L171.52002,62 L170.648437,62 L170.648437,56.7924805 C170.643555,56.0844691 170.49341,55.5571306 170.197998,55.2104492 C169.902586,54.8637678 169.430179,54.6904297 168.780762,54.6904297 C168.238767,54.6904297 167.759035,54.8601057 167.341553,55.1994629 C166.92407,55.5388201 166.615235,55.9965792 166.415039,56.5727539 L166.415039,62 L165.543457,62 L165.543457,54.0751953 L166.378418,54.0751953 Z M180.880859,60.996582 C180.353513,61.7631874 179.511236,62.1464844 178.354004,62.1464844 C177.509273,62.1464844 176.86719,61.9011255 176.427734,61.4104004 C175.988279,60.9196753 175.763672,60.1933642 175.753906,59.2314453 L175.753906,54.0751953 L176.625488,54.0751953 L176.625488,59.121582 C176.625488,60.6303786 177.235834,61.3847656 178.456543,61.3847656 C179.726081,61.3847656 180.529295,60.8598685 180.866211,59.8100586 L180.866211,54.0751953 L181.745117,54.0751953 L181.745117,62 L180.895508,62 L180.880859,60.996582 Z M186.821289,54.0751953 L186.850586,55.3642578 C187.143556,54.8857398 187.509763,54.5268567 187.949219,54.2875977 C188.388674,54.0483386 188.87695,53.9287109 189.414062,53.9287109 C190.664069,53.9287109 191.457518,54.4414011 191.794434,55.4667969 C192.077638,54.9736303 192.456052,54.5939955 192.929688,54.3278809 C193.403323,54.0617662 193.925778,53.9287109 194.49707,53.9287109 C196.196298,53.9287109 197.062988,54.856436 197.097168,56.7119141 L197.097168,62 L196.218262,62 L196.218262,56.777832 C196.213379,56.0698207 196.060793,55.5449236 195.760498,55.203125 C195.460204,54.8613264 194.970707,54.6904297 194.291992,54.6904297 C193.662106,54.7001954 193.129885,54.9040507 192.695312,55.302002 C192.26074,55.6999532 192.019043,56.1845675 191.970215,56.7558594 L191.970215,62 L191.091309,62 L191.091309,56.7119141 C191.086426,56.0331997 190.926515,55.526613 190.611572,55.1921387 C190.296629,54.8576643 189.812015,54.6904297 189.157715,54.6904297 C188.605954,54.6904297 188.132326,54.8478988 187.736816,55.1628418 C187.341307,55.4777848 187.048341,55.9453094 186.85791,56.5654297 L186.85791,62 L185.979004,62 L185.979004,54.0751953 L186.821289,54.0751953 Z M204.385254,62.1464844 C203.711422,62.1464844 203.102298,61.9804704 202.557861,61.6484375 C202.013425,61.3164046 201.589845,60.8537627 201.287109,60.260498 C200.984373,59.6672334 200.833008,59.0019568 200.833008,58.2646484 L200.833008,57.949707 C200.833008,57.1879845 200.980711,56.5019562 201.276123,55.8916016 C201.571535,55.2812469 201.982908,54.8015154 202.510254,54.4523926 C203.0376,54.1032697 203.608884,53.9287109 204.224121,53.9287109 C205.18604,53.9287109 205.948972,54.2570768 206.512939,54.9138184 C207.076907,55.5705599 207.358887,56.4677677 207.358887,57.6054688 L207.358887,58.0961914 L201.70459,58.0961914 L201.70459,58.2646484 C201.70459,59.1630904 201.962156,59.911374 202.477295,60.5095215 C202.992434,61.107669 203.640621,61.4067383 204.421875,61.4067383 C204.890627,61.4067383 205.304442,61.3212899 205.66333,61.1503906 C206.022219,60.9794913 206.348143,60.7060566 206.641113,60.3300781 L207.19043,60.7475586 C206.545895,61.6801804 205.610846,62.1464844 204.385254,62.1464844 Z M204.224121,54.6757812 C203.564938,54.6757812 203.009524,54.9174781 202.557861,55.4008789 C202.106199,55.8842798 201.831543,56.5336873 201.733887,57.3491211 L206.487305,57.3491211 L206.487305,57.2539062 C206.462891,56.4921837 206.245608,55.8720727 205.835449,55.3935547 C205.425291,54.9150367 204.888187,54.6757812 204.224121,54.6757812 Z M211.900391,54.0751953 L211.929687,55.4301758 C212.227541,54.9418921 212.598631,54.5695814 213.042969,54.3132324 C213.487307,54.0568835 213.978025,53.9287109 214.515137,53.9287109 C215.36475,53.9287109 215.997068,54.1679664 216.412109,54.6464844 C216.827151,55.1250024 217.037109,55.8427687 217.041992,56.7998047 L217.041992,62 L216.17041,62 L216.17041,56.7924805 C216.165527,56.0844691 216.015382,55.5571306 215.719971,55.2104492 C215.424559,54.8637678 214.952152,54.6904297 214.302734,54.6904297 C213.760739,54.6904297 213.281008,54.8601057 212.863525,55.1994629 C212.446043,55.5388201 212.137208,55.9965792 211.937012,56.5727539 L211.937012,62 L211.06543,62 L211.06543,54.0751953 L211.900391,54.0751953 Z M222.66748,52.0463867 L222.66748,54.0751953 L224.308105,54.0751953 L224.308105,54.7929688 L222.66748,54.7929688 L222.66748,60.0737305 C222.66748,60.5131858 222.746825,60.840331 222.905518,61.0551758 C223.06421,61.2700206 223.3291,61.3774414 223.700195,61.3774414 C223.84668,61.3774414 224.083494,61.3530276 224.410645,61.3041992 L224.447266,62.0219727 C224.217772,62.1049809 223.905275,62.1464844 223.509766,62.1464844 C222.909177,62.1464844 222.472169,61.9719256 222.19873,61.6228027 C221.925292,61.2736799 221.788574,60.759769 221.788574,60.0810547 L221.788574,54.7929688 L220.331055,54.7929688 L220.331055,54.0751953 L221.788574,54.0751953 L221.788574,52.0463867 L222.66748,52.0463867 Z M228.043945,61.4726562 C228.043945,61.301757 228.098876,61.1564947 228.20874,61.0368652 C228.318604,60.9172357 228.47119,60.8574219 228.666504,60.8574219 C228.861817,60.8574219 229.015624,60.9172357 229.12793,61.0368652 C229.240235,61.1564947 229.296387,61.301757 229.296387,61.4726562 C229.296387,61.6435555 229.240235,61.783935 229.12793,61.8937988 C229.015624,62.0036627 228.861817,62.0585938 228.666504,62.0585938 C228.47119,62.0585938 228.318604,62.0036627 228.20874,61.8937988 C228.098876,61.783935 228.043945,61.6435555 228.043945,61.4726562 Z M7.22167969,75.0195312 L2.24853516,75.0195312 L2.24853516,80 L1.34765625,80 L1.34765625,69.3359375 L7.95410156,69.3359375 L7.95410156,70.1049805 L2.24853516,70.1049805 L2.24853516,74.2504883 L7.22167969,74.2504883 L7.22167969,75.0195312 Z M12.5615234,80 L11.6826172,80 L11.6826172,72.0751953 L12.5615234,72.0751953 L12.5615234,80 Z M11.5288086,69.7827148 C11.5288086,69.6166984 11.582519,69.4763189 11.6899414,69.3615723 C11.7973638,69.2468256 11.9438467,69.1894531 12.1293945,69.1894531 C12.3149423,69.1894531 12.4626459,69.2468256 12.5725098,69.3615723 C12.6823736,69.4763189 12.7373047,69.6166984 12.7373047,69.7827148 C12.7373047,69.9487313 12.6823736,70.0878901 12.5725098,70.2001953 C12.4626459,70.3125006 12.3149423,70.3686523 12.1293945,70.3686523 C11.9438467,70.3686523 11.7973638,70.3125006 11.6899414,70.2001953 C11.582519,70.0878901 11.5288086,69.9487313 11.5288086,69.7827148 Z M16.590332,75.9643555 C16.590332,74.7241149 16.8649875,73.7414587 17.4143066,73.0163574 C17.9636258,72.2912561 18.7143507,71.9287109 19.6665039,71.9287109 C20.7358452,71.9287109 21.5488253,72.3364217 22.1054688,73.1518555 L22.1494141,72.0751953 L22.9697266,72.0751953 L22.9697266,83.046875 L22.0908203,83.046875 L22.0908203,79.0185547 C21.5146456,79.7705116 20.7016654,80.1464844 19.6518555,80.1464844 C18.7241165,80.1464844 17.9819364,79.7802771 17.425293,79.0478516 C16.8686496,78.315426 16.590332,77.3266664 16.590332,76.081543 L16.590332,75.9643555 Z M17.4765625,76.1181641 C17.4765625,77.1435598 17.6828593,77.9479951 18.095459,78.5314941 C18.5080587,79.1149932 19.0805627,79.4067383 19.8129883,79.4067383 C20.8627982,79.4067383 21.622068,78.9501999 22.0908203,78.0371094 L22.0908203,74.1552734 C21.8710927,73.6816383 21.5671406,73.3166517 21.1789551,73.0603027 C20.7907695,72.8039538 20.3403346,72.6757812 19.8276367,72.6757812 C19.0903283,72.6757812 18.5141622,72.9675264 18.0991211,73.5510254 C17.68408,74.1345244 17.4765625,74.9902287 17.4765625,76.1181641 Z M32.4038086,78.996582 C31.8764622,79.7631874 31.0341855,80.1464844 29.8769531,80.1464844 C29.0322223,80.1464844 28.3901389,79.9011255 27.9506836,79.4104004 C27.5112283,78.9196753 27.2866211,78.1933642 27.2768555,77.2314453 L27.2768555,72.0751953 L28.1484375,72.0751953 L28.1484375,77.121582 C28.1484375,78.6303786 28.758783,79.3847656 29.9794922,79.3847656 C31.2490298,79.3847656 32.0522444,78.8598685 32.3891602,77.8100586 L32.3891602,72.0751953 L33.2680664,72.0751953 L33.2680664,80 L32.418457,80 L32.4038086,78.996582 Z M40.6147461,80.1464844 C39.9409146,80.1464844 39.3317898,79.9804704 38.7873535,79.6484375 C38.2429172,79.3164046 37.8193375,78.8537627 37.5166016,78.260498 C37.2138657,77.6672334 37.0625,77.0019568 37.0625,76.2646484 L37.0625,75.949707 C37.0625,75.1879845 37.2102036,74.5019562 37.5056152,73.8916016 C37.8010269,73.2812469 38.2123997,72.8015154 38.7397461,72.4523926 C39.2670925,72.1032697 39.8383758,71.9287109 40.4536133,71.9287109 C41.4155322,71.9287109 42.178464,72.2570768 42.7424316,72.9138184 C43.3063993,73.5705599 43.5883789,74.4677677 43.5883789,75.6054688 L43.5883789,76.0961914 L37.934082,76.0961914 L37.934082,76.2646484 C37.934082,77.1630904 38.1916478,77.911374 38.7067871,78.5095215 C39.2219264,79.107669 39.8701133,79.4067383 40.6513672,79.4067383 C41.1201195,79.4067383 41.5339338,79.3212899 41.8928223,79.1503906 C42.2517108,78.9794913 42.5776353,78.7060566 42.8706055,78.3300781 L43.4199219,78.7475586 C42.7753874,79.6801804 41.8403382,80.1464844 40.6147461,80.1464844 Z M40.4536133,72.6757812 C39.7944303,72.6757812 39.2390159,72.9174781 38.7873535,73.4008789 C38.3356911,73.8842798 38.0610356,74.5336873 37.9633789,75.3491211 L42.7167969,75.3491211 L42.7167969,75.2539062 C42.6923827,74.4921837 42.4750997,73.8720727 42.0649414,73.3935547 C41.6547831,72.9150367 41.1176791,72.6757812 40.4536133,72.6757812 Z M54.3046875,70.0463867 L54.3046875,72.0751953 L55.9453125,72.0751953 L55.9453125,72.7929688 L54.3046875,72.7929688 L54.3046875,78.0737305 C54.3046875,78.5131858 54.3840324,78.840331 54.5427246,79.0551758 C54.7014168,79.2700206 54.9663067,79.3774414 55.3374023,79.3774414 C55.4838875,79.3774414 55.7207015,79.3530276 56.0478516,79.3041992 L56.0844727,80.0219727 C55.8549793,80.1049809 55.5424824,80.1464844 55.1469727,80.1464844 C54.5463837,80.1464844 54.1093764,79.9719256 53.8359375,79.6228027 C53.5624986,79.2736799 53.4257812,78.759769 53.4257812,78.0810547 L53.4257812,72.7929688 L51.9682617,72.7929688 L51.9682617,72.0751953 L53.4257812,72.0751953 L53.4257812,70.0463867 L54.3046875,70.0463867 Z M63.4238281,72.8222656 C63.2382803,72.7880858 63.0405284,72.7709961 62.8305664,72.7709961 C62.2836887,72.7709961 61.8210468,72.9235825 61.442627,73.2287598 C61.0642071,73.5339371 60.7944344,73.9770479 60.6333008,74.5581055 L60.6333008,80 L59.7617188,80 L59.7617188,72.0751953 L60.6186523,72.0751953 L60.6333008,73.3349609 C61.0971703,72.3974563 61.8417917,71.9287109 62.8671875,71.9287109 C63.1113293,71.9287109 63.3041985,71.9604489 63.4458008,72.0239258 L63.4238281,72.8222656 Z M71.5175781,80 C71.4296871,79.7509753 71.3735353,79.3823267 71.3491211,78.894043 C71.0415024,79.2944356 70.6496606,79.6032704 70.173584,79.8205566 C69.6975074,80.0378429 69.193362,80.1464844 68.6611328,80.1464844 C67.8994103,80.1464844 67.2829613,79.9340842 66.8117676,79.5092773 C66.3405738,79.0844705 66.1049805,78.5473665 66.1049805,77.8979492 C66.1049805,77.126461 66.4260222,76.5161155 67.0681152,76.0668945 C67.7102083,75.6176735 68.6049747,75.3930664 69.7524414,75.3930664 L71.3417969,75.3930664 L71.3417969,74.4921875 C71.3417969,73.9257784 71.1672381,73.4802262 70.8181152,73.1555176 C70.4689924,72.8308089 69.9599643,72.668457 69.2910156,72.668457 C68.680661,72.668457 68.175295,72.8247055 67.7749023,73.137207 C67.3745097,73.4497086 67.1743164,73.8256814 67.1743164,74.2651367 L66.2954102,74.2578125 C66.2954102,73.6279265 66.588376,73.0822777 67.1743164,72.6208496 C67.7602568,72.1594215 68.4804645,71.9287109 69.3349609,71.9287109 C70.2187544,71.9287109 70.9157689,72.149656 71.4260254,72.5915527 C71.9362818,73.0334495 72.1987304,73.6498984 72.2133789,74.440918 L72.2133789,78.190918 C72.2133789,78.9575234 72.2939445,79.5312481 72.4550781,79.9121094 L72.4550781,80 L71.5175781,80 Z M68.7636719,79.3701172 C69.3496123,79.3701172 69.8732887,79.228517 70.3347168,78.9453125 C70.7961449,78.662108 71.1318349,78.2836938 71.3417969,77.8100586 L71.3417969,76.0668945 L69.7744141,76.0668945 C68.9003863,76.0766602 68.2167993,76.2365707 67.7236328,76.5466309 C67.2304663,76.856691 66.9838867,77.2827121 66.9838867,77.824707 C66.9838867,78.2690452 67.14868,78.6376938 67.4782715,78.9306641 C67.807863,79.2236343 68.2363255,79.3701172 68.7636719,79.3701172 Z M77.3847656,72.0751953 L77.4140625,73.4301758 C77.7119156,72.9418921 78.0830056,72.5695814 78.5273438,72.3132324 C78.9716819,72.0568835 79.4623997,71.9287109 79.9995117,71.9287109 C80.8491253,71.9287109 81.4814432,72.1679664 81.8964844,72.6464844 C82.3115255,73.1250024 82.5214844,73.8427687 82.5263672,74.7998047 L82.5263672,80 L81.6547852,80 L81.6547852,74.7924805 C81.6499023,74.0844691 81.4997573,73.5571306 81.2043457,73.2104492 C80.9089341,72.8637678 80.4365267,72.6904297 79.7871094,72.6904297 C79.2451145,72.6904297 78.7653829,72.8601057 78.3479004,73.1994629 C77.9304178,73.5388201 77.621583,73.9965792 77.4213867,74.5727539 L77.4213867,80 L76.5498047,80 L76.5498047,72.0751953 L77.3847656,72.0751953 Z M86.4379883,75.9643555 C86.4379883,74.7241149 86.7126437,73.7414587 87.2619629,73.0163574 C87.811282,72.2912561 88.562007,71.9287109 89.5141602,71.9287109 C90.5835014,71.9287109 91.3964816,72.3364217 91.953125,73.1518555 L91.9970703,72.0751953 L92.8173828,72.0751953 L92.8173828,83.046875 L91.9384766,83.046875 L91.9384766,79.0185547 C91.3623018,79.7705116 90.5493217,80.1464844 89.4995117,80.1464844 C88.5717727,80.1464844 87.8295926,79.7802771 87.2729492,79.0478516 C86.7163058,78.315426 86.4379883,77.3266664 86.4379883,76.081543 L86.4379883,75.9643555 Z M87.3242188,76.1181641 C87.3242188,77.1435598 87.5305155,77.9479951 87.9431152,78.5314941 C88.355715,79.1149932 88.928219,79.4067383 89.6606445,79.4067383 C90.7104545,79.4067383 91.4697242,78.9501999 91.9384766,78.0371094 L91.9384766,74.1552734 C91.7187489,73.6816383 91.4147969,73.3166517 91.0266113,73.0603027 C90.6384258,72.8039538 90.1879908,72.6757812 89.675293,72.6757812 C88.9379846,72.6757812 88.3618185,72.9675264 87.9467773,73.5510254 C87.5317362,74.1345244 87.3242188,74.9902287 87.3242188,76.1181641 Z M102.251465,78.996582 C101.724118,79.7631874 100.881842,80.1464844 99.7246094,80.1464844 C98.8798786,80.1464844 98.2377952,79.9011255 97.7983398,79.4104004 C97.3588845,78.9196753 97.1342774,78.1933642 97.1245117,77.2314453 L97.1245117,72.0751953 L97.9960937,72.0751953 L97.9960937,77.121582 C97.9960937,78.6303786 98.6064392,79.3847656 99.8271484,79.3847656 C101.096686,79.3847656 101.899901,78.8598685 102.236816,77.8100586 L102.236816,72.0751953 L103.115723,72.0751953 L103.115723,80 L102.266113,80 L102.251465,78.996582 Z M108.375,80 L107.496094,80 L107.496094,72.0751953 L108.375,72.0751953 L108.375,80 Z M107.342285,69.7827148 C107.342285,69.6166984 107.395996,69.4763189 107.503418,69.3615723 C107.61084,69.2468256 107.757323,69.1894531 107.942871,69.1894531 C108.128419,69.1894531 108.276122,69.2468256 108.385986,69.3615723 C108.49585,69.4763189 108.550781,69.6166984 108.550781,69.7827148 C108.550781,69.9487313 108.49585,70.0878901 108.385986,70.2001953 C108.276122,70.3125006 108.128419,70.3686523 107.942871,70.3686523 C107.757323,70.3686523 107.61084,70.3125006 107.503418,70.2001953 C107.395996,70.0878901 107.342285,69.9487313 107.342285,69.7827148 Z M113.736816,80 L112.85791,80 L112.85791,68.75 L113.736816,68.75 L113.736816,80 Z M117.633789,75.9204102 C117.633789,75.1586876 117.781493,74.4726593 118.076904,73.8623047 C118.372316,73.2519501 118.789792,72.7771013 119.329346,72.4377441 C119.868899,72.098387 120.480465,71.9287109 121.164062,71.9287109 C122.218755,71.9287109 123.073239,72.2985803 123.727539,73.0383301 C124.381839,73.7780799 124.708984,74.7582947 124.708984,75.9790039 L124.708984,76.1621094 C124.708984,76.9287148 124.561281,77.6184051 124.265869,78.2312012 C123.970458,78.8439972 123.554202,79.3164046 123.01709,79.6484375 C122.479978,79.9804704 121.867191,80.1464844 121.178711,80.1464844 C120.128901,80.1464844 119.275638,79.776615 118.618896,79.0368652 C117.962155,78.2971154 117.633789,77.3169006 117.633789,76.0961914 L117.633789,75.9204102 Z M118.512695,76.1621094 C118.512695,77.1093797 118.758054,77.8869599 119.248779,78.494873 C119.739504,79.1027862 120.382809,79.4067383 121.178711,79.4067383 C121.969731,79.4067383 122.610593,79.1027862 123.101318,78.494873 C123.592043,77.8869599 123.837402,77.0849659 123.837402,76.0888672 L123.837402,75.9204102 C123.837402,75.3149384 123.725099,74.7607447 123.500488,74.2578125 C123.275878,73.7548803 122.96094,73.3654799 122.555664,73.0895996 C122.150389,72.8137193 121.686526,72.6757812 121.164063,72.6757812 C120.382809,72.6757812 119.745608,72.9821747 119.252441,73.5949707 C118.759275,74.2077667 118.512695,75.0097607 118.512695,76.0009766 L118.512695,76.1621094 Z M128.4375,79.4726562 C128.4375,79.301757 128.492431,79.1564947 128.602295,79.0368652 C128.712159,78.9172357 128.864745,78.8574219 129.060059,78.8574219 C129.255372,78.8574219 129.409179,78.9172357 129.521484,79.0368652 C129.63379,79.1564947 129.689941,79.301757 129.689941,79.4726562 C129.689941,79.6435555 129.63379,79.783935 129.521484,79.8937988 C129.409179,80.0036627 129.255372,80.0585938 129.060059,80.0585938 C128.864745,80.0585938 128.712159,80.0036627 128.602295,79.8937988 C128.492431,79.783935 128.4375,79.6435555 128.4375,79.4726562 Z" id="We-open-a-new-Highli"></path>
            </g>
        </g>
    </g>
</svg>