<?xml version="1.0" encoding="UTF-8"?>
<svg width="276px" height="84px" viewBox="0 0 276 84" version="1.1" xmlns="http://www.w3.org/2000/svg" xmlns:xlink="http://www.w3.org/1999/xlink">
    <!-- Generator: Sketch 41.2 (35397) - http://www.bohemiancoding.com/sketch -->
    <title>Group 8</title>
    <desc>Created with Sketch.</desc>
    <defs></defs>
    <g id="Page-1" stroke="none" stroke-width="1" fill="none" fill-rule="evenodd">
        <g id="Desktop-HD" transform="translate(-67.000000, -572.000000)" fill="#000000">
            <g id="Group-8" transform="translate(67.000000, 572.000000)">
                <path d="M2.82714844,9.52050781 L8.52539062,9.52050781 L8.52539062,11 L0.5859375,11 L0.5859375,9.79882812 L6.10107422,1.83007812 L0.622558594,1.83007812 L0.622558594,0.3359375 L8.34960938,0.3359375 L8.34960938,1.5078125 L2.82714844,9.52050781 Z M14.0703125,11 L12.2246094,11 L12.2246094,0.3359375 L14.0703125,0.3359375 L14.0703125,11 Z M26.8588867,5.94628906 C26.8588867,6.99121616 26.6782245,7.90795504 26.3168945,8.6965332 C25.9555646,9.48511136 25.4392123,10.0905741 24.7678223,10.5129395 C24.0964322,10.9353048 23.3237348,11.1464844 22.449707,11.1464844 C21.5854449,11.1464844 20.8151889,10.9353048 20.138916,10.5129395 C19.4626431,10.0905741 18.9401874,9.48877344 18.5715332,8.70751953 C18.202879,7.92626563 18.0161133,7.02539573 18.0112305,6.00488281 L18.0112305,5.40429688 C18.0112305,4.36425261 18.1955548,3.44629304 18.564209,2.65039062 C18.9328632,1.85448821 19.4528775,1.24536344 20.1242676,0.822998047 C20.7956577,0.400632654 21.5659136,0.189453125 22.4350586,0.189453125 C23.3042036,0.189453125 24.0744595,0.398191272 24.7458496,0.815673828 C25.4172397,1.23315638 25.9360333,1.83373632 26.3022461,2.61743164 C26.6684589,3.40112697 26.8540039,4.31298308 26.8588867,5.35302734 L26.8588867,5.94628906 Z M25.0058594,5.38964844 C25.0058594,4.2080019 24.7824729,3.30224924 24.3356934,2.67236328 C23.8889138,2.04247732 23.2553752,1.72753906 22.4350586,1.72753906 C21.6342733,1.72753906 21.0080589,2.04125663 20.5563965,2.66870117 C20.1047341,3.29614572 19.8740235,4.18358801 19.8642578,5.33105469 L19.8642578,5.94628906 C19.8642578,7.11816992 20.092527,8.02392258 20.5490723,8.66357422 C21.0056175,9.30322585 21.6391561,9.62304688 22.449707,9.62304688 C23.2700236,9.62304688 23.9011208,9.31055 24.3430176,8.68554688 C24.7849143,8.06054375 25.0058594,7.14746694 25.0058594,5.94628906 L25.0058594,5.38964844 Z M39.1640625,11 L37.3110352,11 L32.5576172,3.43408203 L32.5576172,11 L30.7045898,11 L30.7045898,0.3359375 L32.5576172,0.3359375 L37.3256836,7.93115234 L37.3256836,0.3359375 L39.1640625,0.3359375 L39.1640625,11 Z" id="ZION"></path>
                <path d="M3.31787109,41.121582 L3.64746094,42.7768555 L4.05029297,41.1948242 L6.36474609,33.3359375 L7.17773437,33.3359375 L9.46289062,41.1948242 L9.85839844,42.7915039 L10.2099609,41.121582 L12.1362305,33.3359375 L13.059082,33.3359375 L10.3271484,44 L9.46289062,44 L7.04589844,35.6577148 L6.77490234,34.6030273 L6.51123047,35.6577148 L4.03564453,44 L3.17138672,44 L0.446777344,33.3359375 L1.36962891,33.3359375 L3.31787109,41.121582 Z M19.4316406,44.1464844 C18.7578091,44.1464844 18.1486844,43.9804704 17.604248,43.6484375 C17.0598117,43.3164046 16.636232,42.8537627 16.3334961,42.260498 C16.0307602,41.6672334 15.8793945,41.0019568 15.8793945,40.2646484 L15.8793945,39.949707 C15.8793945,39.1879845 16.0270981,38.5019562 16.3225098,37.8916016 C16.6179214,37.2812469 17.0292942,36.8015154 17.5566406,36.4523926 C18.083987,36.1032697 18.6552704,35.9287109 19.2705078,35.9287109 C20.2324267,35.9287109 20.9953585,36.2570768 21.5593262,36.9138184 C22.1232938,37.5705599 22.4052734,38.4677677 22.4052734,39.6054688 L22.4052734,40.0961914 L16.7509766,40.0961914 L16.7509766,40.2646484 C16.7509766,41.1630904 17.0085423,41.911374 17.5236816,42.5095215 C18.0388209,43.107669 18.6870078,43.4067383 19.4682617,43.4067383 C19.9370141,43.4067383 20.3508283,43.3212899 20.7097168,43.1503906 C21.0686053,42.9794913 21.3945298,42.7060566 21.6875,42.3300781 L22.2368164,42.7475586 C21.5922819,43.6801804 20.6572327,44.1464844 19.4316406,44.1464844 Z M19.2705078,36.6757812 C18.6113248,36.6757812 18.0559105,36.9174781 17.604248,37.4008789 C17.1525856,37.8842798 16.8779302,38.5336873 16.7802734,39.3491211 L21.5336914,39.3491211 L21.5336914,39.2539062 C21.5092772,38.4921837 21.2919942,37.8720727 20.8818359,37.3935547 C20.4716776,36.9150367 19.9345736,36.6757812 19.2705078,36.6757812 Z M32.6308594,37.4155273 C32.9189468,36.9418922 33.2875954,36.5756849 33.7368164,36.3168945 C34.1860374,36.0581042 34.6767552,35.9287109 35.2089844,35.9287109 C36.058598,35.9287109 36.6909159,36.1679664 37.105957,36.6464844 C37.5209982,37.1250024 37.730957,37.8427687 37.7358398,38.7998047 L37.7358398,44 L36.8642578,44 L36.8642578,38.7924805 C36.859375,38.0844691 36.70923,37.5571306 36.4138184,37.2104492 C36.1184067,36.8637678 35.6459993,36.6904297 34.996582,36.6904297 C34.4545871,36.6904297 33.9748556,36.8601057 33.557373,37.1994629 C33.1398905,37.5388201 32.8310557,37.9965792 32.6308594,38.5727539 L32.6308594,44 L31.7592773,44 L31.7592773,32.75 L32.6308594,32.75 L32.6308594,37.4155273 Z M46.9941406,44 C46.9062496,43.7509753 46.8500978,43.3823267 46.8256836,42.894043 C46.5180649,43.2944356 46.1262231,43.6032704 45.6501465,43.8205566 C45.1740699,44.0378429 44.6699245,44.1464844 44.1376953,44.1464844 C43.3759728,44.1464844 42.7595238,43.9340842 42.2883301,43.5092773 C41.8171363,43.0844705 41.581543,42.5473665 41.581543,41.8979492 C41.581543,41.126461 41.9025847,40.5161155 42.5446777,40.0668945 C43.1867708,39.6176735 44.0815372,39.3930664 45.2290039,39.3930664 L46.8183594,39.3930664 L46.8183594,38.4921875 C46.8183594,37.9257784 46.6438006,37.4802262 46.2946777,37.1555176 C45.9455549,36.8308089 45.4365268,36.668457 44.7675781,36.668457 C44.1572235,36.668457 43.6518575,36.8247055 43.2514648,37.137207 C42.8510722,37.4497086 42.6508789,37.8256814 42.6508789,38.2651367 L41.7719727,38.2578125 C41.7719727,37.6279265 42.0649385,37.0822777 42.6508789,36.6208496 C43.2368193,36.1594215 43.957027,35.9287109 44.8115234,35.9287109 C45.6953169,35.9287109 46.3923314,36.149656 46.9025879,36.5915527 C47.4128443,37.0334495 47.6752929,37.6498984 47.6899414,38.440918 L47.6899414,42.190918 C47.6899414,42.9575234 47.770507,43.5312481 47.9316406,43.9121094 L47.9316406,44 L46.9941406,44 Z M44.2402344,43.3701172 C44.8261748,43.3701172 45.3498512,43.228517 45.8112793,42.9453125 C46.2727074,42.662108 46.6083974,42.2836938 46.8183594,41.8100586 L46.8183594,40.0668945 L45.2509766,40.0668945 C44.3769488,40.0766602 43.6933618,40.2365707 43.2001953,40.5466309 C42.7070288,40.856691 42.4604492,41.2827121 42.4604492,41.824707 C42.4604492,42.2690452 42.6252425,42.6376938 42.954834,42.9306641 C43.2844255,43.2236343 43.712888,43.3701172 44.2402344,43.3701172 Z M54.3847656,42.7915039 L56.7944336,36.0751953 L57.6953125,36.0751953 L54.7363281,44 L54.0258789,44 L51.0522461,36.0751953 L51.953125,36.0751953 L54.3847656,42.7915039 Z M64.1044922,44.1464844 C63.4306607,44.1464844 62.8215359,43.9804704 62.2770996,43.6484375 C61.7326633,43.3164046 61.3090835,42.8537627 61.0063477,42.260498 C60.7036118,41.6672334 60.5522461,41.0019568 60.5522461,40.2646484 L60.5522461,39.949707 C60.5522461,39.1879845 60.6999497,38.5019562 60.9953613,37.8916016 C61.290773,37.2812469 61.7021458,36.8015154 62.2294922,36.4523926 C62.7568386,36.1032697 63.3281219,35.9287109 63.9433594,35.9287109 C64.9052782,35.9287109 65.6682101,36.2570768 66.2321777,36.9138184 C66.7961454,37.5705599 67.078125,38.4677677 67.078125,39.6054688 L67.078125,40.0961914 L61.4238281,40.0961914 L61.4238281,40.2646484 C61.4238281,41.1630904 61.6813939,41.911374 62.1965332,42.5095215 C62.7116725,43.107669 63.3598594,43.4067383 64.1411133,43.4067383 C64.6098656,43.4067383 65.0236798,43.3212899 65.3825684,43.1503906 C65.7414569,42.9794913 66.0673813,42.7060566 66.3603516,42.3300781 L66.909668,42.7475586 C66.2651335,43.6801804 65.3300843,44.1464844 64.1044922,44.1464844 Z M63.9433594,36.6757812 C63.2841764,36.6757812 62.728762,36.9174781 62.2770996,37.4008789 C61.8254372,37.8842798 61.5507817,38.5336873 61.453125,39.3491211 L66.206543,39.3491211 L66.206543,39.2539062 C66.1821288,38.4921837 65.9648458,37.8720727 65.5546875,37.3935547 C65.1445292,36.9150367 64.6074252,36.6757812 63.9433594,36.6757812 Z M77.7944336,34.0463867 L77.7944336,36.0751953 L79.4350586,36.0751953 L79.4350586,36.7929688 L77.7944336,36.7929688 L77.7944336,42.0737305 C77.7944336,42.5131858 77.8737785,42.840331 78.0324707,43.0551758 C78.1911629,43.2700206 78.4560528,43.3774414 78.8271484,43.3774414 C78.9736335,43.3774414 79.2104476,43.3530276 79.5375977,43.3041992 L79.5742188,44.0219727 C79.3447254,44.1049809 79.0322285,44.1464844 78.6367188,44.1464844 C78.0361298,44.1464844 77.5991225,43.9719256 77.3256836,43.6228027 C77.0522447,43.2736799 76.9155273,42.759769 76.9155273,42.0810547 L76.9155273,36.7929688 L75.4580078,36.7929688 L75.4580078,36.0751953 L76.9155273,36.0751953 L76.9155273,34.0463867 L77.7944336,34.0463867 Z M82.621582,39.9204102 C82.621582,39.1586876 82.7692856,38.4726593 83.0646973,37.8623047 C83.3601089,37.2519501 83.7775852,36.7771013 84.3171387,36.4377441 C84.8566922,36.098387 85.4682583,35.9287109 86.1518555,35.9287109 C87.2065482,35.9287109 88.0610319,36.2985803 88.715332,37.0383301 C89.3696322,37.7780799 89.6967773,38.7582947 89.6967773,39.9790039 L89.6967773,40.1621094 C89.6967773,40.9287148 89.5490737,41.6184051 89.2536621,42.2312012 C88.9582505,42.8439972 88.5419949,43.3164046 88.0048828,43.6484375 C87.4677708,43.9804704 86.8549839,44.1464844 86.1665039,44.1464844 C85.116694,44.1464844 84.263431,43.776615 83.6066895,43.0368652 C82.9499479,42.2971154 82.621582,41.3169006 82.621582,40.0961914 L82.621582,39.9204102 Z M83.5004883,40.1621094 C83.5004883,41.1093797 83.7458472,41.8869599 84.2365723,42.494873 C84.7272974,43.1027862 85.3706015,43.4067383 86.1665039,43.4067383 C86.9575235,43.4067383 87.5983862,43.1027862 88.0891113,42.494873 C88.5798364,41.8869599 88.8251953,41.0849659 88.8251953,40.0888672 L88.8251953,39.9204102 C88.8251953,39.3149384 88.7128917,38.7607447 88.4882812,38.2578125 C88.2636708,37.7548803 87.9487325,37.3654799 87.543457,37.0895996 C87.1381816,36.8137193 86.674319,36.6757812 86.1518555,36.6757812 C85.3706016,36.6757812 84.7334009,36.9821747 84.2402344,37.5949707 C83.7470678,38.2077667 83.5004883,39.0097607 83.5004883,40.0009766 L83.5004883,40.1621094 Z M102.083008,43.4067383 C102.693362,43.4067383 103.204832,43.2346209 103.617432,42.8903809 C104.030031,42.5461409 104.253418,42.1005887 104.287598,41.5537109 L105.129883,41.5537109 C105.105469,42.0371118 104.954103,42.4777812 104.675781,42.8757324 C104.39746,43.2736836 104.02759,43.5849598 103.566162,43.8095703 C103.104734,44.0341808 102.610354,44.1464844 102.083008,44.1464844 C101.042964,44.1464844 100.218997,43.7851599 99.611084,43.0625 C99.0031708,42.3398401 98.6992188,41.3681702 98.6992188,40.1474609 L98.6992188,39.8837891 C98.6992188,39.1025352 98.8359361,38.4116241 99.109375,37.8110352 C99.3828139,37.2104462 99.7746557,36.7465837 100.284912,36.4194336 C100.795169,36.0922835 101.392086,35.9287109 102.075684,35.9287109 C102.944829,35.9287109 103.661374,36.1874974 104.225342,36.7050781 C104.789309,37.2226588 105.09082,37.9038044 105.129883,38.7485352 L104.287598,38.7485352 C104.248535,38.1284149 104.025149,37.6279316 103.617432,37.2470703 C103.209715,36.866209 102.695804,36.6757812 102.075684,36.6757812 C101.284664,36.6757812 100.670656,36.9614229 100.233643,37.5327148 C99.7966287,38.1040068 99.578125,38.90478 99.578125,39.9350586 L99.578125,40.1914062 C99.578125,41.2021535 99.7966287,41.9907198 100.233643,42.5571289 C100.670656,43.123538 101.287105,43.4067383 102.083008,43.4067383 Z M108.396973,39.9204102 C108.396973,39.1586876 108.544676,38.4726593 108.840088,37.8623047 C109.1355,37.2519501 109.552976,36.7771013 110.092529,36.4377441 C110.632083,36.098387 111.243649,35.9287109 111.927246,35.9287109 C112.981939,35.9287109 113.836423,36.2985803 114.490723,37.0383301 C115.145023,37.7780799 115.472168,38.7582947 115.472168,39.9790039 L115.472168,40.1621094 C115.472168,40.9287148 115.324464,41.6184051 115.029053,42.2312012 C114.733641,42.8439972 114.317385,43.3164046 113.780273,43.6484375 C113.243161,43.9804704 112.630375,44.1464844 111.941895,44.1464844 C110.892085,44.1464844 110.038822,43.776615 109.38208,43.0368652 C108.725339,42.2971154 108.396973,41.3169006 108.396973,40.0961914 L108.396973,39.9204102 Z M109.275879,40.1621094 C109.275879,41.1093797 109.521238,41.8869599 110.011963,42.494873 C110.502688,43.1027862 111.145992,43.4067383 111.941895,43.4067383 C112.732914,43.4067383 113.373777,43.1027862 113.864502,42.494873 C114.355227,41.8869599 114.600586,41.0849659 114.600586,40.0888672 L114.600586,39.9204102 C114.600586,39.3149384 114.488282,38.7607447 114.263672,38.2578125 C114.039061,37.7548803 113.724123,37.3654799 113.318848,37.0895996 C112.913572,36.8137193 112.44971,36.6757812 111.927246,36.6757812 C111.145992,36.6757812 110.508792,36.9821747 110.015625,37.5949707 C109.522458,38.2077667 109.275879,39.0097607 109.275879,40.0009766 L109.275879,40.1621094 Z M120.07959,36.0751953 L120.108887,37.3642578 C120.401857,36.8857398 120.768064,36.5268567 121.20752,36.2875977 C121.646975,36.0483386 122.135251,35.9287109 122.672363,35.9287109 C123.92237,35.9287109 124.715819,36.4414011 125.052734,37.4667969 C125.335939,36.9736303 125.714353,36.5939955 126.187988,36.3278809 C126.661623,36.0617662 127.184079,35.9287109 127.755371,35.9287109 C129.454598,35.9287109 130.321289,36.856436 130.355469,38.7119141 L130.355469,44 L129.476562,44 L129.476562,38.777832 C129.47168,38.0698207 129.319093,37.5449236 129.018799,37.203125 C128.718504,36.8613264 128.229007,36.6904297 127.550293,36.6904297 C126.920407,36.7001954 126.388186,36.9040507 125.953613,37.302002 C125.519041,37.6999532 125.277344,38.1845675 125.228516,38.7558594 L125.228516,44 L124.349609,44 L124.349609,38.7119141 C124.344727,38.0331997 124.184816,37.526613 123.869873,37.1921387 C123.55493,36.8576643 123.070316,36.6904297 122.416016,36.6904297 C121.864255,36.6904297 121.390627,36.8478988 120.995117,37.1628418 C120.599607,37.4777848 120.306642,37.9453094 120.116211,38.5654297 L120.116211,44 L119.237305,44 L119.237305,36.0751953 L120.07959,36.0751953 Z M137.643555,44.1464844 C136.969723,44.1464844 136.360598,43.9804704 135.816162,43.6484375 C135.271726,43.3164046 134.848146,42.8537627 134.54541,42.260498 C134.242674,41.6672334 134.091309,41.0019568 134.091309,40.2646484 L134.091309,39.949707 C134.091309,39.1879845 134.239012,38.5019562 134.534424,37.8916016 C134.829835,37.2812469 135.241208,36.8015154 135.768555,36.4523926 C136.295901,36.1032697 136.867184,35.9287109 137.482422,35.9287109 C138.444341,35.9287109 139.207273,36.2570768 139.77124,36.9138184 C140.335208,37.5705599 140.617188,38.4677677 140.617188,39.6054688 L140.617188,40.0961914 L134.962891,40.0961914 L134.962891,40.2646484 C134.962891,41.1630904 135.220456,41.911374 135.735596,42.5095215 C136.250735,43.107669 136.898922,43.4067383 137.680176,43.4067383 C138.148928,43.4067383 138.562742,43.3212899 138.921631,43.1503906 C139.280519,42.9794913 139.606444,42.7060566 139.899414,42.3300781 L140.44873,42.7475586 C139.804196,43.6801804 138.869147,44.1464844 137.643555,44.1464844 Z M137.482422,36.6757812 C136.823239,36.6757812 136.267825,36.9174781 135.816162,37.4008789 C135.3645,37.8842798 135.089844,38.5336873 134.992188,39.3491211 L139.745605,39.3491211 L139.745605,39.2539062 C139.721191,38.4921837 139.503908,37.8720727 139.09375,37.3935547 C138.683592,36.9150367 138.146488,36.6757812 137.482422,36.6757812 Z M156.350586,40.1181641 C156.350586,41.3535218 156.077151,42.3337366 155.530273,43.0588379 C154.983396,43.7839392 154.24854,44.1464844 153.325684,44.1464844 C152.222162,44.1464844 151.38721,43.7363322 150.820801,42.9160156 L150.78418,44 L149.963867,44 L149.963867,32.75 L150.835449,32.75 L150.835449,37.2250977 C151.392093,36.3608355 152.21728,35.9287109 153.311035,35.9287109 C154.24854,35.9287109 154.989499,36.2863734 155.533936,37.001709 C156.078372,37.7170446 156.350586,38.7119077 156.350586,39.9863281 L156.350586,40.1181641 Z M155.47168,39.9643555 C155.47168,38.9194284 155.269045,38.1125517 154.86377,37.5437012 C154.458494,36.9748507 153.887211,36.6904297 153.149902,36.6904297 C152.588376,36.6904297 152.112307,36.8283678 151.72168,37.104248 C151.331053,37.3801283 151.035646,37.784177 150.835449,38.3164062 L150.835449,41.890625 C151.274905,42.8867237 152.051264,43.3847656 153.164551,43.3847656 C153.887211,43.3847656 154.452391,43.099124 154.860107,42.527832 C155.267824,41.9565401 155.47168,41.1020565 155.47168,39.9643555 Z M165.286621,44 C165.19873,43.7509753 165.142578,43.3823267 165.118164,42.894043 C164.810545,43.2944356 164.418704,43.6032704 163.942627,43.8205566 C163.46655,44.0378429 162.962405,44.1464844 162.430176,44.1464844 C161.668453,44.1464844 161.052004,43.9340842 160.580811,43.5092773 C160.109617,43.0844705 159.874023,42.5473665 159.874023,41.8979492 C159.874023,41.126461 160.195065,40.5161155 160.837158,40.0668945 C161.479251,39.6176735 162.374018,39.3930664 163.521484,39.3930664 L165.11084,39.3930664 L165.11084,38.4921875 C165.11084,37.9257784 164.936281,37.4802262 164.587158,37.1555176 C164.238035,36.8308089 163.729007,36.668457 163.060059,36.668457 C162.449704,36.668457 161.944338,36.8247055 161.543945,37.137207 C161.143553,37.4497086 160.943359,37.8256814 160.943359,38.2651367 L160.064453,38.2578125 C160.064453,37.6279265 160.357419,37.0822777 160.943359,36.6208496 C161.5293,36.1594215 162.249507,35.9287109 163.104004,35.9287109 C163.987797,35.9287109 164.684812,36.149656 165.195068,36.5915527 C165.705325,37.0334495 165.967773,37.6498984 165.982422,38.440918 L165.982422,42.190918 C165.982422,42.9575234 166.062987,43.5312481 166.224121,43.9121094 L166.224121,44 L165.286621,44 Z M162.532715,43.3701172 C163.118655,43.3701172 163.642332,43.228517 164.10376,42.9453125 C164.565188,42.662108 164.900878,42.2836938 165.11084,41.8100586 L165.11084,40.0668945 L163.543457,40.0668945 C162.669429,40.0766602 161.985842,40.2365707 161.492676,40.5466309 C160.999509,40.856691 160.75293,41.2827121 160.75293,41.824707 C160.75293,42.2690452 160.917723,42.6376938 161.247314,42.9306641 C161.576906,43.2236343 162.005368,43.3701172 162.532715,43.3701172 Z M173.248535,43.4067383 C173.85889,43.4067383 174.370359,43.2346209 174.782959,42.8903809 C175.195559,42.5461409 175.418945,42.1005887 175.453125,41.5537109 L176.29541,41.5537109 C176.270996,42.0371118 176.11963,42.4777812 175.841309,42.8757324 C175.562987,43.2736836 175.193118,43.5849598 174.731689,43.8095703 C174.270261,44.0341808 173.775882,44.1464844 173.248535,44.1464844 C172.208491,44.1464844 171.384525,43.7851599 170.776611,43.0625 C170.168698,42.3398401 169.864746,41.3681702 169.864746,40.1474609 L169.864746,39.8837891 C169.864746,39.1025352 170.001463,38.4116241 170.274902,37.8110352 C170.548341,37.2104462 170.940183,36.7465837 171.450439,36.4194336 C171.960696,36.0922835 172.557614,35.9287109 173.241211,35.9287109 C174.110356,35.9287109 174.826901,36.1874974 175.390869,36.7050781 C175.954837,37.2226588 176.256347,37.9038044 176.29541,38.7485352 L175.453125,38.7485352 C175.414062,38.1284149 175.190676,37.6279316 174.782959,37.2470703 C174.375242,36.866209 173.861331,36.6757812 173.241211,36.6757812 C172.450191,36.6757812 171.836184,36.9614229 171.39917,37.5327148 C170.962156,38.1040068 170.743652,38.90478 170.743652,39.9350586 L170.743652,40.1914062 C170.743652,41.2021535 170.962156,41.9907198 171.39917,42.5571289 C171.836184,43.123538 172.452633,43.4067383 173.248535,43.4067383 Z M181.928223,40.0083008 L180.924805,40.9750977 L180.924805,44 L180.045898,44 L180.045898,32.75 L180.924805,32.75 L180.924805,39.949707 L181.752441,39.0561523 L184.784668,36.0751953 L185.890625,36.0751953 L182.528809,39.4150391 L186.183594,44 L185.13623,44 L181.928223,40.0083008 Z M200.041992,44 C199.954101,43.7509753 199.897949,43.3823267 199.873535,42.894043 C199.565916,43.2944356 199.174075,43.6032704 198.697998,43.8205566 C198.221921,44.0378429 197.717776,44.1464844 197.185547,44.1464844 C196.423824,44.1464844 195.807375,43.9340842 195.336182,43.5092773 C194.864988,43.0844705 194.629395,42.5473665 194.629395,41.8979492 C194.629395,41.126461 194.950436,40.5161155 195.592529,40.0668945 C196.234622,39.6176735 197.129389,39.3930664 198.276855,39.3930664 L199.866211,39.3930664 L199.866211,38.4921875 C199.866211,37.9257784 199.691652,37.4802262 199.342529,37.1555176 C198.993406,36.8308089 198.484378,36.668457 197.81543,36.668457 C197.205075,36.668457 196.699709,36.8247055 196.299316,37.137207 C195.898924,37.4497086 195.69873,37.8256814 195.69873,38.2651367 L194.819824,38.2578125 C194.819824,37.6279265 195.11279,37.0822777 195.69873,36.6208496 C196.284671,36.1594215 197.004879,35.9287109 197.859375,35.9287109 C198.743168,35.9287109 199.440183,36.149656 199.950439,36.5915527 C200.460696,37.0334495 200.723144,37.6498984 200.737793,38.440918 L200.737793,42.190918 C200.737793,42.9575234 200.818359,43.5312481 200.979492,43.9121094 L200.979492,44 L200.041992,44 Z M197.288086,43.3701172 C197.874026,43.3701172 198.397703,43.228517 198.859131,42.9453125 C199.320559,42.662108 199.656249,42.2836938 199.866211,41.8100586 L199.866211,40.0668945 L198.298828,40.0668945 C197.4248,40.0766602 196.741213,40.2365707 196.248047,40.5466309 C195.75488,40.856691 195.508301,41.2827121 195.508301,41.824707 C195.508301,42.2690452 195.673094,42.6376938 196.002686,42.9306641 C196.332277,43.2236343 196.76074,43.3701172 197.288086,43.3701172 Z M205.90918,36.0751953 L205.938477,37.4301758 C206.23633,36.9418921 206.60742,36.5695814 207.051758,36.3132324 C207.496096,36.0568835 207.986814,35.9287109 208.523926,35.9287109 C209.373539,35.9287109 210.005857,36.1679664 210.420898,36.6464844 C210.83594,37.1250024 211.045898,37.8427687 211.050781,38.7998047 L211.050781,44 L210.179199,44 L210.179199,38.7924805 C210.174316,38.0844691 210.024171,37.5571306 209.72876,37.2104492 C209.433348,36.8637678 208.960941,36.6904297 208.311523,36.6904297 C207.769529,36.6904297 207.289797,36.8601057 206.872314,37.1994629 C206.454832,37.5388201 206.145997,37.9965792 205.945801,38.5727539 L205.945801,44 L205.074219,44 L205.074219,36.0751953 L205.90918,36.0751953 Z M214.962402,39.9643555 C214.962402,38.7338806 215.237058,37.7536658 215.786377,37.0236816 C216.335696,36.2936975 217.081538,35.9287109 218.023926,35.9287109 C219.093267,35.9287109 219.908689,36.35107 220.470215,37.1958008 L220.470215,32.75 L221.341797,32.75 L221.341797,44 L220.521484,44 L220.484863,42.9453125 C219.923337,43.7460978 219.09815,44.1464844 218.009277,44.1464844 C217.096187,44.1464844 216.36011,43.7790564 215.801025,43.0441895 C215.241941,42.3093225 214.962402,41.3169008 214.962402,40.0668945 L214.962402,39.9643555 Z M215.848633,40.1181641 C215.848633,41.1289113 216.051268,41.9260225 216.456543,42.5095215 C216.861818,43.0930205 217.433102,43.3847656 218.17041,43.3847656 C219.249517,43.3847656 220.016111,42.9086962 220.470215,41.956543 L220.470215,38.2358398 C220.016111,37.2055613 219.2544,36.6904297 218.185059,36.6904297 C217.44775,36.6904297 216.874025,36.9797334 216.463867,37.5583496 C216.053709,38.1369658 215.848633,38.9902287 215.848633,40.1181641 Z M230.944824,39.9643555 C230.944824,38.7338806 231.21948,37.7536658 231.768799,37.0236816 C232.318118,36.2936975 233.06396,35.9287109 234.006348,35.9287109 C235.075689,35.9287109 235.89111,36.35107 236.452637,37.1958008 L236.452637,32.75 L237.324219,32.75 L237.324219,44 L236.503906,44 L236.467285,42.9453125 C235.905759,43.7460978 235.080572,44.1464844 233.991699,44.1464844 C233.078609,44.1464844 232.342532,43.7790564 231.783447,43.0441895 C231.224362,42.3093225 230.944824,41.3169008 230.944824,40.0668945 L230.944824,39.9643555 Z M231.831055,40.1181641 C231.831055,41.1289113 232.033689,41.9260225 232.438965,42.5095215 C232.84424,43.0930205 233.415524,43.3847656 234.152832,43.3847656 C235.231939,43.3847656 235.998533,42.9086962 236.452637,41.956543 L236.452637,38.2358398 C235.998533,37.2055613 235.236822,36.6904297 234.16748,36.6904297 C233.430172,36.6904297 232.856447,36.9797334 232.446289,37.5583496 C232.036131,38.1369658 231.831055,38.9902287 231.831055,40.1181641 Z M241.147949,39.9204102 C241.147949,39.1586876 241.295653,38.4726593 241.591064,37.8623047 C241.886476,37.2519501 242.303952,36.7771013 242.843506,36.4377441 C243.383059,36.098387 243.994625,35.9287109 244.678223,35.9287109 C245.732915,35.9287109 246.587399,36.2985803 247.241699,37.0383301 C247.895999,37.7780799 248.223145,38.7582947 248.223145,39.9790039 L248.223145,40.1621094 C248.223145,40.9287148 248.075441,41.6184051 247.780029,42.2312012 C247.484618,42.8439972 247.068362,43.3164046 246.53125,43.6484375 C245.994138,43.9804704 245.381351,44.1464844 244.692871,44.1464844 C243.643061,44.1464844 242.789798,43.776615 242.133057,43.0368652 C241.476315,42.2971154 241.147949,41.3169006 241.147949,40.0961914 L241.147949,39.9204102 Z M242.026855,40.1621094 C242.026855,41.1093797 242.272214,41.8869599 242.762939,42.494873 C243.253665,43.1027862 243.896969,43.4067383 244.692871,43.4067383 C245.483891,43.4067383 246.124753,43.1027862 246.615479,42.494873 C247.106204,41.8869599 247.351562,41.0849659 247.351562,40.0888672 L247.351562,39.9204102 C247.351562,39.3149384 247.239259,38.7607447 247.014648,38.2578125 C246.790038,37.7548803 246.4751,37.3654799 246.069824,37.0895996 C245.664549,36.8137193 245.200686,36.6757812 244.678223,36.6757812 C243.896969,36.6757812 243.259768,36.9821747 242.766602,37.5949707 C242.273435,38.2077667 242.026855,39.0097607 242.026855,40.0009766 L242.026855,40.1621094 Z M6.14501953,62 C6.05712847,61.7509753 6.00097668,61.3823267 5.9765625,60.894043 C5.66894377,61.2944356 5.27710199,61.6032704 4.80102539,61.8205566 C4.32494879,62.0378429 3.82080344,62.1464844 3.28857422,62.1464844 C2.52685166,62.1464844 1.91040275,61.9340842 1.43920898,61.5092773 C0.968015222,61.0844705 0.732421875,60.5473665 0.732421875,59.8979492 C0.732421875,59.126461 1.05346359,58.5161155 1.69555664,58.0668945 C2.33764969,57.6176735 3.23241614,57.3930664 4.37988281,57.3930664 L5.96923828,57.3930664 L5.96923828,56.4921875 C5.96923828,55.9257784 5.79467948,55.4802262 5.44555664,55.1555176 C5.0964338,54.8308089 4.58740569,54.668457 3.91845703,54.668457 C3.30810242,54.668457 2.80273638,54.8247055 2.40234375,55.137207 C2.00195112,55.4497086 1.80175781,55.8256814 1.80175781,56.2651367 L0.922851562,56.2578125 C0.922851562,55.6279265 1.21581738,55.0822777 1.80175781,54.6208496 C2.38769824,54.1594215 3.10790588,53.9287109 3.96240234,53.9287109 C4.84619583,53.9287109 5.54321034,54.149656 6.0534668,54.5915527 C6.56372325,55.0334495 6.8261718,55.6498984 6.84082031,56.440918 L6.84082031,60.190918 C6.84082031,60.9575234 6.92138591,61.5312481 7.08251953,61.9121094 L7.08251953,62 L6.14501953,62 Z M3.39111328,61.3701172 C3.97705371,61.3701172 4.50073011,61.228517 4.9621582,60.9453125 C5.42358629,60.662108 5.75927629,60.2836938 5.96923828,59.8100586 L5.96923828,58.0668945 L4.40185547,58.0668945 C3.52782766,58.0766602 2.84424075,58.2365707 2.35107422,58.5466309 C1.85790769,58.856691 1.61132812,59.2827121 1.61132812,59.824707 C1.61132812,60.2690452 1.7761214,60.6376938 2.10571289,60.9306641 C2.43530438,61.2236343 2.86376689,61.3701172 3.39111328,61.3701172 Z M12.012207,54.0751953 L12.0415039,55.4301758 C12.339357,54.9418921 12.710447,54.5695814 13.1547852,54.3132324 C13.5991233,54.0568835 14.0898411,53.9287109 14.6269531,53.9287109 C15.4765667,53.9287109 16.1088846,54.1679664 16.5239258,54.6464844 C16.9389669,55.1250024 17.1489258,55.8427687 17.1538086,56.7998047 L17.1538086,62 L16.2822266,62 L16.2822266,56.7924805 C16.2773437,56.0844691 16.1271987,55.5571306 15.8317871,55.2104492 C15.5363755,54.8637678 15.0639681,54.6904297 14.4145508,54.6904297 C13.8725559,54.6904297 13.3928244,54.8601057 12.9753418,55.1994629 C12.5578592,55.5388201 12.2490244,55.9965792 12.0488281,56.5727539 L12.0488281,62 L11.1772461,62 L11.1772461,54.0751953 L12.012207,54.0751953 Z M20.9335938,57.9204102 C20.9335938,57.1586876 21.0812974,56.4726593 21.376709,55.8623047 C21.6721206,55.2519501 22.0895969,54.7771013 22.6291504,54.4377441 C23.1687039,54.098387 23.78027,53.9287109 24.4638672,53.9287109 C25.51856,53.9287109 26.3730436,54.2985803 27.0273438,55.0383301 C27.6816439,55.7780799 28.0087891,56.7582947 28.0087891,57.9790039 L28.0087891,58.1621094 C28.0087891,58.9287148 27.8610855,59.6184051 27.5656738,60.2312012 C27.2702622,60.8439972 26.8540066,61.3164046 26.3168945,61.6484375 C25.7797825,61.9804704 25.1669956,62.1464844 24.4785156,62.1464844 C23.4287057,62.1464844 22.5754427,61.776615 21.9187012,61.0368652 C21.2619596,60.2971154 20.9335938,59.3169006 20.9335938,58.0961914 L20.9335938,57.9204102 Z M21.8125,58.1621094 C21.8125,59.1093797 22.0578589,59.8869599 22.548584,60.494873 C23.0393091,61.1027862 23.6826132,61.4067383 24.4785156,61.4067383 C25.2695352,61.4067383 25.9103979,61.1027862 26.401123,60.494873 C26.8918482,59.8869599 27.137207,59.0849659 27.137207,58.0888672 L27.137207,57.9204102 C27.137207,57.3149384 27.0249035,56.7607447 26.800293,56.2578125 C26.5756825,55.7548803 26.2607442,55.3654799 25.8554688,55.0895996 C25.4501933,54.8137193 24.9863307,54.6757812 24.4638672,54.6757812 C23.6826133,54.6757812 23.0454126,54.9821747 22.5522461,55.5949707 C22.0590796,56.2077667 21.8125,57.0097607 21.8125,58.0009766 L21.8125,58.1621094 Z M33.1801758,52.0463867 L33.1801758,54.0751953 L34.8208008,54.0751953 L34.8208008,54.7929688 L33.1801758,54.7929688 L33.1801758,60.0737305 C33.1801758,60.5131858 33.2595207,60.840331 33.4182129,61.0551758 C33.5769051,61.2700206 33.841795,61.3774414 34.2128906,61.3774414 C34.3593757,61.3774414 34.5961898,61.3530276 34.9233398,61.3041992 L34.9599609,62.0219727 C34.7304676,62.1049809 34.4179707,62.1464844 34.0224609,62.1464844 C33.421872,62.1464844 32.9848646,61.9719256 32.7114258,61.6228027 C32.4379869,61.2736799 32.3012695,60.759769 32.3012695,60.0810547 L32.3012695,54.7929688 L30.84375,54.7929688 L30.84375,54.0751953 L32.3012695,54.0751953 L32.3012695,52.0463867 L33.1801758,52.0463867 Z M39.5087891,55.4155273 C39.7968764,54.9418922 40.1655251,54.5756849 40.6147461,54.3168945 C41.0639671,54.0581042 41.5546848,53.9287109 42.0869141,53.9287109 C42.9365277,53.9287109 43.5688456,54.1679664 43.9838867,54.6464844 C44.3989279,55.1250024 44.6088867,55.8427687 44.6137695,56.7998047 L44.6137695,62 L43.7421875,62 L43.7421875,56.7924805 C43.7373047,56.0844691 43.5871597,55.5571306 43.291748,55.2104492 C42.9963364,54.8637678 42.523929,54.6904297 41.8745117,54.6904297 C41.3325168,54.6904297 40.8527853,54.8601057 40.4353027,55.1994629 C40.0178202,55.5388201 39.7089854,55.9965792 39.5087891,56.5727539 L39.5087891,62 L38.637207,62 L38.637207,50.75 L39.5087891,50.75 L39.5087891,55.4155273 Z M51.9384766,62.1464844 C51.2646451,62.1464844 50.6555203,61.9804704 50.111084,61.6484375 C49.5666477,61.3164046 49.1430679,60.8537627 48.840332,60.260498 C48.5375961,59.6672334 48.3862305,59.0019568 48.3862305,58.2646484 L48.3862305,57.949707 C48.3862305,57.1879845 48.5339341,56.5019562 48.8293457,55.8916016 C49.1247573,55.2812469 49.5361302,54.8015154 50.0634766,54.4523926 C50.5908229,54.1032697 51.1621063,53.9287109 51.7773438,53.9287109 C52.7392626,53.9287109 53.5021944,54.2570768 54.0661621,54.9138184 C54.6301298,55.5705599 54.9121094,56.4677677 54.9121094,57.6054688 L54.9121094,58.0961914 L49.2578125,58.0961914 L49.2578125,58.2646484 C49.2578125,59.1630904 49.5153783,59.911374 50.0305176,60.5095215 C50.5456569,61.107669 51.1938437,61.4067383 51.9750977,61.4067383 C52.44385,61.4067383 52.8576642,61.3212899 53.2165527,61.1503906 C53.5754412,60.9794913 53.9013657,60.7060566 54.1943359,60.3300781 L54.7436523,60.7475586 C54.0991179,61.6801804 53.1640686,62.1464844 51.9384766,62.1464844 Z M51.7773438,54.6757812 C51.1181608,54.6757812 50.5627464,54.9174781 50.111084,55.4008789 C49.6594216,55.8842798 49.3847661,56.5336873 49.2871094,57.3491211 L54.0405273,57.3491211 L54.0405273,57.2539062 C54.0161132,56.4921837 53.7988302,55.8720727 53.3886719,55.3935547 C52.9785136,54.9150367 52.4414096,54.6757812 51.7773438,54.6757812 Z M62.2807617,54.8222656 C62.0952139,54.7880858 61.897462,54.7709961 61.6875,54.7709961 C61.1406223,54.7709961 60.6779804,54.9235825 60.2995605,55.2287598 C59.9211407,55.5339371 59.651368,55.9770479 59.4902344,56.5581055 L59.4902344,62 L58.6186523,62 L58.6186523,54.0751953 L59.4755859,54.0751953 L59.4902344,55.3349609 C59.9541039,54.3974563 60.6987253,53.9287109 61.7241211,53.9287109 C61.9682629,53.9287109 62.1611321,53.9604489 62.3027344,54.0239258 L62.2807617,54.8222656 Z M74.9746094,54.8222656 C74.7890616,54.7880858 74.5913096,54.7709961 74.3813477,54.7709961 C73.8344699,54.7709961 73.3718281,54.9235825 72.9934082,55.2287598 C72.6149883,55.5339371 72.3452156,55.9770479 72.184082,56.5581055 L72.184082,62 L71.3125,62 L71.3125,54.0751953 L72.1694336,54.0751953 L72.184082,55.3349609 C72.6479515,54.3974563 73.392573,53.9287109 74.4179688,53.9287109 C74.6621106,53.9287109 74.8549798,53.9604489 74.996582,54.0239258 L74.9746094,54.8222656 Z M77.7290039,57.9204102 C77.7290039,57.1586876 77.8767075,56.4726593 78.1721191,55.8623047 C78.4675308,55.2519501 78.8850071,54.7771013 79.4245605,54.4377441 C79.964114,54.098387 80.5756802,53.9287109 81.2592773,53.9287109 C82.3139701,53.9287109 83.1684538,54.2985803 83.8227539,55.0383301 C84.4770541,55.7780799 84.8041992,56.7582947 84.8041992,57.9790039 L84.8041992,58.1621094 C84.8041992,58.9287148 84.6564956,59.6184051 84.361084,60.2312012 C84.0656724,60.8439972 83.6494167,61.3164046 83.1123047,61.6484375 C82.5751926,61.9804704 81.9624058,62.1464844 81.2739258,62.1464844 C80.2241158,62.1464844 79.3708529,61.776615 78.7141113,61.0368652 C78.0573698,60.2971154 77.7290039,59.3169006 77.7290039,58.0961914 L77.7290039,57.9204102 Z M78.6079102,58.1621094 C78.6079102,59.1093797 78.853269,59.8869599 79.3439941,60.494873 C79.8347193,61.1027862 80.4780234,61.4067383 81.2739258,61.4067383 C82.0649454,61.4067383 82.7058081,61.1027862 83.1965332,60.494873 C83.6872583,59.8869599 83.9326172,59.0849659 83.9326172,58.0888672 L83.9326172,57.9204102 C83.9326172,57.3149384 83.8203136,56.7607447 83.5957031,56.2578125 C83.3710926,55.7548803 83.0561544,55.3654799 82.6508789,55.0895996 C82.2456034,54.8137193 81.7817409,54.6757812 81.2592773,54.6757812 C80.4780234,54.6757812 79.8408228,54.9821747 79.3476562,55.5949707 C78.8544897,56.2077667 78.6079102,57.0097607 78.6079102,58.0009766 L78.6079102,58.1621094 Z M91.5429688,61.4067383 C92.1533234,61.4067383 92.6647929,61.2346209 93.0773926,60.8903809 C93.4899923,60.5461409 93.7133787,60.1005887 93.7475586,59.5537109 L94.5898438,59.5537109 C94.5654296,60.0371118 94.4140639,60.4777812 94.1357422,60.8757324 C93.8574205,61.2736836 93.4875511,61.5849598 93.026123,61.8095703 C92.564695,62.0341808 92.0703151,62.1464844 91.5429688,62.1464844 C90.5029245,62.1464844 89.6789581,61.7851599 89.0710449,61.0625 C88.4631317,60.3398401 88.1591797,59.3681702 88.1591797,58.1474609 L88.1591797,57.8837891 C88.1591797,57.1025352 88.2958971,56.4116241 88.5693359,55.8110352 C88.8427748,55.2104462 89.2346166,54.7465837 89.744873,54.4194336 C90.2551295,54.0922835 90.8520474,53.9287109 91.5356445,53.9287109 C92.4047895,53.9287109 93.1213351,54.1874974 93.6853027,54.7050781 C94.2492704,55.2226588 94.5507811,55.9038044 94.5898438,56.7485352 L93.7475586,56.7485352 C93.7084959,56.1284149 93.4851095,55.6279316 93.0773926,55.2470703 C92.6696757,54.866209 92.1557648,54.6757812 91.5356445,54.6757812 C90.744625,54.6757812 90.1306174,54.9614229 89.6936035,55.5327148 C89.2565896,56.1040068 89.0380859,56.90478 89.0380859,57.9350586 L89.0380859,58.1914062 C89.0380859,59.2021535 89.2565896,59.9907198 89.6936035,60.5571289 C90.1306174,61.123538 90.7470663,61.4067383 91.5429688,61.4067383 Z M100.222656,58.0083008 L99.2192383,58.9750977 L99.2192383,62 L98.340332,62 L98.340332,50.75 L99.2192383,50.75 L99.2192383,57.949707 L100.046875,57.0561523 L103.079102,54.0751953 L104.185059,54.0751953 L100.823242,57.4150391 L104.478027,62 L103.430664,62 L100.222656,58.0083008 Z M116.263672,61.4067383 C116.874026,61.4067383 117.385496,61.2346209 117.798096,60.8903809 C118.210695,60.5461409 118.434082,60.1005887 118.468262,59.5537109 L119.310547,59.5537109 C119.286133,60.0371118 119.134767,60.4777812 118.856445,60.8757324 C118.578124,61.2736836 118.208254,61.5849598 117.746826,61.8095703 C117.285398,62.0341808 116.791018,62.1464844 116.263672,62.1464844 C115.223628,62.1464844 114.399661,61.7851599 113.791748,61.0625 C113.183835,60.3398401 112.879883,59.3681702 112.879883,58.1474609 L112.879883,57.8837891 C112.879883,57.1025352 113.0166,56.4116241 113.290039,55.8110352 C113.563478,55.2104462 113.95532,54.7465837 114.465576,54.4194336 C114.975833,54.0922835 115.57275,53.9287109 116.256348,53.9287109 C117.125493,53.9287109 117.842038,54.1874974 118.406006,54.7050781 C118.969974,55.2226588 119.271484,55.9038044 119.310547,56.7485352 L118.468262,56.7485352 C118.429199,56.1284149 118.205813,55.6279316 117.798096,55.2470703 C117.390379,54.866209 116.876468,54.6757812 116.256348,54.6757812 C115.465328,54.6757812 114.851321,54.9614229 114.414307,55.5327148 C113.977293,56.1040068 113.758789,56.90478 113.758789,57.9350586 L113.758789,58.1914062 C113.758789,59.2021535 113.977293,59.9907198 114.414307,60.5571289 C114.851321,61.123538 115.467769,61.4067383 116.263672,61.4067383 Z M124.04248,62 L123.163574,62 L123.163574,50.75 L124.04248,50.75 L124.04248,62 Z M129.404297,62 L128.525391,62 L128.525391,54.0751953 L129.404297,54.0751953 L129.404297,62 Z M128.371582,51.7827148 C128.371582,51.6166984 128.425292,51.4763189 128.532715,51.3615723 C128.640137,51.2468256 128.78662,51.1894531 128.972168,51.1894531 C129.157716,51.1894531 129.305419,51.2468256 129.415283,51.3615723 C129.525147,51.4763189 129.580078,51.6166984 129.580078,51.7827148 C129.580078,51.9487313 129.525147,52.0878901 129.415283,52.2001953 C129.305419,52.3125006 129.157716,52.3686523 128.972168,52.3686523 C128.78662,52.3686523 128.640137,52.3125006 128.532715,52.2001953 C128.425292,52.0878901 128.371582,51.9487313 128.371582,51.7827148 Z M134.583008,54.0751953 L134.612305,55.3642578 C134.905275,54.8857398 135.271482,54.5268567 135.710938,54.2875977 C136.150393,54.0483386 136.638669,53.9287109 137.175781,53.9287109 C138.425787,53.9287109 139.219237,54.4414011 139.556152,55.4667969 C139.839357,54.9736303 140.217771,54.5939955 140.691406,54.3278809 C141.165041,54.0617662 141.687497,53.9287109 142.258789,53.9287109 C143.958016,53.9287109 144.824707,54.856436 144.858887,56.7119141 L144.858887,62 L143.97998,62 L143.97998,56.777832 C143.975098,56.0698207 143.822511,55.5449236 143.522217,55.203125 C143.221922,54.8613264 142.732425,54.6904297 142.053711,54.6904297 C141.423825,54.7001954 140.891604,54.9040507 140.457031,55.302002 C140.022459,55.6999532 139.780762,56.1845675 139.731934,56.7558594 L139.731934,62 L138.853027,62 L138.853027,56.7119141 C138.848145,56.0331997 138.688234,55.526613 138.373291,55.1921387 C138.058348,54.8576643 137.573734,54.6904297 136.919434,54.6904297 C136.367673,54.6904297 135.894045,54.8478988 135.498535,55.1628418 C135.103025,55.4777848 134.81006,55.9453094 134.619629,56.5654297 L134.619629,62 L133.740723,62 L133.740723,54.0751953 L134.583008,54.0751953 Z M155.45752,58.1181641 C155.45752,59.3535218 155.184085,60.3337366 154.637207,61.0588379 C154.090329,61.7839392 153.355473,62.1464844 152.432617,62.1464844 C151.329096,62.1464844 150.494143,61.7363322 149.927734,60.9160156 L149.891113,62 L149.070801,62 L149.070801,50.75 L149.942383,50.75 L149.942383,55.2250977 C150.499026,54.3608355 151.324213,53.9287109 152.417969,53.9287109 C153.355473,53.9287109 154.096433,54.2863734 154.640869,55.001709 C155.185305,55.7170446 155.45752,56.7119077 155.45752,57.9863281 L155.45752,58.1181641 Z M154.578613,57.9643555 C154.578613,56.9194284 154.375979,56.1125517 153.970703,55.5437012 C153.565428,54.9748507 152.994144,54.6904297 152.256836,54.6904297 C151.69531,54.6904297 151.21924,54.8283678 150.828613,55.104248 C150.437986,55.3801283 150.142579,55.784177 149.942383,56.3164062 L149.942383,59.890625 C150.381838,60.8867237 151.158198,61.3847656 152.271484,61.3847656 C152.994144,61.3847656 153.559324,61.099124 153.967041,60.527832 C154.374758,59.9565401 154.578613,59.1020565 154.578613,57.9643555 Z M160.372559,62 L159.493652,62 L159.493652,54.0751953 L160.372559,54.0751953 L160.372559,62 Z M159.339844,51.7827148 C159.339844,51.6166984 159.393554,51.4763189 159.500977,51.3615723 C159.608399,51.2468256 159.754882,51.1894531 159.94043,51.1894531 C160.125977,51.1894531 160.273681,51.2468256 160.383545,51.3615723 C160.493409,51.4763189 160.54834,51.6166984 160.54834,51.7827148 C160.54834,51.9487313 160.493409,52.0878901 160.383545,52.2001953 C160.273681,52.3125006 160.125977,52.3686523 159.94043,52.3686523 C159.754882,52.3686523 159.608399,52.3125006 159.500977,52.2001953 C159.393554,52.0878901 159.339844,51.9487313 159.339844,51.7827148 Z M165.587891,54.0751953 L165.617188,55.4301758 C165.915041,54.9418921 166.286131,54.5695814 166.730469,54.3132324 C167.174807,54.0568835 167.665525,53.9287109 168.202637,53.9287109 C169.05225,53.9287109 169.684568,54.1679664 170.099609,54.6464844 C170.514651,55.1250024 170.724609,55.8427687 170.729492,56.7998047 L170.729492,62 L169.85791,62 L169.85791,56.7924805 C169.853027,56.0844691 169.702882,55.5571306 169.407471,55.2104492 C169.112059,54.8637678 168.639652,54.6904297 167.990234,54.6904297 C167.448239,54.6904297 166.968508,54.8601057 166.551025,55.1994629 C166.133543,55.5388201 165.824708,55.9965792 165.624512,56.5727539 L165.624512,62 L164.75293,62 L164.75293,54.0751953 L165.587891,54.0751953 Z M174.641113,57.9643555 C174.641113,56.7241149 174.915769,55.7414587 175.465088,55.0163574 C176.014407,54.2912561 176.760249,53.9287109 177.702637,53.9287109 C178.781744,53.9287109 179.602048,54.3583941 180.163574,55.2177734 L180.20752,54.0751953 L181.027832,54.0751953 L181.027832,61.8388672 C181.027832,62.8593801 180.74219,63.6674775 180.170898,64.2631836 C179.599607,64.8588897 178.825688,65.1567383 177.849121,65.1567383 C177.297361,65.1567383 176.771243,65.0334485 176.270752,64.7868652 C175.770261,64.540282 175.375978,64.2119161 175.087891,63.8017578 L175.578613,63.2744141 C176.198734,64.0361366 176.936031,64.4169922 177.790527,64.4169922 C178.522953,64.4169922 179.094236,64.2009299 179.504395,63.7687988 C179.914553,63.3366678 180.126953,62.7373085 180.141602,61.9707031 L180.141602,60.9746094 C179.580075,61.7558633 178.762212,62.1464844 177.687988,62.1464844 C176.770015,62.1464844 176.032718,61.7802771 175.476074,61.0478516 C174.919431,60.315426 174.641113,59.3266664 174.641113,58.081543 L174.641113,57.9643555 Z M175.527344,58.1181641 C175.527344,59.1289113 175.729978,59.9260225 176.135254,60.5095215 C176.540529,61.0930205 177.111813,61.3847656 177.849121,61.3847656 C178.928228,61.3847656 179.692381,60.901372 180.141602,59.9345703 L180.141602,56.2504883 C179.936522,55.7426732 179.641115,55.3557142 179.255371,55.0895996 C178.869627,54.823485 178.405764,54.6904297 177.86377,54.6904297 C177.126461,54.6904297 176.552736,54.9797334 176.142578,55.5583496 C175.73242,56.1369658 175.527344,56.9902287 175.527344,58.1181641 Z M192.322754,52.0463867 L192.322754,54.0751953 L193.963379,54.0751953 L193.963379,54.7929688 L192.322754,54.7929688 L192.322754,60.0737305 C192.322754,60.5131858 192.402099,60.840331 192.560791,61.0551758 C192.719483,61.2700206 192.984373,61.3774414 193.355469,61.3774414 C193.501954,61.3774414 193.738768,61.3530276 194.065918,61.3041992 L194.102539,62.0219727 C193.873046,62.1049809 193.560549,62.1464844 193.165039,62.1464844 C192.56445,62.1464844 192.127443,61.9719256 191.854004,61.6228027 C191.580565,61.2736799 191.443848,60.759769 191.443848,60.0810547 L191.443848,54.7929688 L189.986328,54.7929688 L189.986328,54.0751953 L191.443848,54.0751953 L191.443848,52.0463867 L192.322754,52.0463867 Z M201.441895,54.8222656 C201.256347,54.7880858 201.058595,54.7709961 200.848633,54.7709961 C200.301755,54.7709961 199.839113,54.9235825 199.460693,55.2287598 C199.082273,55.5339371 198.812501,55.9770479 198.651367,56.5581055 L198.651367,62 L197.779785,62 L197.779785,54.0751953 L198.636719,54.0751953 L198.651367,55.3349609 C199.115237,54.3974563 199.859858,53.9287109 200.885254,53.9287109 C201.129396,53.9287109 201.322265,53.9604489 201.463867,54.0239258 L201.441895,54.8222656 Z M205.807617,62 L204.928711,62 L204.928711,54.0751953 L205.807617,54.0751953 L205.807617,62 Z M204.774902,51.7827148 C204.774902,51.6166984 204.828613,51.4763189 204.936035,51.3615723 C205.043458,51.2468256 205.18994,51.1894531 205.375488,51.1894531 C205.561036,51.1894531 205.70874,51.2468256 205.818604,51.3615723 C205.928467,51.4763189 205.983398,51.6166984 205.983398,51.7827148 C205.983398,51.9487313 205.928467,52.0878901 205.818604,52.2001953 C205.70874,52.3125006 205.561036,52.3686523 205.375488,52.3686523 C205.18994,52.3686523 205.043458,52.3125006 204.936035,52.2001953 C204.828613,52.0878901 204.774902,51.9487313 204.774902,51.7827148 Z M216.560059,58.1181641 C216.560059,59.3535218 216.286624,60.3337366 215.739746,61.0588379 C215.192868,61.7839392 214.460454,62.1464844 213.54248,62.1464844 C212.458491,62.1464844 211.628421,61.7656288 211.052246,61.0039062 L211.052246,65.046875 L210.180664,65.046875 L210.180664,54.0751953 L210.993652,54.0751953 L211.037598,55.1958008 C211.60889,54.35107 212.436518,53.9287109 213.520508,53.9287109 C214.467778,53.9287109 215.211179,54.2875941 215.750732,55.0053711 C216.290286,55.7231481 216.560059,56.7192319 216.560059,57.9936523 L216.560059,58.1181641 Z M215.681152,57.9643555 C215.681152,56.9536082 215.473635,56.1552764 215.058594,55.5693359 C214.643553,54.9833955 214.064945,54.6904297 213.322754,54.6904297 C212.785642,54.6904297 212.324221,54.8198229 211.938477,55.0786133 C211.552732,55.3374036 211.257325,55.7133764 211.052246,56.206543 L211.052246,60.0078125 C211.262208,60.4619163 211.562498,60.8085926 211.953125,61.0478516 C212.343752,61.2871106 212.805173,61.4067383 213.337402,61.4067383 C214.074711,61.4067383 214.649656,61.1125518 215.062256,60.5241699 C215.474856,59.9357881 215.681152,59.0825251 215.681152,57.9643555 Z M227.093262,54.0751953 L227.093262,62.9448242 C227.093262,63.6772498 226.917482,64.2363262 226.565918,64.6220703 C226.214354,65.0078144 225.696781,65.2006836 225.013184,65.2006836 C224.74951,65.2006836 224.493165,65.1542973 224.244141,65.0615234 L224.258789,64.3364258 C224.473634,64.3999027 224.693358,64.4316406 224.917969,64.4316406 C225.787114,64.4316406 226.22168,63.9311573 226.22168,62.9301758 L226.22168,54.0751953 L227.093262,54.0751953 Z M226.661133,51.1894531 C226.851563,51.1894531 227.000488,51.2468256 227.10791,51.3615723 C227.215333,51.4763189 227.269043,51.6166984 227.269043,51.7827148 C227.269043,51.9487313 227.215333,52.0878901 227.10791,52.2001953 C227.000488,52.3125006 226.851563,52.3686523 226.661133,52.3686523 C226.475585,52.3686523 226.330323,52.3125006 226.225342,52.2001953 C226.120361,52.0878901 226.067871,51.9487313 226.067871,51.7827148 C226.067871,51.6166984 226.120361,51.4763189 226.225342,51.3615723 C226.330323,51.2468256 226.475585,51.1894531 226.661133,51.1894531 Z M236.666504,60.996582 C236.139158,61.7631874 235.296881,62.1464844 234.139648,62.1464844 C233.294918,62.1464844 232.652834,61.9011255 232.213379,61.4104004 C231.773924,60.9196753 231.549316,60.1933642 231.539551,59.2314453 L231.539551,54.0751953 L232.411133,54.0751953 L232.411133,59.121582 C232.411133,60.6303786 233.021478,61.3847656 234.242188,61.3847656 C235.511725,61.3847656 236.31494,60.8598685 236.651855,59.8100586 L236.651855,54.0751953 L237.530762,54.0751953 L237.530762,62 L236.681152,62 L236.666504,60.996582 Z M246.554688,59.9858398 C246.554688,59.5512674 246.380129,59.2021498 246.031006,58.9384766 C245.681883,58.6748034 245.155765,58.4685066 244.452637,58.3195801 C243.749508,58.1706536 243.203859,57.9997568 242.815674,57.8068848 C242.427488,57.6140127 242.139405,57.3784194 241.951416,57.1000977 C241.763427,56.821776 241.669434,56.4848653 241.669434,56.0893555 C241.669434,55.4643523 241.930661,54.9480001 242.453125,54.5402832 C242.975589,54.1325663 243.644527,53.9287109 244.459961,53.9287109 C245.343754,53.9287109 246.052976,54.1472146 246.587646,54.5842285 C247.122317,55.0212424 247.389648,55.5913051 247.389648,56.2944336 L246.510742,56.2944336 C246.510742,55.8305641 246.316652,55.4448258 245.928467,55.137207 C245.540281,54.8295883 245.050784,54.6757812 244.459961,54.6757812 C243.883786,54.6757812 243.421144,54.8039538 243.072021,55.0603027 C242.722899,55.3166517 242.54834,55.6499003 242.54834,56.0600586 C242.54834,56.4555684 242.693602,56.7619618 242.984131,56.979248 C243.27466,57.1965343 243.80444,57.3955069 244.573486,57.5761719 C245.342533,57.7568368 245.918699,57.949706 246.302002,58.1547852 C246.685305,58.3598643 246.969726,58.6064439 247.155273,58.8945312 C247.340821,59.1826186 247.433594,59.5317362 247.433594,59.9418945 C247.433594,60.6108432 247.163821,61.1455058 246.624268,61.5458984 C246.084714,61.9462911 245.380375,62.1464844 244.51123,62.1464844 C243.588374,62.1464844 242.840091,61.9230979 242.266357,61.4763184 C241.692624,61.0295388 241.405762,60.4643589 241.405762,59.7807617 L242.284668,59.7807617 C242.318848,60.2934596 242.53491,60.6926255 242.932861,60.9782715 C243.330813,61.2639174 243.85693,61.4067383 244.51123,61.4067383 C245.121585,61.4067383 245.614744,61.2724623 245.990723,61.0039062 C246.366701,60.7353502 246.554688,60.3959981 246.554688,59.9858398 Z M252.766113,52.0463867 L252.766113,54.0751953 L254.406738,54.0751953 L254.406738,54.7929688 L252.766113,54.7929688 L252.766113,60.0737305 C252.766113,60.5131858 252.845458,60.840331 253.00415,61.0551758 C253.162843,61.2700206 253.427733,61.3774414 253.798828,61.3774414 C253.945313,61.3774414 254.182127,61.3530276 254.509277,61.3041992 L254.545898,62.0219727 C254.316405,62.1049809 254.003908,62.1464844 253.608398,62.1464844 C253.007809,62.1464844 252.570802,61.9719256 252.297363,61.6228027 C252.023924,61.2736799 251.887207,60.759769 251.887207,60.0810547 L251.887207,54.7929688 L250.429688,54.7929688 L250.429688,54.0751953 L251.887207,54.0751953 L251.887207,52.0463867 L252.766113,52.0463867 Z M264.852051,62 L263.973145,62 L263.973145,54.0751953 L264.852051,54.0751953 L264.852051,62 Z M263.819336,51.7827148 C263.819336,51.6166984 263.873046,51.4763189 263.980469,51.3615723 C264.087891,51.2468256 264.234374,51.1894531 264.419922,51.1894531 C264.60547,51.1894531 264.753173,51.2468256 264.863037,51.3615723 C264.972901,51.4763189 265.027832,51.6166984 265.027832,51.7827148 C265.027832,51.9487313 264.972901,52.0878901 264.863037,52.2001953 C264.753173,52.3125006 264.60547,52.3686523 264.419922,52.3686523 C264.234374,52.3686523 264.087891,52.3125006 263.980469,52.2001953 C263.873046,52.0878901 263.819336,51.9487313 263.819336,51.7827148 Z M270.067383,54.0751953 L270.09668,55.4301758 C270.394533,54.9418921 270.765623,54.5695814 271.209961,54.3132324 C271.654299,54.0568835 272.145017,53.9287109 272.682129,53.9287109 C273.531743,53.9287109 274.16406,54.1679664 274.579102,54.6464844 C274.994143,55.1250024 275.204102,55.8427687 275.208984,56.7998047 L275.208984,62 L274.337402,62 L274.337402,56.7924805 C274.33252,56.0844691 274.182375,55.5571306 273.886963,55.2104492 C273.591551,54.8637678 273.119144,54.6904297 272.469727,54.6904297 C271.927732,54.6904297 271.448,54.8601057 271.030518,55.1994629 C270.613035,55.5388201 270.3042,55.9965792 270.104004,56.5727539 L270.104004,62 L269.232422,62 L269.232422,54.0751953 L270.067383,54.0751953 Z M8.69384766,69.3359375 L8.69384766,76.6162109 C8.68896482,77.333988 8.530275,77.9589817 8.21777344,78.4912109 C7.90527187,79.0234402 7.46460245,79.4323716 6.89575195,79.7180176 C6.32690145,80.0036635 5.67383181,80.1464844 4.93652344,80.1464844 C3.81347095,80.1464844 2.91382174,79.840091 2.23754883,79.2272949 C1.56127592,78.6144989 1.21093762,77.7661187 1.18652344,76.6821289 L1.18652344,69.3359375 L2.08007812,69.3359375 L2.08007812,76.550293 C2.08007812,77.448735 2.33642322,78.1457495 2.84912109,78.6413574 C3.36181897,79.1369654 4.05761279,79.3847656 4.93652344,79.3847656 C5.81543408,79.3847656 6.51000721,79.1357447 7.02026367,78.6376953 C7.53052013,78.1396459 7.78564453,77.4462935 7.78564453,76.5576172 L7.78564453,69.3359375 L8.69384766,69.3359375 Z M14.3632812,70.0463867 L14.3632812,72.0751953 L16.0039062,72.0751953 L16.0039062,72.7929688 L14.3632812,72.7929688 L14.3632812,78.0737305 C14.3632812,78.5131858 14.4426262,78.840331 14.6013184,79.0551758 C14.7600106,79.2700206 15.0249005,79.3774414 15.3959961,79.3774414 C15.5424812,79.3774414 15.7792952,79.3530276 16.1064453,79.3041992 L16.1430664,80.0219727 C15.9135731,80.1049809 15.6010762,80.1464844 15.2055664,80.1464844 C14.6049775,80.1464844 14.1679701,79.9719256 13.8945312,79.6228027 C13.6210924,79.2736799 13.484375,78.759769 13.484375,78.0810547 L13.484375,72.7929688 L12.0268555,72.7929688 L12.0268555,72.0751953 L13.484375,72.0751953 L13.484375,70.0463867 L14.3632812,70.0463867 Z M24.8227539,80 C24.7348628,79.7509753 24.6787111,79.3823267 24.6542969,78.894043 C24.3466781,79.2944356 23.9548364,79.6032704 23.4787598,79.8205566 C23.0026832,80.0378429 22.4985378,80.1464844 21.9663086,80.1464844 C21.204586,80.1464844 20.5881371,79.9340842 20.1169434,79.5092773 C19.6457496,79.0844705 19.4101562,78.5473665 19.4101562,77.8979492 C19.4101562,77.126461 19.731198,76.5161155 20.373291,76.0668945 C21.0153841,75.6176735 21.9101505,75.3930664 23.0576172,75.3930664 L24.6469727,75.3930664 L24.6469727,74.4921875 C24.6469727,73.9257784 24.4724139,73.4802262 24.123291,73.1555176 C23.7741682,72.8308089 23.2651401,72.668457 22.5961914,72.668457 C21.9858368,72.668457 21.4804708,72.8247055 21.0800781,73.137207 C20.6796855,73.4497086 20.4794922,73.8256814 20.4794922,74.2651367 L19.6005859,74.2578125 C19.6005859,73.6279265 19.8935518,73.0822777 20.4794922,72.6208496 C21.0654326,72.1594215 21.7856403,71.9287109 22.6401367,71.9287109 C23.5239302,71.9287109 24.2209447,72.149656 24.7312012,72.5915527 C25.2414576,73.0334495 25.5039062,73.6498984 25.5185547,74.440918 L25.5185547,78.190918 C25.5185547,78.9575234 25.5991203,79.5312481 25.7602539,79.9121094 L25.7602539,80 L24.8227539,80 Z M22.0688477,79.3701172 C22.6547881,79.3701172 23.1784645,79.228517 23.6398926,78.9453125 C24.1013207,78.662108 24.4370107,78.2836938 24.6469727,77.8100586 L24.6469727,76.0668945 L23.0795898,76.0668945 C22.205562,76.0766602 21.5219751,76.2365707 21.0288086,76.5466309 C20.5356421,76.856691 20.2890625,77.2827121 20.2890625,77.824707 C20.2890625,78.2690452 20.4538558,78.6376938 20.7834473,78.9306641 C21.1130388,79.2236343 21.5415013,79.3701172 22.0688477,79.3701172 Z M30.7265625,73.4155273 C31.0146499,72.9418922 31.3832985,72.5756849 31.8325195,72.3168945 C32.2817405,72.0581042 32.7724583,71.9287109 33.3046875,71.9287109 C34.1543011,71.9287109 34.786619,72.1679664 35.2016602,72.6464844 C35.6167013,73.1250024 35.8266601,73.8427687 35.831543,74.7998047 L35.831543,80 L34.9599609,80 L34.9599609,74.7924805 C34.9550781,74.0844691 34.8049331,73.5571306 34.5095215,73.2104492 C34.2141099,72.8637678 33.7417025,72.6904297 33.0922852,72.6904297 C32.5502903,72.6904297 32.0705587,72.8601057 31.6530762,73.1994629 C31.2355936,73.5388201 30.9267588,73.9965792 30.7265625,74.5727539 L30.7265625,80 L29.8549805,80 L29.8549805,68.75 L30.7265625,68.75 L30.7265625,73.4155273 Z M40.0068359,79.4726562 C40.0068359,79.301757 40.061767,79.1564947 40.1716309,79.0368652 C40.2814947,78.9172357 40.4340811,78.8574219 40.6293945,78.8574219 C40.824708,78.8574219 40.9785151,78.9172357 41.0908203,79.0368652 C41.2031256,79.1564947 41.2592773,79.301757 41.2592773,79.4726562 C41.2592773,79.6435555 41.2031256,79.783935 41.0908203,79.8937988 C40.9785151,80.0036627 40.824708,80.0585938 40.6293945,80.0585938 C40.4340811,80.0585938 40.2814947,80.0036627 40.1716309,79.8937988 C40.061767,79.783935 40.0068359,79.6435555 40.0068359,79.4726562 Z M57.5566406,77.3779297 C57.5566406,76.7871064 57.3491232,76.3195818 56.934082,75.9753418 C56.5190409,75.6311018 55.7597711,75.3039566 54.65625,74.9938965 C53.5527289,74.6838363 52.7470729,74.345705 52.2392578,73.9794922 C51.5165979,73.4619115 51.1552734,72.7832073 51.1552734,71.9433594 C51.1552734,71.1279256 51.4909634,70.4650904 52.1623535,69.954834 C52.8337436,69.4445775 53.6918893,69.1894531 54.7368164,69.1894531 C55.4448278,69.1894531 56.0783663,69.3261705 56.6374512,69.5996094 C57.196536,69.8730482 57.6298813,70.2539038 57.9375,70.7421875 C58.2451187,71.2304712 58.3989258,71.7748993 58.3989258,72.3754883 L57.4907227,72.3754883 C57.4907227,71.6479456 57.2417017,71.0632346 56.7436523,70.6213379 C56.245603,70.1794411 55.5766644,69.9584961 54.7368164,69.9584961 C53.9213826,69.9584961 53.2719751,70.140379 52.7885742,70.5041504 C52.3051734,70.8679217 52.0634766,71.3427705 52.0634766,71.9287109 C52.0634766,72.4707058 52.2807595,72.9125959 52.715332,73.2543945 C53.1499045,73.5961931 53.8456983,73.8977038 54.8027344,74.1589355 C55.7597704,74.4201673 56.4848608,74.6911607 56.9780273,74.9719238 C57.4711939,75.252687 57.8422839,75.588377 58.0913086,75.9790039 C58.3403333,76.3696309 58.4648438,76.831052 58.4648438,77.3632812 C58.4648438,78.2031292 58.1291537,78.8769506 57.4577637,79.3847656 C56.7863736,79.8925807 55.9013727,80.1464844 54.8027344,80.1464844 C54.0507775,80.1464844 53.3610871,80.0122084 52.7336426,79.7436523 C52.106198,79.4750963 51.6301286,79.0991235 51.3054199,78.6157227 C50.9807113,78.1323218 50.8183594,77.5781281 50.8183594,76.953125 L51.7192383,76.953125 C51.7192383,77.7050819 51.9999972,78.2983377 52.5615234,78.7329102 C53.1230497,79.1674826 53.8701125,79.3847656 54.8027344,79.3847656 C55.6328167,79.3847656 56.2993139,79.201662 56.8022461,78.8354492 C57.3051783,78.4692365 57.5566406,77.9834015 57.5566406,77.3779297 Z M61.7172852,75.9204102 C61.7172852,75.1586876 61.8649888,74.4726593 62.1604004,73.8623047 C62.455812,73.2519501 62.8732883,72.7771013 63.4128418,72.4377441 C63.9523953,72.098387 64.5639614,71.9287109 65.2475586,71.9287109 C66.3022514,71.9287109 67.156735,72.2985803 67.8110352,73.0383301 C68.4653353,73.7780799 68.7924805,74.7582947 68.7924805,75.9790039 L68.7924805,76.1621094 C68.7924805,76.9287148 68.6447769,77.6184051 68.3493652,78.2312012 C68.0539536,78.8439972 67.637698,79.3164046 67.1005859,79.6484375 C66.5634739,79.9804704 65.950687,80.1464844 65.262207,80.1464844 C64.2123971,80.1464844 63.3591341,79.776615 62.7023926,79.0368652 C62.045651,78.2971154 61.7172852,77.3169006 61.7172852,76.0961914 L61.7172852,75.9204102 Z M62.5961914,76.1621094 C62.5961914,77.1093797 62.8415503,77.8869599 63.3322754,78.494873 C63.8230005,79.1027862 64.4663046,79.4067383 65.262207,79.4067383 C66.0532266,79.4067383 66.6940893,79.1027862 67.1848145,78.494873 C67.6755396,77.8869599 67.9208984,77.0849659 67.9208984,76.0888672 L67.9208984,75.9204102 C67.9208984,75.3149384 67.8085949,74.7607447 67.5839844,74.2578125 C67.3593739,73.7548803 67.0444356,73.3654799 66.6391602,73.0895996 C66.2338847,72.8137193 65.7700221,72.6757812 65.2475586,72.6757812 C64.4663047,72.6757812 63.829104,72.9821747 63.3359375,73.5949707 C62.842771,74.2077667 62.5961914,75.0097607 62.5961914,76.0009766 L62.5961914,76.1621094 Z M79.0473633,72.0751953 L79.0766602,73.3642578 C79.3696304,72.8857398 79.7358376,72.5268567 80.175293,72.2875977 C80.6147483,72.0483386 81.1030247,71.9287109 81.6401367,71.9287109 C82.890143,71.9287109 83.6835921,72.4414011 84.0205078,73.4667969 C84.3037124,72.9736303 84.6821265,72.5939955 85.1557617,72.3278809 C85.6293969,72.0617662 86.1518526,71.9287109 86.7231445,71.9287109 C88.4223718,71.9287109 89.2890623,72.856436 89.3232422,74.7119141 L89.3232422,80 L88.4443359,80 L88.4443359,74.777832 C88.4394531,74.0698207 88.2868667,73.5449236 87.9865723,73.203125 C87.6862778,72.8613264 87.1967807,72.6904297 86.5180664,72.6904297 C85.8881804,72.7001954 85.3559592,72.9040507 84.9213867,73.302002 C84.4868142,73.6999532 84.2451174,74.1845675 84.1962891,74.7558594 L84.1962891,80 L83.3173828,80 L83.3173828,74.7119141 C83.3125,74.0331997 83.1525895,73.526613 82.8376465,73.1921387 C82.5227035,72.8576643 82.0380892,72.6904297 81.3837891,72.6904297 C80.8320285,72.6904297 80.3584004,72.8478988 79.9628906,73.1628418 C79.5673808,73.4777848 79.274415,73.9453094 79.0839844,74.5654297 L79.0839844,80 L78.2050781,80 L78.2050781,72.0751953 L79.0473633,72.0751953 Z M98.6401367,78.996582 C98.1127903,79.7631874 97.2705136,80.1464844 96.1132813,80.1464844 C95.2685505,80.1464844 94.626467,79.9011255 94.1870117,79.4104004 C93.7475564,78.9196753 93.5229493,78.1933642 93.5131836,77.2314453 L93.5131836,72.0751953 L94.3847656,72.0751953 L94.3847656,77.121582 C94.3847656,78.6303786 94.9951111,79.3847656 96.2158203,79.3847656 C97.4853579,79.3847656 98.2885725,78.8598685 98.6254883,77.8100586 L98.6254883,72.0751953 L99.5043945,72.0751953 L99.5043945,80 L98.6547852,80 L98.6401367,78.996582 Z M106.711914,79.4067383 C107.322269,79.4067383 107.833738,79.2346209 108.246338,78.8903809 C108.658938,78.5461409 108.882324,78.1005887 108.916504,77.5537109 L109.758789,77.5537109 C109.734375,78.0371118 109.583009,78.4777812 109.304688,78.8757324 C109.026366,79.2736836 108.656496,79.5849598 108.195068,79.8095703 C107.73364,80.0341808 107.23926,80.1464844 106.711914,80.1464844 C105.67187,80.1464844 104.847903,79.7851599 104.23999,79.0625 C103.632077,78.3398401 103.328125,77.3681702 103.328125,76.1474609 L103.328125,75.8837891 C103.328125,75.1025352 103.464842,74.4116241 103.738281,73.8110352 C104.01172,73.2104462 104.403562,72.7465837 104.913818,72.4194336 C105.424075,72.0922835 106.020993,71.9287109 106.70459,71.9287109 C107.573735,71.9287109 108.29028,72.1874974 108.854248,72.7050781 C109.418216,73.2226588 109.719726,73.9038044 109.758789,74.7485352 L108.916504,74.7485352 C108.877441,74.1284149 108.654055,73.6279316 108.246338,73.2470703 C107.838621,72.866209 107.32471,72.6757812 106.70459,72.6757812 C105.91357,72.6757812 105.299563,72.9614229 104.862549,73.5327148 C104.425535,74.1040068 104.207031,74.90478 104.207031,75.9350586 L104.207031,76.1914062 C104.207031,77.2021535 104.425535,77.9907198 104.862549,78.5571289 C105.299563,79.123538 105.916012,79.4067383 106.711914,79.4067383 Z M114.380859,73.4155273 C114.668947,72.9418922 115.037595,72.5756849 115.486816,72.3168945 C115.936037,72.0581042 116.426755,71.9287109 116.958984,71.9287109 C117.808598,71.9287109 118.440916,72.1679664 118.855957,72.6464844 C119.270998,73.1250024 119.480957,73.8427687 119.48584,74.7998047 L119.48584,80 L118.614258,80 L118.614258,74.7924805 C118.609375,74.0844691 118.45923,73.5571306 118.163818,73.2104492 C117.868407,72.8637678 117.395999,72.6904297 116.746582,72.6904297 C116.204587,72.6904297 115.724856,72.8601057 115.307373,73.1994629 C114.88989,73.5388201 114.581056,73.9965792 114.380859,74.5727539 L114.380859,80 L113.509277,80 L113.509277,68.75 L114.380859,68.75 L114.380859,73.4155273 Z M130.751465,70.0463867 L130.751465,72.0751953 L132.39209,72.0751953 L132.39209,72.7929688 L130.751465,72.7929688 L130.751465,78.0737305 C130.751465,78.5131858 130.83081,78.840331 130.989502,79.0551758 C131.148194,79.2700206 131.413084,79.3774414 131.78418,79.3774414 C131.930665,79.3774414 132.167479,79.3530276 132.494629,79.3041992 L132.53125,80.0219727 C132.301757,80.1049809 131.98926,80.1464844 131.59375,80.1464844 C130.993161,80.1464844 130.556154,79.9719256 130.282715,79.6228027 C130.009276,79.2736799 129.872559,78.759769 129.872559,78.0810547 L129.872559,72.7929688 L128.415039,72.7929688 L128.415039,72.0751953 L129.872559,72.0751953 L129.872559,70.0463867 L130.751465,70.0463867 Z M135.578613,75.9204102 C135.578613,75.1586876 135.726317,74.4726593 136.021729,73.8623047 C136.31714,73.2519501 136.734616,72.7771013 137.27417,72.4377441 C137.813723,72.098387 138.42529,71.9287109 139.108887,71.9287109 C140.163579,71.9287109 141.018063,72.2985803 141.672363,73.0383301 C142.326663,73.7780799 142.653809,74.7582947 142.653809,75.9790039 L142.653809,76.1621094 C142.653809,76.9287148 142.506105,77.6184051 142.210693,78.2312012 C141.915282,78.8439972 141.499026,79.3164046 140.961914,79.6484375 C140.424802,79.9804704 139.812015,80.1464844 139.123535,80.1464844 C138.073725,80.1464844 137.220462,79.776615 136.563721,79.0368652 C135.906979,78.2971154 135.578613,77.3169006 135.578613,76.0961914 L135.578613,75.9204102 Z M136.45752,76.1621094 C136.45752,77.1093797 136.702878,77.8869599 137.193604,78.494873 C137.684329,79.1027862 138.327633,79.4067383 139.123535,79.4067383 C139.914555,79.4067383 140.555417,79.1027862 141.046143,78.494873 C141.536868,77.8869599 141.782227,77.0849659 141.782227,76.0888672 L141.782227,75.9204102 C141.782227,75.3149384 141.669923,74.7607447 141.445312,74.2578125 C141.220702,73.7548803 140.905764,73.3654799 140.500488,73.0895996 C140.095213,72.8137193 139.63135,72.6757812 139.108887,72.6757812 C138.327633,72.6757812 137.690432,72.9821747 137.197266,73.5949707 C136.704099,74.2077667 136.45752,75.0097607 136.45752,76.0009766 L136.45752,76.1621094 Z M155.179199,80.1464844 C154.505368,80.1464844 153.896243,79.9804704 153.351807,79.6484375 C152.80737,79.3164046 152.383791,78.8537627 152.081055,78.260498 C151.778319,77.6672334 151.626953,77.0019568 151.626953,76.2646484 L151.626953,75.949707 C151.626953,75.1879845 151.774657,74.5019562 152.070068,73.8916016 C152.36548,73.2812469 152.776853,72.8015154 153.304199,72.4523926 C153.831546,72.1032697 154.402829,71.9287109 155.018066,71.9287109 C155.979985,71.9287109 156.742917,72.2570768 157.306885,72.9138184 C157.870852,73.5705599 158.152832,74.4677677 158.152832,75.6054688 L158.152832,76.0961914 L152.498535,76.0961914 L152.498535,76.2646484 C152.498535,77.1630904 152.756101,77.911374 153.27124,78.5095215 C153.78638,79.107669 154.434566,79.4067383 155.21582,79.4067383 C155.684573,79.4067383 156.098387,79.3212899 156.457275,79.1503906 C156.816164,78.9794913 157.142088,78.7060566 157.435059,78.3300781 L157.984375,78.7475586 C157.339841,79.6801804 156.404791,80.1464844 155.179199,80.1464844 Z M155.018066,72.6757812 C154.358883,72.6757812 153.803469,72.9174781 153.351807,73.4008789 C152.900144,73.8842798 152.625489,74.5336873 152.527832,75.3491211 L157.28125,75.3491211 L157.28125,75.2539062 C157.256836,74.4921837 157.039553,73.8720727 156.629395,73.3935547 C156.219236,72.9150367 155.682132,72.6757812 155.018066,72.6757812 Z M164.349609,75.2905273 L166.488281,72.0751953 L167.52832,72.0751953 L164.840332,75.9643555 L167.645508,80 L166.612793,80 L164.356934,76.6455078 L162.101074,80 L161.068359,80 L163.866211,75.9643555 L161.178223,72.0751953 L162.210938,72.0751953 L164.349609,75.2905273 Z M177.526367,76.1181641 C177.526367,77.3535218 177.252932,78.3337366 176.706055,79.0588379 C176.159177,79.7839392 175.426762,80.1464844 174.508789,80.1464844 C173.424799,80.1464844 172.594729,79.7656288 172.018555,79.0039062 L172.018555,83.046875 L171.146973,83.046875 L171.146973,72.0751953 L171.959961,72.0751953 L172.003906,73.1958008 C172.575198,72.35107 173.402827,71.9287109 174.486816,71.9287109 C175.434087,71.9287109 176.177488,72.2875941 176.717041,73.0053711 C177.256594,73.7231481 177.526367,74.7192319 177.526367,75.9936523 L177.526367,76.1181641 Z M176.647461,75.9643555 C176.647461,74.9536082 176.439943,74.1552764 176.024902,73.5693359 C175.609861,72.9833955 175.031254,72.6904297 174.289062,72.6904297 C173.75195,72.6904297 173.290529,72.8198229 172.904785,73.0786133 C172.519041,73.3374036 172.223634,73.7133764 172.018555,74.206543 L172.018555,78.0078125 C172.228517,78.4619163 172.528807,78.8085926 172.919434,79.0478516 C173.310061,79.2871106 173.771482,79.4067383 174.303711,79.4067383 C175.041019,79.4067383 175.615965,79.1125518 176.028564,78.5241699 C176.441164,77.9357881 176.647461,77.0825251 176.647461,75.9643555 Z M182.44873,80 L181.569824,80 L181.569824,68.75 L182.44873,68.75 L182.44873,80 Z M186.345703,75.9204102 C186.345703,75.1586876 186.493407,74.4726593 186.788818,73.8623047 C187.08423,73.2519501 187.501706,72.7771013 188.04126,72.4377441 C188.580813,72.098387 189.192379,71.9287109 189.875977,71.9287109 C190.930669,71.9287109 191.785153,72.2985803 192.439453,73.0383301 C193.093753,73.7780799 193.420898,74.7582947 193.420898,75.9790039 L193.420898,76.1621094 C193.420898,76.9287148 193.273195,77.6184051 192.977783,78.2312012 C192.682372,78.8439972 192.266116,79.3164046 191.729004,79.6484375 C191.191892,79.9804704 190.579105,80.1464844 189.890625,80.1464844 C188.840815,80.1464844 187.987552,79.776615 187.330811,79.0368652 C186.674069,78.2971154 186.345703,77.3169006 186.345703,76.0961914 L186.345703,75.9204102 Z M187.224609,76.1621094 C187.224609,77.1093797 187.469968,77.8869599 187.960693,78.494873 C188.451418,79.1027862 189.094723,79.4067383 189.890625,79.4067383 C190.681645,79.4067383 191.322507,79.1027862 191.813232,78.494873 C192.303958,77.8869599 192.549316,77.0849659 192.549316,76.0888672 L192.549316,75.9204102 C192.549316,75.3149384 192.437013,74.7607447 192.212402,74.2578125 C191.987792,73.7548803 191.672854,73.3654799 191.267578,73.0895996 C190.862303,72.8137193 190.39844,72.6757812 189.875977,72.6757812 C189.094723,72.6757812 188.457522,72.9821747 187.964355,73.5949707 C187.471189,74.2077667 187.224609,75.0097607 187.224609,76.0009766 L187.224609,76.1621094 Z M200.89209,72.8222656 C200.706542,72.7880858 200.50879,72.7709961 200.298828,72.7709961 C199.75195,72.7709961 199.289309,72.9235825 198.910889,73.2287598 C198.532469,73.5339371 198.262696,73.9770479 198.101562,74.5581055 L198.101562,80 L197.22998,80 L197.22998,72.0751953 L198.086914,72.0751953 L198.101562,73.3349609 C198.565432,72.3974563 199.310053,71.9287109 200.335449,71.9287109 C200.579591,71.9287109 200.77246,71.9604489 200.914062,72.0239258 L200.89209,72.8222656 Z M207.206055,80.1464844 C206.532223,80.1464844 205.923098,79.9804704 205.378662,79.6484375 C204.834226,79.3164046 204.410646,78.8537627 204.10791,78.260498 C203.805174,77.6672334 203.653809,77.0019568 203.653809,76.2646484 L203.653809,75.949707 C203.653809,75.1879845 203.801512,74.5019562 204.096924,73.8916016 C204.392335,73.2812469 204.803708,72.8015154 205.331055,72.4523926 C205.858401,72.1032697 206.429684,71.9287109 207.044922,71.9287109 C208.006841,71.9287109 208.769773,72.2570768 209.33374,72.9138184 C209.897708,73.5705599 210.179688,74.4677677 210.179688,75.6054688 L210.179688,76.0961914 L204.525391,76.0961914 L204.525391,76.2646484 C204.525391,77.1630904 204.782956,77.911374 205.298096,78.5095215 C205.813235,79.107669 206.461422,79.4067383 207.242676,79.4067383 C207.711428,79.4067383 208.125242,79.3212899 208.484131,79.1503906 C208.843019,78.9794913 209.168944,78.7060566 209.461914,78.3300781 L210.01123,78.7475586 C209.366696,79.6801804 208.431647,80.1464844 207.206055,80.1464844 Z M207.044922,72.6757812 C206.385739,72.6757812 205.830325,72.9174781 205.378662,73.4008789 C204.927,73.8842798 204.652344,74.5336873 204.554688,75.3491211 L209.308105,75.3491211 L209.308105,75.2539062 C209.283691,74.4921837 209.066408,73.8720727 208.65625,73.3935547 C208.246092,72.9150367 207.708988,72.6757812 207.044922,72.6757812 Z M214.82373,77.0336914 L214.010742,77.0336914 L213.966797,69.3359375 L214.875,69.3359375 L214.82373,77.0336914 Z M213.864258,79.4873047 C213.864258,79.3212882 213.917968,79.1809088 214.025391,79.0661621 C214.132813,78.9514154 214.279296,78.894043 214.464844,78.894043 C214.650392,78.894043 214.798095,78.9514154 214.907959,79.0661621 C215.017823,79.1809088 215.072754,79.3212882 215.072754,79.4873047 C215.072754,79.6484383 215.017823,79.783935 214.907959,79.8937988 C214.798095,80.0036627 214.650392,80.0585938 214.464844,80.0585938 C214.279296,80.0585938 214.132813,80.0036627 214.025391,79.8937988 C213.917968,79.783935 213.864258,79.6484383 213.864258,79.4873047 Z" id="We-have-to-come-back"></path>
            </g>
        </g>
    </g>
</svg>