<?xml version="1.0" encoding="UTF-8"?>
<svg width="208px" height="94px" viewBox="0 0 208 94" version="1.1" xmlns="http://www.w3.org/2000/svg" xmlns:xlink="http://www.w3.org/1999/xlink">
    <!-- Generator: Sketch 41.2 (35397) - http://www.bohemiancoding.com/sketch -->
    <title>Group 4</title>
    <desc>Created with Sketch.</desc>
    <defs></defs>
    <g id="Page-1" stroke="none" stroke-width="1" fill="none" fill-rule="evenodd">
        <g id="Desktop-HD" transform="translate(-1183.000000, -60.000000)" fill="#000000">
            <g id="Group-4" transform="translate(1183.000000, 60.000000)">
                <path d="M2.46777344,7.10351562 L2.46777344,11 L1.15527344,11 L1.15527344,1.046875 L4.82617188,1.046875 C5.91537003,1.046875 6.76871436,1.32486701 7.38623047,1.88085938 C8.00374658,2.43685174 8.3125,3.17284698 8.3125,4.08886719 C8.3125,5.05501785 8.01058245,5.79898828 7.40673828,6.32080078 C6.80289412,6.84261329 5.93815667,7.10351562 4.8125,7.10351562 L2.46777344,7.10351562 Z M2.46777344,6.03027344 L4.82617188,6.03027344 C5.5279983,6.03027344 6.06575334,5.86507327 6.43945312,5.53466797 C6.81315291,5.20426267 7,4.72689114 7,4.10253906 C7,3.51008818 6.81315291,3.03613459 6.43945312,2.68066406 C6.06575334,2.32519354 5.55306315,2.14062507 4.90136719,2.12695312 L2.46777344,2.12695312 L2.46777344,6.03027344 Z M14.9776953,6.97363281 L12.6398047,6.97363281 L12.6398047,11 L11.3204688,11 L11.3204688,1.046875 L14.6153907,1.046875 C15.73649,1.046875 16.5989488,1.30208078 17.202793,1.8125 C17.8066372,2.32291922 18.1085547,3.06575033 18.1085547,4.04101562 C18.1085547,4.66081039 17.9410759,5.20084405 17.6061133,5.66113281 C17.2711507,6.12142157 16.8051723,6.46549365 16.2081641,6.69335938 L18.5460547,10.9179688 L18.5460547,11 L17.1378516,11 L14.9776953,6.97363281 Z M12.6398047,5.90039062 L14.6564063,5.90039062 C15.3081023,5.90039062 15.826489,5.73177252 16.2115821,5.39453125 C16.5966751,5.05728998 16.7892188,4.60612262 16.7892188,4.04101562 C16.7892188,3.42577817 16.6057896,2.9541032 16.2389258,2.62597656 C15.872062,2.29784992 15.3422821,2.13151044 14.6495703,2.12695312 L12.6398047,2.12695312 L12.6398047,5.90039062 Z M26.9133985,6.39941406 L22.5999219,6.39941406 L22.5999219,9.92675781 L27.6106641,9.92675781 L27.6106641,11 L21.2874219,11 L21.2874219,1.046875 L27.5423048,1.046875 L27.5423048,2.12695312 L22.5999219,2.12695312 L22.5999219,5.32617188 L26.9133985,5.32617188 L26.9133985,6.39941406 Z M33.5170704,6.56347656 C32.3914137,6.23990724 31.5722488,5.84228751 31.0595509,5.37060547 C30.546853,4.89892342 30.2905079,4.31673523 30.2905079,3.62402344 C30.2905079,2.84016535 30.6038186,2.19189709 31.2304493,1.67919922 C31.8570801,1.16650134 32.6716878,0.91015625 33.674297,0.91015625 C34.3578941,0.91015625 34.9674258,1.04231639 35.5029103,1.30664062 C36.0383947,1.57096486 36.4531041,1.93554455 36.7470509,2.40039062 C37.0409977,2.8652367 37.1879689,3.37336964 37.1879689,3.92480469 L35.8686329,3.92480469 C35.8686329,3.32323918 35.6772286,2.8504249 35.2944142,2.50634766 C34.9115997,2.16227042 34.3715661,1.99023438 33.674297,1.99023438 C33.0271583,1.99023438 32.5224433,2.13264832 32.1601368,2.41748047 C31.7978303,2.70231262 31.6166798,3.09765372 31.6166798,3.60351562 C31.6166798,4.00911661 31.7887158,4.35204938 32.1327931,4.63232422 C32.4768703,4.91259906 33.0624764,5.16894415 33.889629,5.40136719 C34.7167816,5.63379022 35.3639105,5.89013532 35.8310353,6.17041016 C36.29816,6.450685 36.6445107,6.7776674 36.8700978,7.15136719 C37.0956848,7.52506697 37.2084767,7.96484122 37.2084767,8.47070312 C37.2084767,9.27734778 36.8940267,9.92333742 36.2651173,10.4086914 C35.6362079,10.8940454 34.795396,11.1367188 33.7426564,11.1367188 C33.0590592,11.1367188 32.4210447,11.0056979 31.8285939,10.7436523 C31.236143,10.4816068 30.7792791,10.1227236 30.4579884,9.66699219 C30.1366977,9.21126074 29.9760548,8.69401331 29.9760548,8.11523438 L31.2953907,8.11523438 C31.2953907,8.71679988 31.5175565,9.19189279 31.9618946,9.54052734 C32.4062328,9.8891619 32.9998141,10.0634766 33.7426564,10.0634766 C34.4353681,10.0634766 34.9662873,9.92220193 35.3354298,9.63964844 C35.7045723,9.35709494 35.8891407,8.97200765 35.8891407,8.484375 C35.8891407,7.99674235 35.718244,7.61963024 35.3764454,7.35302734 C35.0346468,7.08642445 34.4148614,6.82324349 33.5170704,6.56347656 L33.5170704,6.56347656 Z M41.6383204,11 L40.3258204,11 L40.3258204,1.046875 L41.6383204,1.046875 L41.6383204,11 Z M45.3777345,11 L45.3777345,1.046875 L48.1873049,1.046875 C49.0531946,1.046875 49.8188119,1.23827934 50.4841799,1.62109375 C51.1495478,2.00390816 51.6633773,2.54849907 52.0256838,3.25488281 C52.3879903,3.96126655 52.5714194,4.77245636 52.5759767,5.68847656 L52.5759767,6.32421875 C52.5759767,7.26302553 52.3948262,8.08560845 52.0325197,8.79199219 C51.6702132,9.49837593 51.1529658,10.0406882 50.4807619,10.4189453 C49.808558,10.7972024 49.025851,10.9908854 48.1326174,11 L45.3777345,11 Z M46.6902345,2.12695312 L46.6902345,9.92675781 L48.0710939,9.92675781 C49.0828177,9.92675781 49.870082,9.61230783 50.4329103,8.98339844 C50.9957387,8.35448904 51.2771486,7.45899019 51.2771486,6.296875 L51.2771486,5.71582031 C51.2771486,4.58560633 51.011689,3.70719714 50.4807619,3.08056641 C49.9498348,2.45393567 49.1967498,2.13606775 48.2214845,2.12695312 L46.6902345,2.12695312 Z M57.3066018,11 L55.9941018,11 L55.9941018,1.046875 L57.3066018,1.046875 L57.3066018,11 Z M68.7022659,6.34472656 C68.7022659,7.31999186 68.538205,8.17105756 68.2100784,8.89794922 C67.8819517,9.62484087 67.4171126,10.1796856 66.8155471,10.5625 C66.2139816,10.9453144 65.5121657,11.1367188 64.7100784,11.1367188 C63.9262203,11.1367188 63.2312402,10.9441751 62.6251174,10.559082 C62.0189946,10.173989 61.5484589,9.62484081 61.2134963,8.91162109 C60.8785337,8.19840138 60.7064977,7.37240053 60.697383,6.43359375 L60.697383,5.71582031 C60.697383,4.75878428 60.8637225,3.91341513 61.1964065,3.1796875 C61.5290904,2.44595987 61.9996261,1.88427929 62.6080276,1.49462891 C63.2164291,1.10497852 63.9125484,0.91015625 64.6964065,0.91015625 C65.4939365,0.91015625 66.1968917,1.1026999 66.8052932,1.48779297 C67.4136947,1.87288604 67.8819517,2.43114869 68.2100784,3.16259766 C68.538205,3.89404663 68.7022659,4.74511233 68.7022659,5.71582031 L68.7022659,6.34472656 Z M67.3966018,5.70214844 C67.3966018,4.52180399 67.159625,3.61605133 66.6856643,2.98486328 C66.2117036,2.35367523 65.5486243,2.03808594 64.6964065,2.03808594 C63.8669753,2.03808594 63.2141498,2.35367523 62.7379104,2.98486328 C62.261671,3.61605133 62.0167191,4.49218189 62.0030471,5.61328125 L62.0030471,6.34472656 C62.0030471,7.48861249 62.2434418,8.38752928 62.7242385,9.04150391 C63.2050352,9.69547853 63.8669752,10.0224609 64.7100784,10.0224609 C65.5577388,10.0224609 66.2139823,9.71370751 66.6788284,9.09619141 C67.1436744,8.4786753 67.3829299,7.59343024 67.3966018,6.44042969 L67.3966018,5.70214844 Z" id="PRESIDIO"></path>
                <polygon id="X" points="202.402344 6.86132812 204.788086 3.046875 206.333008 3.046875 203.188477 7.98242188 206.408203 13 204.849609 13 202.402344 9.1171875 199.941406 13 198.389648 13 201.616211 7.98242188 198.464844 3.046875 200.00293 3.046875"></polygon>
                <path d="M5.68359375,40.609375 L1.81054688,40.609375 L0.931640625,43 L0.17578125,43 L3.40429688,34.46875 L4.08984375,34.46875 L7.31835938,43 L6.56835938,43 L5.68359375,40.609375 Z M2.03320312,39.9941406 L5.45507813,39.9941406 L3.74414063,35.3476562 L2.03320312,39.9941406 Z M10.306875,36.6601562 L10.3303125,37.6914062 C10.5646887,37.3085918 10.8576545,37.0214853 11.2092187,36.8300781 C11.560783,36.6386709 11.9514041,36.5429688 12.3810937,36.5429688 C13.3810987,36.5429688 14.015858,36.9531209 14.2853906,37.7734375 C14.5119542,37.3789043 14.8146856,37.0751964 15.1935937,36.8623047 C15.5725019,36.649413 15.9904665,36.5429688 16.4475,36.5429688 C17.8068818,36.5429688 18.5002342,37.2851488 18.5275781,38.7695312 L18.5275781,43 L17.8244531,43 L17.8244531,38.8222656 C17.8205468,38.2558565 17.6984778,37.8359389 17.4582422,37.5625 C17.2180066,37.2890611 16.826409,37.1523438 16.2834375,37.1523438 C15.7795287,37.1601563 15.3537517,37.3232406 15.0060937,37.6416016 C14.6584358,37.9599625 14.4650783,38.347654 14.4260156,38.8046875 L14.4260156,43 L13.7228906,43 L13.7228906,38.7695312 C13.7189843,38.2265598 13.5910559,37.8212904 13.3391016,37.5537109 C13.0871472,37.2861315 12.6994557,37.1523438 12.1760156,37.1523438 C11.7346072,37.1523438 11.3557047,37.2783191 11.0392969,37.5302734 C10.722889,37.7822278 10.4885164,38.1562475 10.3361719,38.6523438 L10.3361719,43 L9.63304687,43 L9.63304687,36.6601562 L10.306875,36.6601562 Z M21.17625,39.7363281 C21.17625,39.1269501 21.2944129,38.5781274 21.5307422,38.0898438 C21.7670715,37.6015601 22.1010525,37.221681 22.5326953,36.9501953 C22.9643381,36.6787096 23.453591,36.5429688 24.0004687,36.5429688 C24.8442229,36.5429688 25.5278099,36.8388642 26.05125,37.4306641 C26.5746901,38.0224639 26.8364062,38.8066357 26.8364062,39.7832031 L26.8364062,39.9296875 C26.8364062,40.5429718 26.7182434,41.0947241 26.481914,41.5849609 C26.2455847,42.0751978 25.9125803,42.4531237 25.4828906,42.71875 C25.053201,42.9843763 24.5629715,43.1171875 24.0121875,43.1171875 C23.1723395,43.1171875 22.4897292,42.821292 21.9643359,42.2294922 C21.4389427,41.6376924 21.17625,40.8535205 21.17625,39.8769531 L21.17625,39.7363281 Z M21.879375,39.9296875 C21.879375,40.6875038 22.0756621,41.3095679 22.4682422,41.7958984 C22.8608223,42.282229 23.3754655,42.5253906 24.0121875,42.5253906 C24.6450031,42.5253906 25.1576933,42.282229 25.5502734,41.7958984 C25.9428535,41.3095679 26.1391406,40.6679727 26.1391406,39.8710938 L26.1391406,39.7363281 C26.1391406,39.2519507 26.0492978,38.8085958 25.8696094,38.40625 C25.689921,38.0039042 25.4379704,37.6923839 25.11375,37.4716797 C24.7895296,37.2509755 24.4184396,37.140625 24.0004687,37.140625 C23.3754656,37.140625 22.8657051,37.3857397 22.4711719,37.8759766 C22.0766386,38.3662134 21.879375,39.0078085 21.879375,39.8007812 L21.879375,39.9296875 Z M30.2116406,36.6601562 L30.2350781,37.7441406 C30.4733605,37.3535137 30.7702326,37.0556651 31.1257031,36.8505859 C31.4811736,36.6455068 31.8737478,36.5429688 32.3034375,36.5429688 C32.9831284,36.5429688 33.4889827,36.7343731 33.8210156,37.1171875 C34.1530485,37.5000019 34.3210156,38.0742149 34.3249218,38.8398438 L34.3249218,43 L33.6276562,43 L33.6276562,38.8339844 C33.62375,38.2675753 33.503634,37.8457045 33.2673047,37.5683594 C33.0309754,37.2910142 32.6530494,37.1523438 32.1335156,37.1523438 C31.6999197,37.1523438 31.3161345,37.2880846 30.9821484,37.5595703 C30.6481624,37.831056 30.4010945,38.1972633 30.2409375,38.6582031 L30.2409375,43 L29.5436718,43 L29.5436718,36.6601562 L30.2116406,36.6601562 Z M37.1142187,39.7714844 C37.1142187,38.7792919 37.3339431,37.993167 37.7733984,37.4130859 C38.2128537,36.8330049 38.8095274,36.5429688 39.5634375,36.5429688 C40.426723,36.5429688 41.0829665,36.8867153 41.5321875,37.5742188 L41.5673437,36.6601562 L42.2235937,36.6601562 L42.2235937,42.8710938 C42.2235937,43.6875041 41.9950804,44.333982 41.5380468,44.8105469 C41.0810133,45.2871118 40.4618789,45.5253906 39.680625,45.5253906 C39.2392165,45.5253906 38.8183223,45.4267588 38.4179296,45.2294922 C38.017537,45.0322256 37.7021105,44.7695329 37.4716406,44.4414062 L37.8642187,44.0195312 C38.3603149,44.6289093 38.9501528,44.9335938 39.63375,44.9335938 C40.2196904,44.9335938 40.6767171,44.7607439 41.0048437,44.4150391 C41.3329704,44.0693342 41.5028905,43.5898468 41.5146093,42.9765625 L41.5146093,42.1796875 C41.0653883,42.8046906 40.411098,43.1171875 39.5517187,43.1171875 C38.81734,43.1171875 38.2275022,42.8242217 37.7821875,42.2382812 C37.3368727,41.6523408 37.1142187,40.8613331 37.1142187,39.8652344 L37.1142187,39.7714844 Z M37.8232031,39.8945312 C37.8232031,40.703129 37.9853108,41.340818 38.3095312,41.8076172 C38.6337516,42.2744164 39.0907783,42.5078125 39.680625,42.5078125 C40.5439105,42.5078125 41.1552325,42.1210976 41.5146093,41.3476562 L41.5146093,38.4003906 C41.350546,37.9941386 41.1142203,37.6845714 40.805625,37.4716797 C40.4970297,37.258788 40.1259396,37.1523438 39.6923437,37.1523438 C39.102497,37.1523438 38.6435172,37.3837867 38.3153906,37.8466797 C37.9872639,38.3095726 37.8232031,38.992183 37.8232031,39.8945312 L37.8232031,39.8945312 Z M57.7072266,39.8945312 C57.7072266,40.8828174 57.4884788,41.6669893 57.0509766,42.2470703 C56.6134744,42.8271513 56.0255896,43.1171875 55.2873047,43.1171875 C54.4044878,43.1171875 53.7365257,42.7890658 53.2833984,42.1328125 L53.2541016,43 L52.5978516,43 L52.5978516,34 L53.2951172,34 L53.2951172,37.5800781 C53.7404319,36.8886684 54.4005816,36.5429688 55.2755859,36.5429688 C56.0255897,36.5429688 56.6183572,36.8290987 57.0539063,37.4013672 C57.4894553,37.9736357 57.7072266,38.7695262 57.7072266,39.7890625 L57.7072266,39.8945312 Z M57.0041016,39.7714844 C57.0041016,38.9355427 56.8419938,38.2900413 56.5177734,37.8349609 C56.1935531,37.3798805 55.7365264,37.1523438 55.1466797,37.1523438 C54.6974587,37.1523438 54.3166031,37.2626942 54.0041016,37.4833984 C53.6916,37.7041027 53.4552743,38.0273416 53.2951172,38.453125 L53.2951172,41.3125 C53.6466815,42.109379 54.267769,42.5078125 55.1583984,42.5078125 C55.7365263,42.5078125 56.1886703,42.2792992 56.5148438,41.8222656 C56.8410173,41.3652321 57.0041016,40.6816452 57.0041016,39.7714844 L57.0041016,39.7714844 Z M62.9691797,43.1171875 C62.4301145,43.1171875 61.9428147,42.9843763 61.5072656,42.71875 C61.0717166,42.4531237 60.7328528,42.0830102 60.4906641,41.6083984 C60.2484754,41.1337867 60.1273828,40.6015654 60.1273828,40.0117188 L60.1273828,39.7597656 C60.1273828,39.1503876 60.2455457,38.6015649 60.481875,38.1132812 C60.7182043,37.6249976 61.0473026,37.2412123 61.4691797,36.9619141 C61.8910568,36.6826158 62.3480835,36.5429688 62.8402734,36.5429688 C63.6098085,36.5429688 64.220154,36.8056614 64.6713281,37.3310547 C65.1225023,37.8564479 65.3480859,38.5742142 65.3480859,39.484375 L65.3480859,39.8769531 L60.8246484,39.8769531 L60.8246484,40.0117188 C60.8246484,40.7304723 61.0307011,41.3290992 61.4428125,41.8076172 C61.8549239,42.2861352 62.3734734,42.5253906 62.9984766,42.5253906 C63.3734784,42.5253906 63.7045298,42.4570319 63.9916406,42.3203125 C64.2787514,42.1835931 64.539491,41.9648453 64.7738672,41.6640625 L65.2133203,41.9980469 C64.6976927,42.7441444 63.9496533,43.1171875 62.9691797,43.1171875 L62.9691797,43.1171875 Z M62.8402734,37.140625 C62.3129271,37.140625 61.8685956,37.3339824 61.5072656,37.7207031 C61.1459357,38.1074238 60.9262113,38.6269499 60.8480859,39.2792969 L64.6508203,39.2792969 L64.6508203,39.203125 C64.631289,38.593747 64.4574626,38.0976582 64.1293359,37.7148438 C63.8012093,37.3320293 63.3715261,37.140625 62.8402734,37.140625 L62.8402734,37.140625 Z M71.9752734,43 C71.9049606,42.8007803 71.8600392,42.5058613 71.8405078,42.1152344 C71.5944128,42.4355485 71.2809394,42.6826163 70.9000781,42.8564453 C70.5192168,43.0302743 70.1159006,43.1171875 69.6901172,43.1171875 C69.0807391,43.1171875 68.58758,42.9472673 68.210625,42.6074219 C67.83367,42.2675764 67.6451953,41.8378932 67.6451953,41.3183594 C67.6451953,40.7011688 67.9020287,40.2128924 68.4157031,39.8535156 C68.9293776,39.4941388 69.6451907,39.3144531 70.5631641,39.3144531 L71.8346484,39.3144531 L71.8346484,38.59375 C71.8346484,38.1406227 71.6950014,37.784181 71.4157031,37.5244141 C71.1364048,37.2646471 70.7291824,37.1347656 70.1940234,37.1347656 C69.7057397,37.1347656 69.3014469,37.2597644 68.9811328,37.5097656 C68.6608187,37.7597669 68.5006641,38.0605451 68.5006641,38.4121094 L67.7975391,38.40625 C67.7975391,37.9023412 68.0319117,37.4658222 68.5006641,37.0966797 C68.9694164,36.7275372 69.5455825,36.5429688 70.2291797,36.5429688 C70.9362145,36.5429688 71.4938261,36.7197248 71.9020312,37.0732422 C72.3102364,37.4267596 72.5201952,37.9199187 72.5319141,38.5527344 L72.5319141,41.5527344 C72.5319141,42.1660187 72.5963665,42.6249985 72.7252734,42.9296875 L72.7252734,43 L71.9752734,43 Z M69.7721484,42.4960938 C70.2409008,42.4960938 70.6598419,42.3828136 71.0289844,42.15625 C71.3981268,41.9296864 71.6666788,41.626955 71.8346484,41.2480469 L71.8346484,39.8535156 L70.5807422,39.8535156 C69.8815199,39.8613282 69.3346504,39.9892566 68.9401172,40.2373047 C68.545584,40.4853528 68.3483203,40.8261697 68.3483203,41.2597656 C68.3483203,41.6152362 68.4801549,41.9101551 68.7438281,42.1445312 C69.0075013,42.3789074 69.3502713,42.4960938 69.7721484,42.4960938 L69.7721484,42.4960938 Z M79.7391797,42.1972656 C79.3173026,42.8105499 78.6434812,43.1171875 77.7176953,43.1171875 C77.0419107,43.1171875 76.5282439,42.9209004 76.1766797,42.5283203 C75.8251154,42.1357402 75.6454297,41.5546913 75.6376172,40.7851562 L75.6376172,36.6601562 L76.3348828,36.6601562 L76.3348828,40.6972656 C76.3348828,41.9043029 76.8231592,42.5078125 77.7997265,42.5078125 C78.8153566,42.5078125 79.4579283,42.0878948 79.7274609,41.2480469 L79.7274609,36.6601562 L80.4305859,36.6601562 L80.4305859,43 L79.7508984,43 L79.7391797,42.1972656 Z M84.6026953,35.0371094 L84.6026953,36.6601562 L85.9151953,36.6601562 L85.9151953,37.234375 L84.6026953,37.234375 L84.6026953,41.4589844 C84.6026953,41.8105486 84.6661712,42.0722648 84.793125,42.2441406 C84.9200787,42.4160165 85.1319907,42.5019531 85.4288672,42.5019531 C85.5460552,42.5019531 85.7355065,42.4824221 85.9972265,42.4433594 L86.0265234,43.0175781 C85.8429287,43.0839847 85.5929312,43.1171875 85.2765234,43.1171875 C84.7960523,43.1171875 84.4464464,42.9775405 84.2276953,42.6982422 C84.0089442,42.4189439 83.8995703,42.0078152 83.8995703,41.4648438 L83.8995703,37.234375 L82.7335547,37.234375 L82.7335547,36.6601562 L83.8995703,36.6601562 L83.8995703,35.0371094 L84.6026953,35.0371094 Z M89.4134765,43 L88.7103515,43 L88.7103515,36.6601562 L89.4134765,36.6601562 L89.4134765,43 Z M88.5873047,34.8261719 C88.5873047,34.6933587 88.630273,34.5810551 88.7162109,34.4892578 C88.8021488,34.3974605 88.9193352,34.3515625 89.0677734,34.3515625 C89.2162116,34.3515625 89.3343745,34.3974605 89.4222656,34.4892578 C89.5101567,34.5810551 89.5541015,34.6933587 89.5541015,34.8261719 C89.5541015,34.958985 89.5101567,35.0703121 89.4222656,35.1601562 C89.3343745,35.2500004 89.2162116,35.2949219 89.0677734,35.2949219 C88.9193352,35.2949219 88.8021488,35.2500004 88.7162109,35.1601562 C88.630273,35.0703121 88.5873047,34.958985 88.5873047,34.8261719 L88.5873047,34.8261719 Z M93.0816796,43 L93.0816796,37.234375 L92.0328515,37.234375 L92.0328515,36.6601562 L93.0816796,36.6601562 L93.0816796,35.8925781 C93.0816796,35.2441374 93.2467171,34.7460955 93.5767968,34.3984375 C93.9068766,34.0507795 94.3668329,33.8769531 94.9566796,33.8769531 C95.222306,33.8769531 95.4703504,33.9101559 95.7008203,33.9765625 L95.6480859,34.5625 C95.4527724,34.5156248 95.2398839,34.4921875 95.009414,34.4921875 C94.6226933,34.4921875 94.3219151,34.6123035 94.1070703,34.8525391 C93.8922254,35.0927746 93.7848046,35.4335915 93.7848046,35.875 L93.7848046,36.6601562 L95.2965234,36.6601562 L95.2965234,37.234375 L93.7848046,37.234375 L93.7848046,43 L93.0816796,43 Z M101.888555,42.1972656 C101.466678,42.8105499 100.792856,43.1171875 99.8670703,43.1171875 C99.1912856,43.1171875 98.6776189,42.9209004 98.3260546,42.5283203 C97.9744904,42.1357402 97.7948047,41.5546913 97.7869921,40.7851562 L97.7869921,36.6601562 L98.4842578,36.6601562 L98.4842578,40.6972656 C98.4842578,41.9043029 98.9725341,42.5078125 99.9491015,42.5078125 C100.964732,42.5078125 101.607303,42.0878948 101.876836,41.2480469 L101.876836,36.6601562 L102.579961,36.6601562 L102.579961,43 L101.900273,43 L101.888555,42.1972656 Z M106.447383,43 L105.744258,43 L105.744258,34 L106.447383,34 L106.447383,43 Z M117.993516,35.0371094 L117.993516,36.6601562 L119.306016,36.6601562 L119.306016,37.234375 L117.993516,37.234375 L117.993516,41.4589844 C117.993516,41.8105486 118.056992,42.0722648 118.183945,42.2441406 C118.310899,42.4160165 118.522811,42.5019531 118.819687,42.5019531 C118.936876,42.5019531 119.126327,42.4824221 119.388047,42.4433594 L119.417344,43.0175781 C119.233749,43.0839847 118.983752,43.1171875 118.667344,43.1171875 C118.186873,43.1171875 117.837267,42.9775405 117.618516,42.6982422 C117.399765,42.4189439 117.290391,42.0078152 117.290391,41.4648438 L117.290391,37.234375 L116.124375,37.234375 L116.124375,36.6601562 L117.290391,36.6601562 L117.290391,35.0371094 L117.993516,35.0371094 Z M124.948828,37.2578125 C124.80039,37.2304686 124.642188,37.2167969 124.474219,37.2167969 C124.036717,37.2167969 123.666603,37.338866 123.363867,37.5830078 C123.061131,37.8271497 122.845313,38.1816383 122.716406,38.6464844 L122.716406,43 L122.019141,43 L122.019141,36.6601562 L122.704687,36.6601562 L122.716406,37.6679688 C123.087502,36.917965 123.683199,36.5429688 124.503516,36.5429688 C124.698829,36.5429688 124.853124,36.5683591 124.966406,36.6191406 L124.948828,37.2578125 Z M129.66,43.1171875 C129.120935,43.1171875 128.633635,42.9843763 128.198086,42.71875 C127.762537,42.4531237 127.423673,42.0830102 127.181484,41.6083984 C126.939296,41.1337867 126.818203,40.6015654 126.818203,40.0117188 L126.818203,39.7597656 C126.818203,39.1503876 126.936366,38.6015649 127.172695,38.1132812 C127.409025,37.6249976 127.738123,37.2412123 128.16,36.9619141 C128.581877,36.6826158 129.038904,36.5429688 129.531094,36.5429688 C130.300629,36.5429688 130.910974,36.8056614 131.362148,37.3310547 C131.813323,37.8564479 132.038906,38.5742142 132.038906,39.484375 L132.038906,39.8769531 L127.515469,39.8769531 L127.515469,40.0117188 C127.515469,40.7304723 127.721521,41.3290992 128.133633,41.8076172 C128.545744,42.2861352 129.064294,42.5253906 129.689297,42.5253906 C130.064299,42.5253906 130.39535,42.4570319 130.682461,42.3203125 C130.969572,42.1835931 131.230311,41.9648453 131.464687,41.6640625 L131.904141,41.9980469 C131.388513,42.7441444 130.640474,43.1171875 129.66,43.1171875 L129.66,43.1171875 Z M129.531094,37.140625 C129.003747,37.140625 128.559416,37.3339824 128.198086,37.7207031 C127.836756,38.1074238 127.617032,38.6269499 127.538906,39.2792969 L131.341641,39.2792969 L131.341641,39.203125 C131.322109,38.593747 131.148283,38.0976582 130.820156,37.7148438 C130.49203,37.3320293 130.062346,37.140625 129.531094,37.140625 L129.531094,37.140625 Z M137.119219,43.1171875 C136.580154,43.1171875 136.092854,42.9843763 135.657305,42.71875 C135.221756,42.4531237 134.882892,42.0830102 134.640703,41.6083984 C134.398514,41.1337867 134.277422,40.6015654 134.277422,40.0117188 L134.277422,39.7597656 C134.277422,39.1503876 134.395585,38.6015649 134.631914,38.1132812 C134.868243,37.6249976 135.197342,37.2412123 135.619219,36.9619141 C136.041096,36.6826158 136.498122,36.5429688 136.990312,36.5429688 C137.759848,36.5429688 138.370193,36.8056614 138.821367,37.3310547 C139.272541,37.8564479 139.498125,38.5742142 139.498125,39.484375 L139.498125,39.8769531 L134.974687,39.8769531 L134.974687,40.0117188 C134.974687,40.7304723 135.18074,41.3290992 135.592852,41.8076172 C136.004963,42.2861352 136.523512,42.5253906 137.148516,42.5253906 C137.523517,42.5253906 137.854569,42.4570319 138.14168,42.3203125 C138.42879,42.1835931 138.68953,41.9648453 138.923906,41.6640625 L139.363359,41.9980469 C138.847732,42.7441444 138.099692,43.1171875 137.119219,43.1171875 L137.119219,43.1171875 Z M136.990312,37.140625 C136.462966,37.140625 136.018635,37.3339824 135.657305,37.7207031 C135.295975,38.1074238 135.07625,38.6269499 134.998125,39.2792969 L138.800859,39.2792969 L138.800859,39.203125 C138.781328,38.593747 138.607502,38.0976582 138.279375,37.7148438 C137.951248,37.3320293 137.521565,37.140625 136.990312,37.140625 L136.990312,37.140625 Z M145.920234,41.3886719 C145.920234,41.0410139 145.780587,40.7617198 145.501289,40.5507812 C145.221991,40.3398427 144.801097,40.1748053 144.238594,40.0556641 C143.676091,39.9365228 143.239572,39.7998055 142.929023,39.6455078 C142.618475,39.4912102 142.388009,39.3027355 142.237617,39.0800781 C142.087226,38.8574208 142.012031,38.5878922 142.012031,38.2714844 C142.012031,37.7714819 142.221013,37.3584001 142.638984,37.0322266 C143.056955,36.7060531 143.592106,36.5429688 144.244453,36.5429688 C144.951488,36.5429688 145.518865,36.7177717 145.946602,37.0673828 C146.374338,37.4169939 146.588203,37.8730441 146.588203,38.4355469 L145.885078,38.4355469 C145.885078,38.0644513 145.729806,37.7558606 145.419258,37.5097656 C145.108709,37.2636706 144.717112,37.140625 144.244453,37.140625 C143.783513,37.140625 143.4134,37.243163 143.134102,37.4482422 C142.854803,37.6533213 142.715156,37.9199202 142.715156,38.2480469 C142.715156,38.5644547 142.831366,38.8095694 143.063789,38.9833984 C143.296212,39.1572274 143.720036,39.3164055 144.335273,39.4609375 C144.950511,39.6054695 145.411444,39.7597648 145.718086,39.9238281 C146.024728,40.0878914 146.252265,40.2851551 146.400703,40.515625 C146.549141,40.7460949 146.623359,41.025389 146.623359,41.3535156 C146.623359,41.8886746 146.407541,42.3164046 145.975898,42.6367188 C145.544256,42.9570329 144.980785,43.1171875 144.285469,43.1171875 C143.547184,43.1171875 142.948557,42.9384783 142.48957,42.5810547 C142.030584,42.223631 141.801094,41.7714871 141.801094,41.2246094 L142.504219,41.2246094 C142.531563,41.6347677 142.704412,41.9541004 143.022773,42.1826172 C143.341134,42.411134 143.762029,42.5253906 144.285469,42.5253906 C144.773752,42.5253906 145.16828,42.4179698 145.469062,42.203125 C145.769845,41.9882802 145.920234,41.7167985 145.920234,41.3886719 L145.920234,41.3886719 Z M149.313047,44.59375 L148.897031,44.2890625 C149.252502,43.8124976 149.436094,43.3183619 149.447812,42.8066406 L149.447812,41.8984375 L150.133359,41.8984375 L150.133359,42.6308594 C150.133359,43.4433634 149.859925,44.0976538 149.313047,44.59375 L149.313047,44.59375 Z M161.825977,41.5410156 L161.931445,42.0859375 L162.07207,41.5117188 L163.595508,36.6601562 L164.193164,36.6601562 L165.699023,41.4707031 L165.863086,42.1386719 L165.997852,41.5234375 L167.298633,36.6601562 L168.025195,36.6601562 L166.179492,43 L165.581836,43 L163.95293,37.9726562 L163.876758,37.6269531 L163.800586,37.9785156 L162.200977,43 L161.60332,43 L159.763477,36.6601562 L160.48418,36.6601562 L161.825977,41.5410156 Z M173.070352,43.1171875 C172.531286,43.1171875 172.043987,42.9843763 171.608437,42.71875 C171.172888,42.4531237 170.834025,42.0830102 170.591836,41.6083984 C170.349647,41.1337867 170.228555,40.6015654 170.228555,40.0117188 L170.228555,39.7597656 C170.228555,39.1503876 170.346718,38.6015649 170.583047,38.1132812 C170.819376,37.6249976 171.148474,37.2412123 171.570352,36.9619141 C171.992229,36.6826158 172.449255,36.5429688 172.941445,36.5429688 C173.71098,36.5429688 174.321326,36.8056614 174.7725,37.3310547 C175.223674,37.8564479 175.449258,38.5742142 175.449258,39.484375 L175.449258,39.8769531 L170.92582,39.8769531 L170.92582,40.0117188 C170.92582,40.7304723 171.131873,41.3290992 171.543984,41.8076172 C171.956096,42.2861352 172.474645,42.5253906 173.099648,42.5253906 C173.47465,42.5253906 173.805702,42.4570319 174.092812,42.3203125 C174.379923,42.1835931 174.640663,41.9648453 174.875039,41.6640625 L175.314492,41.9980469 C174.798865,42.7441444 174.050825,43.1171875 173.070352,43.1171875 L173.070352,43.1171875 Z M172.941445,37.140625 C172.414099,37.140625 171.969767,37.3339824 171.608437,37.7207031 C171.247108,38.1074238 171.027383,38.6269499 170.949258,39.2792969 L174.751992,39.2792969 L174.751992,39.203125 C174.732461,38.593747 174.558634,38.0976582 174.230508,37.7148438 C173.902381,37.3320293 173.472698,37.140625 172.941445,37.140625 L172.941445,37.140625 Z M186.005156,36.6601562 L186.028594,37.6914062 C186.26297,37.3085918 186.555936,37.0214853 186.9075,36.8300781 C187.259064,36.6386709 187.649685,36.5429688 188.079375,36.5429688 C189.07938,36.5429688 189.714139,36.9531209 189.983672,37.7734375 C190.210236,37.3789043 190.512967,37.0751964 190.891875,36.8623047 C191.270783,36.649413 191.688748,36.5429688 192.145781,36.5429688 C193.505163,36.5429688 194.198516,37.2851488 194.225859,38.7695312 L194.225859,43 L193.522734,43 L193.522734,38.8222656 C193.518828,38.2558565 193.396759,37.8359389 193.156523,37.5625 C192.916288,37.2890611 192.52469,37.1523438 191.981719,37.1523438 C191.47781,37.1601563 191.052033,37.3232406 190.704375,37.6416016 C190.356717,37.9599625 190.16336,38.347654 190.124297,38.8046875 L190.124297,43 L189.421172,43 L189.421172,38.7695312 C189.417266,38.2265598 189.289337,37.8212904 189.037383,37.5537109 C188.785428,37.2861315 188.397737,37.1523438 187.874297,37.1523438 C187.432888,37.1523438 187.053986,37.2783191 186.737578,37.5302734 C186.42117,37.7822278 186.186798,38.1562475 186.034453,38.6523438 L186.034453,43 L185.331328,43 L185.331328,36.6601562 L186.005156,36.6601562 Z M199.716328,43.1171875 C199.177263,43.1171875 198.689963,42.9843763 198.254414,42.71875 C197.818865,42.4531237 197.480001,42.0830102 197.237813,41.6083984 C196.995624,41.1337867 196.874531,40.6015654 196.874531,40.0117188 L196.874531,39.7597656 C196.874531,39.1503876 196.992694,38.6015649 197.229023,38.1132812 C197.465353,37.6249976 197.794451,37.2412123 198.216328,36.9619141 C198.638205,36.6826158 199.095232,36.5429688 199.587422,36.5429688 C200.356957,36.5429688 200.967302,36.8056614 201.418477,37.3310547 C201.869651,37.8564479 202.095234,38.5742142 202.095234,39.484375 L202.095234,39.8769531 L197.571797,39.8769531 L197.571797,40.0117188 C197.571797,40.7304723 197.77785,41.3290992 198.189961,41.8076172 C198.602072,42.2861352 199.120622,42.5253906 199.745625,42.5253906 C200.120627,42.5253906 200.451678,42.4570319 200.738789,42.3203125 C201.0259,42.1835931 201.286639,41.9648453 201.521016,41.6640625 L201.960469,41.9980469 C201.444841,42.7441444 200.696802,43.1171875 199.716328,43.1171875 L199.716328,43.1171875 Z M199.587422,37.140625 C199.060076,37.140625 198.615744,37.3339824 198.254414,37.7207031 C197.893084,38.1074238 197.67336,38.6269499 197.595234,39.2792969 L201.397969,39.2792969 L201.397969,39.203125 C201.378437,38.593747 201.204611,38.0976582 200.876484,37.7148438 C200.548358,37.3320293 200.118675,37.140625 199.587422,37.140625 L199.587422,37.140625 Z M205.810313,35.0371094 L205.810313,36.6601562 L207.122813,36.6601562 L207.122813,37.234375 L205.810313,37.234375 L205.810313,41.4589844 C205.810313,41.8105486 205.873788,42.0722648 206.000742,42.2441406 C206.127696,42.4160165 206.339608,42.5019531 206.636484,42.5019531 C206.753672,42.5019531 206.943124,42.4824221 207.204844,42.4433594 L207.234141,43.0175781 C207.050546,43.0839847 206.800548,43.1171875 206.484141,43.1171875 C206.003669,43.1171875 205.654064,42.9775405 205.435313,42.6982422 C205.216561,42.4189439 205.107188,42.0078152 205.107188,41.4648438 L205.107188,37.234375 L203.941172,37.234375 L203.941172,36.6601562 L205.107188,36.6601562 L205.107188,35.0371094 L205.810313,35.0371094 Z M4.7109375,57.3886719 C4.7109375,57.0410139 4.57129046,56.7617198 4.29199219,56.5507812 C4.01269392,56.3398427 3.59179969,56.1748053 3.02929688,56.0556641 C2.46679406,55.9365228 2.03027499,55.7998055 1.71972656,55.6455078 C1.40917813,55.4912102 1.17871169,55.3027355 1.02832031,55.0800781 C0.877928936,54.8574208 0.802734375,54.5878922 0.802734375,54.2714844 C0.802734375,53.7714819 1.01171666,53.3584001 1.4296875,53.0322266 C1.84765834,52.7060531 2.38280924,52.5429688 3.03515625,52.5429688 C3.74219104,52.5429688 4.30956817,52.7177717 4.73730469,53.0673828 C5.1650412,53.4169939 5.37890625,53.8730441 5.37890625,54.4355469 L4.67578125,54.4355469 C4.67578125,54.0644513 4.52050937,53.7558606 4.20996094,53.5097656 C3.89941251,53.2636706 3.50781486,53.140625 3.03515625,53.140625 C2.57421645,53.140625 2.20410296,53.243163 1.92480469,53.4482422 C1.64550642,53.6533213 1.50585938,53.9199202 1.50585938,54.2480469 C1.50585938,54.5644547 1.62206915,54.8095694 1.85449219,54.9833984 C2.08691522,55.1572274 2.51073911,55.3164055 3.12597656,55.4609375 C3.74121401,55.6054695 4.2021469,55.7597648 4.50878906,55.9238281 C4.81543122,56.0878914 5.04296801,56.2851551 5.19140625,56.515625 C5.33984449,56.7460949 5.4140625,57.025389 5.4140625,57.3535156 C5.4140625,57.8886746 5.19824435,58.3164046 4.76660156,58.6367188 C4.33495878,58.9570329 3.77148785,59.1171875 3.07617187,59.1171875 C2.33788693,59.1171875 1.73926011,58.9384783 1.28027344,58.5810547 C0.821286768,58.223631 0.591796875,57.7714871 0.591796875,57.2246094 L1.29492188,57.2246094 C1.32226576,57.6347677 1.4951156,57.9541004 1.81347656,58.1826172 C2.13183753,58.411134 2.55273176,58.5253906 3.07617187,58.5253906 C3.56445557,58.5253906 3.95898287,58.4179698 4.25976562,58.203125 C4.56054838,57.9882802 4.7109375,57.7167985 4.7109375,57.3886719 L4.7109375,57.3886719 Z M7.86351562,55.7363281 C7.86351562,55.1269501 7.9816785,54.5781274 8.2180078,54.0898438 C8.45433711,53.6015601 8.78831814,53.221681 9.21996093,52.9501953 C9.65160371,52.6787096 10.1408566,52.5429688 10.6877344,52.5429688 C11.5314886,52.5429688 12.2150755,52.8388642 12.7385156,53.4306641 C13.2619557,54.0224639 13.5236719,54.8066357 13.5236719,55.7832031 L13.5236719,55.9296875 C13.5236719,56.5429718 13.405509,57.0947241 13.1691797,57.5849609 C12.9328504,58.0751978 12.5998459,58.4531237 12.1701562,58.71875 C11.7404666,58.9843763 11.2502371,59.1171875 10.6994531,59.1171875 C9.85960517,59.1171875 9.1769948,58.821292 8.65160155,58.2294922 C8.1262083,57.6376924 7.86351562,56.8535205 7.86351562,55.8769531 L7.86351562,55.7363281 Z M8.56664062,55.9296875 C8.56664062,56.6875038 8.76292772,57.3095679 9.1555078,57.7958984 C9.54808789,58.282229 10.0627312,58.5253906 10.6994531,58.5253906 C11.3322688,58.5253906 11.844959,58.282229 12.2375391,57.7958984 C12.6301191,57.3095679 12.8264062,56.6679727 12.8264062,55.8710938 L12.8264062,55.7363281 C12.8264062,55.2519507 12.7365634,54.8085958 12.556875,54.40625 C12.3771866,54.0039042 12.125236,53.6923839 11.8010156,53.4716797 C11.4767952,53.2509755 11.1057052,53.140625 10.6877344,53.140625 C10.0627312,53.140625 9.55297071,53.3857397 9.15843749,53.8759766 C8.76390427,54.3662134 8.56664062,55.0078085 8.56664062,55.8007812 L8.56664062,55.9296875 Z M16.8696094,52.6601562 L16.8930469,53.6914062 C17.127423,53.3085918 17.4203888,53.0214853 17.7719531,52.8300781 C18.1235174,52.6386709 18.5141385,52.5429688 18.9438281,52.5429688 C19.9438331,52.5429688 20.5785924,52.9531209 20.848125,53.7734375 C21.0746886,53.3789043 21.37742,53.0751964 21.7563281,52.8623047 C22.1352363,52.649413 22.5532008,52.5429688 23.0102344,52.5429688 C24.3696162,52.5429688 25.0629686,53.2851488 25.0903125,54.7695312 L25.0903125,59 L24.3871875,59 L24.3871875,54.8222656 C24.3832812,54.2558565 24.2612121,53.8359389 24.0209765,53.5625 C23.780741,53.2890611 23.3891433,53.1523438 22.8461719,53.1523438 C22.3422631,53.1601563 21.9164861,53.3232406 21.5688281,53.6416016 C21.2211701,53.9599625 21.0278127,54.347654 20.98875,54.8046875 L20.98875,59 L20.285625,59 L20.285625,54.7695312 C20.2817187,54.2265598 20.1537903,53.8212904 19.9018359,53.5537109 C19.6498815,53.2861315 19.2621901,53.1523438 18.73875,53.1523438 C18.2973415,53.1523438 17.9184391,53.2783191 17.6020312,53.5302734 C17.2856234,53.7822278 17.0512507,54.1562475 16.8989062,54.6523438 L16.8989062,59 L16.1957812,59 L16.1957812,52.6601562 L16.8696094,52.6601562 Z M30.5807812,59.1171875 C30.041716,59.1171875 29.5544162,58.9843763 29.1188672,58.71875 C28.6833181,58.4531237 28.3444543,58.0830102 28.1022656,57.6083984 C27.8600769,57.1337867 27.7389843,56.6015654 27.7389843,56.0117188 L27.7389843,55.7597656 C27.7389843,55.1503876 27.8571472,54.6015649 28.0934765,54.1132812 C28.3298058,53.6249976 28.6589041,53.2412123 29.0807812,52.9619141 C29.5026583,52.6826158 29.959685,52.5429688 30.451875,52.5429688 C31.2214101,52.5429688 31.8317555,52.8056614 32.2829297,53.3310547 C32.7341038,53.8564479 32.9596875,54.5742142 32.9596875,55.484375 L32.9596875,55.8769531 L28.43625,55.8769531 L28.43625,56.0117188 C28.43625,56.7304723 28.6423026,57.3290992 29.054414,57.8076172 C29.4665255,58.2861352 29.985075,58.5253906 30.6100781,58.5253906 C30.98508,58.5253906 31.3161313,58.4570319 31.6032422,58.3203125 C31.890353,58.1835931 32.1510925,57.9648453 32.3854687,57.6640625 L32.8249218,57.9980469 C32.3092943,58.7441444 31.5612549,59.1171875 30.5807812,59.1171875 L30.5807812,59.1171875 Z M30.451875,53.140625 C29.9245286,53.140625 29.4801971,53.3339824 29.1188672,53.7207031 C28.7575372,54.1074238 28.5378129,54.6269499 28.4596875,55.2792969 L32.2624218,55.2792969 L32.2624218,55.203125 C32.2428905,54.593747 32.0690641,54.0976582 31.7409375,53.7148438 C31.4128108,53.3320293 30.9831276,53.140625 30.451875,53.140625 L30.451875,53.140625 Z M39.8165156,55.7363281 C39.8165156,55.1269501 39.9346785,54.5781274 40.1710078,54.0898438 C40.4073371,53.6015601 40.7413182,53.221681 41.1729609,52.9501953 C41.6046037,52.6787096 42.0938567,52.5429688 42.6407344,52.5429688 C43.4844886,52.5429688 44.1680755,52.8388642 44.6915156,53.4306641 C45.2149558,54.0224639 45.4766719,54.8066357 45.4766719,55.7832031 L45.4766719,55.9296875 C45.4766719,56.5429718 45.358509,57.0947241 45.1221797,57.5849609 C44.8858504,58.0751978 44.5528459,58.4531237 44.1231563,58.71875 C43.6934666,58.9843763 43.2032371,59.1171875 42.6524531,59.1171875 C41.8126052,59.1171875 41.1299948,58.821292 40.6046016,58.2294922 C40.0792083,57.6376924 39.8165156,56.8535205 39.8165156,55.8769531 L39.8165156,55.7363281 Z M40.5196406,55.9296875 C40.5196406,56.6875038 40.7159277,57.3095679 41.1085078,57.7958984 C41.5010879,58.282229 42.0157312,58.5253906 42.6524531,58.5253906 C43.2852688,58.5253906 43.797959,58.282229 44.1905391,57.7958984 C44.5831192,57.3095679 44.7794063,56.6679727 44.7794063,55.8710938 L44.7794063,55.7363281 C44.7794063,55.2519507 44.6895634,54.8085958 44.509875,54.40625 C44.3301866,54.0039042 44.078236,53.6923839 43.7540156,53.4716797 C43.4297953,53.2509755 43.0587052,53.140625 42.6407344,53.140625 C42.0157313,53.140625 41.5059707,53.3857397 41.1114375,53.8759766 C40.7169043,54.3662134 40.5196406,55.0078085 40.5196406,55.8007812 L40.5196406,55.9296875 Z M48.6878438,59 L48.6878438,53.234375 L47.6390156,53.234375 L47.6390156,52.6601562 L48.6878438,52.6601562 L48.6878438,51.8925781 C48.6878438,51.2441374 48.8528812,50.7460955 49.1829609,50.3984375 C49.5130407,50.0507795 49.9729971,49.8769531 50.5628438,49.8769531 C50.8284701,49.8769531 51.0765145,49.9101559 51.3069844,49.9765625 L51.25425,50.5625 C51.0589365,50.5156248 50.846048,50.4921875 50.6155781,50.4921875 C50.2288574,50.4921875 49.9280792,50.6123035 49.7132344,50.8525391 C49.4983896,51.0927746 49.3909688,51.4335915 49.3909688,51.875 L49.3909688,52.6601562 L50.9026875,52.6601562 L50.9026875,53.234375 L49.3909688,53.234375 L49.3909688,59 L48.6878438,59 Z M59.12475,51.0371094 L59.12475,52.6601562 L60.43725,52.6601562 L60.43725,53.234375 L59.12475,53.234375 L59.12475,57.4589844 C59.12475,57.8105486 59.188226,58.0722648 59.3151797,58.2441406 C59.4421335,58.4160165 59.6540454,58.5019531 59.9509219,58.5019531 C60.06811,58.5019531 60.2575612,58.4824221 60.5192813,58.4433594 L60.5485782,59.0175781 C60.3649835,59.0839847 60.114986,59.1171875 59.7985782,59.1171875 C59.318107,59.1171875 58.9685011,58.9775405 58.74975,58.6982422 C58.5309989,58.4189439 58.421625,58.0078152 58.421625,57.4648438 L58.421625,53.234375 L57.2556094,53.234375 L57.2556094,52.6601562 L58.421625,52.6601562 L58.421625,51.0371094 L59.12475,51.0371094 Z M63.8476407,53.7324219 C64.0781106,53.3535137 64.3730295,53.0605479 64.7324063,52.8535156 C65.0917831,52.6464833 65.4843573,52.5429688 65.9101407,52.5429688 C66.5898316,52.5429688 67.0956859,52.7343731 67.4277188,53.1171875 C67.7597517,53.5000019 67.9277188,54.0742149 67.931625,54.8398438 L67.931625,59 L67.2343594,59 L67.2343594,54.8339844 C67.2304531,54.2675753 67.1103372,53.8457045 66.8740078,53.5683594 C66.6376785,53.2910142 66.2597526,53.1523438 65.7402188,53.1523438 C65.3066229,53.1523438 64.9228376,53.2880846 64.5888516,53.5595703 C64.2548656,53.831056 64.0077977,54.1972633 63.8476407,54.6582031 L63.8476407,59 L63.150375,59 L63.150375,50 L63.8476407,50 L63.8476407,53.7324219 Z M73.4513906,59.1171875 C72.9123255,59.1171875 72.4250256,58.9843763 71.9894766,58.71875 C71.5539275,58.4531237 71.2150637,58.0830102 70.972875,57.6083984 C70.7306863,57.1337867 70.6095938,56.6015654 70.6095938,56.0117188 L70.6095938,55.7597656 C70.6095938,55.1503876 70.7277567,54.6015649 70.964086,54.1132812 C71.2004153,53.6249976 71.5295135,53.2412123 71.9513906,52.9619141 C72.3732678,52.6826158 72.8302944,52.5429688 73.3224844,52.5429688 C74.0920195,52.5429688 74.702365,52.8056614 75.1535391,53.3310547 C75.6047132,53.8564479 75.8302969,54.5742142 75.8302969,55.484375 L75.8302969,55.8769531 L71.3068594,55.8769531 L71.3068594,56.0117188 C71.3068594,56.7304723 71.512912,57.3290992 71.9250235,57.8076172 C72.3371349,58.2861352 72.8556844,58.5253906 73.4806875,58.5253906 C73.8556894,58.5253906 74.1867408,58.4570319 74.4738516,58.3203125 C74.7609624,58.1835931 75.021702,57.9648453 75.2560781,57.6640625 L75.6955313,57.9980469 C75.1799037,58.7441444 74.4318643,59.1171875 73.4513906,59.1171875 L73.4513906,59.1171875 Z M73.3224844,53.140625 C72.795138,53.140625 72.3508065,53.3339824 71.9894766,53.7207031 C71.6281467,54.1074238 71.4084223,54.6269499 71.3302969,55.2792969 L75.1330313,55.2792969 L75.1330313,55.203125 C75.1134999,54.593747 74.9396735,54.0976582 74.6115469,53.7148438 C74.2834203,53.3320293 73.8537371,53.140625 73.3224844,53.140625 L73.3224844,53.140625 Z M83.8590001,59 L83.1558751,59 L83.1558751,50 L83.8590001,50 L83.8590001,59 Z M86.6365782,55.7363281 C86.6365782,55.1269501 86.7547411,54.5781274 86.9910704,54.0898438 C87.2273997,53.6015601 87.5613807,53.221681 87.9930235,52.9501953 C88.4246663,52.6787096 88.9139192,52.5429688 89.4607969,52.5429688 C90.3045511,52.5429688 90.9881381,52.8388642 91.5115782,53.4306641 C92.0350183,54.0224639 92.2967344,54.8066357 92.2967344,55.7832031 L92.2967344,55.9296875 C92.2967344,56.5429718 92.1785715,57.0947241 91.9422422,57.5849609 C91.7059129,58.0751978 91.3729085,58.4531237 90.9432188,58.71875 C90.5135292,58.9843763 90.0232997,59.1171875 89.4725157,59.1171875 C88.6326677,59.1171875 87.9500574,58.821292 87.4246641,58.2294922 C86.8992709,57.6376924 86.6365782,56.8535205 86.6365782,55.8769531 L86.6365782,55.7363281 Z M87.3397032,55.9296875 C87.3397032,56.6875038 87.5359903,57.3095679 87.9285704,57.7958984 C88.3211505,58.282229 88.8357937,58.5253906 89.4725157,58.5253906 C90.1053313,58.5253906 90.6180215,58.282229 91.0106016,57.7958984 C91.4031817,57.3095679 91.5994688,56.6679727 91.5994688,55.8710938 L91.5994688,55.7363281 C91.5994688,55.2519507 91.509626,54.8085958 91.3299376,54.40625 C91.1502492,54.0039042 90.8982985,53.6923839 90.5740782,53.4716797 C90.2498578,53.2509755 89.8787678,53.140625 89.4607969,53.140625 C88.8357938,53.140625 88.3260333,53.3857397 87.9315001,53.8759766 C87.5369668,54.3662134 87.3397032,55.0078085 87.3397032,55.8007812 L87.3397032,55.9296875 Z M97.34775,58.5253906 C97.8360337,58.5253906 98.2452093,58.3876967 98.5752891,58.1123047 C98.9053689,57.8369127 99.084078,57.4804709 99.1114219,57.0429688 L99.78525,57.0429688 C99.7657187,57.4296894 99.6446262,57.782225 99.4219688,58.1005859 C99.1993114,58.4189469 98.903416,58.6679679 98.5342735,58.8476562 C98.165131,59.0273446 97.7696272,59.1171875 97.34775,59.1171875 C96.5157146,59.1171875 95.8565415,58.8281279 95.370211,58.25 C94.8838804,57.6718721 94.6407188,56.8945361 94.6407188,55.9179688 L94.6407188,55.7070312 C94.6407188,55.0820281 94.7500927,54.5292993 94.9688438,54.0488281 C95.1875949,53.568357 95.5010683,53.1972669 95.9092735,52.9355469 C96.3174786,52.6738268 96.7950129,52.5429688 97.3418907,52.5429688 C98.0372066,52.5429688 98.6104431,52.7499979 99.0616172,53.1640625 C99.5127914,53.5781271 99.7539999,54.1230435 99.78525,54.7988281 L99.1114219,54.7988281 C99.0801718,54.3027319 98.9014626,53.9023453 98.5752891,53.5976562 C98.2491156,53.2929672 97.8379869,53.140625 97.3418907,53.140625 C96.709075,53.140625 96.217869,53.3691383 95.8682579,53.8261719 C95.5186467,54.2832054 95.3438438,54.923824 95.3438438,55.7480469 L95.3438438,55.953125 C95.3438438,56.7617228 95.5186467,57.3925759 95.8682579,57.8457031 C96.217869,58.2988304 96.7110281,58.5253906 97.34775,58.5253906 L97.34775,58.5253906 Z M106.447594,59 C106.377281,58.8007803 106.33236,58.5058613 106.312828,58.1152344 C106.066733,58.4355485 105.75326,58.6826163 105.372398,58.8564453 C104.991537,59.0302743 104.588221,59.1171875 104.162438,59.1171875 C103.553059,59.1171875 103.0599,58.9472673 102.682945,58.6074219 C102.30599,58.2675764 102.117516,57.8378932 102.117516,57.3183594 C102.117516,56.7011688 102.374349,56.2128924 102.888023,55.8535156 C103.401698,55.4941388 104.117511,55.3144531 105.035484,55.3144531 L106.306969,55.3144531 L106.306969,54.59375 C106.306969,54.1406227 106.167322,53.784181 105.888023,53.5244141 C105.608725,53.2646471 105.201503,53.1347656 104.666344,53.1347656 C104.17806,53.1347656 103.773767,53.2597644 103.453453,53.5097656 C103.133139,53.7597669 102.972984,54.0605451 102.972984,54.4121094 L102.269859,54.40625 C102.269859,53.9023412 102.504232,53.4658222 102.972984,53.0966797 C103.441737,52.7275372 104.017903,52.5429688 104.7015,52.5429688 C105.408535,52.5429688 105.966146,52.7197248 106.374352,53.0732422 C106.782557,53.4267596 106.992516,53.9199187 107.004234,54.5527344 L107.004234,57.5527344 C107.004234,58.1660187 107.068687,58.6249985 107.197594,58.9296875 L107.197594,59 L106.447594,59 Z M104.244469,58.4960938 C104.713221,58.4960938 105.132162,58.3828136 105.501305,58.15625 C105.870447,57.9296864 106.138999,57.626955 106.306969,57.2480469 L106.306969,55.8535156 L105.053063,55.8535156 C104.35384,55.8613282 103.806971,55.9892566 103.412438,56.2373047 C103.017904,56.4853528 102.820641,56.8261697 102.820641,57.2597656 C102.820641,57.6152362 102.952475,57.9101551 103.216148,58.1445312 C103.479822,58.3789074 103.822592,58.4960938 104.244469,58.4960938 L104.244469,58.4960938 Z M110.918531,59 L110.215406,59 L110.215406,50 L110.918531,50 L110.918531,59 Z M123.693328,56.9023438 C123.693328,56.4296851 123.527314,56.0556654 123.195281,55.7802734 C122.863248,55.5048814 122.255833,55.2431653 121.373016,54.9951172 C120.490199,54.7470691 119.845674,54.476564 119.439422,54.1835938 C118.861294,53.7695292 118.572234,53.2265659 118.572234,52.5546875 C118.572234,51.9023405 118.840786,51.3720724 119.377899,50.9638672 C119.915011,50.555662 120.601527,50.3515625 121.437469,50.3515625 C122.003878,50.3515625 122.510709,50.4609364 122.957977,50.6796875 C123.405244,50.8984386 123.751921,51.203123 123.998016,51.59375 C124.244111,51.984377 124.367156,52.4199195 124.367156,52.9003906 L123.640594,52.9003906 C123.640594,52.3183565 123.441377,51.8505877 123.042938,51.4970703 C122.644498,51.1435529 122.109347,50.9667969 121.437469,50.9667969 C120.785122,50.9667969 120.265596,51.1123032 119.878875,51.4033203 C119.492154,51.6943374 119.298797,52.0742164 119.298797,52.5429688 C119.298797,52.9765647 119.472623,53.3300768 119.820281,53.6035156 C120.167939,53.8769545 120.724574,54.118163 121.490203,54.3271484 C122.255832,54.5361339 122.835904,54.7529286 123.230438,54.9775391 C123.624971,55.2021496 123.921843,55.4707016 124.121063,55.7832031 C124.320282,56.0957047 124.419891,56.4648416 124.419891,56.890625 C124.419891,57.5625034 124.151339,58.1015605 123.614227,58.5078125 C123.077115,58.9140645 122.369114,59.1171875 121.490203,59.1171875 C120.888638,59.1171875 120.336885,59.0097667 119.83493,58.7949219 C119.332974,58.5800771 118.952119,58.2792988 118.692352,57.8925781 C118.432585,57.5058574 118.302703,57.0625025 118.302703,56.5625 L119.023406,56.5625 C119.023406,57.1640655 119.248013,57.6386701 119.697234,57.9863281 C120.146455,58.3339861 120.744106,58.5078125 121.490203,58.5078125 C122.154269,58.5078125 122.687467,58.3613296 123.089813,58.0683594 C123.492158,57.7753892 123.693328,57.3867212 123.693328,56.9023438 L123.693328,56.9023438 Z M131.070516,59 C131.000203,58.8007803 130.955281,58.5058613 130.93575,58.1152344 C130.689655,58.4355485 130.376182,58.6826163 129.99532,58.8564453 C129.614459,59.0302743 129.211143,59.1171875 128.785359,59.1171875 C128.175981,59.1171875 127.682822,58.9472673 127.305867,58.6074219 C126.928912,58.2675764 126.740438,57.8378932 126.740438,57.3183594 C126.740438,56.7011688 126.997271,56.2128924 127.510945,55.8535156 C128.02462,55.4941388 128.740433,55.3144531 129.658406,55.3144531 L130.929891,55.3144531 L130.929891,54.59375 C130.929891,54.1406227 130.790244,53.784181 130.510945,53.5244141 C130.231647,53.2646471 129.824425,53.1347656 129.289266,53.1347656 C128.800982,53.1347656 128.396689,53.2597644 128.076375,53.5097656 C127.756061,53.7597669 127.595906,54.0605451 127.595906,54.4121094 L126.892781,54.40625 C126.892781,53.9023412 127.127154,53.4658222 127.595906,53.0966797 C128.064659,52.7275372 128.640825,52.5429688 129.324422,52.5429688 C130.031457,52.5429688 130.589068,52.7197248 130.997273,53.0732422 C131.405479,53.4267596 131.615437,53.9199187 131.627156,54.5527344 L131.627156,57.5527344 C131.627156,58.1660187 131.691609,58.6249985 131.820516,58.9296875 L131.820516,59 L131.070516,59 Z M128.867391,58.4960938 C129.336143,58.4960938 129.755084,58.3828136 130.124227,58.15625 C130.493369,57.9296864 130.761921,57.626955 130.929891,57.2480469 L130.929891,55.8535156 L129.675984,55.8535156 C128.976762,55.8613282 128.429893,55.9892566 128.035359,56.2373047 C127.640826,56.4853528 127.443563,56.8261697 127.443563,57.2597656 C127.443563,57.6152362 127.575397,57.9101551 127.83907,58.1445312 C128.102744,58.3789074 128.445514,58.4960938 128.867391,58.4960938 L128.867391,58.4960938 Z M135.424266,52.6601562 L135.447703,53.7441406 C135.685986,53.3535137 135.982858,53.0556651 136.338328,52.8505859 C136.693799,52.6455068 137.086373,52.5429688 137.516063,52.5429688 C138.195753,52.5429688 138.701608,52.7343731 139.033641,53.1171875 C139.365674,53.5000019 139.533641,54.0742149 139.537547,54.8398438 L139.537547,59 L138.840281,59 L138.840281,54.8339844 C138.836375,54.2675753 138.716259,53.8457045 138.47993,53.5683594 C138.2436,53.2910142 137.865675,53.1523438 137.346141,53.1523438 C136.912545,53.1523438 136.52876,53.2880846 136.194773,53.5595703 C135.860787,53.831056 135.61372,54.1972633 135.453563,54.6582031 L135.453563,59 L134.756297,59 L134.756297,52.6601562 L135.424266,52.6601562 Z M152.089688,55.015625 L148.111172,55.015625 L148.111172,59 L147.390469,59 L147.390469,50.46875 L152.675625,50.46875 L152.675625,51.0839844 L148.111172,51.0839844 L148.111172,54.4003906 L152.089688,54.4003906 L152.089688,55.015625 Z M158.01375,53.2578125 C157.865312,53.2304686 157.70711,53.2167969 157.539141,53.2167969 C157.101639,53.2167969 156.731525,53.338866 156.428789,53.5830078 C156.126053,53.8271497 155.910235,54.1816383 155.781328,54.6464844 L155.781328,59 L155.084063,59 L155.084063,52.6601562 L155.769609,52.6601562 L155.781328,53.6679688 C156.152424,52.917965 156.748121,52.5429688 157.568438,52.5429688 C157.763751,52.5429688 157.918046,52.5683591 158.031328,52.6191406 L158.01375,53.2578125 Z M164.14875,59 C164.078437,58.8007803 164.033516,58.5058613 164.013984,58.1152344 C163.767889,58.4355485 163.454416,58.6826163 163.073555,58.8564453 C162.692693,59.0302743 162.289377,59.1171875 161.863594,59.1171875 C161.254216,59.1171875 160.761057,58.9472673 160.384102,58.6074219 C160.007147,58.2675764 159.818672,57.8378932 159.818672,57.3183594 C159.818672,56.7011688 160.075505,56.2128924 160.58918,55.8535156 C161.102854,55.4941388 161.818667,55.3144531 162.736641,55.3144531 L164.008125,55.3144531 L164.008125,54.59375 C164.008125,54.1406227 163.868478,53.784181 163.58918,53.5244141 C163.309881,53.2646471 162.902659,53.1347656 162.3675,53.1347656 C161.879216,53.1347656 161.474924,53.2597644 161.154609,53.5097656 C160.834295,53.7597669 160.674141,54.0605451 160.674141,54.4121094 L159.971016,54.40625 C159.971016,53.9023412 160.205388,53.4658222 160.674141,53.0966797 C161.142893,52.7275372 161.719059,52.5429688 162.402656,52.5429688 C163.109691,52.5429688 163.667303,52.7197248 164.075508,53.0732422 C164.483713,53.4267596 164.693672,53.9199187 164.705391,54.5527344 L164.705391,57.5527344 C164.705391,58.1660187 164.769843,58.6249985 164.89875,58.9296875 L164.89875,59 L164.14875,59 Z M161.945625,58.4960938 C162.414377,58.4960938 162.833319,58.3828136 163.202461,58.15625 C163.571603,57.9296864 163.840155,57.626955 164.008125,57.2480469 L164.008125,55.8535156 L162.754219,55.8535156 C162.054997,55.8613282 161.508127,55.9892566 161.113594,56.2373047 C160.719061,56.4853528 160.521797,56.8261697 160.521797,57.2597656 C160.521797,57.6152362 160.653632,57.9101551 160.917305,58.1445312 C161.180978,58.3789074 161.523748,58.4960938 161.945625,58.4960938 L161.945625,58.4960938 Z M168.5025,52.6601562 L168.525938,53.7441406 C168.76422,53.3535137 169.061092,53.0556651 169.416563,52.8505859 C169.772033,52.6455068 170.164607,52.5429688 170.594297,52.5429688 C171.273988,52.5429688 171.779842,52.7343731 172.111875,53.1171875 C172.443908,53.5000019 172.611875,54.0742149 172.615781,54.8398438 L172.615781,59 L171.918516,59 L171.918516,54.8339844 C171.914609,54.2675753 171.794493,53.8457045 171.558164,53.5683594 C171.321835,53.2910142 170.943909,53.1523438 170.424375,53.1523438 C169.990779,53.1523438 169.606994,53.2880846 169.273008,53.5595703 C168.939022,53.831056 168.691954,54.1972633 168.531797,54.6582031 L168.531797,59 L167.834531,59 L167.834531,52.6601562 L168.5025,52.6601562 Z M178.030078,58.5253906 C178.518362,58.5253906 178.927537,58.3876967 179.257617,58.1123047 C179.587697,57.8369127 179.766406,57.4804709 179.79375,57.0429688 L180.467578,57.0429688 C180.448047,57.4296894 180.326954,57.782225 180.104297,58.1005859 C179.88164,58.4189469 179.585744,58.6679679 179.216602,58.8476562 C178.847459,59.0273446 178.451955,59.1171875 178.030078,59.1171875 C177.198043,59.1171875 176.53887,58.8281279 176.052539,58.25 C175.566209,57.6718721 175.323047,56.8945361 175.323047,55.9179688 L175.323047,55.7070312 C175.323047,55.0820281 175.432421,54.5292993 175.651172,54.0488281 C175.869923,53.568357 176.183396,53.1972669 176.591602,52.9355469 C176.999807,52.6738268 177.477341,52.5429688 178.024219,52.5429688 C178.719535,52.5429688 179.292771,52.7499979 179.743945,53.1640625 C180.195119,53.5781271 180.436328,54.1230435 180.467578,54.7988281 L179.79375,54.7988281 C179.7625,54.3027319 179.583791,53.9023453 179.257617,53.5976562 C178.931444,53.2929672 178.520315,53.140625 178.024219,53.140625 C177.391403,53.140625 176.900197,53.3691383 176.550586,53.8261719 C176.200975,54.2832054 176.026172,54.923824 176.026172,55.7480469 L176.026172,55.953125 C176.026172,56.7617228 176.200975,57.3925759 176.550586,57.8457031 C176.900197,58.2988304 177.393356,58.5253906 178.030078,58.5253906 L178.030078,58.5253906 Z M183.913125,59 L183.21,59 L183.21,52.6601562 L183.913125,52.6601562 L183.913125,59 Z M183.086953,50.8261719 C183.086953,50.6933587 183.129921,50.5810551 183.215859,50.4892578 C183.301797,50.3974605 183.418984,50.3515625 183.567422,50.3515625 C183.71586,50.3515625 183.834023,50.3974605 183.921914,50.4892578 C184.009805,50.5810551 184.05375,50.6933587 184.05375,50.8261719 C184.05375,50.958985 184.009805,51.0703121 183.921914,51.1601562 C183.834023,51.2500004 183.71586,51.2949219 183.567422,51.2949219 C183.418984,51.2949219 183.301797,51.2500004 183.215859,51.1601562 C183.129921,51.0703121 183.086953,50.958985 183.086953,50.8261719 L183.086953,50.8261719 Z M190.874297,57.3886719 C190.874297,57.0410139 190.73465,56.7617198 190.455352,56.5507812 C190.176053,56.3398427 189.755159,56.1748053 189.192656,56.0556641 C188.630153,55.9365228 188.193634,55.7998055 187.883086,55.6455078 C187.572538,55.4912102 187.342071,55.3027355 187.19168,55.0800781 C187.041288,54.8574208 186.966094,54.5878922 186.966094,54.2714844 C186.966094,53.7714819 187.175076,53.3584001 187.593047,53.0322266 C188.011018,52.7060531 188.546169,52.5429688 189.198516,52.5429688 C189.90555,52.5429688 190.472928,52.7177717 190.900664,53.0673828 C191.328401,53.4169939 191.542266,53.8730441 191.542266,54.4355469 L190.839141,54.4355469 C190.839141,54.0644513 190.683869,53.7558606 190.37332,53.5097656 C190.062772,53.2636706 189.671174,53.140625 189.198516,53.140625 C188.737576,53.140625 188.367462,53.243163 188.088164,53.4482422 C187.808866,53.6533213 187.669219,53.9199202 187.669219,54.2480469 C187.669219,54.5644547 187.785429,54.8095694 188.017852,54.9833984 C188.250275,55.1572274 188.674099,55.3164055 189.289336,55.4609375 C189.904573,55.6054695 190.365506,55.7597648 190.672148,55.9238281 C190.978791,56.0878914 191.206327,56.2851551 191.354766,56.515625 C191.503204,56.7460949 191.577422,57.025389 191.577422,57.3535156 C191.577422,57.8886746 191.361604,58.3164046 190.929961,58.6367188 C190.498318,58.9570329 189.934847,59.1171875 189.239531,59.1171875 C188.501246,59.1171875 187.90262,58.9384783 187.443633,58.5810547 C186.984646,58.223631 186.755156,57.7714871 186.755156,57.2246094 L187.458281,57.2246094 C187.485625,57.6347677 187.658475,57.9541004 187.976836,58.1826172 C188.295197,58.411134 188.716091,58.5253906 189.239531,58.5253906 C189.727815,58.5253906 190.122342,58.4179698 190.423125,58.203125 C190.723908,57.9882802 190.874297,57.7167985 190.874297,57.3886719 L190.874297,57.3886719 Z M196.757344,58.5253906 C197.245627,58.5253906 197.654803,58.3876967 197.984883,58.1123047 C198.314963,57.8369127 198.493672,57.4804709 198.521016,57.0429688 L199.194844,57.0429688 C199.175312,57.4296894 199.05422,57.782225 198.831563,58.1005859 C198.608905,58.4189469 198.31301,58.6679679 197.943867,58.8476562 C197.574725,59.0273446 197.179221,59.1171875 196.757344,59.1171875 C195.925308,59.1171875 195.266135,58.8281279 194.779805,58.25 C194.293474,57.6718721 194.050313,56.8945361 194.050313,55.9179688 L194.050313,55.7070312 C194.050313,55.0820281 194.159686,54.5292993 194.378438,54.0488281 C194.597189,53.568357 194.910662,53.1972669 195.318867,52.9355469 C195.727072,52.6738268 196.204607,52.5429688 196.751484,52.5429688 C197.4468,52.5429688 198.020037,52.7499979 198.471211,53.1640625 C198.922385,53.5781271 199.163594,54.1230435 199.194844,54.7988281 L198.521016,54.7988281 C198.489765,54.3027319 198.311056,53.9023453 197.984883,53.5976562 C197.658709,53.2929672 197.247581,53.140625 196.751484,53.140625 C196.118669,53.140625 195.627463,53.3691383 195.277852,53.8261719 C194.92824,54.2832054 194.753438,54.923824 194.753438,55.7480469 L194.753438,55.953125 C194.753438,56.7617228 194.92824,57.3925759 195.277852,57.8457031 C195.627463,58.2988304 196.120622,58.5253906 196.757344,58.5253906 L196.757344,58.5253906 Z M201.468516,55.7363281 C201.468516,55.1269501 201.586679,54.5781274 201.823008,54.0898438 C202.059337,53.6015601 202.393318,53.221681 202.824961,52.9501953 C203.256604,52.6787096 203.745857,52.5429688 204.292734,52.5429688 C205.136489,52.5429688 205.820076,52.8388642 206.343516,53.4306641 C206.866956,54.0224639 207.128672,54.8066357 207.128672,55.7832031 L207.128672,55.9296875 C207.128672,56.5429718 207.010509,57.0947241 206.77418,57.5849609 C206.53785,58.0751978 206.204846,58.4531237 205.775156,58.71875 C205.345467,58.9843763 204.855237,59.1171875 204.304453,59.1171875 C203.464605,59.1171875 202.781995,58.821292 202.256602,58.2294922 C201.731208,57.6376924 201.468516,56.8535205 201.468516,55.8769531 L201.468516,55.7363281 Z M202.171641,55.9296875 C202.171641,56.6875038 202.367928,57.3095679 202.760508,57.7958984 C203.153088,58.282229 203.667731,58.5253906 204.304453,58.5253906 C204.937269,58.5253906 205.449959,58.282229 205.842539,57.7958984 C206.235119,57.3095679 206.431406,56.6679727 206.431406,55.8710938 L206.431406,55.7363281 C206.431406,55.2519507 206.341563,54.8085958 206.161875,54.40625 C205.982187,54.0039042 205.730236,53.6923839 205.406016,53.4716797 C205.081795,53.2509755 204.710705,53.140625 204.292734,53.140625 C203.667731,53.140625 203.157971,53.3857397 202.763438,53.8759766 C202.368904,54.3662134 202.171641,55.0078085 202.171641,55.8007812 L202.171641,55.9296875 Z M4.7109375,73.3886719 C4.7109375,73.0410139 4.57129046,72.7617198 4.29199219,72.5507812 C4.01269392,72.3398427 3.59179969,72.1748053 3.02929688,72.0556641 C2.46679406,71.9365228 2.03027499,71.7998055 1.71972656,71.6455078 C1.40917813,71.4912102 1.17871169,71.3027355 1.02832031,71.0800781 C0.877928936,70.8574208 0.802734375,70.5878922 0.802734375,70.2714844 C0.802734375,69.7714819 1.01171666,69.3584001 1.4296875,69.0322266 C1.84765834,68.7060531 2.38280924,68.5429688 3.03515625,68.5429688 C3.74219104,68.5429688 4.30956817,68.7177717 4.73730469,69.0673828 C5.1650412,69.4169939 5.37890625,69.8730441 5.37890625,70.4355469 L4.67578125,70.4355469 C4.67578125,70.0644513 4.52050937,69.7558606 4.20996094,69.5097656 C3.89941251,69.2636706 3.50781486,69.140625 3.03515625,69.140625 C2.57421645,69.140625 2.20410296,69.243163 1.92480469,69.4482422 C1.64550642,69.6533213 1.50585938,69.9199202 1.50585938,70.2480469 C1.50585938,70.5644547 1.62206915,70.8095694 1.85449219,70.9833984 C2.08691522,71.1572274 2.51073911,71.3164055 3.12597656,71.4609375 C3.74121401,71.6054695 4.2021469,71.7597648 4.50878906,71.9238281 C4.81543122,72.0878914 5.04296801,72.2851551 5.19140625,72.515625 C5.33984449,72.7460949 5.4140625,73.025389 5.4140625,73.3535156 C5.4140625,73.8886746 5.19824435,74.3164046 4.76660156,74.6367188 C4.33495878,74.9570329 3.77148785,75.1171875 3.07617187,75.1171875 C2.33788693,75.1171875 1.73926011,74.9384783 1.28027344,74.5810547 C0.821286768,74.223631 0.591796875,73.7714871 0.591796875,73.2246094 L1.29492188,73.2246094 C1.32226576,73.6347677 1.4951156,73.9541004 1.81347656,74.1826172 C2.13183753,74.411134 2.55273176,74.5253906 3.07617187,74.5253906 C3.56445557,74.5253906 3.95898287,74.4179698 4.25976562,74.203125 C4.56054838,73.9882802 4.7109375,73.7167985 4.7109375,73.3886719 L4.7109375,73.3886719 Z M10.6285826,75 L9.92545759,75 L9.92545759,66 L10.6285826,66 L10.6285826,75 Z M19.3880246,75 C19.3177117,74.8007803 19.2727903,74.5058613 19.2532589,74.1152344 C19.007164,74.4355485 18.6936905,74.6826163 18.3128292,74.8564453 C17.931968,75.0302743 17.5286517,75.1171875 17.1028683,75.1171875 C16.4934903,75.1171875 16.0003311,74.9472673 15.6233761,74.6074219 C15.2464211,74.2675764 15.0579464,73.8378932 15.0579464,73.3183594 C15.0579464,72.7011688 15.3147798,72.2128924 15.8284542,71.8535156 C16.3421287,71.4941388 17.0579418,71.3144531 17.9759152,71.3144531 L19.2473996,71.3144531 L19.2473996,70.59375 C19.2473996,70.1406227 19.1077525,69.784181 18.8284542,69.5244141 C18.549156,69.2646471 18.1419335,69.1347656 17.6067746,69.1347656 C17.1184909,69.1347656 16.714198,69.2597644 16.3938839,69.5097656 C16.0735698,69.7597669 15.9134152,70.0605451 15.9134152,70.4121094 L15.2102902,70.40625 C15.2102902,69.9023412 15.4446628,69.4658222 15.9134152,69.0966797 C16.3821675,68.7275372 16.9583336,68.5429688 17.6419308,68.5429688 C18.3489656,68.5429688 18.9065772,68.7197248 19.3147824,69.0732422 C19.7229875,69.4267596 19.9329464,69.9199187 19.9446652,70.5527344 L19.9446652,73.5527344 C19.9446652,74.1660187 20.0091177,74.6249985 20.1380246,74.9296875 L20.1380246,75 L19.3880246,75 Z M17.1848996,74.4960938 C17.6536519,74.4960938 18.072593,74.3828136 18.4417355,74.15625 C18.810878,73.9296864 19.07943,73.626955 19.2473996,73.2480469 L19.2473996,71.8535156 L17.9934933,71.8535156 C17.2942711,71.8613282 16.7474015,71.9892566 16.3528683,72.2373047 C15.9583351,72.4853528 15.7610714,72.8261697 15.7610714,73.2597656 C15.7610714,73.6152362 15.8929061,73.9101551 16.1565792,74.1445312 C16.4202524,74.3789074 16.7630224,74.4960938 17.1848996,74.4960938 L17.1848996,74.4960938 Z M27.0107478,74.5253906 C27.4990315,74.5253906 27.9082071,74.3876967 28.2382868,74.1123047 C28.5683666,73.8369127 28.7470758,73.4804709 28.7744196,73.0429688 L29.4482478,73.0429688 C29.4287164,73.4296894 29.3076239,73.782225 29.0849665,74.1005859 C28.8623092,74.4189469 28.5664137,74.6679679 28.1972712,74.8476562 C27.8281287,75.0273446 27.4326249,75.1171875 27.0107478,75.1171875 C26.1787124,75.1171875 25.5195393,74.8281279 25.0332087,74.25 C24.5468782,73.6718721 24.3037165,72.8945361 24.3037165,71.9179688 L24.3037165,71.7070312 C24.3037165,71.0820281 24.4130904,70.5292993 24.6318415,70.0488281 C24.8505926,69.568357 25.164066,69.1972669 25.5722712,68.9355469 C25.9804764,68.6738268 26.4580107,68.5429688 27.0048884,68.5429688 C27.7002044,68.5429688 28.2734408,68.7499979 28.724615,69.1640625 C29.1757891,69.5781271 29.4169976,70.1230435 29.4482478,70.7988281 L28.7744196,70.7988281 C28.7431695,70.3027319 28.5644603,69.9023453 28.2382868,69.5976562 C27.9121133,69.2929672 27.5009846,69.140625 27.0048884,69.140625 C26.3720727,69.140625 25.8808667,69.3691383 25.5312556,69.8261719 C25.1816445,70.2832054 25.0068415,70.923824 25.0068415,71.7480469 L25.0068415,71.953125 C25.0068415,72.7617228 25.1816445,73.3925759 25.5312556,73.8457031 C25.8808667,74.2988304 26.3740258,74.5253906 27.0107478,74.5253906 L27.0107478,74.5253906 Z M35.2076897,71.8066406 L34.4049554,72.5800781 L34.4049554,75 L33.7018304,75 L33.7018304,66 L34.4049554,66 L34.4049554,71.7597656 L35.0670647,71.0449219 L37.492846,68.6601562 L38.3776116,68.6601562 L35.6881585,71.3320312 L38.6119866,75 L37.774096,75 L35.2076897,71.8066406 Z M43.2171317,75 L42.5140067,75 L42.5140067,66 L43.2171317,66 L43.2171317,75 Z M48.7597768,75 L48.0566518,75 L48.0566518,68.6601562 L48.7597768,68.6601562 L48.7597768,75 Z M47.9336049,66.8261719 C47.9336049,66.6933587 47.9765732,66.5810551 48.0625112,66.4892578 C48.1484491,66.3974605 48.2656354,66.3515625 48.4140737,66.3515625 C48.5625119,66.3515625 48.6806748,66.3974605 48.7685659,66.4892578 C48.8564569,66.5810551 48.9004018,66.6933587 48.9004018,66.8261719 C48.9004018,66.958985 48.8564569,67.0703121 48.7685659,67.1601562 C48.6806748,67.2500004 48.5625119,67.2949219 48.4140737,67.2949219 C48.2656354,67.2949219 48.1484491,67.2500004 48.0625112,67.1601562 C47.9765732,67.0703121 47.9336049,66.958985 47.9336049,66.8261719 L47.9336049,66.8261719 Z M54.1852344,68.6601562 L54.2086719,69.7441406 C54.4469543,69.3535137 54.7438264,69.0556651 55.0992969,68.8505859 C55.4547674,68.6455068 55.8473416,68.5429688 56.2770313,68.5429688 C56.9567222,68.5429688 57.4625765,68.7343731 57.7946094,69.1171875 C58.1266423,69.5000019 58.2946094,70.0742149 58.2985156,70.8398438 L58.2985156,75 L57.60125,75 L57.60125,70.8339844 C57.5973437,70.2675753 57.4772278,69.8457045 57.2408985,69.5683594 C57.0045691,69.2910142 56.6266432,69.1523438 56.1071094,69.1523438 C55.6735135,69.1523438 55.2897282,69.2880846 54.9557422,69.5595703 C54.6217562,69.831056 54.3746883,70.1972633 54.2145313,70.6582031 L54.2145313,75 L53.5172656,75 L53.5172656,68.6601562 L54.1852344,68.6601562 Z M65.4173326,75.1171875 C64.8782674,75.1171875 64.3909676,74.9843763 63.9554185,74.71875 C63.5198695,74.4531237 63.1810057,74.0830102 62.938817,73.6083984 C62.6966283,73.1337867 62.5755357,72.6015654 62.5755357,72.0117188 L62.5755357,71.7597656 C62.5755357,71.1503876 62.6936986,70.6015649 62.9300279,70.1132812 C63.1663572,69.6249976 63.4954555,69.2412123 63.9173326,68.9619141 C64.3392097,68.6826158 64.7962364,68.5429688 65.2884264,68.5429688 C66.0579615,68.5429688 66.6683069,68.8056614 67.119481,69.3310547 C67.5706552,69.8564479 67.7962389,70.5742142 67.7962389,71.484375 L67.7962389,71.8769531 L63.2728014,71.8769531 L63.2728014,72.0117188 C63.2728014,72.7304723 63.478854,73.3290992 63.8909654,73.8076172 C64.3030769,74.2861352 64.8216264,74.5253906 65.4466295,74.5253906 C65.8216314,74.5253906 66.1526827,74.4570319 66.4397935,74.3203125 C66.7269044,74.1835931 66.9876439,73.9648453 67.2220201,73.6640625 L67.6614732,73.9980469 C67.1458457,74.7441444 66.3978063,75.1171875 65.4173326,75.1171875 L65.4173326,75.1171875 Z M65.2884264,69.140625 C64.76108,69.140625 64.3167485,69.3339824 63.9554185,69.7207031 C63.5940886,70.1074238 63.3743642,70.6269499 63.2962389,71.2792969 L67.0989732,71.2792969 L67.0989732,71.203125 C67.0794419,70.593747 66.9056155,70.0976582 66.5774889,69.7148438 C66.2493622,69.3320293 65.819679,69.140625 65.2884264,69.140625 L65.2884264,69.140625 Z M74.9443527,69.2578125 C74.7959145,69.2304686 74.6377129,69.2167969 74.4697433,69.2167969 C74.0322411,69.2167969 73.6621276,69.338866 73.3593918,69.5830078 C73.0566559,69.8271497 72.8408377,70.1816383 72.7119308,70.6464844 L72.7119308,75 L72.0146652,75 L72.0146652,68.6601562 L72.7002121,68.6601562 L72.7119308,69.6679688 C73.0830264,68.917965 73.6787236,68.5429688 74.4990402,68.5429688 C74.6943537,68.5429688 74.848649,68.5683591 74.9619308,68.6191406 L74.9443527,69.2578125 Z M82.7018415,73.3886719 C82.7018415,73.0410139 82.5621945,72.7617198 82.2828962,72.5507812 C82.003598,72.3398427 81.5827037,72.1748053 81.0202009,72.0556641 C80.4576981,71.9365228 80.021179,71.7998055 79.7106306,71.6455078 C79.4000822,71.4912102 79.1696157,71.3027355 79.0192243,71.0800781 C78.868833,70.8574208 78.7936384,70.5878922 78.7936384,70.2714844 C78.7936384,69.7714819 79.0026207,69.3584001 79.4205915,69.0322266 C79.8385624,68.7060531 80.3737133,68.5429688 81.0260603,68.5429688 C81.7330951,68.5429688 82.3004722,68.7177717 82.7282087,69.0673828 C83.1559452,69.4169939 83.3698103,69.8730441 83.3698103,70.4355469 L82.6666853,70.4355469 C82.6666853,70.0644513 82.5114134,69.7558606 82.200865,69.5097656 C81.8903165,69.2636706 81.4987189,69.140625 81.0260603,69.140625 C80.5651205,69.140625 80.195007,69.243163 79.9157087,69.4482422 C79.6364105,69.6533213 79.4967634,69.9199202 79.4967634,70.2480469 C79.4967634,70.5644547 79.6129732,70.8095694 79.8453962,70.9833984 C80.0778193,71.1572274 80.5016431,71.3164055 81.1168806,71.4609375 C81.732118,71.6054695 82.1930509,71.7597648 82.4996931,71.9238281 C82.8063353,72.0878914 83.033872,72.2851551 83.1823103,72.515625 C83.3307485,72.7460949 83.4049665,73.025389 83.4049665,73.3535156 C83.4049665,73.8886746 83.1891484,74.3164046 82.7575056,74.6367188 C82.3258628,74.9570329 81.7623919,75.1171875 81.0670759,75.1171875 C80.328791,75.1171875 79.7301641,74.9384783 79.2711775,74.5810547 C78.8121908,74.223631 78.5827009,73.7714871 78.5827009,73.2246094 L79.2858259,73.2246094 C79.3131698,73.6347677 79.4860196,73.9541004 79.8043806,74.1826172 C80.1227416,74.411134 80.5436358,74.5253906 81.0670759,74.5253906 C81.5553596,74.5253906 81.9498869,74.4179698 82.2506697,74.203125 C82.5514524,73.9882802 82.7018415,73.7167985 82.7018415,73.3886719 L82.7018415,73.3886719 Z M102.319219,71.8945312 C102.319219,72.8828174 102.100471,73.6669893 101.662969,74.2470703 C101.225467,74.8271513 100.637582,75.1171875 99.8992969,75.1171875 C99.01648,75.1171875 98.3485179,74.7890658 97.8953906,74.1328125 L97.8660938,75 L97.2098438,75 L97.2098438,66 L97.9071094,66 L97.9071094,69.5800781 C98.3524241,68.8886684 99.0125738,68.5429688 99.8875781,68.5429688 C100.637582,68.5429688 101.230349,68.8290987 101.665898,69.4013672 C102.101447,69.9736357 102.319219,70.7695262 102.319219,71.7890625 L102.319219,71.8945312 Z M101.616094,71.7714844 C101.616094,70.9355427 101.453986,70.2900413 101.129766,69.8349609 C100.805545,69.3798805 100.348519,69.1523438 99.7586719,69.1523438 C99.3094509,69.1523438 98.9285953,69.2626942 98.6160938,69.4833984 C98.3035922,69.7041027 98.0672664,70.0273416 97.9071094,70.453125 L97.9071094,73.3125 C98.2586736,74.109379 98.8797612,74.5078125 99.7703906,74.5078125 C100.348519,74.5078125 100.800662,74.2792992 101.126836,73.8222656 C101.453009,73.3652321 101.616094,72.6816452 101.616094,71.7714844 L101.616094,71.7714844 Z M110.721239,75 C110.650926,74.8007803 110.606005,74.5058613 110.586473,74.1152344 C110.340378,74.4355485 110.026905,74.6826163 109.646044,74.8564453 C109.265182,75.0302743 108.861866,75.1171875 108.436083,75.1171875 C107.826705,75.1171875 107.333545,74.9472673 106.95659,74.6074219 C106.579635,74.2675764 106.391161,73.8378932 106.391161,73.3183594 C106.391161,72.7011688 106.647994,72.2128924 107.161669,71.8535156 C107.675343,71.4941388 108.391156,71.3144531 109.309129,71.3144531 L110.580614,71.3144531 L110.580614,70.59375 C110.580614,70.1406227 110.440967,69.784181 110.161669,69.5244141 C109.88237,69.2646471 109.475148,69.1347656 108.939989,69.1347656 C108.451705,69.1347656 108.047412,69.2597644 107.727098,69.5097656 C107.406784,69.7597669 107.246629,70.0605451 107.246629,70.4121094 L106.543504,70.40625 C106.543504,69.9023412 106.777877,69.4658222 107.246629,69.0966797 C107.715382,68.7275372 108.291548,68.5429688 108.975145,68.5429688 C109.68218,68.5429688 110.239791,68.7197248 110.647997,69.0732422 C111.056202,69.4267596 111.266161,69.9199187 111.277879,70.5527344 L111.277879,73.5527344 C111.277879,74.1660187 111.342332,74.6249985 111.471239,74.9296875 L111.471239,75 L110.721239,75 Z M108.518114,74.4960938 C108.986866,74.4960938 109.405807,74.3828136 109.77495,74.15625 C110.144092,73.9296864 110.412644,73.626955 110.580614,73.2480469 L110.580614,71.8535156 L109.326708,71.8535156 C108.627485,71.8613282 108.080616,71.9892566 107.686083,72.2373047 C107.291549,72.4853528 107.094286,72.8261697 107.094286,73.2597656 C107.094286,73.6152362 107.22612,73.9101551 107.489794,74.1445312 C107.753467,74.3789074 108.096237,74.4960938 108.518114,74.4960938 L108.518114,74.4960938 Z M116.785368,75 L116.082243,75 L116.082243,66 L116.785368,66 L116.785368,75 Z M125.54481,75 C125.474497,74.8007803 125.429576,74.5058613 125.410045,74.1152344 C125.16395,74.4355485 124.850476,74.6826163 124.469615,74.8564453 C124.088754,75.0302743 123.685437,75.1171875 123.259654,75.1171875 C122.650276,75.1171875 122.157117,74.9472673 121.780162,74.6074219 C121.403207,74.2675764 121.214732,73.8378932 121.214732,73.3183594 C121.214732,72.7011688 121.471566,72.2128924 121.98524,71.8535156 C122.498914,71.4941388 123.214728,71.3144531 124.132701,71.3144531 L125.404185,71.3144531 L125.404185,70.59375 C125.404185,70.1406227 125.264538,69.784181 124.98524,69.5244141 C124.705942,69.2646471 124.298719,69.1347656 123.76356,69.1347656 C123.275277,69.1347656 122.870984,69.2597644 122.55067,69.5097656 C122.230356,69.7597669 122.070201,70.0605451 122.070201,70.4121094 L121.367076,70.40625 C121.367076,69.9023412 121.601449,69.4658222 122.070201,69.0966797 C122.538953,68.7275372 123.115119,68.5429688 123.798717,68.5429688 C124.505751,68.5429688 125.063363,68.7197248 125.471568,69.0732422 C125.879773,69.4267596 126.089732,69.9199187 126.101451,70.5527344 L126.101451,73.5527344 C126.101451,74.1660187 126.165903,74.6249985 126.29481,74.9296875 L126.29481,75 L125.54481,75 Z M123.341685,74.4960938 C123.810438,74.4960938 124.229379,74.3828136 124.598521,74.15625 C124.967664,73.9296864 125.236216,73.626955 125.404185,73.2480469 L125.404185,71.8535156 L124.150279,71.8535156 C123.451057,71.8613282 122.904187,71.9892566 122.509654,72.2373047 C122.115121,72.4853528 121.917857,72.8261697 121.917857,73.2597656 C121.917857,73.6152362 122.049692,73.9101551 122.313365,74.1445312 C122.577038,74.3789074 122.919808,74.4960938 123.341685,74.4960938 L123.341685,74.4960938 Z M131.491752,68.6601562 L131.51519,69.7441406 C131.753472,69.3535137 132.050344,69.0556651 132.405815,68.8505859 C132.761285,68.6455068 133.153859,68.5429688 133.583549,68.5429688 C134.26324,68.5429688 134.769094,68.7343731 135.101127,69.1171875 C135.43316,69.5000019 135.601127,70.0742149 135.605033,70.8398438 L135.605033,75 L134.907768,75 L134.907768,70.8339844 C134.903862,70.2675753 134.783746,69.8457045 134.547416,69.5683594 C134.311087,69.2910142 133.933161,69.1523438 133.413627,69.1523438 C132.980031,69.1523438 132.596246,69.2880846 132.26226,69.5595703 C131.928274,69.831056 131.681206,70.1972633 131.521049,70.6582031 L131.521049,75 L130.823783,75 L130.823783,68.6601562 L131.491752,68.6601562 Z M142.612522,74.5253906 C143.100806,74.5253906 143.509982,74.3876967 143.840061,74.1123047 C144.170141,73.8369127 144.34885,73.4804709 144.376194,73.0429688 L145.050022,73.0429688 C145.030491,73.4296894 144.909398,73.782225 144.686741,74.1005859 C144.464084,74.4189469 144.168188,74.6679679 143.799046,74.8476562 C143.429903,75.0273446 143.034399,75.1171875 142.612522,75.1171875 C141.780487,75.1171875 141.121314,74.8281279 140.634983,74.25 C140.148653,73.6718721 139.905491,72.8945361 139.905491,71.9179688 L139.905491,71.7070312 C139.905491,71.0820281 140.014865,70.5292993 140.233616,70.0488281 C140.452367,69.568357 140.765841,69.1972669 141.174046,68.9355469 C141.582251,68.6738268 142.059785,68.5429688 142.606663,68.5429688 C143.301979,68.5429688 143.875215,68.7499979 144.32639,69.1640625 C144.777564,69.5781271 145.018772,70.1230435 145.050022,70.7988281 L144.376194,70.7988281 C144.344944,70.3027319 144.166235,69.9023453 143.840061,69.5976562 C143.513888,69.2929672 143.102759,69.140625 142.606663,69.140625 C141.973847,69.140625 141.482641,69.3691383 141.13303,69.8261719 C140.783419,70.2832054 140.608616,70.923824 140.608616,71.7480469 L140.608616,71.953125 C140.608616,72.7617228 140.783419,73.3925759 141.13303,73.8457031 C141.482641,74.2988304 141.9758,74.5253906 142.612522,74.5253906 L142.612522,74.5253906 Z M150.088761,75 L149.385636,75 L149.385636,68.6601562 L150.088761,68.6601562 L150.088761,75 Z M149.262589,66.8261719 C149.262589,66.6933587 149.305558,66.5810551 149.391496,66.4892578 C149.477433,66.3974605 149.59462,66.3515625 149.743058,66.3515625 C149.891496,66.3515625 150.009659,66.3974605 150.09755,66.4892578 C150.185441,66.5810551 150.229386,66.6933587 150.229386,66.8261719 C150.229386,66.958985 150.185441,67.0703121 150.09755,67.1601562 C150.009659,67.2500004 149.891496,67.2949219 149.743058,67.2949219 C149.59462,67.2949219 149.477433,67.2500004 149.391496,67.1601562 C149.305558,67.0703121 149.262589,66.958985 149.262589,66.8261719 L149.262589,66.8261719 Z M155.514219,68.6601562 L155.537656,69.7441406 C155.775939,69.3535137 156.072811,69.0556651 156.428281,68.8505859 C156.783752,68.6455068 157.176326,68.5429688 157.606016,68.5429688 C158.285707,68.5429688 158.791561,68.7343731 159.123594,69.1171875 C159.455627,69.5000019 159.623594,70.0742149 159.6275,70.8398438 L159.6275,75 L158.930234,75 L158.930234,70.8339844 C158.926328,70.2675753 158.806212,69.8457045 158.569883,69.5683594 C158.333554,69.2910142 157.955628,69.1523438 157.436094,69.1523438 C157.002498,69.1523438 156.618713,69.2880846 156.284727,69.5595703 C155.950741,69.831056 155.703673,70.1972633 155.543516,70.6582031 L155.543516,75 L154.84625,75 L154.84625,68.6601562 L155.514219,68.6601562 Z M164.009989,71.7714844 C164.009989,70.7792919 164.229713,69.993167 164.669169,69.4130859 C165.108624,68.8330049 165.705298,68.5429688 166.459208,68.5429688 C167.322493,68.5429688 167.978737,68.8867153 168.427958,69.5742188 L168.463114,68.6601562 L169.119364,68.6601562 L169.119364,74.8710938 C169.119364,75.6875041 168.890851,76.333982 168.433817,76.8105469 C167.976783,77.2871118 167.357649,77.5253906 166.576395,77.5253906 C166.134987,77.5253906 165.714092,77.4267588 165.3137,77.2294922 C164.913307,77.0322256 164.597881,76.7695329 164.367411,76.4414062 L164.759989,76.0195312 C165.256085,76.6289093 165.845923,76.9335938 166.52952,76.9335938 C167.115461,76.9335938 167.572487,76.7607439 167.900614,76.4150391 C168.22874,76.0693342 168.398661,75.5898468 168.410379,74.9765625 L168.410379,74.1796875 C167.961158,74.8046906 167.306868,75.1171875 166.447489,75.1171875 C165.71311,75.1171875 165.123272,74.8242217 164.677958,74.2382812 C164.232643,73.6523408 164.009989,72.8613331 164.009989,71.8652344 L164.009989,71.7714844 Z M164.718973,71.8945312 C164.718973,72.703129 164.881081,73.340818 165.205301,73.8076172 C165.529522,74.2744164 165.986548,74.5078125 166.576395,74.5078125 C167.439681,74.5078125 168.051003,74.1210976 168.410379,73.3476562 L168.410379,70.4003906 C168.246316,69.9941386 168.00999,69.6845714 167.701395,69.4716797 C167.3928,69.258788 167.02171,69.1523438 166.588114,69.1523438 C165.998267,69.1523438 165.539287,69.3837867 165.211161,69.8466797 C164.883034,70.3095726 164.718973,70.992183 164.718973,71.8945312 L164.718973,71.8945312 Z M187.184007,75 C187.113694,74.8007803 187.068772,74.5058613 187.049241,74.1152344 C186.803146,74.4355485 186.489673,74.6826163 186.108811,74.8564453 C185.72795,75.0302743 185.324634,75.1171875 184.89885,75.1171875 C184.289472,75.1171875 183.796313,74.9472673 183.419358,74.6074219 C183.042403,74.2675764 182.853929,73.8378932 182.853929,73.3183594 C182.853929,72.7011688 183.110762,72.2128924 183.624436,71.8535156 C184.138111,71.4941388 184.853924,71.3144531 185.771897,71.3144531 L187.043382,71.3144531 L187.043382,70.59375 C187.043382,70.1406227 186.903735,69.784181 186.624436,69.5244141 C186.345138,69.2646471 185.937916,69.1347656 185.402757,69.1347656 C184.914473,69.1347656 184.51018,69.2597644 184.189866,69.5097656 C183.869552,69.7597669 183.709397,70.0605451 183.709397,70.4121094 L183.006272,70.40625 C183.006272,69.9023412 183.240645,69.4658222 183.709397,69.0966797 C184.17815,68.7275372 184.754316,68.5429688 185.437913,68.5429688 C186.144948,68.5429688 186.702559,68.7197248 187.110765,69.0732422 C187.51897,69.4267596 187.728929,69.9199187 187.740647,70.5527344 L187.740647,73.5527344 C187.740647,74.1660187 187.8051,74.6249985 187.934007,74.9296875 L187.934007,75 L187.184007,75 Z M184.980882,74.4960938 C185.449634,74.4960938 185.868575,74.3828136 186.237718,74.15625 C186.60686,73.9296864 186.875412,73.626955 187.043382,73.2480469 L187.043382,71.8535156 L185.789475,71.8535156 C185.090253,71.8613282 184.543384,71.9892566 184.14885,72.2373047 C183.754317,72.4853528 183.557054,72.8261697 183.557054,73.2597656 C183.557054,73.6152362 183.688888,73.9101551 183.952561,74.1445312 C184.216235,74.3789074 184.559005,74.4960938 184.980882,74.4960938 L184.980882,74.4960938 Z M193.130949,68.6601562 L193.154386,69.7441406 C193.392669,69.3535137 193.689541,69.0556651 194.045011,68.8505859 C194.400482,68.6455068 194.793056,68.5429688 195.222746,68.5429688 C195.902436,68.5429688 196.408291,68.7343731 196.740324,69.1171875 C197.072357,69.5000019 197.240324,70.0742149 197.24423,70.8398438 L197.24423,75 L196.546964,75 L196.546964,70.8339844 C196.543058,70.2675753 196.422942,69.8457045 196.186613,69.5683594 C195.950283,69.2910142 195.572358,69.1523438 195.052824,69.1523438 C194.619228,69.1523438 194.235443,69.2880846 193.901456,69.5595703 C193.56747,69.831056 193.320403,70.1972633 193.160246,70.6582031 L193.160246,75 L192.46298,75 L192.46298,68.6601562 L193.130949,68.6601562 Z M201.626719,71.7714844 C201.626719,70.7871045 201.846443,70.0029326 202.285898,69.4189453 C202.725354,68.834958 203.322027,68.5429688 204.075938,68.5429688 C204.931411,68.5429688 205.583748,68.880856 206.032969,69.5566406 L206.032969,66 L206.730234,66 L206.730234,75 L206.073984,75 L206.044688,74.15625 C205.595467,74.7968782 204.935317,75.1171875 204.064219,75.1171875 C203.333746,75.1171875 202.744885,74.8232451 202.297617,74.2353516 C201.850349,73.647458 201.626719,72.8535206 201.626719,71.8535156 L201.626719,71.7714844 Z M202.335703,71.8945312 C202.335703,72.703129 202.497811,73.340818 202.822031,73.8076172 C203.146252,74.2744164 203.603278,74.5078125 204.193125,74.5078125 C205.056411,74.5078125 205.669686,74.1269569 206.032969,73.3652344 L206.032969,70.3886719 C205.669686,69.564449 205.060317,69.1523438 204.204844,69.1523438 C203.614997,69.1523438 203.156017,69.3837867 202.827891,69.8466797 C202.499764,70.3095726 202.335703,70.992183 202.335703,71.8945312 L202.335703,71.8945312 Z M1.61132812,85.7324219 C1.84179803,85.3535137 2.13671695,85.0605479 2.49609375,84.8535156 C2.85547055,84.6464833 3.24804475,84.5429688 3.67382812,84.5429688 C4.35351902,84.5429688 4.85937334,84.7343731 5.19140625,85.1171875 C5.52343916,85.5000019 5.69140623,86.0742149 5.6953125,86.8398438 L5.6953125,91 L4.99804688,91 L4.99804688,86.8339844 C4.99414061,86.2675753 4.87402462,85.8457045 4.63769531,85.5683594 C4.40136601,85.2910142 4.0234401,85.1523438 3.50390625,85.1523438 C3.07031033,85.1523438 2.68652511,85.2880846 2.35253906,85.5595703 C2.01855302,85.831056 1.77148518,86.1972633 1.61132812,86.6582031 L1.61132812,91 L0.9140625,91 L0.9140625,82 L1.61132812,82 L1.61132812,85.7324219 Z M12.7619531,91 C12.6916403,90.8007803 12.6467188,90.5058613 12.6271875,90.1152344 C12.3810925,90.4355485 12.0676191,90.6826163 11.6867578,90.8564453 C11.3058965,91.0302743 10.9025802,91.1171875 10.4767969,91.1171875 C9.86741882,91.1171875 9.37425969,90.9472673 8.99730468,90.6074219 C8.62034967,90.2675764 8.43187499,89.8378932 8.43187499,89.3183594 C8.43187499,88.7011688 8.68870836,88.2128924 9.2023828,87.8535156 C9.71605725,87.4941388 10.4318704,87.3144531 11.3498437,87.3144531 L12.6213281,87.3144531 L12.6213281,86.59375 C12.6213281,86.1406227 12.4816811,85.784181 12.2023828,85.5244141 C11.9230845,85.2646471 11.515862,85.1347656 10.9807031,85.1347656 C10.4924194,85.1347656 10.0881266,85.2597644 9.76781249,85.5097656 C9.44749839,85.7597669 9.28734374,86.0605451 9.28734374,86.4121094 L8.58421874,86.40625 C8.58421874,85.9023412 8.8185914,85.4658222 9.28734374,85.0966797 C9.75609608,84.7275372 10.3322622,84.5429688 11.0158594,84.5429688 C11.7228942,84.5429688 12.2805058,84.7197248 12.6887109,85.0732422 C13.0969161,85.4267596 13.3068749,85.9199187 13.3185937,86.5527344 L13.3185937,89.5527344 C13.3185937,90.1660187 13.3830462,90.6249985 13.5119531,90.9296875 L13.5119531,91 L12.7619531,91 Z M10.5588281,90.4960938 C11.0275805,90.4960938 11.4465216,90.3828136 11.8156641,90.15625 C12.1848065,89.9296864 12.4533585,89.626955 12.6213281,89.2480469 L12.6213281,87.8535156 L11.3674219,87.8535156 C10.6681996,87.8613282 10.1213301,87.9892566 9.72679687,88.2373047 C9.33226364,88.4853528 9.13499999,88.8261697 9.13499999,89.2597656 C9.13499999,89.6152362 9.26683461,89.9101551 9.5305078,90.1445312 C9.794181,90.3789074 10.136951,90.4960938 10.5588281,90.4960938 L10.5588281,90.4960938 Z M18.3344531,90.0332031 L20.2621875,84.6601562 L20.9828906,84.6601562 L18.6157031,91 L18.0473437,91 L15.6684375,84.6601562 L16.3891406,84.6601562 L18.3344531,90.0332031 Z M24.1764843,91 L23.4733593,91 L23.4733593,84.6601562 L24.1764843,84.6601562 L24.1764843,91 Z M23.3503125,82.8261719 C23.3503125,82.6933587 23.3932808,82.5810551 23.4792187,82.4892578 C23.5651567,82.3974605 23.682343,82.3515625 23.8307812,82.3515625 C23.9792195,82.3515625 24.0973823,82.3974605 24.1852734,82.4892578 C24.2731645,82.5810551 24.3171093,82.6933587 24.3171093,82.8261719 C24.3171093,82.958985 24.2731645,83.0703121 24.1852734,83.1601562 C24.0973823,83.2500004 23.9792195,83.2949219 23.8307812,83.2949219 C23.682343,83.2949219 23.5651567,83.2500004 23.4792187,83.1601562 C23.3932808,83.0703121 23.3503125,82.958985 23.3503125,82.8261719 L23.3503125,82.8261719 Z M28.00875,84.6601562 L28.0321875,85.7441406 C28.2704699,85.3535137 28.5673419,85.0556651 28.9228125,84.8505859 C29.278283,84.6455068 29.6708572,84.5429688 30.1005468,84.5429688 C30.7802377,84.5429688 31.2860921,84.7343731 31.618125,85.1171875 C31.9501579,85.5000019 32.1181249,86.0742149 32.1220312,86.8398438 L32.1220312,91 L31.4247656,91 L31.4247656,86.8339844 C31.4208593,86.2675753 31.3007433,85.8457045 31.064414,85.5683594 C30.8280847,85.2910142 30.4501588,85.1523438 29.930625,85.1523438 C29.497029,85.1523438 29.1132438,85.2880846 28.7792578,85.5595703 C28.4452717,85.831056 28.1982039,86.1972633 28.0380468,86.6582031 L28.0380468,91 L27.3407812,91 L27.3407812,84.6601562 L28.00875,84.6601562 Z M34.9113281,87.7714844 C34.9113281,86.7792919 35.1310524,85.993167 35.5705078,85.4130859 C36.0099631,84.8330049 36.6066368,84.5429688 37.3605468,84.5429688 C38.2238324,84.5429688 38.8800758,84.8867153 39.3292968,85.5742188 L39.3644531,84.6601562 L40.0207031,84.6601562 L40.0207031,90.8710938 C40.0207031,91.6875041 39.7921897,92.333982 39.3351562,92.8105469 C38.8781227,93.2871118 38.2589882,93.5253906 37.4777343,93.5253906 C37.0363259,93.5253906 36.6154316,93.4267588 36.215039,93.2294922 C35.8146464,93.0322256 35.4992199,92.7695329 35.26875,92.4414062 L35.6613281,92.0195312 C36.1574243,92.6289093 36.7472622,92.9335938 37.4308593,92.9335938 C38.0167998,92.9335938 38.4738264,92.7607439 38.8019531,92.4150391 C39.1300797,92.0693342 39.2999999,91.5898468 39.3117187,90.9765625 L39.3117187,90.1796875 C38.8624977,90.8046906 38.2082074,91.1171875 37.3488281,91.1171875 C36.6144494,91.1171875 36.0246116,90.8242217 35.5792968,90.2382812 C35.1339821,89.6523408 34.9113281,88.8613331 34.9113281,87.8652344 L34.9113281,87.7714844 Z M35.6203125,87.8945312 C35.6203125,88.703129 35.7824202,89.340818 36.1066406,89.8076172 C36.4308609,90.2744164 36.8878876,90.5078125 37.4777343,90.5078125 C38.3410199,90.5078125 38.9523419,90.1210976 39.3117187,89.3476562 L39.3117187,86.4003906 C39.1476554,85.9941386 38.9113296,85.6845714 38.6027343,85.4716797 C38.294139,85.258788 37.923049,85.1523438 37.4894531,85.1523438 C36.8996064,85.1523438 36.4406266,85.3837867 36.1125,85.8466797 C35.7843733,86.3095726 35.6203125,86.992183 35.6203125,87.8945312 L35.6203125,87.8945312 Z M47.7907031,91 L47.7907031,85.234375 L46.7418749,85.234375 L46.7418749,84.6601562 L47.7907031,84.6601562 L47.7907031,83.8925781 C47.7907031,83.2441374 47.9557405,82.7460955 48.2858202,82.3984375 C48.6159,82.0507795 49.0758564,81.8769531 49.6657031,81.8769531 C49.9313294,81.8769531 50.1793738,81.9101559 50.4098437,81.9765625 L50.3571093,82.5625 C50.1617958,82.5156248 49.9489073,82.4921875 49.7184374,82.4921875 C49.3317167,82.4921875 49.0309385,82.6123035 48.8160937,82.8525391 C48.6012489,83.0927746 48.4938281,83.4335915 48.4938281,83.875 L48.4938281,84.6601562 L50.0055468,84.6601562 L50.0055468,85.234375 L48.4938281,85.234375 L48.4938281,91 L47.7907031,91 Z M56.597578,90.1972656 C56.1757009,90.8105499 55.5018796,91.1171875 54.5760937,91.1171875 C53.900309,91.1171875 53.3866423,90.9209004 53.035078,90.5283203 C52.6835138,90.1357402 52.5038281,89.5546913 52.4960155,88.7851562 L52.4960155,84.6601562 L53.1932812,84.6601562 L53.1932812,88.6972656 C53.1932812,89.9043029 53.6815575,90.5078125 54.6581249,90.5078125 C55.673755,90.5078125 56.3163267,90.0878948 56.5858593,89.2480469 L56.5858593,84.6601562 L57.2889843,84.6601562 L57.2889843,91 L56.6092968,91 L56.597578,90.1972656 Z M61.0392187,84.6601562 L61.0626562,85.7441406 C61.3009386,85.3535137 61.5978106,85.0556651 61.9532812,84.8505859 C62.3087517,84.6455068 62.7013259,84.5429688 63.1310155,84.5429688 C63.8107064,84.5429688 64.3165608,84.7343731 64.6485937,85.1171875 C64.9806266,85.5000019 65.1485936,86.0742149 65.1524999,86.8398438 L65.1524999,91 L64.4552343,91 L64.4552343,86.8339844 C64.451328,86.2675753 64.331212,85.8457045 64.0948827,85.5683594 C63.8585534,85.2910142 63.4806275,85.1523438 62.9610937,85.1523438 C62.5274977,85.1523438 62.1437125,85.2880846 61.8097265,85.5595703 C61.4757404,85.831056 61.2286726,86.1972633 61.0685155,86.6582031 L61.0685155,91 L60.3712499,91 L60.3712499,84.6601562 L61.0392187,84.6601562 Z M68.1585937,90.578125 C68.1585937,90.4414056 68.2025385,90.3251958 68.2904296,90.2294922 C68.3783207,90.1337886 68.5003897,90.0859375 68.6566405,90.0859375 C68.8128913,90.0859375 68.935937,90.1337886 69.0257812,90.2294922 C69.1156254,90.3251958 69.1605468,90.4414056 69.1605468,90.578125 C69.1605468,90.7148444 69.1156254,90.827148 69.0257812,90.9150391 C68.935937,91.0029301 68.8128913,91.046875 68.6566405,91.046875 C68.5003897,91.046875 68.3783207,91.0029301 68.2904296,90.9150391 C68.2025385,90.827148 68.1585937,90.7148444 68.1585937,90.578125 L68.1585937,90.578125 Z" id="Among-beautiful-tree"></path>
            </g>
        </g>
    </g>
</svg>