<?xml version="1.0" encoding="UTF-8"?>
<svg width="240px" height="81px" viewBox="0 0 240 81" version="1.1" xmlns="http://www.w3.org/2000/svg" xmlns:xlink="http://www.w3.org/1999/xlink">
    <!-- Generator: Sketch 41.2 (35397) - http://www.bohemiancoding.com/sketch -->
    <title>Group 4</title>
    <desc>Created with Sketch.</desc>
    <defs></defs>
    <g id="Page-1" stroke="none" stroke-width="1" fill="none" fill-rule="evenodd">
        <g id="Desktop-HD" transform="translate(-420.000000, -237.000000)" fill="#000000">
            <g id="Group-4" transform="translate(420.000000, 237.000000)">
                <path d="M1.08398438,11 L1.08398438,0.3359375 L4.73876953,0.3359375 C5.94483025,0.3359375 6.86278982,0.577634302 7.49267578,1.06103516 C8.12256174,1.54443601 8.4375,2.26464365 8.4375,3.22167969 C8.4375,3.70996338 8.30566538,4.14941211 8.04199219,4.54003906 C7.77831899,4.93066602 7.39258066,5.23339736 6.88476562,5.44824219 C7.46094038,5.60449297 7.90649257,5.89867948 8.22143555,6.33081055 C8.53637853,6.76294161 8.69384766,7.28173525 8.69384766,7.88720703 C8.69384766,8.8881886 8.37280594,9.65722388 7.73071289,10.1943359 C7.08861984,10.731448 6.16943958,11 4.97314453,11 L1.08398438,11 Z M2.93701172,6.18798828 L2.93701172,9.52050781 L4.99511719,9.52050781 C5.57617478,9.52050781 6.0302718,9.37646628 6.35742188,9.08837891 C6.68457195,8.80029153 6.84814453,8.39990491 6.84814453,7.88720703 C6.84814453,6.77880305 6.28174395,6.21240247 5.14892578,6.18798828 L2.93701172,6.18798828 Z M2.93701172,4.82568359 L4.75341797,4.82568359 C5.32959272,4.82568359 5.78002767,4.69506967 6.10473633,4.43383789 C6.42944498,4.17260612 6.59179688,3.80273677 6.59179688,3.32421875 C6.59179688,2.79687236 6.44165189,2.4160168 6.14135742,2.18164062 C5.84106295,1.94726445 5.37353833,1.83007812 4.73876953,1.83007812 L2.93701172,1.83007812 L2.93701172,4.82568359 Z M18.5161133,8.51708984 L14.3852539,8.51708984 L13.5209961,11 L11.5947266,11 L15.6230469,0.3359375 L17.2856445,0.3359375 L21.3212891,11 L19.3876953,11 L18.5161133,8.51708984 Z M14.9052734,7.02294922 L17.9960938,7.02294922 L16.4506836,2.59912109 L14.9052734,7.02294922 Z M24.5297852,11 L24.5297852,0.3359375 L27.6791992,0.3359375 C28.6215867,0.3359375 29.45776,0.545896338 30.1877441,0.965820312 C30.9177283,1.38574429 31.4829082,1.98144146 31.8833008,2.75292969 C32.2836934,3.52441792 32.4838867,4.40819814 32.4838867,5.40429688 L32.4838867,5.93896484 C32.4838867,6.94971208 32.2824727,7.83837507 31.8796387,8.60498047 C31.4768046,9.37158586 30.9030799,9.96240027 30.1584473,10.3774414 C29.4138146,10.7924825 28.5605517,11 27.5986328,11 L24.5297852,11 Z M26.3828125,1.83007812 L26.3828125,9.52050781 L27.5913086,9.52050781 C28.5629931,9.52050781 29.3088353,9.21655577 29.8288574,8.60864258 C30.3488796,8.00072938 30.6137695,7.12793538 30.6235352,5.99023438 L30.6235352,5.39697266 C30.6235352,4.23974031 30.3720728,3.35596008 29.8691406,2.74560547 C29.3662084,2.13525085 28.6362353,1.83007812 27.6791992,1.83007812 L26.3828125,1.83007812 Z M44.6938477,8.36328125 L46.3344727,0.3359375 L48.1728516,0.3359375 L45.7119141,11 L43.9394531,11 L41.9106445,3.21435547 L39.8378906,11 L38.0581055,11 L35.597168,0.3359375 L37.4355469,0.3359375 L39.0908203,8.34863281 L41.1269531,0.3359375 L42.6796875,0.3359375 L44.6938477,8.36328125 Z M57.1821289,8.51708984 L53.0512695,8.51708984 L52.1870117,11 L50.2607422,11 L54.2890625,0.3359375 L55.9516602,0.3359375 L59.9873047,11 L58.0537109,11 L57.1821289,8.51708984 Z M53.5712891,7.02294922 L56.6621094,7.02294922 L55.1166992,2.59912109 L53.5712891,7.02294922 Z M70.0219727,1.83007812 L66.6967773,1.83007812 L66.6967773,11 L64.8583984,11 L64.8583984,1.83007812 L61.5625,1.83007812 L61.5625,0.3359375 L70.0219727,0.3359375 L70.0219727,1.83007812 Z M79.6538086,6.23925781 L75.2739258,6.23925781 L75.2739258,9.52050781 L80.3935547,9.52050781 L80.3935547,11 L73.4208984,11 L73.4208984,0.3359375 L80.3422852,0.3359375 L80.3422852,1.83007812 L75.2739258,1.83007812 L75.2739258,4.77441406 L79.6538086,4.77441406 L79.6538086,6.23925781 Z M87.8208008,6.89111328 L85.7553711,6.89111328 L85.7553711,11 L83.9023438,11 L83.9023438,0.3359375 L87.6523438,0.3359375 C88.8828187,0.3359375 89.8325162,0.611813647 90.5014648,1.16357422 C91.1704135,1.71533479 91.5048828,2.51366665 91.5048828,3.55859375 C91.5048828,4.27148794 91.3327654,4.8684058 90.9885254,5.34936523 C90.6442854,5.83032467 90.1645539,6.20019402 89.5493164,6.45898438 L91.9443359,10.9047852 L91.9443359,11 L89.9594727,11 L87.8208008,6.89111328 Z M85.7553711,5.40429688 L87.659668,5.40429688 C88.2846711,5.40429688 88.7729475,5.24682775 89.1245117,4.93188477 C89.476076,4.61694178 89.6518555,4.18603789 89.6518555,3.63916016 C89.6518555,3.06786824 89.4895036,2.62597812 89.1647949,2.31347656 C88.8400863,2.000975 88.355472,1.8398438 87.7109375,1.83007812 L85.7553711,1.83007812 L85.7553711,5.40429688 Z M100.998047,11 L100.998047,0.3359375 L104.652832,0.3359375 C105.858893,0.3359375 106.776852,0.577634302 107.406738,1.06103516 C108.036624,1.54443601 108.351562,2.26464365 108.351562,3.22167969 C108.351562,3.70996338 108.219728,4.14941211 107.956055,4.54003906 C107.692381,4.93066602 107.306643,5.23339736 106.798828,5.44824219 C107.375003,5.60449297 107.820555,5.89867948 108.135498,6.33081055 C108.450441,6.76294161 108.60791,7.28173525 108.60791,7.88720703 C108.60791,8.8881886 108.286868,9.65722388 107.644775,10.1943359 C107.002682,10.731448 106.083502,11 104.887207,11 L100.998047,11 Z M102.851074,6.18798828 L102.851074,9.52050781 L104.90918,9.52050781 C105.490237,9.52050781 105.944334,9.37646628 106.271484,9.08837891 C106.598634,8.80029153 106.762207,8.39990491 106.762207,7.88720703 C106.762207,6.77880305 106.195806,6.21240247 105.062988,6.18798828 L102.851074,6.18798828 Z M102.851074,4.82568359 L104.66748,4.82568359 C105.243655,4.82568359 105.69409,4.69506967 106.018799,4.43383789 C106.343507,4.17260612 106.505859,3.80273677 106.505859,3.32421875 C106.505859,2.79687236 106.355714,2.4160168 106.05542,2.18164062 C105.755125,1.94726445 105.287601,1.83007812 104.652832,1.83007812 L102.851074,1.83007812 L102.851074,4.82568359 Z M118.430176,8.51708984 L114.299316,8.51708984 L113.435059,11 L111.508789,11 L115.537109,0.3359375 L117.199707,0.3359375 L121.235352,11 L119.301758,11 L118.430176,8.51708984 Z M114.819336,7.02294922 L117.910156,7.02294922 L116.364746,2.59912109 L114.819336,7.02294922 Z M130.017578,8.25341797 C130.017578,7.78466563 129.852785,7.42334111 129.523193,7.16943359 C129.193602,6.91552607 128.599125,6.65918098 127.739746,6.40039063 C126.880367,6.14160027 126.19678,5.85351721 125.688965,5.53613281 C124.71728,4.9257782 124.231445,4.12988772 124.231445,3.1484375 C124.231445,2.2890582 124.581784,1.58105747 125.282471,1.02441406 C125.983158,0.467770654 126.892573,0.189453125 128.010742,0.189453125 C128.752933,0.189453125 129.414548,0.326170508 129.995605,0.599609375 C130.576663,0.873048242 131.033201,1.26244865 131.365234,1.76782227 C131.697267,2.27319589 131.863281,2.83349302 131.863281,3.44873047 L130.017578,3.44873047 C130.017578,2.89208706 129.843019,2.4563004 129.493896,2.14135742 C129.144774,1.82641444 128.645511,1.66894531 127.996094,1.66894531 C127.390622,1.66894531 126.920656,1.79833855 126.586182,2.05712891 C126.251707,2.31591926 126.084473,2.67724377 126.084473,3.14111328 C126.084473,3.53174023 126.265135,3.85766471 126.626465,4.11889648 C126.987795,4.38012826 127.583492,4.63403197 128.413574,4.88061523 C129.243656,5.1271985 129.910154,5.40795741 130.413086,5.72290039 C130.916018,6.03784337 131.284667,6.39916788 131.519043,6.80688477 C131.753419,7.21460165 131.870605,7.6918918 131.870605,8.23876953 C131.870605,9.12744585 131.530033,9.83422589 130.848877,10.3591309 C130.167721,10.8840358 129.243658,11.1464844 128.07666,11.1464844 C127.305172,11.1464844 126.595951,11.0036635 125.948975,10.7180176 C125.301999,10.4323716 124.799074,10.0380885 124.440186,9.53515625 C124.081297,9.03222405 123.901855,8.44629241 123.901855,7.77734375 L125.754883,7.77734375 C125.754883,8.38281553 125.955076,8.85156084 126.355469,9.18359375 C126.755861,9.51562666 127.329586,9.68164062 128.07666,9.68164062 C128.721195,9.68164062 129.205809,9.5510267 129.530518,9.28979492 C129.855226,9.02856315 130.017578,8.68310762 130.017578,8.25341797 Z M137.452148,11 L135.606445,11 L135.606445,0.3359375 L137.452148,0.3359375 L137.452148,11 Z M150.189453,11 L148.336426,11 L143.583008,3.43408203 L143.583008,11 L141.72998,11 L141.72998,0.3359375 L143.583008,0.3359375 L148.351074,7.93115234 L148.351074,0.3359375 L150.189453,0.3359375 L150.189453,11 Z" id="BADWATER-BASIN"></path>
                <path d="M7.68310547,44 L1.00341797,44 L1.00341797,43.3261719 L4.65820312,39.1806641 C5.2636749,38.4824184 5.68359258,37.9062523 5.91796875,37.4521484 C6.15234492,36.9980446 6.26953125,36.5561545 6.26953125,36.1264648 C6.26953125,35.4526333 6.07177932,34.9191914 5.67626953,34.526123 C5.28075974,34.1330547 4.73633159,33.9365234 4.04296875,33.9365234 C3.32519172,33.9365234 2.74536354,34.1660133 2.3034668,34.625 C1.86157006,35.0839867 1.640625,35.6796838 1.640625,36.4121094 L0.769042969,36.4121094 C0.769042969,35.8115204 0.904539661,35.2646509 1.17553711,34.7714844 C1.44653456,34.2783178 1.83227289,33.8913588 2.33276367,33.6105957 C2.83325446,33.3298326 3.40331711,33.1894531 4.04296875,33.1894531 C5.01953613,33.1894531 5.78246796,33.4457982 6.33178711,33.9584961 C6.88110626,34.471194 7.15576172,35.1694292 7.15576172,36.0532227 C7.15576172,36.551272 7.00073397,37.0957002 6.69067383,37.6865234 C6.38061368,38.2773467 5.83496484,39.014644 5.05371094,39.8984375 L2.08007812,43.2602539 L7.68310547,43.2602539 L7.68310547,44 Z M17.6005859,36.0825195 C17.6005859,36.6342801 17.4394547,37.1286599 17.1171875,37.5656738 C16.7949203,38.0026877 16.3701198,38.3237294 15.8427734,38.5288086 C16.4580109,38.7387706 16.95117,39.0781227 17.3222656,39.546875 C17.6933612,40.0156273 17.8789062,40.5576141 17.8789062,41.1728516 C17.8789062,42.0859421 17.5688508,42.8098118 16.9487305,43.3444824 C16.3286102,43.8791531 15.5083059,44.1464844 14.487793,44.1464844 C13.4575144,44.1464844 12.633548,43.8803738 12.0158691,43.3481445 C11.3981903,42.8159153 11.0893555,42.0908249 11.0893555,41.1728516 C11.0893555,40.5673798 11.2675763,40.0278344 11.6240234,39.5541992 C11.9804705,39.080564 12.4687469,38.7387706 13.0888672,38.5288086 C12.5615208,38.3237294 12.1416031,38.0026877 11.8291016,37.5656738 C11.5166,37.1286599 11.3603516,36.6342801 11.3603516,36.0825195 C11.3603516,35.198726 11.6447725,34.4956081 12.213623,33.9731445 C12.7824735,33.450681 13.5356398,33.1894531 14.4731445,33.1894531 C15.4106492,33.1894531 16.1662569,33.4531224 16.7399902,33.9804688 C17.3137236,34.5078151 17.6005859,35.2084917 17.6005859,36.0825195 Z M17,41.1801758 C17,40.51611 16.763186,39.9704611 16.2895508,39.5432129 C15.8159156,39.1159647 15.2104529,38.9023438 14.4731445,38.9023438 C13.7358362,38.9023438 13.1328148,39.1123026 12.6640625,39.5322266 C12.1953102,39.9521505 11.9609375,40.5014615 11.9609375,41.1801758 C11.9609375,41.8588901 12.187986,42.3996562 12.6420898,42.8024902 C13.0961937,43.2053243 13.7114219,43.4067383 14.487793,43.4067383 C15.2446327,43.4067383 15.8525368,43.206545 16.3115234,42.8061523 C16.7705101,42.4057597 17,41.8637729 17,41.1801758 Z M16.7216797,36.0751953 C16.7216797,35.4648407 16.5105002,34.9558126 16.0881348,34.5480957 C15.6657694,34.1403788 15.1274447,33.9365234 14.4731445,33.9365234 C13.8090787,33.9365234 13.270754,34.1330547 12.8581543,34.526123 C12.4455546,34.9191914 12.2392578,35.4355437 12.2392578,36.0751953 C12.2392578,36.7001984 12.4455546,37.2031231 12.8581543,37.5839844 C13.270754,37.9648457 13.8115201,38.1552734 14.4804688,38.1552734 C15.1396517,38.1552734 15.6779764,37.963625 16.095459,37.5803223 C16.5129415,37.1970196 16.7216797,36.6953156 16.7216797,36.0751953 Z M28.309082,44 L21.6293945,44 L21.6293945,43.3261719 L25.2841797,39.1806641 C25.8896515,38.4824184 26.3095691,37.9062523 26.5439453,37.4521484 C26.7783215,36.9980446 26.8955078,36.5561545 26.8955078,36.1264648 C26.8955078,35.4526333 26.6977559,34.9191914 26.3022461,34.526123 C25.9067363,34.1330547 25.3623082,33.9365234 24.6689453,33.9365234 C23.9511683,33.9365234 23.3713401,34.1660133 22.9294434,34.625 C22.4875466,35.0839867 22.2666016,35.6796838 22.2666016,36.4121094 L21.3950195,36.4121094 C21.3950195,35.8115204 21.5305162,35.2646509 21.8015137,34.7714844 C22.0725111,34.2783178 22.4582495,33.8913588 22.9587402,33.6105957 C23.459231,33.3298326 24.0292937,33.1894531 24.6689453,33.1894531 C25.6455127,33.1894531 26.4084445,33.4457982 26.9577637,33.9584961 C27.5070828,34.471194 27.7817383,35.1694292 27.7817383,36.0532227 C27.7817383,36.551272 27.6267105,37.0957002 27.3166504,37.6865234 C27.0065902,38.2773467 26.4609414,39.014644 25.6796875,39.8984375 L22.7060547,43.2602539 L28.309082,43.2602539 L28.309082,44 Z M38.3588867,44 L38.3588867,36.7929688 L37.0478516,36.7929688 L37.0478516,36.0751953 L38.3588867,36.0751953 L38.3588867,35.1157227 C38.3588867,34.3051717 38.5651835,33.6826194 38.9777832,33.2480469 C39.3903829,32.8134744 39.9653283,32.5961914 40.7026367,32.5961914 C41.0346696,32.5961914 41.3447251,32.6376949 41.6328125,32.7207031 L41.5668945,33.453125 C41.3227527,33.394531 41.0566421,33.3652344 40.7685547,33.3652344 C40.2851538,33.3652344 39.909181,33.5153794 39.640625,33.8156738 C39.372069,34.1159683 39.237793,34.5419894 39.237793,35.09375 L39.237793,36.0751953 L41.1274414,36.0751953 L41.1274414,36.7929688 L39.237793,36.7929688 L39.237793,44 L38.3588867,44 Z M47.5878906,44.1464844 C46.9140591,44.1464844 46.3049344,43.9804704 45.760498,43.6484375 C45.2160617,43.3164046 44.792482,42.8537627 44.4897461,42.260498 C44.1870102,41.6672334 44.0356445,41.0019568 44.0356445,40.2646484 L44.0356445,39.949707 C44.0356445,39.1879845 44.1833481,38.5019562 44.4787598,37.8916016 C44.7741714,37.2812469 45.1855442,36.8015154 45.7128906,36.4523926 C46.240237,36.1032697 46.8115204,35.9287109 47.4267578,35.9287109 C48.3886767,35.9287109 49.1516085,36.2570768 49.7155762,36.9138184 C50.2795438,37.5705599 50.5615234,38.4677677 50.5615234,39.6054688 L50.5615234,40.0961914 L44.9072266,40.0961914 L44.9072266,40.2646484 C44.9072266,41.1630904 45.1647923,41.911374 45.6799316,42.5095215 C46.1950709,43.107669 46.8432578,43.4067383 47.6245117,43.4067383 C48.0932641,43.4067383 48.5070783,43.3212899 48.8659668,43.1503906 C49.2248553,42.9794913 49.5507798,42.7060566 49.84375,42.3300781 L50.3930664,42.7475586 C49.7485319,43.6801804 48.8134827,44.1464844 47.5878906,44.1464844 Z M47.4267578,36.6757812 C46.7675748,36.6757812 46.2121605,36.9174781 45.760498,37.4008789 C45.3088356,37.8842798 45.0341802,38.5336873 44.9365234,39.3491211 L49.6899414,39.3491211 L49.6899414,39.2539062 C49.6655272,38.4921837 49.4482442,37.8720727 49.0380859,37.3935547 C48.6279276,36.9150367 48.0908236,36.6757812 47.4267578,36.6757812 Z M57.3369141,44.1464844 C56.6630826,44.1464844 56.0539578,43.9804704 55.5095215,43.6484375 C54.9650852,43.3164046 54.5415054,42.8537627 54.2387695,42.260498 C53.9360336,41.6672334 53.784668,41.0019568 53.784668,40.2646484 L53.784668,39.949707 C53.784668,39.1879845 53.9323716,38.5019562 54.2277832,37.8916016 C54.5231948,37.2812469 54.9345677,36.8015154 55.4619141,36.4523926 C55.9892604,36.1032697 56.5605438,35.9287109 57.1757812,35.9287109 C58.1377001,35.9287109 58.9006319,36.2570768 59.4645996,36.9138184 C60.0285673,37.5705599 60.3105469,38.4677677 60.3105469,39.6054688 L60.3105469,40.0961914 L54.65625,40.0961914 L54.65625,40.2646484 C54.65625,41.1630904 54.9138158,41.911374 55.4289551,42.5095215 C55.9440944,43.107669 56.5922812,43.4067383 57.3735352,43.4067383 C57.8422875,43.4067383 58.2561017,43.3212899 58.6149902,43.1503906 C58.9738787,42.9794913 59.2998032,42.7060566 59.5927734,42.3300781 L60.1420898,42.7475586 C59.4975554,43.6801804 58.5625061,44.1464844 57.3369141,44.1464844 Z M57.1757812,36.6757812 C56.5165983,36.6757812 55.9611839,36.9174781 55.5095215,37.4008789 C55.0578591,37.8842798 54.7832036,38.5336873 54.6855469,39.3491211 L59.4389648,39.3491211 L59.4389648,39.2539062 C59.4145507,38.4921837 59.1972677,37.8720727 58.7871094,37.3935547 C58.3769511,36.9150367 57.8398471,36.6757812 57.1757812,36.6757812 Z M65.3793945,34.0463867 L65.3793945,36.0751953 L67.0200195,36.0751953 L67.0200195,36.7929688 L65.3793945,36.7929688 L65.3793945,42.0737305 C65.3793945,42.5131858 65.4587394,42.840331 65.6174316,43.0551758 C65.7761238,43.2700206 66.0410138,43.3774414 66.4121094,43.3774414 C66.5585945,43.3774414 66.7954085,43.3530276 67.1225586,43.3041992 L67.1591797,44.0219727 C66.9296864,44.1049809 66.6171895,44.1464844 66.2216797,44.1464844 C65.6210907,44.1464844 65.1840834,43.9719256 64.9106445,43.6228027 C64.6372057,43.2736799 64.5004883,42.759769 64.5004883,42.0810547 L64.5004883,36.7929688 L63.0429688,36.7929688 L63.0429688,36.0751953 L64.5004883,36.0751953 L64.5004883,34.0463867 L65.3793945,34.0463867 Z M82.8632812,40.1181641 C82.8632812,41.3535218 82.5898465,42.3337366 82.0429688,43.0588379 C81.496091,43.7839392 80.7612351,44.1464844 79.8383789,44.1464844 C78.7348578,44.1464844 77.8999052,43.7363322 77.3334961,42.9160156 L77.296875,44 L76.4765625,44 L76.4765625,32.75 L77.3481445,32.75 L77.3481445,37.2250977 C77.9047879,36.3608355 78.729975,35.9287109 79.8237305,35.9287109 C80.7612352,35.9287109 81.5021945,36.2863734 82.0466309,37.001709 C82.5910672,37.7170446 82.8632812,38.7119077 82.8632812,39.9863281 L82.8632812,40.1181641 Z M81.984375,39.9643555 C81.984375,38.9194284 81.7817403,38.1125517 81.3764648,37.5437012 C80.9711894,36.9748507 80.399906,36.6904297 79.6625977,36.6904297 C79.1010714,36.6904297 78.625002,36.8283678 78.234375,37.104248 C77.843748,37.3801283 77.5483408,37.784177 77.3481445,38.3164062 L77.3481445,41.890625 C77.7875999,42.8867237 78.5639593,43.3847656 79.6772461,43.3847656 C80.399906,43.3847656 80.9650859,43.099124 81.3728027,42.527832 C81.7805196,41.9565401 81.984375,41.1020565 81.984375,39.9643555 Z M89.8657227,44.1464844 C89.1918912,44.1464844 88.5827664,43.9804704 88.0383301,43.6484375 C87.4938938,43.3164046 87.070314,42.8537627 86.7675781,42.260498 C86.4648422,41.6672334 86.3134766,41.0019568 86.3134766,40.2646484 L86.3134766,39.949707 C86.3134766,39.1879845 86.4611802,38.5019562 86.7565918,37.8916016 C87.0520034,37.2812469 87.4633763,36.8015154 87.9907227,36.4523926 C88.518069,36.1032697 89.0893524,35.9287109 89.7045898,35.9287109 C90.6665087,35.9287109 91.4294405,36.2570768 91.9934082,36.9138184 C92.5573759,37.5705599 92.8393555,38.4677677 92.8393555,39.6054688 L92.8393555,40.0961914 L87.1850586,40.0961914 L87.1850586,40.2646484 C87.1850586,41.1630904 87.4426244,41.911374 87.9577637,42.5095215 C88.472903,43.107669 89.1210898,43.4067383 89.9023438,43.4067383 C90.3710961,43.4067383 90.7849103,43.3212899 91.1437988,43.1503906 C91.5026873,42.9794913 91.8286118,42.7060566 92.121582,42.3300781 L92.6708984,42.7475586 C92.026364,43.6801804 91.0913147,44.1464844 89.8657227,44.1464844 Z M89.7045898,36.6757812 C89.0454069,36.6757812 88.4899925,36.9174781 88.0383301,37.4008789 C87.5866677,37.8842798 87.3120122,38.5336873 87.2143555,39.3491211 L91.9677734,39.3491211 L91.9677734,39.2539062 C91.9433593,38.4921837 91.7260763,37.8720727 91.315918,37.3935547 C90.9057597,36.9150367 90.3686557,36.6757812 89.7045898,36.6757812 Z M97.5273438,44 L96.6484375,44 L96.6484375,32.75 L97.5273438,32.75 L97.5273438,44 Z M101.424316,39.9204102 C101.424316,39.1586876 101.57202,38.4726593 101.867432,37.8623047 C102.162843,37.2519501 102.58032,36.7771013 103.119873,36.4377441 C103.659427,36.098387 104.270993,35.9287109 104.95459,35.9287109 C106.009283,35.9287109 106.863766,36.2985803 107.518066,37.0383301 C108.172367,37.7780799 108.499512,38.7582947 108.499512,39.9790039 L108.499512,40.1621094 C108.499512,40.9287148 108.351808,41.6184051 108.056396,42.2312012 C107.760985,42.8439972 107.344729,43.3164046 106.807617,43.6484375 C106.270505,43.9804704 105.657718,44.1464844 104.969238,44.1464844 C103.919428,44.1464844 103.066165,43.776615 102.409424,43.0368652 C101.752682,42.2971154 101.424316,41.3169006 101.424316,40.0961914 L101.424316,39.9204102 Z M102.303223,40.1621094 C102.303223,41.1093797 102.548582,41.8869599 103.039307,42.494873 C103.530032,43.1027862 104.173336,43.4067383 104.969238,43.4067383 C105.760258,43.4067383 106.401121,43.1027862 106.891846,42.494873 C107.382571,41.8869599 107.62793,41.0849659 107.62793,40.0888672 L107.62793,39.9204102 C107.62793,39.3149384 107.515626,38.7607447 107.291016,38.2578125 C107.066405,37.7548803 106.751467,37.3654799 106.346191,37.0895996 C105.940916,36.8137193 105.477053,36.6757812 104.95459,36.6757812 C104.173336,36.6757812 103.536135,36.9821747 103.042969,37.5949707 C102.549802,38.2077667 102.303223,39.0097607 102.303223,40.0009766 L102.303223,40.1621094 Z M114.205566,42.1762695 L114.337402,42.8574219 L114.513184,42.1396484 L116.41748,36.0751953 L117.164551,36.0751953 L119.046875,42.0883789 L119.251953,42.9233398 L119.42041,42.1542969 L121.046387,36.0751953 L121.95459,36.0751953 L119.647461,44 L118.900391,44 L116.864258,37.7158203 L116.769043,37.2836914 L116.673828,37.7231445 L114.674316,44 L113.927246,44 L111.627441,36.0751953 L112.52832,36.0751953 L114.205566,42.1762695 Z M136.010742,41.9858398 C136.010742,41.5512674 135.836183,41.2021498 135.487061,40.9384766 C135.137938,40.6748034 134.61182,40.4685066 133.908691,40.3195801 C133.205563,40.1706536 132.659914,39.9997568 132.271729,39.8068848 C131.883543,39.6140127 131.59546,39.3784194 131.407471,39.1000977 C131.219481,38.821776 131.125488,38.4848653 131.125488,38.0893555 C131.125488,37.4643523 131.386716,36.9480001 131.90918,36.5402832 C132.431643,36.1325663 133.100582,35.9287109 133.916016,35.9287109 C134.799809,35.9287109 135.509031,36.1472146 136.043701,36.5842285 C136.578372,37.0212424 136.845703,37.5913051 136.845703,38.2944336 L135.966797,38.2944336 C135.966797,37.8305641 135.772707,37.4448258 135.384521,37.137207 C134.996336,36.8295883 134.506839,36.6757812 133.916016,36.6757812 C133.339841,36.6757812 132.877199,36.8039538 132.528076,37.0603027 C132.178953,37.3166517 132.004395,37.6499003 132.004395,38.0600586 C132.004395,38.4555684 132.149657,38.7619618 132.440186,38.979248 C132.730714,39.1965343 133.260494,39.3955069 134.029541,39.5761719 C134.798588,39.7568368 135.374754,39.949706 135.758057,40.1547852 C136.141359,40.3598643 136.42578,40.6064439 136.611328,40.8945312 C136.796876,41.1826186 136.889648,41.5317362 136.889648,41.9418945 C136.889648,42.6108432 136.619876,43.1455058 136.080322,43.5458984 C135.540769,43.9462911 134.83643,44.1464844 133.967285,44.1464844 C133.044429,44.1464844 132.296145,43.9230979 131.722412,43.4763184 C131.148679,43.0295388 130.861816,42.4643589 130.861816,41.7807617 L131.740723,41.7807617 C131.774903,42.2934596 131.990965,42.6926255 132.388916,42.9782715 C132.786867,43.2639174 133.312985,43.4067383 133.967285,43.4067383 C134.57764,43.4067383 135.070799,43.2724623 135.446777,43.0039062 C135.822756,42.7353502 136.010742,42.3959981 136.010742,41.9858398 Z M143.928711,44.1464844 C143.254879,44.1464844 142.645755,43.9804704 142.101318,43.6484375 C141.556882,43.3164046 141.133302,42.8537627 140.830566,42.260498 C140.527831,41.6672334 140.376465,41.0019568 140.376465,40.2646484 L140.376465,39.949707 C140.376465,39.1879845 140.524168,38.5019562 140.81958,37.8916016 C141.114992,37.2812469 141.526365,36.8015154 142.053711,36.4523926 C142.581057,36.1032697 143.152341,35.9287109 143.767578,35.9287109 C144.729497,35.9287109 145.492429,36.2570768 146.056396,36.9138184 C146.620364,37.5705599 146.902344,38.4677677 146.902344,39.6054688 L146.902344,40.0961914 L141.248047,40.0961914 L141.248047,40.2646484 C141.248047,41.1630904 141.505613,41.911374 142.020752,42.5095215 C142.535891,43.107669 143.184078,43.4067383 143.965332,43.4067383 C144.434084,43.4067383 144.847899,43.3212899 145.206787,43.1503906 C145.565676,42.9794913 145.8916,42.7060566 146.18457,42.3300781 L146.733887,42.7475586 C146.089352,43.6801804 145.154303,44.1464844 143.928711,44.1464844 Z M143.767578,36.6757812 C143.108395,36.6757812 142.552981,36.9174781 142.101318,37.4008789 C141.649656,37.8842798 141.375,38.5336873 141.277344,39.3491211 L146.030762,39.3491211 L146.030762,39.2539062 C146.006348,38.4921837 145.789065,37.8720727 145.378906,37.3935547 C144.968748,36.9150367 144.431644,36.6757812 143.767578,36.6757812 Z M155.611328,44 C155.523437,43.7509753 155.467285,43.3823267 155.442871,42.894043 C155.135252,43.2944356 154.743411,43.6032704 154.267334,43.8205566 C153.791257,44.0378429 153.287112,44.1464844 152.754883,44.1464844 C151.99316,44.1464844 151.376711,43.9340842 150.905518,43.5092773 C150.434324,43.0844705 150.19873,42.5473665 150.19873,41.8979492 C150.19873,41.126461 150.519772,40.5161155 151.161865,40.0668945 C151.803958,39.6176735 152.698725,39.3930664 153.846191,39.3930664 L155.435547,39.3930664 L155.435547,38.4921875 C155.435547,37.9257784 155.260988,37.4802262 154.911865,37.1555176 C154.562742,36.8308089 154.053714,36.668457 153.384766,36.668457 C152.774411,36.668457 152.269045,36.8247055 151.868652,37.137207 C151.46826,37.4497086 151.268066,37.8256814 151.268066,38.2651367 L150.38916,38.2578125 C150.38916,37.6279265 150.682126,37.0822777 151.268066,36.6208496 C151.854007,36.1594215 152.574214,35.9287109 153.428711,35.9287109 C154.312504,35.9287109 155.009519,36.149656 155.519775,36.5915527 C156.030032,37.0334495 156.29248,37.6498984 156.307129,38.440918 L156.307129,42.190918 C156.307129,42.9575234 156.387695,43.5312481 156.548828,43.9121094 L156.548828,44 L155.611328,44 Z M152.857422,43.3701172 C153.443362,43.3701172 153.967039,43.228517 154.428467,42.9453125 C154.889895,42.662108 155.225585,42.2836938 155.435547,41.8100586 L155.435547,40.0668945 L153.868164,40.0668945 C152.994136,40.0766602 152.310549,40.2365707 151.817383,40.5466309 C151.324216,40.856691 151.077637,41.2827121 151.077637,41.824707 C151.077637,42.2690452 151.24243,42.6376938 151.572021,42.9306641 C151.901613,43.2236343 152.330075,43.3701172 152.857422,43.3701172 Z M167.272461,44 L166.393555,44 L166.393555,32.75 L167.272461,32.75 L167.272461,44 Z M174.72168,44.1464844 C174.047848,44.1464844 173.438723,43.9804704 172.894287,43.6484375 C172.349851,43.3164046 171.926271,42.8537627 171.623535,42.260498 C171.320799,41.6672334 171.169434,41.0019568 171.169434,40.2646484 L171.169434,39.949707 C171.169434,39.1879845 171.317137,38.5019562 171.612549,37.8916016 C171.90796,37.2812469 172.319333,36.8015154 172.84668,36.4523926 C173.374026,36.1032697 173.945309,35.9287109 174.560547,35.9287109 C175.522466,35.9287109 176.285398,36.2570768 176.849365,36.9138184 C177.413333,37.5705599 177.695312,38.4677677 177.695312,39.6054688 L177.695312,40.0961914 L172.041016,40.0961914 L172.041016,40.2646484 C172.041016,41.1630904 172.298581,41.911374 172.813721,42.5095215 C173.32886,43.107669 173.977047,43.4067383 174.758301,43.4067383 C175.227053,43.4067383 175.640867,43.3212899 175.999756,43.1503906 C176.358644,42.9794913 176.684569,42.7060566 176.977539,42.3300781 L177.526855,42.7475586 C176.882321,43.6801804 175.947272,44.1464844 174.72168,44.1464844 Z M174.560547,36.6757812 C173.901364,36.6757812 173.34595,36.9174781 172.894287,37.4008789 C172.442625,37.8842798 172.167969,38.5336873 172.070312,39.3491211 L176.82373,39.3491211 L176.82373,39.2539062 C176.799316,38.4921837 176.582033,37.8720727 176.171875,37.3935547 C175.761717,36.9150367 175.224613,36.6757812 174.560547,36.6757812 Z M183.774902,42.7915039 L186.18457,36.0751953 L187.085449,36.0751953 L184.126465,44 L183.416016,44 L180.442383,36.0751953 L181.343262,36.0751953 L183.774902,42.7915039 Z M193.494629,44.1464844 C192.820797,44.1464844 192.211673,43.9804704 191.667236,43.6484375 C191.1228,43.3164046 190.69922,42.8537627 190.396484,42.260498 C190.093748,41.6672334 189.942383,41.0019568 189.942383,40.2646484 L189.942383,39.949707 C189.942383,39.1879845 190.090086,38.5019562 190.385498,37.8916016 C190.68091,37.2812469 191.092283,36.8015154 191.619629,36.4523926 C192.146975,36.1032697 192.718259,35.9287109 193.333496,35.9287109 C194.295415,35.9287109 195.058347,36.2570768 195.622314,36.9138184 C196.186282,37.5705599 196.468262,38.4677677 196.468262,39.6054688 L196.468262,40.0961914 L190.813965,40.0961914 L190.813965,40.2646484 C190.813965,41.1630904 191.071531,41.911374 191.58667,42.5095215 C192.101809,43.107669 192.749996,43.4067383 193.53125,43.4067383 C194.000002,43.4067383 194.413817,43.3212899 194.772705,43.1503906 C195.131594,42.9794913 195.457518,42.7060566 195.750488,42.3300781 L196.299805,42.7475586 C195.65527,43.6801804 194.720221,44.1464844 193.494629,44.1464844 Z M193.333496,36.6757812 C192.674313,36.6757812 192.118899,36.9174781 191.667236,37.4008789 C191.215574,37.8842798 190.940918,38.5336873 190.843262,39.3491211 L195.59668,39.3491211 L195.59668,39.2539062 C195.572266,38.4921837 195.354983,37.8720727 194.944824,37.3935547 C194.534666,36.9150367 193.997562,36.6757812 193.333496,36.6757812 Z M201.15625,44 L200.277344,44 L200.277344,32.75 L201.15625,32.75 L201.15625,44 Z M205.353516,45.9921875 L204.833496,45.6113281 C205.277834,45.015622 205.507324,44.3979524 205.521973,43.7583008 L205.521973,42.6230469 L206.378906,42.6230469 L206.378906,43.5385742 C206.378906,44.5542043 206.037113,45.3720672 205.353516,45.9921875 Z M217.41748,34.0463867 L217.41748,36.0751953 L219.058105,36.0751953 L219.058105,36.7929688 L217.41748,36.7929688 L217.41748,42.0737305 C217.41748,42.5131858 217.496825,42.840331 217.655518,43.0551758 C217.81421,43.2700206 218.0791,43.3774414 218.450195,43.3774414 C218.59668,43.3774414 218.833494,43.3530276 219.160645,43.3041992 L219.197266,44.0219727 C218.967772,44.1049809 218.655275,44.1464844 218.259766,44.1464844 C217.659177,44.1464844 217.222169,43.9719256 216.94873,43.6228027 C216.675292,43.2736799 216.538574,42.759769 216.538574,42.0810547 L216.538574,36.7929688 L215.081055,36.7929688 L215.081055,36.0751953 L216.538574,36.0751953 L216.538574,34.0463867 L217.41748,34.0463867 Z M223.746094,37.4155273 C224.034181,36.9418922 224.40283,36.5756849 224.852051,36.3168945 C225.301272,36.0581042 225.79199,35.9287109 226.324219,35.9287109 C227.173832,35.9287109 227.80615,36.1679664 228.221191,36.6464844 C228.636233,37.1250024 228.846191,37.8427687 228.851074,38.7998047 L228.851074,44 L227.979492,44 L227.979492,38.7924805 C227.974609,38.0844691 227.824464,37.5571306 227.529053,37.2104492 C227.233641,36.8637678 226.761234,36.6904297 226.111816,36.6904297 C225.569822,36.6904297 225.09009,36.8601057 224.672607,37.1994629 C224.255125,37.5388201 223.94629,37.9965792 223.746094,38.5727539 L223.746094,44 L222.874512,44 L222.874512,32.75 L223.746094,32.75 L223.746094,37.4155273 Z M236.175781,44.1464844 C235.50195,44.1464844 234.892825,43.9804704 234.348389,43.6484375 C233.803952,43.3164046 233.380373,42.8537627 233.077637,42.260498 C232.774901,41.6672334 232.623535,41.0019568 232.623535,40.2646484 L232.623535,39.949707 C232.623535,39.1879845 232.771239,38.5019562 233.06665,37.8916016 C233.362062,37.2812469 233.773435,36.8015154 234.300781,36.4523926 C234.828128,36.1032697 235.399411,35.9287109 236.014648,35.9287109 C236.976567,35.9287109 237.739499,36.2570768 238.303467,36.9138184 C238.867434,37.5705599 239.149414,38.4677677 239.149414,39.6054688 L239.149414,40.0961914 L233.495117,40.0961914 L233.495117,40.2646484 C233.495117,41.1630904 233.752683,41.911374 234.267822,42.5095215 C234.782962,43.107669 235.431148,43.4067383 236.212402,43.4067383 C236.681155,43.4067383 237.094969,43.3212899 237.453857,43.1503906 C237.812746,42.9794913 238.13867,42.7060566 238.431641,42.3300781 L238.980957,42.7475586 C238.336423,43.6801804 237.401373,44.1464844 236.175781,44.1464844 Z M236.014648,36.6757812 C235.355465,36.6757812 234.800051,36.9174781 234.348389,37.4008789 C233.896726,37.8842798 233.622071,38.5336873 233.524414,39.3491211 L238.277832,39.3491211 L238.277832,39.2539062 C238.253418,38.4921837 238.036135,37.8720727 237.625977,37.3935547 C237.215818,36.9150367 236.678714,36.6757812 236.014648,36.6757812 Z M2.12402344,62 L1.24511719,62 L1.24511719,50.75 L2.12402344,50.75 L2.12402344,62 Z M6.02099609,57.9204102 C6.02099609,57.1586876 6.16869969,56.4726593 6.46411133,55.8623047 C6.75952296,55.2519501 7.17699926,54.7771013 7.71655273,54.4377441 C8.25610621,54.098387 8.86767236,53.9287109 9.55126953,53.9287109 C10.6059623,53.9287109 11.4604459,54.2985803 12.1147461,55.0383301 C12.7690462,55.7780799 13.0961914,56.7582947 13.0961914,57.9790039 L13.0961914,58.1621094 C13.0961914,58.9287148 12.9484878,59.6184051 12.6530762,60.2312012 C12.3576645,60.8439972 11.9414089,61.3164046 11.4042969,61.6484375 C10.8671848,61.9804704 10.254398,62.1464844 9.56591797,62.1464844 C8.51610803,62.1464844 7.66284508,61.776615 7.00610352,61.0368652 C6.34936195,60.2971154 6.02099609,59.3169006 6.02099609,58.0961914 L6.02099609,57.9204102 Z M6.89990234,58.1621094 C6.89990234,59.1093797 7.14526122,59.8869599 7.63598633,60.494873 C8.12671144,61.1027862 8.77001555,61.4067383 9.56591797,61.4067383 C10.3569375,61.4067383 10.9978003,61.1027862 11.4885254,60.494873 C11.9792505,59.8869599 12.2246094,59.0849659 12.2246094,58.0888672 L12.2246094,57.9204102 C12.2246094,57.3149384 12.1123058,56.7607447 11.8876953,56.2578125 C11.6630848,55.7548803 11.3481466,55.3654799 10.9428711,55.0895996 C10.5375956,54.8137193 10.0737331,54.6757812 9.55126953,54.6757812 C8.77001562,54.6757812 8.13281497,54.9821747 7.63964844,55.5949707 C7.14648191,56.2077667 6.89990234,57.0097607 6.89990234,58.0009766 L6.89990234,58.1621094 Z M18.8022461,60.1762695 L18.934082,60.8574219 L19.1098633,60.1396484 L21.0141602,54.0751953 L21.7612305,54.0751953 L23.6435547,60.0883789 L23.8486328,60.9233398 L24.0170898,60.1542969 L25.6430664,54.0751953 L26.5512695,54.0751953 L24.2441406,62 L23.4970703,62 L21.4609375,55.7158203 L21.3657227,55.2836914 L21.2705078,55.7231445 L19.2709961,62 L18.5239258,62 L16.2241211,54.0751953 L17.125,54.0751953 L18.8022461,60.1762695 Z M33.2827148,62.1464844 C32.6088833,62.1464844 31.9997586,61.9804704 31.4553223,61.6484375 C30.9108859,61.3164046 30.4873062,60.8537627 30.1845703,60.260498 C29.8818344,59.6672334 29.7304688,59.0019568 29.7304688,58.2646484 L29.7304688,57.949707 C29.7304688,57.1879845 29.8781724,56.5019562 30.173584,55.8916016 C30.4689956,55.2812469 30.8803685,54.8015154 31.4077148,54.4523926 C31.9350612,54.1032697 32.5063446,53.9287109 33.121582,53.9287109 C34.0835009,53.9287109 34.8464327,54.2570768 35.4104004,54.9138184 C35.9743681,55.5705599 36.2563477,56.4677677 36.2563477,57.6054688 L36.2563477,58.0961914 L30.6020508,58.0961914 L30.6020508,58.2646484 C30.6020508,59.1630904 30.8596166,59.911374 31.3747559,60.5095215 C31.8898952,61.107669 32.538082,61.4067383 33.3193359,61.4067383 C33.7880883,61.4067383 34.2019025,61.3212899 34.560791,61.1503906 C34.9196795,60.9794913 35.245604,60.7060566 35.5385742,60.3300781 L36.0878906,60.7475586 C35.4433562,61.6801804 34.5083069,62.1464844 33.2827148,62.1464844 Z M33.121582,54.6757812 C32.462399,54.6757812 31.9069847,54.9174781 31.4553223,55.4008789 C31.0036599,55.8842798 30.7290044,56.5336873 30.6313477,57.3491211 L35.3847656,57.3491211 L35.3847656,57.2539062 C35.3603514,56.4921837 35.1430685,55.8720727 34.7329102,55.3935547 C34.3227519,54.9150367 33.7856479,54.6757812 33.121582,54.6757812 Z M44.7089844,59.9858398 C44.7089844,59.5512674 44.5344256,59.2021498 44.1853027,58.9384766 C43.8361799,58.6748034 43.3100621,58.4685066 42.6069336,58.3195801 C41.9038051,58.1706536 41.3581562,57.9997568 40.9699707,57.8068848 C40.5817852,57.6140127 40.2937021,57.3784194 40.1057129,57.1000977 C39.9177237,56.821776 39.8237305,56.4848653 39.8237305,56.0893555 C39.8237305,55.4643523 40.0849583,54.9480001 40.6074219,54.5402832 C41.1298854,54.1325663 41.798824,53.9287109 42.6142578,53.9287109 C43.4980513,53.9287109 44.2072727,54.1472146 44.7419434,54.5842285 C45.276614,55.0212424 45.5439453,55.5913051 45.5439453,56.2944336 L44.6650391,56.2944336 C44.6650391,55.8305641 44.4709492,55.4448258 44.0827637,55.137207 C43.6945781,54.8295883 43.2050811,54.6757812 42.6142578,54.6757812 C42.0380831,54.6757812 41.5754412,54.8039538 41.2263184,55.0603027 C40.8771955,55.3166517 40.7026367,55.6499003 40.7026367,56.0600586 C40.7026367,56.4555684 40.8478989,56.7619618 41.1384277,56.979248 C41.4289565,57.1965343 41.9587364,57.3955069 42.7277832,57.5761719 C43.49683,57.7568368 44.0729961,57.949706 44.4562988,58.1547852 C44.8396015,58.3598643 45.1240225,58.6064439 45.3095703,58.8945312 C45.4951181,59.1826186 45.5878906,59.5317362 45.5878906,59.9418945 C45.5878906,60.6108432 45.3181179,61.1455058 44.7785645,61.5458984 C44.239011,61.9462911 43.5346723,62.1464844 42.6655273,62.1464844 C41.7426712,62.1464844 40.9943876,61.9230979 40.4206543,61.4763184 C39.846921,61.0295388 39.5600586,60.4643589 39.5600586,59.7807617 L40.4389648,59.7807617 C40.4731447,60.2934596 40.689207,60.6926255 41.0871582,60.9782715 C41.4851094,61.2639174 42.0112272,61.4067383 42.6655273,61.4067383 C43.275882,61.4067383 43.7690411,61.2724623 44.1450195,61.0039062 C44.520998,60.7353502 44.7089844,60.3959981 44.7089844,59.9858398 Z M50.9204102,52.0463867 L50.9204102,54.0751953 L52.5610352,54.0751953 L52.5610352,54.7929688 L50.9204102,54.7929688 L50.9204102,60.0737305 C50.9204102,60.5131858 50.9997551,60.840331 51.1584473,61.0551758 C51.3171395,61.2700206 51.5820294,61.3774414 51.953125,61.3774414 C52.0996101,61.3774414 52.3364241,61.3530276 52.6635742,61.3041992 L52.7001953,62.0219727 C52.470702,62.1049809 52.1582051,62.1464844 51.7626953,62.1464844 C51.1621064,62.1464844 50.725099,61.9719256 50.4516602,61.6228027 C50.1782213,61.2736799 50.0415039,60.759769 50.0415039,60.0810547 L50.0415039,54.7929688 L48.5839844,54.7929688 L48.5839844,54.0751953 L50.0415039,54.0751953 L50.0415039,52.0463867 L50.9204102,52.0463867 Z M65.09375,62.1464844 C64.4199185,62.1464844 63.8107937,61.9804704 63.2663574,61.6484375 C62.7219211,61.3164046 62.2983414,60.8537627 61.9956055,60.260498 C61.6928696,59.6672334 61.5415039,59.0019568 61.5415039,58.2646484 L61.5415039,57.949707 C61.5415039,57.1879845 61.6892075,56.5019562 61.9846191,55.8916016 C62.2800308,55.2812469 62.6914036,54.8015154 63.21875,54.4523926 C63.7460964,54.1032697 64.3173797,53.9287109 64.9326172,53.9287109 C65.8945361,53.9287109 66.6574679,54.2570768 67.2214355,54.9138184 C67.7854032,55.5705599 68.0673828,56.4677677 68.0673828,57.6054688 L68.0673828,58.0961914 L62.4130859,58.0961914 L62.4130859,58.2646484 C62.4130859,59.1630904 62.6706517,59.911374 63.185791,60.5095215 C63.7009303,61.107669 64.3491172,61.4067383 65.1303711,61.4067383 C65.5991234,61.4067383 66.0129377,61.3212899 66.3718262,61.1503906 C66.7307147,60.9794913 67.0566392,60.7060566 67.3496094,60.3300781 L67.8989258,60.7475586 C67.2543913,61.6801804 66.3193421,62.1464844 65.09375,62.1464844 Z M64.9326172,54.6757812 C64.2734342,54.6757812 63.7180198,54.9174781 63.2663574,55.4008789 C62.814695,55.8842798 62.5400396,56.5336873 62.4423828,57.3491211 L67.1958008,57.3491211 L67.1958008,57.2539062 C67.1713866,56.4921837 66.9541036,55.8720727 66.5439453,55.3935547 C66.133787,54.9150367 65.596683,54.6757812 64.9326172,54.6757812 Z M72.7553711,62 L71.8764648,62 L71.8764648,50.75 L72.7553711,50.75 L72.7553711,62 Z M80.2045898,62.1464844 C79.5307583,62.1464844 78.9216336,61.9804704 78.3771973,61.6484375 C77.8327609,61.3164046 77.4091812,60.8537627 77.1064453,60.260498 C76.8037094,59.6672334 76.6523438,59.0019568 76.6523438,58.2646484 L76.6523438,57.949707 C76.6523438,57.1879845 76.8000474,56.5019562 77.095459,55.8916016 C77.3908706,55.2812469 77.8022435,54.8015154 78.3295898,54.4523926 C78.8569362,54.1032697 79.4282196,53.9287109 80.043457,53.9287109 C81.0053759,53.9287109 81.7683077,54.2570768 82.3322754,54.9138184 C82.8962431,55.5705599 83.1782227,56.4677677 83.1782227,57.6054688 L83.1782227,58.0961914 L77.5239258,58.0961914 L77.5239258,58.2646484 C77.5239258,59.1630904 77.7814916,59.911374 78.2966309,60.5095215 C78.8117702,61.107669 79.459957,61.4067383 80.2412109,61.4067383 C80.7099633,61.4067383 81.1237775,61.3212899 81.482666,61.1503906 C81.8415545,60.9794913 82.167479,60.7060566 82.4604492,60.3300781 L83.0097656,60.7475586 C82.3652312,61.6801804 81.4301819,62.1464844 80.2045898,62.1464844 Z M80.043457,54.6757812 C79.384274,54.6757812 78.8288597,54.9174781 78.3771973,55.4008789 C77.9255349,55.8842798 77.6508794,56.5336873 77.5532227,57.3491211 L82.3066406,57.3491211 L82.3066406,57.2539062 C82.2822264,56.4921837 82.0649435,55.8720727 81.6547852,55.3935547 C81.2446269,54.9150367 80.7075229,54.6757812 80.043457,54.6757812 Z M89.2578125,60.7915039 L91.6674805,54.0751953 L92.5683594,54.0751953 L89.609375,62 L88.8989258,62 L85.925293,54.0751953 L86.8261719,54.0751953 L89.2578125,60.7915039 Z M100.896484,62 C100.808593,61.7509753 100.752442,61.3823267 100.728027,60.894043 C100.420409,61.2944356 100.028567,61.6032704 99.5524902,61.8205566 C99.0764136,62.0378429 98.5722683,62.1464844 98.0400391,62.1464844 C97.2783165,62.1464844 96.6618676,61.9340842 96.1906738,61.5092773 C95.7194801,61.0844705 95.4838867,60.5473665 95.4838867,59.8979492 C95.4838867,59.126461 95.8049284,58.5161155 96.4470215,58.0668945 C97.0891145,57.6176735 97.983881,57.3930664 99.1313477,57.3930664 L100.720703,57.3930664 L100.720703,56.4921875 C100.720703,55.9257784 100.546144,55.4802262 100.197021,55.1555176 C99.8478986,54.8308089 99.3388705,54.668457 98.6699219,54.668457 C98.0595673,54.668457 97.5542012,54.8247055 97.1538086,55.137207 C96.753416,55.4497086 96.5532227,55.8256814 96.5532227,56.2651367 L95.6743164,56.2578125 C95.6743164,55.6279265 95.9672822,55.0822777 96.5532227,54.6208496 C97.1391631,54.1594215 97.8593707,53.9287109 98.7138672,53.9287109 C99.5976607,53.9287109 100.294675,54.149656 100.804932,54.5915527 C101.315188,55.0334495 101.577637,55.6498984 101.592285,56.440918 L101.592285,60.190918 C101.592285,60.9575234 101.672851,61.5312481 101.833984,61.9121094 L101.833984,62 L100.896484,62 Z M98.1425781,61.3701172 C98.7285186,61.3701172 99.252195,61.228517 99.713623,60.9453125 C100.175051,60.662108 100.510741,60.2836938 100.720703,59.8100586 L100.720703,58.0668945 L99.1533203,58.0668945 C98.2792925,58.0766602 97.5957056,58.2365707 97.1025391,58.5466309 C96.6093725,58.856691 96.362793,59.2827121 96.362793,59.824707 C96.362793,60.2690452 96.5275862,60.6376938 96.8571777,60.9306641 C97.1867692,61.2236343 97.6152317,61.3701172 98.1425781,61.3701172 Z M107.291016,52.0463867 L107.291016,54.0751953 L108.931641,54.0751953 L108.931641,54.7929688 L107.291016,54.7929688 L107.291016,60.0737305 C107.291016,60.5131858 107.370361,60.840331 107.529053,61.0551758 C107.687745,61.2700206 107.952635,61.3774414 108.32373,61.3774414 C108.470216,61.3774414 108.70703,61.3530276 109.03418,61.3041992 L109.070801,62.0219727 C108.841307,62.1049809 108.528811,62.1464844 108.133301,62.1464844 C107.532712,62.1464844 107.095704,61.9719256 106.822266,61.6228027 C106.548827,61.2736799 106.412109,60.759769 106.412109,60.0810547 L106.412109,54.7929688 L104.95459,54.7929688 L104.95459,54.0751953 L106.412109,54.0751953 L106.412109,52.0463867 L107.291016,52.0463867 Z M113.729492,62 L112.850586,62 L112.850586,54.0751953 L113.729492,54.0751953 L113.729492,62 Z M112.696777,51.7827148 C112.696777,51.6166984 112.750488,51.4763189 112.85791,51.3615723 C112.965333,51.2468256 113.111815,51.1894531 113.297363,51.1894531 C113.482911,51.1894531 113.630615,51.2468256 113.740479,51.3615723 C113.850342,51.4763189 113.905273,51.6166984 113.905273,51.7827148 C113.905273,51.9487313 113.850342,52.0878901 113.740479,52.2001953 C113.630615,52.3125006 113.482911,52.3686523 113.297363,52.3686523 C113.111815,52.3686523 112.965333,52.3125006 112.85791,52.2001953 C112.750488,52.0878901 112.696777,51.9487313 112.696777,51.7827148 Z M117.626465,57.9204102 C117.626465,57.1586876 117.774168,56.4726593 118.06958,55.8623047 C118.364992,55.2519501 118.782468,54.7771013 119.322021,54.4377441 C119.861575,54.098387 120.473141,53.9287109 121.156738,53.9287109 C122.211431,53.9287109 123.065915,54.2985803 123.720215,55.0383301 C124.374515,55.7780799 124.70166,56.7582947 124.70166,57.9790039 L124.70166,58.1621094 C124.70166,58.9287148 124.553957,59.6184051 124.258545,60.2312012 C123.963133,60.8439972 123.546878,61.3164046 123.009766,61.6484375 C122.472654,61.9804704 121.859867,62.1464844 121.171387,62.1464844 C120.121577,62.1464844 119.268314,61.776615 118.611572,61.0368652 C117.954831,60.2971154 117.626465,59.3169006 117.626465,58.0961914 L117.626465,57.9204102 Z M118.505371,58.1621094 C118.505371,59.1093797 118.75073,59.8869599 119.241455,60.494873 C119.73218,61.1027862 120.375484,61.4067383 121.171387,61.4067383 C121.962406,61.4067383 122.603269,61.1027862 123.093994,60.494873 C123.584719,59.8869599 123.830078,59.0849659 123.830078,58.0888672 L123.830078,57.9204102 C123.830078,57.3149384 123.717775,56.7607447 123.493164,56.2578125 C123.268554,55.7548803 122.953615,55.3654799 122.54834,55.0895996 C122.143064,54.8137193 121.679202,54.6757812 121.156738,54.6757812 C120.375484,54.6757812 119.738284,54.9821747 119.245117,55.5949707 C118.751951,56.2077667 118.505371,57.0097607 118.505371,58.0009766 L118.505371,58.1621094 Z M129.345703,54.0751953 L129.375,55.4301758 C129.672853,54.9418921 130.043943,54.5695814 130.488281,54.3132324 C130.932619,54.0568835 131.423337,53.9287109 131.960449,53.9287109 C132.810063,53.9287109 133.442381,54.1679664 133.857422,54.6464844 C134.272463,55.1250024 134.482422,55.8427687 134.487305,56.7998047 L134.487305,62 L133.615723,62 L133.615723,56.7924805 C133.61084,56.0844691 133.460695,55.5571306 133.165283,55.2104492 C132.869872,54.8637678 132.397464,54.6904297 131.748047,54.6904297 C131.206052,54.6904297 130.72632,54.8601057 130.308838,55.1994629 C129.891355,55.5388201 129.582521,55.9965792 129.382324,56.5727539 L129.382324,62 L128.510742,62 L128.510742,54.0751953 L129.345703,54.0751953 Z M145.379395,62 L144.500488,62 L144.500488,54.0751953 L145.379395,54.0751953 L145.379395,62 Z M144.34668,51.7827148 C144.34668,51.6166984 144.40039,51.4763189 144.507812,51.3615723 C144.615235,51.2468256 144.761718,51.1894531 144.947266,51.1894531 C145.132813,51.1894531 145.280517,51.2468256 145.390381,51.3615723 C145.500245,51.4763189 145.555176,51.6166984 145.555176,51.7827148 C145.555176,51.9487313 145.500245,52.0878901 145.390381,52.2001953 C145.280517,52.3125006 145.132813,52.3686523 144.947266,52.3686523 C144.761718,52.3686523 144.615235,52.3125006 144.507812,52.2001953 C144.40039,52.0878901 144.34668,51.9487313 144.34668,51.7827148 Z M150.594727,54.0751953 L150.624023,55.4301758 C150.921876,54.9418921 151.292967,54.5695814 151.737305,54.3132324 C152.181643,54.0568835 152.672361,53.9287109 153.209473,53.9287109 C154.059086,53.9287109 154.691404,54.1679664 155.106445,54.6464844 C155.521486,55.1250024 155.731445,55.8427687 155.736328,56.7998047 L155.736328,62 L154.864746,62 L154.864746,56.7924805 C154.859863,56.0844691 154.709718,55.5571306 154.414307,55.2104492 C154.118895,54.8637678 153.646488,54.6904297 152.99707,54.6904297 C152.455075,54.6904297 151.975344,54.8601057 151.557861,55.1994629 C151.140379,55.5388201 150.831544,55.9965792 150.631348,56.5727539 L150.631348,62 L149.759766,62 L149.759766,54.0751953 L150.594727,54.0751953 Z M173.791504,62 L172.890625,62 L166.760254,52.8740234 L166.760254,62 L165.852051,62 L165.852051,51.3359375 L166.760254,51.3359375 L172.897949,60.4692383 L172.897949,51.3359375 L173.791504,51.3359375 L173.791504,62 Z M177.812988,57.9204102 C177.812988,57.1586876 177.960692,56.4726593 178.256104,55.8623047 C178.551515,55.2519501 178.968991,54.7771013 179.508545,54.4377441 C180.048098,54.098387 180.659665,53.9287109 181.343262,53.9287109 C182.397954,53.9287109 183.252438,54.2985803 183.906738,55.0383301 C184.561038,55.7780799 184.888184,56.7582947 184.888184,57.9790039 L184.888184,58.1621094 C184.888184,58.9287148 184.74048,59.6184051 184.445068,60.2312012 C184.149657,60.8439972 183.733401,61.3164046 183.196289,61.6484375 C182.659177,61.9804704 182.04639,62.1464844 181.35791,62.1464844 C180.3081,62.1464844 179.454837,61.776615 178.798096,61.0368652 C178.141354,60.2971154 177.812988,59.3169006 177.812988,58.0961914 L177.812988,57.9204102 Z M178.691895,58.1621094 C178.691895,59.1093797 178.937253,59.8869599 179.427979,60.494873 C179.918704,61.1027862 180.562008,61.4067383 181.35791,61.4067383 C182.14893,61.4067383 182.789792,61.1027862 183.280518,60.494873 C183.771243,59.8869599 184.016602,59.0849659 184.016602,58.0888672 L184.016602,57.9204102 C184.016602,57.3149384 183.904298,56.7607447 183.679688,56.2578125 C183.455077,55.7548803 183.140139,55.3654799 182.734863,55.0895996 C182.329588,54.8137193 181.865725,54.6757812 181.343262,54.6757812 C180.562008,54.6757812 179.924807,54.9821747 179.431641,55.5949707 C178.938474,56.2077667 178.691895,57.0097607 178.691895,58.0009766 L178.691895,58.1621094 Z M192.359375,54.8222656 C192.173827,54.7880858 191.976075,54.7709961 191.766113,54.7709961 C191.219236,54.7709961 190.756594,54.9235825 190.378174,55.2287598 C189.999754,55.5339371 189.729981,55.9770479 189.568848,56.5581055 L189.568848,62 L188.697266,62 L188.697266,54.0751953 L189.554199,54.0751953 L189.568848,55.3349609 C190.032717,54.3974563 190.777339,53.9287109 191.802734,53.9287109 C192.046876,53.9287109 192.239745,53.9604489 192.381348,54.0239258 L192.359375,54.8222656 Z M197.472168,52.0463867 L197.472168,54.0751953 L199.112793,54.0751953 L199.112793,54.7929688 L197.472168,54.7929688 L197.472168,60.0737305 C197.472168,60.5131858 197.551513,60.840331 197.710205,61.0551758 C197.868897,61.2700206 198.133787,61.3774414 198.504883,61.3774414 C198.651368,61.3774414 198.888182,61.3530276 199.215332,61.3041992 L199.251953,62.0219727 C199.02246,62.1049809 198.709963,62.1464844 198.314453,62.1464844 C197.713864,62.1464844 197.276857,61.9719256 197.003418,61.6228027 C196.729979,61.2736799 196.593262,60.759769 196.593262,60.0810547 L196.593262,54.7929688 L195.135742,54.7929688 L195.135742,54.0751953 L196.593262,54.0751953 L196.593262,52.0463867 L197.472168,52.0463867 Z M203.800781,55.4155273 C204.088869,54.9418922 204.457517,54.5756849 204.906738,54.3168945 C205.355959,54.0581042 205.846677,53.9287109 206.378906,53.9287109 C207.22852,53.9287109 207.860838,54.1679664 208.275879,54.6464844 C208.69092,55.1250024 208.900879,55.8427687 208.905762,56.7998047 L208.905762,62 L208.03418,62 L208.03418,56.7924805 C208.029297,56.0844691 207.879152,55.5571306 207.58374,55.2104492 C207.288329,54.8637678 206.815921,54.6904297 206.166504,54.6904297 C205.624509,54.6904297 205.144777,54.8601057 204.727295,55.1994629 C204.309812,55.5388201 204.000978,55.9965792 203.800781,56.5727539 L203.800781,62 L202.929199,62 L202.929199,50.75 L203.800781,50.75 L203.800781,55.4155273 Z M7.10449219,77.0117188 L2.26318359,77.0117188 L1.16455078,80 L0.219726562,80 L4.25537109,69.3359375 L5.11230469,69.3359375 L9.14794922,80 L8.21044922,80 L7.10449219,77.0117188 Z M2.54150391,76.2426758 L6.81884766,76.2426758 L4.68017578,70.4345703 L2.54150391,76.2426758 Z M13.3085938,72.0751953 L13.3378906,73.3642578 C13.6308608,72.8857398 13.9970681,72.5268567 14.4365234,72.2875977 C14.8759788,72.0483386 15.3642551,71.9287109 15.9013672,71.9287109 C17.1513734,71.9287109 17.9448225,72.4414011 18.2817383,73.4667969 C18.5649428,72.9736303 18.943357,72.5939955 19.4169922,72.3278809 C19.8906274,72.0617662 20.4130831,71.9287109 20.984375,71.9287109 C22.6836022,71.9287109 23.5502928,72.856436 23.5844727,74.7119141 L23.5844727,80 L22.7055664,80 L22.7055664,74.777832 C22.7006836,74.0698207 22.5480972,73.5449236 22.2478027,73.203125 C21.9475083,72.8613264 21.4580112,72.6904297 20.7792969,72.6904297 C20.1494109,72.7001954 19.6171897,72.9040507 19.1826172,73.302002 C18.7480447,73.6999532 18.5063479,74.1845675 18.4575195,74.7558594 L18.4575195,80 L17.5786133,80 L17.5786133,74.7119141 C17.5737304,74.0331997 17.4138199,73.526613 17.098877,73.1921387 C16.783934,72.8576643 16.2993197,72.6904297 15.6450195,72.6904297 C15.093259,72.6904297 14.6196309,72.8478988 14.2241211,73.1628418 C13.8286113,73.4777848 13.5356455,73.9453094 13.3452148,74.5654297 L13.3452148,80 L12.4663086,80 L12.4663086,72.0751953 L13.3085938,72.0751953 Z M30.8725586,80.1464844 C30.1987271,80.1464844 29.5896023,79.9804704 29.045166,79.6484375 C28.5007297,79.3164046 28.07715,78.8537627 27.7744141,78.260498 C27.4716782,77.6672334 27.3203125,77.0019568 27.3203125,76.2646484 L27.3203125,75.949707 C27.3203125,75.1879845 27.4680161,74.5019562 27.7634277,73.8916016 C28.0588394,73.2812469 28.4702122,72.8015154 28.9975586,72.4523926 C29.524905,72.1032697 30.0961883,71.9287109 30.7114258,71.9287109 C31.6733447,71.9287109 32.4362765,72.2570768 33.0002441,72.9138184 C33.5642118,73.5705599 33.8461914,74.4677677 33.8461914,75.6054688 L33.8461914,76.0961914 L28.1918945,76.0961914 L28.1918945,76.2646484 C28.1918945,77.1630904 28.4494603,77.911374 28.9645996,78.5095215 C29.4797389,79.107669 30.1279258,79.4067383 30.9091797,79.4067383 C31.377932,79.4067383 31.7917463,79.3212899 32.1506348,79.1503906 C32.5095233,78.9794913 32.8354478,78.7060566 33.128418,78.3300781 L33.6777344,78.7475586 C33.0331999,79.6801804 32.0981507,80.1464844 30.8725586,80.1464844 Z M30.7114258,72.6757812 C30.0522428,72.6757812 29.4968284,72.9174781 29.045166,73.4008789 C28.5935036,73.8842798 28.3188481,74.5336873 28.2211914,75.3491211 L32.9746094,75.3491211 L32.9746094,75.2539062 C32.9501952,74.4921837 32.7329122,73.8720727 32.3227539,73.3935547 C31.9125956,72.9150367 31.3754916,72.6757812 30.7114258,72.6757812 Z M41.2148438,72.8222656 C41.0292959,72.7880858 40.831544,72.7709961 40.621582,72.7709961 C40.0747043,72.7709961 39.6120624,72.9235825 39.2336426,73.2287598 C38.8552227,73.5339371 38.58545,73.9770479 38.4243164,74.5581055 L38.4243164,80 L37.5527344,80 L37.5527344,72.0751953 L38.409668,72.0751953 L38.4243164,73.3349609 C38.8881859,72.3974563 39.6328074,71.9287109 40.6582031,71.9287109 C40.902345,71.9287109 41.0952141,71.9604489 41.2368164,72.0239258 L41.2148438,72.8222656 Z M45.5805664,80 L44.7016602,80 L44.7016602,72.0751953 L45.5805664,72.0751953 L45.5805664,80 Z M44.5478516,69.7827148 C44.5478516,69.6166984 44.601562,69.4763189 44.7089844,69.3615723 C44.8164068,69.2468256 44.9628897,69.1894531 45.1484375,69.1894531 C45.3339853,69.1894531 45.4816889,69.2468256 45.5915527,69.3615723 C45.7014166,69.4763189 45.7563477,69.6166984 45.7563477,69.7827148 C45.7563477,69.9487313 45.7014166,70.0878901 45.5915527,70.2001953 C45.4816889,70.3125006 45.3339853,70.3686523 45.1484375,70.3686523 C44.9628897,70.3686523 44.8164068,70.3125006 44.7089844,70.2001953 C44.601562,70.0878901 44.5478516,69.9487313 44.5478516,69.7827148 Z M52.890625,79.4067383 C53.5009796,79.4067383 54.0124491,79.2346209 54.4250488,78.8903809 C54.8376485,78.5461409 55.061035,78.1005887 55.0952148,77.5537109 L55.9375,77.5537109 C55.9130858,78.0371118 55.7617201,78.4777812 55.4833984,78.8757324 C55.2050767,79.2736836 54.8352074,79.5849598 54.3737793,79.8095703 C53.9123512,80.0341808 53.4179714,80.1464844 52.890625,80.1464844 C51.8505807,80.1464844 51.0266144,79.7851599 50.4187012,79.0625 C49.810788,78.3398401 49.5068359,77.3681702 49.5068359,76.1474609 L49.5068359,75.8837891 C49.5068359,75.1025352 49.6435533,74.4116241 49.9169922,73.8110352 C50.1904311,73.2104462 50.5822728,72.7465837 51.0925293,72.4194336 C51.6027858,72.0922835 52.1997036,71.9287109 52.8833008,71.9287109 C53.7524458,71.9287109 54.4689913,72.1874974 55.032959,72.7050781 C55.5969266,73.2226588 55.8984373,73.9038044 55.9375,74.7485352 L55.0952148,74.7485352 C55.0561521,74.1284149 54.8327657,73.6279316 54.4250488,73.2470703 C54.0173319,72.866209 53.5034211,72.6757812 52.8833008,72.6757812 C52.0922812,72.6757812 51.4782737,72.9614229 51.0412598,73.5327148 C50.6042459,74.1040068 50.3857422,74.90478 50.3857422,75.9350586 L50.3857422,76.1914062 C50.3857422,77.2021535 50.6042459,77.9907198 51.0412598,78.5571289 C51.4782737,79.123538 52.0947226,79.4067383 52.890625,79.4067383 Z M64.6904297,80 C64.6025386,79.7509753 64.5463868,79.3823267 64.5219727,78.894043 C64.2143539,79.2944356 63.8225121,79.6032704 63.3464355,79.8205566 C62.8703589,80.0378429 62.3662136,80.1464844 61.8339844,80.1464844 C61.0722618,80.1464844 60.4558129,79.9340842 59.9846191,79.5092773 C59.5134254,79.0844705 59.277832,78.5473665 59.277832,77.8979492 C59.277832,77.126461 59.5988737,76.5161155 60.2409668,76.0668945 C60.8830599,75.6176735 61.7778263,75.3930664 62.925293,75.3930664 L64.5146484,75.3930664 L64.5146484,74.4921875 C64.5146484,73.9257784 64.3400896,73.4802262 63.9909668,73.1555176 C63.641844,72.8308089 63.1328158,72.668457 62.4638672,72.668457 C61.8535126,72.668457 61.3481465,72.8247055 60.9477539,73.137207 C60.5473613,73.4497086 60.347168,73.8256814 60.347168,74.2651367 L59.4682617,74.2578125 C59.4682617,73.6279265 59.7612275,73.0822777 60.347168,72.6208496 C60.9331084,72.1594215 61.653316,71.9287109 62.5078125,71.9287109 C63.391606,71.9287109 64.0886205,72.149656 64.598877,72.5915527 C65.1091334,73.0334495 65.371582,73.6498984 65.3862305,74.440918 L65.3862305,78.190918 C65.3862305,78.9575234 65.4667961,79.5312481 65.6279297,79.9121094 L65.6279297,80 L64.6904297,80 Z M61.9365234,79.3701172 C62.5224639,79.3701172 63.0461403,79.228517 63.5075684,78.9453125 C63.9689964,78.662108 64.3046865,78.2836938 64.5146484,77.8100586 L64.5146484,76.0668945 L62.9472656,76.0668945 C62.0732378,76.0766602 61.3896509,76.2365707 60.8964844,76.5466309 C60.4033178,76.856691 60.1567383,77.2827121 60.1567383,77.824707 C60.1567383,78.2690452 60.3215316,78.6376938 60.651123,78.9306641 C60.9807145,79.2236343 61.4091771,79.3701172 61.9365234,79.3701172 Z M69.6420898,79.4726562 C69.6420898,79.301757 69.6970209,79.1564947 69.8068848,79.0368652 C69.9167486,78.9172357 70.069335,78.8574219 70.2646484,78.8574219 C70.4599619,78.8574219 70.613769,78.9172357 70.7260742,79.0368652 C70.8383795,79.1564947 70.8945312,79.301757 70.8945312,79.4726562 C70.8945312,79.6435555 70.8383795,79.783935 70.7260742,79.8937988 C70.613769,80.0036627 70.4599619,80.0585938 70.2646484,80.0585938 C70.069335,80.0585938 69.9167486,80.0036627 69.8068848,79.8937988 C69.6970209,79.783935 69.6420898,79.6435555 69.6420898,79.4726562 Z" id="282-feet-below-sea-l"></path>
            </g>
        </g>
    </g>
</svg>