<?xml version="1.0" encoding="UTF-8"?>
<svg width="251px" height="85px" viewBox="0 0 251 85" version="1.1" xmlns="http://www.w3.org/2000/svg" xmlns:xlink="http://www.w3.org/1999/xlink">
    <!-- Generator: Sketch 41.2 (35397) - http://www.bohemiancoding.com/sketch -->
    <title>Group 12</title>
    <desc>Created with Sketch.</desc>
    <defs></defs>
    <g id="Page-1" stroke="none" stroke-width="1" fill="none" fill-rule="evenodd">
        <g id="Desktop-HD" transform="translate(-787.000000, -571.000000)" fill="#000000">
            <g id="Group-12" transform="translate(787.000000, 571.000000)">
                <path d="M9.44824219,9.36328125 L11.0888672,1.3359375 L12.9272461,1.3359375 L10.4663086,12 L8.69384766,12 L6.66503906,4.21435547 L4.59228516,12 L2.8125,12 L0.3515625,1.3359375 L2.18994141,1.3359375 L3.84521484,9.34863281 L5.88134766,1.3359375 L7.43408203,1.3359375 L9.44824219,9.36328125 Z M24.7490234,12 L22.9033203,12 L22.9033203,7.26123047 L18.1352539,7.26123047 L18.1352539,12 L16.2822266,12 L16.2822266,1.3359375 L18.1352539,1.3359375 L18.1352539,5.77441406 L22.9033203,5.77441406 L22.9033203,1.3359375 L24.7490234,1.3359375 L24.7490234,12 Z M35.0400391,9.51708984 L30.9091797,9.51708984 L30.0449219,12 L28.1186523,12 L32.1469727,1.3359375 L33.8095703,1.3359375 L37.8452148,12 L35.9116211,12 L35.0400391,9.51708984 Z M31.4291992,8.02294922 L34.5200195,8.02294922 L32.9746094,3.59912109 L31.4291992,8.02294922 Z M47.8798828,2.83007812 L44.5546875,2.83007812 L44.5546875,12 L42.7163086,12 L42.7163086,2.83007812 L39.4204102,2.83007812 L39.4204102,1.3359375 L47.8798828,1.3359375 L47.8798828,2.83007812 Z M52.4433594,0.75 L54.472168,0.75 L52.4433594,2.96923828 L51.0151367,2.96923828 L52.4433594,0.75 Z M63.737793,9.25341797 C63.737793,8.78466563 63.5729997,8.42334111 63.2434082,8.16943359 C62.9138167,7.91552607 62.3193402,7.65918098 61.4599609,7.40039063 C60.6005816,7.14160027 59.9169947,6.85351721 59.4091797,6.53613281 C58.4374951,5.9257782 57.9516602,5.12988772 57.9516602,4.1484375 C57.9516602,3.2890582 58.3019984,2.58105747 59.0026855,2.02441406 C59.7033726,1.46777065 60.6127874,1.18945312 61.730957,1.18945312 C62.4731482,1.18945312 63.1347627,1.32617051 63.7158203,1.59960938 C64.2968779,1.87304824 64.7534163,2.26244865 65.0854492,2.76782227 C65.4174821,3.27319589 65.5834961,3.83349302 65.5834961,4.44873047 L63.737793,4.44873047 C63.737793,3.89208706 63.5632342,3.4563004 63.2141113,3.14135742 C62.8649885,2.82641444 62.3657259,2.66894531 61.7163086,2.66894531 C61.1108368,2.66894531 60.6408708,2.79833855 60.3063965,3.05712891 C59.9719222,3.31591926 59.8046875,3.67724377 59.8046875,4.14111328 C59.8046875,4.53174023 59.9853498,4.85766471 60.3466797,5.11889648 C60.7080096,5.38012826 61.3037068,5.63403197 62.1337891,5.88061523 C62.9638713,6.1271985 63.6303686,6.40795741 64.1333008,6.72290039 C64.636233,7.03784337 65.0048816,7.39916788 65.2392578,7.80688477 C65.473634,8.21460165 65.5908203,8.6918918 65.5908203,9.23876953 C65.5908203,10.1274458 65.2502475,10.8342259 64.5690918,11.3591309 C63.887936,11.8840358 62.963873,12.1464844 61.796875,12.1464844 C61.0253868,12.1464844 60.3161653,12.0036635 59.6691895,11.7180176 C59.0222136,11.4323716 58.5192889,11.0380885 58.1604004,10.5351562 C57.8015119,10.032224 57.6220703,9.44629241 57.6220703,8.77734375 L59.4750977,8.77734375 C59.4750977,9.38281553 59.675291,9.85156084 60.0756836,10.1835938 C60.4760762,10.5156267 61.049801,10.6816406 61.796875,10.6816406 C62.4414095,10.6816406 62.9260238,10.5510267 63.2507324,10.2897949 C63.5754411,10.0285631 63.737793,9.68310762 63.737793,9.25341797 Z M83.4116211,12 L81.5585938,12 L76.8051758,4.43408203 L76.8051758,12 L74.9521484,12 L74.9521484,1.3359375 L76.8051758,1.3359375 L81.5732422,8.93115234 L81.5732422,1.3359375 L83.4116211,1.3359375 L83.4116211,12 Z M93.8344727,7.23925781 L89.4545898,7.23925781 L89.4545898,10.5205078 L94.5742188,10.5205078 L94.5742188,12 L87.6015625,12 L87.6015625,1.3359375 L94.5229492,1.3359375 L94.5229492,2.83007812 L89.4545898,2.83007812 L89.4545898,5.77441406 L93.8344727,5.77441406 L93.8344727,7.23925781 Z M101.752441,5.18847656 L103.993652,1.3359375 L106.132324,1.3359375 L102.909668,6.62402344 L106.205566,12 L104.044922,12 L101.752441,8.08886719 L99.4526367,12 L97.2993164,12 L100.602539,6.62402344 L97.3725586,1.3359375 L99.5112305,1.3359375 L101.752441,5.18847656 Z M117.280273,2.83007812 L113.955078,2.83007812 L113.955078,12 L112.116699,12 L112.116699,2.83007812 L108.820801,2.83007812 L108.820801,1.3359375 L117.280273,1.3359375 L117.280273,2.83007812 Z M122.158691,8.86523438 C122.158691,8.21581707 122.239257,7.69824412 122.400391,7.3125 C122.561524,6.92675588 122.880125,6.50317614 123.356201,6.04174805 C123.832278,5.58031996 124.133788,5.2519541 124.260742,5.05664062 C124.456056,4.75878757 124.553711,4.43652517 124.553711,4.08984375 C124.553711,3.63085708 124.440187,3.28051879 124.213135,3.03881836 C123.986083,2.79711793 123.652834,2.67626953 123.213379,2.67626953 C122.793455,2.67626953 122.455324,2.79467655 122.198975,3.03149414 C121.942626,3.26831173 121.814453,3.58935344 121.814453,3.99462891 L120.034668,3.99462891 C120.044434,3.13036677 120.33862,2.44677986 120.917236,1.94384766 C121.495853,1.44091545 122.261226,1.18945312 123.213379,1.18945312 C124.194829,1.18945312 124.960202,1.43847407 125.509521,1.93652344 C126.058841,2.4345728 126.333496,3.13036663 126.333496,4.02392578 C126.333496,4.8198282 125.962406,5.60351177 125.220215,6.375 L124.319336,7.26123047 C123.997069,7.62744324 123.831055,8.16210586 123.821289,8.86523438 L122.158691,8.86523438 Z M122.03418,11.1430664 C122.03418,10.854979 122.124511,10.6218271 122.305176,10.4436035 C122.485841,10.26538 122.729979,10.1762695 123.037598,10.1762695 C123.350099,10.1762695 123.596679,10.2678214 123.777344,10.4509277 C123.958009,10.6340341 124.04834,10.8647447 124.04834,11.1430664 C124.04834,11.4116224 123.96045,11.6362296 123.784668,11.8168945 C123.608886,11.9975595 123.359865,12.0878906 123.037598,12.0878906 C122.71533,12.0878906 122.46753,11.9975595 122.294189,11.8168945 C122.120849,11.6362296 122.03418,11.4116224 122.03418,11.1430664 Z" id="WHAT´S-NEXT?"></path>
                <path d="M1.34765625,45 L1.34765625,34.3359375 L4.32861328,34.3359375 C5.20264109,34.3359375 5.98632466,34.5349101 6.6796875,34.9328613 C7.37305034,35.3308125 7.91381642,35.9008752 8.30200195,36.6430664 C8.69018749,37.3852576 8.88427734,38.2299757 8.88427734,39.1772461 L8.88427734,40.1586914 C8.88427734,41.1108446 8.69140818,41.9555627 8.30566406,42.6928711 C7.91991995,43.4301795 7.37671249,43.9990214 6.67602539,44.3994141 C5.97533829,44.7998067 5.17090298,45 4.26269531,45 L1.34765625,45 Z M2.24853516,35.1049805 L2.24853516,44.2382812 L4.27001953,44.2382812 C5.39307202,44.2382812 6.29394192,43.8659705 6.97265625,43.1213379 C7.65137058,42.3767053 7.99072266,41.3696353 7.99072266,40.1000977 L7.99072266,39.1625977 C7.99072266,37.9370056 7.65625334,36.9555701 6.98730469,36.2182617 C6.31835603,35.4809533 5.43701719,35.1098633 4.34326172,35.1049805 L2.24853516,35.1049805 Z M13.9458008,45 L13.0668945,45 L13.0668945,37.0751953 L13.9458008,37.0751953 L13.9458008,45 Z M12.9130859,34.7827148 C12.9130859,34.6166984 12.9667963,34.4763189 13.0742188,34.3615723 C13.1816412,34.2468256 13.3281241,34.1894531 13.5136719,34.1894531 C13.6992197,34.1894531 13.8469233,34.2468256 13.9567871,34.3615723 C14.0666509,34.4763189 14.121582,34.6166984 14.121582,34.7827148 C14.121582,34.9487313 14.0666509,35.0878901 13.9567871,35.2001953 C13.8469233,35.3125006 13.6992197,35.3686523 13.5136719,35.3686523 C13.3281241,35.3686523 13.1816412,35.3125006 13.0742188,35.2001953 C12.9667963,35.0878901 12.9130859,34.9487313 12.9130859,34.7827148 Z M18.9560547,45 L18.9560547,37.7929688 L17.6450195,37.7929688 L17.6450195,37.0751953 L18.9560547,37.0751953 L18.9560547,36.1157227 C18.9560547,35.3051717 19.1623515,34.6826194 19.5749512,34.2480469 C19.9875509,33.8134744 20.5624963,33.5961914 21.2998047,33.5961914 C21.6318376,33.5961914 21.9418931,33.6376949 22.2299805,33.7207031 L22.1640625,34.453125 C21.9199207,34.394531 21.65381,34.3652344 21.3657227,34.3652344 C20.8823218,34.3652344 20.506349,34.5153794 20.237793,34.8156738 C19.9692369,35.1159683 19.8349609,35.5419894 19.8349609,36.09375 L19.8349609,37.0751953 L21.7246094,37.0751953 L21.7246094,37.7929688 L19.8349609,37.7929688 L19.8349609,45 L18.9560547,45 Z M25.921875,45 L25.921875,37.7929688 L24.6108398,37.7929688 L24.6108398,37.0751953 L25.921875,37.0751953 L25.921875,36.1157227 C25.921875,35.3051717 26.1281718,34.6826194 26.5407715,34.2480469 C26.9533712,33.8134744 27.5283166,33.5961914 28.265625,33.5961914 C28.5976579,33.5961914 28.9077134,33.6376949 29.1958008,33.7207031 L29.1298828,34.453125 C28.885741,34.394531 28.6196303,34.3652344 28.331543,34.3652344 C27.8481421,34.3652344 27.4721693,34.5153794 27.2036133,34.8156738 C26.9350573,35.1159683 26.8007812,35.5419894 26.8007812,36.09375 L26.8007812,37.0751953 L28.6904297,37.0751953 L28.6904297,37.7929688 L26.8007812,37.7929688 L26.8007812,45 L25.921875,45 Z M35.1508789,45.1464844 C34.4770474,45.1464844 33.8679226,44.9804704 33.3234863,44.6484375 C32.77905,44.3164046 32.3554703,43.8537627 32.0527344,43.260498 C31.7499985,42.6672334 31.5986328,42.0019568 31.5986328,41.2646484 L31.5986328,40.949707 C31.5986328,40.1879845 31.7463364,39.5019562 32.041748,38.8916016 C32.3371597,38.2812469 32.7485325,37.8015154 33.2758789,37.4523926 C33.8032253,37.1032697 34.3745086,36.9287109 34.9897461,36.9287109 C35.951665,36.9287109 36.7145968,37.2570768 37.2785645,37.9138184 C37.8425321,38.5705599 38.1245117,39.4677677 38.1245117,40.6054688 L38.1245117,41.0961914 L32.4702148,41.0961914 L32.4702148,41.2646484 C32.4702148,42.1630904 32.7277806,42.911374 33.2429199,43.5095215 C33.7580592,44.107669 34.4062461,44.4067383 35.1875,44.4067383 C35.6562523,44.4067383 36.0700666,44.3212899 36.4289551,44.1503906 C36.7878436,43.9794913 37.1137681,43.7060566 37.4067383,43.3300781 L37.9560547,43.7475586 C37.3115202,44.6801804 36.376471,45.1464844 35.1508789,45.1464844 Z M34.9897461,37.6757812 C34.3305631,37.6757812 33.7751487,37.9174781 33.3234863,38.4008789 C32.8718239,38.8842798 32.5971685,39.5336873 32.4995117,40.3491211 L37.2529297,40.3491211 L37.2529297,40.2539062 C37.2285155,39.4921837 37.0112325,38.8720727 36.6010742,38.3935547 C36.1909159,37.9150367 35.6538119,37.6757812 34.9897461,37.6757812 Z M45.4931641,37.8222656 C45.3076163,37.7880858 45.1098643,37.7709961 44.8999023,37.7709961 C44.3530246,37.7709961 43.8903828,37.9235825 43.5119629,38.2287598 C43.133543,38.5339371 42.8637703,38.9770479 42.7026367,39.5581055 L42.7026367,45 L41.8310547,45 L41.8310547,37.0751953 L42.6879883,37.0751953 L42.7026367,38.3349609 C43.1665062,37.3974563 43.9111277,36.9287109 44.9365234,36.9287109 C45.1806653,36.9287109 45.3735344,36.9604489 45.5151367,37.0239258 L45.4931641,37.8222656 Z M51.8071289,45.1464844 C51.1332974,45.1464844 50.5241726,44.9804704 49.9797363,44.6484375 C49.4353,44.3164046 49.0117203,43.8537627 48.7089844,43.260498 C48.4062485,42.6672334 48.2548828,42.0019568 48.2548828,41.2646484 L48.2548828,40.949707 C48.2548828,40.1879845 48.4025864,39.5019562 48.697998,38.8916016 C48.9934097,38.2812469 49.4047825,37.8015154 49.9321289,37.4523926 C50.4594753,37.1032697 51.0307586,36.9287109 51.6459961,36.9287109 C52.607915,36.9287109 53.3708468,37.2570768 53.9348145,37.9138184 C54.4987821,38.5705599 54.7807617,39.4677677 54.7807617,40.6054688 L54.7807617,41.0961914 L49.1264648,41.0961914 L49.1264648,41.2646484 C49.1264648,42.1630904 49.3840306,42.911374 49.8991699,43.5095215 C50.4143092,44.107669 51.0624961,44.4067383 51.84375,44.4067383 C52.3125023,44.4067383 52.7263166,44.3212899 53.0852051,44.1503906 C53.4440936,43.9794913 53.7700181,43.7060566 54.0629883,43.3300781 L54.6123047,43.7475586 C53.9677702,44.6801804 53.032721,45.1464844 51.8071289,45.1464844 Z M51.6459961,37.6757812 C50.9868131,37.6757812 50.4313987,37.9174781 49.9797363,38.4008789 C49.5280739,38.8842798 49.2534185,39.5336873 49.1557617,40.3491211 L53.9091797,40.3491211 L53.9091797,40.2539062 C53.8847655,39.4921837 53.6674825,38.8720727 53.2573242,38.3935547 C52.8471659,37.9150367 52.3100619,37.6757812 51.6459961,37.6757812 Z M59.3222656,37.0751953 L59.3515625,38.4301758 C59.6494156,37.9418921 60.0205056,37.5695814 60.4648438,37.3132324 C60.9091819,37.0568835 61.3998997,36.9287109 61.9370117,36.9287109 C62.7866253,36.9287109 63.4189432,37.1679664 63.8339844,37.6464844 C64.2490255,38.1250024 64.4589844,38.8427687 64.4638672,39.7998047 L64.4638672,45 L63.5922852,45 L63.5922852,39.7924805 C63.5874023,39.0844691 63.4372573,38.5571306 63.1418457,38.2104492 C62.8464341,37.8637678 62.3740267,37.6904297 61.7246094,37.6904297 C61.1826145,37.6904297 60.7028829,37.8601057 60.2854004,38.1994629 C59.8679178,38.5388201 59.559083,38.9965792 59.3588867,39.5727539 L59.3588867,45 L58.4873047,45 L58.4873047,37.0751953 L59.3222656,37.0751953 Z M70.0893555,35.0463867 L70.0893555,37.0751953 L71.7299805,37.0751953 L71.7299805,37.7929688 L70.0893555,37.7929688 L70.0893555,43.0737305 C70.0893555,43.5131858 70.1687004,43.840331 70.3273926,44.0551758 C70.4860848,44.2700206 70.7509747,44.3774414 71.1220703,44.3774414 C71.2685554,44.3774414 71.5053695,44.3530276 71.8325195,44.3041992 L71.8691406,45.0219727 C71.6396473,45.1049809 71.3271504,45.1464844 70.9316406,45.1464844 C70.3310517,45.1464844 69.8940443,44.9719256 69.6206055,44.6228027 C69.3471666,44.2736799 69.2104492,43.759769 69.2104492,43.0810547 L69.2104492,37.7929688 L67.7529297,37.7929688 L67.7529297,37.0751953 L69.2104492,37.0751953 L69.2104492,35.0463867 L70.0893555,35.0463867 Z M80.2924805,42.9858398 C80.2924805,42.5512674 80.1179217,42.2021498 79.7687988,41.9384766 C79.419676,41.6748034 78.8935582,41.4685066 78.1904297,41.3195801 C77.4873012,41.1706536 76.9416523,40.9997568 76.5534668,40.8068848 C76.1652813,40.6140127 75.8771982,40.3784194 75.689209,40.1000977 C75.5012198,39.821776 75.4072266,39.4848653 75.4072266,39.0893555 C75.4072266,38.4643523 75.6684544,37.9480001 76.190918,37.5402832 C76.7133815,37.1325663 77.3823201,36.9287109 78.1977539,36.9287109 C79.0815474,36.9287109 79.7907688,37.1472146 80.3254395,37.5842285 C80.8601101,38.0212424 81.1274414,38.5913051 81.1274414,39.2944336 L80.2485352,39.2944336 C80.2485352,38.8305641 80.0544453,38.4448258 79.6662598,38.137207 C79.2780742,37.8295883 78.7885772,37.6757812 78.1977539,37.6757812 C77.6215792,37.6757812 77.1589373,37.8039538 76.8098145,38.0603027 C76.4606916,38.3166517 76.2861328,38.6499003 76.2861328,39.0600586 C76.2861328,39.4555684 76.431395,39.7619618 76.7219238,39.979248 C77.0124526,40.1965343 77.5422325,40.3955069 78.3112793,40.5761719 C79.0803261,40.7568368 79.6564922,40.949706 80.0397949,41.1547852 C80.4230976,41.3598643 80.7075186,41.6064439 80.8930664,41.8945312 C81.0786142,42.1826186 81.1713867,42.5317362 81.1713867,42.9418945 C81.1713867,43.6108432 80.901614,44.1455058 80.3620605,44.5458984 C79.8225071,44.9462911 79.1181684,45.1464844 78.2490234,45.1464844 C77.3261673,45.1464844 76.5778837,44.9230979 76.0041504,44.4763184 C75.4304171,44.0295388 75.1435547,43.4643589 75.1435547,42.7807617 L76.0224609,42.7807617 C76.0566408,43.2934596 76.2727031,43.6926255 76.6706543,43.9782715 C77.0686055,44.2639174 77.5947233,44.4067383 78.2490234,44.4067383 C78.8593781,44.4067383 79.3525372,44.2724623 79.7285156,44.0039062 C80.1044941,43.7353502 80.2924805,43.3959981 80.2924805,42.9858398 Z M94.4511719,37.8222656 C94.2656241,37.7880858 94.0678721,37.7709961 93.8579102,37.7709961 C93.3110324,37.7709961 92.8483906,37.9235825 92.4699707,38.2287598 C92.0915508,38.5339371 91.8217781,38.9770479 91.6606445,39.5581055 L91.6606445,45 L90.7890625,45 L90.7890625,37.0751953 L91.6459961,37.0751953 L91.6606445,38.3349609 C92.124514,37.3974563 92.8691355,36.9287109 93.8945312,36.9287109 C94.1386731,36.9287109 94.3315423,36.9604489 94.4731445,37.0239258 L94.4511719,37.8222656 Z M97.2055664,40.9204102 C97.2055664,40.1586876 97.35327,39.4726593 97.6486816,38.8623047 C97.9440933,38.2519501 98.3615696,37.7771013 98.901123,37.4377441 C99.4406765,37.098387 100.052243,36.9287109 100.73584,36.9287109 C101.790533,36.9287109 102.645016,37.2985803 103.299316,38.0383301 C103.953617,38.7780799 104.280762,39.7582947 104.280762,40.9790039 L104.280762,41.1621094 C104.280762,41.9287148 104.133058,42.6184051 103.837646,43.2312012 C103.542235,43.8439972 103.125979,44.3164046 102.588867,44.6484375 C102.051755,44.9804704 101.438968,45.1464844 100.750488,45.1464844 C99.7006783,45.1464844 98.8474154,44.776615 98.1906738,44.0368652 C97.5339323,43.2971154 97.2055664,42.3169006 97.2055664,41.0961914 L97.2055664,40.9204102 Z M98.0844727,41.1621094 C98.0844727,42.1093797 98.3298315,42.8869599 98.8205566,43.494873 C99.3112818,44.1027862 99.9545859,44.4067383 100.750488,44.4067383 C101.541508,44.4067383 102.182371,44.1027862 102.673096,43.494873 C103.163821,42.8869599 103.40918,42.0849659 103.40918,41.0888672 L103.40918,40.9204102 C103.40918,40.3149384 103.296876,39.7607447 103.072266,39.2578125 C102.847655,38.7548803 102.532717,38.3654799 102.127441,38.0895996 C101.722166,37.8137193 101.258303,37.6757812 100.73584,37.6757812 C99.9545859,37.6757812 99.3173853,37.9821747 98.8242188,38.5949707 C98.3310522,39.2077667 98.0844727,40.0097607 98.0844727,41.0009766 L98.0844727,41.1621094 Z M113.092285,45 C113.004394,44.7509753 112.948242,44.3823267 112.923828,43.894043 C112.616209,44.2944356 112.224368,44.6032704 111.748291,44.8205566 C111.272214,45.0378429 110.768069,45.1464844 110.23584,45.1464844 C109.474117,45.1464844 108.857668,44.9340842 108.386475,44.5092773 C107.915281,44.0844705 107.679688,43.5473665 107.679688,42.8979492 C107.679688,42.126461 108.000729,41.5161155 108.642822,41.0668945 C109.284915,40.6176735 110.179682,40.3930664 111.327148,40.3930664 L112.916504,40.3930664 L112.916504,39.4921875 C112.916504,38.9257784 112.741945,38.4802262 112.392822,38.1555176 C112.043699,37.8308089 111.534671,37.668457 110.865723,37.668457 C110.255368,37.668457 109.750002,37.8247055 109.349609,38.137207 C108.949217,38.4497086 108.749023,38.8256814 108.749023,39.2651367 L107.870117,39.2578125 C107.870117,38.6279265 108.163083,38.0822777 108.749023,37.6208496 C109.334964,37.1594215 110.055172,36.9287109 110.909668,36.9287109 C111.793461,36.9287109 112.490476,37.149656 113.000732,37.5915527 C113.510989,38.0334495 113.773437,38.6498984 113.788086,39.440918 L113.788086,43.190918 C113.788086,43.9575234 113.868652,44.5312481 114.029785,44.9121094 L114.029785,45 L113.092285,45 Z M110.338379,44.3701172 C110.924319,44.3701172 111.447996,44.228517 111.909424,43.9453125 C112.370852,43.662108 112.706542,43.2836938 112.916504,42.8100586 L112.916504,41.0668945 L111.349121,41.0668945 C110.475093,41.0766602 109.791506,41.2365707 109.29834,41.5466309 C108.805173,41.856691 108.558594,42.2827121 108.558594,42.824707 C108.558594,43.2690452 108.723387,43.6376938 109.052979,43.9306641 C109.38257,44.2236343 109.811033,44.3701172 110.338379,44.3701172 Z M117.772949,40.9643555 C117.772949,39.7338806 118.047605,38.7536658 118.596924,38.0236816 C119.146243,37.2936975 119.892085,36.9287109 120.834473,36.9287109 C121.903814,36.9287109 122.719235,37.35107 123.280762,38.1958008 L123.280762,33.75 L124.152344,33.75 L124.152344,45 L123.332031,45 L123.29541,43.9453125 C122.733884,44.7460978 121.908697,45.1464844 120.819824,45.1464844 C119.906734,45.1464844 119.170657,44.7790564 118.611572,44.0441895 C118.052487,43.3093225 117.772949,42.3169008 117.772949,41.0668945 L117.772949,40.9643555 Z M118.65918,41.1181641 C118.65918,42.1289113 118.861814,42.9260225 119.26709,43.5095215 C119.672365,44.0930205 120.243649,44.3847656 120.980957,44.3847656 C122.060064,44.3847656 122.826658,43.9086962 123.280762,42.956543 L123.280762,39.2358398 C122.826658,38.2055613 122.064947,37.6904297 120.995605,37.6904297 C120.258297,37.6904297 119.684572,37.9797334 119.274414,38.5583496 C118.864256,39.1369658 118.65918,39.9902287 118.65918,41.1181641 Z M133.205566,42.9858398 C133.205566,42.5512674 133.031008,42.2021498 132.681885,41.9384766 C132.332762,41.6748034 131.806644,41.4685066 131.103516,41.3195801 C130.400387,41.1706536 129.854738,40.9997568 129.466553,40.8068848 C129.078367,40.6140127 128.790284,40.3784194 128.602295,40.1000977 C128.414306,39.821776 128.320312,39.4848653 128.320312,39.0893555 C128.320312,38.4643523 128.58154,37.9480001 129.104004,37.5402832 C129.626467,37.1325663 130.295406,36.9287109 131.11084,36.9287109 C131.994633,36.9287109 132.703855,37.1472146 133.238525,37.5842285 C133.773196,38.0212424 134.040527,38.5913051 134.040527,39.2944336 L133.161621,39.2944336 C133.161621,38.8305641 132.967531,38.4448258 132.579346,38.137207 C132.19116,37.8295883 131.701663,37.6757812 131.11084,37.6757812 C130.534665,37.6757812 130.072023,37.8039538 129.7229,38.0603027 C129.373778,38.3166517 129.199219,38.6499003 129.199219,39.0600586 C129.199219,39.4555684 129.344481,39.7619618 129.63501,39.979248 C129.925539,40.1965343 130.455318,40.3955069 131.224365,40.5761719 C131.993412,40.7568368 132.569578,40.949706 132.952881,41.1547852 C133.336184,41.3598643 133.620605,41.6064439 133.806152,41.8945312 C133.9917,42.1826186 134.084473,42.5317362 134.084473,42.9418945 C134.084473,43.6108432 133.8147,44.1455058 133.275146,44.5458984 C132.735593,44.9462911 132.031254,45.1464844 131.162109,45.1464844 C130.239253,45.1464844 129.49097,44.9230979 128.917236,44.4763184 C128.343503,44.0295388 128.056641,43.4643589 128.056641,42.7807617 L128.935547,42.7807617 C128.969727,43.2934596 129.185789,43.6926255 129.58374,43.9782715 C129.981691,44.2639174 130.507809,44.4067383 131.162109,44.4067383 C131.772464,44.4067383 132.265623,44.2724623 132.641602,44.0039062 C133.01758,43.7353502 133.205566,43.3959981 133.205566,42.9858398 Z M150.081543,41.1181641 C150.081543,42.3535218 149.808108,43.3337366 149.26123,44.0588379 C148.714353,44.7839392 147.979497,45.1464844 147.056641,45.1464844 C145.953119,45.1464844 145.118167,44.7363322 144.551758,43.9160156 L144.515137,45 L143.694824,45 L143.694824,33.75 L144.566406,33.75 L144.566406,38.2250977 C145.12305,37.3608355 145.948237,36.9287109 147.041992,36.9287109 C147.979497,36.9287109 148.720456,37.2863734 149.264893,38.001709 C149.809329,38.7170446 150.081543,39.7119077 150.081543,40.9863281 L150.081543,41.1181641 Z M149.202637,40.9643555 C149.202637,39.9194284 149.000002,39.1125517 148.594727,38.5437012 C148.189451,37.9748507 147.618168,37.6904297 146.880859,37.6904297 C146.319333,37.6904297 145.843264,37.8283678 145.452637,38.104248 C145.06201,38.3801283 144.766603,38.784177 144.566406,39.3164062 L144.566406,42.890625 C145.005862,43.8867237 145.782221,44.3847656 146.895508,44.3847656 C147.618168,44.3847656 148.183348,44.099124 148.591064,43.527832 C148.998781,42.9565401 149.202637,42.1020565 149.202637,40.9643555 Z M159.112793,43.996582 C158.585447,44.7631874 157.74317,45.1464844 156.585938,45.1464844 C155.741207,45.1464844 155.099123,44.9011255 154.659668,44.4104004 C154.220213,43.9196753 153.995606,43.1933642 153.98584,42.2314453 L153.98584,37.0751953 L154.857422,37.0751953 L154.857422,42.121582 C154.857422,43.6303786 155.467767,44.3847656 156.688477,44.3847656 C157.958014,44.3847656 158.761229,43.8598685 159.098145,42.8100586 L159.098145,37.0751953 L159.977051,37.0751953 L159.977051,45 L159.127441,45 L159.112793,43.996582 Z M165.617188,35.0463867 L165.617188,37.0751953 L167.257812,37.0751953 L167.257812,37.7929688 L165.617188,37.7929688 L165.617188,43.0737305 C165.617188,43.5131858 165.696532,43.840331 165.855225,44.0551758 C166.013917,44.2700206 166.278807,44.3774414 166.649902,44.3774414 C166.796387,44.3774414 167.033201,44.3530276 167.360352,44.3041992 L167.396973,45.0219727 C167.167479,45.1049809 166.854982,45.1464844 166.459473,45.1464844 C165.858884,45.1464844 165.421876,44.9719256 165.148438,44.6228027 C164.874999,44.2736799 164.738281,43.759769 164.738281,43.0810547 L164.738281,37.7929688 L163.280762,37.7929688 L163.280762,37.0751953 L164.738281,37.0751953 L164.738281,35.0463867 L165.617188,35.0463867 Z M178.083984,35.0463867 L178.083984,37.0751953 L179.724609,37.0751953 L179.724609,37.7929688 L178.083984,37.7929688 L178.083984,43.0737305 C178.083984,43.5131858 178.163329,43.840331 178.322021,44.0551758 C178.480714,44.2700206 178.745604,44.3774414 179.116699,44.3774414 C179.263184,44.3774414 179.499998,44.3530276 179.827148,44.3041992 L179.86377,45.0219727 C179.634276,45.1049809 179.321779,45.1464844 178.92627,45.1464844 C178.325681,45.1464844 177.888673,44.9719256 177.615234,44.6228027 C177.341796,44.2736799 177.205078,43.759769 177.205078,43.0810547 L177.205078,37.7929688 L175.747559,37.7929688 L175.747559,37.0751953 L177.205078,37.0751953 L177.205078,35.0463867 L178.083984,35.0463867 Z M184.412598,38.4155273 C184.700685,37.9418922 185.069334,37.5756849 185.518555,37.3168945 C185.967776,37.0581042 186.458493,36.9287109 186.990723,36.9287109 C187.840336,36.9287109 188.472654,37.1679664 188.887695,37.6464844 C189.302736,38.1250024 189.512695,38.8427687 189.517578,39.7998047 L189.517578,45 L188.645996,45 L188.645996,39.7924805 C188.641113,39.0844691 188.490968,38.5571306 188.195557,38.2104492 C187.900145,37.8637678 187.427738,37.6904297 186.77832,37.6904297 C186.236325,37.6904297 185.756594,37.8601057 185.339111,38.1994629 C184.921629,38.5388201 184.612794,38.9965792 184.412598,39.5727539 L184.412598,45 L183.541016,45 L183.541016,33.75 L184.412598,33.75 L184.412598,38.4155273 Z M196.842285,45.1464844 C196.168454,45.1464844 195.559329,44.9804704 195.014893,44.6484375 C194.470456,44.3164046 194.046877,43.8537627 193.744141,43.260498 C193.441405,42.6672334 193.290039,42.0019568 193.290039,41.2646484 L193.290039,40.949707 C193.290039,40.1879845 193.437743,39.5019562 193.733154,38.8916016 C194.028566,38.2812469 194.439939,37.8015154 194.967285,37.4523926 C195.494632,37.1032697 196.065915,36.9287109 196.681152,36.9287109 C197.643071,36.9287109 198.406003,37.2570768 198.969971,37.9138184 C199.533938,38.5705599 199.815918,39.4677677 199.815918,40.6054688 L199.815918,41.0961914 L194.161621,41.0961914 L194.161621,41.2646484 C194.161621,42.1630904 194.419187,42.911374 194.934326,43.5095215 C195.449465,44.107669 196.097652,44.4067383 196.878906,44.4067383 C197.347659,44.4067383 197.761473,44.3212899 198.120361,44.1503906 C198.47925,43.9794913 198.805174,43.7060566 199.098145,43.3300781 L199.647461,43.7475586 C199.002926,44.6801804 198.067877,45.1464844 196.842285,45.1464844 Z M196.681152,37.6757812 C196.021969,37.6757812 195.466555,37.9174781 195.014893,38.4008789 C194.56323,38.8842798 194.288575,39.5336873 194.190918,40.3491211 L198.944336,40.3491211 L198.944336,40.2539062 C198.919922,39.4921837 198.702639,38.8720727 198.29248,38.3935547 C197.882322,37.9150367 197.345218,37.6757812 196.681152,37.6757812 Z M213.916016,42.9858398 C213.916016,42.5512674 213.741457,42.2021498 213.392334,41.9384766 C213.043211,41.6748034 212.517093,41.4685066 211.813965,41.3195801 C211.110836,41.1706536 210.565187,40.9997568 210.177002,40.8068848 C209.788816,40.6140127 209.500733,40.3784194 209.312744,40.1000977 C209.124755,39.821776 209.030762,39.4848653 209.030762,39.0893555 C209.030762,38.4643523 209.29199,37.9480001 209.814453,37.5402832 C210.336917,37.1325663 211.005855,36.9287109 211.821289,36.9287109 C212.705083,36.9287109 213.414304,37.1472146 213.948975,37.5842285 C214.483645,38.0212424 214.750977,38.5913051 214.750977,39.2944336 L213.87207,39.2944336 C213.87207,38.8305641 213.67798,38.4448258 213.289795,38.137207 C212.901609,37.8295883 212.412112,37.6757812 211.821289,37.6757812 C211.245114,37.6757812 210.782472,37.8039538 210.43335,38.0603027 C210.084227,38.3166517 209.909668,38.6499003 209.909668,39.0600586 C209.909668,39.4555684 210.05493,39.7619618 210.345459,39.979248 C210.635988,40.1965343 211.165768,40.3955069 211.934814,40.5761719 C212.703861,40.7568368 213.280027,40.949706 213.66333,41.1547852 C214.046633,41.3598643 214.331054,41.6064439 214.516602,41.8945312 C214.702149,42.1826186 214.794922,42.5317362 214.794922,42.9418945 C214.794922,43.6108432 214.525149,44.1455058 213.985596,44.5458984 C213.446042,44.9462911 212.741704,45.1464844 211.872559,45.1464844 C210.949702,45.1464844 210.201419,44.9230979 209.627686,44.4763184 C209.053952,44.0295388 208.76709,43.4643589 208.76709,42.7807617 L209.645996,42.7807617 C209.680176,43.2934596 209.896238,43.6926255 210.294189,43.9782715 C210.692141,44.2639174 211.218258,44.4067383 211.872559,44.4067383 C212.482913,44.4067383 212.976072,44.2724623 213.352051,44.0039062 C213.728029,43.7353502 213.916016,43.3959981 213.916016,42.9858398 Z M223.767578,45 C223.679687,44.7509753 223.623535,44.3823267 223.599121,43.894043 C223.291502,44.2944356 222.899661,44.6032704 222.423584,44.8205566 C221.947507,45.0378429 221.443362,45.1464844 220.911133,45.1464844 C220.14941,45.1464844 219.532961,44.9340842 219.061768,44.5092773 C218.590574,44.0844705 218.35498,43.5473665 218.35498,42.8979492 C218.35498,42.126461 218.676022,41.5161155 219.318115,41.0668945 C219.960208,40.6176735 220.854975,40.3930664 222.002441,40.3930664 L223.591797,40.3930664 L223.591797,39.4921875 C223.591797,38.9257784 223.417238,38.4802262 223.068115,38.1555176 C222.718992,37.8308089 222.209964,37.668457 221.541016,37.668457 C220.930661,37.668457 220.425295,37.8247055 220.024902,38.137207 C219.62451,38.4497086 219.424316,38.8256814 219.424316,39.2651367 L218.54541,39.2578125 C218.54541,38.6279265 218.838376,38.0822777 219.424316,37.6208496 C220.010257,37.1594215 220.730464,36.9287109 221.584961,36.9287109 C222.468754,36.9287109 223.165769,37.149656 223.676025,37.5915527 C224.186282,38.0334495 224.44873,38.6498984 224.463379,39.440918 L224.463379,43.190918 C224.463379,43.9575234 224.543945,44.5312481 224.705078,44.9121094 L224.705078,45 L223.767578,45 Z M221.013672,44.3701172 C221.599612,44.3701172 222.123289,44.228517 222.584717,43.9453125 C223.046145,43.662108 223.381835,43.2836938 223.591797,42.8100586 L223.591797,41.0668945 L222.024414,41.0668945 C221.150386,41.0766602 220.466799,41.2365707 219.973633,41.5466309 C219.480466,41.856691 219.233887,42.2827121 219.233887,42.824707 C219.233887,43.2690452 219.39868,43.6376938 219.728271,43.9306641 C220.057863,44.2236343 220.486325,44.3701172 221.013672,44.3701172 Z M229.598145,37.0751953 L229.627441,38.3642578 C229.920412,37.8857398 230.286619,37.5268567 230.726074,37.2875977 C231.16553,37.0483386 231.653806,36.9287109 232.190918,36.9287109 C233.440924,36.9287109 234.234373,37.4414011 234.571289,38.4667969 C234.854494,37.9736303 235.232908,37.5939955 235.706543,37.3278809 C236.180178,37.0617662 236.702634,36.9287109 237.273926,36.9287109 C238.973153,36.9287109 239.839844,37.856436 239.874023,39.7119141 L239.874023,45 L238.995117,45 L238.995117,39.777832 C238.990234,39.0698207 238.837648,38.5449236 238.537354,38.203125 C238.237059,37.8613264 237.747562,37.6904297 237.068848,37.6904297 C236.438962,37.7001954 235.90674,37.9040507 235.472168,38.302002 C235.037595,38.6999532 234.795899,39.1845675 234.74707,39.7558594 L234.74707,45 L233.868164,45 L233.868164,39.7119141 C233.863281,39.0331997 233.703371,38.526613 233.388428,38.1921387 C233.073485,37.8576643 232.58887,37.6904297 231.93457,37.6904297 C231.38281,37.6904297 230.909182,37.8478988 230.513672,38.1628418 C230.118162,38.4777848 229.825196,38.9453094 229.634766,39.5654297 L229.634766,45 L228.755859,45 L228.755859,37.0751953 L229.598145,37.0751953 Z M247.162109,45.1464844 C246.488278,45.1464844 245.879153,44.9804704 245.334717,44.6484375 C244.79028,44.3164046 244.366701,43.8537627 244.063965,43.260498 C243.761229,42.6672334 243.609863,42.0019568 243.609863,41.2646484 L243.609863,40.949707 C243.609863,40.1879845 243.757567,39.5019562 244.052979,38.8916016 C244.34839,38.2812469 244.759763,37.8015154 245.287109,37.4523926 C245.814456,37.1032697 246.385739,36.9287109 247.000977,36.9287109 C247.962895,36.9287109 248.725827,37.2570768 249.289795,37.9138184 C249.853763,38.5705599 250.135742,39.4677677 250.135742,40.6054688 L250.135742,41.0961914 L244.481445,41.0961914 L244.481445,41.2646484 C244.481445,42.1630904 244.739011,42.911374 245.25415,43.5095215 C245.76929,44.107669 246.417477,44.4067383 247.19873,44.4067383 C247.667483,44.4067383 248.081297,44.3212899 248.440186,44.1503906 C248.799074,43.9794913 249.124999,43.7060566 249.417969,43.3300781 L249.967285,43.7475586 C249.322751,44.6801804 248.387701,45.1464844 247.162109,45.1464844 Z M247.000977,37.6757812 C246.341794,37.6757812 245.786379,37.9174781 245.334717,38.4008789 C244.883054,38.8842798 244.608399,39.5336873 244.510742,40.3491211 L249.26416,40.3491211 L249.26416,40.2539062 C249.239746,39.4921837 249.022463,38.8720727 248.612305,38.3935547 C248.202146,37.9150367 247.665042,37.6757812 247.000977,37.6757812 Z M0.791015625,58.9643555 C0.791015625,57.7338806 1.06567108,56.7536658 1.61499023,56.0236816 C2.16430939,55.2936975 2.91015154,54.9287109 3.85253906,54.9287109 C4.92188035,54.9287109 5.73730188,55.35107 6.29882812,56.1958008 L6.29882812,51.75 L7.17041016,51.75 L7.17041016,63 L6.35009766,63 L6.31347656,61.9453125 C5.75195032,62.7460978 4.92676326,63.1464844 3.83789062,63.1464844 C2.92480012,63.1464844 2.1887235,62.7790564 1.62963867,62.0441895 C1.07055385,61.3093225 0.791015625,60.3169008 0.791015625,59.0668945 L0.791015625,58.9643555 Z M1.67724609,59.1181641 C1.67724609,60.1289113 1.87988079,60.9260225 2.28515625,61.5095215 C2.69043171,62.0930205 3.26171506,62.3847656 3.99902344,62.3847656 C5.0781304,62.3847656 5.84472429,61.9086962 6.29882812,60.956543 L6.29882812,57.2358398 C5.84472429,56.2055613 5.08301316,55.6904297 4.01367188,55.6904297 C3.2763635,55.6904297 2.70263877,55.9797334 2.29248047,56.5583496 C1.88232217,57.1369658 1.67724609,57.9902287 1.67724609,59.1181641 Z M12.4589844,63 L11.5800781,63 L11.5800781,55.0751953 L12.4589844,55.0751953 L12.4589844,63 Z M11.4262695,52.7827148 C11.4262695,52.6166984 11.4799799,52.4763189 11.5874023,52.3615723 C11.6948248,52.2468256 11.8413077,52.1894531 12.0268555,52.1894531 C12.2124033,52.1894531 12.3601069,52.2468256 12.4699707,52.3615723 C12.5798345,52.4763189 12.6347656,52.6166984 12.6347656,52.7827148 C12.6347656,52.9487313 12.5798345,53.0878901 12.4699707,53.2001953 C12.3601069,53.3125006 12.2124033,53.3686523 12.0268555,53.3686523 C11.8413077,53.3686523 11.6948248,53.3125006 11.5874023,53.2001953 C11.4799799,53.0878901 11.4262695,52.9487313 11.4262695,52.7827148 Z M20.5014648,55.8222656 C20.315917,55.7880858 20.1181651,55.7709961 19.9082031,55.7709961 C19.3613254,55.7709961 18.8986835,55.9235825 18.5202637,56.2287598 C18.1418438,56.5339371 17.8720711,56.9770479 17.7109375,57.5581055 L17.7109375,63 L16.8393555,63 L16.8393555,55.0751953 L17.6962891,55.0751953 L17.7109375,56.3349609 C18.174807,55.3974563 18.9194285,54.9287109 19.9448242,54.9287109 C20.1889661,54.9287109 20.3818352,54.9604489 20.5234375,55.0239258 L20.5014648,55.8222656 Z M26.8154297,63.1464844 C26.1415982,63.1464844 25.5324734,62.9804704 24.9880371,62.6484375 C24.4436008,62.3164046 24.020021,61.8537627 23.7172852,61.260498 C23.4145493,60.6672334 23.2631836,60.0019568 23.2631836,59.2646484 L23.2631836,58.949707 C23.2631836,58.1879845 23.4108872,57.5019562 23.7062988,56.8916016 C24.0017105,56.2812469 24.4130833,55.8015154 24.9404297,55.4523926 C25.4677761,55.1032697 26.0390594,54.9287109 26.6542969,54.9287109 C27.6162157,54.9287109 28.3791476,55.2570768 28.9431152,55.9138184 C29.5070829,56.5705599 29.7890625,57.4677677 29.7890625,58.6054688 L29.7890625,59.0961914 L24.1347656,59.0961914 L24.1347656,59.2646484 C24.1347656,60.1630904 24.3923314,60.911374 24.9074707,61.5095215 C25.42261,62.107669 26.0707969,62.4067383 26.8520508,62.4067383 C27.3208031,62.4067383 27.7346173,62.3212899 28.0935059,62.1503906 C28.4523944,61.9794913 28.7783188,61.7060566 29.0712891,61.3300781 L29.6206055,61.7475586 C28.976071,62.6801804 28.0410218,63.1464844 26.8154297,63.1464844 Z M26.6542969,55.6757812 C25.9951139,55.6757812 25.4396995,55.9174781 24.9880371,56.4008789 C24.5363747,56.8842798 24.2617192,57.5336873 24.1640625,58.3491211 L28.9174805,58.3491211 L28.9174805,58.2539062 C28.8930663,57.4921837 28.6757833,56.8720727 28.265625,56.3935547 C27.8554667,55.9150367 27.3183627,55.6757812 26.6542969,55.6757812 Z M36.425293,62.4067383 C37.0356476,62.4067383 37.5471171,62.2346209 37.9597168,61.8903809 C38.3723165,61.5461409 38.595703,61.1005887 38.6298828,60.5537109 L39.472168,60.5537109 C39.4477538,61.0371118 39.2963881,61.4777812 39.0180664,61.8757324 C38.7397447,62.2736836 38.3698754,62.5849598 37.9084473,62.8095703 C37.4470192,63.0341808 36.9526394,63.1464844 36.425293,63.1464844 C35.3852487,63.1464844 34.5612823,62.7851599 33.9533691,62.0625 C33.3454559,61.3398401 33.0415039,60.3681702 33.0415039,59.1474609 L33.0415039,58.8837891 C33.0415039,58.1025352 33.1782213,57.4116241 33.4516602,56.8110352 C33.725099,56.2104462 34.1169408,55.7465837 34.6271973,55.4194336 C35.1374537,55.0922835 35.7343716,54.9287109 36.4179688,54.9287109 C37.2871137,54.9287109 38.0036593,55.1874974 38.567627,55.7050781 C39.1315946,56.2226588 39.4331053,56.9038044 39.472168,57.7485352 L38.6298828,57.7485352 C38.5908201,57.1284149 38.3674337,56.6279316 37.9597168,56.2470703 C37.5519999,55.866209 37.038089,55.6757812 36.4179688,55.6757812 C35.6269492,55.6757812 35.0129416,55.9614229 34.5759277,56.5327148 C34.1389138,57.1040068 33.9204102,57.90478 33.9204102,58.9350586 L33.9204102,59.1914062 C33.9204102,60.2021535 34.1389138,60.9907198 34.5759277,61.5571289 C35.0129416,62.123538 35.6293906,62.4067383 36.425293,62.4067383 Z M44.5849609,53.0463867 L44.5849609,55.0751953 L46.2255859,55.0751953 L46.2255859,55.7929688 L44.5849609,55.7929688 L44.5849609,61.0737305 C44.5849609,61.5131858 44.6643058,61.840331 44.822998,62.0551758 C44.9816902,62.2700206 45.2465802,62.3774414 45.6176758,62.3774414 C45.7641609,62.3774414 46.0009749,62.3530276 46.328125,62.3041992 L46.3647461,63.0219727 C46.1352528,63.1049809 45.8227559,63.1464844 45.4272461,63.1464844 C44.8266572,63.1464844 44.3896498,62.9719256 44.1162109,62.6228027 C43.8427721,62.2736799 43.7060547,61.759769 43.7060547,61.0810547 L43.7060547,55.7929688 L42.2485352,55.7929688 L42.2485352,55.0751953 L43.7060547,55.0751953 L43.7060547,53.0463867 L44.5849609,53.0463867 Z M51.0234375,63 L50.1445312,63 L50.1445312,55.0751953 L51.0234375,55.0751953 L51.0234375,63 Z M49.9907227,52.7827148 C49.9907227,52.6166984 50.0444331,52.4763189 50.1518555,52.3615723 C50.2592779,52.2468256 50.4057608,52.1894531 50.5913086,52.1894531 C50.7768564,52.1894531 50.92456,52.2468256 51.0344238,52.3615723 C51.1442877,52.4763189 51.1992188,52.6166984 51.1992188,52.7827148 C51.1992188,52.9487313 51.1442877,53.0878901 51.0344238,53.2001953 C50.92456,53.3125006 50.7768564,53.3686523 50.5913086,53.3686523 C50.4057608,53.3686523 50.2592779,53.3125006 50.1518555,53.2001953 C50.0444331,53.0878901 49.9907227,52.9487313 49.9907227,52.7827148 Z M54.9204102,58.9204102 C54.9204102,58.1586876 55.0681138,57.4726593 55.3635254,56.8623047 C55.658937,56.2519501 56.0764133,55.7771013 56.6159668,55.4377441 C57.1555203,55.098387 57.7670864,54.9287109 58.4506836,54.9287109 C59.5053764,54.9287109 60.35986,55.2985803 61.0141602,56.0383301 C61.6684603,56.7780799 61.9956055,57.7582947 61.9956055,58.9790039 L61.9956055,59.1621094 C61.9956055,59.9287148 61.8479019,60.6184051 61.5524902,61.2312012 C61.2570786,61.8439972 60.840823,62.3164046 60.3037109,62.6484375 C59.7665989,62.9804704 59.153812,63.1464844 58.465332,63.1464844 C57.4155221,63.1464844 56.5622591,62.776615 55.9055176,62.0368652 C55.248776,61.2971154 54.9204102,60.3169006 54.9204102,59.0961914 L54.9204102,58.9204102 Z M55.7993164,59.1621094 C55.7993164,60.1093797 56.0446753,60.8869599 56.5354004,61.494873 C57.0261255,62.1027862 57.6694296,62.4067383 58.465332,62.4067383 C59.2563516,62.4067383 59.8972143,62.1027862 60.3879395,61.494873 C60.8786646,60.8869599 61.1240234,60.0849659 61.1240234,59.0888672 L61.1240234,58.9204102 C61.1240234,58.3149384 61.0117199,57.7607447 60.7871094,57.2578125 C60.5624989,56.7548803 60.2475606,56.3654799 59.8422852,56.0895996 C59.4370097,55.8137193 58.9731471,55.6757812 58.4506836,55.6757812 C57.6694297,55.6757812 57.032229,55.9821747 56.5390625,56.5949707 C56.045896,57.2077667 55.7993164,58.0097607 55.7993164,59.0009766 L55.7993164,59.1621094 Z M66.6396484,55.0751953 L66.6689453,56.4301758 C66.9667984,55.9418921 67.3378884,55.5695814 67.7822266,55.3132324 C68.2265647,55.0568835 68.7172825,54.9287109 69.2543945,54.9287109 C70.1040082,54.9287109 70.736326,55.1679664 71.1513672,55.6464844 C71.5664083,56.1250024 71.7763672,56.8427687 71.78125,57.7998047 L71.78125,63 L70.909668,63 L70.909668,57.7924805 C70.9047851,57.0844691 70.7546401,56.5571306 70.4592285,56.2104492 C70.1638169,55.8637678 69.6914095,55.6904297 69.0419922,55.6904297 C68.4999973,55.6904297 68.0202658,55.8601057 67.6027832,56.1994629 C67.1853006,56.5388201 66.8764658,56.9965792 66.6762695,57.5727539 L66.6762695,63 L65.8046875,63 L65.8046875,55.0751953 L66.6396484,55.0751953 Z M75.9638672,62.4726562 C75.9638672,62.301757 76.0187983,62.1564947 76.1286621,62.0368652 C76.2385259,61.9172357 76.3911123,61.8574219 76.5864258,61.8574219 C76.7817393,61.8574219 76.9355463,61.9172357 77.0478516,62.0368652 C77.1601568,62.1564947 77.2163086,62.301757 77.2163086,62.4726562 C77.2163086,62.6435555 77.1601568,62.783935 77.0478516,62.8937988 C76.9355463,63.0036627 76.7817393,63.0585938 76.5864258,63.0585938 C76.3911123,63.0585938 76.2385259,63.0036627 76.1286621,62.8937988 C76.0187983,62.783935 75.9638672,62.6435555 75.9638672,62.4726562 Z M88.3867188,62.2382812 L93.652832,62.2382812 L93.652832,63 L87.4785156,63 L87.4785156,52.3359375 L88.3867188,52.3359375 L88.3867188,62.2382812 Z M100.245117,63.1464844 C99.5712857,63.1464844 98.9621609,62.9804704 98.4177246,62.6484375 C97.8732883,62.3164046 97.4497085,61.8537627 97.1469727,61.260498 C96.8442368,60.6672334 96.6928711,60.0019568 96.6928711,59.2646484 L96.6928711,58.949707 C96.6928711,58.1879845 96.8405747,57.5019562 97.1359863,56.8916016 C97.431398,56.2812469 97.8427708,55.8015154 98.3701172,55.4523926 C98.8974636,55.1032697 99.4687469,54.9287109 100.083984,54.9287109 C101.045903,54.9287109 101.808835,55.2570768 102.372803,55.9138184 C102.93677,56.5705599 103.21875,57.4677677 103.21875,58.6054688 L103.21875,59.0961914 L97.5644531,59.0961914 L97.5644531,59.2646484 C97.5644531,60.1630904 97.8220189,60.911374 98.3371582,61.5095215 C98.8522975,62.107669 99.5004844,62.4067383 100.281738,62.4067383 C100.750491,62.4067383 101.164305,62.3212899 101.523193,62.1503906 C101.882082,61.9794913 102.208006,61.7060566 102.500977,61.3300781 L103.050293,61.7475586 C102.405758,62.6801804 101.470709,63.1464844 100.245117,63.1464844 Z M100.083984,55.6757812 C99.4248014,55.6757812 98.869387,55.9174781 98.4177246,56.4008789 C97.9660622,56.8842798 97.6914067,57.5336873 97.59375,58.3491211 L102.347168,58.3491211 L102.347168,58.2539062 C102.322754,57.4921837 102.105471,56.8720727 101.695312,56.3935547 C101.285154,55.9150367 100.74805,55.6757812 100.083984,55.6757812 Z M108.287598,53.0463867 L108.287598,55.0751953 L109.928223,55.0751953 L109.928223,55.7929688 L108.287598,55.7929688 L108.287598,61.0737305 C108.287598,61.5131858 108.366943,61.840331 108.525635,62.0551758 C108.684327,62.2700206 108.949217,62.3774414 109.320312,62.3774414 C109.466798,62.3774414 109.703612,62.3530276 110.030762,62.3041992 L110.067383,63.0219727 C109.837889,63.1049809 109.525393,63.1464844 109.129883,63.1464844 C108.529294,63.1464844 108.092287,62.9719256 107.818848,62.6228027 C107.545409,62.2736799 107.408691,61.759769 107.408691,61.0810547 L107.408691,55.7929688 L105.951172,55.7929688 L105.951172,55.0751953 L107.408691,55.0751953 L107.408691,53.0463867 L108.287598,53.0463867 Z M114.90918,51.8378906 L115.971191,51.8378906 L114.279297,53.8813477 L113.510254,53.8813477 L114.90918,51.8378906 Z M124.709473,60.9858398 C124.709473,60.5512674 124.534914,60.2021498 124.185791,59.9384766 C123.836668,59.6748034 123.31055,59.4685066 122.607422,59.3195801 C121.904293,59.1706536 121.358645,58.9997568 120.970459,58.8068848 C120.582273,58.6140127 120.29419,58.3784194 120.106201,58.1000977 C119.918212,57.821776 119.824219,57.4848653 119.824219,57.0893555 C119.824219,56.4643523 120.085447,55.9480001 120.60791,55.5402832 C121.130374,55.1325663 121.799312,54.9287109 122.614746,54.9287109 C123.49854,54.9287109 124.207761,55.1472146 124.742432,55.5842285 C125.277102,56.0212424 125.544434,56.5913051 125.544434,57.2944336 L124.665527,57.2944336 C124.665527,56.8305641 124.471437,56.4448258 124.083252,56.137207 C123.695066,55.8295883 123.205569,55.6757812 122.614746,55.6757812 C122.038571,55.6757812 121.575929,55.8039538 121.226807,56.0603027 C120.877684,56.3166517 120.703125,56.6499003 120.703125,57.0600586 C120.703125,57.4555684 120.848387,57.7619618 121.138916,57.979248 C121.429445,58.1965343 121.959225,58.3955069 122.728271,58.5761719 C123.497318,58.7568368 124.073484,58.949706 124.456787,59.1547852 C124.84009,59.3598643 125.124511,59.6064439 125.310059,59.8945312 C125.495606,60.1826186 125.588379,60.5317362 125.588379,60.9418945 C125.588379,61.6108432 125.318606,62.1455058 124.779053,62.5458984 C124.239499,62.9462911 123.535161,63.1464844 122.666016,63.1464844 C121.743159,63.1464844 120.994876,62.9230979 120.421143,62.4763184 C119.847409,62.0295388 119.560547,61.4643589 119.560547,60.7807617 L120.439453,60.7807617 C120.473633,61.2934596 120.689695,61.6926255 121.087646,61.9782715 C121.485598,62.2639174 122.011715,62.4067383 122.666016,62.4067383 C123.27637,62.4067383 123.769529,62.2724623 124.145508,62.0039062 C124.521486,61.7353502 124.709473,61.3959981 124.709473,60.9858398 Z M136.004395,55.0751953 L136.033691,56.3642578 C136.326662,55.8857398 136.692869,55.5268567 137.132324,55.2875977 C137.57178,55.0483386 138.060056,54.9287109 138.597168,54.9287109 C139.847174,54.9287109 140.640623,55.4414011 140.977539,56.4667969 C141.260744,55.9736303 141.639158,55.5939955 142.112793,55.3278809 C142.586428,55.0617662 143.108884,54.9287109 143.680176,54.9287109 C145.379403,54.9287109 146.246094,55.856436 146.280273,57.7119141 L146.280273,63 L145.401367,63 L145.401367,57.777832 C145.396484,57.0698207 145.243898,56.5449236 144.943604,56.203125 C144.643309,55.8613264 144.153812,55.6904297 143.475098,55.6904297 C142.845212,55.7001954 142.31299,55.9040507 141.878418,56.302002 C141.443845,56.6999532 141.202149,57.1845675 141.15332,57.7558594 L141.15332,63 L140.274414,63 L140.274414,57.7119141 C140.269531,57.0331997 140.109621,56.526613 139.794678,56.1921387 C139.479735,55.8576643 138.99512,55.6904297 138.34082,55.6904297 C137.78906,55.6904297 137.315432,55.8478988 136.919922,56.1628418 C136.524412,56.4777848 136.231446,56.9453094 136.041016,57.5654297 L136.041016,63 L135.162109,63 L135.162109,55.0751953 L136.004395,55.0751953 Z M155.501953,63 C155.414062,62.7509753 155.35791,62.3823267 155.333496,61.894043 C155.025877,62.2944356 154.634036,62.6032704 154.157959,62.8205566 C153.681882,63.0378429 153.177737,63.1464844 152.645508,63.1464844 C151.883785,63.1464844 151.267336,62.9340842 150.796143,62.5092773 C150.324949,62.0844705 150.089355,61.5473665 150.089355,60.8979492 C150.089355,60.126461 150.410397,59.5161155 151.05249,59.0668945 C151.694583,58.6176735 152.58935,58.3930664 153.736816,58.3930664 L155.326172,58.3930664 L155.326172,57.4921875 C155.326172,56.9257784 155.151613,56.4802262 154.80249,56.1555176 C154.453367,55.8308089 153.944339,55.668457 153.275391,55.668457 C152.665036,55.668457 152.15967,55.8247055 151.759277,56.137207 C151.358885,56.4497086 151.158691,56.8256814 151.158691,57.2651367 L150.279785,57.2578125 C150.279785,56.6279265 150.572751,56.0822777 151.158691,55.6208496 C151.744632,55.1594215 152.464839,54.9287109 153.319336,54.9287109 C154.203129,54.9287109 154.900144,55.149656 155.4104,55.5915527 C155.920657,56.0334495 156.183105,56.6498984 156.197754,57.440918 L156.197754,61.190918 C156.197754,61.9575234 156.27832,62.5312481 156.439453,62.9121094 L156.439453,63 L155.501953,63 Z M152.748047,62.3701172 C153.333987,62.3701172 153.857664,62.228517 154.319092,61.9453125 C154.78052,61.662108 155.11621,61.2836938 155.326172,60.8100586 L155.326172,59.0668945 L153.758789,59.0668945 C152.884761,59.0766602 152.201174,59.2365707 151.708008,59.5466309 C151.214841,59.856691 150.968262,60.2827121 150.968262,60.824707 C150.968262,61.2690452 151.133055,61.6376938 151.462646,61.9306641 C151.792238,62.2236343 152.2207,62.3701172 152.748047,62.3701172 Z M162.416504,59.0083008 L161.413086,59.9750977 L161.413086,63 L160.53418,63 L160.53418,51.75 L161.413086,51.75 L161.413086,58.949707 L162.240723,58.0561523 L165.272949,55.0751953 L166.378906,55.0751953 L163.01709,58.4150391 L166.671875,63 L165.624512,63 L162.416504,59.0083008 Z M172.802734,63.1464844 C172.128903,63.1464844 171.519778,62.9804704 170.975342,62.6484375 C170.430905,62.3164046 170.007326,61.8537627 169.70459,61.260498 C169.401854,60.6672334 169.250488,60.0019568 169.250488,59.2646484 L169.250488,58.949707 C169.250488,58.1879845 169.398192,57.5019562 169.693604,56.8916016 C169.989015,56.2812469 170.400388,55.8015154 170.927734,55.4523926 C171.455081,55.1032697 172.026364,54.9287109 172.641602,54.9287109 C173.60352,54.9287109 174.366452,55.2570768 174.93042,55.9138184 C175.494388,56.5705599 175.776367,57.4677677 175.776367,58.6054688 L175.776367,59.0961914 L170.12207,59.0961914 L170.12207,59.2646484 C170.12207,60.1630904 170.379636,60.911374 170.894775,61.5095215 C171.409915,62.107669 172.058102,62.4067383 172.839355,62.4067383 C173.308108,62.4067383 173.721922,62.3212899 174.080811,62.1503906 C174.439699,61.9794913 174.765624,61.7060566 175.058594,61.3300781 L175.60791,61.7475586 C174.963376,62.6801804 174.028326,63.1464844 172.802734,63.1464844 Z M172.641602,55.6757812 C171.982419,55.6757812 171.427004,55.9174781 170.975342,56.4008789 C170.523679,56.8842798 170.249024,57.5336873 170.151367,58.3491211 L174.904785,58.3491211 L174.904785,58.2539062 C174.880371,57.4921837 174.663088,56.8720727 174.25293,56.3935547 C173.842771,55.9150367 173.305667,55.6757812 172.641602,55.6757812 Z M186.492676,53.0463867 L186.492676,55.0751953 L188.133301,55.0751953 L188.133301,55.7929688 L186.492676,55.7929688 L186.492676,61.0737305 C186.492676,61.5131858 186.572021,61.840331 186.730713,62.0551758 C186.889405,62.2700206 187.154295,62.3774414 187.525391,62.3774414 C187.671876,62.3774414 187.90869,62.3530276 188.23584,62.3041992 L188.272461,63.0219727 C188.042968,63.1049809 187.730471,63.1464844 187.334961,63.1464844 C186.734372,63.1464844 186.297365,62.9719256 186.023926,62.6228027 C185.750487,62.2736799 185.61377,61.759769 185.61377,61.0810547 L185.61377,55.7929688 L184.15625,55.7929688 L184.15625,55.0751953 L185.61377,55.0751953 L185.61377,53.0463867 L186.492676,53.0463867 Z M192.821289,56.4155273 C193.109376,55.9418922 193.478025,55.5756849 193.927246,55.3168945 C194.376467,55.0581042 194.867185,54.9287109 195.399414,54.9287109 C196.249028,54.9287109 196.881346,55.1679664 197.296387,55.6464844 C197.711428,56.1250024 197.921387,56.8427687 197.92627,57.7998047 L197.92627,63 L197.054688,63 L197.054688,57.7924805 C197.049805,57.0844691 196.89966,56.5571306 196.604248,56.2104492 C196.308836,55.8637678 195.836429,55.6904297 195.187012,55.6904297 C194.645017,55.6904297 194.165285,55.8601057 193.747803,56.1994629 C193.33032,56.5388201 193.021485,56.9965792 192.821289,57.5727539 L192.821289,63 L191.949707,63 L191.949707,51.75 L192.821289,51.75 L192.821289,56.4155273 Z M205.250977,63.1464844 C204.577145,63.1464844 203.96802,62.9804704 203.423584,62.6484375 C202.879148,62.3164046 202.455568,61.8537627 202.152832,61.260498 C201.850096,60.6672334 201.69873,60.0019568 201.69873,59.2646484 L201.69873,58.949707 C201.69873,58.1879845 201.846434,57.5019562 202.141846,56.8916016 C202.437257,56.2812469 202.84863,55.8015154 203.375977,55.4523926 C203.903323,55.1032697 204.474606,54.9287109 205.089844,54.9287109 C206.051763,54.9287109 206.814694,55.2570768 207.378662,55.9138184 C207.94263,56.5705599 208.224609,57.4677677 208.224609,58.6054688 L208.224609,59.0961914 L202.570312,59.0961914 L202.570312,59.2646484 C202.570312,60.1630904 202.827878,60.911374 203.343018,61.5095215 C203.858157,62.107669 204.506344,62.4067383 205.287598,62.4067383 C205.75635,62.4067383 206.170164,62.3212899 206.529053,62.1503906 C206.887941,61.9794913 207.213866,61.7060566 207.506836,61.3300781 L208.056152,61.7475586 C207.411618,62.6801804 206.476569,63.1464844 205.250977,63.1464844 Z M205.089844,55.6757812 C204.430661,55.6757812 203.875246,55.9174781 203.423584,56.4008789 C202.971922,56.8842798 202.697266,57.5336873 202.599609,58.3491211 L207.353027,58.3491211 L207.353027,58.2539062 C207.328613,57.4921837 207.11133,56.8720727 206.701172,56.3935547 C206.291014,55.9150367 205.75391,55.6757812 205.089844,55.6757812 Z M7.22167969,76.0195312 L2.24853516,76.0195312 L2.24853516,81 L1.34765625,81 L1.34765625,70.3359375 L7.95410156,70.3359375 L7.95410156,71.1049805 L2.24853516,71.1049805 L2.24853516,75.2504883 L7.22167969,75.2504883 L7.22167969,76.0195312 Z M12.5615234,81 L11.6826172,81 L11.6826172,69.75 L12.5615234,69.75 L12.5615234,81 Z M16.4584961,76.9204102 C16.4584961,76.1586876 16.6061997,75.4726593 16.9016113,74.8623047 C17.197023,74.2519501 17.6144993,73.7771013 18.1540527,73.4377441 C18.6936062,73.098387 19.3051724,72.9287109 19.9887695,72.9287109 C21.0434623,72.9287109 21.8979459,73.2985803 22.5522461,74.0383301 C23.2065462,74.7780799 23.5336914,75.7582947 23.5336914,76.9790039 L23.5336914,77.1621094 C23.5336914,77.9287148 23.3859878,78.6184051 23.0905762,79.2312012 C22.7951645,79.8439972 22.3789089,80.3164046 21.8417969,80.6484375 C21.3046848,80.9804704 20.691898,81.1464844 20.003418,81.1464844 C18.953608,81.1464844 18.1003451,80.776615 17.4436035,80.0368652 C16.786862,79.2971154 16.4584961,78.3169006 16.4584961,77.0961914 L16.4584961,76.9204102 Z M17.3374023,77.1621094 C17.3374023,78.1093797 17.5827612,78.8869599 18.0734863,79.494873 C18.5642114,80.1027862 19.2075156,80.4067383 20.003418,80.4067383 C20.7944375,80.4067383 21.4353003,80.1027862 21.9260254,79.494873 C22.4167505,78.8869599 22.6621094,78.0849659 22.6621094,77.0888672 L22.6621094,76.9204102 C22.6621094,76.3149384 22.5498058,75.7607447 22.3251953,75.2578125 C22.1005848,74.7548803 21.7856466,74.3654799 21.3803711,74.0895996 C20.9750956,73.8137193 20.5112331,73.6757812 19.9887695,73.6757812 C19.2075156,73.6757812 18.570315,73.9821747 18.0771484,74.5949707 C17.5839819,75.2077667 17.3374023,76.0097607 17.3374023,77.0009766 L17.3374023,77.1621094 Z M29.2397461,79.1762695 L29.371582,79.8574219 L29.5473633,79.1396484 L31.4516602,73.0751953 L32.1987305,73.0751953 L34.0810547,79.0883789 L34.2861328,79.9233398 L34.4545898,79.1542969 L36.0805664,73.0751953 L36.9887695,73.0751953 L34.6816406,81 L33.9345703,81 L31.8984375,74.7158203 L31.8032227,74.2836914 L31.7080078,74.7231445 L29.7084961,81 L28.9614258,81 L26.6616211,73.0751953 L27.5625,73.0751953 L29.2397461,79.1762695 Z M47.0307617,77.1181641 C47.0307617,78.3535218 46.757327,79.3337366 46.2104492,80.0588379 C45.6635715,80.7839392 44.9287156,81.1464844 44.0058594,81.1464844 C42.9023382,81.1464844 42.0673856,80.7363322 41.5009766,79.9160156 L41.4643555,81 L40.644043,81 L40.644043,69.75 L41.515625,69.75 L41.515625,74.2250977 C42.0722684,73.3608355 42.8974555,72.9287109 43.9912109,72.9287109 C44.9287156,72.9287109 45.669675,73.2863734 46.2141113,74.001709 C46.7585476,74.7170446 47.0307617,75.7119077 47.0307617,76.9863281 L47.0307617,77.1181641 Z M46.1518555,76.9643555 C46.1518555,75.9194284 45.9492208,75.1125517 45.5439453,74.5437012 C45.1386698,73.9748507 44.5673865,73.6904297 43.8300781,73.6904297 C43.2685519,73.6904297 42.7924824,73.8283678 42.4018555,74.104248 C42.0112285,74.3801283 41.7158213,74.784177 41.515625,75.3164062 L41.515625,78.890625 C41.9550803,79.8867237 42.7314397,80.3847656 43.8447266,80.3847656 C44.5673864,80.3847656 45.1325663,80.099124 45.5402832,79.527832 C45.9480001,78.9565401 46.1518555,78.1020565 46.1518555,76.9643555 Z M50.480957,76.9204102 C50.480957,76.1586876 50.6286606,75.4726593 50.9240723,74.8623047 C51.2194839,74.2519501 51.6369602,73.7771013 52.1765137,73.4377441 C52.7160672,73.098387 53.3276333,72.9287109 54.0112305,72.9287109 C55.0659232,72.9287109 55.9204069,73.2985803 56.574707,74.0383301 C57.2290072,74.7780799 57.5561523,75.7582947 57.5561523,76.9790039 L57.5561523,77.1621094 C57.5561523,77.9287148 57.4084487,78.6184051 57.1130371,79.2312012 C56.8176255,79.8439972 56.4013699,80.3164046 55.8642578,80.6484375 C55.3271458,80.9804704 54.7143589,81.1464844 54.0258789,81.1464844 C52.976069,81.1464844 52.122806,80.776615 51.4660645,80.0368652 C50.8093229,79.2971154 50.480957,78.3169006 50.480957,77.0961914 L50.480957,76.9204102 Z M51.3598633,77.1621094 C51.3598633,78.1093797 51.6052222,78.8869599 52.0959473,79.494873 C52.5866724,80.1027862 53.2299765,80.4067383 54.0258789,80.4067383 C54.8168985,80.4067383 55.4577612,80.1027862 55.9484863,79.494873 C56.4392114,78.8869599 56.6845703,78.0849659 56.6845703,77.0888672 L56.6845703,76.9204102 C56.6845703,76.3149384 56.5722667,75.7607447 56.3476562,75.2578125 C56.1230458,74.7548803 55.8081075,74.3654799 55.402832,74.0895996 C54.9975566,73.8137193 54.533694,73.6757812 54.0112305,73.6757812 C53.2299766,73.6757812 52.5927759,73.9821747 52.0996094,74.5949707 C51.6064428,75.2077667 51.3598633,76.0097607 51.3598633,77.0009766 L51.3598633,77.1621094 Z M61.0136719,76.9643555 C61.0136719,75.7338806 61.2883273,74.7536658 61.8376465,74.0236816 C62.3869656,73.2936975 63.1328078,72.9287109 64.0751953,72.9287109 C65.1445366,72.9287109 65.9599581,73.35107 66.5214844,74.1958008 L66.5214844,69.75 L67.3930664,69.75 L67.3930664,81 L66.5727539,81 L66.5361328,79.9453125 C65.9746066,80.7460978 65.1494195,81.1464844 64.0605469,81.1464844 C63.1474564,81.1464844 62.4113797,80.7790564 61.8522949,80.0441895 C61.2932101,79.3093225 61.0136719,78.3169008 61.0136719,77.0668945 L61.0136719,76.9643555 Z M61.8999023,77.1181641 C61.8999023,78.1289113 62.102537,78.9260225 62.5078125,79.5095215 C62.913088,80.0930205 63.4843713,80.3847656 64.2216797,80.3847656 C65.3007866,80.3847656 66.0673805,79.9086962 66.5214844,78.956543 L66.5214844,75.2358398 C66.0673805,74.2055613 65.3056694,73.6904297 64.2363281,73.6904297 C63.4990198,73.6904297 62.925295,73.9797334 62.5151367,74.5583496 C62.1049784,75.1369658 61.8999023,75.9902287 61.8999023,77.1181641 Z M72.6816406,81 L71.8027344,81 L71.8027344,73.0751953 L72.6816406,73.0751953 L72.6816406,81 Z M71.6489258,70.7827148 C71.6489258,70.6166984 71.7026362,70.4763189 71.8100586,70.3615723 C71.917481,70.2468256 72.0639639,70.1894531 72.2495117,70.1894531 C72.4350595,70.1894531 72.5827631,70.2468256 72.692627,70.3615723 C72.8024908,70.4763189 72.8574219,70.6166984 72.8574219,70.7827148 C72.8574219,70.9487313 72.8024908,71.0878901 72.692627,71.2001953 C72.5827631,71.3125006 72.4350595,71.3686523 72.2495117,71.3686523 C72.0639639,71.3686523 71.917481,71.3125006 71.8100586,71.2001953 C71.7026362,71.0878901 71.6489258,70.9487313 71.6489258,70.7827148 Z M80.1308594,81.1464844 C79.4570279,81.1464844 78.8479031,80.9804704 78.3034668,80.6484375 C77.7590305,80.3164046 77.3354507,79.8537627 77.0327148,79.260498 C76.729979,78.6672334 76.5786133,78.0019568 76.5786133,77.2646484 L76.5786133,76.949707 C76.5786133,76.1879845 76.7263169,75.5019562 77.0217285,74.8916016 C77.3171401,74.2812469 77.728513,73.8015154 78.2558594,73.4523926 C78.7832058,73.1032697 79.3544891,72.9287109 79.9697266,72.9287109 C80.9316454,72.9287109 81.6945773,73.2570768 82.2585449,73.9138184 C82.8225126,74.5705599 83.1044922,75.4677677 83.1044922,76.6054688 L83.1044922,77.0961914 L77.4501953,77.0961914 L77.4501953,77.2646484 C77.4501953,78.1630904 77.7077611,78.911374 78.2229004,79.5095215 C78.7380397,80.107669 79.3862266,80.4067383 80.1674805,80.4067383 C80.6362328,80.4067383 81.050047,80.3212899 81.4089355,80.1503906 C81.7678241,79.9794913 82.0937485,79.7060566 82.3867188,79.3300781 L82.9360352,79.7475586 C82.2915007,80.6801804 81.3564514,81.1464844 80.1308594,81.1464844 Z M79.9697266,73.6757812 C79.3105436,73.6757812 78.7551292,73.9174781 78.3034668,74.4008789 C77.8518044,74.8842798 77.5771489,75.5336873 77.4794922,76.3491211 L82.2329102,76.3491211 L82.2329102,76.2539062 C82.208496,75.4921837 81.991213,74.8720727 81.5810547,74.3935547 C81.1708964,73.9150367 80.6337924,73.6757812 79.9697266,73.6757812 Z M91.5571289,78.9858398 C91.5571289,78.5512674 91.3825701,78.2021498 91.0334473,77.9384766 C90.6843244,77.6748034 90.1582066,77.4685066 89.4550781,77.3195801 C88.7519496,77.1706536 88.2063008,76.9997568 87.8181152,76.8068848 C87.4299297,76.6140127 87.1418466,76.3784194 86.9538574,76.1000977 C86.7658682,75.821776 86.671875,75.4848653 86.671875,75.0893555 C86.671875,74.4643523 86.9331029,73.9480001 87.4555664,73.5402832 C87.97803,73.1325663 88.6469686,72.9287109 89.4624023,72.9287109 C90.3461958,72.9287109 91.0554172,73.1472146 91.5900879,73.5842285 C92.1247585,74.0212424 92.3920898,74.5913051 92.3920898,75.2944336 L91.5131836,75.2944336 C91.5131836,74.8305641 91.3190937,74.4448258 90.9309082,74.137207 C90.5427227,73.8295883 90.0532256,73.6757812 89.4624023,73.6757812 C88.8862276,73.6757812 88.4235857,73.8039538 88.0744629,74.0603027 C87.7253401,74.3166517 87.5507812,74.6499003 87.5507812,75.0600586 C87.5507812,75.4555684 87.6960435,75.7619618 87.9865723,75.979248 C88.2771011,76.1965343 88.8068809,76.3955069 89.5759277,76.5761719 C90.3449745,76.7568368 90.9211407,76.949706 91.3044434,77.1547852 C91.6877461,77.3598643 91.972167,77.6064439 92.1577148,77.8945312 C92.3432626,78.1826186 92.4360352,78.5317362 92.4360352,78.9418945 C92.4360352,79.6108432 92.1662625,80.1455058 91.626709,80.5458984 C91.0871555,80.9462911 90.3828168,81.1464844 89.5136719,81.1464844 C88.5908157,81.1464844 87.8425322,80.9230979 87.2687988,80.4763184 C86.6950655,80.0295388 86.4082031,79.4643589 86.4082031,78.7807617 L87.2871094,78.7807617 C87.3212892,79.2934596 87.5373515,79.6926255 87.9353027,79.9782715 C88.3332539,80.2639174 88.8593717,80.4067383 89.5136719,80.4067383 C90.1240265,80.4067383 90.6171856,80.2724623 90.9931641,80.0039062 C91.3691425,79.7353502 91.5571289,79.3959981 91.5571289,78.9858398 Z M107.056152,81 C106.968261,80.7509753 106.912109,80.3823267 106.887695,79.894043 C106.580077,80.2944356 106.188235,80.6032704 105.712158,80.8205566 C105.236082,81.0378429 104.731936,81.1464844 104.199707,81.1464844 C103.437984,81.1464844 102.821536,80.9340842 102.350342,80.5092773 C101.879148,80.0844705 101.643555,79.5473665 101.643555,78.8979492 C101.643555,78.126461 101.964596,77.5161155 102.606689,77.0668945 C103.248783,76.6176735 104.143549,76.3930664 105.291016,76.3930664 L106.880371,76.3930664 L106.880371,75.4921875 C106.880371,74.9257784 106.705812,74.4802262 106.356689,74.1555176 C106.007567,73.8308089 105.498539,73.668457 104.82959,73.668457 C104.219235,73.668457 103.713869,73.8247055 103.313477,74.137207 C102.913084,74.4497086 102.712891,74.8256814 102.712891,75.2651367 L101.833984,75.2578125 C101.833984,74.6279265 102.12695,74.0822777 102.712891,73.6208496 C103.298831,73.1594215 104.019039,72.9287109 104.873535,72.9287109 C105.757329,72.9287109 106.454343,73.149656 106.9646,73.5915527 C107.474856,74.0334495 107.737305,74.6498984 107.751953,75.440918 L107.751953,79.190918 C107.751953,79.9575234 107.832519,80.5312481 107.993652,80.9121094 L107.993652,81 L107.056152,81 Z M104.302246,80.3701172 C104.888187,80.3701172 105.411863,80.228517 105.873291,79.9453125 C106.334719,79.662108 106.670409,79.2836938 106.880371,78.8100586 L106.880371,77.0668945 L105.312988,77.0668945 C104.43896,77.0766602 103.755374,77.2365707 103.262207,77.5466309 C102.769041,77.856691 102.522461,78.2827121 102.522461,78.824707 C102.522461,79.2690452 102.687254,79.6376938 103.016846,79.9306641 C103.346437,80.2236343 103.7749,80.3701172 104.302246,80.3701172 Z M121.397949,73.8222656 C121.212401,73.7880858 121.014649,73.7709961 120.804688,73.7709961 C120.25781,73.7709961 119.795168,73.9235825 119.416748,74.2287598 C119.038328,74.5339371 118.768555,74.9770479 118.607422,75.5581055 L118.607422,81 L117.73584,81 L117.73584,73.0751953 L118.592773,73.0751953 L118.607422,74.3349609 C119.071291,73.3974563 119.815913,72.9287109 120.841309,72.9287109 C121.08545,72.9287109 121.27832,72.9604489 121.419922,73.0239258 L121.397949,73.8222656 Z M127.711914,81.1464844 C127.038083,81.1464844 126.428958,80.9804704 125.884521,80.6484375 C125.340085,80.3164046 124.916505,79.8537627 124.61377,79.260498 C124.311034,78.6672334 124.159668,78.0019568 124.159668,77.2646484 L124.159668,76.949707 C124.159668,76.1879845 124.307372,75.5019562 124.602783,74.8916016 C124.898195,74.2812469 125.309568,73.8015154 125.836914,73.4523926 C126.36426,73.1032697 126.935544,72.9287109 127.550781,72.9287109 C128.5127,72.9287109 129.275632,73.2570768 129.8396,73.9138184 C130.403567,74.5705599 130.685547,75.4677677 130.685547,76.6054688 L130.685547,77.0961914 L125.03125,77.0961914 L125.03125,77.2646484 C125.03125,78.1630904 125.288816,78.911374 125.803955,79.5095215 C126.319094,80.107669 126.967281,80.4067383 127.748535,80.4067383 C128.217287,80.4067383 128.631102,80.3212899 128.98999,80.1503906 C129.348879,79.9794913 129.674803,79.7060566 129.967773,79.3300781 L130.51709,79.7475586 C129.872555,80.6801804 128.937506,81.1464844 127.711914,81.1464844 Z M127.550781,73.6757812 C126.891598,73.6757812 126.336184,73.9174781 125.884521,74.4008789 C125.432859,74.8842798 125.158204,75.5336873 125.060547,76.3491211 L129.813965,76.3491211 L129.813965,76.2539062 C129.789551,75.4921837 129.572268,74.8720727 129.162109,74.3935547 C128.751951,73.9150367 128.214847,73.6757812 127.550781,73.6757812 Z M139.394531,81 C139.30664,80.7509753 139.250488,80.3823267 139.226074,79.894043 C138.918455,80.2944356 138.526614,80.6032704 138.050537,80.8205566 C137.574461,81.0378429 137.070315,81.1464844 136.538086,81.1464844 C135.776363,81.1464844 135.159914,80.9340842 134.688721,80.5092773 C134.217527,80.0844705 133.981934,79.5473665 133.981934,78.8979492 C133.981934,78.126461 134.302975,77.5161155 134.945068,77.0668945 C135.587161,76.6176735 136.481928,76.3930664 137.629395,76.3930664 L139.21875,76.3930664 L139.21875,75.4921875 C139.21875,74.9257784 139.044191,74.4802262 138.695068,74.1555176 C138.345946,73.8308089 137.836917,73.668457 137.167969,73.668457 C136.557614,73.668457 136.052248,73.8247055 135.651855,74.137207 C135.251463,74.4497086 135.05127,74.8256814 135.05127,75.2651367 L134.172363,75.2578125 C134.172363,74.6279265 134.465329,74.0822777 135.05127,73.6208496 C135.63721,73.1594215 136.357418,72.9287109 137.211914,72.9287109 C138.095708,72.9287109 138.792722,73.149656 139.302979,73.5915527 C139.813235,74.0334495 140.075684,74.6498984 140.090332,75.440918 L140.090332,79.190918 C140.090332,79.9575234 140.170898,80.5312481 140.332031,80.9121094 L140.332031,81 L139.394531,81 Z M136.640625,80.3701172 C137.226565,80.3701172 137.750242,80.228517 138.21167,79.9453125 C138.673098,79.662108 139.008788,79.2836938 139.21875,78.8100586 L139.21875,77.0668945 L137.651367,77.0668945 C136.777339,77.0766602 136.093752,77.2365707 135.600586,77.5466309 C135.107419,77.856691 134.86084,78.2827121 134.86084,78.824707 C134.86084,79.2690452 135.025633,79.6376938 135.355225,79.9306641 C135.684816,80.2236343 136.113279,80.3701172 136.640625,80.3701172 Z M145.408203,81 L144.529297,81 L144.529297,69.75 L145.408203,69.75 L145.408203,81 Z M150.77002,81 L149.891113,81 L149.891113,73.0751953 L150.77002,73.0751953 L150.77002,81 Z M149.737305,70.7827148 C149.737305,70.6166984 149.791015,70.4763189 149.898438,70.3615723 C150.00586,70.2468256 150.152343,70.1894531 150.337891,70.1894531 C150.523438,70.1894531 150.671142,70.2468256 150.781006,70.3615723 C150.89087,70.4763189 150.945801,70.6166984 150.945801,70.7827148 C150.945801,70.9487313 150.89087,71.0878901 150.781006,71.2001953 C150.671142,71.3125006 150.523438,71.3686523 150.337891,71.3686523 C150.152343,71.3686523 150.00586,71.3125006 149.898438,71.2001953 C149.791015,71.0878901 149.737305,70.9487313 149.737305,70.7827148 Z M156.512695,71.0463867 L156.512695,73.0751953 L158.15332,73.0751953 L158.15332,73.7929688 L156.512695,73.7929688 L156.512695,79.0737305 C156.512695,79.5131858 156.59204,79.840331 156.750732,80.0551758 C156.909425,80.2700206 157.174315,80.3774414 157.54541,80.3774414 C157.691895,80.3774414 157.928709,80.3530276 158.255859,80.3041992 L158.29248,81.0219727 C158.062987,81.1049809 157.75049,81.1464844 157.35498,81.1464844 C156.754392,81.1464844 156.317384,80.9719256 156.043945,80.6228027 C155.770506,80.2736799 155.633789,79.759769 155.633789,79.0810547 L155.633789,73.7929688 L154.17627,73.7929688 L154.17627,73.0751953 L155.633789,73.0751953 L155.633789,71.0463867 L156.512695,71.0463867 Z M164.481934,79.7402344 L166.796387,73.0751953 L167.741211,73.0751953 L164.357422,82.3476562 L164.181641,82.7578125 C163.747068,83.7197314 163.075688,84.2006836 162.16748,84.2006836 C161.957518,84.2006836 161.732911,84.1665042 161.493652,84.0981445 L161.486328,83.3730469 L161.94043,83.4169922 C162.370119,83.4169922 162.718016,83.3107921 162.984131,83.0983887 C163.250245,82.8859853 163.476073,82.5209987 163.661621,82.003418 L164.049805,80.934082 L161.061523,73.0751953 L162.020996,73.0751953 L164.481934,79.7402344 Z M170.231934,80.4726562 C170.231934,80.301757 170.286865,80.1564947 170.396729,80.0368652 C170.506592,79.9172357 170.659179,79.8574219 170.854492,79.8574219 C171.049806,79.8574219 171.203613,79.9172357 171.315918,80.0368652 C171.428223,80.1564947 171.484375,80.301757 171.484375,80.4726562 C171.484375,80.6435555 171.428223,80.783935 171.315918,80.8937988 C171.203613,81.0036627 171.049806,81.0585938 170.854492,81.0585938 C170.659179,81.0585938 170.506592,81.0036627 170.396729,80.8937988 C170.286865,80.783935 170.231934,80.6435555 170.231934,80.4726562 Z" id="Differents-roads-but"></path>
            </g>
        </g>
    </g>
</svg>