<?xml version="1.0" encoding="UTF-8"?>
<svg width="251px" height="84px" viewBox="0 0 251 84" version="1.1" xmlns="http://www.w3.org/2000/svg" xmlns:xlink="http://www.w3.org/1999/xlink">
    <!-- Generator: Sketch 41.2 (35397) - http://www.bohemiancoding.com/sketch -->
    <title>Group 9</title>
    <desc>Created with Sketch.</desc>
    <defs></defs>
    <g id="Page-1" stroke="none" stroke-width="1" fill="none" fill-rule="evenodd">
        <g id="Desktop-HD-Copy" transform="translate(-385.000000, -586.000000)" fill="#000000">
            <g id="Group-9" transform="translate(385.000000, 586.000000)">
                <path d="M8.7890625,1.83007812 L5.46386719,1.83007812 L5.46386719,11 L3.62548828,11 L3.62548828,1.83007812 L0.329589844,1.83007812 L0.329589844,0.3359375 L8.7890625,0.3359375 L8.7890625,1.83007812 Z M19.9882812,0.3359375 L19.9882812,7.46240234 C19.9882812,8.59522051 19.625736,9.49242833 18.9006348,10.1540527 C18.1755335,10.8156771 17.209967,11.1464844 16.0039062,11.1464844 C14.783197,11.1464844 13.8139684,10.8205599 13.0961914,10.1687012 C12.3784144,9.51684244 12.0195312,8.61231047 12.0195312,7.45507812 L12.0195312,0.3359375 L13.8652344,0.3359375 L13.8652344,7.46972656 C13.8652344,8.18262075 14.0458966,8.7270489 14.4072266,9.10302734 C14.7685565,9.47900579 15.3007777,9.66699219 16.0039062,9.66699219 C17.4296946,9.66699219 18.1425781,8.91504658 18.1425781,7.41113281 L18.1425781,0.3359375 L19.9882812,0.3359375 Z M32.4765625,5.94628906 C32.4765625,6.99121616 32.2959002,7.90795504 31.9345703,8.6965332 C31.5732404,9.48511136 31.0568881,10.0905741 30.385498,10.5129395 C29.714108,10.9353048 28.9414106,11.1464844 28.0673828,11.1464844 C27.2031207,11.1464844 26.4328647,10.9353048 25.7565918,10.5129395 C25.0803189,10.0905741 24.5578632,9.48877344 24.189209,8.70751953 C23.8205548,7.92626563 23.6337891,7.02539573 23.6289063,6.00488281 L23.6289063,5.40429688 C23.6289063,4.36425261 23.8132306,3.44629304 24.1818848,2.65039062 C24.550539,1.85448821 25.0705533,1.24536344 25.7419434,0.822998047 C26.4133334,0.400632654 27.1835894,0.189453125 28.0527344,0.189453125 C28.9218793,0.189453125 29.6921353,0.398191272 30.3635254,0.815673828 C31.0349155,1.23315638 31.5537091,1.83373632 31.9199219,2.61743164 C32.2861346,3.40112697 32.4716797,4.31298308 32.4765625,5.35302734 L32.4765625,5.94628906 Z M30.6235352,5.38964844 C30.6235352,4.2080019 30.4001487,3.30224924 29.9533691,2.67236328 C29.5065896,2.04247732 28.873051,1.72753906 28.0527344,1.72753906 C27.2519491,1.72753906 26.6257347,2.04125663 26.1740723,2.66870117 C25.7224099,3.29614572 25.4916993,4.18358801 25.4819336,5.33105469 L25.4819336,5.94628906 C25.4819336,7.11816992 25.7102028,8.02392258 26.166748,8.66357422 C26.6232933,9.30322585 27.2568319,9.62304688 28.0673828,9.62304688 C28.8876994,9.62304688 29.5187966,9.31055 29.9606934,8.68554688 C30.4025901,8.06054375 30.6235352,7.14746694 30.6235352,5.94628906 L30.6235352,5.38964844 Z M38.175293,9.52050781 L43.0166016,9.52050781 L43.0166016,11 L36.3222656,11 L36.3222656,0.3359375 L38.175293,0.3359375 L38.175293,9.52050781 Z M54.0620117,0.3359375 L54.0620117,7.46240234 C54.0620117,8.59522051 53.6994665,9.49242833 52.9743652,10.1540527 C52.249264,10.8156771 51.2836974,11.1464844 50.0776367,11.1464844 C48.8569275,11.1464844 47.8876989,10.8205599 47.1699219,10.1687012 C46.4521448,9.51684244 46.0932617,8.61231047 46.0932617,7.45507812 L46.0932617,0.3359375 L47.9389648,0.3359375 L47.9389648,7.46972656 C47.9389648,8.18262075 48.1196271,8.7270489 48.480957,9.10302734 C48.842287,9.47900579 49.3745082,9.66699219 50.0776367,9.66699219 C51.5034251,9.66699219 52.2163086,8.91504658 52.2163086,7.41113281 L52.2163086,0.3359375 L54.0620117,0.3359375 Z M60.4418945,0.3359375 L63.5180664,8.50976562 L66.5869141,0.3359375 L68.9819336,0.3359375 L68.9819336,11 L67.1362305,11 L67.1362305,7.484375 L67.3193359,2.78222656 L64.1699219,11 L62.8442383,11 L59.7021484,2.78955078 L59.8852539,7.484375 L59.8852539,11 L58.0395508,11 L58.0395508,0.3359375 L60.4418945,0.3359375 Z M81.6313477,11 L79.7783203,11 L75.0249023,3.43408203 L75.0249023,11 L73.171875,11 L73.171875,0.3359375 L75.0249023,0.3359375 L79.7929688,7.93115234 L79.7929688,0.3359375 L81.6313477,0.3359375 L81.6313477,11 Z M92.0541992,6.23925781 L87.6743164,6.23925781 L87.6743164,9.52050781 L92.7939453,9.52050781 L92.7939453,11 L85.8212891,11 L85.8212891,0.3359375 L92.7426758,0.3359375 L92.7426758,1.83007812 L87.6743164,1.83007812 L87.6743164,4.77441406 L92.0541992,4.77441406 L92.0541992,6.23925781 Z" id="TUOLUMNE"></path>
                <path d="M7.10449219,41.0117188 L2.26318359,41.0117188 L1.16455078,44 L0.219726562,44 L4.25537109,33.3359375 L5.11230469,33.3359375 L9.14794922,44 L8.21044922,44 L7.10449219,41.0117188 Z M2.54150391,40.2426758 L6.81884766,40.2426758 L4.68017578,34.4345703 L2.54150391,40.2426758 Z M16.1723633,36.8222656 C15.9868155,36.7880858 15.7890635,36.7709961 15.5791016,36.7709961 C15.0322238,36.7709961 14.569582,36.9235825 14.1911621,37.2287598 C13.8127422,37.5339371 13.5429696,37.9770479 13.3818359,38.5581055 L13.3818359,44 L12.5102539,44 L12.5102539,36.0751953 L13.3671875,36.0751953 L13.3818359,37.3349609 C13.8457054,36.3974563 14.5903269,35.9287109 15.6157227,35.9287109 C15.8598645,35.9287109 16.0527337,35.9604489 16.1943359,36.0239258 L16.1723633,36.8222656 Z M23.21875,36.8222656 C23.0332022,36.7880858 22.8354503,36.7709961 22.6254883,36.7709961 C22.0786105,36.7709961 21.6159687,36.9235825 21.2375488,37.2287598 C20.859129,37.5339371 20.5893563,37.9770479 20.4282227,38.5581055 L20.4282227,44 L19.5566406,44 L19.5566406,36.0751953 L20.4135742,36.0751953 L20.4282227,37.3349609 C20.8920922,36.3974563 21.6367136,35.9287109 22.6621094,35.9287109 C22.9062512,35.9287109 23.0991204,35.9604489 23.2407227,36.0239258 L23.21875,36.8222656 Z M27.5844727,44 L26.7055664,44 L26.7055664,36.0751953 L27.5844727,36.0751953 L27.5844727,44 Z M26.5517578,33.7827148 C26.5517578,33.6166984 26.6054682,33.4763189 26.7128906,33.3615723 C26.820313,33.2468256 26.9667959,33.1894531 27.1523438,33.1894531 C27.3378916,33.1894531 27.4855952,33.2468256 27.595459,33.3615723 C27.7053228,33.4763189 27.7602539,33.6166984 27.7602539,33.7827148 C27.7602539,33.9487313 27.7053228,34.0878901 27.595459,34.2001953 C27.4855952,34.3125006 27.3378916,34.3686523 27.1523438,34.3686523 C26.9667959,34.3686523 26.820313,34.3125006 26.7128906,34.2001953 C26.6054682,34.0878901 26.5517578,33.9487313 26.5517578,33.7827148 Z M34.4331055,42.7915039 L36.8427734,36.0751953 L37.7436523,36.0751953 L34.784668,44 L34.0742188,44 L31.1005859,36.0751953 L32.0014648,36.0751953 L34.4331055,42.7915039 Z M42.1606445,44 L41.2817383,44 L41.2817383,36.0751953 L42.1606445,36.0751953 L42.1606445,44 Z M41.1279297,33.7827148 C41.1279297,33.6166984 41.1816401,33.4763189 41.2890625,33.3615723 C41.3964849,33.2468256 41.5429678,33.1894531 41.7285156,33.1894531 C41.9140634,33.1894531 42.061767,33.2468256 42.1716309,33.3615723 C42.2814947,33.4763189 42.3364258,33.6166984 42.3364258,33.7827148 C42.3364258,33.9487313 42.2814947,34.0878901 42.1716309,34.2001953 C42.061767,34.3125006 41.9140634,34.3686523 41.7285156,34.3686523 C41.5429678,34.3686523 41.3964849,34.3125006 41.2890625,34.2001953 C41.1816401,34.0878901 41.1279297,33.9487313 41.1279297,33.7827148 Z M47.3759766,36.0751953 L47.4052734,37.4301758 C47.7031265,36.9418921 48.0742165,36.5695814 48.5185547,36.3132324 C48.9628928,36.0568835 49.4536106,35.9287109 49.9907227,35.9287109 C50.8403363,35.9287109 51.4726542,36.1679664 51.8876953,36.6464844 C52.3027365,37.1250024 52.5126953,37.8427687 52.5175781,38.7998047 L52.5175781,44 L51.6459961,44 L51.6459961,38.7924805 C51.6411133,38.0844691 51.4909683,37.5571306 51.1955566,37.2104492 C50.900145,36.8637678 50.4277376,36.6904297 49.7783203,36.6904297 C49.2363254,36.6904297 48.7565939,36.8601057 48.3391113,37.1994629 C47.9216288,37.5388201 47.612794,37.9965792 47.4125977,38.5727539 L47.4125977,44 L46.5410156,44 L46.5410156,36.0751953 L47.3759766,36.0751953 Z M56.4291992,39.9643555 C56.4291992,38.7241149 56.7038547,37.7414587 57.2531738,37.0163574 C57.802493,36.2912561 58.5483351,35.9287109 59.4907227,35.9287109 C60.5698296,35.9287109 61.3901339,36.3583941 61.9516602,37.2177734 L61.9956055,36.0751953 L62.815918,36.0751953 L62.815918,43.8388672 C62.815918,44.8593801 62.5302763,45.6674775 61.9589844,46.2631836 C61.3876925,46.8588897 60.6137744,47.1567383 59.637207,47.1567383 C59.0854465,47.1567383 58.5593287,47.0334485 58.0588379,46.7868652 C57.5583471,46.540282 57.1640639,46.2119161 56.8759766,45.8017578 L57.3666992,45.2744141 C57.9868195,46.0361366 58.7241168,46.4169922 59.5786133,46.4169922 C60.3110388,46.4169922 60.8823222,46.2009299 61.2924805,45.7687988 C61.7026388,45.3366678 61.915039,44.7373085 61.9296875,43.9707031 L61.9296875,42.9746094 C61.3681613,43.7558633 60.5502983,44.1464844 59.4760742,44.1464844 C58.5581009,44.1464844 57.8208036,43.7802771 57.2641602,43.0478516 C56.7075167,42.315426 56.4291992,41.3266664 56.4291992,40.081543 L56.4291992,39.9643555 Z M57.3154297,40.1181641 C57.3154297,41.1289113 57.5180644,41.9260225 57.9233398,42.5095215 C58.3286153,43.0930205 58.8998987,43.3847656 59.637207,43.3847656 C60.716314,43.3847656 61.4804665,42.901372 61.9296875,41.9345703 L61.9296875,38.2504883 C61.7246083,37.7426732 61.4292011,37.3557142 61.043457,37.0895996 C60.6577129,36.823485 60.1938504,36.6904297 59.6518555,36.6904297 C58.9145471,36.6904297 58.3408224,36.9797334 57.9306641,37.5583496 C57.5205058,38.1369658 57.3154297,38.9902287 57.3154297,40.1181641 Z M73.6201172,37.4155273 C73.9082046,36.9418922 74.2768532,36.5756849 74.7260742,36.3168945 C75.1752952,36.0581042 75.666013,35.9287109 76.1982422,35.9287109 C77.0478558,35.9287109 77.6801737,36.1679664 78.0952148,36.6464844 C78.510256,37.1250024 78.7202148,37.8427687 78.7250977,38.7998047 L78.7250977,44 L77.8535156,44 L77.8535156,38.7924805 C77.8486328,38.0844691 77.6984878,37.5571306 77.4030762,37.2104492 C77.1076645,36.8637678 76.6352572,36.6904297 75.9858398,36.6904297 C75.4438449,36.6904297 74.9641134,36.8601057 74.5466309,37.1994629 C74.1291483,37.5388201 73.8203135,37.9965792 73.6201172,38.5727539 L73.6201172,44 L72.7485352,44 L72.7485352,32.75 L73.6201172,32.75 L73.6201172,37.4155273 Z M86.0498047,44.1464844 C85.3759732,44.1464844 84.7668484,43.9804704 84.2224121,43.6484375 C83.6779758,43.3164046 83.254396,42.8537627 82.9516602,42.260498 C82.6489243,41.6672334 82.4975586,41.0019568 82.4975586,40.2646484 L82.4975586,39.949707 C82.4975586,39.1879845 82.6452622,38.5019562 82.9406738,37.8916016 C83.2360855,37.2812469 83.6474583,36.8015154 84.1748047,36.4523926 C84.7021511,36.1032697 85.2734344,35.9287109 85.8886719,35.9287109 C86.8505907,35.9287109 87.6135226,36.2570768 88.1774902,36.9138184 C88.7414579,37.5705599 89.0234375,38.4677677 89.0234375,39.6054688 L89.0234375,40.0961914 L83.3691406,40.0961914 L83.3691406,40.2646484 C83.3691406,41.1630904 83.6267064,41.911374 84.1418457,42.5095215 C84.656985,43.107669 85.3051719,43.4067383 86.0864258,43.4067383 C86.5551781,43.4067383 86.9689923,43.3212899 87.3278809,43.1503906 C87.6867694,42.9794913 88.0126938,42.7060566 88.3056641,42.3300781 L88.8549805,42.7475586 C88.210446,43.6801804 87.2753968,44.1464844 86.0498047,44.1464844 Z M85.8886719,36.6757812 C85.2294889,36.6757812 84.6740745,36.9174781 84.2224121,37.4008789 C83.7707497,37.8842798 83.4960942,38.5336873 83.3984375,39.3491211 L88.1518555,39.3491211 L88.1518555,39.2539062 C88.1274413,38.4921837 87.9101583,37.8720727 87.5,37.3935547 C87.0898417,36.9150367 86.5527377,36.6757812 85.8886719,36.6757812 Z M96.3920898,36.8222656 C96.206542,36.7880858 96.0087901,36.7709961 95.7988281,36.7709961 C95.2519504,36.7709961 94.7893085,36.9235825 94.4108887,37.2287598 C94.0324688,37.5339371 93.7626961,37.9770479 93.6015625,38.5581055 L93.6015625,44 L92.7299805,44 L92.7299805,36.0751953 L93.5869141,36.0751953 L93.6015625,37.3349609 C94.065432,36.3974563 94.8100535,35.9287109 95.8354492,35.9287109 C96.0795911,35.9287109 96.2724602,35.9604489 96.4140625,36.0239258 L96.3920898,36.8222656 Z M102.706055,44.1464844 C102.032223,44.1464844 101.423098,43.9804704 100.878662,43.6484375 C100.334226,43.3164046 99.910646,42.8537627 99.6079102,42.260498 C99.3051743,41.6672334 99.1538086,41.0019568 99.1538086,40.2646484 L99.1538086,39.949707 C99.1538086,39.1879845 99.3015122,38.5019562 99.5969238,37.8916016 C99.8923355,37.2812469 100.303708,36.8015154 100.831055,36.4523926 C101.358401,36.1032697 101.929684,35.9287109 102.544922,35.9287109 C103.506841,35.9287109 104.269773,36.2570768 104.83374,36.9138184 C105.397708,37.5705599 105.679688,38.4677677 105.679688,39.6054688 L105.679688,40.0961914 L100.025391,40.0961914 L100.025391,40.2646484 C100.025391,41.1630904 100.282956,41.911374 100.798096,42.5095215 C101.313235,43.107669 101.961422,43.4067383 102.742676,43.4067383 C103.211428,43.4067383 103.625242,43.3212899 103.984131,43.1503906 C104.343019,42.9794913 104.668944,42.7060566 104.961914,42.3300781 L105.51123,42.7475586 C104.866696,43.6801804 103.931647,44.1464844 102.706055,44.1464844 Z M102.544922,36.6757812 C101.885739,36.6757812 101.330325,36.9174781 100.878662,37.4008789 C100.427,37.8842798 100.152344,38.5336873 100.054688,39.3491211 L104.808105,39.3491211 L104.808105,39.2539062 C104.783691,38.4921837 104.566408,37.8720727 104.15625,37.3935547 C103.746092,36.9150367 103.208988,36.6757812 102.544922,36.6757812 Z M115.663574,44 L115.663574,36.7929688 L114.352539,36.7929688 L114.352539,36.0751953 L115.663574,36.0751953 L115.663574,35.1157227 C115.663574,34.3051717 115.869871,33.6826194 116.282471,33.2480469 C116.69507,32.8134744 117.270016,32.5961914 118.007324,32.5961914 C118.339357,32.5961914 118.649413,32.6376949 118.9375,32.7207031 L118.871582,33.453125 C118.62744,33.394531 118.36133,33.3652344 118.073242,33.3652344 C117.589841,33.3652344 117.213869,33.5153794 116.945312,33.8156738 C116.676756,34.1159683 116.54248,34.5419894 116.54248,35.09375 L116.54248,36.0751953 L118.432129,36.0751953 L118.432129,36.7929688 L116.54248,36.7929688 L116.54248,44 L115.663574,44 Z M125.661621,36.8222656 C125.476073,36.7880858 125.278321,36.7709961 125.068359,36.7709961 C124.521482,36.7709961 124.05884,36.9235825 123.68042,37.2287598 C123.302,37.5339371 123.032227,37.9770479 122.871094,38.5581055 L122.871094,44 L121.999512,44 L121.999512,36.0751953 L122.856445,36.0751953 L122.871094,37.3349609 C123.334963,36.3974563 124.079585,35.9287109 125.10498,35.9287109 C125.349122,35.9287109 125.541991,35.9604489 125.683594,36.0239258 L125.661621,36.8222656 Z M128.416016,39.9204102 C128.416016,39.1586876 128.563719,38.4726593 128.859131,37.8623047 C129.154542,37.2519501 129.572019,36.7771013 130.111572,36.4377441 C130.651126,36.098387 131.262692,35.9287109 131.946289,35.9287109 C133.000982,35.9287109 133.855465,36.2985803 134.509766,37.0383301 C135.164066,37.7780799 135.491211,38.7582947 135.491211,39.9790039 L135.491211,40.1621094 C135.491211,40.9287148 135.343507,41.6184051 135.048096,42.2312012 C134.752684,42.8439972 134.336428,43.3164046 133.799316,43.6484375 C133.262204,43.9804704 132.649418,44.1464844 131.960938,44.1464844 C130.911128,44.1464844 130.057865,43.776615 129.401123,43.0368652 C128.744381,42.2971154 128.416016,41.3169006 128.416016,40.0961914 L128.416016,39.9204102 Z M129.294922,40.1621094 C129.294922,41.1093797 129.540281,41.8869599 130.031006,42.494873 C130.521731,43.1027862 131.165035,43.4067383 131.960938,43.4067383 C132.751957,43.4067383 133.39282,43.1027862 133.883545,42.494873 C134.37427,41.8869599 134.619629,41.0849659 134.619629,40.0888672 L134.619629,39.9204102 C134.619629,39.3149384 134.507325,38.7607447 134.282715,38.2578125 C134.058104,37.7548803 133.743166,37.3654799 133.337891,37.0895996 C132.932615,36.8137193 132.468753,36.6757812 131.946289,36.6757812 C131.165035,36.6757812 130.527834,36.9821747 130.034668,37.5949707 C129.541501,38.2077667 129.294922,39.0097607 129.294922,40.0009766 L129.294922,40.1621094 Z M140.098633,36.0751953 L140.12793,37.3642578 C140.4209,36.8857398 140.787107,36.5268567 141.226562,36.2875977 C141.666018,36.0483386 142.154294,35.9287109 142.691406,35.9287109 C143.941413,35.9287109 144.734862,36.4414011 145.071777,37.4667969 C145.354982,36.9736303 145.733396,36.5939955 146.207031,36.3278809 C146.680666,36.0617662 147.203122,35.9287109 147.774414,35.9287109 C149.473641,35.9287109 150.340332,36.856436 150.374512,38.7119141 L150.374512,44 L149.495605,44 L149.495605,38.777832 C149.490723,38.0698207 149.338136,37.5449236 149.037842,37.203125 C148.737547,36.8613264 148.24805,36.6904297 147.569336,36.6904297 C146.93945,36.7001954 146.407229,36.9040507 145.972656,37.302002 C145.538084,37.6999532 145.296387,38.1845675 145.247559,38.7558594 L145.247559,44 L144.368652,44 L144.368652,38.7119141 C144.36377,38.0331997 144.203859,37.526613 143.888916,37.1921387 C143.573973,36.8576643 143.089359,36.6904297 142.435059,36.6904297 C141.883298,36.6904297 141.40967,36.8478988 141.01416,37.1628418 C140.61865,37.4777848 140.325685,37.9453094 140.135254,38.5654297 L140.135254,44 L139.256348,44 L139.256348,36.0751953 L140.098633,36.0751953 Z M163.57373,39.1513672 L166.833008,33.3359375 L167.873047,33.3359375 L164.020508,39.9863281 L164.020508,44 L163.119629,44 L163.119629,39.9863281 L159.274414,33.3359375 L160.34375,33.3359375 L163.57373,39.1513672 Z M170.26123,39.9204102 C170.26123,39.1586876 170.408934,38.4726593 170.704346,37.8623047 C170.999757,37.2519501 171.417234,36.7771013 171.956787,36.4377441 C172.496341,36.098387 173.107907,35.9287109 173.791504,35.9287109 C174.846197,35.9287109 175.70068,36.2985803 176.35498,37.0383301 C177.009281,37.7780799 177.336426,38.7582947 177.336426,39.9790039 L177.336426,40.1621094 C177.336426,40.9287148 177.188722,41.6184051 176.893311,42.2312012 C176.597899,42.8439972 176.181643,43.3164046 175.644531,43.6484375 C175.107419,43.9804704 174.494632,44.1464844 173.806152,44.1464844 C172.756342,44.1464844 171.903079,43.776615 171.246338,43.0368652 C170.589596,42.2971154 170.26123,41.3169006 170.26123,40.0961914 L170.26123,39.9204102 Z M171.140137,40.1621094 C171.140137,41.1093797 171.385496,41.8869599 171.876221,42.494873 C172.366946,43.1027862 173.01025,43.4067383 173.806152,43.4067383 C174.597172,43.4067383 175.238035,43.1027862 175.72876,42.494873 C176.219485,41.8869599 176.464844,41.0849659 176.464844,40.0888672 L176.464844,39.9204102 C176.464844,39.3149384 176.35254,38.7607447 176.12793,38.2578125 C175.903319,37.7548803 175.588381,37.3654799 175.183105,37.0895996 C174.77783,36.8137193 174.313967,36.6757812 173.791504,36.6757812 C173.01025,36.6757812 172.373049,36.9821747 171.879883,37.5949707 C171.386716,38.2077667 171.140137,39.0097607 171.140137,40.0009766 L171.140137,40.1621094 Z M185.891602,41.9858398 C185.891602,41.5512674 185.717043,41.2021498 185.36792,40.9384766 C185.018797,40.6748034 184.492679,40.4685066 183.789551,40.3195801 C183.086422,40.1706536 182.540773,39.9997568 182.152588,39.8068848 C181.764402,39.6140127 181.476319,39.3784194 181.28833,39.1000977 C181.100341,38.821776 181.006348,38.4848653 181.006348,38.0893555 C181.006348,37.4643523 181.267576,36.9480001 181.790039,36.5402832 C182.312503,36.1325663 182.981441,35.9287109 183.796875,35.9287109 C184.680668,35.9287109 185.38989,36.1472146 185.924561,36.5842285 C186.459231,37.0212424 186.726562,37.5913051 186.726562,38.2944336 L185.847656,38.2944336 C185.847656,37.8305641 185.653566,37.4448258 185.265381,37.137207 C184.877195,36.8295883 184.387698,36.6757812 183.796875,36.6757812 C183.2207,36.6757812 182.758058,36.8039538 182.408936,37.0603027 C182.059813,37.3166517 181.885254,37.6499003 181.885254,38.0600586 C181.885254,38.4555684 182.030516,38.7619618 182.321045,38.979248 C182.611574,39.1965343 183.141354,39.3955069 183.9104,39.5761719 C184.679447,39.7568368 185.255613,39.949706 185.638916,40.1547852 C186.022219,40.3598643 186.30664,40.6064439 186.492188,40.8945312 C186.677735,41.1826186 186.770508,41.5317362 186.770508,41.9418945 C186.770508,42.6108432 186.500735,43.1455058 185.961182,43.5458984 C185.421628,43.9462911 184.71729,44.1464844 183.848145,44.1464844 C182.925288,44.1464844 182.177005,43.9230979 181.603271,43.4763184 C181.029538,43.0295388 180.742676,42.4643589 180.742676,41.7807617 L181.621582,41.7807617 C181.655762,42.2934596 181.871824,42.6926255 182.269775,42.9782715 C182.667727,43.2639174 183.193844,43.4067383 183.848145,43.4067383 C184.458499,43.4067383 184.951658,43.2724623 185.327637,43.0039062 C185.703615,42.7353502 185.891602,42.3959981 185.891602,41.9858398 Z M193.80957,44.1464844 C193.135739,44.1464844 192.526614,43.9804704 191.982178,43.6484375 C191.437741,43.3164046 191.014162,42.8537627 190.711426,42.260498 C190.40869,41.6672334 190.257324,41.0019568 190.257324,40.2646484 L190.257324,39.949707 C190.257324,39.1879845 190.405028,38.5019562 190.700439,37.8916016 C190.995851,37.2812469 191.407224,36.8015154 191.93457,36.4523926 C192.461917,36.1032697 193.0332,35.9287109 193.648438,35.9287109 C194.610356,35.9287109 195.373288,36.2570768 195.937256,36.9138184 C196.501224,37.5705599 196.783203,38.4677677 196.783203,39.6054688 L196.783203,40.0961914 L191.128906,40.0961914 L191.128906,40.2646484 C191.128906,41.1630904 191.386472,41.911374 191.901611,42.5095215 C192.416751,43.107669 193.064938,43.4067383 193.846191,43.4067383 C194.314944,43.4067383 194.728758,43.3212899 195.087646,43.1503906 C195.446535,42.9794913 195.772459,42.7060566 196.06543,42.3300781 L196.614746,42.7475586 C195.970212,43.6801804 195.035162,44.1464844 193.80957,44.1464844 Z M193.648438,36.6757812 C192.989255,36.6757812 192.43384,36.9174781 191.982178,37.4008789 C191.530515,37.8842798 191.25586,38.5336873 191.158203,39.3491211 L195.911621,39.3491211 L195.911621,39.2539062 C195.887207,38.4921837 195.669924,37.8720727 195.259766,37.3935547 C194.849607,36.9150367 194.312503,36.6757812 193.648438,36.6757812 Z M201.288086,36.0751953 L201.317383,37.3642578 C201.610353,36.8857398 201.97656,36.5268567 202.416016,36.2875977 C202.855471,36.0483386 203.343747,35.9287109 203.880859,35.9287109 C205.130866,35.9287109 205.924315,36.4414011 206.26123,37.4667969 C206.544435,36.9736303 206.922849,36.5939955 207.396484,36.3278809 C207.87012,36.0617662 208.392575,35.9287109 208.963867,35.9287109 C210.663094,35.9287109 211.529785,36.856436 211.563965,38.7119141 L211.563965,44 L210.685059,44 L210.685059,38.777832 C210.680176,38.0698207 210.527589,37.5449236 210.227295,37.203125 C209.927,36.8613264 209.437503,36.6904297 208.758789,36.6904297 C208.128903,36.7001954 207.596682,36.9040507 207.162109,37.302002 C206.727537,37.6999532 206.48584,38.1845675 206.437012,38.7558594 L206.437012,44 L205.558105,44 L205.558105,38.7119141 C205.553223,38.0331997 205.393312,37.526613 205.078369,37.1921387 C204.763426,36.8576643 204.278812,36.6904297 203.624512,36.6904297 C203.072751,36.6904297 202.599123,36.8478988 202.203613,37.1628418 C201.808103,37.4777848 201.515138,37.9453094 201.324707,38.5654297 L201.324707,44 L200.445801,44 L200.445801,36.0751953 L201.288086,36.0751953 Z M216.764648,44 L215.885742,44 L215.885742,36.0751953 L216.764648,36.0751953 L216.764648,44 Z M215.731934,33.7827148 C215.731934,33.6166984 215.785644,33.4763189 215.893066,33.3615723 C216.000489,33.2468256 216.146972,33.1894531 216.33252,33.1894531 C216.518067,33.1894531 216.665771,33.2468256 216.775635,33.3615723 C216.885499,33.4763189 216.94043,33.6166984 216.94043,33.7827148 C216.94043,33.9487313 216.885499,34.0878901 216.775635,34.2001953 C216.665771,34.3125006 216.518067,34.3686523 216.33252,34.3686523 C216.146972,34.3686523 216.000489,34.3125006 215.893066,34.2001953 C215.785644,34.0878901 215.731934,33.9487313 215.731934,33.7827148 Z M222.507324,34.0463867 L222.507324,36.0751953 L224.147949,36.0751953 L224.147949,36.7929688 L222.507324,36.7929688 L222.507324,42.0737305 C222.507324,42.5131858 222.586669,42.840331 222.745361,43.0551758 C222.904054,43.2700206 223.168943,43.3774414 223.540039,43.3774414 C223.686524,43.3774414 223.923338,43.3530276 224.250488,43.3041992 L224.287109,44.0219727 C224.057616,44.1049809 223.745119,44.1464844 223.349609,44.1464844 C222.74902,44.1464844 222.312013,43.9719256 222.038574,43.6228027 C221.765135,43.2736799 221.628418,42.759769 221.628418,42.0810547 L221.628418,36.7929688 L220.170898,36.7929688 L220.170898,36.0751953 L221.628418,36.0751953 L221.628418,34.0463867 L222.507324,34.0463867 Z M231.033203,44.1464844 C230.359372,44.1464844 229.750247,43.9804704 229.205811,43.6484375 C228.661374,43.3164046 228.237794,42.8537627 227.935059,42.260498 C227.632323,41.6672334 227.480957,41.0019568 227.480957,40.2646484 L227.480957,39.949707 C227.480957,39.1879845 227.628661,38.5019562 227.924072,37.8916016 C228.219484,37.2812469 228.630857,36.8015154 229.158203,36.4523926 C229.68555,36.1032697 230.256833,35.9287109 230.87207,35.9287109 C231.833989,35.9287109 232.596921,36.2570768 233.160889,36.9138184 C233.724856,37.5705599 234.006836,38.4677677 234.006836,39.6054688 L234.006836,40.0961914 L228.352539,40.0961914 L228.352539,40.2646484 C228.352539,41.1630904 228.610105,41.911374 229.125244,42.5095215 C229.640383,43.107669 230.28857,43.4067383 231.069824,43.4067383 C231.538577,43.4067383 231.952391,43.3212899 232.311279,43.1503906 C232.670168,42.9794913 232.996092,42.7060566 233.289062,42.3300781 L233.838379,42.7475586 C233.193844,43.6801804 232.258795,44.1464844 231.033203,44.1464844 Z M230.87207,36.6757812 C230.212887,36.6757812 229.657473,36.9174781 229.205811,37.4008789 C228.754148,37.8842798 228.479493,38.5336873 228.381836,39.3491211 L233.135254,39.3491211 L233.135254,39.2539062 C233.11084,38.4921837 232.893557,37.8720727 232.483398,37.3935547 C232.07324,36.9150367 231.536136,36.6757812 230.87207,36.6757812 Z M4.56298828,60.6816406 L4.62158203,60.9086914 L4.6875,60.6816406 L8.04199219,51.3359375 L9.03076172,51.3359375 L5.06103516,62 L4.19677734,62 L0.227050781,51.3359375 L1.20849609,51.3359375 L4.56298828,60.6816406 Z M17.0585938,62 C16.9707027,61.7509753 16.9145509,61.3823267 16.8901367,60.894043 C16.582518,61.2944356 16.1906762,61.6032704 15.7145996,61.8205566 C15.238523,62.0378429 14.7343777,62.1464844 14.2021484,62.1464844 C13.4404259,62.1464844 12.823977,61.9340842 12.3527832,61.5092773 C11.8815894,61.0844705 11.6459961,60.5473665 11.6459961,59.8979492 C11.6459961,59.126461 11.9670378,58.5161155 12.6091309,58.0668945 C13.2512239,57.6176735 14.1459904,57.3930664 15.293457,57.3930664 L16.8828125,57.3930664 L16.8828125,56.4921875 C16.8828125,55.9257784 16.7082537,55.4802262 16.3591309,55.1555176 C16.010008,54.8308089 15.5009799,54.668457 14.8320312,54.668457 C14.2216766,54.668457 13.7163106,54.8247055 13.315918,55.137207 C12.9155253,55.4497086 12.715332,55.8256814 12.715332,56.2651367 L11.8364258,56.2578125 C11.8364258,55.6279265 12.1293916,55.0822777 12.715332,54.6208496 C13.3012725,54.1594215 14.0214801,53.9287109 14.8759766,53.9287109 C15.75977,53.9287109 16.4567846,54.149656 16.967041,54.5915527 C17.4772975,55.0334495 17.739746,55.6498984 17.7543945,56.440918 L17.7543945,60.190918 C17.7543945,60.9575234 17.8349601,61.5312481 17.9960938,61.9121094 L17.9960938,62 L17.0585938,62 Z M14.3046875,61.3701172 C14.8906279,61.3701172 15.4143043,61.228517 15.8757324,60.9453125 C16.3371605,60.662108 16.6728505,60.2836938 16.8828125,59.8100586 L16.8828125,58.0668945 L15.3154297,58.0668945 C14.4414019,58.0766602 13.757815,58.2365707 13.2646484,58.5466309 C12.7714819,58.856691 12.5249023,59.2827121 12.5249023,59.824707 C12.5249023,60.2690452 12.6896956,60.6376938 13.0192871,60.9306641 C13.3488786,61.2236343 13.7773411,61.3701172 14.3046875,61.3701172 Z M23.0722656,62 L22.1933594,62 L22.1933594,50.75 L23.0722656,50.75 L23.0722656,62 Z M28.434082,62 L27.5551758,62 L27.5551758,50.75 L28.434082,50.75 L28.434082,62 Z M35.8833008,62.1464844 C35.2094693,62.1464844 34.6003445,61.9804704 34.0559082,61.6484375 C33.5114719,61.3164046 33.0878921,60.8537627 32.7851562,60.260498 C32.4824204,59.6672334 32.3310547,59.0019568 32.3310547,58.2646484 L32.3310547,57.949707 C32.3310547,57.1879845 32.4787583,56.5019562 32.7741699,55.8916016 C33.0695816,55.2812469 33.4809544,54.8015154 34.0083008,54.4523926 C34.5356472,54.1032697 35.1069305,53.9287109 35.722168,53.9287109 C36.6840868,53.9287109 37.4470187,54.2570768 38.0109863,54.9138184 C38.574954,55.5705599 38.8569336,56.4677677 38.8569336,57.6054688 L38.8569336,58.0961914 L33.2026367,58.0961914 L33.2026367,58.2646484 C33.2026367,59.1630904 33.4602025,59.911374 33.9753418,60.5095215 C34.4904811,61.107669 35.138668,61.4067383 35.9199219,61.4067383 C36.3886742,61.4067383 36.8024884,61.3212899 37.161377,61.1503906 C37.5202655,60.9794913 37.8461899,60.7060566 38.1391602,60.3300781 L38.6884766,60.7475586 C38.0439421,61.6801804 37.1088928,62.1464844 35.8833008,62.1464844 Z M35.722168,54.6757812 C35.062985,54.6757812 34.5075706,54.9174781 34.0559082,55.4008789 C33.6042458,55.8842798 33.3295903,56.5336873 33.2319336,57.3491211 L37.9853516,57.3491211 L37.9853516,57.2539062 C37.9609374,56.4921837 37.7436544,55.8720727 37.3334961,55.3935547 C36.9233378,54.9150367 36.3862338,54.6757812 35.722168,54.6757812 Z M44.9804688,60.7402344 L47.2949219,54.0751953 L48.2397461,54.0751953 L44.855957,63.3476562 L44.6801758,63.7578125 C44.2456033,64.7197314 43.5742233,65.2006836 42.6660156,65.2006836 C42.4560536,65.2006836 42.2314465,65.1665042 41.9921875,65.0981445 L41.9848633,64.3730469 L42.4389648,64.4169922 C42.8686545,64.4169922 43.2165514,64.3107921 43.482666,64.0983887 C43.7487806,63.8859853 43.9746084,63.5209987 44.1601562,63.003418 L44.5483398,61.934082 L41.5600586,54.0751953 L42.5195312,54.0751953 L44.9804688,60.7402344 Z M59.1391602,60.1762695 L59.2709961,60.8574219 L59.4467773,60.1396484 L61.3510742,54.0751953 L62.0981445,54.0751953 L63.9804688,60.0883789 L64.1855469,60.9233398 L64.3540039,60.1542969 L65.9799805,54.0751953 L66.8881836,54.0751953 L64.5810547,62 L63.8339844,62 L61.7978516,55.7158203 L61.7026367,55.2836914 L61.6074219,55.7231445 L59.6079102,62 L58.8608398,62 L56.5610352,54.0751953 L57.4619141,54.0751953 L59.1391602,60.1762695 Z M75.5532227,62 C75.4653316,61.7509753 75.4091798,61.3823267 75.3847656,60.894043 C75.0771469,61.2944356 74.6853051,61.6032704 74.2092285,61.8205566 C73.7331519,62.0378429 73.2290066,62.1464844 72.6967773,62.1464844 C71.9350548,62.1464844 71.3186059,61.9340842 70.8474121,61.5092773 C70.3762183,61.0844705 70.140625,60.5473665 70.140625,59.8979492 C70.140625,59.126461 70.4616667,58.5161155 71.1037598,58.0668945 C71.7458528,57.6176735 72.6406193,57.3930664 73.7880859,57.3930664 L75.3774414,57.3930664 L75.3774414,56.4921875 C75.3774414,55.9257784 75.2028826,55.4802262 74.8537598,55.1555176 C74.5046369,54.8308089 73.9956088,54.668457 73.3266602,54.668457 C72.7163055,54.668457 72.2109395,54.8247055 71.8105469,55.137207 C71.4101542,55.4497086 71.2099609,55.8256814 71.2099609,56.2651367 L70.3310547,56.2578125 C70.3310547,55.6279265 70.6240205,55.0822777 71.2099609,54.6208496 C71.7959014,54.1594215 72.516109,53.9287109 73.3706055,53.9287109 C74.254399,53.9287109 74.9514135,54.149656 75.4616699,54.5915527 C75.9719264,55.0334495 76.2343749,55.6498984 76.2490234,56.440918 L76.2490234,60.190918 C76.2490234,60.9575234 76.329589,61.5312481 76.4907227,61.9121094 L76.4907227,62 L75.5532227,62 Z M72.7993164,61.3701172 C73.3852568,61.3701172 73.9089332,61.228517 74.3703613,60.9453125 C74.8317894,60.662108 75.1674794,60.2836938 75.3774414,59.8100586 L75.3774414,58.0668945 L73.8100586,58.0668945 C72.9360308,58.0766602 72.2524439,58.2365707 71.7592773,58.5466309 C71.2661108,58.856691 71.0195312,59.2827121 71.0195312,59.824707 C71.0195312,60.2690452 71.1843245,60.6376938 71.513916,60.9306641 C71.8435075,61.2236343 72.27197,61.3701172 72.7993164,61.3701172 Z M85.331543,59.9858398 C85.331543,59.5512674 85.1569842,59.2021498 84.8078613,58.9384766 C84.4587385,58.6748034 83.9326207,58.4685066 83.2294922,58.3195801 C82.5263637,58.1706536 81.9807148,57.9997568 81.5925293,57.8068848 C81.2043438,57.6140127 80.9162607,57.3784194 80.7282715,57.1000977 C80.5402823,56.821776 80.4462891,56.4848653 80.4462891,56.0893555 C80.4462891,55.4643523 80.7075169,54.9480001 81.2299805,54.5402832 C81.752444,54.1325663 82.4213826,53.9287109 83.2368164,53.9287109 C84.1206099,53.9287109 84.8298313,54.1472146 85.364502,54.5842285 C85.8991726,55.0212424 86.1665039,55.5913051 86.1665039,56.2944336 L85.2875977,56.2944336 C85.2875977,55.8305641 85.0935078,55.4448258 84.7053223,55.137207 C84.3171367,54.8295883 83.8276397,54.6757812 83.2368164,54.6757812 C82.6606417,54.6757812 82.1979998,54.8039538 81.848877,55.0603027 C81.4997541,55.3166517 81.3251953,55.6499003 81.3251953,56.0600586 C81.3251953,56.4555684 81.4704575,56.7619618 81.7609863,56.979248 C82.0515151,57.1965343 82.581295,57.3955069 83.3503418,57.5761719 C84.1193886,57.7568368 84.6955547,57.949706 85.0788574,58.1547852 C85.4621601,58.3598643 85.7465811,58.6064439 85.9321289,58.8945312 C86.1176767,59.1826186 86.2104492,59.5317362 86.2104492,59.9418945 C86.2104492,60.6108432 85.9406765,61.1455058 85.401123,61.5458984 C84.8615696,61.9462911 84.1572309,62.1464844 83.2880859,62.1464844 C82.3652298,62.1464844 81.6169462,61.9230979 81.0432129,61.4763184 C80.4694796,61.0295388 80.1826172,60.4643589 80.1826172,59.7807617 L81.0615234,59.7807617 C81.0957033,60.2934596 81.3117656,60.6926255 81.7097168,60.9782715 C82.107668,61.2639174 82.6337858,61.4067383 83.2880859,61.4067383 C83.8984406,61.4067383 84.3915997,61.2724623 84.7675781,61.0039062 C85.1435566,60.7353502 85.331543,60.3959981 85.331543,59.9858398 Z M97.1904297,52.0463867 L97.1904297,54.0751953 L98.8310547,54.0751953 L98.8310547,54.7929688 L97.1904297,54.7929688 L97.1904297,60.0737305 C97.1904297,60.5131858 97.2697746,60.840331 97.4284668,61.0551758 C97.587159,61.2700206 97.8520489,61.3774414 98.2231445,61.3774414 C98.3696296,61.3774414 98.6064437,61.3530276 98.9335938,61.3041992 L98.9702148,62.0219727 C98.7407215,62.1049809 98.4282246,62.1464844 98.0327148,62.1464844 C97.4321259,62.1464844 96.9951186,61.9719256 96.7216797,61.6228027 C96.4482408,61.2736799 96.3115234,60.759769 96.3115234,60.0810547 L96.3115234,54.7929688 L94.8540039,54.7929688 L94.8540039,54.0751953 L96.3115234,54.0751953 L96.3115234,52.0463867 L97.1904297,52.0463867 Z M103.519043,55.4155273 C103.80713,54.9418922 104.175779,54.5756849 104.625,54.3168945 C105.074221,54.0581042 105.564939,53.9287109 106.097168,53.9287109 C106.946782,53.9287109 107.579099,54.1679664 107.994141,54.6464844 C108.409182,55.1250024 108.619141,55.8427687 108.624023,56.7998047 L108.624023,62 L107.752441,62 L107.752441,56.7924805 C107.747559,56.0844691 107.597414,55.5571306 107.302002,55.2104492 C107.00659,54.8637678 106.534183,54.6904297 105.884766,54.6904297 C105.342771,54.6904297 104.863039,54.8601057 104.445557,55.1994629 C104.028074,55.5388201 103.719239,55.9965792 103.519043,56.5727539 L103.519043,62 L102.647461,62 L102.647461,50.75 L103.519043,50.75 L103.519043,55.4155273 Z M115.94873,62.1464844 C115.274899,62.1464844 114.665774,61.9804704 114.121338,61.6484375 C113.576902,61.3164046 113.153322,60.8537627 112.850586,60.260498 C112.54785,59.6672334 112.396484,59.0019568 112.396484,58.2646484 L112.396484,57.949707 C112.396484,57.1879845 112.544188,56.5019562 112.8396,55.8916016 C113.135011,55.2812469 113.546384,54.8015154 114.07373,54.4523926 C114.601077,54.1032697 115.17236,53.9287109 115.787598,53.9287109 C116.749517,53.9287109 117.512448,54.2570768 118.076416,54.9138184 C118.640384,55.5705599 118.922363,56.4677677 118.922363,57.6054688 L118.922363,58.0961914 L113.268066,58.0961914 L113.268066,58.2646484 C113.268066,59.1630904 113.525632,59.911374 114.040771,60.5095215 C114.555911,61.107669 115.204098,61.4067383 115.985352,61.4067383 C116.454104,61.4067383 116.867918,61.3212899 117.226807,61.1503906 C117.585695,60.9794913 117.91162,60.7060566 118.20459,60.3300781 L118.753906,60.7475586 C118.109372,61.6801804 117.174323,62.1464844 115.94873,62.1464844 Z M115.787598,54.6757812 C115.128415,54.6757812 114.573,54.9174781 114.121338,55.4008789 C113.669675,55.8842798 113.39502,56.5336873 113.297363,57.3491211 L118.050781,57.3491211 L118.050781,57.2539062 C118.026367,56.4921837 117.809084,55.8720727 117.398926,55.3935547 C116.988767,54.9150367 116.451663,54.6757812 115.787598,54.6757812 Z M129.147949,55.4155273 C129.436037,54.9418922 129.804685,54.5756849 130.253906,54.3168945 C130.703127,54.0581042 131.193845,53.9287109 131.726074,53.9287109 C132.575688,53.9287109 133.208006,54.1679664 133.623047,54.6464844 C134.038088,55.1250024 134.248047,55.8427687 134.25293,56.7998047 L134.25293,62 L133.381348,62 L133.381348,56.7924805 C133.376465,56.0844691 133.22632,55.5571306 132.930908,55.2104492 C132.635497,54.8637678 132.163089,54.6904297 131.513672,54.6904297 C130.971677,54.6904297 130.491945,54.8601057 130.074463,55.1994629 C129.65698,55.5388201 129.348146,55.9965792 129.147949,56.5727539 L129.147949,62 L128.276367,62 L128.276367,50.75 L129.147949,50.75 L129.147949,55.4155273 Z M143.51123,62 C143.423339,61.7509753 143.367188,61.3823267 143.342773,60.894043 C143.035155,61.2944356 142.643313,61.6032704 142.167236,61.8205566 C141.69116,62.0378429 141.187014,62.1464844 140.654785,62.1464844 C139.893063,62.1464844 139.276614,61.9340842 138.80542,61.5092773 C138.334226,61.0844705 138.098633,60.5473665 138.098633,59.8979492 C138.098633,59.126461 138.419675,58.5161155 139.061768,58.0668945 C139.703861,57.6176735 140.598627,57.3930664 141.746094,57.3930664 L143.335449,57.3930664 L143.335449,56.4921875 C143.335449,55.9257784 143.16089,55.4802262 142.811768,55.1555176 C142.462645,54.8308089 141.953617,54.668457 141.284668,54.668457 C140.674313,54.668457 140.168947,54.8247055 139.768555,55.137207 C139.368162,55.4497086 139.167969,55.8256814 139.167969,56.2651367 L138.289062,56.2578125 C138.289062,55.6279265 138.582028,55.0822777 139.167969,54.6208496 C139.753909,54.1594215 140.474117,53.9287109 141.328613,53.9287109 C142.212407,53.9287109 142.909421,54.149656 143.419678,54.5915527 C143.929934,55.0334495 144.192383,55.6498984 144.207031,56.440918 L144.207031,60.190918 C144.207031,60.9575234 144.287597,61.5312481 144.44873,61.9121094 L144.44873,62 L143.51123,62 Z M140.757324,61.3701172 C141.343265,61.3701172 141.866941,61.228517 142.328369,60.9453125 C142.789797,60.662108 143.125487,60.2836938 143.335449,59.8100586 L143.335449,58.0668945 L141.768066,58.0668945 C140.894039,58.0766602 140.210452,58.2365707 139.717285,58.5466309 C139.224119,58.856691 138.977539,59.2827121 138.977539,59.824707 C138.977539,60.2690452 139.142332,60.6376938 139.471924,60.9306641 C139.801515,61.2236343 140.229978,61.3701172 140.757324,61.3701172 Z M152.205566,54.8222656 C152.020019,54.7880858 151.822267,54.7709961 151.612305,54.7709961 C151.065427,54.7709961 150.602785,54.9235825 150.224365,55.2287598 C149.845945,55.5339371 149.576173,55.9770479 149.415039,56.5581055 L149.415039,62 L148.543457,62 L148.543457,54.0751953 L149.400391,54.0751953 L149.415039,55.3349609 C149.878909,54.3974563 150.62353,53.9287109 151.648926,53.9287109 C151.893068,53.9287109 152.085937,53.9604489 152.227539,54.0239258 L152.205566,54.8222656 Z M155.099121,57.9643555 C155.099121,56.7338806 155.373777,55.7536658 155.923096,55.0236816 C156.472415,54.2936975 157.218257,53.9287109 158.160645,53.9287109 C159.229986,53.9287109 160.045407,54.35107 160.606934,55.1958008 L160.606934,50.75 L161.478516,50.75 L161.478516,62 L160.658203,62 L160.621582,60.9453125 C160.060056,61.7460978 159.234869,62.1464844 158.145996,62.1464844 C157.232906,62.1464844 156.496829,61.7790564 155.937744,61.0441895 C155.378659,60.3093225 155.099121,59.3169008 155.099121,58.0668945 L155.099121,57.9643555 Z M155.985352,58.1181641 C155.985352,59.1289113 156.187986,59.9260225 156.593262,60.5095215 C156.998537,61.0930205 157.569821,61.3847656 158.307129,61.3847656 C159.386236,61.3847656 160.15283,60.9086962 160.606934,59.956543 L160.606934,56.2358398 C160.15283,55.2055613 159.391119,54.6904297 158.321777,54.6904297 C157.584469,54.6904297 157.010744,54.9797334 156.600586,55.5583496 C156.190428,56.1369658 155.985352,56.9902287 155.985352,58.1181641 Z M168.854492,62.1464844 C168.180661,62.1464844 167.571536,61.9804704 167.0271,61.6484375 C166.482663,61.3164046 166.059084,60.8537627 165.756348,60.260498 C165.453612,59.6672334 165.302246,59.0019568 165.302246,58.2646484 L165.302246,57.949707 C165.302246,57.1879845 165.44995,56.5019562 165.745361,55.8916016 C166.040773,55.2812469 166.452146,54.8015154 166.979492,54.4523926 C167.506839,54.1032697 168.078122,53.9287109 168.693359,53.9287109 C169.655278,53.9287109 170.41821,54.2570768 170.982178,54.9138184 C171.546145,55.5705599 171.828125,56.4677677 171.828125,57.6054688 L171.828125,58.0961914 L166.173828,58.0961914 L166.173828,58.2646484 C166.173828,59.1630904 166.431394,59.911374 166.946533,60.5095215 C167.461672,61.107669 168.109859,61.4067383 168.891113,61.4067383 C169.359866,61.4067383 169.77368,61.3212899 170.132568,61.1503906 C170.491457,60.9794913 170.817381,60.7060566 171.110352,60.3300781 L171.659668,60.7475586 C171.015133,61.6801804 170.080084,62.1464844 168.854492,62.1464844 Z M168.693359,54.6757812 C168.034176,54.6757812 167.478762,54.9174781 167.0271,55.4008789 C166.575437,55.8842798 166.300782,56.5336873 166.203125,57.3491211 L170.956543,57.3491211 L170.956543,57.2539062 C170.932129,56.4921837 170.714846,55.8720727 170.304688,55.3935547 C169.894529,54.9150367 169.357425,54.6757812 168.693359,54.6757812 Z M180.280762,59.9858398 C180.280762,59.5512674 180.106203,59.2021498 179.75708,58.9384766 C179.407957,58.6748034 178.881839,58.4685066 178.178711,58.3195801 C177.475582,58.1706536 176.929934,57.9997568 176.541748,57.8068848 C176.153563,57.6140127 175.865479,57.3784194 175.67749,57.1000977 C175.489501,56.821776 175.395508,56.4848653 175.395508,56.0893555 C175.395508,55.4643523 175.656736,54.9480001 176.179199,54.5402832 C176.701663,54.1325663 177.370601,53.9287109 178.186035,53.9287109 C179.069829,53.9287109 179.77905,54.1472146 180.313721,54.5842285 C180.848391,55.0212424 181.115723,55.5913051 181.115723,56.2944336 L180.236816,56.2944336 C180.236816,55.8305641 180.042727,55.4448258 179.654541,55.137207 C179.266355,54.8295883 178.776858,54.6757812 178.186035,54.6757812 C177.60986,54.6757812 177.147219,54.8039538 176.798096,55.0603027 C176.448973,55.3166517 176.274414,55.6499003 176.274414,56.0600586 C176.274414,56.4555684 176.419676,56.7619618 176.710205,56.979248 C177.000734,57.1965343 177.530514,57.3955069 178.299561,57.5761719 C179.068607,57.7568368 179.644773,57.949706 180.028076,58.1547852 C180.411379,58.3598643 180.6958,58.6064439 180.881348,58.8945312 C181.066895,59.1826186 181.159668,59.5317362 181.159668,59.9418945 C181.159668,60.6108432 180.889895,61.1455058 180.350342,61.5458984 C179.810788,61.9462911 179.10645,62.1464844 178.237305,62.1464844 C177.314449,62.1464844 176.566165,61.9230979 175.992432,61.4763184 C175.418698,61.0295388 175.131836,60.4643589 175.131836,59.7807617 L176.010742,59.7807617 C176.044922,60.2934596 176.260984,60.6926255 176.658936,60.9782715 C177.056887,61.2639174 177.583005,61.4067383 178.237305,61.4067383 C178.847659,61.4067383 179.340818,61.2724623 179.716797,61.0039062 C180.092775,60.7353502 180.280762,60.3959981 180.280762,59.9858398 Z M186.492188,52.0463867 L186.492188,54.0751953 L188.132812,54.0751953 L188.132812,54.7929688 L186.492188,54.7929688 L186.492188,60.0737305 C186.492188,60.5131858 186.571532,60.840331 186.730225,61.0551758 C186.888917,61.2700206 187.153807,61.3774414 187.524902,61.3774414 C187.671387,61.3774414 187.908201,61.3530276 188.235352,61.3041992 L188.271973,62.0219727 C188.042479,62.1049809 187.729982,62.1464844 187.334473,62.1464844 C186.733884,62.1464844 186.296876,61.9719256 186.023438,61.6228027 C185.749999,61.2736799 185.613281,60.759769 185.613281,60.0810547 L185.613281,54.7929688 L184.155762,54.7929688 L184.155762,54.0751953 L185.613281,54.0751953 L185.613281,52.0463867 L186.492188,52.0463867 Z M201.258789,54.8222656 C201.073241,54.7880858 200.875489,54.7709961 200.665527,54.7709961 C200.11865,54.7709961 199.656008,54.9235825 199.277588,55.2287598 C198.899168,55.5339371 198.629395,55.9770479 198.468262,56.5581055 L198.468262,62 L197.59668,62 L197.59668,54.0751953 L198.453613,54.0751953 L198.468262,55.3349609 C198.932131,54.3974563 199.676753,53.9287109 200.702148,53.9287109 C200.94629,53.9287109 201.139159,53.9604489 201.280762,54.0239258 L201.258789,54.8222656 Z M205.624512,62 L204.745605,62 L204.745605,54.0751953 L205.624512,54.0751953 L205.624512,62 Z M204.591797,51.7827148 C204.591797,51.6166984 204.645507,51.4763189 204.75293,51.3615723 C204.860352,51.2468256 205.006835,51.1894531 205.192383,51.1894531 C205.377931,51.1894531 205.525634,51.2468256 205.635498,51.3615723 C205.745362,51.4763189 205.800293,51.6166984 205.800293,51.7827148 C205.800293,51.9487313 205.745362,52.0878901 205.635498,52.2001953 C205.525634,52.3125006 205.377931,52.3686523 205.192383,52.3686523 C205.006835,52.3686523 204.860352,52.3125006 204.75293,52.2001953 C204.645507,52.0878901 204.591797,51.9487313 204.591797,51.7827148 Z M209.65332,57.9643555 C209.65332,56.7338806 209.927976,55.7536658 210.477295,55.0236816 C211.026614,54.2936975 211.772456,53.9287109 212.714844,53.9287109 C213.784185,53.9287109 214.599607,54.35107 215.161133,55.1958008 L215.161133,50.75 L216.032715,50.75 L216.032715,62 L215.212402,62 L215.175781,60.9453125 C214.614255,61.7460978 213.789068,62.1464844 212.700195,62.1464844 C211.787105,62.1464844 211.051028,61.7790564 210.491943,61.0441895 C209.932859,60.3093225 209.65332,59.3169008 209.65332,58.0668945 L209.65332,57.9643555 Z M210.539551,58.1181641 C210.539551,59.1289113 210.742185,59.9260225 211.147461,60.5095215 C211.552736,61.0930205 212.12402,61.3847656 212.861328,61.3847656 C213.940435,61.3847656 214.707029,60.9086962 215.161133,59.956543 L215.161133,56.2358398 C214.707029,55.2055613 213.945318,54.6904297 212.875977,54.6904297 C212.138668,54.6904297 211.564943,54.9797334 211.154785,55.5583496 C210.744627,56.1369658 210.539551,56.9902287 210.539551,58.1181641 Z M223.408691,62.1464844 C222.73486,62.1464844 222.125735,61.9804704 221.581299,61.6484375 C221.036863,61.3164046 220.613283,60.8537627 220.310547,60.260498 C220.007811,59.6672334 219.856445,59.0019568 219.856445,58.2646484 L219.856445,57.949707 C219.856445,57.1879845 220.004149,56.5019562 220.299561,55.8916016 C220.594972,55.2812469 221.006345,54.8015154 221.533691,54.4523926 C222.061038,54.1032697 222.632321,53.9287109 223.247559,53.9287109 C224.209477,53.9287109 224.972409,54.2570768 225.536377,54.9138184 C226.100345,55.5705599 226.382324,56.4677677 226.382324,57.6054688 L226.382324,58.0961914 L220.728027,58.0961914 L220.728027,58.2646484 C220.728027,59.1630904 220.985593,59.911374 221.500732,60.5095215 C222.015872,61.107669 222.664059,61.4067383 223.445312,61.4067383 C223.914065,61.4067383 224.327879,61.3212899 224.686768,61.1503906 C225.045656,60.9794913 225.371581,60.7060566 225.664551,60.3300781 L226.213867,60.7475586 C225.569333,61.6801804 224.634283,62.1464844 223.408691,62.1464844 Z M223.247559,54.6757812 C222.588376,54.6757812 222.032961,54.9174781 221.581299,55.4008789 C221.129636,55.8842798 220.854981,56.5336873 220.757324,57.3491211 L225.510742,57.3491211 L225.510742,57.2539062 C225.486328,56.4921837 225.269045,55.8720727 224.858887,55.3935547 C224.448728,54.9150367 223.911624,54.6757812 223.247559,54.6757812 Z M235.25293,57.9204102 C235.25293,57.1586876 235.400633,56.4726593 235.696045,55.8623047 C235.991457,55.2519501 236.408933,54.7771013 236.948486,54.4377441 C237.48804,54.098387 238.099606,53.9287109 238.783203,53.9287109 C239.837896,53.9287109 240.69238,54.2985803 241.34668,55.0383301 C242.00098,55.7780799 242.328125,56.7582947 242.328125,57.9790039 L242.328125,58.1621094 C242.328125,58.9287148 242.180421,59.6184051 241.88501,60.2312012 C241.589598,60.8439972 241.173343,61.3164046 240.63623,61.6484375 C240.099118,61.9804704 239.486332,62.1464844 238.797852,62.1464844 C237.748042,62.1464844 236.894779,61.776615 236.238037,61.0368652 C235.581296,60.2971154 235.25293,59.3169006 235.25293,58.0961914 L235.25293,57.9204102 Z M236.131836,58.1621094 C236.131836,59.1093797 236.377195,59.8869599 236.86792,60.494873 C237.358645,61.1027862 238.001949,61.4067383 238.797852,61.4067383 C239.588871,61.4067383 240.229734,61.1027862 240.720459,60.494873 C241.211184,59.8869599 241.456543,59.0849659 241.456543,58.0888672 L241.456543,57.9204102 C241.456543,57.3149384 241.344239,56.7607447 241.119629,56.2578125 C240.895018,55.7548803 240.58008,55.3654799 240.174805,55.0895996 C239.769529,54.8137193 239.305667,54.6757812 238.783203,54.6757812 C238.001949,54.6757812 237.364749,54.9821747 236.871582,55.5949707 C236.378416,56.2077667 236.131836,57.0097607 236.131836,58.0009766 L236.131836,58.1621094 Z M246.76709,62 L246.76709,54.7929688 L245.456055,54.7929688 L245.456055,54.0751953 L246.76709,54.0751953 L246.76709,53.1157227 C246.76709,52.3051717 246.973387,51.6826194 247.385986,51.2480469 C247.798586,50.8134744 248.373531,50.5961914 249.11084,50.5961914 C249.442873,50.5961914 249.752928,50.6376949 250.041016,50.7207031 L249.975098,51.453125 C249.730956,51.394531 249.464845,51.3652344 249.176758,51.3652344 C248.693357,51.3652344 248.317384,51.5153794 248.048828,51.8156738 C247.780272,52.1159683 247.645996,52.5419894 247.645996,53.09375 L247.645996,54.0751953 L249.535645,54.0751953 L249.535645,54.7929688 L247.645996,54.7929688 L247.645996,62 L246.76709,62 Z M2.50488281,70.0463867 L2.50488281,72.0751953 L4.14550781,72.0751953 L4.14550781,72.7929688 L2.50488281,72.7929688 L2.50488281,78.0737305 C2.50488281,78.5131858 2.58422772,78.840331 2.74291992,79.0551758 C2.90161212,79.2700206 3.16650205,79.3774414 3.53759766,79.3774414 C3.68408276,79.3774414 3.9208968,79.3530276 4.24804688,79.3041992 L4.28466797,80.0219727 C4.05517463,80.1049809 3.74267776,80.1464844 3.34716797,80.1464844 C2.74657903,80.1464844 2.30957168,79.9719256 2.03613281,79.6228027 C1.76269395,79.2736799 1.62597656,78.759769 1.62597656,78.0810547 L1.62597656,72.7929688 L0.168457031,72.7929688 L0.168457031,72.0751953 L1.62597656,72.0751953 L1.62597656,70.0463867 L2.50488281,70.0463867 Z M8.83349609,73.4155273 C9.12158347,72.9418922 9.49023213,72.5756849 9.93945312,72.3168945 C10.3886741,72.0581042 10.8793919,71.9287109 11.4116211,71.9287109 C12.2612347,71.9287109 12.8935526,72.1679664 13.3085938,72.6464844 C13.7236349,73.1250024 13.9335937,73.8427687 13.9384766,74.7998047 L13.9384766,80 L13.0668945,80 L13.0668945,74.7924805 C13.0620117,74.0844691 12.9118667,73.5571306 12.6164551,73.2104492 C12.3210434,72.8637678 11.8486361,72.6904297 11.1992188,72.6904297 C10.6572239,72.6904297 10.1774923,72.8601057 9.76000977,73.1994629 C9.34252721,73.5388201 9.03369241,73.9965792 8.83349609,74.5727539 L8.83349609,80 L7.96191406,80 L7.96191406,68.75 L8.83349609,68.75 L8.83349609,73.4155273 Z M21.2631836,80.1464844 C20.5893521,80.1464844 19.9802273,79.9804704 19.435791,79.6484375 C18.8913547,79.3164046 18.467775,78.8537627 18.1650391,78.260498 C17.8623032,77.6672334 17.7109375,77.0019568 17.7109375,76.2646484 L17.7109375,75.949707 C17.7109375,75.1879845 17.8586411,74.5019562 18.1540527,73.8916016 C18.4494644,73.2812469 18.8608372,72.8015154 19.3881836,72.4523926 C19.91553,72.1032697 20.4868133,71.9287109 21.1020508,71.9287109 C22.0639697,71.9287109 22.8269015,72.2570768 23.3908691,72.9138184 C23.9548368,73.5705599 24.2368164,74.4677677 24.2368164,75.6054688 L24.2368164,76.0961914 L18.5825195,76.0961914 L18.5825195,76.2646484 C18.5825195,77.1630904 18.8400853,77.911374 19.3552246,78.5095215 C19.8703639,79.107669 20.5185508,79.4067383 21.2998047,79.4067383 C21.768557,79.4067383 22.1823713,79.3212899 22.5412598,79.1503906 C22.9001483,78.9794913 23.2260728,78.7060566 23.519043,78.3300781 L24.0683594,78.7475586 C23.4238249,79.6801804 22.4887757,80.1464844 21.2631836,80.1464844 Z M21.1020508,72.6757812 C20.4428678,72.6757812 19.8874534,72.9174781 19.435791,73.4008789 C18.9841286,73.8842798 18.7094731,74.5336873 18.6118164,75.3491211 L23.3652344,75.3491211 L23.3652344,75.2539062 C23.3408202,74.4921837 23.1235372,73.8720727 22.7133789,73.3935547 C22.3032206,72.9150367 21.7661166,72.6757812 21.1020508,72.6757812 Z M34.953125,70.0463867 L34.953125,72.0751953 L36.59375,72.0751953 L36.59375,72.7929688 L34.953125,72.7929688 L34.953125,78.0737305 C34.953125,78.5131858 35.0324699,78.840331 35.1911621,79.0551758 C35.3498543,79.2700206 35.6147442,79.3774414 35.9858398,79.3774414 C36.132325,79.3774414 36.369139,79.3530276 36.6962891,79.3041992 L36.7329102,80.0219727 C36.5034168,80.1049809 36.1909199,80.1464844 35.7954102,80.1464844 C35.1948212,80.1464844 34.7578139,79.9719256 34.484375,79.6228027 C34.2109361,79.2736799 34.0742188,78.759769 34.0742188,78.0810547 L34.0742188,72.7929688 L32.6166992,72.7929688 L32.6166992,72.0751953 L34.0742188,72.0751953 L34.0742188,70.0463867 L34.953125,70.0463867 Z M44.0722656,72.8222656 C43.8867178,72.7880858 43.6889659,72.7709961 43.4790039,72.7709961 C42.9321262,72.7709961 42.4694843,72.9235825 42.0910645,73.2287598 C41.7126446,73.5339371 41.4428719,73.9770479 41.2817383,74.5581055 L41.2817383,80 L40.4101562,80 L40.4101562,72.0751953 L41.2670898,72.0751953 L41.2817383,73.3349609 C41.7456078,72.3974563 42.4902292,71.9287109 43.515625,71.9287109 C43.7597668,71.9287109 43.952636,71.9604489 44.0942383,72.0239258 L44.0722656,72.8222656 Z M48.4379883,80 L47.559082,80 L47.559082,72.0751953 L48.4379883,72.0751953 L48.4379883,80 Z M47.4052734,69.7827148 C47.4052734,69.6166984 47.4589838,69.4763189 47.5664062,69.3615723 C47.6738287,69.2468256 47.8203116,69.1894531 48.0058594,69.1894531 C48.1914072,69.1894531 48.3391108,69.2468256 48.4489746,69.3615723 C48.5588384,69.4763189 48.6137695,69.6166984 48.6137695,69.7827148 C48.6137695,69.9487313 48.5588384,70.0878901 48.4489746,70.2001953 C48.3391108,70.3125006 48.1914072,70.3686523 48.0058594,70.3686523 C47.8203116,70.3686523 47.6738287,70.3125006 47.5664062,70.2001953 C47.4589838,70.0878901 47.4052734,69.9487313 47.4052734,69.7827148 Z M59.1904297,76.1181641 C59.1904297,77.3535218 58.9169949,78.3337366 58.3701172,79.0588379 C57.8232395,79.7839392 57.0908249,80.1464844 56.1728516,80.1464844 C55.0888618,80.1464844 54.2587919,79.7656288 53.6826172,79.0039062 L53.6826172,83.046875 L52.8110352,83.046875 L52.8110352,72.0751953 L53.6240234,72.0751953 L53.6679688,73.1958008 C54.2392607,72.35107 55.0668891,71.9287109 56.1508789,71.9287109 C57.0981493,71.9287109 57.84155,72.2875941 58.3811035,73.0053711 C58.920657,73.7231481 59.1904297,74.7192319 59.1904297,75.9936523 L59.1904297,76.1181641 Z M58.3115234,75.9643555 C58.3115234,74.9536082 58.104006,74.1552764 57.6889648,73.5693359 C57.2739237,72.9833955 56.6953162,72.6904297 55.953125,72.6904297 C55.4160129,72.6904297 54.9545918,72.8198229 54.5688477,73.0786133 C54.1831035,73.3374036 53.8876963,73.7133764 53.6826172,74.206543 L53.6826172,78.0078125 C53.8925792,78.4619163 54.1928691,78.8085926 54.5834961,79.0478516 C54.974123,79.2871106 55.4355442,79.4067383 55.9677734,79.4067383 C56.7050818,79.4067383 57.2800272,79.1125518 57.692627,78.5241699 C58.1052267,77.9357881 58.3115234,77.0825251 58.3115234,75.9643555 Z M63.0507812,79.4726562 C63.0507812,79.301757 63.1057123,79.1564947 63.2155762,79.0368652 C63.32544,78.9172357 63.4780264,78.8574219 63.6733398,78.8574219 C63.8686533,78.8574219 64.0224604,78.9172357 64.1347656,79.0368652 C64.2470709,79.1564947 64.3032227,79.301757 64.3032227,79.4726562 C64.3032227,79.6435555 64.2470709,79.783935 64.1347656,79.8937988 C64.0224604,80.0036627 63.8686533,80.0585938 63.6733398,80.0585938 C63.4780264,80.0585938 63.32544,80.0036627 63.2155762,79.8937988 C63.1057123,79.783935 63.0507812,79.6435555 63.0507812,79.4726562 Z M81.5087891,70.1049805 L77.8540039,70.1049805 L77.8540039,80 L76.953125,80 L76.953125,70.1049805 L73.3056641,70.1049805 L73.3056641,69.3359375 L81.5087891,69.3359375 L81.5087891,70.1049805 Z M86.5043945,78.1762695 L86.6362305,78.8574219 L86.8120117,78.1396484 L88.7163086,72.0751953 L89.4633789,72.0751953 L91.3457031,78.0883789 L91.5507812,78.9233398 L91.7192383,78.1542969 L93.3452148,72.0751953 L94.253418,72.0751953 L91.9462891,80 L91.1992188,80 L89.1630859,73.7158203 L89.0678711,73.2836914 L88.9726562,73.7231445 L86.9731445,80 L86.2260742,80 L83.9262695,72.0751953 L84.8271484,72.0751953 L86.5043945,78.1762695 Z M97.4326172,75.9204102 C97.4326172,75.1586876 97.5803208,74.4726593 97.8757324,73.8623047 C98.1711441,73.2519501 98.5886203,72.7771013 99.1281738,72.4377441 C99.6677273,72.098387 100.279293,71.9287109 100.962891,71.9287109 C102.017583,71.9287109 102.872067,72.2985803 103.526367,73.0383301 C104.180667,73.7780799 104.507812,74.7582947 104.507812,75.9790039 L104.507812,76.1621094 C104.507812,76.9287148 104.360109,77.6184051 104.064697,78.2312012 C103.769286,78.8439972 103.35303,79.3164046 102.815918,79.6484375 C102.278806,79.9804704 101.666019,80.1464844 100.977539,80.1464844 C99.9277291,80.1464844 99.0744662,79.776615 98.4177246,79.0368652 C97.760983,78.2971154 97.4326172,77.3169006 97.4326172,76.0961914 L97.4326172,75.9204102 Z M98.3115234,76.1621094 C98.3115234,77.1093797 98.5568823,77.8869599 99.0476074,78.494873 C99.5383325,79.1027862 100.181637,79.4067383 100.977539,79.4067383 C101.768559,79.4067383 102.409421,79.1027862 102.900146,78.494873 C103.390872,77.8869599 103.63623,77.0849659 103.63623,76.0888672 L103.63623,75.9204102 C103.63623,75.3149384 103.523927,74.7607447 103.299316,74.2578125 C103.074706,73.7548803 102.759768,73.3654799 102.354492,73.0895996 C101.949217,72.8137193 101.485354,72.6757812 100.962891,72.6757812 C100.181637,72.6757812 99.5444361,72.9821747 99.0512695,73.5949707 C98.558103,74.2077667 98.3115234,75.0097607 98.3115234,76.0009766 L98.3115234,76.1621094 Z M113.612793,75.9643555 C113.612793,74.7338806 113.887448,73.7536658 114.436768,73.0236816 C114.986087,72.2936975 115.731929,71.9287109 116.674316,71.9287109 C117.743658,71.9287109 118.559079,72.35107 119.120605,73.1958008 L119.120605,68.75 L119.992188,68.75 L119.992188,80 L119.171875,80 L119.135254,78.9453125 C118.573728,79.7460978 117.748541,80.1464844 116.659668,80.1464844 C115.746577,80.1464844 115.010501,79.7790564 114.451416,79.0441895 C113.892331,78.3093225 113.612793,77.3169008 113.612793,76.0668945 L113.612793,75.9643555 Z M114.499023,76.1181641 C114.499023,77.1289113 114.701658,77.9260225 115.106934,78.5095215 C115.512209,79.0930205 116.083492,79.3847656 116.820801,79.3847656 C117.899908,79.3847656 118.666502,78.9086962 119.120605,77.956543 L119.120605,74.2358398 C118.666502,73.2055613 117.904791,72.6904297 116.835449,72.6904297 C116.098141,72.6904297 115.524416,72.9797334 115.114258,73.5583496 C114.7041,74.1369658 114.499023,74.9902287 114.499023,76.1181641 Z M129.301758,80 C129.213867,79.7509753 129.157715,79.3823267 129.133301,78.894043 C128.825682,79.2944356 128.43384,79.6032704 127.957764,79.8205566 C127.481687,80.0378429 126.977542,80.1464844 126.445312,80.1464844 C125.68359,80.1464844 125.067141,79.9340842 124.595947,79.5092773 C124.124754,79.0844705 123.88916,78.5473665 123.88916,77.8979492 C123.88916,77.126461 124.210202,76.5161155 124.852295,76.0668945 C125.494388,75.6176735 126.389154,75.3930664 127.536621,75.3930664 L129.125977,75.3930664 L129.125977,74.4921875 C129.125977,73.9257784 128.951418,73.4802262 128.602295,73.1555176 C128.253172,72.8308089 127.744144,72.668457 127.075195,72.668457 C126.464841,72.668457 125.959475,72.8247055 125.559082,73.137207 C125.158689,73.4497086 124.958496,73.8256814 124.958496,74.2651367 L124.07959,74.2578125 C124.07959,73.6279265 124.372556,73.0822777 124.958496,72.6208496 C125.544437,72.1594215 126.264644,71.9287109 127.119141,71.9287109 C128.002934,71.9287109 128.699949,72.149656 129.210205,72.5915527 C129.720462,73.0334495 129.98291,73.6498984 129.997559,74.440918 L129.997559,78.190918 C129.997559,78.9575234 130.078124,79.5312481 130.239258,79.9121094 L130.239258,80 L129.301758,80 Z M126.547852,79.3701172 C127.133792,79.3701172 127.657468,79.228517 128.118896,78.9453125 C128.580325,78.662108 128.916015,78.2836938 129.125977,77.8100586 L129.125977,76.0668945 L127.558594,76.0668945 C126.684566,76.0766602 126.000979,76.2365707 125.507812,76.5466309 C125.014646,76.856691 124.768066,77.2827121 124.768066,77.824707 C124.768066,78.2690452 124.93286,78.6376938 125.262451,78.9306641 C125.592043,79.2236343 126.020505,79.3701172 126.547852,79.3701172 Z M136.736328,78.7402344 L139.050781,72.0751953 L139.995605,72.0751953 L136.611816,81.3476562 L136.436035,81.7578125 C136.001463,82.7197314 135.330083,83.2006836 134.421875,83.2006836 C134.211913,83.2006836 133.987306,83.1665042 133.748047,83.0981445 L133.740723,82.3730469 L134.194824,82.4169922 C134.624514,82.4169922 134.972411,82.3107921 135.238525,82.0983887 C135.50464,81.8859853 135.730468,81.5209987 135.916016,81.003418 L136.304199,79.934082 L133.315918,72.0751953 L134.275391,72.0751953 L136.736328,78.7402344 Z M148.09668,77.9858398 C148.09668,77.5512674 147.922121,77.2021498 147.572998,76.9384766 C147.223875,76.6748034 146.697757,76.4685066 145.994629,76.3195801 C145.2915,76.1706536 144.745852,75.9997568 144.357666,75.8068848 C143.96948,75.6140127 143.681397,75.3784194 143.493408,75.1000977 C143.305419,74.821776 143.211426,74.4848653 143.211426,74.0893555 C143.211426,73.4643523 143.472654,72.9480001 143.995117,72.5402832 C144.517581,72.1325663 145.186519,71.9287109 146.001953,71.9287109 C146.885747,71.9287109 147.594968,72.1472146 148.129639,72.5842285 C148.664309,73.0212424 148.931641,73.5913051 148.931641,74.2944336 L148.052734,74.2944336 C148.052734,73.8305641 147.858645,73.4448258 147.470459,73.137207 C147.082273,72.8295883 146.592776,72.6757812 146.001953,72.6757812 C145.425778,72.6757812 144.963137,72.8039538 144.614014,73.0603027 C144.264891,73.3166517 144.090332,73.6499003 144.090332,74.0600586 C144.090332,74.4555684 144.235594,74.7619618 144.526123,74.979248 C144.816652,75.1965343 145.346432,75.3955069 146.115479,75.5761719 C146.884525,75.7568368 147.460691,75.949706 147.843994,76.1547852 C148.227297,76.3598643 148.511718,76.6064439 148.697266,76.8945312 C148.882813,77.1826186 148.975586,77.5317362 148.975586,77.9418945 C148.975586,78.6108432 148.705813,79.1455058 148.16626,79.5458984 C147.626706,79.9462911 146.922368,80.1464844 146.053223,80.1464844 C145.130366,80.1464844 144.382083,79.9230979 143.80835,79.4763184 C143.234616,79.0295388 142.947754,78.4643589 142.947754,77.7807617 L143.82666,77.7807617 C143.86084,78.2934596 144.076902,78.6926255 144.474854,78.9782715 C144.872805,79.2639174 145.398923,79.4067383 146.053223,79.4067383 C146.663577,79.4067383 147.156736,79.2724623 147.532715,79.0039062 C147.908693,78.7353502 148.09668,78.3959981 148.09668,77.9858398 Z M163.690918,78.996582 C163.163572,79.7631874 162.321295,80.1464844 161.164062,80.1464844 C160.319332,80.1464844 159.677248,79.9011255 159.237793,79.4104004 C158.798338,78.9196753 158.573731,78.1933642 158.563965,77.2314453 L158.563965,72.0751953 L159.435547,72.0751953 L159.435547,77.121582 C159.435547,78.6303786 160.045892,79.3847656 161.266602,79.3847656 C162.536139,79.3847656 163.339354,78.8598685 163.67627,77.8100586 L163.67627,72.0751953 L164.555176,72.0751953 L164.555176,80 L163.705566,80 L163.690918,78.996582 Z M175.205078,76.1181641 C175.205078,77.3535218 174.931643,78.3337366 174.384766,79.0588379 C173.837888,79.7839392 173.105473,80.1464844 172.1875,80.1464844 C171.10351,80.1464844 170.27344,79.7656288 169.697266,79.0039062 L169.697266,83.046875 L168.825684,83.046875 L168.825684,72.0751953 L169.638672,72.0751953 L169.682617,73.1958008 C170.253909,72.35107 171.081538,71.9287109 172.165527,71.9287109 C173.112798,71.9287109 173.856198,72.2875941 174.395752,73.0053711 C174.935305,73.7231481 175.205078,74.7192319 175.205078,75.9936523 L175.205078,76.1181641 Z M174.326172,75.9643555 C174.326172,74.9536082 174.118654,74.1552764 173.703613,73.5693359 C173.288572,72.9833955 172.709965,72.6904297 171.967773,72.6904297 C171.430661,72.6904297 170.96924,72.8198229 170.583496,73.0786133 C170.197752,73.3374036 169.902345,73.7133764 169.697266,74.206543 L169.697266,78.0078125 C169.907228,78.4619163 170.207518,78.8085926 170.598145,79.0478516 C170.988771,79.2871106 171.450193,79.4067383 171.982422,79.4067383 C172.71973,79.4067383 173.294676,79.1125518 173.707275,78.5241699 C174.119875,77.9357881 174.326172,77.0825251 174.326172,75.9643555 Z M180.017578,73.4155273 C180.305666,72.9418922 180.674314,72.5756849 181.123535,72.3168945 C181.572756,72.0581042 182.063474,71.9287109 182.595703,71.9287109 C183.445317,71.9287109 184.077635,72.1679664 184.492676,72.6464844 C184.907717,73.1250024 185.117676,73.8427687 185.122559,74.7998047 L185.122559,80 L184.250977,80 L184.250977,74.7924805 C184.246094,74.0844691 184.095949,73.5571306 183.800537,73.2104492 C183.505125,72.8637678 183.032718,72.6904297 182.383301,72.6904297 C181.841306,72.6904297 181.361574,72.8601057 180.944092,73.1994629 C180.526609,73.5388201 180.217774,73.9965792 180.017578,74.5727539 L180.017578,80 L179.145996,80 L179.145996,68.75 L180.017578,68.75 L180.017578,73.4155273 Z M190.359863,80 L189.480957,80 L189.480957,72.0751953 L190.359863,72.0751953 L190.359863,80 Z M189.327148,69.7827148 C189.327148,69.6166984 189.380859,69.4763189 189.488281,69.3615723 C189.595704,69.2468256 189.742187,69.1894531 189.927734,69.1894531 C190.113282,69.1894531 190.260986,69.2468256 190.37085,69.3615723 C190.480713,69.4763189 190.535645,69.6166984 190.535645,69.7827148 C190.535645,69.9487313 190.480713,70.0878901 190.37085,70.2001953 C190.260986,70.3125006 190.113282,70.3686523 189.927734,70.3686523 C189.742187,70.3686523 189.595704,70.3125006 189.488281,70.2001953 C189.380859,70.0878901 189.327148,69.9487313 189.327148,69.7827148 Z M195.72168,80 L194.842773,80 L194.842773,68.75 L195.72168,68.75 L195.72168,80 Z M201.083496,80 L200.20459,80 L200.20459,68.75 L201.083496,68.75 L201.083496,80 Z M210.209961,77.9858398 C210.209961,77.5512674 210.035402,77.2021498 209.686279,76.9384766 C209.337156,76.6748034 208.811039,76.4685066 208.10791,76.3195801 C207.404782,76.1706536 206.859133,75.9997568 206.470947,75.8068848 C206.082762,75.6140127 205.794679,75.3784194 205.606689,75.1000977 C205.4187,74.821776 205.324707,74.4848653 205.324707,74.0893555 C205.324707,73.4643523 205.585935,72.9480001 206.108398,72.5402832 C206.630862,72.1325663 207.299801,71.9287109 208.115234,71.9287109 C208.999028,71.9287109 209.708249,72.1472146 210.24292,72.5842285 C210.777591,73.0212424 211.044922,73.5913051 211.044922,74.2944336 L210.166016,74.2944336 C210.166016,73.8305641 209.971926,73.4448258 209.58374,73.137207 C209.195555,72.8295883 208.706058,72.6757812 208.115234,72.6757812 C207.53906,72.6757812 207.076418,72.8039538 206.727295,73.0603027 C206.378172,73.3166517 206.203613,73.6499003 206.203613,74.0600586 C206.203613,74.4555684 206.348876,74.7619618 206.639404,74.979248 C206.929933,75.1965343 207.459713,75.3955069 208.22876,75.5761719 C208.997807,75.7568368 209.573973,75.949706 209.957275,76.1547852 C210.340578,76.3598643 210.624999,76.6064439 210.810547,76.8945312 C210.996095,77.1826186 211.088867,77.5317362 211.088867,77.9418945 C211.088867,78.6108432 210.819094,79.1455058 210.279541,79.5458984 C209.739988,79.9462911 209.035649,80.1464844 208.166504,80.1464844 C207.243648,80.1464844 206.495364,79.9230979 205.921631,79.4763184 C205.347898,79.0295388 205.061035,78.4643589 205.061035,77.7807617 L205.939941,77.7807617 C205.974121,78.2934596 206.190184,78.6926255 206.588135,78.9782715 C206.986086,79.2639174 207.512204,79.4067383 208.166504,79.4067383 C208.776859,79.4067383 209.270018,79.2724623 209.645996,79.0039062 C210.021975,78.7353502 210.209961,78.3959981 210.209961,77.9858398 Z M214.978516,79.4726562 C214.978516,79.301757 215.033447,79.1564947 215.143311,79.0368652 C215.253174,78.9172357 215.405761,78.8574219 215.601074,78.8574219 C215.796388,78.8574219 215.950195,78.9172357 216.0625,79.0368652 C216.174805,79.1564947 216.230957,79.301757 216.230957,79.4726562 C216.230957,79.6435555 216.174805,79.783935 216.0625,79.8937988 C215.950195,80.0036627 215.796388,80.0585938 215.601074,80.0585938 C215.405761,80.0585938 215.253174,80.0036627 215.143311,79.8937988 C215.033447,79.783935 214.978516,79.6435555 214.978516,79.4726562 Z M220.560059,79.4726562 C220.560059,79.301757 220.61499,79.1564947 220.724854,79.0368652 C220.834717,78.9172357 220.987304,78.8574219 221.182617,78.8574219 C221.377931,78.8574219 221.531738,78.9172357 221.644043,79.0368652 C221.756348,79.1564947 221.8125,79.301757 221.8125,79.4726562 C221.8125,79.6435555 221.756348,79.783935 221.644043,79.8937988 C221.531738,80.0036627 221.377931,80.0585938 221.182617,80.0585938 C220.987304,80.0585938 220.834717,80.0036627 220.724854,79.8937988 C220.61499,79.783935 220.560059,79.6435555 220.560059,79.4726562 Z" id="Arriving-here-from-Y"></path>
            </g>
        </g>
    </g>
</svg>