<?xml version="1.0" encoding="UTF-8"?>
<svg width="264px" height="84px" viewBox="0 0 264 84" version="1.1" xmlns="http://www.w3.org/2000/svg" xmlns:xlink="http://www.w3.org/1999/xlink">
    <!-- Generator: Sketch 41.2 (35397) - http://www.bohemiancoding.com/sketch -->
    <title>Group 4</title>
    <desc>Created with Sketch.</desc>
    <defs></defs>
    <g id="Page-1" stroke="none" stroke-width="1" fill="none" fill-rule="evenodd">
        <g id="Desktop-HD-Copy" transform="translate(-741.000000, -231.000000)" fill="#000000">
            <g id="Group-4" transform="translate(741.000000, 231.000000)">
                <path d="M2.48632813,0.3359375 L5.5625,8.50976562 L8.63134766,0.3359375 L11.0263672,0.3359375 L11.0263672,11 L9.18066406,11 L9.18066406,7.484375 L9.36376953,2.78222656 L6.21435547,11 L4.88867188,11 L1.74658203,2.78955078 L1.9296875,7.484375 L1.9296875,11 L0.083984375,11 L0.083984375,0.3359375 L2.48632813,0.3359375 Z M18.4902344,5.38964844 L20.9438477,0.3359375 L22.9946289,0.3359375 L19.4204102,7.07421875 L19.4204102,11 L17.5600586,11 L17.5600586,7.07421875 L13.9785156,0.3359375 L16.0366211,0.3359375 L18.4902344,5.38964844 Z M40.3466797,11 L38.4936523,11 L33.7402344,3.43408203 L33.7402344,11 L31.887207,11 L31.887207,0.3359375 L33.7402344,0.3359375 L38.5083008,7.93115234 L38.5083008,0.3359375 L40.3466797,0.3359375 L40.3466797,11 Z M50.6376953,8.51708984 L46.5068359,8.51708984 L45.6425781,11 L43.7163086,11 L47.7446289,0.3359375 L49.4072266,0.3359375 L53.4428711,11 L51.5092773,11 L50.6376953,8.51708984 Z M47.0268555,7.02294922 L50.1176758,7.02294922 L48.5722656,2.59912109 L47.0268555,7.02294922 Z M59.0537109,0.3359375 L62.1298828,8.50976562 L65.1987305,0.3359375 L67.59375,0.3359375 L67.59375,11 L65.7480469,11 L65.7480469,7.484375 L65.9311523,2.78222656 L62.7817383,11 L61.4560547,11 L58.3139648,2.78955078 L58.4970703,7.484375 L58.4970703,11 L56.6513672,11 L56.6513672,0.3359375 L59.0537109,0.3359375 Z M78.0166016,6.23925781 L73.6367188,6.23925781 L73.6367188,9.52050781 L78.7563477,9.52050781 L78.7563477,11 L71.7836914,11 L71.7836914,0.3359375 L78.7050781,0.3359375 L78.7050781,1.83007812 L73.6367188,1.83007812 L73.6367188,4.77441406 L78.0166016,4.77441406 L78.0166016,6.23925781 Z M89.9560547,11 L88.1103516,11 L88.1103516,0.3359375 L89.9560547,0.3359375 L89.9560547,11 Z M99.8076172,8.25341797 C99.8076172,7.78466563 99.6428239,7.42334111 99.3132324,7.16943359 C98.9836409,6.91552607 98.3891645,6.65918098 97.5297852,6.40039063 C96.6704059,6.14160027 95.9868189,5.85351721 95.4790039,5.53613281 C94.5073194,4.9257782 94.0214844,4.12988772 94.0214844,3.1484375 C94.0214844,2.2890582 94.3718227,1.58105747 95.0725098,1.02441406 C95.7731969,0.467770654 96.6826116,0.189453125 97.8007812,0.189453125 C98.5429725,0.189453125 99.2045869,0.326170508 99.7856445,0.599609375 C100.366702,0.873048242 100.823241,1.26244865 101.155273,1.76782227 C101.487306,2.27319589 101.65332,2.83349302 101.65332,3.44873047 L99.8076172,3.44873047 C99.8076172,2.89208706 99.6330584,2.4563004 99.2839355,2.14135742 C98.9348127,1.82641444 98.4355501,1.66894531 97.7861328,1.66894531 C97.180661,1.66894531 96.710695,1.79833855 96.3762207,2.05712891 C96.0417464,2.31591926 95.8745117,2.67724377 95.8745117,3.14111328 C95.8745117,3.53174023 96.055174,3.85766471 96.4165039,4.11889648 C96.7778338,4.38012826 97.373531,4.63403197 98.2036133,4.88061523 C99.0336956,5.1271985 99.7001928,5.40795741 100.203125,5.72290039 C100.706057,6.03784337 101.074706,6.39916788 101.309082,6.80688477 C101.543458,7.21460165 101.660645,7.6918918 101.660645,8.23876953 C101.660645,9.12744585 101.320072,9.83422589 100.638916,10.3591309 C99.9577603,10.8840358 99.0336972,11.1464844 97.8666992,11.1464844 C97.095211,11.1464844 96.3859896,11.0036635 95.7390137,10.7180176 C95.0920378,10.4323716 94.5891131,10.0380885 94.2302246,9.53515625 C93.8713361,9.03222405 93.6918945,8.44629241 93.6918945,7.77734375 L95.5449219,7.77734375 C95.5449219,8.38281553 95.7451152,8.85156084 96.1455078,9.18359375 C96.5459004,9.51562666 97.1196252,9.68164062 97.8666992,9.68164062 C98.5112337,9.68164062 98.995848,9.5510267 99.3205566,9.28979492 C99.6452653,9.02856315 99.8076172,8.68310762 99.8076172,8.25341797 Z M115.387207,0.3359375 L117.23291,0.3359375 L117.23291,7.81396484 C117.23291,8.83447776 116.91431,9.64501653 116.2771,10.2456055 C115.639889,10.8461944 114.798833,11.1464844 113.753906,11.1464844 C112.640619,11.1464844 111.781253,10.8657255 111.175781,10.3041992 C110.570309,9.74267297 110.267578,8.96143079 110.267578,7.96044922 L112.113281,7.96044922 C112.113281,8.5268583 112.253661,8.95287943 112.534424,9.23852539 C112.815187,9.52417135 113.221677,9.66699219 113.753906,9.66699219 C114.251956,9.66699219 114.64868,9.50219891 114.944092,9.17260742 C115.239503,8.84301593 115.387207,8.38769822 115.387207,7.80664062 L115.387207,0.3359375 Z M129.860352,5.94628906 C129.860352,6.99121616 129.679689,7.90795504 129.318359,8.6965332 C128.957029,9.48511136 128.440677,10.0905741 127.769287,10.5129395 C127.097897,10.9353048 126.3252,11.1464844 125.451172,11.1464844 C124.58691,11.1464844 123.816654,10.9353048 123.140381,10.5129395 C122.464108,10.0905741 121.941652,9.48877344 121.572998,8.70751953 C121.204344,7.92626562 121.017578,7.02539573 121.012695,6.00488281 L121.012695,5.40429688 C121.012695,4.36425261 121.19702,3.44629304 121.565674,2.65039062 C121.934328,1.85448821 122.454342,1.24536344 123.125732,0.822998047 C123.797122,0.400632654 124.567378,0.189453125 125.436523,0.189453125 C126.305668,0.189453125 127.075924,0.398191272 127.747314,0.815673828 C128.418705,1.23315638 128.937498,1.83373632 129.303711,2.61743164 C129.669924,3.40112697 129.855469,4.31298308 129.860352,5.35302734 L129.860352,5.94628906 Z M128.007324,5.38964844 C128.007324,4.2080019 127.783938,3.30224924 127.337158,2.67236328 C126.890379,2.04247732 126.25684,1.72753906 125.436523,1.72753906 C124.635738,1.72753906 124.009524,2.04125663 123.557861,2.66870117 C123.106199,3.29614572 122.875488,4.18358801 122.865723,5.33105469 L122.865723,5.94628906 C122.865723,7.11816992 123.093992,8.02392258 123.550537,8.66357422 C124.007082,9.30322585 124.640621,9.62304688 125.451172,9.62304688 C126.271488,9.62304688 126.902586,9.31055 127.344482,8.68554688 C127.786379,8.06054375 128.007324,7.14746694 128.007324,5.94628906 L128.007324,5.38964844 Z M142.172852,11 L140.327148,11 L140.327148,6.26123047 L135.559082,6.26123047 L135.559082,11 L133.706055,11 L133.706055,0.3359375 L135.559082,0.3359375 L135.559082,4.77441406 L140.327148,4.77441406 L140.327148,0.3359375 L142.172852,0.3359375 L142.172852,11 Z M154.822266,11 L152.969238,11 L148.21582,3.43408203 L148.21582,11 L146.362793,11 L146.362793,0.3359375 L148.21582,0.3359375 L152.983887,7.93115234 L152.983887,0.3359375 L154.822266,0.3359375 L154.822266,11 Z M162.286133,5.38964844 L164.739746,0.3359375 L166.790527,0.3359375 L163.216309,7.07421875 L163.216309,11 L161.355957,11 L161.355957,7.07421875 L157.774414,0.3359375 L159.83252,0.3359375 L162.286133,5.38964844 Z" id="MY-NAME-IS-JOHNY"></path>
                <path d="M1.44628906,44 L0.545410156,44 L0.545410156,33.3359375 L1.44628906,33.3359375 L1.44628906,44 Z M6.96923828,36.0751953 L6.99853516,37.4301758 C7.29638821,36.9418921 7.66747825,36.5695814 8.11181641,36.3132324 C8.55615457,36.0568835 9.04687231,35.9287109 9.58398438,35.9287109 C10.433598,35.9287109 11.0659159,36.1679664 11.480957,36.6464844 C11.8959982,37.1250024 12.105957,37.8427687 12.1108398,38.7998047 L12.1108398,44 L11.2392578,44 L11.2392578,38.7924805 C11.234375,38.0844691 11.08423,37.5571306 10.7888184,37.2104492 C10.4934067,36.8637678 10.0209993,36.6904297 9.37158203,36.6904297 C8.82958713,36.6904297 8.3498556,36.8601057 7.93237305,37.1994629 C7.51489049,37.5388201 7.20605569,37.9965792 7.00585938,38.5727539 L7.00585938,44 L6.13427734,44 L6.13427734,36.0751953 L6.96923828,36.0751953 Z M29.777832,40.6748047 C29.6557611,41.7978572 29.2541538,42.6572236 28.572998,43.2529297 C27.8918423,43.8486358 26.9848689,44.1464844 25.8520508,44.1464844 C25.0610312,44.1464844 24.3615753,43.9487324 23.7536621,43.5532227 C23.1457489,43.1577129 22.6757829,42.5974157 22.34375,41.8723145 C22.0117171,41.1472132 21.8432617,40.318364 21.8383789,39.3857422 L21.8383789,38.0014648 C21.8383789,37.0541945 22.0043929,36.2143591 22.3364258,35.4819336 C22.6684587,34.7495081 23.1457488,34.1843282 23.7683105,33.786377 C24.3908723,33.3884257 25.1074178,33.1894531 25.9179688,33.1894531 C27.0605526,33.1894531 27.9626432,33.4982879 28.6242676,34.1159668 C29.285892,34.7336457 29.6704096,35.5869086 29.777832,36.6757812 L28.8696289,36.6757812 C28.6450184,34.8642488 27.6611415,33.9584961 25.9179688,33.9584961 C24.951167,33.9584961 24.1809111,34.3198206 23.6071777,35.0424805 C23.0334444,35.7651403 22.746582,36.7636655 22.746582,38.0380859 L22.746582,39.3417969 C22.746582,40.5722718 23.0261203,41.5537073 23.5852051,42.2861328 C24.1442899,43.0185583 24.8998976,43.3847656 25.8520508,43.3847656 C26.7944383,43.3847656 27.5048804,43.1589378 27.9833984,42.7072754 C28.4619165,42.255613 28.7573237,41.5781295 28.8696289,40.6748047 L29.777832,40.6748047 Z M38.7651367,44 C38.6772457,43.7509753 38.6210939,43.3823267 38.5966797,42.894043 C38.289061,43.2944356 37.8972192,43.6032704 37.4211426,43.8205566 C36.945066,44.0378429 36.4409206,44.1464844 35.9086914,44.1464844 C35.1469688,44.1464844 34.5305199,43.9340842 34.0593262,43.5092773 C33.5881324,43.0844705 33.3525391,42.5473665 33.3525391,41.8979492 C33.3525391,41.126461 33.6735808,40.5161155 34.3156738,40.0668945 C34.9577669,39.6176735 35.8525333,39.3930664 37,39.3930664 L38.5893555,39.3930664 L38.5893555,38.4921875 C38.5893555,37.9257784 38.4147967,37.4802262 38.0656738,37.1555176 C37.716551,36.8308089 37.2075229,36.668457 36.5385742,36.668457 C35.9282196,36.668457 35.4228536,36.8247055 35.0224609,37.137207 C34.6220683,37.4497086 34.421875,37.8256814 34.421875,38.2651367 L33.5429688,38.2578125 C33.5429688,37.6279265 33.8359346,37.0822777 34.421875,36.6208496 C35.0078154,36.1594215 35.7280231,35.9287109 36.5825195,35.9287109 C37.466313,35.9287109 38.1633275,36.149656 38.673584,36.5915527 C39.1838404,37.0334495 39.446289,37.6498984 39.4609375,38.440918 L39.4609375,42.190918 C39.4609375,42.9575234 39.5415031,43.5312481 39.7026367,43.9121094 L39.7026367,44 L38.7651367,44 Z M36.0112305,43.3701172 C36.5971709,43.3701172 37.1208473,43.228517 37.5822754,42.9453125 C38.0437035,42.662108 38.3793935,42.2836938 38.5893555,41.8100586 L38.5893555,40.0668945 L37.0219727,40.0668945 C36.1479448,40.0766602 35.4643579,40.2365707 34.9711914,40.5466309 C34.4780249,40.856691 34.2314453,41.2827121 34.2314453,41.824707 C34.2314453,42.2690452 34.3962386,42.6376938 34.7258301,42.9306641 C35.0554216,43.2236343 35.4838841,43.3701172 36.0112305,43.3701172 Z M44.5957031,36.0751953 L44.625,37.3642578 C44.9179702,36.8857398 45.2841775,36.5268567 45.7236328,36.2875977 C46.1630881,36.0483386 46.6513645,35.9287109 47.1884766,35.9287109 C48.4384828,35.9287109 49.2319319,36.4414011 49.5688477,37.4667969 C49.8520522,36.9736303 50.2304664,36.5939955 50.7041016,36.3278809 C51.1777367,36.0617662 51.7001925,35.9287109 52.2714844,35.9287109 C53.9707116,35.9287109 54.8374022,36.856436 54.871582,38.7119141 L54.871582,44 L53.9926758,44 L53.9926758,38.777832 C53.9877929,38.0698207 53.8352066,37.5449236 53.5349121,37.203125 C53.2346176,36.8613264 52.7451206,36.6904297 52.0664062,36.6904297 C51.4365203,36.7001954 50.904299,36.9040507 50.4697266,37.302002 C50.0351541,37.6999532 49.7934573,38.1845675 49.7446289,38.7558594 L49.7446289,44 L48.8657227,44 L48.8657227,38.7119141 C48.8608398,38.0331997 48.7009293,37.526613 48.3859863,37.1921387 C48.0710433,36.8576643 47.5864291,36.6904297 46.9321289,36.6904297 C46.3803683,36.6904297 45.9067403,36.8478988 45.5112305,37.1628418 C45.1157207,37.4777848 44.8227549,37.9453094 44.6323242,38.5654297 L44.6323242,44 L43.753418,44 L43.753418,36.0751953 L44.5957031,36.0751953 Z M65.4628906,40.1181641 C65.4628906,41.3535218 65.1894559,42.3337366 64.6425781,43.0588379 C64.0957004,43.7839392 63.3632858,44.1464844 62.4453125,44.1464844 C61.3613227,44.1464844 60.5312529,43.7656288 59.9550781,43.0039062 L59.9550781,47.046875 L59.0834961,47.046875 L59.0834961,36.0751953 L59.8964844,36.0751953 L59.9404297,37.1958008 C60.5117216,36.35107 61.33935,35.9287109 62.4233398,35.9287109 C63.3706102,35.9287109 64.114011,36.2875941 64.6535645,37.0053711 C65.1931179,37.7231481 65.4628906,38.7192319 65.4628906,39.9936523 L65.4628906,40.1181641 Z M64.5839844,39.9643555 C64.5839844,38.9536082 64.3764669,38.1552764 63.9614258,37.5693359 C63.5463846,36.9833955 62.9677771,36.6904297 62.2255859,36.6904297 C61.6884739,36.6904297 61.2270527,36.8198229 60.8413086,37.0786133 C60.4555645,37.3374036 60.1601573,37.7133764 59.9550781,38.206543 L59.9550781,42.0078125 C60.1650401,42.4619163 60.4653301,42.8085926 60.855957,43.0478516 C61.246584,43.2871106 61.7080052,43.4067383 62.2402344,43.4067383 C62.9775427,43.4067383 63.5524882,43.1125518 63.9650879,42.5241699 C64.3776876,41.9357881 64.5839844,41.0825251 64.5839844,39.9643555 Z M80.2954102,40.5649414 L81.9580078,40.5649414 L81.9580078,41.3046875 L80.2954102,41.3046875 L80.2954102,44 L79.4165039,44 L79.4165039,41.3046875 L74.3994141,41.3046875 L74.3994141,40.8066406 L79.3359375,33.3359375 L80.2954102,33.3359375 L80.2954102,40.5649414 Z M75.4760742,40.5649414 L79.4165039,40.5649414 L79.4165039,34.4711914 L79.0283203,35.1450195 L75.4760742,40.5649414 Z M90.5283203,39.9204102 C90.5283203,39.1586876 90.6760239,38.4726593 90.9714355,37.8623047 C91.2668472,37.2519501 91.6843235,36.7771013 92.223877,36.4377441 C92.7634304,36.098387 93.3749966,35.9287109 94.0585938,35.9287109 C95.1132865,35.9287109 95.9677702,36.2985803 96.6220703,37.0383301 C97.2763705,37.7780799 97.6035156,38.7582947 97.6035156,39.9790039 L97.6035156,40.1621094 C97.6035156,40.9287148 97.455812,41.6184051 97.1604004,42.2312012 C96.8649888,42.8439972 96.4487332,43.3164046 95.9116211,43.6484375 C95.374509,43.9804704 94.7617222,44.1464844 94.0732422,44.1464844 C93.0234323,44.1464844 92.1701693,43.776615 91.5134277,43.0368652 C90.8566862,42.2971154 90.5283203,41.3169006 90.5283203,40.0961914 L90.5283203,39.9204102 Z M91.4072266,40.1621094 C91.4072266,41.1093797 91.6525854,41.8869599 92.1433105,42.494873 C92.6340357,43.1027862 93.2773398,43.4067383 94.0732422,43.4067383 C94.8642618,43.4067383 95.5051245,43.1027862 95.9958496,42.494873 C96.4865747,41.8869599 96.7319336,41.0849659 96.7319336,40.0888672 L96.7319336,39.9204102 C96.7319336,39.3149384 96.61963,38.7607447 96.3950195,38.2578125 C96.170409,37.7548803 95.8554708,37.3654799 95.4501953,37.0895996 C95.0449198,36.8137193 94.5810573,36.6757812 94.0585938,36.6757812 C93.2773398,36.6757812 92.6401392,36.9821747 92.1469727,37.5949707 C91.6538061,38.2077667 91.4072266,39.0097607 91.4072266,40.0009766 L91.4072266,40.1621094 Z M102.04248,44 L102.04248,36.7929688 L100.731445,36.7929688 L100.731445,36.0751953 L102.04248,36.0751953 L102.04248,35.1157227 C102.04248,34.3051717 102.248777,33.6826194 102.661377,33.2480469 C103.073977,32.8134744 103.648922,32.5961914 104.38623,32.5961914 C104.718263,32.5961914 105.028319,32.6376949 105.316406,32.7207031 L105.250488,33.453125 C105.006346,33.394531 104.740236,33.3652344 104.452148,33.3652344 C103.968748,33.3652344 103.592775,33.5153794 103.324219,33.8156738 C103.055663,34.1159683 102.921387,34.5419894 102.921387,35.09375 L102.921387,36.0751953 L104.811035,36.0751953 L104.811035,36.7929688 L102.921387,36.7929688 L102.921387,44 L102.04248,44 Z M117.358398,39.1513672 L120.617676,33.3359375 L121.657715,33.3359375 L117.805176,39.9863281 L117.805176,44 L116.904297,44 L116.904297,39.9863281 L113.059082,33.3359375 L114.128418,33.3359375 L117.358398,39.1513672 Z M124.045898,39.9204102 C124.045898,39.1586876 124.193602,38.4726593 124.489014,37.8623047 C124.784425,37.2519501 125.201902,36.7771013 125.741455,36.4377441 C126.281009,36.098387 126.892575,35.9287109 127.576172,35.9287109 C128.630865,35.9287109 129.485348,36.2985803 130.139648,37.0383301 C130.793949,37.7780799 131.121094,38.7582947 131.121094,39.9790039 L131.121094,40.1621094 C131.121094,40.9287148 130.97339,41.6184051 130.677979,42.2312012 C130.382567,42.8439972 129.966311,43.3164046 129.429199,43.6484375 C128.892087,43.9804704 128.2793,44.1464844 127.59082,44.1464844 C126.54101,44.1464844 125.687747,43.776615 125.031006,43.0368652 C124.374264,42.2971154 124.045898,41.3169006 124.045898,40.0961914 L124.045898,39.9204102 Z M124.924805,40.1621094 C124.924805,41.1093797 125.170164,41.8869599 125.660889,42.494873 C126.151614,43.1027862 126.794918,43.4067383 127.59082,43.4067383 C128.38184,43.4067383 129.022703,43.1027862 129.513428,42.494873 C130.004153,41.8869599 130.249512,41.0849659 130.249512,40.0888672 L130.249512,39.9204102 C130.249512,39.3149384 130.137208,38.7607447 129.912598,38.2578125 C129.687987,37.7548803 129.373049,37.3654799 128.967773,37.0895996 C128.562498,36.8137193 128.098635,36.6757812 127.576172,36.6757812 C126.794918,36.6757812 126.157717,36.9821747 125.664551,37.5949707 C125.171384,38.2077667 124.924805,39.0097607 124.924805,40.0009766 L124.924805,40.1621094 Z M139.67627,41.9858398 C139.67627,41.5512674 139.501711,41.2021498 139.152588,40.9384766 C138.803465,40.6748034 138.277347,40.4685066 137.574219,40.3195801 C136.87109,40.1706536 136.325441,39.9997568 135.937256,39.8068848 C135.54907,39.6140127 135.260987,39.3784194 135.072998,39.1000977 C134.885009,38.821776 134.791016,38.4848653 134.791016,38.0893555 C134.791016,37.4643523 135.052243,36.9480001 135.574707,36.5402832 C136.097171,36.1325663 136.766109,35.9287109 137.581543,35.9287109 C138.465336,35.9287109 139.174558,36.1472146 139.709229,36.5842285 C140.243899,37.0212424 140.51123,37.5913051 140.51123,38.2944336 L139.632324,38.2944336 C139.632324,37.8305641 139.438234,37.4448258 139.050049,37.137207 C138.661863,36.8295883 138.172366,36.6757812 137.581543,36.6757812 C137.005368,36.6757812 136.542726,36.8039538 136.193604,37.0603027 C135.844481,37.3166517 135.669922,37.6499003 135.669922,38.0600586 C135.669922,38.4555684 135.815184,38.7619618 136.105713,38.979248 C136.396242,39.1965343 136.926022,39.3955069 137.695068,39.5761719 C138.464115,39.7568368 139.040281,39.949706 139.423584,40.1547852 C139.806887,40.3598643 140.091308,40.6064439 140.276855,40.8945312 C140.462403,41.1826186 140.555176,41.5317362 140.555176,41.9418945 C140.555176,42.6108432 140.285403,43.1455058 139.74585,43.5458984 C139.206296,43.9462911 138.501957,44.1464844 137.632812,44.1464844 C136.709956,44.1464844 135.961673,43.9230979 135.387939,43.4763184 C134.814206,43.0295388 134.527344,42.4643589 134.527344,41.7807617 L135.40625,41.7807617 C135.44043,42.2934596 135.656492,42.6926255 136.054443,42.9782715 C136.452395,43.2639174 136.978512,43.4067383 137.632812,43.4067383 C138.243167,43.4067383 138.736326,43.2724623 139.112305,43.0039062 C139.488283,42.7353502 139.67627,42.3959981 139.67627,41.9858398 Z M147.594238,44.1464844 C146.920407,44.1464844 146.311282,43.9804704 145.766846,43.6484375 C145.222409,43.3164046 144.79883,42.8537627 144.496094,42.260498 C144.193358,41.6672334 144.041992,41.0019568 144.041992,40.2646484 L144.041992,39.949707 C144.041992,39.1879845 144.189696,38.5019562 144.485107,37.8916016 C144.780519,37.2812469 145.191892,36.8015154 145.719238,36.4523926 C146.246585,36.1032697 146.817868,35.9287109 147.433105,35.9287109 C148.395024,35.9287109 149.157956,36.2570768 149.721924,36.9138184 C150.285891,37.5705599 150.567871,38.4677677 150.567871,39.6054688 L150.567871,40.0961914 L144.913574,40.0961914 L144.913574,40.2646484 C144.913574,41.1630904 145.17114,41.911374 145.686279,42.5095215 C146.201419,43.107669 146.849605,43.4067383 147.630859,43.4067383 C148.099612,43.4067383 148.513426,43.3212899 148.872314,43.1503906 C149.231203,42.9794913 149.557127,42.7060566 149.850098,42.3300781 L150.399414,42.7475586 C149.75488,43.6801804 148.81983,44.1464844 147.594238,44.1464844 Z M147.433105,36.6757812 C146.773922,36.6757812 146.218508,36.9174781 145.766846,37.4008789 C145.315183,37.8842798 145.040528,38.5336873 144.942871,39.3491211 L149.696289,39.3491211 L149.696289,39.2539062 C149.671875,38.4921837 149.454592,37.8720727 149.044434,37.3935547 C148.634275,36.9150367 148.097171,36.6757812 147.433105,36.6757812 Z M155.072754,36.0751953 L155.102051,37.3642578 C155.395021,36.8857398 155.761228,36.5268567 156.200684,36.2875977 C156.640139,36.0483386 157.128415,35.9287109 157.665527,35.9287109 C158.915534,35.9287109 159.708983,36.4414011 160.045898,37.4667969 C160.329103,36.9736303 160.707517,36.5939955 161.181152,36.3278809 C161.654788,36.0617662 162.177243,35.9287109 162.748535,35.9287109 C164.447762,35.9287109 165.314453,36.856436 165.348633,38.7119141 L165.348633,44 L164.469727,44 L164.469727,38.777832 C164.464844,38.0698207 164.312257,37.5449236 164.011963,37.203125 C163.711668,36.8613264 163.222171,36.6904297 162.543457,36.6904297 C161.913571,36.7001954 161.38135,36.9040507 160.946777,37.302002 C160.512205,37.6999532 160.270508,38.1845675 160.22168,38.7558594 L160.22168,44 L159.342773,44 L159.342773,38.7119141 C159.337891,38.0331997 159.17798,37.526613 158.863037,37.1921387 C158.548094,36.8576643 158.06348,36.6904297 157.40918,36.6904297 C156.857419,36.6904297 156.383791,36.8478988 155.988281,37.1628418 C155.592771,37.4777848 155.299806,37.9453094 155.109375,38.5654297 L155.109375,44 L154.230469,44 L154.230469,36.0751953 L155.072754,36.0751953 Z M170.549316,44 L169.67041,44 L169.67041,36.0751953 L170.549316,36.0751953 L170.549316,44 Z M169.516602,33.7827148 C169.516602,33.6166984 169.570312,33.4763189 169.677734,33.3615723 C169.785157,33.2468256 169.93164,33.1894531 170.117188,33.1894531 C170.302735,33.1894531 170.450439,33.2468256 170.560303,33.3615723 C170.670167,33.4763189 170.725098,33.6166984 170.725098,33.7827148 C170.725098,33.9487313 170.670167,34.0878901 170.560303,34.2001953 C170.450439,34.3125006 170.302735,34.3686523 170.117188,34.3686523 C169.93164,34.3686523 169.785157,34.3125006 169.677734,34.2001953 C169.570312,34.0878901 169.516602,33.9487313 169.516602,33.7827148 Z M176.291992,34.0463867 L176.291992,36.0751953 L177.932617,36.0751953 L177.932617,36.7929688 L176.291992,36.7929688 L176.291992,42.0737305 C176.291992,42.5131858 176.371337,42.840331 176.530029,43.0551758 C176.688721,43.2700206 176.953611,43.3774414 177.324707,43.3774414 C177.471192,43.3774414 177.708006,43.3530276 178.035156,43.3041992 L178.071777,44.0219727 C177.842284,44.1049809 177.529787,44.1464844 177.134277,44.1464844 C176.533688,44.1464844 176.096681,43.9719256 175.823242,43.6228027 C175.549803,43.2736799 175.413086,42.759769 175.413086,42.0810547 L175.413086,36.7929688 L173.955566,36.7929688 L173.955566,36.0751953 L175.413086,36.0751953 L175.413086,34.0463867 L176.291992,34.0463867 Z M184.817871,44.1464844 C184.14404,44.1464844 183.534915,43.9804704 182.990479,43.6484375 C182.446042,43.3164046 182.022462,42.8537627 181.719727,42.260498 C181.416991,41.6672334 181.265625,41.0019568 181.265625,40.2646484 L181.265625,39.949707 C181.265625,39.1879845 181.413329,38.5019562 181.70874,37.8916016 C182.004152,37.2812469 182.415525,36.8015154 182.942871,36.4523926 C183.470217,36.1032697 184.041501,35.9287109 184.656738,35.9287109 C185.618657,35.9287109 186.381589,36.2570768 186.945557,36.9138184 C187.509524,37.5705599 187.791504,38.4677677 187.791504,39.6054688 L187.791504,40.0961914 L182.137207,40.0961914 L182.137207,40.2646484 C182.137207,41.1630904 182.394773,41.911374 182.909912,42.5095215 C183.425051,43.107669 184.073238,43.4067383 184.854492,43.4067383 C185.323245,43.4067383 185.737059,43.3212899 186.095947,43.1503906 C186.454836,42.9794913 186.78076,42.7060566 187.07373,42.3300781 L187.623047,42.7475586 C186.978512,43.6801804 186.043463,44.1464844 184.817871,44.1464844 Z M184.656738,36.6757812 C183.997555,36.6757812 183.442141,36.9174781 182.990479,37.4008789 C182.538816,37.8842798 182.264161,38.5336873 182.166504,39.3491211 L186.919922,39.3491211 L186.919922,39.2539062 C186.895508,38.4921837 186.678225,37.8720727 186.268066,37.3935547 C185.857908,36.9150367 185.320804,36.6757812 184.656738,36.6757812 Z M205.290039,44 L204.38916,44 L198.258789,34.8740234 L198.258789,44 L197.350586,44 L197.350586,33.3359375 L198.258789,33.3359375 L204.396484,42.4692383 L204.396484,33.3359375 L205.290039,33.3359375 L205.290039,44 Z M214.797363,44 C214.709472,43.7509753 214.65332,43.3823267 214.628906,42.894043 C214.321288,43.2944356 213.929446,43.6032704 213.453369,43.8205566 C212.977293,44.0378429 212.473147,44.1464844 211.940918,44.1464844 C211.179195,44.1464844 210.562746,43.9340842 210.091553,43.5092773 C209.620359,43.0844705 209.384766,42.5473665 209.384766,41.8979492 C209.384766,41.126461 209.705807,40.5161155 210.3479,40.0668945 C210.989993,39.6176735 211.88476,39.3930664 213.032227,39.3930664 L214.621582,39.3930664 L214.621582,38.4921875 C214.621582,37.9257784 214.447023,37.4802262 214.0979,37.1555176 C213.748778,36.8308089 213.239749,36.668457 212.570801,36.668457 C211.960446,36.668457 211.45508,36.8247055 211.054688,37.137207 C210.654295,37.4497086 210.454102,37.8256814 210.454102,38.2651367 L209.575195,38.2578125 C209.575195,37.6279265 209.868161,37.0822777 210.454102,36.6208496 C211.040042,36.1594215 211.76025,35.9287109 212.614746,35.9287109 C213.49854,35.9287109 214.195554,36.149656 214.705811,36.5915527 C215.216067,37.0334495 215.478516,37.6498984 215.493164,38.440918 L215.493164,42.190918 C215.493164,42.9575234 215.57373,43.5312481 215.734863,43.9121094 L215.734863,44 L214.797363,44 Z M212.043457,43.3701172 C212.629397,43.3701172 213.153074,43.228517 213.614502,42.9453125 C214.07593,42.662108 214.41162,42.2836938 214.621582,41.8100586 L214.621582,40.0668945 L213.054199,40.0668945 C212.180171,40.0766602 211.496584,40.2365707 211.003418,40.5466309 C210.510251,40.856691 210.263672,41.2827121 210.263672,41.824707 C210.263672,42.2690452 210.428465,42.6376938 210.758057,42.9306641 C211.087648,43.2236343 211.516111,43.3701172 212.043457,43.3701172 Z M221.191895,34.0463867 L221.191895,36.0751953 L222.83252,36.0751953 L222.83252,36.7929688 L221.191895,36.7929688 L221.191895,42.0737305 C221.191895,42.5131858 221.271239,42.840331 221.429932,43.0551758 C221.588624,43.2700206 221.853514,43.3774414 222.224609,43.3774414 C222.371094,43.3774414 222.607909,43.3530276 222.935059,43.3041992 L222.97168,44.0219727 C222.742186,44.1049809 222.429689,44.1464844 222.03418,44.1464844 C221.433591,44.1464844 220.996583,43.9719256 220.723145,43.6228027 C220.449706,43.2736799 220.312988,42.759769 220.312988,42.0810547 L220.312988,36.7929688 L218.855469,36.7929688 L218.855469,36.0751953 L220.312988,36.0751953 L220.312988,34.0463867 L221.191895,34.0463867 Z M227.630371,44 L226.751465,44 L226.751465,36.0751953 L227.630371,36.0751953 L227.630371,44 Z M226.597656,33.7827148 C226.597656,33.6166984 226.651367,33.4763189 226.758789,33.3615723 C226.866211,33.2468256 227.012694,33.1894531 227.198242,33.1894531 C227.38379,33.1894531 227.531494,33.2468256 227.641357,33.3615723 C227.751221,33.4763189 227.806152,33.6166984 227.806152,33.7827148 C227.806152,33.9487313 227.751221,34.0878901 227.641357,34.2001953 C227.531494,34.3125006 227.38379,34.3686523 227.198242,34.3686523 C227.012694,34.3686523 226.866211,34.3125006 226.758789,34.2001953 C226.651367,34.0878901 226.597656,33.9487313 226.597656,33.7827148 Z M231.527344,39.9204102 C231.527344,39.1586876 231.675047,38.4726593 231.970459,37.8623047 C232.265871,37.2519501 232.683347,36.7771013 233.2229,36.4377441 C233.762454,36.098387 234.37402,35.9287109 235.057617,35.9287109 C236.11231,35.9287109 236.966794,36.2985803 237.621094,37.0383301 C238.275394,37.7780799 238.602539,38.7582947 238.602539,39.9790039 L238.602539,40.1621094 C238.602539,40.9287148 238.454835,41.6184051 238.159424,42.2312012 C237.864012,42.8439972 237.447757,43.3164046 236.910645,43.6484375 C236.373532,43.9804704 235.760746,44.1464844 235.072266,44.1464844 C234.022456,44.1464844 233.169193,43.776615 232.512451,43.0368652 C231.85571,42.2971154 231.527344,41.3169006 231.527344,40.0961914 L231.527344,39.9204102 Z M232.40625,40.1621094 C232.40625,41.1093797 232.651609,41.8869599 233.142334,42.494873 C233.633059,43.1027862 234.276363,43.4067383 235.072266,43.4067383 C235.863285,43.4067383 236.504148,43.1027862 236.994873,42.494873 C237.485598,41.8869599 237.730957,41.0849659 237.730957,40.0888672 L237.730957,39.9204102 C237.730957,39.3149384 237.618653,38.7607447 237.394043,38.2578125 C237.169432,37.7548803 236.854494,37.3654799 236.449219,37.0895996 C236.043943,36.8137193 235.580081,36.6757812 235.057617,36.6757812 C234.276363,36.6757812 233.639163,36.9821747 233.145996,37.5949707 C232.65283,38.2077667 232.40625,39.0097607 232.40625,40.0009766 L232.40625,40.1621094 Z M243.246582,36.0751953 L243.275879,37.4301758 C243.573732,36.9418921 243.944822,36.5695814 244.38916,36.3132324 C244.833498,36.0568835 245.324216,35.9287109 245.861328,35.9287109 C246.710942,35.9287109 247.34326,36.1679664 247.758301,36.6464844 C248.173342,37.1250024 248.383301,37.8427687 248.388184,38.7998047 L248.388184,44 L247.516602,44 L247.516602,38.7924805 C247.511719,38.0844691 247.361574,37.5571306 247.066162,37.2104492 C246.77075,36.8637678 246.298343,36.6904297 245.648926,36.6904297 C245.106931,36.6904297 244.627199,36.8601057 244.209717,37.1994629 C243.792234,37.5388201 243.483399,37.9965792 243.283203,38.5727539 L243.283203,44 L242.411621,44 L242.411621,36.0751953 L243.246582,36.0751953 Z M257.653809,44 C257.565918,43.7509753 257.509766,43.3823267 257.485352,42.894043 C257.177733,43.2944356 256.785891,43.6032704 256.309814,43.8205566 C255.833738,44.0378429 255.329593,44.1464844 254.797363,44.1464844 C254.035641,44.1464844 253.419192,43.9340842 252.947998,43.5092773 C252.476804,43.0844705 252.241211,42.5473665 252.241211,41.8979492 C252.241211,41.126461 252.562253,40.5161155 253.204346,40.0668945 C253.846439,39.6176735 254.741205,39.3930664 255.888672,39.3930664 L257.478027,39.3930664 L257.478027,38.4921875 C257.478027,37.9257784 257.303469,37.4802262 256.954346,37.1555176 C256.605223,36.8308089 256.096195,36.668457 255.427246,36.668457 C254.816891,36.668457 254.311525,36.8247055 253.911133,37.137207 C253.51074,37.4497086 253.310547,37.8256814 253.310547,38.2651367 L252.431641,38.2578125 C252.431641,37.6279265 252.724606,37.0822777 253.310547,36.6208496 C253.896487,36.1594215 254.616695,35.9287109 255.471191,35.9287109 C256.354985,35.9287109 257.051999,36.149656 257.562256,36.5915527 C258.072512,37.0334495 258.334961,37.6498984 258.349609,38.440918 L258.349609,42.190918 C258.349609,42.9575234 258.430175,43.5312481 258.591309,43.9121094 L258.591309,44 L257.653809,44 Z M254.899902,43.3701172 C255.485843,43.3701172 256.009519,43.228517 256.470947,42.9453125 C256.932375,42.662108 257.268065,42.2836938 257.478027,41.8100586 L257.478027,40.0668945 L255.910645,40.0668945 C255.036617,40.0766602 254.35303,40.2365707 253.859863,40.5466309 C253.366697,40.856691 253.120117,41.2827121 253.120117,41.824707 C253.120117,42.2690452 253.28491,42.6376938 253.614502,42.9306641 C253.944093,43.2236343 254.372556,43.3701172 254.899902,43.3701172 Z M263.66748,44 L262.788574,44 L262.788574,32.75 L263.66748,32.75 L263.66748,44 Z M1.24853516,57.6567383 L1.24853516,62 L0.34765625,62 L0.34765625,51.3359375 L3.98046875,51.3359375 C5.08887273,51.3359375 5.96410812,51.6191378 6.60620117,52.1855469 C7.24829423,52.751956 7.56933594,53.5307568 7.56933594,54.5219727 C7.56933594,55.5229542 7.26050114,56.2956516 6.64282227,56.8400879 C6.0251434,57.3845242 5.13037695,57.6567383 3.95849609,57.6567383 L1.24853516,57.6567383 Z M1.24853516,56.8950195 L3.98046875,56.8950195 C4.85449656,56.8950195 5.5209938,56.6875021 5.97998047,56.2724609 C6.43896714,55.8574198 6.66845703,55.2788123 6.66845703,54.5366211 C6.66845703,53.7993127 6.44018783,53.2121604 5.98364258,52.7751465 C5.52709733,52.3381326 4.87891045,52.1147461 4.0390625,52.1049805 L1.24853516,52.1049805 L1.24853516,56.8950195 Z M16.300293,62 C16.2124019,61.7509753 16.1562501,61.3823267 16.1318359,60.894043 C15.8242172,61.2944356 15.4323754,61.6032704 14.9562988,61.8205566 C14.4802222,62.0378429 13.9760769,62.1464844 13.4438477,62.1464844 C12.6821251,62.1464844 12.0656762,61.9340842 11.5944824,61.5092773 C11.1232887,61.0844705 10.8876953,60.5473665 10.8876953,59.8979492 C10.8876953,59.126461 11.208737,58.5161155 11.8508301,58.0668945 C12.4929231,57.6176735 13.3876896,57.3930664 14.5351562,57.3930664 L16.1245117,57.3930664 L16.1245117,56.4921875 C16.1245117,55.9257784 15.9499529,55.4802262 15.6008301,55.1555176 C15.2517072,54.8308089 14.7426791,54.668457 14.0737305,54.668457 C13.4633759,54.668457 12.9580098,54.8247055 12.5576172,55.137207 C12.1572246,55.4497086 11.9570312,55.8256814 11.9570312,56.2651367 L11.078125,56.2578125 C11.078125,55.6279265 11.3710908,55.0822777 11.9570312,54.6208496 C12.5429717,54.1594215 13.2631793,53.9287109 14.1176758,53.9287109 C15.0014693,53.9287109 15.6984838,54.149656 16.2087402,54.5915527 C16.7189967,55.0334495 16.9814452,55.6498984 16.9960938,56.440918 L16.9960938,60.190918 C16.9960938,60.9575234 17.0766594,61.5312481 17.237793,61.9121094 L17.237793,62 L16.300293,62 Z M13.5463867,61.3701172 C14.1323271,61.3701172 14.6560036,61.228517 15.1174316,60.9453125 C15.5788597,60.662108 15.9145497,60.2836938 16.1245117,59.8100586 L16.1245117,58.0668945 L14.5571289,58.0668945 C13.6831011,58.0766602 12.9995142,58.2365707 12.5063477,58.5466309 C12.0131811,58.856691 11.7666016,59.2827121 11.7666016,59.824707 C11.7666016,60.2690452 11.9313948,60.6376938 12.2609863,60.9306641 C12.5905778,61.2236343 13.0190403,61.3701172 13.5463867,61.3701172 Z M24.9946289,54.8222656 C24.8090811,54.7880858 24.6113292,54.7709961 24.4013672,54.7709961 C23.8544895,54.7709961 23.3918476,54.9235825 23.0134277,55.2287598 C22.6350079,55.5339371 22.3652352,55.9770479 22.2041016,56.5581055 L22.2041016,62 L21.3325195,62 L21.3325195,54.0751953 L22.1894531,54.0751953 L22.2041016,55.3349609 C22.6679711,54.3974563 23.4125925,53.9287109 24.4379883,53.9287109 C24.6821301,53.9287109 24.8749993,53.9604489 25.0166016,54.0239258 L24.9946289,54.8222656 Z M30.2612305,58.0083008 L29.2578125,58.9750977 L29.2578125,62 L28.3789062,62 L28.3789062,50.75 L29.2578125,50.75 L29.2578125,57.949707 L30.0854492,57.0561523 L33.1176758,54.0751953 L34.2236328,54.0751953 L30.8618164,57.4150391 L34.5166016,62 L33.4692383,62 L30.2612305,58.0083008 Z M45.2695312,60.1762695 L45.4013672,60.8574219 L45.5771484,60.1396484 L47.4814453,54.0751953 L48.2285156,54.0751953 L50.1108398,60.0883789 L50.315918,60.9233398 L50.484375,60.1542969 L52.1103516,54.0751953 L53.0185547,54.0751953 L50.7114258,62 L49.9643555,62 L47.9282227,55.7158203 L47.8330078,55.2836914 L47.737793,55.7231445 L45.7382812,62 L44.9912109,62 L42.6914062,54.0751953 L43.5922852,54.0751953 L45.2695312,60.1762695 Z M59.75,62.1464844 C59.0761685,62.1464844 58.4670437,61.9804704 57.9226074,61.6484375 C57.3781711,61.3164046 56.9545914,60.8537627 56.6518555,60.260498 C56.3491196,59.6672334 56.1977539,59.0019568 56.1977539,58.2646484 L56.1977539,57.949707 C56.1977539,57.1879845 56.3454575,56.5019562 56.6408691,55.8916016 C56.9362808,55.2812469 57.3476536,54.8015154 57.875,54.4523926 C58.4023464,54.1032697 58.9736297,53.9287109 59.5888672,53.9287109 C60.5507861,53.9287109 61.3137179,54.2570768 61.8776855,54.9138184 C62.4416532,55.5705599 62.7236328,56.4677677 62.7236328,57.6054688 L62.7236328,58.0961914 L57.0693359,58.0961914 L57.0693359,58.2646484 C57.0693359,59.1630904 57.3269017,59.911374 57.842041,60.5095215 C58.3571803,61.107669 59.0053672,61.4067383 59.7866211,61.4067383 C60.2553734,61.4067383 60.6691877,61.3212899 61.0280762,61.1503906 C61.3869647,60.9794913 61.7128892,60.7060566 62.0058594,60.3300781 L62.5551758,60.7475586 C61.9106413,61.6801804 60.9755921,62.1464844 59.75,62.1464844 Z M59.5888672,54.6757812 C58.9296842,54.6757812 58.3742698,54.9174781 57.9226074,55.4008789 C57.470945,55.8842798 57.1962896,56.5336873 57.0986328,57.3491211 L61.8520508,57.3491211 L61.8520508,57.2539062 C61.8276366,56.4921837 61.6103536,55.8720727 61.2001953,55.3935547 C60.790037,54.9150367 60.252933,54.6757812 59.5888672,54.6757812 Z M72.8759766,54.0751953 L72.9052734,55.3642578 C73.1982437,54.8857398 73.5644509,54.5268567 74.0039062,54.2875977 C74.4433616,54.0483386 74.9316379,53.9287109 75.46875,53.9287109 C76.7187562,53.9287109 77.5122053,54.4414011 77.8491211,55.4667969 C78.1323256,54.9736303 78.5107398,54.5939955 78.984375,54.3278809 C79.4580102,54.0617662 79.9804659,53.9287109 80.5517578,53.9287109 C82.2509851,53.9287109 83.1176756,54.856436 83.1518555,56.7119141 L83.1518555,62 L82.2729492,62 L82.2729492,56.777832 C82.2680664,56.0698207 82.11548,55.5449236 81.8151855,55.203125 C81.5148911,54.8613264 81.025394,54.6904297 80.3466797,54.6904297 C79.7167937,54.7001954 79.1845725,54.9040507 78.75,55.302002 C78.3154275,55.6999532 78.0737307,56.1845675 78.0249023,56.7558594 L78.0249023,62 L77.1459961,62 L77.1459961,56.7119141 C77.1411133,56.0331997 76.9812027,55.526613 76.6662598,55.1921387 C76.3513168,54.8576643 75.8667025,54.6904297 75.2124023,54.6904297 C74.6606418,54.6904297 74.1870137,54.8478988 73.7915039,55.1628418 C73.3959941,55.4777848 73.1030283,55.9453094 72.9125977,56.5654297 L72.9125977,62 L72.0336914,62 L72.0336914,54.0751953 L72.8759766,54.0751953 Z M90.4399414,62.1464844 C89.7661099,62.1464844 89.1569851,61.9804704 88.6125488,61.6484375 C88.0681125,61.3164046 87.6445328,60.8537627 87.3417969,60.260498 C87.039061,59.6672334 86.8876953,59.0019568 86.8876953,58.2646484 L86.8876953,57.949707 C86.8876953,57.1879845 87.0353989,56.5019562 87.3308105,55.8916016 C87.6262222,55.2812469 88.037595,54.8015154 88.5649414,54.4523926 C89.0922878,54.1032697 89.6635711,53.9287109 90.2788086,53.9287109 C91.2407275,53.9287109 92.0036593,54.2570768 92.567627,54.9138184 C93.1315946,55.5705599 93.4135742,56.4677677 93.4135742,57.6054688 L93.4135742,58.0961914 L87.7592773,58.0961914 L87.7592773,58.2646484 C87.7592773,59.1630904 88.0168431,59.911374 88.5319824,60.5095215 C89.0471217,61.107669 89.6953086,61.4067383 90.4765625,61.4067383 C90.9453148,61.4067383 91.3591291,61.3212899 91.7180176,61.1503906 C92.0769061,60.9794913 92.4028306,60.7060566 92.6958008,60.3300781 L93.2451172,60.7475586 C92.6005827,61.6801804 91.6655335,62.1464844 90.4399414,62.1464844 Z M90.2788086,54.6757812 C89.6196256,54.6757812 89.0642112,54.9174781 88.6125488,55.4008789 C88.1608864,55.8842798 87.886231,56.5336873 87.7885742,57.3491211 L92.5419922,57.3491211 L92.5419922,57.2539062 C92.517578,56.4921837 92.300295,55.8720727 91.8901367,55.3935547 C91.4799784,54.9150367 90.9428744,54.6757812 90.2788086,54.6757812 Z M100.188965,62.1464844 C99.5151333,62.1464844 98.9060086,61.9804704 98.3615723,61.6484375 C97.8171359,61.3164046 97.3935562,60.8537627 97.0908203,60.260498 C96.7880844,59.6672334 96.6367187,59.0019568 96.6367187,58.2646484 L96.6367187,57.949707 C96.6367187,57.1879845 96.7844224,56.5019562 97.079834,55.8916016 C97.3752456,55.2812469 97.7866185,54.8015154 98.3139648,54.4523926 C98.8413112,54.1032697 99.4125946,53.9287109 100.027832,53.9287109 C100.989751,53.9287109 101.752683,54.2570768 102.31665,54.9138184 C102.880618,55.5705599 103.162598,56.4677677 103.162598,57.6054688 L103.162598,58.0961914 L97.5083008,58.0961914 L97.5083008,58.2646484 C97.5083008,59.1630904 97.7658666,59.911374 98.2810059,60.5095215 C98.7961452,61.107669 99.444332,61.4067383 100.225586,61.4067383 C100.694338,61.4067383 101.108153,61.3212899 101.467041,61.1503906 C101.82593,60.9794913 102.151854,60.7060566 102.444824,60.3300781 L102.994141,60.7475586 C102.349606,61.6801804 101.414557,62.1464844 100.188965,62.1464844 Z M100.027832,54.6757812 C99.368649,54.6757812 98.8132347,54.9174781 98.3615723,55.4008789 C97.9099099,55.8842798 97.6352544,56.5336873 97.5375977,57.3491211 L102.291016,57.3491211 L102.291016,57.2539062 C102.266601,56.4921837 102.049318,55.8720727 101.63916,55.3935547 C101.229002,54.9150367 100.691898,54.6757812 100.027832,54.6757812 Z M108.231445,52.0463867 L108.231445,54.0751953 L109.87207,54.0751953 L109.87207,54.7929688 L108.231445,54.7929688 L108.231445,60.0737305 C108.231445,60.5131858 108.31079,60.840331 108.469482,61.0551758 C108.628175,61.2700206 108.893065,61.3774414 109.26416,61.3774414 C109.410645,61.3774414 109.647459,61.3530276 109.974609,61.3041992 L110.01123,62.0219727 C109.781737,62.1049809 109.46924,62.1464844 109.07373,62.1464844 C108.473142,62.1464844 108.036134,61.9719256 107.762695,61.6228027 C107.489256,61.2736799 107.352539,60.759769 107.352539,60.0810547 L107.352539,54.7929688 L105.89502,54.7929688 L105.89502,54.0751953 L107.352539,54.0751953 L107.352539,52.0463867 L108.231445,52.0463867 Z M124.250488,51.3359375 L125.158691,51.3359375 L125.158691,58.8286133 C125.158691,59.8393605 124.866946,60.6450165 124.283447,61.2456055 C123.699948,61.8461944 122.917485,62.1464844 121.936035,62.1464844 C120.900874,62.1464844 120.104983,61.875491 119.54834,61.3334961 C118.991696,60.7915012 118.713379,60.0346728 118.713379,59.0629883 L119.614258,59.0629883 C119.614258,59.8344765 119.816893,60.4143047 120.222168,60.8024902 C120.627443,61.1906758 121.198727,61.3847656 121.936035,61.3847656 C122.614749,61.3847656 123.167722,61.1601585 123.594971,60.7109375 C124.022219,60.2617165 124.240723,59.651371 124.250488,58.8798828 L124.250488,51.3359375 Z M129.106934,57.9204102 C129.106934,57.1586876 129.254637,56.4726593 129.550049,55.8623047 C129.84546,55.2519501 130.262937,54.7771013 130.80249,54.4377441 C131.342044,54.098387 131.95361,53.9287109 132.637207,53.9287109 C133.6919,53.9287109 134.546383,54.2985803 135.200684,55.0383301 C135.854984,55.7780799 136.182129,56.7582947 136.182129,57.9790039 L136.182129,58.1621094 C136.182129,58.9287148 136.034425,59.6184051 135.739014,60.2312012 C135.443602,60.8439972 135.027346,61.3164046 134.490234,61.6484375 C133.953122,61.9804704 133.340335,62.1464844 132.651855,62.1464844 C131.602046,62.1464844 130.748783,61.776615 130.092041,61.0368652 C129.435299,60.2971154 129.106934,59.3169006 129.106934,58.0961914 L129.106934,57.9204102 Z M129.98584,58.1621094 C129.98584,59.1093797 130.231199,59.8869599 130.721924,60.494873 C131.212649,61.1027862 131.855953,61.4067383 132.651855,61.4067383 C133.442875,61.4067383 134.083738,61.1027862 134.574463,60.494873 C135.065188,59.8869599 135.310547,59.0849659 135.310547,58.0888672 L135.310547,57.9204102 C135.310547,57.3149384 135.198243,56.7607447 134.973633,56.2578125 C134.749022,55.7548803 134.434084,55.3654799 134.028809,55.0895996 C133.623533,54.8137193 133.159671,54.6757812 132.637207,54.6757812 C131.855953,54.6757812 131.218752,54.9821747 130.725586,55.5949707 C130.232419,56.2077667 129.98584,57.0097607 129.98584,58.0009766 L129.98584,58.1621094 Z M140.862793,55.4155273 C141.15088,54.9418922 141.519529,54.5756849 141.96875,54.3168945 C142.417971,54.0581042 142.908689,53.9287109 143.440918,53.9287109 C144.290532,53.9287109 144.922849,54.1679664 145.337891,54.6464844 C145.752932,55.1250024 145.962891,55.8427687 145.967773,56.7998047 L145.967773,62 L145.096191,62 L145.096191,56.7924805 C145.091309,56.0844691 144.941164,55.5571306 144.645752,55.2104492 C144.35034,54.8637678 143.877933,54.6904297 143.228516,54.6904297 C142.686521,54.6904297 142.206789,54.8601057 141.789307,55.1994629 C141.371824,55.5388201 141.062989,55.9965792 140.862793,56.5727539 L140.862793,62 L139.991211,62 L139.991211,50.75 L140.862793,50.75 L140.862793,55.4155273 Z M151.058594,54.0751953 L151.087891,55.4301758 C151.385744,54.9418921 151.756834,54.5695814 152.201172,54.3132324 C152.64551,54.0568835 153.136228,53.9287109 153.67334,53.9287109 C154.522953,53.9287109 155.155271,54.1679664 155.570312,54.6464844 C155.985354,55.1250024 156.195312,55.8427687 156.200195,56.7998047 L156.200195,62 L155.328613,62 L155.328613,56.7924805 C155.32373,56.0844691 155.173585,55.5571306 154.878174,55.2104492 C154.582762,54.8637678 154.110355,54.6904297 153.460938,54.6904297 C152.918943,54.6904297 152.439211,54.8601057 152.021729,55.1994629 C151.604246,55.5388201 151.295411,55.9965792 151.095215,56.5727539 L151.095215,62 L150.223633,62 L150.223633,54.0751953 L151.058594,54.0751953 Z M162.975586,60.7402344 L165.290039,54.0751953 L166.234863,54.0751953 L162.851074,63.3476562 L162.675293,63.7578125 C162.24072,64.7197314 161.56934,65.2006836 160.661133,65.2006836 C160.451171,65.2006836 160.226564,65.1665042 159.987305,65.0981445 L159.97998,64.3730469 L160.434082,64.4169922 C160.863772,64.4169922 161.211669,64.3107921 161.477783,64.0983887 C161.743898,63.8859853 161.969726,63.5209987 162.155273,63.003418 L162.543457,61.934082 L159.555176,54.0751953 L160.514648,54.0751953 L162.975586,60.7402344 Z M168.623047,63.9921875 L168.103027,63.6113281 C168.547366,63.015622 168.776855,62.3979524 168.791504,61.7583008 L168.791504,60.6230469 L169.648438,60.6230469 L169.648438,61.5385742 C169.648438,62.5542043 169.306644,63.3720672 168.623047,63.9921875 Z M181.22168,60.1762695 L181.353516,60.8574219 L181.529297,60.1396484 L183.433594,54.0751953 L184.180664,54.0751953 L186.062988,60.0883789 L186.268066,60.9233398 L186.436523,60.1542969 L188.0625,54.0751953 L188.970703,54.0751953 L186.663574,62 L185.916504,62 L183.880371,55.7158203 L183.785156,55.2836914 L183.689941,55.7231445 L181.69043,62 L180.943359,62 L178.643555,54.0751953 L179.544434,54.0751953 L181.22168,60.1762695 Z M193.504883,55.4155273 C193.79297,54.9418922 194.161619,54.5756849 194.61084,54.3168945 C195.060061,54.0581042 195.550779,53.9287109 196.083008,53.9287109 C196.932621,53.9287109 197.564939,54.1679664 197.97998,54.6464844 C198.395022,55.1250024 198.60498,55.8427687 198.609863,56.7998047 L198.609863,62 L197.738281,62 L197.738281,56.7924805 C197.733398,56.0844691 197.583253,55.5571306 197.287842,55.2104492 C196.99243,54.8637678 196.520023,54.6904297 195.870605,54.6904297 C195.328611,54.6904297 194.848879,54.8601057 194.431396,55.1994629 C194.013914,55.5388201 193.705079,55.9965792 193.504883,56.5727539 L193.504883,62 L192.633301,62 L192.633301,50.75 L193.504883,50.75 L193.504883,55.4155273 Z M202.382324,57.9204102 C202.382324,57.1586876 202.530028,56.4726593 202.825439,55.8623047 C203.120851,55.2519501 203.538327,54.7771013 204.077881,54.4377441 C204.617434,54.098387 205.229,53.9287109 205.912598,53.9287109 C206.96729,53.9287109 207.821774,54.2985803 208.476074,55.0383301 C209.130374,55.7780799 209.45752,56.7582947 209.45752,57.9790039 L209.45752,58.1621094 C209.45752,58.9287148 209.309816,59.6184051 209.014404,60.2312012 C208.718993,60.8439972 208.302737,61.3164046 207.765625,61.6484375 C207.228513,61.9804704 206.615726,62.1464844 205.927246,62.1464844 C204.877436,62.1464844 204.024173,61.776615 203.367432,61.0368652 C202.71069,60.2971154 202.382324,59.3169006 202.382324,58.0961914 L202.382324,57.9204102 Z M203.26123,58.1621094 C203.26123,59.1093797 203.506589,59.8869599 203.997314,60.494873 C204.48804,61.1027862 205.131344,61.4067383 205.927246,61.4067383 C206.718266,61.4067383 207.359128,61.1027862 207.849854,60.494873 C208.340579,59.8869599 208.585938,59.0849659 208.585938,58.0888672 L208.585938,57.9204102 C208.585938,57.3149384 208.473634,56.7607447 208.249023,56.2578125 C208.024413,55.7548803 207.709475,55.3654799 207.304199,55.0895996 C206.898924,54.8137193 206.435061,54.6757812 205.912598,54.6757812 C205.131344,54.6757812 204.494143,54.9821747 204.000977,55.5949707 C203.50781,56.2077667 203.26123,57.0097607 203.26123,58.0009766 L203.26123,58.1621094 Z M220.811035,60.1762695 L220.942871,60.8574219 L221.118652,60.1396484 L223.022949,54.0751953 L223.77002,54.0751953 L225.652344,60.0883789 L225.857422,60.9233398 L226.025879,60.1542969 L227.651855,54.0751953 L228.560059,54.0751953 L226.25293,62 L225.505859,62 L223.469727,55.7158203 L223.374512,55.2836914 L223.279297,55.7231445 L221.279785,62 L220.532715,62 L218.23291,54.0751953 L219.133789,54.0751953 L220.811035,60.1762695 Z M237.225098,62 C237.137207,61.7509753 237.081055,61.3823267 237.056641,60.894043 C236.749022,61.2944356 236.35718,61.6032704 235.881104,61.8205566 C235.405027,62.0378429 234.900882,62.1464844 234.368652,62.1464844 C233.60693,62.1464844 232.990481,61.9340842 232.519287,61.5092773 C232.048093,61.0844705 231.8125,60.5473665 231.8125,59.8979492 C231.8125,59.126461 232.133542,58.5161155 232.775635,58.0668945 C233.417728,57.6176735 234.312494,57.3930664 235.459961,57.3930664 L237.049316,57.3930664 L237.049316,56.4921875 C237.049316,55.9257784 236.874758,55.4802262 236.525635,55.1555176 C236.176512,54.8308089 235.667484,54.668457 234.998535,54.668457 C234.388181,54.668457 233.882815,54.8247055 233.482422,55.137207 C233.082029,55.4497086 232.881836,55.8256814 232.881836,56.2651367 L232.00293,56.2578125 C232.00293,55.6279265 232.295896,55.0822777 232.881836,54.6208496 C233.467776,54.1594215 234.187984,53.9287109 235.04248,53.9287109 C235.926274,53.9287109 236.623288,54.149656 237.133545,54.5915527 C237.643801,55.0334495 237.90625,55.6498984 237.920898,56.440918 L237.920898,60.190918 C237.920898,60.9575234 238.001464,61.5312481 238.162598,61.9121094 L238.162598,62 L237.225098,62 Z M234.471191,61.3701172 C235.057132,61.3701172 235.580808,61.228517 236.042236,60.9453125 C236.503664,60.662108 236.839354,60.2836938 237.049316,59.8100586 L237.049316,58.0668945 L235.481934,58.0668945 C234.607906,58.0766602 233.924319,58.2365707 233.431152,58.5466309 C232.937986,58.856691 232.691406,59.2827121 232.691406,59.824707 C232.691406,60.2690452 232.8562,60.6376938 233.185791,60.9306641 C233.515383,61.2236343 233.943845,61.3701172 234.471191,61.3701172 Z M247.003418,59.9858398 C247.003418,59.5512674 246.828859,59.2021498 246.479736,58.9384766 C246.130613,58.6748034 245.604496,58.4685066 244.901367,58.3195801 C244.198239,58.1706536 243.65259,57.9997568 243.264404,57.8068848 C242.876219,57.6140127 242.588136,57.3784194 242.400146,57.1000977 C242.212157,56.821776 242.118164,56.4848653 242.118164,56.0893555 C242.118164,55.4643523 242.379392,54.9480001 242.901855,54.5402832 C243.424319,54.1325663 244.093258,53.9287109 244.908691,53.9287109 C245.792485,53.9287109 246.501706,54.1472146 247.036377,54.5842285 C247.571048,55.0212424 247.838379,55.5913051 247.838379,56.2944336 L246.959473,56.2944336 C246.959473,55.8305641 246.765383,55.4448258 246.377197,55.137207 C245.989012,54.8295883 245.499515,54.6757812 244.908691,54.6757812 C244.332517,54.6757812 243.869875,54.8039538 243.520752,55.0603027 C243.171629,55.3166517 242.99707,55.6499003 242.99707,56.0600586 C242.99707,56.4555684 243.142333,56.7619618 243.432861,56.979248 C243.72339,57.1965343 244.25317,57.3955069 245.022217,57.5761719 C245.791264,57.7568368 246.36743,57.949706 246.750732,58.1547852 C247.134035,58.3598643 247.418456,58.6064439 247.604004,58.8945312 C247.789552,59.1826186 247.882324,59.5317362 247.882324,59.9418945 C247.882324,60.6108432 247.612552,61.1455058 247.072998,61.5458984 C246.533445,61.9462911 245.829106,62.1464844 244.959961,62.1464844 C244.037105,62.1464844 243.288821,61.9230979 242.715088,61.4763184 C242.141355,61.0295388 241.854492,60.4643589 241.854492,59.7807617 L242.733398,59.7807617 C242.767578,60.2934596 242.983641,60.6926255 243.381592,60.9782715 C243.779543,61.2639174 244.305661,61.4067383 244.959961,61.4067383 C245.570316,61.4067383 246.063475,61.2724623 246.439453,61.0039062 C246.815432,60.7353502 247.003418,60.3959981 247.003418,59.9858398 Z M3.8046875,72.8222656 C3.6191397,72.7880858 3.42138777,72.7709961 3.21142578,72.7709961 C2.66454805,72.7709961 2.20190619,72.9235825 1.82348633,73.2287598 C1.44506647,73.5339371 1.17529377,73.9770479 1.01416016,74.5581055 L1.01416016,80 L0.142578125,80 L0.142578125,72.0751953 L0.999511719,72.0751953 L1.01416016,73.3349609 C1.47802966,72.3974563 2.22265112,71.9287109 3.24804688,71.9287109 C3.49218872,71.9287109 3.68505789,71.9604489 3.82666016,72.0239258 L3.8046875,72.8222656 Z M8.17041016,80 L7.29150391,80 L7.29150391,72.0751953 L8.17041016,72.0751953 L8.17041016,80 Z M7.13769531,69.7827148 C7.13769531,69.6166984 7.19140571,69.4763189 7.29882812,69.3615723 C7.40625054,69.2468256 7.55273345,69.1894531 7.73828125,69.1894531 C7.92382905,69.1894531 8.07153265,69.2468256 8.18139648,69.3615723 C8.29126031,69.4763189 8.34619141,69.6166984 8.34619141,69.7827148 C8.34619141,69.9487313 8.29126031,70.0878901 8.18139648,70.2001953 C8.07153265,70.3125006 7.92382905,70.3686523 7.73828125,70.3686523 C7.55273345,70.3686523 7.40625054,70.3125006 7.29882812,70.2001953 C7.19140571,70.0878901 7.13769531,69.9487313 7.13769531,69.7827148 Z M12.1992188,75.9643555 C12.1992188,74.7338806 12.4738742,73.7536658 13.0231934,73.0236816 C13.5725125,72.2936975 14.3183547,71.9287109 15.2607422,71.9287109 C16.3300835,71.9287109 17.145505,72.35107 17.7070312,73.1958008 L17.7070312,68.75 L18.5786133,68.75 L18.5786133,80 L17.7583008,80 L17.7216797,78.9453125 C17.1601534,79.7460978 16.3349664,80.1464844 15.2460938,80.1464844 C14.3330032,80.1464844 13.5969266,79.7790564 13.0378418,79.0441895 C12.478757,78.3093225 12.1992188,77.3169008 12.1992188,76.0668945 L12.1992188,75.9643555 Z M13.0854492,76.1181641 C13.0854492,77.1289113 13.2880839,77.9260225 13.6933594,78.5095215 C14.0986348,79.0930205 14.6699182,79.3847656 15.4072266,79.3847656 C16.4863335,79.3847656 17.2529274,78.9086962 17.7070312,77.956543 L17.7070312,74.2358398 C17.2529274,73.2055613 16.4912163,72.6904297 15.421875,72.6904297 C14.6845666,72.6904297 14.1108419,72.9797334 13.7006836,73.5583496 C13.2905253,74.1369658 13.0854492,74.9902287 13.0854492,76.1181641 Z M23.8671875,80 L22.9882812,80 L22.9882812,72.0751953 L23.8671875,72.0751953 L23.8671875,80 Z M22.8344727,69.7827148 C22.8344727,69.6166984 22.8881831,69.4763189 22.9956055,69.3615723 C23.1030279,69.2468256 23.2495108,69.1894531 23.4350586,69.1894531 C23.6206064,69.1894531 23.76831,69.2468256 23.8781738,69.3615723 C23.9880377,69.4763189 24.0429688,69.6166984 24.0429688,69.7827148 C24.0429688,69.9487313 23.9880377,70.0878901 23.8781738,70.2001953 C23.76831,70.3125006 23.6206064,70.3686523 23.4350586,70.3686523 C23.2495108,70.3686523 23.1030279,70.3125006 22.9956055,70.2001953 C22.8881831,70.0878901 22.8344727,69.9487313 22.8344727,69.7827148 Z M29.0825195,72.0751953 L29.1118164,73.4301758 C29.4096695,72.9418921 29.7807595,72.5695814 30.2250977,72.3132324 C30.6694358,72.0568835 31.1601536,71.9287109 31.6972656,71.9287109 C32.5468792,71.9287109 33.1791971,72.1679664 33.5942383,72.6464844 C34.0092794,73.1250024 34.2192383,73.8427687 34.2241211,74.7998047 L34.2241211,80 L33.3525391,80 L33.3525391,74.7924805 C33.3476562,74.0844691 33.1975112,73.5571306 32.9020996,73.2104492 C32.606688,72.8637678 32.1342806,72.6904297 31.4848633,72.6904297 C30.9428684,72.6904297 30.4631369,72.8601057 30.0456543,73.1994629 C29.6281717,73.5388201 29.3193369,73.9965792 29.1191406,74.5727539 L29.1191406,80 L28.2475586,80 L28.2475586,72.0751953 L29.0825195,72.0751953 Z M38.1357422,75.9643555 C38.1357422,74.7241149 38.4103976,73.7414587 38.9597168,73.0163574 C39.5090359,72.2912561 40.2548781,71.9287109 41.1972656,71.9287109 C42.2763726,71.9287109 43.0966769,72.3583941 43.6582031,73.2177734 L43.7021484,72.0751953 L44.5224609,72.0751953 L44.5224609,79.8388672 C44.5224609,80.8593801 44.2368193,81.6674775 43.6655273,82.2631836 C43.0942354,82.8588897 42.3203174,83.1567383 41.34375,83.1567383 C40.7919894,83.1567383 40.2658716,83.0334485 39.7653809,82.7868652 C39.2648901,82.540282 38.8706069,82.2119161 38.5825195,81.8017578 L39.0732422,81.2744141 C39.6933625,82.0361366 40.4306598,82.4169922 41.2851562,82.4169922 C42.0175818,82.4169922 42.5888651,82.2009299 42.9990234,81.7687988 C43.4091817,81.3366678 43.621582,80.7373085 43.6362305,79.9707031 L43.6362305,78.9746094 C43.0747042,79.7558633 42.2568413,80.1464844 41.1826172,80.1464844 C40.2646438,80.1464844 39.5273465,79.7802771 38.9707031,79.0478516 C38.4140597,78.315426 38.1357422,77.3266664 38.1357422,76.081543 L38.1357422,75.9643555 Z M39.0219727,76.1181641 C39.0219727,77.1289113 39.2246073,77.9260225 39.6298828,78.5095215 C40.0351583,79.0930205 40.6064416,79.3847656 41.34375,79.3847656 C42.422857,79.3847656 43.1870095,78.901372 43.6362305,77.9345703 L43.6362305,74.2504883 C43.4311513,73.7426732 43.1357441,73.3557142 42.75,73.0895996 C42.3642559,72.823485 41.9003933,72.6904297 41.3583984,72.6904297 C40.6210901,72.6904297 40.0473653,72.9797334 39.637207,73.5583496 C39.2270487,74.1369658 39.0219727,74.9902287 39.0219727,76.1181641 Z M55.3266602,73.4155273 C55.6147475,72.9418922 55.9833962,72.5756849 56.4326172,72.3168945 C56.8818382,72.0581042 57.3725559,71.9287109 57.9047852,71.9287109 C58.7543988,71.9287109 59.3867167,72.1679664 59.8017578,72.6464844 C60.216799,73.1250024 60.4267578,73.8427687 60.4316406,74.7998047 L60.4316406,80 L59.5600586,80 L59.5600586,74.7924805 C59.5551758,74.0844691 59.4050308,73.5571306 59.1096191,73.2104492 C58.8142075,72.8637678 58.3418001,72.6904297 57.6923828,72.6904297 C57.1503879,72.6904297 56.6706564,72.8601057 56.2531738,73.1994629 C55.8356913,73.5388201 55.5268565,73.9965792 55.3266602,74.5727539 L55.3266602,80 L54.4550781,80 L54.4550781,68.75 L55.3266602,68.75 L55.3266602,73.4155273 Z M65.6689453,80 L64.7900391,80 L64.7900391,72.0751953 L65.6689453,72.0751953 L65.6689453,80 Z M64.6362305,69.7827148 C64.6362305,69.6166984 64.6899409,69.4763189 64.7973633,69.3615723 C64.9047857,69.2468256 65.0512686,69.1894531 65.2368164,69.1894531 C65.4223642,69.1894531 65.5700678,69.2468256 65.6799316,69.3615723 C65.7897955,69.4763189 65.8447266,69.6166984 65.8447266,69.7827148 C65.8447266,69.9487313 65.7897955,70.0878901 65.6799316,70.2001953 C65.5700678,70.3125006 65.4223642,70.3686523 65.2368164,70.3686523 C65.0512686,70.3686523 64.9047857,70.3125006 64.7973633,70.2001953 C64.6899409,70.0878901 64.6362305,69.9487313 64.6362305,69.7827148 Z M74.7954102,77.9858398 C74.7954102,77.5512674 74.6208514,77.2021498 74.2717285,76.9384766 C73.9226057,76.6748034 73.3964879,76.4685066 72.6933594,76.3195801 C71.9902309,76.1706536 71.444582,75.9997568 71.0563965,75.8068848 C70.6682109,75.6140127 70.3801279,75.3784194 70.1921387,75.1000977 C70.0041495,74.821776 69.9101562,74.4848653 69.9101562,74.0893555 C69.9101562,73.4643523 70.1713841,72.9480001 70.6938477,72.5402832 C71.2163112,72.1325663 71.8852498,71.9287109 72.7006836,71.9287109 C73.5844771,71.9287109 74.2936985,72.1472146 74.8283691,72.5842285 C75.3630398,73.0212424 75.6303711,73.5913051 75.6303711,74.2944336 L74.7514648,74.2944336 C74.7514648,73.8305641 74.557375,73.4448258 74.1691895,73.137207 C73.7810039,72.8295883 73.2915069,72.6757812 72.7006836,72.6757812 C72.1245088,72.6757812 71.661867,72.8039538 71.3127441,73.0603027 C70.9636213,73.3166517 70.7890625,73.6499003 70.7890625,74.0600586 C70.7890625,74.4555684 70.9343247,74.7619618 71.2248535,74.979248 C71.5153823,75.1965343 72.0451622,75.3955069 72.814209,75.5761719 C73.5832558,75.7568368 74.1594219,75.949706 74.5427246,76.1547852 C74.9260273,76.3598643 75.2104483,76.6064439 75.3959961,76.8945312 C75.5815439,77.1826186 75.6743164,77.5317362 75.6743164,77.9418945 C75.6743164,78.6108432 75.4045437,79.1455058 74.8649902,79.5458984 C74.3254368,79.9462911 73.6210981,80.1464844 72.7519531,80.1464844 C71.8290969,80.1464844 71.0808134,79.9230979 70.5070801,79.4763184 C69.9333467,79.0295388 69.6464844,78.4643589 69.6464844,77.7807617 L70.5253906,77.7807617 C70.5595705,78.2934596 70.7756328,78.6926255 71.173584,78.9782715 C71.5715352,79.2639174 72.097653,79.4067383 72.7519531,79.4067383 C73.3623077,79.4067383 73.8554669,79.2724623 74.2314453,79.0039062 C74.6074238,78.7353502 74.7954102,78.3959981 74.7954102,77.9858398 Z M91.6713867,76.1181641 C91.6713867,77.3535218 91.397952,78.3337366 90.8510742,79.0588379 C90.3041965,79.7839392 89.5693406,80.1464844 88.6464844,80.1464844 C87.5429632,80.1464844 86.7080106,79.7363322 86.1416016,78.9160156 L86.1049805,80 L85.284668,80 L85.284668,68.75 L86.15625,68.75 L86.15625,73.2250977 C86.7128934,72.3608355 87.5380805,71.9287109 88.6318359,71.9287109 C89.5693406,71.9287109 90.3103,72.2863734 90.8547363,73.001709 C91.3991726,73.7170446 91.6713867,74.7119077 91.6713867,75.9863281 L91.6713867,76.1181641 Z M90.7924805,75.9643555 C90.7924805,74.9194284 90.5898458,74.1125517 90.1845703,73.5437012 C89.7792948,72.9748507 89.2080115,72.6904297 88.4707031,72.6904297 C87.9091769,72.6904297 87.4331074,72.8283678 87.0424805,73.104248 C86.6518535,73.3801283 86.3564463,73.784177 86.15625,74.3164062 L86.15625,77.890625 C86.5957053,78.8867237 87.3720647,79.3847656 88.4853516,79.3847656 C89.2080114,79.3847656 89.7731913,79.099124 90.1809082,78.527832 C90.5886251,77.9565401 90.7924805,77.1020565 90.7924805,75.9643555 Z M96.5864258,80 L95.7075195,80 L95.7075195,72.0751953 L96.5864258,72.0751953 L96.5864258,80 Z M95.5537109,69.7827148 C95.5537109,69.6166984 95.6074213,69.4763189 95.7148438,69.3615723 C95.8222662,69.2468256 95.9687491,69.1894531 96.1542969,69.1894531 C96.3398447,69.1894531 96.4875483,69.2468256 96.5974121,69.3615723 C96.7072759,69.4763189 96.762207,69.6166984 96.762207,69.7827148 C96.762207,69.9487313 96.7072759,70.0878901 96.5974121,70.2001953 C96.4875483,70.3125006 96.3398447,70.3686523 96.1542969,70.3686523 C95.9687491,70.3686523 95.8222662,70.3125006 95.7148438,70.2001953 C95.6074213,70.0878901 95.5537109,69.9487313 95.5537109,69.7827148 Z M103.896484,79.4067383 C104.506839,79.4067383 105.018308,79.2346209 105.430908,78.8903809 C105.843508,78.5461409 106.066894,78.1005887 106.101074,77.5537109 L106.943359,77.5537109 C106.918945,78.0371118 106.76758,78.4777812 106.489258,78.8757324 C106.210936,79.2736836 105.841067,79.5849598 105.379639,79.8095703 C104.918211,80.0341808 104.423831,80.1464844 103.896484,80.1464844 C102.85644,80.1464844 102.032474,79.7851599 101.424561,79.0625 C100.816647,78.3398401 100.512695,77.3681702 100.512695,76.1474609 L100.512695,75.8837891 C100.512695,75.1025352 100.649413,74.4116241 100.922852,73.8110352 C101.19629,73.2104462 101.588132,72.7465837 102.098389,72.4194336 C102.608645,72.0922835 103.205563,71.9287109 103.88916,71.9287109 C104.758305,71.9287109 105.474851,72.1874974 106.038818,72.7050781 C106.602786,73.2226588 106.904297,73.9038044 106.943359,74.7485352 L106.101074,74.7485352 C106.062012,74.1284149 105.838625,73.6279316 105.430908,73.2470703 C105.023191,72.866209 104.50928,72.6757812 103.88916,72.6757812 C103.098141,72.6757812 102.484133,72.9614229 102.047119,73.5327148 C101.610105,74.1040068 101.391602,74.90478 101.391602,75.9350586 L101.391602,76.1914062 C101.391602,77.2021535 101.610105,77.9907198 102.047119,78.5571289 C102.484133,79.123538 103.100582,79.4067383 103.896484,79.4067383 Z M113.206055,78.7402344 L115.520508,72.0751953 L116.465332,72.0751953 L113.081543,81.3476562 L112.905762,81.7578125 C112.471189,82.7197314 111.799809,83.2006836 110.891602,83.2006836 C110.68164,83.2006836 110.457032,83.1665042 110.217773,83.0981445 L110.210449,82.3730469 L110.664551,82.4169922 C111.09424,82.4169922 111.442137,82.3107921 111.708252,82.0983887 C111.974367,81.8859853 112.200194,81.5209987 112.385742,81.003418 L112.773926,79.934082 L109.785645,72.0751953 L110.745117,72.0751953 L113.206055,78.7402344 Z M122.654785,79.4067383 C123.26514,79.4067383 123.776609,79.2346209 124.189209,78.8903809 C124.601809,78.5461409 124.825195,78.1005887 124.859375,77.5537109 L125.70166,77.5537109 C125.677246,78.0371118 125.52588,78.4777812 125.247559,78.8757324 C124.969237,79.2736836 124.599368,79.5849598 124.137939,79.8095703 C123.676511,80.0341808 123.182132,80.1464844 122.654785,80.1464844 C121.614741,80.1464844 120.790775,79.7851599 120.182861,79.0625 C119.574948,78.3398401 119.270996,77.3681702 119.270996,76.1474609 L119.270996,75.8837891 C119.270996,75.1025352 119.407713,74.4116241 119.681152,73.8110352 C119.954591,73.2104462 120.346433,72.7465837 120.856689,72.4194336 C121.366946,72.0922835 121.963864,71.9287109 122.647461,71.9287109 C123.516606,71.9287109 124.233151,72.1874974 124.797119,72.7050781 C125.361087,73.2226588 125.662597,73.9038044 125.70166,74.7485352 L124.859375,74.7485352 C124.820312,74.1284149 124.596926,73.6279316 124.189209,73.2470703 C123.781492,72.866209 123.267581,72.6757812 122.647461,72.6757812 C121.856441,72.6757812 121.242434,72.9614229 120.80542,73.5327148 C120.368406,74.1040068 120.149902,74.90478 120.149902,75.9350586 L120.149902,76.1914062 C120.149902,77.2021535 120.368406,77.9907198 120.80542,78.5571289 C121.242434,79.123538 121.858883,79.4067383 122.654785,79.4067383 Z M130.433594,80 L129.554688,80 L129.554688,68.75 L130.433594,68.75 L130.433594,80 Z M137.882812,80.1464844 C137.208981,80.1464844 136.599856,79.9804704 136.05542,79.6484375 C135.510984,79.3164046 135.087404,78.8537627 134.784668,78.260498 C134.481932,77.6672334 134.330566,77.0019568 134.330566,76.2646484 L134.330566,75.949707 C134.330566,75.1879845 134.47827,74.5019562 134.773682,73.8916016 C135.069093,73.2812469 135.480466,72.8015154 136.007812,72.4523926 C136.535159,72.1032697 137.106442,71.9287109 137.72168,71.9287109 C138.683599,71.9287109 139.44653,72.2570768 140.010498,72.9138184 C140.574466,73.5705599 140.856445,74.4677677 140.856445,75.6054688 L140.856445,76.0961914 L135.202148,76.0961914 L135.202148,76.2646484 C135.202148,77.1630904 135.459714,77.911374 135.974854,78.5095215 C136.489993,79.107669 137.13818,79.4067383 137.919434,79.4067383 C138.388186,79.4067383 138.802,79.3212899 139.160889,79.1503906 C139.519777,78.9794913 139.845702,78.7060566 140.138672,78.3300781 L140.687988,78.7475586 C140.043454,79.6801804 139.108405,80.1464844 137.882812,80.1464844 Z M137.72168,72.6757812 C137.062497,72.6757812 136.507082,72.9174781 136.05542,73.4008789 C135.603758,73.8842798 135.329102,74.5336873 135.231445,75.3491211 L139.984863,75.3491211 L139.984863,75.2539062 C139.960449,74.4921837 139.743166,73.8720727 139.333008,73.3935547 C138.92285,72.9150367 138.385746,72.6757812 137.72168,72.6757812 Z M151.572754,70.0463867 L151.572754,72.0751953 L153.213379,72.0751953 L153.213379,72.7929688 L151.572754,72.7929688 L151.572754,78.0737305 C151.572754,78.5131858 151.652099,78.840331 151.810791,79.0551758 C151.969483,79.2700206 152.234373,79.3774414 152.605469,79.3774414 C152.751954,79.3774414 152.988768,79.3530276 153.315918,79.3041992 L153.352539,80.0219727 C153.123046,80.1049809 152.810549,80.1464844 152.415039,80.1464844 C151.81445,80.1464844 151.377443,79.9719256 151.104004,79.6228027 C150.830565,79.2736799 150.693848,78.759769 150.693848,78.0810547 L150.693848,72.7929688 L149.236328,72.7929688 L149.236328,72.0751953 L150.693848,72.0751953 L150.693848,70.0463867 L151.572754,70.0463867 Z M156.399902,75.9204102 C156.399902,75.1586876 156.547606,74.4726593 156.843018,73.8623047 C157.138429,73.2519501 157.555906,72.7771013 158.095459,72.4377441 C158.635012,72.098387 159.246579,71.9287109 159.930176,71.9287109 C160.984869,71.9287109 161.839352,72.2985803 162.493652,73.0383301 C163.147952,73.7780799 163.475098,74.7582947 163.475098,75.9790039 L163.475098,76.1621094 C163.475098,76.9287148 163.327394,77.6184051 163.031982,78.2312012 C162.736571,78.8439972 162.320315,79.3164046 161.783203,79.6484375 C161.246091,79.9804704 160.633304,80.1464844 159.944824,80.1464844 C158.895014,80.1464844 158.041751,79.776615 157.38501,79.0368652 C156.728268,78.2971154 156.399902,77.3169006 156.399902,76.0961914 L156.399902,75.9204102 Z M157.278809,76.1621094 C157.278809,77.1093797 157.524167,77.8869599 158.014893,78.494873 C158.505618,79.1027862 159.148922,79.4067383 159.944824,79.4067383 C160.735844,79.4067383 161.376707,79.1027862 161.867432,78.494873 C162.358157,77.8869599 162.603516,77.0849659 162.603516,76.0888672 L162.603516,75.9204102 C162.603516,75.3149384 162.491212,74.7607447 162.266602,74.2578125 C162.041991,73.7548803 161.727053,73.3654799 161.321777,73.0895996 C160.916502,72.8137193 160.452639,72.6757812 159.930176,72.6757812 C159.148922,72.6757812 158.511721,72.9821747 158.018555,73.5949707 C157.525388,74.2077667 157.278809,75.0097607 157.278809,76.0009766 L157.278809,76.1621094 Z M174.037598,75.6567383 L174.037598,80 L173.136719,80 L173.136719,69.3359375 L176.769531,69.3359375 C177.877935,69.3359375 178.753171,69.6191378 179.395264,70.1855469 C180.037357,70.751956 180.358398,71.5307568 180.358398,72.5219727 C180.358398,73.5229542 180.049564,74.2956516 179.431885,74.8400879 C178.814206,75.3845242 177.919439,75.6567383 176.747559,75.6567383 L174.037598,75.6567383 Z M174.037598,74.8950195 L176.769531,74.8950195 C177.643559,74.8950195 178.310056,74.6875021 178.769043,74.2724609 C179.22803,73.8574198 179.45752,73.2788123 179.45752,72.5366211 C179.45752,71.7993127 179.22925,71.2121604 178.772705,70.7751465 C178.31616,70.3381326 177.667973,70.1147461 176.828125,70.1049805 L174.037598,70.1049805 L174.037598,74.8950195 Z M187.141113,80.1464844 C186.467282,80.1464844 185.858157,79.9804704 185.313721,79.6484375 C184.769284,79.3164046 184.345705,78.8537627 184.042969,78.260498 C183.740233,77.6672334 183.588867,77.0019568 183.588867,76.2646484 L183.588867,75.949707 C183.588867,75.1879845 183.736571,74.5019562 184.031982,73.8916016 C184.327394,73.2812469 184.738767,72.8015154 185.266113,72.4523926 C185.79346,72.1032697 186.364743,71.9287109 186.97998,71.9287109 C187.941899,71.9287109 188.704831,72.2570768 189.268799,72.9138184 C189.832766,73.5705599 190.114746,74.4677677 190.114746,75.6054688 L190.114746,76.0961914 L184.460449,76.0961914 L184.460449,76.2646484 C184.460449,77.1630904 184.718015,77.911374 185.233154,78.5095215 C185.748294,79.107669 186.39648,79.4067383 187.177734,79.4067383 C187.646487,79.4067383 188.060301,79.3212899 188.419189,79.1503906 C188.778078,78.9794913 189.104002,78.7060566 189.396973,78.3300781 L189.946289,78.7475586 C189.301755,79.6801804 188.366705,80.1464844 187.141113,80.1464844 Z M186.97998,72.6757812 C186.320797,72.6757812 185.765383,72.9174781 185.313721,73.4008789 C184.862058,73.8842798 184.587403,74.5336873 184.489746,75.3491211 L189.243164,75.3491211 L189.243164,75.2539062 C189.21875,74.4921837 189.001467,73.8720727 188.591309,73.3935547 C188.18115,72.9150367 187.644046,72.6757812 186.97998,72.6757812 Z M197.483398,72.8222656 C197.297851,72.7880858 197.100099,72.7709961 196.890137,72.7709961 C196.343259,72.7709961 195.880617,72.9235825 195.502197,73.2287598 C195.123777,73.5339371 194.854005,73.9770479 194.692871,74.5581055 L194.692871,80 L193.821289,80 L193.821289,72.0751953 L194.678223,72.0751953 L194.692871,73.3349609 C195.156741,72.3974563 195.901362,71.9287109 196.926758,71.9287109 C197.1709,71.9287109 197.363769,71.9604489 197.505371,72.0239258 L197.483398,72.8222656 Z M205.965332,78.996582 C205.437986,79.7631874 204.595709,80.1464844 203.438477,80.1464844 C202.593746,80.1464844 201.951662,79.9011255 201.512207,79.4104004 C201.072752,78.9196753 200.848145,78.1933642 200.838379,77.2314453 L200.838379,72.0751953 L201.709961,72.0751953 L201.709961,77.121582 C201.709961,78.6303786 202.320306,79.3847656 203.541016,79.3847656 C204.810553,79.3847656 205.613768,78.8598685 205.950684,77.8100586 L205.950684,72.0751953 L206.82959,72.0751953 L206.82959,80 L205.97998,80 L205.965332,78.996582 Z M211.026855,79.4726562 C211.026855,79.301757 211.081787,79.1564947 211.19165,79.0368652 C211.301514,78.9172357 211.454101,78.8574219 211.649414,78.8574219 C211.844728,78.8574219 211.998535,78.9172357 212.11084,79.0368652 C212.223145,79.1564947 212.279297,79.301757 212.279297,79.4726562 C212.279297,79.6435555 212.223145,79.783935 212.11084,79.8937988 C211.998535,80.0036627 211.844728,80.0585938 211.649414,80.0585938 C211.454101,80.0585938 211.301514,80.0036627 211.19165,79.8937988 C211.081787,79.783935 211.026855,79.6435555 211.026855,79.4726562 Z" id="In-Camp-4-of-Yosemit"></path>
            </g>
        </g>
    </g>
</svg>