<?xml version="1.0" encoding="UTF-8"?>
<svg width="265px" height="84px" viewBox="0 0 265 84" version="1.1" xmlns="http://www.w3.org/2000/svg" xmlns:xlink="http://www.w3.org/1999/xlink">
    <!-- Generator: Sketch 41.2 (35397) - http://www.bohemiancoding.com/sketch -->
    <title>Group 2</title>
    <desc>Created with Sketch.</desc>
    <defs></defs>
    <g id="Page-1" stroke="none" stroke-width="1" fill="none" fill-rule="evenodd">
        <g id="Desktop-HD-Copy" transform="translate(-45.000000, -228.000000)" fill="#000000">
            <g id="Group-2" transform="translate(45.000000, 228.000000)">
                <path d="M3.48632812,0.3359375 L6.5625,8.50976562 L9.63134766,0.3359375 L12.0263672,0.3359375 L12.0263672,11 L10.1806641,11 L10.1806641,7.484375 L10.3637695,2.78222656 L7.21435547,11 L5.88867188,11 L2.74658203,2.78955078 L2.9296875,7.484375 L2.9296875,11 L1.08398438,11 L1.08398438,0.3359375 L3.48632812,0.3359375 Z M18.171875,11 L16.3261719,11 L16.3261719,0.3359375 L18.171875,0.3359375 L18.171875,11 Z M28.0234375,8.25341797 C28.0234375,7.78466563 27.8586442,7.42334111 27.5290527,7.16943359 C27.1994612,6.91552607 26.6049848,6.65918098 25.7456055,6.40039063 C24.8862262,6.14160027 24.2026393,5.85351721 23.6948242,5.53613281 C22.7231397,4.9257782 22.2373047,4.12988772 22.2373047,3.1484375 C22.2373047,2.2890582 22.587643,1.58105747 23.2883301,1.02441406 C23.9890172,0.467770654 24.8984319,0.189453125 26.0166016,0.189453125 C26.7587928,0.189453125 27.4204073,0.326170508 28.0014648,0.599609375 C28.5825224,0.873048242 29.0390608,1.26244865 29.3710938,1.76782227 C29.7031267,2.27319589 29.8691406,2.83349302 29.8691406,3.44873047 L28.0234375,3.44873047 C28.0234375,2.89208706 27.8488787,2.4563004 27.4997559,2.14135742 C27.150633,1.82641444 26.6513704,1.66894531 26.0019531,1.66894531 C25.3964813,1.66894531 24.9265153,1.79833855 24.592041,2.05712891 C24.2575667,2.31591926 24.090332,2.67724377 24.090332,3.14111328 C24.090332,3.53174023 24.2709943,3.85766471 24.6323242,4.11889648 C24.9936542,4.38012826 25.5893513,4.63403197 26.4194336,4.88061523 C27.2495159,5.1271985 27.9160131,5.40795741 28.4189453,5.72290039 C28.9218775,6.03784337 29.2905262,6.39916788 29.5249023,6.80688477 C29.7592785,7.21460165 29.8764648,7.6918918 29.8764648,8.23876953 C29.8764648,9.12744585 29.5358921,9.83422589 28.8547363,10.3591309 C28.1735806,10.8840358 27.2495176,11.1464844 26.0825195,11.1464844 C25.3110313,11.1464844 24.6018099,11.0036635 23.954834,10.7180176 C23.3078581,10.4323716 22.8049334,10.0380885 22.4460449,9.53515625 C22.0871564,9.03222405 21.9077148,8.44629241 21.9077148,7.77734375 L23.7607422,7.77734375 C23.7607422,8.38281553 23.9609355,8.85156084 24.3613281,9.18359375 C24.7617208,9.51562666 25.3354455,9.68164062 26.0825195,9.68164062 C26.727054,9.68164062 27.2116683,9.5510267 27.536377,9.28979492 C27.8610856,9.02856315 28.0234375,8.68310762 28.0234375,8.25341797 Z M39.0761719,8.25341797 C39.0761719,7.78466563 38.9113786,7.42334111 38.5817871,7.16943359 C38.2521956,6.91552607 37.6577191,6.65918098 36.7983398,6.40039063 C35.9389605,6.14160027 35.2553736,5.85351721 34.7475586,5.53613281 C33.775874,4.9257782 33.2900391,4.12988772 33.2900391,3.1484375 C33.2900391,2.2890582 33.6403774,1.58105747 34.3410645,1.02441406 C35.0417516,0.467770654 35.9511663,0.189453125 37.0693359,0.189453125 C37.8115271,0.189453125 38.4731416,0.326170508 39.0541992,0.599609375 C39.6352568,0.873048242 40.0917952,1.26244865 40.4238281,1.76782227 C40.755861,2.27319589 40.921875,2.83349302 40.921875,3.44873047 L39.0761719,3.44873047 C39.0761719,2.89208706 38.9016131,2.4563004 38.5524902,2.14135742 C38.2033674,1.82641444 37.7041048,1.66894531 37.0546875,1.66894531 C36.4492157,1.66894531 35.9792497,1.79833855 35.6447754,2.05712891 C35.3103011,2.31591926 35.1430664,2.67724377 35.1430664,3.14111328 C35.1430664,3.53174023 35.3237287,3.85766471 35.6850586,4.11889648 C36.0463885,4.38012826 36.6420857,4.63403197 37.472168,4.88061523 C38.3022502,5.1271985 38.9687475,5.40795741 39.4716797,5.72290039 C39.9746119,6.03784337 40.3432605,6.39916788 40.5776367,6.80688477 C40.8120129,7.21460165 40.9291992,7.6918918 40.9291992,8.23876953 C40.9291992,9.12744585 40.5886265,9.83422589 39.9074707,10.3591309 C39.226315,10.8840358 38.3022519,11.1464844 37.1352539,11.1464844 C36.3637657,11.1464844 35.6545443,11.0036635 35.0075684,10.7180176 C34.3605925,10.4323716 33.8576678,10.0380885 33.4987793,9.53515625 C33.1398908,9.03222405 32.9604492,8.44629241 32.9604492,7.77734375 L34.8134766,7.77734375 C34.8134766,8.38281553 35.0136699,8.85156084 35.4140625,9.18359375 C35.8144551,9.51562666 36.3881799,9.68164062 37.1352539,9.68164062 C37.7797884,9.68164062 38.2644027,9.5510267 38.5891113,9.28979492 C38.91382,9.02856315 39.0761719,8.68310762 39.0761719,8.25341797 Z M46.5107422,11 L44.6650391,11 L44.6650391,0.3359375 L46.5107422,0.3359375 L46.5107422,11 Z M59.2993164,5.94628906 C59.2993164,6.99121616 59.1186542,7.90795504 58.7573242,8.6965332 C58.3959943,9.48511136 57.879642,10.0905741 57.208252,10.5129395 C56.5368619,10.9353048 55.7641645,11.1464844 54.8901367,11.1464844 C54.0258746,11.1464844 53.2556186,10.9353048 52.5793457,10.5129395 C51.9030728,10.0905741 51.3806171,9.48877344 51.0119629,8.70751953 C50.6433087,7.92626562 50.456543,7.02539573 50.4516602,6.00488281 L50.4516602,5.40429688 C50.4516602,4.36425261 50.6359845,3.44629304 51.0046387,2.65039062 C51.3732929,1.85448821 51.8933072,1.24536344 52.5646973,0.822998047 C53.2360873,0.400632654 54.0063433,0.189453125 54.8754883,0.189453125 C55.7446333,0.189453125 56.5148892,0.398191272 57.1862793,0.815673828 C57.8576694,1.23315638 58.376463,1.83373632 58.7426758,2.61743164 C59.1088885,3.40112697 59.2944336,4.31298308 59.2993164,5.35302734 L59.2993164,5.94628906 Z M57.4462891,5.38964844 C57.4462891,4.2080019 57.2229026,3.30224924 56.776123,2.67236328 C56.3293435,2.04247732 55.6958049,1.72753906 54.8754883,1.72753906 C54.074703,1.72753906 53.4484886,2.04125663 52.9968262,2.66870117 C52.5451638,3.29614572 52.3144532,4.18358801 52.3046875,5.33105469 L52.3046875,5.94628906 C52.3046875,7.11816992 52.5329567,8.02392258 52.989502,8.66357422 C53.4460472,9.30322585 54.0795858,9.62304688 54.8901367,9.62304688 C55.7104533,9.62304688 56.3415505,9.31055 56.7834473,8.68554688 C57.225344,8.06054375 57.4462891,7.14746694 57.4462891,5.94628906 L57.4462891,5.38964844 Z M71.6044922,11 L69.7514648,11 L64.9980469,3.43408203 L64.9980469,11 L63.1450195,11 L63.1450195,0.3359375 L64.9980469,0.3359375 L69.7661133,7.93115234 L69.7661133,0.3359375 L71.6044922,0.3359375 L71.6044922,11 Z M89.6669922,7.52832031 C89.5595698,8.66602131 89.1396521,9.55346361 88.4072266,10.1906738 C87.674801,10.827884 86.7006897,11.1464844 85.4848633,11.1464844 C84.6352497,11.1464844 83.8869661,10.9450704 83.2399902,10.5422363 C82.5930143,10.1394023 82.0937518,9.56689824 81.7421875,8.82470703 C81.3906232,8.08251582 81.2075196,7.22070803 81.1928711,6.23925781 L81.1928711,5.24316406 C81.1928711,4.23729966 81.371092,3.35107805 81.7275391,2.58447266 C82.0839862,1.81786726 82.5954557,1.22705286 83.2619629,0.812011719 C83.9284701,0.396970581 84.6987261,0.189453125 85.5727539,0.189453125 C86.7495176,0.189453125 87.6967738,0.509274146 88.4145508,1.14892578 C89.1323278,1.78857742 89.5498041,2.6918887 89.6669922,3.85888672 L87.8212891,3.85888672 C87.733398,3.09228132 87.5100116,2.53930834 87.151123,2.19995117 C86.7922345,1.86059401 86.2661167,1.69091797 85.5727539,1.69091797 C84.7670858,1.69091797 84.1481955,1.98510448 83.7160645,2.57348633 C83.2839334,3.16186818 83.0629883,4.02489666 83.0532227,5.16259766 L83.0532227,6.10742188 C83.0532227,7.25977139 83.2595194,8.13866885 83.6721191,8.74414062 C84.0847189,9.3496124 84.6889609,9.65234375 85.4848633,9.65234375 C86.212406,9.65234375 86.7592755,9.48877117 87.1254883,9.16162109 C87.491701,8.83447102 87.7236323,8.29004287 87.8212891,7.52832031 L89.6669922,7.52832031 Z M95.175293,9.52050781 L100.016602,9.52050781 L100.016602,11 L93.3222656,11 L93.3222656,0.3359375 L95.175293,0.3359375 L95.175293,9.52050781 Z M105.393066,11 L103.547363,11 L103.547363,0.3359375 L105.393066,0.3359375 L105.393066,11 Z M115.815918,6.48095703 L111.523926,6.48095703 L111.523926,11 L109.670898,11 L109.670898,0.3359375 L116.445801,0.3359375 L116.445801,1.83007812 L111.523926,1.83007812 L111.523926,5.00146484 L115.815918,5.00146484 L115.815918,6.48095703 Z M126.055664,6.48095703 L121.763672,6.48095703 L121.763672,11 L119.910645,11 L119.910645,0.3359375 L126.685547,0.3359375 L126.685547,1.83007812 L121.763672,1.83007812 L121.763672,5.00146484 L126.055664,5.00146484 L126.055664,6.48095703 Z M135.724121,8.25341797 C135.724121,7.78466563 135.559328,7.42334111 135.229736,7.16943359 C134.900145,6.91552607 134.305668,6.65918098 133.446289,6.40039063 C132.58691,6.14160027 131.903323,5.85351721 131.395508,5.53613281 C130.423823,4.9257782 129.937988,4.12988772 129.937988,3.1484375 C129.937988,2.2890582 130.288327,1.58105747 130.989014,1.02441406 C131.689701,0.467770654 132.599116,0.189453125 133.717285,0.189453125 C134.459476,0.189453125 135.121091,0.326170508 135.702148,0.599609375 C136.283206,0.873048242 136.739744,1.26244865 137.071777,1.76782227 C137.40381,2.27319589 137.569824,2.83349302 137.569824,3.44873047 L135.724121,3.44873047 C135.724121,2.89208706 135.549562,2.4563004 135.200439,2.14135742 C134.851317,1.82641444 134.352054,1.66894531 133.702637,1.66894531 C133.097165,1.66894531 132.627199,1.79833855 132.292725,2.05712891 C131.95825,2.31591926 131.791016,2.67724377 131.791016,3.14111328 C131.791016,3.53174023 131.971678,3.85766471 132.333008,4.11889648 C132.694338,4.38012826 133.290035,4.63403197 134.120117,4.88061523 C134.950199,5.1271985 135.616697,5.40795741 136.119629,5.72290039 C136.622561,6.03784337 136.99121,6.39916788 137.225586,6.80688477 C137.459962,7.21460165 137.577148,7.6918918 137.577148,8.23876953 C137.577148,9.12744585 137.236576,9.83422589 136.55542,10.3591309 C135.874264,10.8840358 134.950201,11.1464844 133.783203,11.1464844 C133.011715,11.1464844 132.302493,11.0036635 131.655518,10.7180176 C131.008542,10.4323716 130.505617,10.0380885 130.146729,9.53515625 C129.78784,9.03222405 129.608398,8.44629241 129.608398,7.77734375 L131.461426,7.77734375 C131.461426,8.38281553 131.661619,8.85156084 132.062012,9.18359375 C132.462404,9.51562666 133.036129,9.68164062 133.783203,9.68164062 C134.427738,9.68164062 134.912352,9.5510267 135.237061,9.28979492 C135.561769,9.02856315 135.724121,8.68310762 135.724121,8.25341797 Z" id="MISSION-CLIFFS"></path>
                <path d="M8.58398438,34.1049805 L4.92919922,34.1049805 L4.92919922,44 L4.02832031,44 L4.02832031,34.1049805 L0.380859375,34.1049805 L0.380859375,33.3359375 L8.58398438,33.3359375 L8.58398438,34.1049805 Z M12.9716797,37.4155273 C13.2597671,36.9418922 13.6284157,36.5756849 14.0776367,36.3168945 C14.5268577,36.0581042 15.0175755,35.9287109 15.5498047,35.9287109 C16.3994183,35.9287109 17.0317362,36.1679664 17.4467773,36.6464844 C17.8618185,37.1250024 18.0717773,37.8427687 18.0766602,38.7998047 L18.0766602,44 L17.2050781,44 L17.2050781,38.7924805 C17.2001953,38.0844691 17.0500503,37.5571306 16.7546387,37.2104492 C16.459227,36.8637678 15.9868197,36.6904297 15.3374023,36.6904297 C14.7954074,36.6904297 14.3156759,36.8601057 13.8981934,37.1994629 C13.4807108,37.5388201 13.171876,37.9965792 12.9716797,38.5727539 L12.9716797,44 L12.1000977,44 L12.1000977,32.75 L12.9716797,32.75 L12.9716797,37.4155273 Z M25.4013672,44.1464844 C24.7275357,44.1464844 24.1184109,43.9804704 23.5739746,43.6484375 C23.0295383,43.3164046 22.6059585,42.8537627 22.3032227,42.260498 C22.0004868,41.6672334 21.8491211,41.0019568 21.8491211,40.2646484 L21.8491211,39.949707 C21.8491211,39.1879845 21.9968247,38.5019562 22.2922363,37.8916016 C22.587648,37.2812469 22.9990208,36.8015154 23.5263672,36.4523926 C24.0537136,36.1032697 24.6249969,35.9287109 25.2402344,35.9287109 C26.2021532,35.9287109 26.9650851,36.2570768 27.5290527,36.9138184 C28.0930204,37.5705599 28.375,38.4677677 28.375,39.6054688 L28.375,40.0961914 L22.7207031,40.0961914 L22.7207031,40.2646484 C22.7207031,41.1630904 22.9782689,41.911374 23.4934082,42.5095215 C24.0085475,43.107669 24.6567344,43.4067383 25.4379883,43.4067383 C25.9067406,43.4067383 26.3205548,43.3212899 26.6794434,43.1503906 C27.0383319,42.9794913 27.3642563,42.7060566 27.6572266,42.3300781 L28.206543,42.7475586 C27.5620085,43.6801804 26.6269593,44.1464844 25.4013672,44.1464844 Z M25.2402344,36.6757812 C24.5810514,36.6757812 24.025637,36.9174781 23.5739746,37.4008789 C23.1223122,37.8842798 22.8476567,38.5336873 22.75,39.3491211 L27.503418,39.3491211 L27.503418,39.2539062 C27.4790038,38.4921837 27.2617208,37.8720727 26.8515625,37.3935547 C26.4414042,36.9150367 25.9043002,36.6757812 25.2402344,36.6757812 Z M37.2456055,39.9204102 C37.2456055,39.1586876 37.3933091,38.4726593 37.6887207,37.8623047 C37.9841323,37.2519501 38.4016086,36.7771013 38.9411621,36.4377441 C39.4807156,36.098387 40.0922817,35.9287109 40.7758789,35.9287109 C41.8305717,35.9287109 42.6850553,36.2985803 43.3393555,37.0383301 C43.9936556,37.7780799 44.3208008,38.7582947 44.3208008,39.9790039 L44.3208008,40.1621094 C44.3208008,40.9287148 44.1730972,41.6184051 43.8776855,42.2312012 C43.5822739,42.8439972 43.1660183,43.3164046 42.6289062,43.6484375 C42.0917942,43.9804704 41.4790073,44.1464844 40.7905273,44.1464844 C39.7407174,44.1464844 38.8874545,43.776615 38.2307129,43.0368652 C37.5739713,42.2971154 37.2456055,41.3169006 37.2456055,40.0961914 L37.2456055,39.9204102 Z M38.1245117,40.1621094 C38.1245117,41.1093797 38.3698706,41.8869599 38.8605957,42.494873 C39.3513208,43.1027862 39.9946249,43.4067383 40.7905273,43.4067383 C41.5815469,43.4067383 42.2224097,43.1027862 42.7131348,42.494873 C43.2038599,41.8869599 43.4492188,41.0849659 43.4492188,40.0888672 L43.4492188,39.9204102 C43.4492188,39.3149384 43.3369152,38.7607447 43.1123047,38.2578125 C42.8876942,37.7548803 42.5727559,37.3654799 42.1674805,37.0895996 C41.762205,36.8137193 41.2983425,36.6757812 40.7758789,36.6757812 C39.994625,36.6757812 39.3574243,36.9821747 38.8642578,37.5949707 C38.3710913,38.2077667 38.1245117,39.0097607 38.1245117,40.0009766 L38.1245117,40.1621094 Z M49.1113281,44 L48.2324219,44 L48.2324219,32.75 L49.1113281,32.75 L49.1113281,44 Z M53.1401367,39.9643555 C53.1401367,38.7338806 53.4147922,37.7536658 53.9641113,37.0236816 C54.5134305,36.2936975 55.2592726,35.9287109 56.2016602,35.9287109 C57.2710014,35.9287109 58.086423,36.35107 58.6479492,37.1958008 L58.6479492,32.75 L59.5195312,32.75 L59.5195312,44 L58.6992188,44 L58.6625977,42.9453125 C58.1010714,43.7460978 57.2758844,44.1464844 56.1870117,44.1464844 C55.2739212,44.1464844 54.5378446,43.7790564 53.9787598,43.0441895 C53.4196749,42.3093225 53.1401367,41.3169008 53.1401367,40.0668945 L53.1401367,39.9643555 Z M54.0263672,40.1181641 C54.0263672,41.1289113 54.2290019,41.9260225 54.6342773,42.5095215 C55.0395528,43.0930205 55.6108362,43.3847656 56.3481445,43.3847656 C57.4272515,43.3847656 58.1938454,42.9086962 58.6479492,41.956543 L58.6479492,38.2358398 C58.1938454,37.2055613 57.4321343,36.6904297 56.362793,36.6904297 C55.6254846,36.6904297 55.0517599,36.9797334 54.6416016,37.5583496 C54.2314433,38.1369658 54.0263672,38.9902287 54.0263672,40.1181641 Z M66.8955078,44.1464844 C66.2216763,44.1464844 65.6125516,43.9804704 65.0681152,43.6484375 C64.5236789,43.3164046 64.1000992,42.8537627 63.7973633,42.260498 C63.4946274,41.6672334 63.3432617,41.0019568 63.3432617,40.2646484 L63.3432617,39.949707 C63.3432617,39.1879845 63.4909653,38.5019562 63.786377,37.8916016 C64.0817886,37.2812469 64.4931614,36.8015154 65.0205078,36.4523926 C65.5478542,36.1032697 66.1191375,35.9287109 66.734375,35.9287109 C67.6962939,35.9287109 68.4592257,36.2570768 69.0231934,36.9138184 C69.587161,37.5705599 69.8691406,38.4677677 69.8691406,39.6054688 L69.8691406,40.0961914 L64.2148438,40.0961914 L64.2148438,40.2646484 C64.2148438,41.1630904 64.4724095,41.911374 64.9875488,42.5095215 C65.5026881,43.107669 66.150875,43.4067383 66.9321289,43.4067383 C67.4008812,43.4067383 67.8146955,43.3212899 68.173584,43.1503906 C68.5324725,42.9794913 68.858397,42.7060566 69.1513672,42.3300781 L69.7006836,42.7475586 C69.0561491,43.6801804 68.1210999,44.1464844 66.8955078,44.1464844 Z M66.734375,36.6757812 C66.075192,36.6757812 65.5197776,36.9174781 65.0681152,37.4008789 C64.6164528,37.8842798 64.3417974,38.5336873 64.2441406,39.3491211 L68.9975586,39.3491211 L68.9975586,39.2539062 C68.9731444,38.4921837 68.7558614,37.8720727 68.3457031,37.3935547 C67.9355448,36.9150367 67.3984408,36.6757812 66.734375,36.6757812 Z M78.3217773,41.9858398 C78.3217773,41.5512674 78.1472185,41.2021498 77.7980957,40.9384766 C77.4489729,40.6748034 76.9228551,40.4685066 76.2197266,40.3195801 C75.516598,40.1706536 74.9709492,39.9997568 74.5827637,39.8068848 C74.1945781,39.6140127 73.9064951,39.3784194 73.7185059,39.1000977 C73.5305166,38.821776 73.4365234,38.4848653 73.4365234,38.0893555 C73.4365234,37.4643523 73.6977513,36.9480001 74.2202148,36.5402832 C74.7426784,36.1325663 75.411617,35.9287109 76.2270508,35.9287109 C77.1108443,35.9287109 77.8200657,36.1472146 78.3547363,36.5842285 C78.889407,37.0212424 79.1567383,37.5913051 79.1567383,38.2944336 L78.277832,38.2944336 C78.277832,37.8305641 78.0837422,37.4448258 77.6955566,37.137207 C77.3073711,36.8295883 76.817874,36.6757812 76.2270508,36.6757812 C75.650876,36.6757812 75.1882342,36.8039538 74.8391113,37.0603027 C74.4899885,37.3166517 74.3154297,37.6499003 74.3154297,38.0600586 C74.3154297,38.4555684 74.4606919,38.7619618 74.7512207,38.979248 C75.0417495,39.1965343 75.5715294,39.3955069 76.3405762,39.5761719 C77.109623,39.7568368 77.6857891,39.949706 78.0690918,40.1547852 C78.4523945,40.3598643 78.7368155,40.6064439 78.9223633,40.8945312 C79.1079111,41.1826186 79.2006836,41.5317362 79.2006836,41.9418945 C79.2006836,42.6108432 78.9309109,43.1455058 78.3913574,43.5458984 C77.8518039,43.9462911 77.1474653,44.1464844 76.2783203,44.1464844 C75.3554641,44.1464844 74.6071806,43.9230979 74.0334473,43.4763184 C73.4597139,43.0295388 73.1728516,42.4643589 73.1728516,41.7807617 L74.0517578,41.7807617 C74.0859377,42.2934596 74.302,42.6926255 74.6999512,42.9782715 C75.0979024,43.2639174 75.6240202,43.4067383 76.2783203,43.4067383 C76.8886749,43.4067383 77.3818341,43.2724623 77.7578125,43.0039062 C78.1337909,42.7353502 78.3217773,42.3959981 78.3217773,41.9858398 Z M84.5332031,34.0463867 L84.5332031,36.0751953 L86.1738281,36.0751953 L86.1738281,36.7929688 L84.5332031,36.7929688 L84.5332031,42.0737305 C84.5332031,42.5131858 84.612548,42.840331 84.7712402,43.0551758 C84.9299324,43.2700206 85.1948224,43.3774414 85.565918,43.3774414 C85.7124031,43.3774414 85.9492171,43.3530276 86.2763672,43.3041992 L86.3129883,44.0219727 C86.0834949,44.1049809 85.7709981,44.1464844 85.3754883,44.1464844 C84.7748993,44.1464844 84.337892,43.9719256 84.0644531,43.6228027 C83.7910143,43.2736799 83.6542969,42.759769 83.6542969,42.0810547 L83.6542969,36.7929688 L82.1967773,36.7929688 L82.1967773,36.0751953 L83.6542969,36.0751953 L83.6542969,34.0463867 L84.5332031,34.0463867 Z M98.5673828,43.4067383 C99.1777374,43.4067383 99.6892069,43.2346209 100.101807,42.8903809 C100.514406,42.5461409 100.737793,42.1005887 100.771973,41.5537109 L101.614258,41.5537109 C101.589844,42.0371118 101.438478,42.4777812 101.160156,42.8757324 C100.881835,43.2736836 100.511965,43.5849598 100.050537,43.8095703 C99.589109,44.0341808 99.0947292,44.1464844 98.5673828,44.1464844 C97.5273385,44.1464844 96.7033722,43.7851599 96.095459,43.0625 C95.4875458,42.3398401 95.1835938,41.3681702 95.1835938,40.1474609 L95.1835938,39.8837891 C95.1835938,39.1025352 95.3203111,38.4116241 95.59375,37.8110352 C95.8671889,37.2104462 96.2590307,36.7465837 96.7692871,36.4194336 C97.2795436,36.0922835 97.8764614,35.9287109 98.5600586,35.9287109 C99.4292036,35.9287109 100.145749,36.1874974 100.709717,36.7050781 C101.273684,37.2226588 101.575195,37.9038044 101.614258,38.7485352 L100.771973,38.7485352 C100.73291,38.1284149 100.509524,37.6279316 100.101807,37.2470703 C99.6940898,36.866209 99.1801789,36.6757812 98.5600586,36.6757812 C97.769039,36.6757812 97.1550315,36.9614229 96.7180176,37.5327148 C96.2810037,38.1040068 96.0625,38.90478 96.0625,39.9350586 L96.0625,40.1914062 C96.0625,41.2021535 96.2810037,41.9907198 96.7180176,42.5571289 C97.1550315,43.123538 97.7714804,43.4067383 98.5673828,43.4067383 Z M106.346191,44 L105.467285,44 L105.467285,32.75 L106.346191,32.75 L106.346191,44 Z M111.708008,44 L110.829102,44 L110.829102,36.0751953 L111.708008,36.0751953 L111.708008,44 Z M110.675293,33.7827148 C110.675293,33.6166984 110.729003,33.4763189 110.836426,33.3615723 C110.943848,33.2468256 111.090331,33.1894531 111.275879,33.1894531 C111.461427,33.1894531 111.60913,33.2468256 111.718994,33.3615723 C111.828858,33.4763189 111.883789,33.6166984 111.883789,33.7827148 C111.883789,33.9487313 111.828858,34.0878901 111.718994,34.2001953 C111.60913,34.3125006 111.461427,34.3686523 111.275879,34.3686523 C111.090331,34.3686523 110.943848,34.3125006 110.836426,34.2001953 C110.729003,34.0878901 110.675293,33.9487313 110.675293,33.7827148 Z M116.886719,36.0751953 L116.916016,37.3642578 C117.208986,36.8857398 117.575193,36.5268567 118.014648,36.2875977 C118.454104,36.0483386 118.94238,35.9287109 119.479492,35.9287109 C120.729498,35.9287109 121.522948,36.4414011 121.859863,37.4667969 C122.143068,36.9736303 122.521482,36.5939955 122.995117,36.3278809 C123.468752,36.0617662 123.991208,35.9287109 124.5625,35.9287109 C126.261727,35.9287109 127.128418,36.856436 127.162598,38.7119141 L127.162598,44 L126.283691,44 L126.283691,38.777832 C126.278809,38.0698207 126.126222,37.5449236 125.825928,37.203125 C125.525633,36.8613264 125.036136,36.6904297 124.357422,36.6904297 C123.727536,36.7001954 123.195315,36.9040507 122.760742,37.302002 C122.32617,37.6999532 122.084473,38.1845675 122.035645,38.7558594 L122.035645,44 L121.156738,44 L121.156738,38.7119141 C121.151855,38.0331997 120.991945,37.526613 120.677002,37.1921387 C120.362059,36.8576643 119.877445,36.6904297 119.223145,36.6904297 C118.671384,36.6904297 118.197756,36.8478988 117.802246,37.1628418 C117.406736,37.4777848 117.11377,37.9453094 116.92334,38.5654297 L116.92334,44 L116.044434,44 L116.044434,36.0751953 L116.886719,36.0751953 Z M137.76123,40.1181641 C137.76123,41.3535218 137.487796,42.3337366 136.940918,43.0588379 C136.39404,43.7839392 135.659184,44.1464844 134.736328,44.1464844 C133.632807,44.1464844 132.797854,43.7363322 132.231445,42.9160156 L132.194824,44 L131.374512,44 L131.374512,32.75 L132.246094,32.75 L132.246094,37.2250977 C132.802737,36.3608355 133.627924,35.9287109 134.72168,35.9287109 C135.659184,35.9287109 136.400144,36.2863734 136.94458,37.001709 C137.489016,37.7170446 137.76123,38.7119077 137.76123,39.9863281 L137.76123,40.1181641 Z M136.882324,39.9643555 C136.882324,38.9194284 136.67969,38.1125517 136.274414,37.5437012 C135.869139,36.9748507 135.297855,36.6904297 134.560547,36.6904297 C133.999021,36.6904297 133.522951,36.8283678 133.132324,37.104248 C132.741697,37.3801283 132.44629,37.784177 132.246094,38.3164062 L132.246094,41.890625 C132.685549,42.8867237 133.461908,43.3847656 134.575195,43.3847656 C135.297855,43.3847656 135.863035,43.099124 136.270752,42.527832 C136.678469,41.9565401 136.882324,41.1020565 136.882324,39.9643555 Z M142.67627,44 L141.797363,44 L141.797363,36.0751953 L142.67627,36.0751953 L142.67627,44 Z M141.643555,33.7827148 C141.643555,33.6166984 141.697265,33.4763189 141.804688,33.3615723 C141.91211,33.2468256 142.058593,33.1894531 142.244141,33.1894531 C142.429688,33.1894531 142.577392,33.2468256 142.687256,33.3615723 C142.79712,33.4763189 142.852051,33.6166984 142.852051,33.7827148 C142.852051,33.9487313 142.79712,34.0878901 142.687256,34.2001953 C142.577392,34.3125006 142.429688,34.3686523 142.244141,34.3686523 C142.058593,34.3686523 141.91211,34.3125006 141.804688,34.2001953 C141.697265,34.0878901 141.643555,33.9487313 141.643555,33.7827148 Z M147.891602,36.0751953 L147.920898,37.4301758 C148.218751,36.9418921 148.589842,36.5695814 149.03418,36.3132324 C149.478518,36.0568835 149.969236,35.9287109 150.506348,35.9287109 C151.355961,35.9287109 151.988279,36.1679664 152.40332,36.6464844 C152.818361,37.1250024 153.02832,37.8427687 153.033203,38.7998047 L153.033203,44 L152.161621,44 L152.161621,38.7924805 C152.156738,38.0844691 152.006593,37.5571306 151.711182,37.2104492 C151.41577,36.8637678 150.943363,36.6904297 150.293945,36.6904297 C149.75195,36.6904297 149.272219,36.8601057 148.854736,37.1994629 C148.437254,37.5388201 148.128419,37.9965792 147.928223,38.5727539 L147.928223,44 L147.056641,44 L147.056641,36.0751953 L147.891602,36.0751953 Z M156.944824,39.9643555 C156.944824,38.7241149 157.21948,37.7414587 157.768799,37.0163574 C158.318118,36.2912561 159.06396,35.9287109 160.006348,35.9287109 C161.085455,35.9287109 161.905759,36.3583941 162.467285,37.2177734 L162.51123,36.0751953 L163.331543,36.0751953 L163.331543,43.8388672 C163.331543,44.8593801 163.045901,45.6674775 162.474609,46.2631836 C161.903317,46.8588897 161.129399,47.1567383 160.152832,47.1567383 C159.601071,47.1567383 159.074954,47.0334485 158.574463,46.7868652 C158.073972,46.540282 157.679689,46.2119161 157.391602,45.8017578 L157.882324,45.2744141 C158.502445,46.0361366 159.239742,46.4169922 160.094238,46.4169922 C160.826664,46.4169922 161.397947,46.2009299 161.808105,45.7687988 C162.218264,45.3366678 162.430664,44.7373085 162.445312,43.9707031 L162.445312,42.9746094 C161.883786,43.7558633 161.065923,44.1464844 159.991699,44.1464844 C159.073726,44.1464844 158.336429,43.7802771 157.779785,43.0478516 C157.223142,42.315426 156.944824,41.3266664 156.944824,40.081543 L156.944824,39.9643555 Z M157.831055,40.1181641 C157.831055,41.1289113 158.033689,41.9260225 158.438965,42.5095215 C158.84424,43.0930205 159.415524,43.3847656 160.152832,43.3847656 C161.231939,43.3847656 161.996092,42.901372 162.445313,41.9345703 L162.445313,38.2504883 C162.240233,37.7426732 161.944826,37.3557142 161.559082,37.0895996 C161.173338,36.823485 160.709475,36.6904297 160.16748,36.6904297 C159.430172,36.6904297 158.856447,36.9797334 158.446289,37.5583496 C158.036131,38.1369658 157.831055,38.9902287 157.831055,40.1181641 Z M172.912598,39.9643555 C172.912598,38.7241149 173.187253,37.7414587 173.736572,37.0163574 C174.285891,36.2912561 175.031734,35.9287109 175.974121,35.9287109 C177.053228,35.9287109 177.873532,36.3583941 178.435059,37.2177734 L178.479004,36.0751953 L179.299316,36.0751953 L179.299316,43.8388672 C179.299316,44.8593801 179.013675,45.6674775 178.442383,46.2631836 C177.871091,46.8588897 177.097173,47.1567383 176.120605,47.1567383 C175.568845,47.1567383 175.042727,47.0334485 174.542236,46.7868652 C174.041746,46.540282 173.647462,46.2119161 173.359375,45.8017578 L173.850098,45.2744141 C174.470218,46.0361366 175.207515,46.4169922 176.062012,46.4169922 C176.794437,46.4169922 177.365721,46.2009299 177.775879,45.7687988 C178.186037,45.3366678 178.398437,44.7373085 178.413086,43.9707031 L178.413086,42.9746094 C177.85156,43.7558633 177.033697,44.1464844 175.959473,44.1464844 C175.041499,44.1464844 174.304202,43.7802771 173.747559,43.0478516 C173.190915,42.315426 172.912598,41.3266664 172.912598,40.081543 L172.912598,39.9643555 Z M173.798828,40.1181641 C173.798828,41.1289113 174.001463,41.9260225 174.406738,42.5095215 C174.812014,43.0930205 175.383297,43.3847656 176.120605,43.3847656 C177.199712,43.3847656 177.963865,42.901372 178.413086,41.9345703 L178.413086,38.2504883 C178.208007,37.7426732 177.9126,37.3557142 177.526855,37.0895996 C177.141111,36.823485 176.677249,36.6904297 176.135254,36.6904297 C175.397946,36.6904297 174.824221,36.9797334 174.414062,37.5583496 C174.003904,38.1369658 173.798828,38.9902287 173.798828,40.1181641 Z M186.09668,42.7402344 L188.411133,36.0751953 L189.355957,36.0751953 L185.972168,45.3476562 L185.796387,45.7578125 C185.361814,46.7197314 184.690434,47.2006836 183.782227,47.2006836 C183.572265,47.2006836 183.347657,47.1665042 183.108398,47.0981445 L183.101074,46.3730469 L183.555176,46.4169922 C183.984865,46.4169922 184.332762,46.3107921 184.598877,46.0983887 C184.864992,45.8859853 185.090819,45.5209987 185.276367,45.003418 L185.664551,43.934082 L182.67627,36.0751953 L183.635742,36.0751953 L186.09668,42.7402344 Z M193.509277,36.0751953 L193.538574,37.3642578 C193.831544,36.8857398 194.197752,36.5268567 194.637207,36.2875977 C195.076662,36.0483386 195.564939,35.9287109 196.102051,35.9287109 C197.352057,35.9287109 198.145506,36.4414011 198.482422,37.4667969 C198.765626,36.9736303 199.144041,36.5939955 199.617676,36.3278809 C200.091311,36.0617662 200.613767,35.9287109 201.185059,35.9287109 C202.884286,35.9287109 203.750976,36.856436 203.785156,38.7119141 L203.785156,44 L202.90625,44 L202.90625,38.777832 C202.901367,38.0698207 202.748781,37.5449236 202.448486,37.203125 C202.148192,36.8613264 201.658695,36.6904297 200.97998,36.6904297 C200.350095,36.7001954 199.817873,36.9040507 199.383301,37.302002 C198.948728,37.6999532 198.707031,38.1845675 198.658203,38.7558594 L198.658203,44 L197.779297,44 L197.779297,38.7119141 C197.774414,38.0331997 197.614504,37.526613 197.299561,37.1921387 C196.984618,36.8576643 196.500003,36.6904297 195.845703,36.6904297 C195.293943,36.6904297 194.820314,36.8478988 194.424805,37.1628418 C194.029295,37.4777848 193.736329,37.9453094 193.545898,38.5654297 L193.545898,44 L192.666992,44 L192.666992,36.0751953 L193.509277,36.0751953 Z M214.633301,44 L213.754395,44 L213.754395,36.0751953 L214.633301,36.0751953 L214.633301,44 Z M213.600586,33.7827148 C213.600586,33.6166984 213.654296,33.4763189 213.761719,33.3615723 C213.869141,33.2468256 214.015624,33.1894531 214.201172,33.1894531 C214.38672,33.1894531 214.534423,33.2468256 214.644287,33.3615723 C214.754151,33.4763189 214.809082,33.6166984 214.809082,33.7827148 C214.809082,33.9487313 214.754151,34.0878901 214.644287,34.2001953 C214.534423,34.3125006 214.38672,34.3686523 214.201172,34.3686523 C214.015624,34.3686523 213.869141,34.3125006 213.761719,34.2001953 C213.654296,34.0878901 213.600586,33.9487313 213.600586,33.7827148 Z M219.848633,36.0751953 L219.87793,37.4301758 C220.175783,36.9418921 220.546873,36.5695814 220.991211,36.3132324 C221.435549,36.0568835 221.926267,35.9287109 222.463379,35.9287109 C223.312993,35.9287109 223.94531,36.1679664 224.360352,36.6464844 C224.775393,37.1250024 224.985352,37.8427687 224.990234,38.7998047 L224.990234,44 L224.118652,44 L224.118652,38.7924805 C224.11377,38.0844691 223.963625,37.5571306 223.668213,37.2104492 C223.372801,36.8637678 222.900394,36.6904297 222.250977,36.6904297 C221.708982,36.6904297 221.22925,36.8601057 220.811768,37.1994629 C220.394285,37.5388201 220.08545,37.9965792 219.885254,38.5727539 L219.885254,44 L219.013672,44 L219.013672,36.0751953 L219.848633,36.0751953 Z M241.141113,41.3779297 C241.141113,40.7871064 240.933596,40.3195818 240.518555,39.9753418 C240.103514,39.6311018 239.344244,39.3039566 238.240723,38.9938965 C237.137202,38.6838363 236.331546,38.345705 235.82373,37.9794922 C235.101071,37.4619115 234.739746,36.7832073 234.739746,35.9433594 C234.739746,35.1279256 235.075436,34.4650904 235.746826,33.954834 C236.418216,33.4445775 237.276362,33.1894531 238.321289,33.1894531 C239.0293,33.1894531 239.662839,33.3261705 240.221924,33.5996094 C240.781009,33.8730482 241.214354,34.2539038 241.521973,34.7421875 C241.829591,35.2304712 241.983398,35.7748993 241.983398,36.3754883 L241.075195,36.3754883 C241.075195,35.6479456 240.826174,35.0632346 240.328125,34.6213379 C239.830076,34.1794411 239.161137,33.9584961 238.321289,33.9584961 C237.505855,33.9584961 236.856448,34.140379 236.373047,34.5041504 C235.889646,34.8679217 235.647949,35.3427705 235.647949,35.9287109 C235.647949,36.4707058 235.865232,36.9125959 236.299805,37.2543945 C236.734377,37.5961931 237.430171,37.8977038 238.387207,38.1589355 C239.344243,38.4201673 240.069333,38.6911607 240.5625,38.9719238 C241.055667,39.252687 241.426757,39.588377 241.675781,39.9790039 C241.924806,40.3696309 242.049316,40.831052 242.049316,41.3632812 C242.049316,42.2031292 241.713626,42.8769506 241.042236,43.3847656 C240.370846,43.8925807 239.485845,44.1464844 238.387207,44.1464844 C237.63525,44.1464844 236.94556,44.0122084 236.318115,43.7436523 C235.690671,43.4750963 235.214601,43.0991235 234.889893,42.6157227 C234.565184,42.1323218 234.402832,41.5781281 234.402832,40.953125 L235.303711,40.953125 C235.303711,41.7050819 235.58447,42.2983377 236.145996,42.7329102 C236.707522,43.1674826 237.454585,43.3847656 238.387207,43.3847656 C239.217289,43.3847656 239.883787,43.201662 240.386719,42.8354492 C240.889651,42.4692365 241.141113,41.9834015 241.141113,41.3779297 Z M251.864258,39.0195312 L246.891113,39.0195312 L246.891113,44 L245.990234,44 L245.990234,33.3359375 L252.59668,33.3359375 L252.59668,34.1049805 L246.891113,34.1049805 L246.891113,38.2504883 L251.864258,38.2504883 L251.864258,39.0195312 Z M264.308594,39.246582 C264.308594,40.2280323 264.138918,41.08984 263.799561,41.8320312 C263.460203,42.5742225 262.975589,43.1455058 262.345703,43.5458984 C261.715817,43.9462911 260.988285,44.1464844 260.163086,44.1464844 C258.917963,44.1464844 257.912113,43.7009322 257.145508,42.8098145 C256.378902,41.9186967 255.995605,40.7163162 255.995605,39.2026367 L255.995605,38.1040039 C255.995605,37.1323194 256.167723,36.2717323 256.511963,35.5222168 C256.856203,34.7727013 257.343259,34.1965352 257.973145,33.7937012 C258.60303,33.3908671 259.328121,33.1894531 260.148438,33.1894531 C260.968754,33.1894531 261.692624,33.3872051 262.320068,33.7827148 C262.947513,34.1782246 263.432127,34.7373011 263.773926,35.4599609 C264.115724,36.1826208 264.293945,37.0200148 264.308594,37.972168 L264.308594,39.246582 Z M263.407715,38.0893555 C263.407715,36.8051694 263.11719,35.79932 262.536133,35.0717773 C261.955075,34.3442346 261.159185,33.9804688 260.148438,33.9804688 C259.157222,33.9804688 258.367435,34.3454553 257.779053,35.0754395 C257.190671,35.8054236 256.896484,36.8247005 256.896484,38.1333008 L256.896484,39.246582 C256.896484,40.5112368 257.18945,41.513424 257.775391,42.2531738 C258.361331,42.9929236 259.157222,43.362793 260.163086,43.362793 C261.183599,43.362793 261.979489,42.9978064 262.550781,42.2678223 C263.122073,41.5378381 263.407715,40.5210026 263.407715,39.2172852 L263.407715,38.0893555 Z M2.12402344,62 L1.24511719,62 L1.24511719,50.75 L2.12402344,50.75 L2.12402344,62 Z M6.02099609,57.9204102 C6.02099609,57.1586876 6.16869969,56.4726593 6.46411133,55.8623047 C6.75952296,55.2519501 7.17699926,54.7771013 7.71655273,54.4377441 C8.25610621,54.098387 8.86767236,53.9287109 9.55126953,53.9287109 C10.6059623,53.9287109 11.4604459,54.2985803 12.1147461,55.0383301 C12.7690462,55.7780799 13.0961914,56.7582947 13.0961914,57.9790039 L13.0961914,58.1621094 C13.0961914,58.9287148 12.9484878,59.6184051 12.6530762,60.2312012 C12.3576645,60.8439972 11.9414089,61.3164046 11.4042969,61.6484375 C10.8671848,61.9804704 10.254398,62.1464844 9.56591797,62.1464844 C8.51610803,62.1464844 7.66284508,61.776615 7.00610352,61.0368652 C6.34936195,60.2971154 6.02099609,59.3169006 6.02099609,58.0961914 L6.02099609,57.9204102 Z M6.89990234,58.1621094 C6.89990234,59.1093797 7.14526122,59.8869599 7.63598633,60.494873 C8.12671144,61.1027862 8.77001555,61.4067383 9.56591797,61.4067383 C10.3569375,61.4067383 10.9978003,61.1027862 11.4885254,60.494873 C11.9792505,59.8869599 12.2246094,59.0849659 12.2246094,58.0888672 L12.2246094,57.9204102 C12.2246094,57.3149384 12.1123058,56.7607447 11.8876953,56.2578125 C11.6630848,55.7548803 11.3481466,55.3654799 10.9428711,55.0895996 C10.5375956,54.8137193 10.0737331,54.6757812 9.55126953,54.6757812 C8.77001562,54.6757812 8.13281497,54.9821747 7.63964844,55.5949707 C7.14648191,56.2077667 6.89990234,57.0097607 6.89990234,58.0009766 L6.89990234,58.1621094 Z M19.8349609,61.4067383 C20.4453156,61.4067383 20.956785,61.2346209 21.3693848,60.8903809 C21.7819845,60.5461409 22.0053709,60.1005887 22.0395508,59.5537109 L22.8818359,59.5537109 C22.8574218,60.0371118 22.7060561,60.4777812 22.4277344,60.8757324 C22.1494127,61.2736836 21.7795433,61.5849598 21.3181152,61.8095703 C20.8566871,62.0341808 20.3623073,62.1464844 19.8349609,62.1464844 C18.7949167,62.1464844 17.9709503,61.7851599 17.3630371,61.0625 C16.7551239,60.3398401 16.4511719,59.3681702 16.4511719,58.1474609 L16.4511719,57.8837891 C16.4511719,57.1025352 16.5878893,56.4116241 16.8613281,55.8110352 C17.134767,55.2104462 17.5266088,54.7465837 18.0368652,54.4194336 C18.5471217,54.0922835 19.1440396,53.9287109 19.8276367,53.9287109 C20.6967817,53.9287109 21.4133273,54.1874974 21.9772949,54.7050781 C22.5412626,55.2226588 22.8427732,55.9038044 22.8818359,56.7485352 L22.0395508,56.7485352 C22.0004881,56.1284149 21.7771016,55.6279316 21.3693848,55.2470703 C20.9616679,54.866209 20.447757,54.6757812 19.8276367,54.6757812 C19.0366171,54.6757812 18.4226096,54.9614229 17.9855957,55.5327148 C17.5485818,56.1040068 17.3300781,56.90478 17.3300781,57.9350586 L17.3300781,58.1914062 C17.3300781,59.2021535 17.5485818,59.9907198 17.9855957,60.5571289 C18.4226096,61.123538 19.0390585,61.4067383 19.8349609,61.4067383 Z M31.6347656,62 C31.5468746,61.7509753 31.4907228,61.3823267 31.4663086,60.894043 C31.1586899,61.2944356 30.7668481,61.6032704 30.2907715,61.8205566 C29.8146949,62.0378429 29.3105495,62.1464844 28.7783203,62.1464844 C28.0165978,62.1464844 27.4001488,61.9340842 26.9289551,61.5092773 C26.4577613,61.0844705 26.222168,60.5473665 26.222168,59.8979492 C26.222168,59.126461 26.5432097,58.5161155 27.1853027,58.0668945 C27.8273958,57.6176735 28.7221622,57.3930664 29.8696289,57.3930664 L31.4589844,57.3930664 L31.4589844,56.4921875 C31.4589844,55.9257784 31.2844256,55.4802262 30.9353027,55.1555176 C30.5861799,54.8308089 30.0771518,54.668457 29.4082031,54.668457 C28.7978485,54.668457 28.2924825,54.8247055 27.8920898,55.137207 C27.4916972,55.4497086 27.2915039,55.8256814 27.2915039,56.2651367 L26.4125977,56.2578125 C26.4125977,55.6279265 26.7055635,55.0822777 27.2915039,54.6208496 C27.8774443,54.1594215 28.597652,53.9287109 29.4521484,53.9287109 C30.3359419,53.9287109 31.0329564,54.149656 31.5432129,54.5915527 C32.0534693,55.0334495 32.3159179,55.6498984 32.3305664,56.440918 L32.3305664,60.190918 C32.3305664,60.9575234 32.411132,61.5312481 32.5722656,61.9121094 L32.5722656,62 L31.6347656,62 Z M28.8808594,61.3701172 C29.4667998,61.3701172 29.9904762,61.228517 30.4519043,60.9453125 C30.9133324,60.662108 31.2490224,60.2836938 31.4589844,59.8100586 L31.4589844,58.0668945 L29.8916016,58.0668945 C29.0175738,58.0766602 28.3339868,58.2365707 27.8408203,58.5466309 C27.3476538,58.856691 27.1010742,59.2827121 27.1010742,59.824707 C27.1010742,60.2690452 27.2658675,60.6376938 27.595459,60.9306641 C27.9250505,61.2236343 28.353513,61.3701172 28.8808594,61.3701172 Z M38.0292969,52.0463867 L38.0292969,54.0751953 L39.6699219,54.0751953 L39.6699219,54.7929688 L38.0292969,54.7929688 L38.0292969,60.0737305 C38.0292969,60.5131858 38.1086418,60.840331 38.267334,61.0551758 C38.4260262,61.2700206 38.6909161,61.3774414 39.0620117,61.3774414 C39.2084968,61.3774414 39.4453109,61.3530276 39.7724609,61.3041992 L39.809082,62.0219727 C39.5795887,62.1049809 39.2670918,62.1464844 38.871582,62.1464844 C38.2709931,62.1464844 37.8339857,61.9719256 37.5605469,61.6228027 C37.287108,61.2736799 37.1503906,60.759769 37.1503906,60.0810547 L37.1503906,54.7929688 L35.6928711,54.7929688 L35.6928711,54.0751953 L37.1503906,54.0751953 L37.1503906,52.0463867 L38.0292969,52.0463867 Z M46.5551758,62.1464844 C45.8813443,62.1464844 45.2722195,61.9804704 44.7277832,61.6484375 C44.1833469,61.3164046 43.7597671,60.8537627 43.4570312,60.260498 C43.1542954,59.6672334 43.0029297,59.0019568 43.0029297,58.2646484 L43.0029297,57.949707 C43.0029297,57.1879845 43.1506333,56.5019562 43.4460449,55.8916016 C43.7414566,55.2812469 44.1528294,54.8015154 44.6801758,54.4523926 C45.2075222,54.1032697 45.7788055,53.9287109 46.394043,53.9287109 C47.3559618,53.9287109 48.1188937,54.2570768 48.6828613,54.9138184 C49.246829,55.5705599 49.5288086,56.4677677 49.5288086,57.6054688 L49.5288086,58.0961914 L43.8745117,58.0961914 L43.8745117,58.2646484 C43.8745117,59.1630904 44.1320775,59.911374 44.6472168,60.5095215 C45.1623561,61.107669 45.810543,61.4067383 46.5917969,61.4067383 C47.0605492,61.4067383 47.4743634,61.3212899 47.833252,61.1503906 C48.1921405,60.9794913 48.5180649,60.7060566 48.8110352,60.3300781 L49.3603516,60.7475586 C48.7158171,61.6801804 47.7807678,62.1464844 46.5551758,62.1464844 Z M46.394043,54.6757812 C45.73486,54.6757812 45.1794456,54.9174781 44.7277832,55.4008789 C44.2761208,55.8842798 44.0014653,56.5336873 43.9038086,57.3491211 L48.6572266,57.3491211 L48.6572266,57.2539062 C48.6328124,56.4921837 48.4155294,55.8720727 48.0053711,55.3935547 C47.5952128,54.9150367 47.0581088,54.6757812 46.394043,54.6757812 Z M52.8837891,57.9643555 C52.8837891,56.7338806 53.1584445,55.7536658 53.7077637,55.0236816 C54.2570828,54.2936975 55.002925,53.9287109 55.9453125,53.9287109 C57.0146538,53.9287109 57.8300753,54.35107 58.3916016,55.1958008 L58.3916016,50.75 L59.2631836,50.75 L59.2631836,62 L58.4428711,62 L58.40625,60.9453125 C57.8447238,61.7460978 57.0195367,62.1464844 55.9306641,62.1464844 C55.0175736,62.1464844 54.2814969,61.7790564 53.7224121,61.0441895 C53.1633273,60.3093225 52.8837891,59.3169008 52.8837891,58.0668945 L52.8837891,57.9643555 Z M53.7700195,58.1181641 C53.7700195,59.1289113 53.9726542,59.9260225 54.3779297,60.5095215 C54.7832052,61.0930205 55.3544885,61.3847656 56.0917969,61.3847656 C57.1709038,61.3847656 57.9374977,60.9086962 58.3916016,59.956543 L58.3916016,56.2358398 C57.9374977,55.2055613 57.1757866,54.6904297 56.1064453,54.6904297 C55.3691369,54.6904297 54.7954122,54.9797334 54.3852539,55.5583496 C53.9750956,56.1369658 53.7700195,56.9902287 53.7700195,58.1181641 Z M70.1992188,62 L69.3203125,62 L69.3203125,54.0751953 L70.1992188,54.0751953 L70.1992188,62 Z M69.1665039,51.7827148 C69.1665039,51.6166984 69.2202143,51.4763189 69.3276367,51.3615723 C69.4350591,51.2468256 69.581542,51.1894531 69.7670898,51.1894531 C69.9526376,51.1894531 70.1003412,51.2468256 70.2102051,51.3615723 C70.3200689,51.4763189 70.375,51.6166984 70.375,51.7827148 C70.375,51.9487313 70.3200689,52.0878901 70.2102051,52.2001953 C70.1003412,52.3125006 69.9526376,52.3686523 69.7670898,52.3686523 C69.581542,52.3686523 69.4350591,52.3125006 69.3276367,52.2001953 C69.2202143,52.0878901 69.1665039,51.9487313 69.1665039,51.7827148 Z M75.4145508,54.0751953 L75.4438477,55.4301758 C75.7417007,54.9418921 76.1127907,54.5695814 76.5571289,54.3132324 C77.0014671,54.0568835 77.4921848,53.9287109 78.0292969,53.9287109 C78.8789105,53.9287109 79.5112284,54.1679664 79.9262695,54.6464844 C80.3413107,55.1250024 80.5512695,55.8427687 80.5561523,56.7998047 L80.5561523,62 L79.6845703,62 L79.6845703,56.7924805 C79.6796875,56.0844691 79.5295425,55.5571306 79.2341309,55.2104492 C78.9387192,54.8637678 78.4663118,54.6904297 77.8168945,54.6904297 C77.2748996,54.6904297 76.7951681,54.8601057 76.3776855,55.1994629 C75.960203,55.5388201 75.6513682,55.9965792 75.4511719,56.5727539 L75.4511719,62 L74.5795898,62 L74.5795898,54.0751953 L75.4145508,54.0751953 Z M91.8657227,51.3359375 L95.7988281,60.7475586 L99.746582,51.3359375 L100.947754,51.3359375 L100.947754,62 L100.046875,62 L100.046875,57.3564453 L100.120117,52.5957031 L96.1503906,62 L95.4545898,62 L91.4995117,52.6323242 L91.5727539,57.3271484 L91.5727539,62 L90.671875,62 L90.671875,51.3359375 L91.8657227,51.3359375 Z M106.426758,62 L105.547852,62 L105.547852,54.0751953 L106.426758,54.0751953 L106.426758,62 Z M105.394043,51.7827148 C105.394043,51.6166984 105.447753,51.4763189 105.555176,51.3615723 C105.662598,51.2468256 105.809081,51.1894531 105.994629,51.1894531 C106.180177,51.1894531 106.32788,51.2468256 106.437744,51.3615723 C106.547608,51.4763189 106.602539,51.6166984 106.602539,51.7827148 C106.602539,51.9487313 106.547608,52.0878901 106.437744,52.2001953 C106.32788,52.3125006 106.180177,52.3686523 105.994629,52.3686523 C105.809081,52.3686523 105.662598,52.3125006 105.555176,52.2001953 C105.447753,52.0878901 105.394043,51.9487313 105.394043,51.7827148 Z M115.553223,59.9858398 C115.553223,59.5512674 115.378664,59.2021498 115.029541,58.9384766 C114.680418,58.6748034 114.1543,58.4685066 113.451172,58.3195801 C112.748043,58.1706536 112.202395,57.9997568 111.814209,57.8068848 C111.426023,57.6140127 111.13794,57.3784194 110.949951,57.1000977 C110.761962,56.821776 110.667969,56.4848653 110.667969,56.0893555 C110.667969,55.4643523 110.929197,54.9480001 111.45166,54.5402832 C111.974124,54.1325663 112.643062,53.9287109 113.458496,53.9287109 C114.34229,53.9287109 115.051511,54.1472146 115.586182,54.5842285 C116.120852,55.0212424 116.388184,55.5913051 116.388184,56.2944336 L115.509277,56.2944336 C115.509277,55.8305641 115.315187,55.4448258 114.927002,55.137207 C114.538816,54.8295883 114.049319,54.6757812 113.458496,54.6757812 C112.882321,54.6757812 112.419679,54.8039538 112.070557,55.0603027 C111.721434,55.3166517 111.546875,55.6499003 111.546875,56.0600586 C111.546875,56.4555684 111.692137,56.7619618 111.982666,56.979248 C112.273195,57.1965343 112.802975,57.3955069 113.572021,57.5761719 C114.341068,57.7568368 114.917234,57.949706 115.300537,58.1547852 C115.68384,58.3598643 115.968261,58.6064439 116.153809,58.8945312 C116.339356,59.1826186 116.432129,59.5317362 116.432129,59.9418945 C116.432129,60.6108432 116.162356,61.1455058 115.622803,61.5458984 C115.083249,61.9462911 114.378911,62.1464844 113.509766,62.1464844 C112.586909,62.1464844 111.838626,61.9230979 111.264893,61.4763184 C110.691159,61.0295388 110.404297,60.4643589 110.404297,59.7807617 L111.283203,59.7807617 C111.317383,60.2934596 111.533445,60.6926255 111.931396,60.9782715 C112.329348,61.2639174 112.855465,61.4067383 113.509766,61.4067383 C114.12012,61.4067383 114.613279,61.2724623 114.989258,61.0039062 C115.365236,60.7353502 115.553223,60.3959981 115.553223,59.9858398 Z M125.148438,59.9858398 C125.148438,59.5512674 124.973879,59.2021498 124.624756,58.9384766 C124.275633,58.6748034 123.749515,58.4685066 123.046387,58.3195801 C122.343258,58.1706536 121.797609,57.9997568 121.409424,57.8068848 C121.021238,57.6140127 120.733155,57.3784194 120.545166,57.1000977 C120.357177,56.821776 120.263184,56.4848653 120.263184,56.0893555 C120.263184,55.4643523 120.524411,54.9480001 121.046875,54.5402832 C121.569339,54.1325663 122.238277,53.9287109 123.053711,53.9287109 C123.937504,53.9287109 124.646726,54.1472146 125.181396,54.5842285 C125.716067,55.0212424 125.983398,55.5913051 125.983398,56.2944336 L125.104492,56.2944336 C125.104492,55.8305641 124.910402,55.4448258 124.522217,55.137207 C124.134031,54.8295883 123.644534,54.6757812 123.053711,54.6757812 C122.477536,54.6757812 122.014894,54.8039538 121.665771,55.0603027 C121.316649,55.3166517 121.14209,55.6499003 121.14209,56.0600586 C121.14209,56.4555684 121.287352,56.7619618 121.577881,56.979248 C121.86841,57.1965343 122.39819,57.3955069 123.167236,57.5761719 C123.936283,57.7568368 124.512449,57.949706 124.895752,58.1547852 C125.279055,58.3598643 125.563476,58.6064439 125.749023,58.8945312 C125.934571,59.1826186 126.027344,59.5317362 126.027344,59.9418945 C126.027344,60.6108432 125.757571,61.1455058 125.218018,61.5458984 C124.678464,61.9462911 123.974125,62.1464844 123.10498,62.1464844 C122.182124,62.1464844 121.433841,61.9230979 120.860107,61.4763184 C120.286374,61.0295388 119.999512,60.4643589 119.999512,59.7807617 L120.878418,59.7807617 C120.912598,60.2934596 121.12866,60.6926255 121.526611,60.9782715 C121.924563,61.2639174 122.45068,61.4067383 123.10498,61.4067383 C123.715335,61.4067383 124.208494,61.2724623 124.584473,61.0039062 C124.960451,60.7353502 125.148438,60.3959981 125.148438,59.9858398 Z M130.979004,62 L130.100098,62 L130.100098,54.0751953 L130.979004,54.0751953 L130.979004,62 Z M129.946289,51.7827148 C129.946289,51.6166984 129.999999,51.4763189 130.107422,51.3615723 C130.214844,51.2468256 130.361327,51.1894531 130.546875,51.1894531 C130.732423,51.1894531 130.880126,51.2468256 130.98999,51.3615723 C131.099854,51.4763189 131.154785,51.6166984 131.154785,51.7827148 C131.154785,51.9487313 131.099854,52.0878901 130.98999,52.2001953 C130.880126,52.3125006 130.732423,52.3686523 130.546875,52.3686523 C130.361327,52.3686523 130.214844,52.3125006 130.107422,52.2001953 C129.999999,52.0878901 129.946289,51.9487313 129.946289,51.7827148 Z M134.875977,57.9204102 C134.875977,57.1586876 135.02368,56.4726593 135.319092,55.8623047 C135.614503,55.2519501 136.03198,54.7771013 136.571533,54.4377441 C137.111087,54.098387 137.722653,53.9287109 138.40625,53.9287109 C139.460943,53.9287109 140.315426,54.2985803 140.969727,55.0383301 C141.624027,55.7780799 141.951172,56.7582947 141.951172,57.9790039 L141.951172,58.1621094 C141.951172,58.9287148 141.803468,59.6184051 141.508057,60.2312012 C141.212645,60.8439972 140.796389,61.3164046 140.259277,61.6484375 C139.722165,61.9804704 139.109378,62.1464844 138.420898,62.1464844 C137.371089,62.1464844 136.517826,61.776615 135.861084,61.0368652 C135.204342,60.2971154 134.875977,59.3169006 134.875977,58.0961914 L134.875977,57.9204102 Z M135.754883,58.1621094 C135.754883,59.1093797 136.000242,59.8869599 136.490967,60.494873 C136.981692,61.1027862 137.624996,61.4067383 138.420898,61.4067383 C139.211918,61.4067383 139.852781,61.1027862 140.343506,60.494873 C140.834231,59.8869599 141.07959,59.0849659 141.07959,58.0888672 L141.07959,57.9204102 C141.07959,57.3149384 140.967286,56.7607447 140.742676,56.2578125 C140.518065,55.7548803 140.203127,55.3654799 139.797852,55.0895996 C139.392576,54.8137193 138.928714,54.6757812 138.40625,54.6757812 C137.624996,54.6757812 136.987795,54.9821747 136.494629,55.5949707 C136.001462,56.2077667 135.754883,57.0097607 135.754883,58.0009766 L135.754883,58.1621094 Z M146.595215,54.0751953 L146.624512,55.4301758 C146.922365,54.9418921 147.293455,54.5695814 147.737793,54.3132324 C148.182131,54.0568835 148.672849,53.9287109 149.209961,53.9287109 C150.059575,53.9287109 150.691892,54.1679664 151.106934,54.6464844 C151.521975,55.1250024 151.731934,55.8427687 151.736816,56.7998047 L151.736816,62 L150.865234,62 L150.865234,56.7924805 C150.860352,56.0844691 150.710207,55.5571306 150.414795,55.2104492 C150.119383,54.8637678 149.646976,54.6904297 148.997559,54.6904297 C148.455564,54.6904297 147.975832,54.8601057 147.55835,55.1994629 C147.140867,55.5388201 146.832032,55.9965792 146.631836,56.5727539 L146.631836,62 L145.760254,62 L145.760254,54.0751953 L146.595215,54.0751953 Z M161.852539,62 L161.852539,51.3359375 L164.833496,51.3359375 C165.707524,51.3359375 166.491207,51.5349101 167.18457,51.9328613 C167.877933,52.3308125 168.418699,52.9008752 168.806885,53.6430664 C169.19507,54.3852576 169.38916,55.2299757 169.38916,56.1772461 L169.38916,57.1586914 C169.38916,58.1108446 169.196291,58.9555627 168.810547,59.6928711 C168.424803,60.4301795 167.881595,60.9990214 167.180908,61.3994141 C166.480221,61.7998067 165.675786,62 164.767578,62 L161.852539,62 Z M162.753418,52.1049805 L162.753418,61.2382812 L164.774902,61.2382812 C165.897955,61.2382812 166.798825,60.8659705 167.477539,60.1213379 C168.156253,59.3767053 168.495605,58.3696353 168.495605,57.1000977 L168.495605,56.1625977 C168.495605,54.9370056 168.161136,53.9555701 167.492188,53.2182617 C166.823239,52.4809533 165.9419,52.1098633 164.848145,52.1049805 L162.753418,52.1049805 Z M174.450684,62 L173.571777,62 L173.571777,54.0751953 L174.450684,54.0751953 L174.450684,62 Z M173.417969,51.7827148 C173.417969,51.6166984 173.471679,51.4763189 173.579102,51.3615723 C173.686524,51.2468256 173.833007,51.1894531 174.018555,51.1894531 C174.204102,51.1894531 174.351806,51.2468256 174.46167,51.3615723 C174.571534,51.4763189 174.626465,51.6166984 174.626465,51.7827148 C174.626465,51.9487313 174.571534,52.0878901 174.46167,52.2001953 C174.351806,52.3125006 174.204102,52.3686523 174.018555,52.3686523 C173.833007,52.3686523 173.686524,52.3125006 173.579102,52.2001953 C173.471679,52.0878901 173.417969,51.9487313 173.417969,51.7827148 Z M183.577148,59.9858398 C183.577148,59.5512674 183.40259,59.2021498 183.053467,58.9384766 C182.704344,58.6748034 182.178226,58.4685066 181.475098,58.3195801 C180.771969,58.1706536 180.22632,57.9997568 179.838135,57.8068848 C179.449949,57.6140127 179.161866,57.3784194 178.973877,57.1000977 C178.785888,56.821776 178.691895,56.4848653 178.691895,56.0893555 C178.691895,55.4643523 178.953122,54.9480001 179.475586,54.5402832 C179.998049,54.1325663 180.666988,53.9287109 181.482422,53.9287109 C182.366215,53.9287109 183.075437,54.1472146 183.610107,54.5842285 C184.144778,55.0212424 184.412109,55.5913051 184.412109,56.2944336 L183.533203,56.2944336 C183.533203,55.8305641 183.339113,55.4448258 182.950928,55.137207 C182.562742,54.8295883 182.073245,54.6757812 181.482422,54.6757812 C180.906247,54.6757812 180.443605,54.8039538 180.094482,55.0603027 C179.74536,55.3166517 179.570801,55.6499003 179.570801,56.0600586 C179.570801,56.4555684 179.716063,56.7619618 180.006592,56.979248 C180.297121,57.1965343 180.8269,57.3955069 181.595947,57.5761719 C182.364994,57.7568368 182.94116,57.949706 183.324463,58.1547852 C183.707766,58.3598643 183.992187,58.6064439 184.177734,58.8945312 C184.363282,59.1826186 184.456055,59.5317362 184.456055,59.9418945 C184.456055,60.6108432 184.186282,61.1455058 183.646729,61.5458984 C183.107175,61.9462911 182.402836,62.1464844 181.533691,62.1464844 C180.610835,62.1464844 179.862552,61.9230979 179.288818,61.4763184 C178.715085,61.0295388 178.428223,60.4643589 178.428223,59.7807617 L179.307129,59.7807617 C179.341309,60.2934596 179.557371,60.6926255 179.955322,60.9782715 C180.353273,61.2639174 180.879391,61.4067383 181.533691,61.4067383 C182.144046,61.4067383 182.637205,61.2724623 183.013184,61.0039062 C183.389162,60.7353502 183.577148,60.3959981 183.577148,59.9858398 Z M189.788574,52.0463867 L189.788574,54.0751953 L191.429199,54.0751953 L191.429199,54.7929688 L189.788574,54.7929688 L189.788574,60.0737305 C189.788574,60.5131858 189.867919,60.840331 190.026611,61.0551758 C190.185304,61.2700206 190.450193,61.3774414 190.821289,61.3774414 C190.967774,61.3774414 191.204588,61.3530276 191.531738,61.3041992 L191.568359,62.0219727 C191.338866,62.1049809 191.026369,62.1464844 190.630859,62.1464844 C190.03027,62.1464844 189.593263,61.9719256 189.319824,61.6228027 C189.046385,61.2736799 188.909668,60.759769 188.909668,60.0810547 L188.909668,54.7929688 L187.452148,54.7929688 L187.452148,54.0751953 L188.909668,54.0751953 L188.909668,52.0463867 L189.788574,52.0463867 Z M198.907715,54.8222656 C198.722167,54.7880858 198.524415,54.7709961 198.314453,54.7709961 C197.767575,54.7709961 197.304934,54.9235825 196.926514,55.2287598 C196.548094,55.5339371 196.278321,55.9770479 196.117188,56.5581055 L196.117188,62 L195.245605,62 L195.245605,54.0751953 L196.102539,54.0751953 L196.117188,55.3349609 C196.581057,54.3974563 197.325678,53.9287109 198.351074,53.9287109 C198.595216,53.9287109 198.788085,53.9604489 198.929688,54.0239258 L198.907715,54.8222656 Z M203.273438,62 L202.394531,62 L202.394531,54.0751953 L203.273438,54.0751953 L203.273438,62 Z M202.240723,51.7827148 C202.240723,51.6166984 202.294433,51.4763189 202.401855,51.3615723 C202.509278,51.2468256 202.655761,51.1894531 202.841309,51.1894531 C203.026856,51.1894531 203.17456,51.2468256 203.284424,51.3615723 C203.394288,51.4763189 203.449219,51.6166984 203.449219,51.7827148 C203.449219,51.9487313 203.394288,52.0878901 203.284424,52.2001953 C203.17456,52.3125006 203.026856,52.3686523 202.841309,52.3686523 C202.655761,52.3686523 202.509278,52.3125006 202.401855,52.2001953 C202.294433,52.0878901 202.240723,51.9487313 202.240723,51.7827148 Z M210.583496,61.4067383 C211.193851,61.4067383 211.70532,61.2346209 212.11792,60.8903809 C212.53052,60.5461409 212.753906,60.1005887 212.788086,59.5537109 L213.630371,59.5537109 C213.605957,60.0371118 213.454591,60.4777812 213.17627,60.8757324 C212.897948,61.2736836 212.528078,61.5849598 212.06665,61.8095703 C211.605222,62.0341808 211.110842,62.1464844 210.583496,62.1464844 C209.543452,62.1464844 208.719485,61.7851599 208.111572,61.0625 C207.503659,60.3398401 207.199707,59.3681702 207.199707,58.1474609 L207.199707,57.8837891 C207.199707,57.1025352 207.336424,56.4116241 207.609863,55.8110352 C207.883302,55.2104462 208.275144,54.7465837 208.7854,54.4194336 C209.295657,54.0922835 209.892575,53.9287109 210.576172,53.9287109 C211.445317,53.9287109 212.161862,54.1874974 212.72583,54.7050781 C213.289798,55.2226588 213.591308,55.9038044 213.630371,56.7485352 L212.788086,56.7485352 C212.749023,56.1284149 212.525637,55.6279316 212.11792,55.2470703 C211.710203,54.866209 211.196292,54.6757812 210.576172,54.6757812 C209.785152,54.6757812 209.171145,54.9614229 208.734131,55.5327148 C208.297117,56.1040068 208.078613,56.90478 208.078613,57.9350586 L208.078613,58.1914062 C208.078613,59.2021535 208.297117,59.9907198 208.734131,60.5571289 C209.171145,61.123538 209.787594,61.4067383 210.583496,61.4067383 Z M218.743164,52.0463867 L218.743164,54.0751953 L220.383789,54.0751953 L220.383789,54.7929688 L218.743164,54.7929688 L218.743164,60.0737305 C218.743164,60.5131858 218.822509,60.840331 218.981201,61.0551758 C219.139893,61.2700206 219.404783,61.3774414 219.775879,61.3774414 C219.922364,61.3774414 220.159178,61.3530276 220.486328,61.3041992 L220.522949,62.0219727 C220.293456,62.1049809 219.980959,62.1464844 219.585449,62.1464844 C218.98486,62.1464844 218.547853,61.9719256 218.274414,61.6228027 C218.000975,61.2736799 217.864258,60.759769 217.864258,60.0810547 L217.864258,54.7929688 L216.406738,54.7929688 L216.406738,54.0751953 L217.864258,54.0751953 L217.864258,52.0463867 L218.743164,52.0463867 Z M230.829102,62 L229.950195,62 L229.950195,54.0751953 L230.829102,54.0751953 L230.829102,62 Z M229.796387,51.7827148 C229.796387,51.6166984 229.850097,51.4763189 229.95752,51.3615723 C230.064942,51.2468256 230.211425,51.1894531 230.396973,51.1894531 C230.58252,51.1894531 230.730224,51.2468256 230.840088,51.3615723 C230.949952,51.4763189 231.004883,51.6166984 231.004883,51.7827148 C231.004883,51.9487313 230.949952,52.0878901 230.840088,52.2001953 C230.730224,52.3125006 230.58252,52.3686523 230.396973,52.3686523 C230.211425,52.3686523 230.064942,52.3125006 229.95752,52.2001953 C229.850097,52.0878901 229.796387,51.9487313 229.796387,51.7827148 Z M239.955566,59.9858398 C239.955566,59.5512674 239.781008,59.2021498 239.431885,58.9384766 C239.082762,58.6748034 238.556644,58.4685066 237.853516,58.3195801 C237.150387,58.1706536 236.604738,57.9997568 236.216553,57.8068848 C235.828367,57.6140127 235.540284,57.3784194 235.352295,57.1000977 C235.164306,56.821776 235.070312,56.4848653 235.070312,56.0893555 C235.070312,55.4643523 235.33154,54.9480001 235.854004,54.5402832 C236.376467,54.1325663 237.045406,53.9287109 237.86084,53.9287109 C238.744633,53.9287109 239.453855,54.1472146 239.988525,54.5842285 C240.523196,55.0212424 240.790527,55.5913051 240.790527,56.2944336 L239.911621,56.2944336 C239.911621,55.8305641 239.717531,55.4448258 239.329346,55.137207 C238.94116,54.8295883 238.451663,54.6757812 237.86084,54.6757812 C237.284665,54.6757812 236.822023,54.8039538 236.4729,55.0603027 C236.123778,55.3166517 235.949219,55.6499003 235.949219,56.0600586 C235.949219,56.4555684 236.094481,56.7619618 236.38501,56.979248 C236.675539,57.1965343 237.205318,57.3955069 237.974365,57.5761719 C238.743412,57.7568368 239.319578,57.949706 239.702881,58.1547852 C240.086184,58.3598643 240.370605,58.6064439 240.556152,58.8945312 C240.7417,59.1826186 240.834473,59.5317362 240.834473,59.9418945 C240.834473,60.6108432 240.5647,61.1455058 240.025146,61.5458984 C239.485593,61.9462911 238.781254,62.1464844 237.912109,62.1464844 C236.989253,62.1464844 236.24097,61.9230979 235.667236,61.4763184 C235.093503,61.0295388 234.806641,60.4643589 234.806641,59.7807617 L235.685547,59.7807617 C235.719727,60.2934596 235.935789,60.6926255 236.33374,60.9782715 C236.731691,61.2639174 237.257809,61.4067383 237.912109,61.4067383 C238.522464,61.4067383 239.015623,61.2724623 239.391602,61.0039062 C239.76758,60.7353502 239.955566,60.3959981 239.955566,59.9858398 Z M255.45459,62 C255.366699,61.7509753 255.310547,61.3823267 255.286133,60.894043 C254.978514,61.2944356 254.586672,61.6032704 254.110596,61.8205566 C253.634519,62.0378429 253.130374,62.1464844 252.598145,62.1464844 C251.836422,62.1464844 251.219973,61.9340842 250.748779,61.5092773 C250.277586,61.0844705 250.041992,60.5473665 250.041992,59.8979492 C250.041992,59.126461 250.363034,58.5161155 251.005127,58.0668945 C251.64722,57.6176735 252.541986,57.3930664 253.689453,57.3930664 L255.278809,57.3930664 L255.278809,56.4921875 C255.278809,55.9257784 255.10425,55.4802262 254.755127,55.1555176 C254.406004,54.8308089 253.896976,54.668457 253.228027,54.668457 C252.617673,54.668457 252.112307,54.8247055 251.711914,55.137207 C251.311521,55.4497086 251.111328,55.8256814 251.111328,56.2651367 L250.232422,56.2578125 C250.232422,55.6279265 250.525388,55.0822777 251.111328,54.6208496 C251.697269,54.1594215 252.417476,53.9287109 253.271973,53.9287109 C254.155766,53.9287109 254.852781,54.149656 255.363037,54.5915527 C255.873294,55.0334495 256.135742,55.6498984 256.150391,56.440918 L256.150391,60.190918 C256.150391,60.9575234 256.230956,61.5312481 256.39209,61.9121094 L256.39209,62 L255.45459,62 Z M252.700684,61.3701172 C253.286624,61.3701172 253.8103,61.228517 254.271729,60.9453125 C254.733157,60.662108 255.068847,60.2836938 255.278809,59.8100586 L255.278809,58.0668945 L253.711426,58.0668945 C252.837398,58.0766602 252.153811,58.2365707 251.660645,58.5466309 C251.167478,58.856691 250.920898,59.2827121 250.920898,59.824707 C250.920898,60.2690452 251.085692,60.6376938 251.415283,60.9306641 C251.744875,61.2236343 252.173337,61.3701172 252.700684,61.3701172 Z M0.791015625,75.9643555 C0.791015625,74.7241149 1.06567108,73.7414587 1.61499023,73.0163574 C2.16430939,72.2912561 2.91015154,71.9287109 3.85253906,71.9287109 C4.93164602,71.9287109 5.75195032,72.3583941 6.31347656,73.2177734 L6.35742188,72.0751953 L7.17773438,72.0751953 L7.17773438,79.8388672 C7.17773438,80.8593801 6.8920927,81.6674775 6.32080078,82.2631836 C5.74950886,82.8588897 4.97559082,83.1567383 3.99902344,83.1567383 C3.44726287,83.1567383 2.92114508,83.0334485 2.4206543,82.7868652 C1.92016351,82.540282 1.52588035,82.2119161 1.23779297,81.8017578 L1.72851562,81.2744141 C2.34863591,82.0361366 3.08593323,82.4169922 3.94042969,82.4169922 C4.67285522,82.4169922 5.24413857,82.2009299 5.65429688,81.7687988 C6.06445518,81.3366678 6.2768554,80.7373085 6.29150391,79.9707031 L6.29150391,78.9746094 C5.72997766,79.7558633 4.91211475,80.1464844 3.83789062,80.1464844 C2.91991729,80.1464844 2.18261997,79.7802771 1.62597656,79.0478516 C1.06933315,78.315426 0.791015625,77.3266664 0.791015625,76.081543 L0.791015625,75.9643555 Z M1.67724609,76.1181641 C1.67724609,77.1289113 1.87988079,77.9260225 2.28515625,78.5095215 C2.69043171,79.0930205 3.26171506,79.3847656 3.99902344,79.3847656 C5.0781304,79.3847656 5.84228291,78.901372 6.29150391,77.9345703 L6.29150391,74.2504883 C6.08642476,73.7426732 5.79101755,73.3557142 5.40527344,73.0895996 C5.01952932,72.823485 4.55566677,72.6904297 4.01367188,72.6904297 C3.2763635,72.6904297 2.70263877,72.9797334 2.29248047,73.5583496 C1.88232217,74.1369658 1.67724609,74.9902287 1.67724609,76.1181641 Z M10.9794922,75.9204102 C10.9794922,75.1586876 11.1271958,74.4726593 11.4226074,73.8623047 C11.7180191,73.2519501 12.1354953,72.7771013 12.6750488,72.4377441 C13.2146023,72.098387 13.8261685,71.9287109 14.5097656,71.9287109 C15.5644584,71.9287109 16.418942,72.2985803 17.0732422,73.0383301 C17.7275423,73.7780799 18.0546875,74.7582947 18.0546875,75.9790039 L18.0546875,76.1621094 C18.0546875,76.9287148 17.9069839,77.6184051 17.6115723,78.2312012 C17.3161606,78.8439972 16.899905,79.3164046 16.362793,79.6484375 C15.8256809,79.9804704 15.2128941,80.1464844 14.5244141,80.1464844 C13.4746041,80.1464844 12.6213412,79.776615 11.9645996,79.0368652 C11.307858,78.2971154 10.9794922,77.3169006 10.9794922,76.0961914 L10.9794922,75.9204102 Z M11.8583984,76.1621094 C11.8583984,77.1093797 12.1037573,77.8869599 12.5944824,78.494873 C13.0852075,79.1027862 13.7285116,79.4067383 14.5244141,79.4067383 C15.3154336,79.4067383 15.9562964,79.1027862 16.4470215,78.494873 C16.9377466,77.8869599 17.1831055,77.0849659 17.1831055,76.0888672 L17.1831055,75.9204102 C17.1831055,75.3149384 17.0708019,74.7607447 16.8461914,74.2578125 C16.6215809,73.7548803 16.3066427,73.3654799 15.9013672,73.0895996 C15.4960917,72.8137193 15.0322292,72.6757812 14.5097656,72.6757812 C13.7285117,72.6757812 13.0913111,72.9821747 12.5981445,73.5949707 C12.104978,74.2077667 11.8583984,75.0097607 11.8583984,76.0009766 L11.8583984,76.1621094 Z M21.3803711,75.9204102 C21.3803711,75.1586876 21.5280747,74.4726593 21.8234863,73.8623047 C22.118898,73.2519501 22.5363743,72.7771013 23.0759277,72.4377441 C23.6154812,72.098387 24.2270474,71.9287109 24.9106445,71.9287109 C25.9653373,71.9287109 26.8198209,72.2985803 27.4741211,73.0383301 C28.1284212,73.7780799 28.4555664,74.7582947 28.4555664,75.9790039 L28.4555664,76.1621094 C28.4555664,76.9287148 28.3078628,77.6184051 28.0124512,78.2312012 C27.7170395,78.8439972 27.3007839,79.3164046 26.7636719,79.6484375 C26.2265598,79.9804704 25.613773,80.1464844 24.925293,80.1464844 C23.875483,80.1464844 23.0222201,79.776615 22.3654785,79.0368652 C21.708737,78.2971154 21.3803711,77.3169006 21.3803711,76.0961914 L21.3803711,75.9204102 Z M22.2592773,76.1621094 C22.2592773,77.1093797 22.5046362,77.8869599 22.9953613,78.494873 C23.4860864,79.1027862 24.1293906,79.4067383 24.925293,79.4067383 C25.7163125,79.4067383 26.3571753,79.1027862 26.8479004,78.494873 C27.3386255,77.8869599 27.5839844,77.0849659 27.5839844,76.0888672 L27.5839844,75.9204102 C27.5839844,75.3149384 27.4716808,74.7607447 27.2470703,74.2578125 C27.0224598,73.7548803 26.7075216,73.3654799 26.3022461,73.0895996 C25.8969706,72.8137193 25.4331081,72.6757812 24.9106445,72.6757812 C24.1293906,72.6757812 23.49219,72.9821747 22.9990234,73.5949707 C22.5058569,74.2077667 22.2592773,75.0097607 22.2592773,76.0009766 L22.2592773,76.1621094 Z M31.9130859,75.9643555 C31.9130859,74.7338806 32.1877414,73.7536658 32.7370605,73.0236816 C33.2863797,72.2936975 34.0322219,71.9287109 34.9746094,71.9287109 C36.0439507,71.9287109 36.8593722,72.35107 37.4208984,73.1958008 L37.4208984,68.75 L38.2924805,68.75 L38.2924805,80 L37.472168,80 L37.4355469,78.9453125 C36.8740206,79.7460978 36.0488336,80.1464844 34.9599609,80.1464844 C34.0468704,80.1464844 33.3107938,79.7790564 32.751709,79.0441895 C32.1926242,78.3093225 31.9130859,77.3169008 31.9130859,76.0668945 L31.9130859,75.9643555 Z M32.7993164,76.1181641 C32.7993164,77.1289113 33.0019511,77.9260225 33.4072266,78.5095215 C33.812502,79.0930205 34.3837854,79.3847656 35.1210938,79.3847656 C36.2002007,79.3847656 36.9667946,78.9086962 37.4208984,77.956543 L37.4208984,74.2358398 C36.9667946,73.2055613 36.2050835,72.6904297 35.1357422,72.6904297 C34.3984338,72.6904297 33.8247091,72.9797334 33.4145508,73.5583496 C33.0043925,74.1369658 32.7993164,74.9902287 32.7993164,76.1181641 Z M54.6191406,76.1181641 C54.6191406,77.3535218 54.3457059,78.3337366 53.7988281,79.0588379 C53.2519504,79.7839392 52.5195358,80.1464844 51.6015625,80.1464844 C50.5175727,80.1464844 49.6875029,79.7656288 49.1113281,79.0039062 L49.1113281,83.046875 L48.2397461,83.046875 L48.2397461,72.0751953 L49.0527344,72.0751953 L49.0966797,73.1958008 C49.6679716,72.35107 50.4956,71.9287109 51.5795898,71.9287109 C52.5268602,71.9287109 53.270261,72.2875941 53.8098145,73.0053711 C54.3493679,73.7231481 54.6191406,74.7192319 54.6191406,75.9936523 L54.6191406,76.1181641 Z M53.7402344,75.9643555 C53.7402344,74.9536082 53.5327169,74.1552764 53.1176758,73.5693359 C52.7026346,72.9833955 52.1240271,72.6904297 51.3818359,72.6904297 C50.8447239,72.6904297 50.3833027,72.8198229 49.9975586,73.0786133 C49.6118145,73.3374036 49.3164073,73.7133764 49.1113281,74.206543 L49.1113281,78.0078125 C49.3212901,78.4619163 49.6215801,78.8085926 50.012207,79.0478516 C50.402834,79.2871106 50.8642552,79.4067383 51.3964844,79.4067383 C52.1337927,79.4067383 52.7087382,79.1125518 53.1213379,78.5241699 C53.5339376,77.9357881 53.7402344,77.0825251 53.7402344,75.9643555 Z M59.5415039,80 L58.6625977,80 L58.6625977,68.75 L59.5415039,68.75 L59.5415039,80 Z M68.9243164,80 C68.8364253,79.7509753 68.7802736,79.3823267 68.7558594,78.894043 C68.4482406,79.2944356 68.0563989,79.6032704 67.5803223,79.8205566 C67.1042457,80.0378429 66.6001003,80.1464844 66.0678711,80.1464844 C65.3061485,80.1464844 64.6896996,79.9340842 64.2185059,79.5092773 C63.7473121,79.0844705 63.5117188,78.5473665 63.5117188,77.8979492 C63.5117188,77.126461 63.8327605,76.5161155 64.4748535,76.0668945 C65.1169466,75.6176735 66.011713,75.3930664 67.1591797,75.3930664 L68.7485352,75.3930664 L68.7485352,74.4921875 C68.7485352,73.9257784 68.5739764,73.4802262 68.2248535,73.1555176 C67.8757307,72.8308089 67.3667026,72.668457 66.6977539,72.668457 C66.0873993,72.668457 65.5820333,72.8247055 65.1816406,73.137207 C64.781248,73.4497086 64.5810547,73.8256814 64.5810547,74.2651367 L63.7021484,74.2578125 C63.7021484,73.6279265 63.9951143,73.0822777 64.5810547,72.6208496 C65.1669951,72.1594215 65.8872028,71.9287109 66.7416992,71.9287109 C67.6254927,71.9287109 68.3225072,72.149656 68.8327637,72.5915527 C69.3430201,73.0334495 69.6054687,73.6498984 69.6201172,74.440918 L69.6201172,78.190918 C69.6201172,78.9575234 69.7006828,79.5312481 69.8618164,79.9121094 L69.8618164,80 L68.9243164,80 Z M66.1704102,79.3701172 C66.7563506,79.3701172 67.280027,79.228517 67.7414551,78.9453125 C68.2028832,78.662108 68.5385732,78.2836938 68.7485352,77.8100586 L68.7485352,76.0668945 L67.1811523,76.0668945 C66.3071245,76.0766602 65.6235376,76.2365707 65.1303711,76.5466309 C64.6372046,76.856691 64.390625,77.2827121 64.390625,77.824707 C64.390625,78.2690452 64.5554183,78.6376938 64.8850098,78.9306641 C65.2146013,79.2236343 65.6430638,79.3701172 66.1704102,79.3701172 Z M76.8862305,79.4067383 C77.4965851,79.4067383 78.0080546,79.2346209 78.4206543,78.8903809 C78.833254,78.5461409 79.0566405,78.1005887 79.0908203,77.5537109 L79.9331055,77.5537109 C79.9086913,78.0371118 79.7573256,78.4777812 79.4790039,78.8757324 C79.2006822,79.2736836 78.8308129,79.5849598 78.3693848,79.8095703 C77.9079567,80.0341808 77.4135769,80.1464844 76.8862305,80.1464844 C75.8461862,80.1464844 75.0222198,79.7851599 74.4143066,79.0625 C73.8063934,78.3398401 73.5024414,77.3681702 73.5024414,76.1474609 L73.5024414,75.8837891 C73.5024414,75.1025352 73.6391588,74.4116241 73.9125977,73.8110352 C74.1860365,73.2104462 74.5778783,72.7465837 75.0881348,72.4194336 C75.5983912,72.0922835 76.1953091,71.9287109 76.8789062,71.9287109 C77.7480512,71.9287109 78.4645968,72.1874974 79.0285645,72.7050781 C79.5925321,73.2226588 79.8940428,73.9038044 79.9331055,74.7485352 L79.0908203,74.7485352 C79.0517576,74.1284149 78.8283712,73.6279316 78.4206543,73.2470703 C78.0129374,72.866209 77.4990265,72.6757812 76.8789062,72.6757812 C76.0878867,72.6757812 75.4738791,72.9614229 75.0368652,73.5327148 C74.5998513,74.1040068 74.3813477,74.90478 74.3813477,75.9350586 L74.3813477,76.1914062 C74.3813477,77.2021535 74.5998513,77.9907198 75.0368652,78.5571289 C75.4738791,79.123538 76.0903281,79.4067383 76.8862305,79.4067383 Z M86.7524414,80.1464844 C86.0786099,80.1464844 85.4694851,79.9804704 84.9250488,79.6484375 C84.3806125,79.3164046 83.9570328,78.8537627 83.6542969,78.260498 C83.351561,77.6672334 83.2001953,77.0019568 83.2001953,76.2646484 L83.2001953,75.949707 C83.2001953,75.1879845 83.3478989,74.5019562 83.6433105,73.8916016 C83.9387222,73.2812469 84.350095,72.8015154 84.8774414,72.4523926 C85.4047878,72.1032697 85.9760711,71.9287109 86.5913086,71.9287109 C87.5532275,71.9287109 88.3161593,72.2570768 88.880127,72.9138184 C89.4440946,73.5705599 89.7260742,74.4677677 89.7260742,75.6054688 L89.7260742,76.0961914 L84.0717773,76.0961914 L84.0717773,76.2646484 C84.0717773,77.1630904 84.3293431,77.911374 84.8444824,78.5095215 C85.3596217,79.107669 86.0078086,79.4067383 86.7890625,79.4067383 C87.2578148,79.4067383 87.6716291,79.3212899 88.0305176,79.1503906 C88.3894061,78.9794913 88.7153306,78.7060566 89.0083008,78.3300781 L89.5576172,78.7475586 C88.9130827,79.6801804 87.9780335,80.1464844 86.7524414,80.1464844 Z M86.5913086,72.6757812 C85.9321256,72.6757812 85.3767112,72.9174781 84.9250488,73.4008789 C84.4733864,73.8842798 84.198731,74.5336873 84.1010742,75.3491211 L88.8544922,75.3491211 L88.8544922,75.2539062 C88.830078,74.4921837 88.612795,73.8720727 88.2026367,73.3935547 C87.7924784,72.9150367 87.2553744,72.6757812 86.5913086,72.6757812 Z M100.442383,70.0463867 L100.442383,72.0751953 L102.083008,72.0751953 L102.083008,72.7929688 L100.442383,72.7929688 L100.442383,78.0737305 C100.442383,78.5131858 100.521728,78.840331 100.68042,79.0551758 C100.839112,79.2700206 101.104002,79.3774414 101.475098,79.3774414 C101.621583,79.3774414 101.858397,79.3530276 102.185547,79.3041992 L102.222168,80.0219727 C101.992675,80.1049809 101.680178,80.1464844 101.284668,80.1464844 C100.684079,80.1464844 100.247072,79.9719256 99.9736328,79.6228027 C99.7001939,79.2736799 99.5634766,78.759769 99.5634766,78.0810547 L99.5634766,72.7929688 L98.105957,72.7929688 L98.105957,72.0751953 L99.5634766,72.0751953 L99.5634766,70.0463867 L100.442383,70.0463867 Z M105.269531,75.9204102 C105.269531,75.1586876 105.417235,74.4726593 105.712646,73.8623047 C106.008058,73.2519501 106.425534,72.7771013 106.965088,72.4377441 C107.504641,72.098387 108.116208,71.9287109 108.799805,71.9287109 C109.854497,71.9287109 110.708981,72.2985803 111.363281,73.0383301 C112.017581,73.7780799 112.344727,74.7582947 112.344727,75.9790039 L112.344727,76.1621094 C112.344727,76.9287148 112.197023,77.6184051 111.901611,78.2312012 C111.6062,78.8439972 111.189944,79.3164046 110.652832,79.6484375 C110.11572,79.9804704 109.502933,80.1464844 108.814453,80.1464844 C107.764643,80.1464844 106.91138,79.776615 106.254639,79.0368652 C105.597897,78.2971154 105.269531,77.3169006 105.269531,76.0961914 L105.269531,75.9204102 Z M106.148438,76.1621094 C106.148438,77.1093797 106.393796,77.8869599 106.884521,78.494873 C107.375247,79.1027862 108.018551,79.4067383 108.814453,79.4067383 C109.605473,79.4067383 110.246335,79.1027862 110.737061,78.494873 C111.227786,77.8869599 111.473145,77.0849659 111.473145,76.0888672 L111.473145,75.9204102 C111.473145,75.3149384 111.360841,74.7607447 111.13623,74.2578125 C110.91162,73.7548803 110.596682,73.3654799 110.191406,73.0895996 C109.786131,72.8137193 109.322268,72.6757812 108.799805,72.6757812 C108.018551,72.6757812 107.38135,72.9821747 106.888184,73.5949707 C106.395017,74.2077667 106.148438,75.0097607 106.148438,76.0009766 L106.148438,76.1621094 Z M122.328613,80 L122.328613,72.7929688 L121.010254,72.7929688 L121.010254,72.0751953 L122.328613,72.0751953 L122.328613,71.262207 C122.328613,70.4174762 122.558103,69.7619652 123.01709,69.2956543 C123.476077,68.8293434 124.123043,68.5961914 124.958008,68.5961914 C125.612308,68.5961914 126.286129,68.7402329 126.979492,69.0283203 L126.833008,69.7827148 C126.237302,69.5239245 125.631839,69.3945312 125.016602,69.3945312 C123.810541,69.3945312 123.20752,70.0219664 123.20752,71.2768555 L123.20752,72.0751953 L125.060547,72.0751953 L125.060547,72.7929688 L123.20752,72.7929688 L123.20752,80 L122.328613,80 Z M127.455566,80 L126.57666,80 L126.57666,72.0751953 L127.455566,72.0751953 L127.455566,80 Z M132.692871,72.0751953 L132.722168,73.4301758 C133.020021,72.9418921 133.391111,72.5695814 133.835449,72.3132324 C134.279787,72.0568835 134.770505,71.9287109 135.307617,71.9287109 C136.157231,71.9287109 136.789549,72.1679664 137.20459,72.6464844 C137.619631,73.1250024 137.82959,73.8427687 137.834473,74.7998047 L137.834473,80 L136.962891,80 L136.962891,74.7924805 C136.958008,74.0844691 136.807863,73.5571306 136.512451,73.2104492 C136.21704,72.8637678 135.744632,72.6904297 135.095215,72.6904297 C134.55322,72.6904297 134.073488,72.8601057 133.656006,73.1994629 C133.238523,73.5388201 132.929689,73.9965792 132.729492,74.5727539 L132.729492,80 L131.85791,80 L131.85791,72.0751953 L132.692871,72.0751953 Z M141.746094,75.9643555 C141.746094,74.7338806 142.020749,73.7536658 142.570068,73.0236816 C143.119388,72.2936975 143.86523,71.9287109 144.807617,71.9287109 C145.876958,71.9287109 146.69238,72.35107 147.253906,73.1958008 L147.253906,68.75 L148.125488,68.75 L148.125488,80 L147.305176,80 L147.268555,78.9453125 C146.707028,79.7460978 145.881841,80.1464844 144.792969,80.1464844 C143.879878,80.1464844 143.143802,79.7790564 142.584717,79.0441895 C142.025632,78.3093225 141.746094,77.3169008 141.746094,76.0668945 L141.746094,75.9643555 Z M142.632324,76.1181641 C142.632324,77.1289113 142.834959,77.9260225 143.240234,78.5095215 C143.64551,79.0930205 144.216793,79.3847656 144.954102,79.3847656 C146.033209,79.3847656 146.799802,78.9086962 147.253906,77.956543 L147.253906,74.2358398 C146.799802,73.2055613 146.038091,72.6904297 144.96875,72.6904297 C144.231442,72.6904297 143.657717,72.9797334 143.247559,73.5583496 C142.8374,74.1369658 142.632324,74.9902287 142.632324,76.1181641 Z M160.592285,78.7402344 L162.906738,72.0751953 L163.851562,72.0751953 L160.467773,81.3476562 L160.291992,81.7578125 C159.85742,82.7197314 159.18604,83.2006836 158.277832,83.2006836 C158.06787,83.2006836 157.843263,83.1665042 157.604004,83.0981445 L157.59668,82.3730469 L158.050781,82.4169922 C158.480471,82.4169922 158.828368,82.3107921 159.094482,82.0983887 C159.360597,81.8859853 159.586425,81.5209987 159.771973,81.003418 L160.160156,79.934082 L157.171875,72.0751953 L158.131348,72.0751953 L160.592285,78.7402344 Z M166.613281,75.9204102 C166.613281,75.1586876 166.760985,74.4726593 167.056396,73.8623047 C167.351808,73.2519501 167.769284,72.7771013 168.308838,72.4377441 C168.848391,72.098387 169.459958,71.9287109 170.143555,71.9287109 C171.198247,71.9287109 172.052731,72.2985803 172.707031,73.0383301 C173.361331,73.7780799 173.688477,74.7582947 173.688477,75.9790039 L173.688477,76.1621094 C173.688477,76.9287148 173.540773,77.6184051 173.245361,78.2312012 C172.94995,78.8439972 172.533694,79.3164046 171.996582,79.6484375 C171.45947,79.9804704 170.846683,80.1464844 170.158203,80.1464844 C169.108393,80.1464844 168.25513,79.776615 167.598389,79.0368652 C166.941647,78.2971154 166.613281,77.3169006 166.613281,76.0961914 L166.613281,75.9204102 Z M167.492188,76.1621094 C167.492188,77.1093797 167.737546,77.8869599 168.228271,78.494873 C168.718997,79.1027862 169.362301,79.4067383 170.158203,79.4067383 C170.949223,79.4067383 171.590085,79.1027862 172.080811,78.494873 C172.571536,77.8869599 172.816895,77.0849659 172.816895,76.0888672 L172.816895,75.9204102 C172.816895,75.3149384 172.704591,74.7607447 172.47998,74.2578125 C172.25537,73.7548803 171.940432,73.3654799 171.535156,73.0895996 C171.129881,72.8137193 170.666018,72.6757812 170.143555,72.6757812 C169.362301,72.6757812 168.7251,72.9821747 168.231934,73.5949707 C167.738767,74.2077667 167.492188,75.0097607 167.492188,76.0009766 L167.492188,76.1621094 Z M182.595215,78.996582 C182.067868,79.7631874 181.225592,80.1464844 180.068359,80.1464844 C179.223629,80.1464844 178.581545,79.9011255 178.14209,79.4104004 C177.702635,78.9196753 177.478027,78.1933642 177.468262,77.2314453 L177.468262,72.0751953 L178.339844,72.0751953 L178.339844,77.121582 C178.339844,78.6303786 178.950189,79.3847656 180.170898,79.3847656 C181.440436,79.3847656 182.243651,78.8598685 182.580566,77.8100586 L182.580566,72.0751953 L183.459473,72.0751953 L183.459473,80 L182.609863,80 L182.595215,78.996582 Z M191.399414,72.8222656 C191.213866,72.7880858 191.016114,72.7709961 190.806152,72.7709961 C190.259275,72.7709961 189.796633,72.9235825 189.418213,73.2287598 C189.039793,73.5339371 188.77002,73.9770479 188.608887,74.5581055 L188.608887,80 L187.737305,80 L187.737305,72.0751953 L188.594238,72.0751953 L188.608887,73.3349609 C189.072756,72.3974563 189.817378,71.9287109 190.842773,71.9287109 C191.086915,71.9287109 191.279784,71.9604489 191.421387,72.0239258 L191.399414,72.8222656 Z M205.316406,69.5849609 C204.593746,69.4384758 203.993166,69.3652344 203.514648,69.3652344 C203.011716,69.3652344 202.623537,69.5153794 202.350098,69.8156738 C202.076659,70.1159683 201.939941,70.5419894 201.939941,71.09375 L201.939941,72.0751953 L203.82959,72.0751953 L203.82959,72.7929688 L201.939941,72.7929688 L201.939941,80 L201.061035,80 L201.061035,72.7929688 L199.75,72.7929688 L199.75,72.0751953 L201.061035,72.0751953 L201.061035,71.0644531 C201.065918,70.2636679 201.278318,69.6521017 201.698242,69.2297363 C202.118166,68.8073709 202.704098,68.5961914 203.456055,68.5961914 C204.061526,68.5961914 204.972162,68.7451157 206.187988,69.0429688 L206.187988,80 L205.316406,80 L205.316406,69.5849609 Z M210.114258,75.9204102 C210.114258,75.1586876 210.261961,74.4726593 210.557373,73.8623047 C210.852785,73.2519501 211.270261,72.7771013 211.809814,72.4377441 C212.349368,72.098387 212.960934,71.9287109 213.644531,71.9287109 C214.699224,71.9287109 215.553708,72.2985803 216.208008,73.0383301 C216.862308,73.7780799 217.189453,74.7582947 217.189453,75.9790039 L217.189453,76.1621094 C217.189453,76.9287148 217.04175,77.6184051 216.746338,78.2312012 C216.450926,78.8439972 216.034671,79.3164046 215.497559,79.6484375 C214.960447,79.9804704 214.34766,80.1464844 213.65918,80.1464844 C212.60937,80.1464844 211.756107,79.776615 211.099365,79.0368652 C210.442624,78.2971154 210.114258,77.3169006 210.114258,76.0961914 L210.114258,75.9204102 Z M210.993164,76.1621094 C210.993164,77.1093797 211.238523,77.8869599 211.729248,78.494873 C212.219973,79.1027862 212.863277,79.4067383 213.65918,79.4067383 C214.450199,79.4067383 215.091062,79.1027862 215.581787,78.494873 C216.072512,77.8869599 216.317871,77.0849659 216.317871,76.0888672 L216.317871,75.9204102 C216.317871,75.3149384 216.205568,74.7607447 215.980957,74.2578125 C215.756347,73.7548803 215.441408,73.3654799 215.036133,73.0895996 C214.630857,72.8137193 214.166995,72.6757812 213.644531,72.6757812 C212.863277,72.6757812 212.226077,72.9821747 211.73291,73.5949707 C211.239744,74.2077667 210.993164,75.0097607 210.993164,76.0009766 L210.993164,76.1621094 Z M222.895508,78.1762695 L223.027344,78.8574219 L223.203125,78.1396484 L225.107422,72.0751953 L225.854492,72.0751953 L227.736816,78.0883789 L227.941895,78.9233398 L228.110352,78.1542969 L229.736328,72.0751953 L230.644531,72.0751953 L228.337402,80 L227.590332,80 L225.554199,73.7158203 L225.458984,73.2836914 L225.36377,73.7231445 L223.364258,80 L222.617188,80 L220.317383,72.0751953 L221.218262,72.0751953 L222.895508,78.1762695 Z M233.318359,79.4726562 C233.318359,79.301757 233.37329,79.1564947 233.483154,79.0368652 C233.593018,78.9172357 233.745604,78.8574219 233.940918,78.8574219 C234.136231,78.8574219 234.290039,78.9172357 234.402344,79.0368652 C234.514649,79.1564947 234.570801,79.301757 234.570801,79.4726562 C234.570801,79.6435555 234.514649,79.783935 234.402344,79.8937988 C234.290039,80.0036627 234.136231,80.0585938 233.940918,80.0585938 C233.745604,80.0585938 233.593018,80.0036627 233.483154,79.8937988 C233.37329,79.783935 233.318359,79.6435555 233.318359,79.4726562 Z" id="The-oldest-climbing"></path>
            </g>
        </g>
    </g>
</svg>