<?xml version="1.0" encoding="UTF-8"?>
<svg width="244px" height="84px" viewBox="0 0 244 84" version="1.1" xmlns="http://www.w3.org/2000/svg" xmlns:xlink="http://www.w3.org/1999/xlink">
    <!-- Generator: Sketch 41.2 (35397) - http://www.bohemiancoding.com/sketch -->
    <title>Group 6</title>
    <desc>Created with Sketch.</desc>
    <defs></defs>
    <g id="Page-1" stroke="none" stroke-width="1" fill="none" fill-rule="evenodd">
        <g id="Desktop-HD" transform="translate(-787.000000, -237.000000)" fill="#000000">
            <g id="Group-6" transform="translate(787.000000, 237.000000)">
                <path d="M6.65771484,8.25341797 C6.65771484,7.78466563 6.49292157,7.42334111 6.16333008,7.16943359 C5.83373859,6.91552607 5.23926211,6.65918098 4.37988281,6.40039063 C3.52050352,6.14160027 2.8369166,5.85351721 2.32910156,5.53613281 C1.35741702,4.9257782 0.871582031,4.12988772 0.871582031,3.1484375 C0.871582031,2.2890582 1.22192032,1.58105747 1.92260742,1.02441406 C2.62329452,0.467770654 3.53270925,0.189453125 4.65087891,0.189453125 C5.39307012,0.189453125 6.05468459,0.326170508 6.63574219,0.599609375 C7.21679978,0.873048242 7.67333818,1.26244865 8.00537109,1.76782227 C8.337404,2.27319589 8.50341797,2.83349302 8.50341797,3.44873047 L6.65771484,3.44873047 C6.65771484,2.89208706 6.48315604,2.4563004 6.1340332,2.14135742 C5.78491036,1.82641444 5.28564778,1.66894531 4.63623047,1.66894531 C4.03075869,1.66894531 3.56079269,1.79833855 3.22631836,2.05712891 C2.89184403,2.31591926 2.72460938,2.67724377 2.72460938,3.14111328 C2.72460938,3.53174023 2.90527163,3.85766471 3.26660156,4.11889648 C3.62793149,4.38012826 4.22362866,4.63403197 5.05371094,4.88061523 C5.88379321,5.1271985 6.55029045,5.40795741 7.05322266,5.72290039 C7.55615486,6.03784337 7.92480352,6.39916788 8.15917969,6.80688477 C8.39355586,7.21460165 8.51074219,7.6918918 8.51074219,8.23876953 C8.51074219,9.12744585 8.17016942,9.83422589 7.48901367,10.3591309 C6.80785792,10.8840358 5.8837949,11.1464844 4.71679688,11.1464844 C3.94530864,11.1464844 3.23608722,11.0036635 2.58911133,10.7180176 C1.94213544,10.4323716 1.43921078,10.0380885 1.08032227,9.53515625 C0.721433752,9.03222405 0.541992188,8.44629241 0.541992188,7.77734375 L2.39501953,7.77734375 C2.39501953,8.38281553 2.59521284,8.85156084 2.99560547,9.18359375 C3.3959981,9.51562666 3.96972283,9.68164062 4.71679688,9.68164062 C5.36133135,9.68164062 5.84594564,9.5510267 6.1706543,9.28979492 C6.49536295,9.02856315 6.65771484,8.68310762 6.65771484,8.25341797 Z M18.105957,8.51708984 L13.9750977,8.51708984 L13.1108398,11 L11.1845703,11 L15.2128906,0.3359375 L16.8754883,0.3359375 L20.9111328,11 L18.9775391,11 L18.105957,8.51708984 Z M14.4951172,7.02294922 L17.5859375,7.02294922 L16.0405273,2.59912109 L14.4951172,7.02294922 Z M26.0751953,11 L24.2294922,11 L24.2294922,0.3359375 L26.0751953,0.3359375 L26.0751953,11 Z M38.8125,11 L36.9594727,11 L32.2060547,3.43408203 L32.2060547,11 L30.3530273,11 L30.3530273,0.3359375 L32.2060547,0.3359375 L36.9741211,7.93115234 L36.9741211,0.3359375 L38.8125,0.3359375 L38.8125,11 Z M50.4951172,1.83007812 L47.1699219,1.83007812 L47.1699219,11 L45.331543,11 L45.331543,1.83007812 L42.0356445,1.83007812 L42.0356445,0.3359375 L50.4951172,0.3359375 L50.4951172,1.83007812 Z M67.3637695,9.61572266 C66.9780254,10.1186549 66.4433628,10.4995104 65.7597656,10.7583008 C65.0761685,11.0170911 64.299809,11.1464844 63.4306641,11.1464844 C62.5371049,11.1464844 61.7460972,10.9438497 61.0576172,10.5385742 C60.3691372,10.1332988 59.8381366,9.55347057 59.4645996,8.79907227 C59.0910626,8.04467396 58.8969727,7.16455581 58.8823242,6.15869141 L58.8823242,5.32373047 C58.8823242,3.71239429 59.2680625,2.45386195 60.0395508,1.5480957 C60.811039,0.642329456 61.8876884,0.189453125 63.2695312,0.189453125 C64.4560606,0.189453125 65.398434,0.482418945 66.0966797,1.06835938 C66.7949254,1.6542998 67.214843,2.49901792 67.3564453,3.60253906 L65.5400391,3.60253906 C65.3349599,2.31835295 64.5903385,1.67626953 63.3061523,1.67626953 C62.4760701,1.67626953 61.8449729,1.97533881 61.4128418,2.57348633 C60.9807107,3.17163385 60.7573243,4.04931062 60.7426758,5.20654297 L60.7426758,6.02685547 C60.7426758,7.17920498 60.9855933,8.07397142 61.4714355,8.71118164 C61.9572778,9.34839186 62.6323199,9.66699219 63.496582,9.66699219 C64.4438524,9.66699219 65.1176738,9.45215059 65.5180664,9.02246094 L65.5180664,6.93505859 L63.3208008,6.93505859 L63.3208008,5.52880859 L67.3637695,5.52880859 L67.3637695,9.61572266 Z M77.6328125,6.23925781 L73.2529297,6.23925781 L73.2529297,9.52050781 L78.3725586,9.52050781 L78.3725586,11 L71.3999023,11 L71.3999023,0.3359375 L78.3212891,0.3359375 L78.3212891,1.83007812 L73.2529297,1.83007812 L73.2529297,4.77441406 L77.6328125,4.77441406 L77.6328125,6.23925781 Z M90.3920898,5.94628906 C90.3920898,6.99121616 90.2114276,7.90795504 89.8500977,8.6965332 C89.4887677,9.48511136 88.9724155,10.0905741 88.3010254,10.5129395 C87.6296353,10.9353048 86.856938,11.1464844 85.9829102,11.1464844 C85.118648,11.1464844 84.3483921,10.9353048 83.6721191,10.5129395 C82.9958462,10.0905741 82.4733905,9.48877344 82.1047363,8.70751953 C81.7360821,7.92626563 81.5493164,7.02539573 81.5444336,6.00488281 L81.5444336,5.40429688 C81.5444336,4.36425261 81.7287579,3.44629304 82.0974121,2.65039062 C82.4660663,1.85448821 82.9860806,1.24536344 83.6574707,0.822998047 C84.3288608,0.400632654 85.0991167,0.189453125 85.9682617,0.189453125 C86.8374067,0.189453125 87.6076627,0.398191272 88.2790527,0.815673828 C88.9504428,1.23315638 89.4692365,1.83373632 89.8354492,2.61743164 C90.201662,3.40112697 90.387207,4.31298308 90.3920898,5.35302734 L90.3920898,5.94628906 Z M88.5390625,5.38964844 C88.5390625,4.2080019 88.3156761,3.30224924 87.8688965,2.67236328 C87.4221169,2.04247732 86.7885783,1.72753906 85.9682617,1.72753906 C85.1674765,1.72753906 84.541262,2.04125663 84.0895996,2.66870117 C83.6379372,3.29614572 83.4072266,4.18358801 83.3974609,5.33105469 L83.3974609,5.94628906 C83.3974609,7.11816992 83.6257301,8.02392258 84.0822754,8.66357422 C84.5388206,9.30322585 85.1723592,9.62304688 85.9829102,9.62304688 C86.8032268,9.62304688 87.434324,9.31055 87.8762207,8.68554688 C88.3181174,8.06054375 88.5390625,7.14746694 88.5390625,5.94628906 L88.5390625,5.38964844 Z M98.15625,6.89111328 L96.0908203,6.89111328 L96.0908203,11 L94.237793,11 L94.237793,0.3359375 L97.987793,0.3359375 C99.2182679,0.3359375 100.167965,0.611813647 100.836914,1.16357422 C101.505863,1.71533479 101.840332,2.51366665 101.840332,3.55859375 C101.840332,4.27148794 101.668215,4.8684058 101.323975,5.34936523 C100.979735,5.83032467 100.500003,6.20019402 99.8847656,6.45898438 L102.279785,10.9047852 L102.279785,11 L100.294922,11 L98.15625,6.89111328 Z M96.0908203,5.40429688 L97.9951172,5.40429688 C98.6201203,5.40429688 99.1083967,5.24682775 99.4599609,4.93188477 C99.8115252,4.61694178 99.9873047,4.18603789 99.9873047,3.63916016 C99.9873047,3.06786824 99.8249528,2.62597812 99.5002441,2.31347656 C99.1755355,2.000975 98.6909212,1.8398438 98.0463867,1.83007812 L96.0908203,1.83007812 L96.0908203,5.40429688 Z M113.771973,9.61572266 C113.386229,10.1186549 112.851566,10.4995104 112.167969,10.7583008 C111.484372,11.0170911 110.708012,11.1464844 109.838867,11.1464844 C108.945308,11.1464844 108.1543,10.9438497 107.46582,10.5385742 C106.77734,10.1332988 106.24634,9.55347057 105.872803,8.79907227 C105.499266,8.04467396 105.305176,7.16455581 105.290527,6.15869141 L105.290527,5.32373047 C105.290527,3.71239429 105.676266,2.45386195 106.447754,1.5480957 C107.219242,0.642329456 108.295892,0.189453125 109.677734,0.189453125 C110.864264,0.189453125 111.806637,0.482418945 112.504883,1.06835938 C113.203128,1.6542998 113.623046,2.49901792 113.764648,3.60253906 L111.948242,3.60253906 C111.743163,2.31835295 110.998542,1.67626953 109.714355,1.67626953 C108.884273,1.67626953 108.253176,1.97533881 107.821045,2.57348633 C107.388914,3.17163385 107.165527,4.04931062 107.150879,5.20654297 L107.150879,6.02685547 C107.150879,7.17920498 107.393796,8.07397142 107.879639,8.71118164 C108.365481,9.34839186 109.040523,9.66699219 109.904785,9.66699219 C110.852056,9.66699219 111.525877,9.45215059 111.92627,9.02246094 L111.92627,6.93505859 L109.729004,6.93505859 L109.729004,5.52880859 L113.771973,5.52880859 L113.771973,9.61572266 Z M124.041016,6.23925781 L119.661133,6.23925781 L119.661133,9.52050781 L124.780762,9.52050781 L124.780762,11 L117.808105,11 L117.808105,0.3359375 L124.729492,0.3359375 L124.729492,1.83007812 L119.661133,1.83007812 L119.661133,4.77441406 L124.041016,4.77441406 L124.041016,6.23925781 Z" id="SAINT-GEORGE"></path>
                <path d="M7.10449219,41.0117188 L2.26318359,41.0117188 L1.16455078,44 L0.219726562,44 L4.25537109,33.3359375 L5.11230469,33.3359375 L9.14794922,44 L8.21044922,44 L7.10449219,41.0117188 Z M2.54150391,40.2426758 L6.81884766,40.2426758 L4.68017578,34.4345703 L2.54150391,40.2426758 Z M13.1401367,44 L13.1401367,36.7929688 L11.8291016,36.7929688 L11.8291016,36.0751953 L13.1401367,36.0751953 L13.1401367,35.1157227 C13.1401367,34.3051717 13.3464335,33.6826194 13.7590332,33.2480469 C14.1716329,32.8134744 14.7465783,32.5961914 15.4838867,32.5961914 C15.8159196,32.5961914 16.1259751,32.6376949 16.4140625,32.7207031 L16.3481445,33.453125 C16.1040027,33.394531 15.8378921,33.3652344 15.5498047,33.3652344 C15.0664038,33.3652344 14.690431,33.5153794 14.421875,33.8156738 C14.153319,34.1159683 14.019043,34.5419894 14.019043,35.09375 L14.019043,36.0751953 L15.9086914,36.0751953 L15.9086914,36.7929688 L14.019043,36.7929688 L14.019043,44 L13.1401367,44 Z M20.8383789,34.0463867 L20.8383789,36.0751953 L22.4790039,36.0751953 L22.4790039,36.7929688 L20.8383789,36.7929688 L20.8383789,42.0737305 C20.8383789,42.5131858 20.9177238,42.840331 21.076416,43.0551758 C21.2351082,43.2700206 21.4999981,43.3774414 21.8710938,43.3774414 C22.0175789,43.3774414 22.2543929,43.3530276 22.581543,43.3041992 L22.6181641,44.0219727 C22.3886707,44.1049809 22.0761739,44.1464844 21.6806641,44.1464844 C21.0800751,44.1464844 20.6430678,43.9719256 20.3696289,43.6228027 C20.09619,43.2736799 19.9594727,42.759769 19.9594727,42.0810547 L19.9594727,36.7929688 L18.5019531,36.7929688 L18.5019531,36.0751953 L19.9594727,36.0751953 L19.9594727,34.0463867 L20.8383789,34.0463867 Z M29.3642578,44.1464844 C28.6904263,44.1464844 28.0813016,43.9804704 27.5368652,43.6484375 C26.9924289,43.3164046 26.5688492,42.8537627 26.2661133,42.260498 C25.9633774,41.6672334 25.8120117,41.0019568 25.8120117,40.2646484 L25.8120117,39.949707 C25.8120117,39.1879845 25.9597153,38.5019562 26.255127,37.8916016 C26.5505386,37.2812469 26.9619114,36.8015154 27.4892578,36.4523926 C28.0166042,36.1032697 28.5878875,35.9287109 29.203125,35.9287109 C30.1650439,35.9287109 30.9279757,36.2570768 31.4919434,36.9138184 C32.055911,37.5705599 32.3378906,38.4677677 32.3378906,39.6054688 L32.3378906,40.0961914 L26.6835938,40.0961914 L26.6835938,40.2646484 C26.6835938,41.1630904 26.9411595,41.911374 27.4562988,42.5095215 C27.9714381,43.107669 28.619625,43.4067383 29.4008789,43.4067383 C29.8696312,43.4067383 30.2834455,43.3212899 30.642334,43.1503906 C31.0012225,42.9794913 31.327147,42.7060566 31.6201172,42.3300781 L32.1694336,42.7475586 C31.5248991,43.6801804 30.5898499,44.1464844 29.3642578,44.1464844 Z M29.203125,36.6757812 C28.543942,36.6757812 27.9885276,36.9174781 27.5368652,37.4008789 C27.0852028,37.8842798 26.8105474,38.5336873 26.7128906,39.3491211 L31.4663086,39.3491211 L31.4663086,39.2539062 C31.4418944,38.4921837 31.2246114,37.8720727 30.8144531,37.3935547 C30.4042948,36.9150367 29.8671908,36.6757812 29.203125,36.6757812 Z M39.706543,36.8222656 C39.5209952,36.7880858 39.3232432,36.7709961 39.1132812,36.7709961 C38.5664035,36.7709961 38.1037617,36.9235825 37.7253418,37.2287598 C37.3469219,37.5339371 37.0771492,37.9770479 36.9160156,38.5581055 L36.9160156,44 L36.0444336,44 L36.0444336,36.0751953 L36.9013672,36.0751953 L36.9160156,37.3349609 C37.3798851,36.3974563 38.1245066,35.9287109 39.1499023,35.9287109 C39.3940442,35.9287109 39.5869134,35.9604489 39.7285156,36.0239258 L39.706543,36.8222656 Z M49.5366211,36.0751953 L49.565918,37.3642578 C49.8588882,36.8857398 50.2250955,36.5268567 50.6645508,36.2875977 C51.1040061,36.0483386 51.5922825,35.9287109 52.1293945,35.9287109 C53.3794008,35.9287109 54.1728499,36.4414011 54.5097656,37.4667969 C54.7929702,36.9736303 55.1713844,36.5939955 55.6450195,36.3278809 C56.1186547,36.0617662 56.6411104,35.9287109 57.2124023,35.9287109 C58.9116296,35.9287109 59.7783201,36.856436 59.8125,38.7119141 L59.8125,44 L58.9335938,44 L58.9335938,38.777832 C58.9287109,38.0698207 58.7761245,37.5449236 58.4758301,37.203125 C58.1755356,36.8613264 57.6860385,36.6904297 57.0073242,36.6904297 C56.3774383,36.7001954 55.845217,36.9040507 55.4106445,37.302002 C54.976072,37.6999532 54.7343752,38.1845675 54.6855469,38.7558594 L54.6855469,44 L53.8066406,44 L53.8066406,38.7119141 C53.8017578,38.0331997 53.6418473,37.526613 53.3269043,37.1921387 C53.0119613,36.8576643 52.527347,36.6904297 51.8730469,36.6904297 C51.3212863,36.6904297 50.8476582,36.8478988 50.4521484,37.1628418 C50.0566386,37.4777848 49.7636728,37.9453094 49.5732422,38.5654297 L49.5732422,44 L48.6943359,44 L48.6943359,36.0751953 L49.5366211,36.0751953 Z M63.5483398,39.9204102 C63.5483398,39.1586876 63.6960434,38.4726593 63.9914551,37.8623047 C64.2868667,37.2519501 64.704343,36.7771013 65.2438965,36.4377441 C65.78345,36.098387 66.3950161,35.9287109 67.0786133,35.9287109 C68.1333061,35.9287109 68.9877897,36.2985803 69.6420898,37.0383301 C70.29639,37.7780799 70.6235352,38.7582947 70.6235352,39.9790039 L70.6235352,40.1621094 C70.6235352,40.9287148 70.4758316,41.6184051 70.1804199,42.2312012 C69.8850083,42.8439972 69.4687527,43.3164046 68.9316406,43.6484375 C68.3945286,43.9804704 67.7817417,44.1464844 67.0932617,44.1464844 C66.0434518,44.1464844 65.1901888,43.776615 64.5334473,43.0368652 C63.8767057,42.2971154 63.5483398,41.3169006 63.5483398,40.0961914 L63.5483398,39.9204102 Z M64.4272461,40.1621094 C64.4272461,41.1093797 64.672605,41.8869599 65.1633301,42.494873 C65.6540552,43.1027862 66.2973593,43.4067383 67.0932617,43.4067383 C67.8842813,43.4067383 68.525144,43.1027862 69.0158691,42.494873 C69.5065943,41.8869599 69.7519531,41.0849659 69.7519531,40.0888672 L69.7519531,39.9204102 C69.7519531,39.3149384 69.6396496,38.7607447 69.4150391,38.2578125 C69.1904286,37.7548803 68.8754903,37.3654799 68.4702148,37.0895996 C68.0649394,36.8137193 67.6010768,36.6757812 67.0786133,36.6757812 C66.2973594,36.6757812 65.6601587,36.9821747 65.1669922,37.5949707 C64.6738257,38.2077667 64.4272461,39.0097607 64.4272461,40.0009766 L64.4272461,40.1621094 Z M78.0947266,36.8222656 C77.9091788,36.7880858 77.7114268,36.7709961 77.5014648,36.7709961 C76.9545871,36.7709961 76.4919453,36.9235825 76.1135254,37.2287598 C75.7351055,37.5339371 75.4653328,37.9770479 75.3041992,38.5581055 L75.3041992,44 L74.4326172,44 L74.4326172,36.0751953 L75.2895508,36.0751953 L75.3041992,37.3349609 C75.7680687,36.3974563 76.5126902,35.9287109 77.5380859,35.9287109 C77.7822278,35.9287109 77.9750969,35.9604489 78.1166992,36.0239258 L78.0947266,36.8222656 Z M84.4086914,44.1464844 C83.7348599,44.1464844 83.1257351,43.9804704 82.5812988,43.6484375 C82.0368625,43.3164046 81.6132828,42.8537627 81.3105469,42.260498 C81.007811,41.6672334 80.8564453,41.0019568 80.8564453,40.2646484 L80.8564453,39.949707 C80.8564453,39.1879845 81.0041489,38.5019562 81.2995605,37.8916016 C81.5949722,37.2812469 82.006345,36.8015154 82.5336914,36.4523926 C83.0610378,36.1032697 83.6323211,35.9287109 84.2475586,35.9287109 C85.2094775,35.9287109 85.9724093,36.2570768 86.536377,36.9138184 C87.1003446,37.5705599 87.3823242,38.4677677 87.3823242,39.6054688 L87.3823242,40.0961914 L81.7280273,40.0961914 L81.7280273,40.2646484 C81.7280273,41.1630904 81.9855931,41.911374 82.5007324,42.5095215 C83.0158717,43.107669 83.6640586,43.4067383 84.4453125,43.4067383 C84.9140648,43.4067383 85.3278791,43.3212899 85.6867676,43.1503906 C86.0456561,42.9794913 86.3715806,42.7060566 86.6645508,42.3300781 L87.2138672,42.7475586 C86.5693327,43.6801804 85.6342835,44.1464844 84.4086914,44.1464844 Z M84.2475586,36.6757812 C83.5883756,36.6757812 83.0329612,36.9174781 82.5812988,37.4008789 C82.1296364,37.8842798 81.854981,38.5336873 81.7573242,39.3491211 L86.5107422,39.3491211 L86.5107422,39.2539062 C86.486328,38.4921837 86.269045,37.8720727 85.8588867,37.3935547 C85.4487284,36.9150367 84.9116244,36.6757812 84.2475586,36.6757812 Z M98.0986328,34.0463867 L98.0986328,36.0751953 L99.7392578,36.0751953 L99.7392578,36.7929688 L98.0986328,36.7929688 L98.0986328,42.0737305 C98.0986328,42.5131858 98.1779777,42.840331 98.3366699,43.0551758 C98.4953621,43.2700206 98.7602521,43.3774414 99.1313477,43.3774414 C99.2778328,43.3774414 99.5146468,43.3530276 99.8417969,43.3041992 L99.878418,44.0219727 C99.6489246,44.1049809 99.3364278,44.1464844 98.940918,44.1464844 C98.340329,44.1464844 97.9033217,43.9719256 97.6298828,43.6228027 C97.3564439,43.2736799 97.2197266,42.759769 97.2197266,42.0810547 L97.2197266,36.7929688 L95.762207,36.7929688 L95.762207,36.0751953 L97.2197266,36.0751953 L97.2197266,34.0463867 L98.0986328,34.0463867 Z M104.427246,37.4155273 C104.715333,36.9418922 105.083982,36.5756849 105.533203,36.3168945 C105.982424,36.0581042 106.473142,35.9287109 107.005371,35.9287109 C107.854985,35.9287109 108.487303,36.1679664 108.902344,36.6464844 C109.317385,37.1250024 109.527344,37.8427687 109.532227,38.7998047 L109.532227,44 L108.660645,44 L108.660645,38.7924805 C108.655762,38.0844691 108.505617,37.5571306 108.210205,37.2104492 C107.914793,36.8637678 107.442386,36.6904297 106.792969,36.6904297 C106.250974,36.6904297 105.771242,36.8601057 105.35376,37.1994629 C104.936277,37.5388201 104.627442,37.9965792 104.427246,38.5727539 L104.427246,44 L103.555664,44 L103.555664,32.75 L104.427246,32.75 L104.427246,37.4155273 Z M118.790527,44 C118.702636,43.7509753 118.646484,43.3823267 118.62207,42.894043 C118.314452,43.2944356 117.92261,43.6032704 117.446533,43.8205566 C116.970457,44.0378429 116.466311,44.1464844 115.934082,44.1464844 C115.172359,44.1464844 114.555911,43.9340842 114.084717,43.5092773 C113.613523,43.0844705 113.37793,42.5473665 113.37793,41.8979492 C113.37793,41.126461 113.698971,40.5161155 114.341064,40.0668945 C114.983158,39.6176735 115.877924,39.3930664 117.025391,39.3930664 L118.614746,39.3930664 L118.614746,38.4921875 C118.614746,37.9257784 118.440187,37.4802262 118.091064,37.1555176 C117.741942,36.8308089 117.232914,36.668457 116.563965,36.668457 C115.95361,36.668457 115.448244,36.8247055 115.047852,37.137207 C114.647459,37.4497086 114.447266,37.8256814 114.447266,38.2651367 L113.568359,38.2578125 C113.568359,37.6279265 113.861325,37.0822777 114.447266,36.6208496 C115.033206,36.1594215 115.753414,35.9287109 116.60791,35.9287109 C117.491704,35.9287109 118.188718,36.149656 118.698975,36.5915527 C119.209231,37.0334495 119.47168,37.6498984 119.486328,38.440918 L119.486328,42.190918 C119.486328,42.9575234 119.566894,43.5312481 119.728027,43.9121094 L119.728027,44 L118.790527,44 Z M116.036621,43.3701172 C116.622562,43.3701172 117.146238,43.228517 117.607666,42.9453125 C118.069094,42.662108 118.404784,42.2836938 118.614746,41.8100586 L118.614746,40.0668945 L117.047363,40.0668945 C116.173335,40.0766602 115.489749,40.2365707 114.996582,40.5466309 C114.503416,40.856691 114.256836,41.2827121 114.256836,41.824707 C114.256836,42.2690452 114.421629,42.6376938 114.751221,42.9306641 C115.080812,43.2236343 115.509275,43.3701172 116.036621,43.3701172 Z M124.657715,36.0751953 L124.687012,37.4301758 C124.984865,36.9418921 125.355955,36.5695814 125.800293,36.3132324 C126.244631,36.0568835 126.735349,35.9287109 127.272461,35.9287109 C128.122075,35.9287109 128.754392,36.1679664 129.169434,36.6464844 C129.584475,37.1250024 129.794434,37.8427687 129.799316,38.7998047 L129.799316,44 L128.927734,44 L128.927734,38.7924805 C128.922852,38.0844691 128.772707,37.5571306 128.477295,37.2104492 C128.181883,36.8637678 127.709476,36.6904297 127.060059,36.6904297 C126.518064,36.6904297 126.038332,36.8601057 125.62085,37.1994629 C125.203367,37.5388201 124.894532,37.9965792 124.694336,38.5727539 L124.694336,44 L123.822754,44 L123.822754,36.0751953 L124.657715,36.0751953 Z M144.712402,44 C144.624511,43.7509753 144.568359,43.3823267 144.543945,42.894043 C144.236327,43.2944356 143.844485,43.6032704 143.368408,43.8205566 C142.892332,44.0378429 142.388186,44.1464844 141.855957,44.1464844 C141.094234,44.1464844 140.477786,43.9340842 140.006592,43.5092773 C139.535398,43.0844705 139.299805,42.5473665 139.299805,41.8979492 C139.299805,41.126461 139.620846,40.5161155 140.262939,40.0668945 C140.905033,39.6176735 141.799799,39.3930664 142.947266,39.3930664 L144.536621,39.3930664 L144.536621,38.4921875 C144.536621,37.9257784 144.362062,37.4802262 144.012939,37.1555176 C143.663817,36.8308089 143.154789,36.668457 142.48584,36.668457 C141.875485,36.668457 141.370119,36.8247055 140.969727,37.137207 C140.569334,37.4497086 140.369141,37.8256814 140.369141,38.2651367 L139.490234,38.2578125 C139.490234,37.6279265 139.7832,37.0822777 140.369141,36.6208496 C140.955081,36.1594215 141.675289,35.9287109 142.529785,35.9287109 C143.413579,35.9287109 144.110593,36.149656 144.62085,36.5915527 C145.131106,37.0334495 145.393555,37.6498984 145.408203,38.440918 L145.408203,42.190918 C145.408203,42.9575234 145.488769,43.5312481 145.649902,43.9121094 L145.649902,44 L144.712402,44 Z M141.958496,43.3701172 C142.544437,43.3701172 143.068113,43.228517 143.529541,42.9453125 C143.990969,42.662108 144.326659,42.2836938 144.536621,41.8100586 L144.536621,40.0668945 L142.969238,40.0668945 C142.09521,40.0766602 141.411624,40.2365707 140.918457,40.5466309 C140.425291,40.856691 140.178711,41.2827121 140.178711,41.824707 C140.178711,42.2690452 140.343504,42.6376938 140.673096,42.9306641 C141.002687,43.2236343 141.43115,43.3701172 141.958496,43.3701172 Z M156.754395,34.0463867 L156.754395,36.0751953 L158.39502,36.0751953 L158.39502,36.7929688 L156.754395,36.7929688 L156.754395,42.0737305 C156.754395,42.5131858 156.833739,42.840331 156.992432,43.0551758 C157.151124,43.2700206 157.416014,43.3774414 157.787109,43.3774414 C157.933594,43.3774414 158.170409,43.3530276 158.497559,43.3041992 L158.53418,44.0219727 C158.304686,44.1049809 157.992189,44.1464844 157.59668,44.1464844 C156.996091,44.1464844 156.559083,43.9719256 156.285645,43.6228027 C156.012206,43.2736799 155.875488,42.759769 155.875488,42.0810547 L155.875488,36.7929688 L154.417969,36.7929688 L154.417969,36.0751953 L155.875488,36.0751953 L155.875488,34.0463867 L156.754395,34.0463867 Z M163.083008,37.4155273 C163.371095,36.9418922 163.739744,36.5756849 164.188965,36.3168945 C164.638186,36.0581042 165.128904,35.9287109 165.661133,35.9287109 C166.510746,35.9287109 167.143064,36.1679664 167.558105,36.6464844 C167.973147,37.1250024 168.183105,37.8427687 168.187988,38.7998047 L168.187988,44 L167.316406,44 L167.316406,38.7924805 C167.311523,38.0844691 167.161378,37.5571306 166.865967,37.2104492 C166.570555,36.8637678 166.098148,36.6904297 165.44873,36.6904297 C164.906736,36.6904297 164.427004,36.8601057 164.009521,37.1994629 C163.592039,37.5388201 163.283204,37.9965792 163.083008,38.5727539 L163.083008,44 L162.211426,44 L162.211426,32.75 L163.083008,32.75 L163.083008,37.4155273 Z M171.960449,39.9204102 C171.960449,39.1586876 172.108153,38.4726593 172.403564,37.8623047 C172.698976,37.2519501 173.116452,36.7771013 173.656006,36.4377441 C174.195559,36.098387 174.807125,35.9287109 175.490723,35.9287109 C176.545415,35.9287109 177.399899,36.2985803 178.054199,37.0383301 C178.708499,37.7780799 179.035645,38.7582947 179.035645,39.9790039 L179.035645,40.1621094 C179.035645,40.9287148 178.887941,41.6184051 178.592529,42.2312012 C178.297118,42.8439972 177.880862,43.3164046 177.34375,43.6484375 C176.806638,43.9804704 176.193851,44.1464844 175.505371,44.1464844 C174.455561,44.1464844 173.602298,43.776615 172.945557,43.0368652 C172.288815,42.2971154 171.960449,41.3169006 171.960449,40.0961914 L171.960449,39.9204102 Z M172.839355,40.1621094 C172.839355,41.1093797 173.084714,41.8869599 173.575439,42.494873 C174.066165,43.1027862 174.709469,43.4067383 175.505371,43.4067383 C176.296391,43.4067383 176.937253,43.1027862 177.427979,42.494873 C177.918704,41.8869599 178.164062,41.0849659 178.164062,40.0888672 L178.164062,39.9204102 C178.164062,39.3149384 178.051759,38.7607447 177.827148,38.2578125 C177.602538,37.7548803 177.2876,37.3654799 176.882324,37.0895996 C176.477049,36.8137193 176.013186,36.6757812 175.490723,36.6757812 C174.709469,36.6757812 174.072268,36.9821747 173.579102,37.5949707 C173.085935,38.2077667 172.839355,39.0097607 172.839355,40.0009766 L172.839355,40.1621094 Z M187.942383,42.996582 C187.415036,43.7631874 186.57276,44.1464844 185.415527,44.1464844 C184.570797,44.1464844 183.928713,43.9011255 183.489258,43.4104004 C183.049802,42.9196753 182.825195,42.1933642 182.81543,41.2314453 L182.81543,36.0751953 L183.687012,36.0751953 L183.687012,41.121582 C183.687012,42.6303786 184.297357,43.3847656 185.518066,43.3847656 C186.787604,43.3847656 187.590819,42.8598685 187.927734,41.8100586 L187.927734,36.0751953 L188.806641,36.0751953 L188.806641,44 L187.957031,44 L187.942383,42.996582 Z M197.830566,41.9858398 C197.830566,41.5512674 197.656008,41.2021498 197.306885,40.9384766 C196.957762,40.6748034 196.431644,40.4685066 195.728516,40.3195801 C195.025387,40.1706536 194.479738,39.9997568 194.091553,39.8068848 C193.703367,39.6140127 193.415284,39.3784194 193.227295,39.1000977 C193.039306,38.821776 192.945312,38.4848653 192.945312,38.0893555 C192.945312,37.4643523 193.20654,36.9480001 193.729004,36.5402832 C194.251467,36.1325663 194.920406,35.9287109 195.73584,35.9287109 C196.619633,35.9287109 197.328855,36.1472146 197.863525,36.5842285 C198.398196,37.0212424 198.665527,37.5913051 198.665527,38.2944336 L197.786621,38.2944336 C197.786621,37.8305641 197.592531,37.4448258 197.204346,37.137207 C196.81616,36.8295883 196.326663,36.6757812 195.73584,36.6757812 C195.159665,36.6757812 194.697023,36.8039538 194.3479,37.0603027 C193.998778,37.3166517 193.824219,37.6499003 193.824219,38.0600586 C193.824219,38.4555684 193.969481,38.7619618 194.26001,38.979248 C194.550539,39.1965343 195.080318,39.3955069 195.849365,39.5761719 C196.618412,39.7568368 197.194578,39.949706 197.577881,40.1547852 C197.961184,40.3598643 198.245605,40.6064439 198.431152,40.8945312 C198.6167,41.1826186 198.709473,41.5317362 198.709473,41.9418945 C198.709473,42.6108432 198.4397,43.1455058 197.900146,43.5458984 C197.360593,43.9462911 196.656254,44.1464844 195.787109,44.1464844 C194.864253,44.1464844 194.11597,43.9230979 193.542236,43.4763184 C192.968503,43.0295388 192.681641,42.4643589 192.681641,41.7807617 L193.560547,41.7807617 C193.594727,42.2934596 193.810789,42.6926255 194.20874,42.9782715 C194.606691,43.2639174 195.132809,43.4067383 195.787109,43.4067383 C196.397464,43.4067383 196.890623,43.2724623 197.266602,43.0039062 C197.64258,42.7353502 197.830566,42.3959981 197.830566,41.9858398 Z M207.682129,44 C207.594238,43.7509753 207.538086,43.3823267 207.513672,42.894043 C207.206053,43.2944356 206.814211,43.6032704 206.338135,43.8205566 C205.862058,44.0378429 205.357913,44.1464844 204.825684,44.1464844 C204.063961,44.1464844 203.447512,43.9340842 202.976318,43.5092773 C202.505125,43.0844705 202.269531,42.5473665 202.269531,41.8979492 C202.269531,41.126461 202.590573,40.5161155 203.232666,40.0668945 C203.874759,39.6176735 204.769526,39.3930664 205.916992,39.3930664 L207.506348,39.3930664 L207.506348,38.4921875 C207.506348,37.9257784 207.331789,37.4802262 206.982666,37.1555176 C206.633543,36.8308089 206.124515,36.668457 205.455566,36.668457 C204.845212,36.668457 204.339846,36.8247055 203.939453,37.137207 C203.53906,37.4497086 203.338867,37.8256814 203.338867,38.2651367 L202.459961,38.2578125 C202.459961,37.6279265 202.752927,37.0822777 203.338867,36.6208496 C203.924808,36.1594215 204.645015,35.9287109 205.499512,35.9287109 C206.383305,35.9287109 207.08032,36.149656 207.590576,36.5915527 C208.100833,37.0334495 208.363281,37.6498984 208.37793,38.440918 L208.37793,42.190918 C208.37793,42.9575234 208.458495,43.5312481 208.619629,43.9121094 L208.619629,44 L207.682129,44 Z M204.928223,43.3701172 C205.514163,43.3701172 206.037839,43.228517 206.499268,42.9453125 C206.960696,42.662108 207.296386,42.2836938 207.506348,41.8100586 L207.506348,40.0668945 L205.938965,40.0668945 C205.064937,40.0766602 204.38135,40.2365707 203.888184,40.5466309 C203.395017,40.856691 203.148438,41.2827121 203.148438,41.824707 C203.148438,42.2690452 203.313231,42.6376938 203.642822,42.9306641 C203.972414,43.2236343 204.400876,43.3701172 204.928223,43.3701172 Z M213.549316,36.0751953 L213.578613,37.4301758 C213.876466,36.9418921 214.247556,36.5695814 214.691895,36.3132324 C215.136233,36.0568835 215.62695,35.9287109 216.164062,35.9287109 C217.013676,35.9287109 217.645994,36.1679664 218.061035,36.6464844 C218.476076,37.1250024 218.686035,37.8427687 218.690918,38.7998047 L218.690918,44 L217.819336,44 L217.819336,38.7924805 C217.814453,38.0844691 217.664308,37.5571306 217.368896,37.2104492 C217.073485,36.8637678 216.601077,36.6904297 215.95166,36.6904297 C215.409665,36.6904297 214.929934,36.8601057 214.512451,37.1994629 C214.094969,37.5388201 213.786134,37.9965792 213.585938,38.5727539 L213.585938,44 L212.714355,44 L212.714355,36.0751953 L213.549316,36.0751953 Z M222.602539,39.9643555 C222.602539,38.7338806 222.877195,37.7536658 223.426514,37.0236816 C223.975833,36.2936975 224.721675,35.9287109 225.664062,35.9287109 C226.733404,35.9287109 227.548825,36.35107 228.110352,37.1958008 L228.110352,32.75 L228.981934,32.75 L228.981934,44 L228.161621,44 L228.125,42.9453125 C227.563474,43.7460978 226.738287,44.1464844 225.649414,44.1464844 C224.736324,44.1464844 224.000247,43.7790564 223.441162,43.0441895 C222.882077,42.3093225 222.602539,41.3169008 222.602539,40.0668945 L222.602539,39.9643555 Z M223.48877,40.1181641 C223.48877,41.1289113 223.691404,41.9260225 224.09668,42.5095215 C224.501955,43.0930205 225.073239,43.3847656 225.810547,43.3847656 C226.889654,43.3847656 227.656248,42.9086962 228.110352,41.956543 L228.110352,38.2358398 C227.656248,37.2055613 226.894537,36.6904297 225.825195,36.6904297 C225.087887,36.6904297 224.514162,36.9797334 224.104004,37.5583496 C223.693846,38.1369658 223.48877,38.9902287 223.48877,40.1181641 Z M3.02490234,58.0083008 L2.02148438,58.9750977 L2.02148438,62 L1.14257812,62 L1.14257812,50.75 L2.02148438,50.75 L2.02148438,57.949707 L2.84912109,57.0561523 L5.88134766,54.0751953 L6.98730469,54.0751953 L3.62548828,57.4150391 L7.28027344,62 L6.23291016,62 L3.02490234,58.0083008 Z M11.4702148,62 L10.5913086,62 L10.5913086,54.0751953 L11.4702148,54.0751953 L11.4702148,62 Z M10.4375,51.7827148 C10.4375,51.6166984 10.4912104,51.4763189 10.5986328,51.3615723 C10.7060552,51.2468256 10.8525381,51.1894531 11.0380859,51.1894531 C11.2236337,51.1894531 11.3713373,51.2468256 11.4812012,51.3615723 C11.591065,51.4763189 11.6459961,51.6166984 11.6459961,51.7827148 C11.6459961,51.9487313 11.591065,52.0878901 11.4812012,52.2001953 C11.3713373,52.3125006 11.2236337,52.3686523 11.0380859,52.3686523 C10.8525381,52.3686523 10.7060552,52.3125006 10.5986328,52.2001953 C10.4912104,52.0878901 10.4375,51.9487313 10.4375,51.7827148 Z M16.8320312,62 L15.953125,62 L15.953125,50.75 L16.8320312,50.75 L16.8320312,62 Z M20.7290039,57.9204102 C20.7290039,57.1586876 20.8767075,56.4726593 21.1721191,55.8623047 C21.4675308,55.2519501 21.8850071,54.7771013 22.4245605,54.4377441 C22.964114,54.098387 23.5756802,53.9287109 24.2592773,53.9287109 C25.3139701,53.9287109 26.1684538,54.2985803 26.8227539,55.0383301 C27.4770541,55.7780799 27.8041992,56.7582947 27.8041992,57.9790039 L27.8041992,58.1621094 C27.8041992,58.9287148 27.6564956,59.6184051 27.361084,60.2312012 C27.0656724,60.8439972 26.6494167,61.3164046 26.1123047,61.6484375 C25.5751926,61.9804704 24.9624058,62.1464844 24.2739258,62.1464844 C23.2241158,62.1464844 22.3708529,61.776615 21.7141113,61.0368652 C21.0573698,60.2971154 20.7290039,59.3169006 20.7290039,58.0961914 L20.7290039,57.9204102 Z M21.6079102,58.1621094 C21.6079102,59.1093797 21.853269,59.8869599 22.3439941,60.494873 C22.8347193,61.1027862 23.4780234,61.4067383 24.2739258,61.4067383 C25.0649454,61.4067383 25.7058081,61.1027862 26.1965332,60.494873 C26.6872583,59.8869599 26.9326172,59.0849659 26.9326172,58.0888672 L26.9326172,57.9204102 C26.9326172,57.3149384 26.8203136,56.7607447 26.5957031,56.2578125 C26.3710926,55.7548803 26.0561544,55.3654799 25.6508789,55.0895996 C25.2456034,54.8137193 24.7817409,54.6757812 24.2592773,54.6757812 C23.4780234,54.6757812 22.8408228,54.9821747 22.3476562,55.5949707 C21.8544897,56.2077667 21.6079102,57.0097607 21.6079102,58.0009766 L21.6079102,58.1621094 Z M32.4116211,54.0751953 L32.440918,55.3642578 C32.7338882,54.8857398 33.1000955,54.5268567 33.5395508,54.2875977 C33.9790061,54.0483386 34.4672825,53.9287109 35.0043945,53.9287109 C36.2544008,53.9287109 37.0478499,54.4414011 37.3847656,55.4667969 C37.6679702,54.9736303 38.0463844,54.5939955 38.5200195,54.3278809 C38.9936547,54.0617662 39.5161104,53.9287109 40.0874023,53.9287109 C41.7866296,53.9287109 42.6533201,54.856436 42.6875,56.7119141 L42.6875,62 L41.8085938,62 L41.8085938,56.777832 C41.8037109,56.0698207 41.6511245,55.5449236 41.3508301,55.203125 C41.0505356,54.8613264 40.5610385,54.6904297 39.8823242,54.6904297 C39.2524383,54.7001954 38.720217,54.9040507 38.2856445,55.302002 C37.851072,55.6999532 37.6093752,56.1845675 37.5605469,56.7558594 L37.5605469,62 L36.6816406,62 L36.6816406,56.7119141 C36.6767578,56.0331997 36.5168473,55.526613 36.2019043,55.1921387 C35.8869613,54.8576643 35.402347,54.6904297 34.7480469,54.6904297 C34.1962863,54.6904297 33.7226582,54.8478988 33.3271484,55.1628418 C32.9316386,55.4777848 32.6386728,55.9453094 32.4482422,56.5654297 L32.4482422,62 L31.5693359,62 L31.5693359,54.0751953 L32.4116211,54.0751953 Z M49.9755859,62.1464844 C49.3017544,62.1464844 48.6926297,61.9804704 48.1481934,61.6484375 C47.603757,61.3164046 47.1801773,60.8537627 46.8774414,60.260498 C46.5747055,59.6672334 46.4233398,59.0019568 46.4233398,58.2646484 L46.4233398,57.949707 C46.4233398,57.1879845 46.5710434,56.5019562 46.8664551,55.8916016 C47.1618667,55.2812469 47.5732396,54.8015154 48.1005859,54.4523926 C48.6279323,54.1032697 49.1992157,53.9287109 49.8144531,53.9287109 C50.776372,53.9287109 51.5393038,54.2570768 52.1032715,54.9138184 C52.6672391,55.5705599 52.9492188,56.4677677 52.9492188,57.6054688 L52.9492188,58.0961914 L47.2949219,58.0961914 L47.2949219,58.2646484 C47.2949219,59.1630904 47.5524877,59.911374 48.067627,60.5095215 C48.5827662,61.107669 49.2309531,61.4067383 50.012207,61.4067383 C50.4809594,61.4067383 50.8947736,61.3212899 51.2536621,61.1503906 C51.6125506,60.9794913 51.9384751,60.7060566 52.2314453,60.3300781 L52.7807617,60.7475586 C52.1362272,61.6801804 51.201178,62.1464844 49.9755859,62.1464844 Z M49.8144531,54.6757812 C49.1552701,54.6757812 48.5998558,54.9174781 48.1481934,55.4008789 C47.6965309,55.8842798 47.4218755,56.5336873 47.3242188,57.3491211 L52.0776367,57.3491211 L52.0776367,57.2539062 C52.0532225,56.4921837 51.8359396,55.8720727 51.4257812,55.3935547 C51.0156229,54.9150367 50.4785189,54.6757812 49.8144531,54.6757812 Z M58.0180664,52.0463867 L58.0180664,54.0751953 L59.6586914,54.0751953 L59.6586914,54.7929688 L58.0180664,54.7929688 L58.0180664,60.0737305 C58.0180664,60.5131858 58.0974113,60.840331 58.2561035,61.0551758 C58.4147957,61.2700206 58.6796856,61.3774414 59.0507812,61.3774414 C59.1972664,61.3774414 59.4340804,61.3530276 59.7612305,61.3041992 L59.7978516,62.0219727 C59.5683582,62.1049809 59.2558614,62.1464844 58.8603516,62.1464844 C58.2597626,62.1464844 57.8227553,61.9719256 57.5493164,61.6228027 C57.2758775,61.2736799 57.1391602,60.759769 57.1391602,60.0810547 L57.1391602,54.7929688 L55.6816406,54.7929688 L55.6816406,54.0751953 L57.1391602,54.0751953 L57.1391602,52.0463867 L58.0180664,52.0463867 Z M66.5439453,62.1464844 C65.8701138,62.1464844 65.2609891,61.9804704 64.7165527,61.6484375 C64.1721164,61.3164046 63.7485367,60.8537627 63.4458008,60.260498 C63.1430649,59.6672334 62.9916992,59.0019568 62.9916992,58.2646484 L62.9916992,57.949707 C62.9916992,57.1879845 63.1394028,56.5019562 63.4348145,55.8916016 C63.7302261,55.2812469 64.1415989,54.8015154 64.6689453,54.4523926 C65.1962917,54.1032697 65.767575,53.9287109 66.3828125,53.9287109 C67.3447314,53.9287109 68.1076632,54.2570768 68.6716309,54.9138184 C69.2355985,55.5705599 69.5175781,56.4677677 69.5175781,57.6054688 L69.5175781,58.0961914 L63.8632812,58.0961914 L63.8632812,58.2646484 C63.8632812,59.1630904 64.120847,59.911374 64.6359863,60.5095215 C65.1511256,61.107669 65.7993125,61.4067383 66.5805664,61.4067383 C67.0493187,61.4067383 67.463133,61.3212899 67.8220215,61.1503906 C68.18091,60.9794913 68.5068345,60.7060566 68.7998047,60.3300781 L69.3491211,60.7475586 C68.7045866,61.6801804 67.7695374,62.1464844 66.5439453,62.1464844 Z M66.3828125,54.6757812 C65.7236295,54.6757812 65.1682151,54.9174781 64.7165527,55.4008789 C64.2648903,55.8842798 63.9902349,56.5336873 63.8925781,57.3491211 L68.6459961,57.3491211 L68.6459961,57.2539062 C68.6215819,56.4921837 68.4042989,55.8720727 67.9941406,55.3935547 C67.5839823,54.9150367 67.0468783,54.6757812 66.3828125,54.6757812 Z M76.8862305,54.8222656 C76.7006827,54.7880858 76.5029307,54.7709961 76.2929688,54.7709961 C75.746091,54.7709961 75.2834492,54.9235825 74.9050293,55.2287598 C74.5266094,55.5339371 74.2568367,55.9770479 74.0957031,56.5581055 L74.0957031,62 L73.2241211,62 L73.2241211,54.0751953 L74.0810547,54.0751953 L74.0957031,55.3349609 C74.5595726,54.3974563 75.3041941,53.9287109 76.3295898,53.9287109 C76.5737317,53.9287109 76.7666009,53.9604489 76.9082031,54.0239258 L76.8862305,54.8222656 Z M85.0166016,59.9858398 C85.0166016,59.5512674 84.8420428,59.2021498 84.4929199,58.9384766 C84.1437971,58.6748034 83.6176793,58.4685066 82.9145508,58.3195801 C82.2114223,58.1706536 81.6657734,57.9997568 81.2775879,57.8068848 C80.8894024,57.6140127 80.6013193,57.3784194 80.4133301,57.1000977 C80.2253409,56.821776 80.1313477,56.4848653 80.1313477,56.0893555 C80.1313477,55.4643523 80.3925755,54.9480001 80.9150391,54.5402832 C81.4375026,54.1325663 82.1064412,53.9287109 82.921875,53.9287109 C83.8056685,53.9287109 84.5148899,54.1472146 85.0495605,54.5842285 C85.5842312,55.0212424 85.8515625,55.5913051 85.8515625,56.2944336 L84.9726562,56.2944336 C84.9726562,55.8305641 84.7785664,55.4448258 84.3903809,55.137207 C84.0021953,54.8295883 83.5126983,54.6757812 82.921875,54.6757812 C82.3457002,54.6757812 81.8830584,54.8039538 81.5339355,55.0603027 C81.1848127,55.3166517 81.0102539,55.6499003 81.0102539,56.0600586 C81.0102539,56.4555684 81.1555161,56.7619618 81.4460449,56.979248 C81.7365737,57.1965343 82.2663536,57.3955069 83.0354004,57.5761719 C83.8044472,57.7568368 84.3806133,57.949706 84.763916,58.1547852 C85.1472187,58.3598643 85.4316397,58.6064439 85.6171875,58.8945312 C85.8027353,59.1826186 85.8955078,59.5317362 85.8955078,59.9418945 C85.8955078,60.6108432 85.6257351,61.1455058 85.0861816,61.5458984 C84.5466282,61.9462911 83.8422895,62.1464844 82.9731445,62.1464844 C82.0502884,62.1464844 81.3020048,61.9230979 80.7282715,61.4763184 C80.1545381,61.0295388 79.8676758,60.4643589 79.8676758,59.7807617 L80.746582,59.7807617 C80.7807619,60.2934596 80.9968242,60.6926255 81.3947754,60.9782715 C81.7927266,61.2639174 82.3188444,61.4067383 82.9731445,61.4067383 C83.5834991,61.4067383 84.0766583,61.2724623 84.4526367,61.0039062 C84.8286152,60.7353502 85.0166016,60.3959981 85.0166016,59.9858398 Z M99.175293,54.8222656 C98.9897452,54.7880858 98.7919932,54.7709961 98.5820312,54.7709961 C98.0351535,54.7709961 97.5725117,54.9235825 97.1940918,55.2287598 C96.8156719,55.5339371 96.5458992,55.9770479 96.3847656,56.5581055 L96.3847656,62 L95.5131836,62 L95.5131836,54.0751953 L96.3701172,54.0751953 L96.3847656,55.3349609 C96.8486351,54.3974563 97.5932566,53.9287109 98.6186523,53.9287109 C98.8627942,53.9287109 99.0556634,53.9604489 99.1972656,54.0239258 L99.175293,54.8222656 Z M103.541016,62 L102.662109,62 L102.662109,54.0751953 L103.541016,54.0751953 L103.541016,62 Z M102.508301,51.7827148 C102.508301,51.6166984 102.562011,51.4763189 102.669434,51.3615723 C102.776856,51.2468256 102.923339,51.1894531 103.108887,51.1894531 C103.294435,51.1894531 103.442138,51.2468256 103.552002,51.3615723 C103.661866,51.4763189 103.716797,51.6166984 103.716797,51.7827148 C103.716797,51.9487313 103.661866,52.0878901 103.552002,52.2001953 C103.442138,52.3125006 103.294435,52.3686523 103.108887,52.3686523 C102.923339,52.3686523 102.776856,52.3125006 102.669434,52.2001953 C102.562011,52.0878901 102.508301,51.9487313 102.508301,51.7827148 Z M107.569824,57.9643555 C107.569824,56.7338806 107.84448,55.7536658 108.393799,55.0236816 C108.943118,54.2936975 109.68896,53.9287109 110.631348,53.9287109 C111.700689,53.9287109 112.51611,54.35107 113.077637,55.1958008 L113.077637,50.75 L113.949219,50.75 L113.949219,62 L113.128906,62 L113.092285,60.9453125 C112.530759,61.7460978 111.705572,62.1464844 110.616699,62.1464844 C109.703609,62.1464844 108.967532,61.7790564 108.408447,61.0441895 C107.849362,60.3093225 107.569824,59.3169008 107.569824,58.0668945 L107.569824,57.9643555 Z M108.456055,58.1181641 C108.456055,59.1289113 108.658689,59.9260225 109.063965,60.5095215 C109.46924,61.0930205 110.040524,61.3847656 110.777832,61.3847656 C111.856939,61.3847656 112.623533,60.9086962 113.077637,59.956543 L113.077637,56.2358398 C112.623533,55.2055613 111.861822,54.6904297 110.79248,54.6904297 C110.055172,54.6904297 109.481447,54.9797334 109.071289,55.5583496 C108.661131,56.1369658 108.456055,56.9902287 108.456055,58.1181641 Z M117.904785,57.9643555 C117.904785,56.7338806 118.179441,55.7536658 118.72876,55.0236816 C119.278079,54.2936975 120.023921,53.9287109 120.966309,53.9287109 C122.03565,53.9287109 122.851071,54.35107 123.412598,55.1958008 L123.412598,50.75 L124.28418,50.75 L124.28418,62 L123.463867,62 L123.427246,60.9453125 C122.86572,61.7460978 122.040533,62.1464844 120.95166,62.1464844 C120.03857,62.1464844 119.302493,61.7790564 118.743408,61.0441895 C118.184323,60.3093225 117.904785,59.3169008 117.904785,58.0668945 L117.904785,57.9643555 Z M118.791016,58.1181641 C118.791016,59.1289113 118.99365,59.9260225 119.398926,60.5095215 C119.804201,61.0930205 120.375485,61.3847656 121.112793,61.3847656 C122.1919,61.3847656 122.958494,60.9086962 123.412598,59.956543 L123.412598,56.2358398 C122.958494,55.2055613 122.196783,54.6904297 121.127441,54.6904297 C120.390133,54.6904297 119.816408,54.9797334 119.40625,55.5583496 C118.996092,56.1369658 118.791016,56.9902287 118.791016,58.1181641 Z M131.660156,62.1464844 C130.986325,62.1464844 130.3772,61.9804704 129.832764,61.6484375 C129.288327,61.3164046 128.864748,60.8537627 128.562012,60.260498 C128.259276,59.6672334 128.10791,59.0019568 128.10791,58.2646484 L128.10791,57.949707 C128.10791,57.1879845 128.255614,56.5019562 128.551025,55.8916016 C128.846437,55.2812469 129.25781,54.8015154 129.785156,54.4523926 C130.312503,54.1032697 130.883786,53.9287109 131.499023,53.9287109 C132.460942,53.9287109 133.223874,54.2570768 133.787842,54.9138184 C134.351809,55.5705599 134.633789,56.4677677 134.633789,57.6054688 L134.633789,58.0961914 L128.979492,58.0961914 L128.979492,58.2646484 C128.979492,59.1630904 129.237058,59.911374 129.752197,60.5095215 C130.267337,61.107669 130.915523,61.4067383 131.696777,61.4067383 C132.16553,61.4067383 132.579344,61.3212899 132.938232,61.1503906 C133.297121,60.9794913 133.623045,60.7060566 133.916016,60.3300781 L134.465332,60.7475586 C133.820798,61.6801804 132.885748,62.1464844 131.660156,62.1464844 Z M131.499023,54.6757812 C130.83984,54.6757812 130.284426,54.9174781 129.832764,55.4008789 C129.381101,55.8842798 129.106446,56.5336873 129.008789,57.3491211 L133.762207,57.3491211 L133.762207,57.2539062 C133.737793,56.4921837 133.52051,55.8720727 133.110352,55.3935547 C132.700193,54.9150367 132.163089,54.6757812 131.499023,54.6757812 Z M139.175293,54.0751953 L139.20459,55.4301758 C139.502443,54.9418921 139.873533,54.5695814 140.317871,54.3132324 C140.762209,54.0568835 141.252927,53.9287109 141.790039,53.9287109 C142.639653,53.9287109 143.271971,54.1679664 143.687012,54.6464844 C144.102053,55.1250024 144.312012,55.8427687 144.316895,56.7998047 L144.316895,62 L143.445312,62 L143.445312,56.7924805 C143.44043,56.0844691 143.290285,55.5571306 142.994873,55.2104492 C142.699461,54.8637678 142.227054,54.6904297 141.577637,54.6904297 C141.035642,54.6904297 140.55591,54.8601057 140.138428,55.1994629 C139.720945,55.5388201 139.41211,55.9965792 139.211914,56.5727539 L139.211914,62 L138.340332,62 L138.340332,54.0751953 L139.175293,54.0751953 Z M156.124512,60.1762695 L156.256348,60.8574219 L156.432129,60.1396484 L158.336426,54.0751953 L159.083496,54.0751953 L160.96582,60.0883789 L161.170898,60.9233398 L161.339355,60.1542969 L162.965332,54.0751953 L163.873535,54.0751953 L161.566406,62 L160.819336,62 L158.783203,55.7158203 L158.687988,55.2836914 L158.592773,55.7231445 L156.593262,62 L155.846191,62 L153.546387,54.0751953 L154.447266,54.0751953 L156.124512,60.1762695 Z M170.60498,62.1464844 C169.931149,62.1464844 169.322024,61.9804704 168.777588,61.6484375 C168.233152,61.3164046 167.809572,60.8537627 167.506836,60.260498 C167.2041,59.6672334 167.052734,59.0019568 167.052734,58.2646484 L167.052734,57.949707 C167.052734,57.1879845 167.200438,56.5019562 167.49585,55.8916016 C167.791261,55.2812469 168.202634,54.8015154 168.72998,54.4523926 C169.257327,54.1032697 169.82861,53.9287109 170.443848,53.9287109 C171.405767,53.9287109 172.168698,54.2570768 172.732666,54.9138184 C173.296634,55.5705599 173.578613,56.4677677 173.578613,57.6054688 L173.578613,58.0961914 L167.924316,58.0961914 L167.924316,58.2646484 C167.924316,59.1630904 168.181882,59.911374 168.697021,60.5095215 C169.212161,61.107669 169.860348,61.4067383 170.641602,61.4067383 C171.110354,61.4067383 171.524168,61.3212899 171.883057,61.1503906 C172.241945,60.9794913 172.56787,60.7060566 172.86084,60.3300781 L173.410156,60.7475586 C172.765622,61.6801804 171.830573,62.1464844 170.60498,62.1464844 Z M170.443848,54.6757812 C169.784665,54.6757812 169.22925,54.9174781 168.777588,55.4008789 C168.325925,55.8842798 168.05127,56.5336873 167.953613,57.3491211 L172.707031,57.3491211 L172.707031,57.2539062 C172.682617,56.4921837 172.465334,55.8720727 172.055176,55.3935547 C171.645017,54.9150367 171.107913,54.6757812 170.443848,54.6757812 Z M183.459961,62 L183.459961,54.7929688 L182.141602,54.7929688 L182.141602,54.0751953 L183.459961,54.0751953 L183.459961,53.262207 C183.459961,52.4174762 183.689451,51.7619652 184.148438,51.2956543 C184.607424,50.8293434 185.25439,50.5961914 186.089355,50.5961914 C186.743656,50.5961914 187.417477,50.7402329 188.11084,51.0283203 L187.964355,51.7827148 C187.368649,51.5239245 186.763187,51.3945312 186.147949,51.3945312 C184.941889,51.3945312 184.338867,52.0219664 184.338867,53.2768555 L184.338867,54.0751953 L186.191895,54.0751953 L186.191895,54.7929688 L184.338867,54.7929688 L184.338867,62 L183.459961,62 Z M188.586914,62 L187.708008,62 L187.708008,54.0751953 L188.586914,54.0751953 L188.586914,62 Z M193.824219,54.0751953 L193.853516,55.4301758 C194.151369,54.9418921 194.522459,54.5695814 194.966797,54.3132324 C195.411135,54.0568835 195.901853,53.9287109 196.438965,53.9287109 C197.288578,53.9287109 197.920896,54.1679664 198.335938,54.6464844 C198.750979,55.1250024 198.960937,55.8427687 198.96582,56.7998047 L198.96582,62 L198.094238,62 L198.094238,56.7924805 C198.089355,56.0844691 197.93921,55.5571306 197.643799,55.2104492 C197.348387,54.8637678 196.87598,54.6904297 196.226562,54.6904297 C195.684568,54.6904297 195.204836,54.8601057 194.787354,55.1994629 C194.369871,55.5388201 194.061036,55.9965792 193.86084,56.5727539 L193.86084,62 L192.989258,62 L192.989258,54.0751953 L193.824219,54.0751953 Z M202.877441,57.9643555 C202.877441,56.7338806 203.152097,55.7536658 203.701416,55.0236816 C204.250735,54.2936975 204.996577,53.9287109 205.938965,53.9287109 C207.008306,53.9287109 207.823728,54.35107 208.385254,55.1958008 L208.385254,50.75 L209.256836,50.75 L209.256836,62 L208.436523,62 L208.399902,60.9453125 C207.838376,61.7460978 207.013189,62.1464844 205.924316,62.1464844 C205.011226,62.1464844 204.275149,61.7790564 203.716064,61.0441895 C203.15698,60.3093225 202.877441,59.3169008 202.877441,58.0668945 L202.877441,57.9643555 Z M203.763672,58.1181641 C203.763672,59.1289113 203.966307,59.9260225 204.371582,60.5095215 C204.776857,61.0930205 205.348141,61.3847656 206.085449,61.3847656 C207.164556,61.3847656 207.93115,60.9086962 208.385254,59.956543 L208.385254,56.2358398 C207.93115,55.2055613 207.169439,54.6904297 206.100098,54.6904297 C205.362789,54.6904297 204.789065,54.9797334 204.378906,55.5583496 C203.968748,56.1369658 203.763672,56.9902287 203.763672,58.1181641 Z M218.728027,57.9204102 C218.728027,57.1586876 218.875731,56.4726593 219.171143,55.8623047 C219.466554,55.2519501 219.884031,54.7771013 220.423584,54.4377441 C220.963137,54.098387 221.574704,53.9287109 222.258301,53.9287109 C223.312994,53.9287109 224.167477,54.2985803 224.821777,55.0383301 C225.476077,55.7780799 225.803223,56.7582947 225.803223,57.9790039 L225.803223,58.1621094 C225.803223,58.9287148 225.655519,59.6184051 225.360107,60.2312012 C225.064696,60.8439972 224.64844,61.3164046 224.111328,61.6484375 C223.574216,61.9804704 222.961429,62.1464844 222.272949,62.1464844 C221.223139,62.1464844 220.369876,61.776615 219.713135,61.0368652 C219.056393,60.2971154 218.728027,59.3169006 218.728027,58.0961914 L218.728027,57.9204102 Z M219.606934,58.1621094 C219.606934,59.1093797 219.852292,59.8869599 220.343018,60.494873 C220.833743,61.1027862 221.477047,61.4067383 222.272949,61.4067383 C223.063969,61.4067383 223.704832,61.1027862 224.195557,60.494873 C224.686282,59.8869599 224.931641,59.0849659 224.931641,58.0888672 L224.931641,57.9204102 C224.931641,57.3149384 224.819337,56.7607447 224.594727,56.2578125 C224.370116,55.7548803 224.055178,55.3654799 223.649902,55.0895996 C223.244627,54.8137193 222.780764,54.6757812 222.258301,54.6757812 C221.477047,54.6757812 220.839846,54.9821747 220.34668,55.5949707 C219.853513,56.2077667 219.606934,57.0097607 219.606934,58.0009766 L219.606934,58.1621094 Z M234.709961,60.996582 C234.182615,61.7631874 233.340338,62.1464844 232.183105,62.1464844 C231.338375,62.1464844 230.696291,61.9011255 230.256836,61.4104004 C229.817381,60.9196753 229.592773,60.1933642 229.583008,59.2314453 L229.583008,54.0751953 L230.45459,54.0751953 L230.45459,59.121582 C230.45459,60.6303786 231.064935,61.3847656 232.285645,61.3847656 C233.555182,61.3847656 234.358397,60.8598685 234.695312,59.8100586 L234.695312,54.0751953 L235.574219,54.0751953 L235.574219,62 L234.724609,62 L234.709961,60.996582 Z M243.51416,54.8222656 C243.328612,54.7880858 243.13086,54.7709961 242.920898,54.7709961 C242.374021,54.7709961 241.911379,54.9235825 241.532959,55.2287598 C241.154539,55.5339371 240.884766,55.9770479 240.723633,56.5581055 L240.723633,62 L239.852051,62 L239.852051,54.0751953 L240.708984,54.0751953 L240.723633,55.3349609 C241.187502,54.3974563 241.932124,53.9287109 242.95752,53.9287109 C243.201661,53.9287109 243.394531,53.9604489 243.536133,54.0239258 L243.51416,54.8222656 Z M6.02783203,69.5849609 C5.30517217,69.4384758 4.70459224,69.3652344 4.22607422,69.3652344 C3.72314202,69.3652344 3.3349623,69.5153794 3.06152344,69.8156738 C2.78808457,70.1159683 2.65136719,70.5419894 2.65136719,71.09375 L2.65136719,72.0751953 L4.54101562,72.0751953 L4.54101562,72.7929688 L2.65136719,72.7929688 L2.65136719,80 L1.77246094,80 L1.77246094,72.7929688 L0.461425781,72.7929688 L0.461425781,72.0751953 L1.77246094,72.0751953 L1.77246094,71.0644531 C1.77734377,70.2636679 1.98974399,69.6521017 2.40966797,69.2297363 C2.82959194,68.8073709 3.41552358,68.5961914 4.16748047,68.5961914 C4.77295225,68.5961914 5.68358767,68.7451157 6.89941406,69.0429688 L6.89941406,80 L6.02783203,80 L6.02783203,69.5849609 Z M10.8256836,75.9204102 C10.8256836,75.1586876 10.9733872,74.4726593 11.2687988,73.8623047 C11.5642105,73.2519501 11.9816868,72.7771013 12.5212402,72.4377441 C13.0607937,72.098387 13.6723599,71.9287109 14.355957,71.9287109 C15.4106498,71.9287109 16.2651334,72.2985803 16.9194336,73.0383301 C17.5737337,73.7780799 17.9008789,74.7582947 17.9008789,75.9790039 L17.9008789,76.1621094 C17.9008789,76.9287148 17.7531753,77.6184051 17.4577637,78.2312012 C17.162352,78.8439972 16.7460964,79.3164046 16.2089844,79.6484375 C15.6718723,79.9804704 15.0590855,80.1464844 14.3706055,80.1464844 C13.3207955,80.1464844 12.4675326,79.776615 11.810791,79.0368652 C11.1540495,78.2971154 10.8256836,77.3169006 10.8256836,76.0961914 L10.8256836,75.9204102 Z M11.7045898,76.1621094 C11.7045898,77.1093797 11.9499487,77.8869599 12.4406738,78.494873 C12.9313989,79.1027862 13.5747031,79.4067383 14.3706055,79.4067383 C15.161625,79.4067383 15.8024878,79.1027862 16.2932129,78.494873 C16.783938,77.8869599 17.0292969,77.0849659 17.0292969,76.0888672 L17.0292969,75.9204102 C17.0292969,75.3149384 16.9169933,74.7607447 16.6923828,74.2578125 C16.4677723,73.7548803 16.1528341,73.3654799 15.7475586,73.0895996 C15.3422831,72.8137193 14.8784206,72.6757812 14.355957,72.6757812 C13.5747031,72.6757812 12.9375025,72.9821747 12.4443359,73.5949707 C11.9511694,74.2077667 11.7045898,75.0097607 11.7045898,76.0009766 L11.7045898,76.1621094 Z M23.6069336,78.1762695 L23.7387695,78.8574219 L23.9145508,78.1396484 L25.8188477,72.0751953 L26.565918,72.0751953 L28.4482422,78.0883789 L28.6533203,78.9233398 L28.8217773,78.1542969 L30.4477539,72.0751953 L31.355957,72.0751953 L29.0488281,80 L28.3017578,80 L26.265625,73.7158203 L26.1704102,73.2836914 L26.0751953,73.7231445 L24.0756836,80 L23.3286133,80 L21.0288086,72.0751953 L21.9296875,72.0751953 L23.6069336,78.1762695 Z M41.6474609,80 L40.7685547,80 L40.7685547,72.0751953 L41.6474609,72.0751953 L41.6474609,80 Z M40.6147461,69.7827148 C40.6147461,69.6166984 40.6684565,69.4763189 40.7758789,69.3615723 C40.8833013,69.2468256 41.0297842,69.1894531 41.215332,69.1894531 C41.4008798,69.1894531 41.5485834,69.2468256 41.6584473,69.3615723 C41.7683111,69.4763189 41.8232422,69.6166984 41.8232422,69.7827148 C41.8232422,69.9487313 41.7683111,70.0878901 41.6584473,70.2001953 C41.5485834,70.3125006 41.4008798,70.3686523 41.215332,70.3686523 C41.0297842,70.3686523 40.8833013,70.3125006 40.7758789,70.2001953 C40.6684565,70.0878901 40.6147461,69.9487313 40.6147461,69.7827148 Z M46.862793,72.0751953 L46.8920898,73.4301758 C47.1899429,72.9418921 47.5610329,72.5695814 48.0053711,72.3132324 C48.4497093,72.0568835 48.940427,71.9287109 49.4775391,71.9287109 C50.3271527,71.9287109 50.9594706,72.1679664 51.3745117,72.6464844 C51.7895529,73.1250024 51.9995117,73.8427687 52.0043945,74.7998047 L52.0043945,80 L51.1328125,80 L51.1328125,74.7924805 C51.1279297,74.0844691 50.9777847,73.5571306 50.682373,73.2104492 C50.3869614,72.8637678 49.914554,72.6904297 49.2651367,72.6904297 C48.7231418,72.6904297 48.2434103,72.8601057 47.8259277,73.1994629 C47.4084452,73.5388201 47.0996104,73.9965792 46.8994141,74.5727539 L46.8994141,80 L46.027832,80 L46.027832,72.0751953 L46.862793,72.0751953 Z M63.2773438,70.0463867 L63.2773438,72.0751953 L64.9179688,72.0751953 L64.9179688,72.7929688 L63.2773438,72.7929688 L63.2773438,78.0737305 C63.2773438,78.5131858 63.3566887,78.840331 63.5153809,79.0551758 C63.6740731,79.2700206 63.938963,79.3774414 64.3100586,79.3774414 C64.4565437,79.3774414 64.6933577,79.3530276 65.0205078,79.3041992 L65.0571289,80.0219727 C64.8276356,80.1049809 64.5151387,80.1464844 64.1196289,80.1464844 C63.51904,80.1464844 63.0820326,79.9719256 62.8085938,79.6228027 C62.5351549,79.2736799 62.3984375,78.759769 62.3984375,78.0810547 L62.3984375,72.7929688 L60.940918,72.7929688 L60.940918,72.0751953 L62.3984375,72.0751953 L62.3984375,70.0463867 L63.2773438,70.0463867 Z M69.605957,73.4155273 C69.8940444,72.9418922 70.2626931,72.5756849 70.7119141,72.3168945 C71.1611351,72.0581042 71.6518528,71.9287109 72.184082,71.9287109 C73.0336957,71.9287109 73.6660135,72.1679664 74.0810547,72.6464844 C74.4960958,73.1250024 74.7060547,73.8427687 74.7109375,74.7998047 L74.7109375,80 L73.8393555,80 L73.8393555,74.7924805 C73.8344726,74.0844691 73.6843276,73.5571306 73.388916,73.2104492 C73.0935044,72.8637678 72.621097,72.6904297 71.9716797,72.6904297 C71.4296848,72.6904297 70.9499533,72.8601057 70.5324707,73.1994629 C70.1149881,73.5388201 69.8061533,73.9965792 69.605957,74.5727539 L69.605957,80 L68.734375,80 L68.734375,68.75 L69.605957,68.75 L69.605957,73.4155273 Z M82.0356445,80.1464844 C81.361813,80.1464844 80.7526883,79.9804704 80.208252,79.6484375 C79.6638156,79.3164046 79.2402359,78.8537627 78.9375,78.260498 C78.6347641,77.6672334 78.4833984,77.0019568 78.4833984,76.2646484 L78.4833984,75.949707 C78.4833984,75.1879845 78.631102,74.5019562 78.9265137,73.8916016 C79.2219253,73.2812469 79.6332981,72.8015154 80.1606445,72.4523926 C80.6879909,72.1032697 81.2592743,71.9287109 81.8745117,71.9287109 C82.8364306,71.9287109 83.5993624,72.2570768 84.1633301,72.9138184 C84.7272977,73.5705599 85.0092773,74.4677677 85.0092773,75.6054688 L85.0092773,76.0961914 L79.3549805,76.0961914 L79.3549805,76.2646484 C79.3549805,77.1630904 79.6125463,77.911374 80.1276855,78.5095215 C80.6428248,79.107669 81.2910117,79.4067383 82.0722656,79.4067383 C82.541018,79.4067383 82.9548322,79.3212899 83.3137207,79.1503906 C83.6726092,78.9794913 83.9985337,78.7060566 84.2915039,78.3300781 L84.8408203,78.7475586 C84.1962858,79.6801804 83.2612366,80.1464844 82.0356445,80.1464844 Z M81.8745117,72.6757812 C81.2153287,72.6757812 80.6599144,72.9174781 80.208252,73.4008789 C79.7565895,73.8842798 79.4819341,74.5336873 79.3842773,75.3491211 L84.1376953,75.3491211 L84.1376953,75.2539062 C84.1132811,74.4921837 83.8959981,73.8720727 83.4858398,73.3935547 C83.0756815,72.9150367 82.5385775,72.6757812 81.8745117,72.6757812 Z M98.0253906,72.8222656 C97.8398428,72.7880858 97.6420909,72.7709961 97.4321289,72.7709961 C96.8852512,72.7709961 96.4226093,72.9235825 96.0441895,73.2287598 C95.6657696,73.5339371 95.3959969,73.9770479 95.2348633,74.5581055 L95.2348633,80 L94.3632812,80 L94.3632812,72.0751953 L95.2202148,72.0751953 L95.2348633,73.3349609 C95.6987328,72.3974563 96.4433542,71.9287109 97.46875,71.9287109 C97.7128918,71.9287109 97.905761,71.9604489 98.0473633,72.0239258 L98.0253906,72.8222656 Z M100.779785,75.9204102 C100.779785,75.1586876 100.927489,74.4726593 101.2229,73.8623047 C101.518312,73.2519501 101.935788,72.7771013 102.475342,72.4377441 C103.014895,72.098387 103.626461,71.9287109 104.310059,71.9287109 C105.364751,71.9287109 106.219235,72.2985803 106.873535,73.0383301 C107.527835,73.7780799 107.85498,74.7582947 107.85498,75.9790039 L107.85498,76.1621094 C107.85498,76.9287148 107.707277,77.6184051 107.411865,78.2312012 C107.116454,78.8439972 106.700198,79.3164046 106.163086,79.6484375 C105.625974,79.9804704 105.013187,80.1464844 104.324707,80.1464844 C103.274897,80.1464844 102.421634,79.776615 101.764893,79.0368652 C101.108151,78.2971154 100.779785,77.3169006 100.779785,76.0961914 L100.779785,75.9204102 Z M101.658691,76.1621094 C101.658691,77.1093797 101.90405,77.8869599 102.394775,78.494873 C102.885501,79.1027862 103.528805,79.4067383 104.324707,79.4067383 C105.115727,79.4067383 105.756589,79.1027862 106.247314,78.494873 C106.73804,77.8869599 106.983398,77.0849659 106.983398,76.0888672 L106.983398,75.9204102 C106.983398,75.3149384 106.871095,74.7607447 106.646484,74.2578125 C106.421874,73.7548803 106.106936,73.3654799 105.70166,73.0895996 C105.296385,72.8137193 104.832522,72.6757812 104.310059,72.6757812 C103.528805,72.6757812 102.891604,72.9821747 102.398438,73.5949707 C101.905271,74.2077667 101.658691,75.0097607 101.658691,76.0009766 L101.658691,76.1621094 Z M114.59375,79.4067383 C115.204105,79.4067383 115.715574,79.2346209 116.128174,78.8903809 C116.540774,78.5461409 116.76416,78.1005887 116.79834,77.5537109 L117.640625,77.5537109 C117.616211,78.0371118 117.464845,78.4777812 117.186523,78.8757324 C116.908202,79.2736836 116.538332,79.5849598 116.076904,79.8095703 C115.615476,80.0341808 115.121096,80.1464844 114.59375,80.1464844 C113.553706,80.1464844 112.729739,79.7851599 112.121826,79.0625 C111.513913,78.3398401 111.209961,77.3681702 111.209961,76.1474609 L111.209961,75.8837891 C111.209961,75.1025352 111.346678,74.4116241 111.620117,73.8110352 C111.893556,73.2104462 112.285398,72.7465837 112.795654,72.4194336 C113.305911,72.0922835 113.902829,71.9287109 114.586426,71.9287109 C115.455571,71.9287109 116.172116,72.1874974 116.736084,72.7050781 C117.300052,73.2226588 117.601562,73.9038044 117.640625,74.7485352 L116.79834,74.7485352 C116.759277,74.1284149 116.535891,73.6279316 116.128174,73.2470703 C115.720457,72.866209 115.206546,72.6757812 114.586426,72.6757812 C113.795406,72.6757812 113.181399,72.9614229 112.744385,73.5327148 C112.307371,74.1040068 112.088867,74.90478 112.088867,75.9350586 L112.088867,76.1914062 C112.088867,77.2021535 112.307371,77.9907198 112.744385,78.5571289 C113.181399,79.123538 113.797848,79.4067383 114.59375,79.4067383 Z M123.273438,76.0083008 L122.27002,76.9750977 L122.27002,80 L121.391113,80 L121.391113,68.75 L122.27002,68.75 L122.27002,75.949707 L123.097656,75.0561523 L126.129883,72.0751953 L127.23584,72.0751953 L123.874023,75.4150391 L127.528809,80 L126.481445,80 L123.273438,76.0083008 Z M139.314453,79.4067383 C139.924808,79.4067383 140.436277,79.2346209 140.848877,78.8903809 C141.261477,78.5461409 141.484863,78.1005887 141.519043,77.5537109 L142.361328,77.5537109 C142.336914,78.0371118 142.185548,78.4777812 141.907227,78.8757324 C141.628905,79.2736836 141.259036,79.5849598 140.797607,79.8095703 C140.336179,80.0341808 139.8418,80.1464844 139.314453,80.1464844 C138.274409,80.1464844 137.450442,79.7851599 136.842529,79.0625 C136.234616,78.3398401 135.930664,77.3681702 135.930664,76.1474609 L135.930664,75.8837891 C135.930664,75.1025352 136.067381,74.4116241 136.34082,73.8110352 C136.614259,73.2104462 137.006101,72.7465837 137.516357,72.4194336 C138.026614,72.0922835 138.623532,71.9287109 139.307129,71.9287109 C140.176274,71.9287109 140.892819,72.1874974 141.456787,72.7050781 C142.020755,73.2226588 142.322265,73.9038044 142.361328,74.7485352 L141.519043,74.7485352 C141.47998,74.1284149 141.256594,73.6279316 140.848877,73.2470703 C140.44116,72.866209 139.927249,72.6757812 139.307129,72.6757812 C138.516109,72.6757812 137.902102,72.9614229 137.465088,73.5327148 C137.028074,74.1040068 136.80957,74.90478 136.80957,75.9350586 L136.80957,76.1914062 C136.80957,77.2021535 137.028074,77.9907198 137.465088,78.5571289 C137.902102,79.123538 138.518551,79.4067383 139.314453,79.4067383 Z M147.093262,80 L146.214355,80 L146.214355,68.75 L147.093262,68.75 L147.093262,80 Z M152.455078,80 L151.576172,80 L151.576172,72.0751953 L152.455078,72.0751953 L152.455078,80 Z M151.422363,69.7827148 C151.422363,69.6166984 151.476074,69.4763189 151.583496,69.3615723 C151.690919,69.2468256 151.837401,69.1894531 152.022949,69.1894531 C152.208497,69.1894531 152.356201,69.2468256 152.466064,69.3615723 C152.575928,69.4763189 152.630859,69.6166984 152.630859,69.7827148 C152.630859,69.9487313 152.575928,70.0878901 152.466064,70.2001953 C152.356201,70.3125006 152.208497,70.3686523 152.022949,70.3686523 C151.837401,70.3686523 151.690919,70.3125006 151.583496,70.2001953 C151.476074,70.0878901 151.422363,69.9487313 151.422363,69.7827148 Z M157.633789,72.0751953 L157.663086,73.3642578 C157.956056,72.8857398 158.322263,72.5268567 158.761719,72.2875977 C159.201174,72.0483386 159.68945,71.9287109 160.226562,71.9287109 C161.476569,71.9287109 162.270018,72.4414011 162.606934,73.4667969 C162.890138,72.9736303 163.268552,72.5939955 163.742188,72.3278809 C164.215823,72.0617662 164.738278,71.9287109 165.30957,71.9287109 C167.008798,71.9287109 167.875488,72.856436 167.909668,74.7119141 L167.909668,80 L167.030762,80 L167.030762,74.777832 C167.025879,74.0698207 166.873293,73.5449236 166.572998,73.203125 C166.272704,72.8613264 165.783207,72.6904297 165.104492,72.6904297 C164.474606,72.7001954 163.942385,72.9040507 163.507812,73.302002 C163.07324,73.6999532 162.831543,74.1845675 162.782715,74.7558594 L162.782715,80 L161.903809,80 L161.903809,74.7119141 C161.898926,74.0331997 161.739015,73.526613 161.424072,73.1921387 C161.109129,72.8576643 160.624515,72.6904297 159.970215,72.6904297 C159.418454,72.6904297 158.944826,72.8478988 158.549316,73.1628418 C158.153807,73.4777848 157.860841,73.9453094 157.67041,74.5654297 L157.67041,80 L156.791504,80 L156.791504,72.0751953 L157.633789,72.0751953 Z M178.508301,76.1181641 C178.508301,77.3535218 178.234866,78.3337366 177.687988,79.0588379 C177.141111,79.7839392 176.406255,80.1464844 175.483398,80.1464844 C174.379877,80.1464844 173.544925,79.7363322 172.978516,78.9160156 L172.941895,80 L172.121582,80 L172.121582,68.75 L172.993164,68.75 L172.993164,73.2250977 C173.549807,72.3608355 174.374995,71.9287109 175.46875,71.9287109 C176.406255,71.9287109 177.147214,72.2863734 177.69165,73.001709 C178.236087,73.7170446 178.508301,74.7119077 178.508301,75.9863281 L178.508301,76.1181641 Z M177.629395,75.9643555 C177.629395,74.9194284 177.42676,74.1125517 177.021484,73.5437012 C176.616209,72.9748507 176.044926,72.6904297 175.307617,72.6904297 C174.746091,72.6904297 174.270021,72.8283678 173.879395,73.104248 C173.488768,73.3801283 173.19336,73.784177 172.993164,74.3164062 L172.993164,77.890625 C173.432619,78.8867237 174.208979,79.3847656 175.322266,79.3847656 C176.044925,79.3847656 176.610105,79.099124 177.017822,78.527832 C177.425539,77.9565401 177.629395,77.1020565 177.629395,75.9643555 Z M183.42334,80 L182.544434,80 L182.544434,72.0751953 L183.42334,72.0751953 L183.42334,80 Z M182.390625,69.7827148 C182.390625,69.6166984 182.444335,69.4763189 182.551758,69.3615723 C182.65918,69.2468256 182.805663,69.1894531 182.991211,69.1894531 C183.176759,69.1894531 183.324462,69.2468256 183.434326,69.3615723 C183.54419,69.4763189 183.599121,69.6166984 183.599121,69.7827148 C183.599121,69.9487313 183.54419,70.0878901 183.434326,70.2001953 C183.324462,70.3125006 183.176759,70.3686523 182.991211,70.3686523 C182.805663,70.3686523 182.65918,70.3125006 182.551758,70.2001953 C182.444335,70.0878901 182.390625,69.9487313 182.390625,69.7827148 Z M188.638672,72.0751953 L188.667969,73.4301758 C188.965822,72.9418921 189.336912,72.5695814 189.78125,72.3132324 C190.225588,72.0568835 190.716306,71.9287109 191.253418,71.9287109 C192.103032,71.9287109 192.735349,72.1679664 193.150391,72.6464844 C193.565432,73.1250024 193.775391,73.8427687 193.780273,74.7998047 L193.780273,80 L192.908691,80 L192.908691,74.7924805 C192.903809,74.0844691 192.753664,73.5571306 192.458252,73.2104492 C192.16284,72.8637678 191.690433,72.6904297 191.041016,72.6904297 C190.499021,72.6904297 190.019289,72.8601057 189.601807,73.1994629 C189.184324,73.5388201 188.875489,73.9965792 188.675293,74.5727539 L188.675293,80 L187.803711,80 L187.803711,72.0751953 L188.638672,72.0751953 Z M197.691895,75.9643555 C197.691895,74.7241149 197.96655,73.7414587 198.515869,73.0163574 C199.065188,72.2912561 199.81103,71.9287109 200.753418,71.9287109 C201.832525,71.9287109 202.652829,72.3583941 203.214355,73.2177734 L203.258301,72.0751953 L204.078613,72.0751953 L204.078613,79.8388672 C204.078613,80.8593801 203.792972,81.6674775 203.22168,82.2631836 C202.650388,82.8588897 201.87647,83.1567383 200.899902,83.1567383 C200.348142,83.1567383 199.822024,83.0334485 199.321533,82.7868652 C198.821042,82.540282 198.426759,82.2119161 198.138672,81.8017578 L198.629395,81.2744141 C199.249515,82.0361366 199.986812,82.4169922 200.841309,82.4169922 C201.573734,82.4169922 202.145017,82.2009299 202.555176,81.7687988 C202.965334,81.3366678 203.177734,80.7373085 203.192383,79.9707031 L203.192383,78.9746094 C202.630857,79.7558633 201.812994,80.1464844 200.73877,80.1464844 C199.820796,80.1464844 199.083499,79.7802771 198.526855,79.0478516 C197.970212,78.315426 197.691895,77.3266664 197.691895,76.081543 L197.691895,75.9643555 Z M198.578125,76.1181641 C198.578125,77.1289113 198.78076,77.9260225 199.186035,78.5095215 C199.591311,79.0930205 200.162594,79.3847656 200.899902,79.3847656 C201.979009,79.3847656 202.743162,78.901372 203.192383,77.9345703 L203.192383,74.2504883 C202.987304,73.7426732 202.691896,73.3557142 202.306152,73.0895996 C201.920408,72.823485 201.456546,72.6904297 200.914551,72.6904297 C200.177242,72.6904297 199.603518,72.9797334 199.193359,73.5583496 C198.783201,74.1369658 198.578125,74.9902287 198.578125,76.1181641 Z M208.283203,79.4726562 C208.283203,79.301757 208.338134,79.1564947 208.447998,79.0368652 C208.557862,78.9172357 208.710448,78.8574219 208.905762,78.8574219 C209.101075,78.8574219 209.254882,78.9172357 209.367188,79.0368652 C209.479493,79.1564947 209.535645,79.301757 209.535645,79.4726562 C209.535645,79.6435555 209.479493,79.783935 209.367188,79.8937988 C209.254882,80.0036627 209.101075,80.0585938 208.905762,80.0585938 C208.710448,80.0585938 208.557862,80.0036627 208.447998,79.8937988 C208.338134,79.783935 208.283203,79.6435555 208.283203,79.4726562 Z" id="After-more-than-a-th"></path>
            </g>
        </g>
    </g>
</svg>