<?xml version="1.0" encoding="UTF-8"?>
<svg width="267px" height="102px" viewBox="0 0 267 102" version="1.1" xmlns="http://www.w3.org/2000/svg" xmlns:xlink="http://www.w3.org/1999/xlink">
    <!-- Generator: Sketch 41.2 (35397) - http://www.bohemiancoding.com/sketch -->
    <title>Group 11</title>
    <desc>Created with Sketch.</desc>
    <defs></defs>
    <g id="Page-1" stroke="none" stroke-width="1" fill="none" fill-rule="evenodd">
        <g id="Desktop-HD-Copy" transform="translate(-740.000000, -586.000000)" fill="#000000">
            <g id="Group-11" transform="translate(740.000000, 586.000000)">
                <path d="M9.22119141,7.52832031 C9.11376899,8.66602131 8.69385132,9.55346361 7.96142578,10.1906738 C7.22900024,10.827884 6.25488889,11.1464844 5.0390625,11.1464844 C4.18944888,11.1464844 3.44116534,10.9450704 2.79418945,10.5422363 C2.14721356,10.1394023 1.64795098,9.56689824 1.29638672,8.82470703 C0.944822461,8.08251582 0.761718823,7.22070803 0.747070312,6.23925781 L0.747070312,5.24316406 C0.747070312,4.23729966 0.925291187,3.35107805 1.28173828,2.58447266 C1.63818538,1.81786726 2.14965487,1.22705286 2.81616211,0.812011719 C3.48266935,0.396970581 4.25292532,0.189453125 5.12695312,0.189453125 C6.30371682,0.189453125 7.25097297,0.509274146 7.96875,1.14892578 C8.68652703,1.78857742 9.10400332,2.6918887 9.22119141,3.85888672 L7.37548828,3.85888672 C7.28759722,3.09228132 7.06421078,2.53930834 6.70532227,2.19995117 C6.34643375,1.86059401 5.82031597,1.69091797 5.12695312,1.69091797 C4.32128503,1.69091797 3.70239474,1.98510448 3.27026367,2.57348633 C2.8381326,3.16186818 2.61718755,4.02489666 2.60742188,5.16259766 L2.60742188,6.10742188 C2.60742188,7.25977139 2.81371864,8.13866885 3.22631836,8.74414062 C3.63891808,9.3496124 4.24316008,9.65234375 5.0390625,9.65234375 C5.7666052,9.65234375 6.31347473,9.48877117 6.6796875,9.16162109 C7.04590027,8.83447102 7.27783154,8.29004287 7.37548828,7.52832031 L9.22119141,7.52832031 Z M18.8457031,8.51708984 L14.7148438,8.51708984 L13.8505859,11 L11.9243164,11 L15.9526367,0.3359375 L17.6152344,0.3359375 L21.6508789,11 L19.7172852,11 L18.8457031,8.51708984 Z M15.2348633,7.02294922 L18.3256836,7.02294922 L16.7802734,2.59912109 L15.2348633,7.02294922 Z M27.2617188,0.3359375 L30.3378906,8.50976562 L33.4067383,0.3359375 L35.8017578,0.3359375 L35.8017578,11 L33.9560547,11 L33.9560547,7.484375 L34.1391602,2.78222656 L30.9897461,11 L29.6640625,11 L26.5219727,2.78955078 L26.7050781,7.484375 L26.7050781,11 L24.859375,11 L24.859375,0.3359375 L27.2617188,0.3359375 Z M41.8447266,7.03759766 L41.8447266,11 L39.9916992,11 L39.9916992,0.3359375 L44.0712891,0.3359375 C45.2627013,0.3359375 46.2087367,0.645992993 46.9094238,1.26611328 C47.6101109,1.88623357 47.9604492,2.70653787 47.9604492,3.72705078 C47.9604492,4.77197788 47.6174351,5.58495803 46.9313965,6.16601562 C46.2453579,6.74707322 45.2846741,7.03759766 44.0493164,7.03759766 L41.8447266,7.03759766 Z M41.8447266,5.55078125 L44.0712891,5.55078125 C44.730472,5.55078125 45.2333967,5.3957535 45.5800781,5.08569336 C45.9267595,4.77563322 46.1000977,4.32763965 46.1000977,3.74169922 C46.1000977,3.16552446 45.9243182,2.70532399 45.5727539,2.36108398 C45.2211896,2.01684398 44.737796,1.8398438 44.1225586,1.83007812 L41.8447266,1.83007812 L41.8447266,5.55078125 Z M59.7529297,9.61572266 C59.3671856,10.1186549 58.8325229,10.4995104 58.1489258,10.7583008 C57.4653286,11.0170911 56.6889692,11.1464844 55.8198242,11.1464844 C54.9262651,11.1464844 54.1352573,10.9438497 53.4467773,10.5385742 C52.7582973,10.1332988 52.2272968,9.55347057 51.8537598,8.79907227 C51.4802227,8.04467396 51.2861329,7.16455581 51.2714844,6.15869141 L51.2714844,5.32373047 C51.2714844,3.71239429 51.6572227,2.45386195 52.4287109,1.5480957 C53.2001992,0.642329456 54.2768486,0.189453125 55.6586914,0.189453125 C56.8452208,0.189453125 57.7875942,0.482418945 58.4858398,1.06835938 C59.1840855,1.6542998 59.6040032,2.49901792 59.7456055,3.60253906 L57.9291992,3.60253906 C57.7241201,2.31835295 56.9794986,1.67626953 55.6953125,1.67626953 C54.8652302,1.67626953 54.234133,1.97533881 53.802002,2.57348633 C53.3698709,3.17163385 53.1464844,4.04931062 53.1318359,5.20654297 L53.1318359,6.02685547 C53.1318359,7.17920498 53.3747534,8.07397142 53.8605957,8.71118164 C54.346438,9.34839186 55.0214801,9.66699219 55.8857422,9.66699219 C56.8330125,9.66699219 57.5068339,9.45215059 57.9072266,9.02246094 L57.9072266,6.93505859 L55.7099609,6.93505859 L55.7099609,5.52880859 L59.7529297,5.52880859 L59.7529297,9.61572266 Z M67.7075195,6.89111328 L65.6420898,6.89111328 L65.6420898,11 L63.7890625,11 L63.7890625,0.3359375 L67.5390625,0.3359375 C68.7695374,0.3359375 69.7192349,0.611813647 70.3881836,1.16357422 C71.0571323,1.71533479 71.3916016,2.51366665 71.3916016,3.55859375 C71.3916016,4.27148794 71.2194841,4.8684058 70.8752441,5.34936523 C70.5310041,5.83032467 70.0512726,6.20019402 69.4360352,6.45898438 L71.8310547,10.9047852 L71.8310547,11 L69.8461914,11 L67.7075195,6.89111328 Z M65.6420898,5.40429688 L67.5463867,5.40429688 C68.1713898,5.40429688 68.6596662,5.24682775 69.0112305,4.93188477 C69.3627947,4.61694178 69.5385742,4.18603789 69.5385742,3.63916016 C69.5385742,3.06786824 69.3762223,2.62597812 69.0515137,2.31347656 C68.726805,2.000975 68.2421907,1.8398438 67.5976562,1.83007812 L65.6420898,1.83007812 L65.6420898,5.40429688 Z M83.6601562,5.94628906 C83.6601562,6.99121616 83.479494,7.90795504 83.1181641,8.6965332 C82.7568341,9.48511136 82.2404819,10.0905741 81.5690918,10.5129395 C80.8977017,10.9353048 80.1250044,11.1464844 79.2509766,11.1464844 C78.3867144,11.1464844 77.6164585,10.9353048 76.9401855,10.5129395 C76.2639126,10.0905741 75.7414569,9.48877344 75.3728027,8.70751953 C75.0041485,7.92626563 74.8173828,7.02539573 74.8125,6.00488281 L74.8125,5.40429688 C74.8125,4.36425261 74.9968243,3.44629304 75.3654785,2.65039062 C75.7341327,1.85448821 76.254147,1.24536344 76.9255371,0.822998047 C77.5969272,0.400632654 78.3671832,0.189453125 79.2363281,0.189453125 C80.1054731,0.189453125 80.8757291,0.398191272 81.5471191,0.815673828 C82.2185092,1.23315638 82.7373029,1.83373632 83.1035156,2.61743164 C83.4697284,3.40112697 83.6552734,4.31298308 83.6601562,5.35302734 L83.6601562,5.94628906 Z M81.8071289,5.38964844 C81.8071289,4.2080019 81.5837425,3.30224924 81.1369629,2.67236328 C80.6901833,2.04247732 80.0566447,1.72753906 79.2363281,1.72753906 C78.4355429,1.72753906 77.8093284,2.04125663 77.357666,2.66870117 C76.9060036,3.29614572 76.675293,4.18358801 76.6655273,5.33105469 L76.6655273,5.94628906 C76.6655273,7.11816992 76.8937965,8.02392258 77.3503418,8.66357422 C77.806887,9.30322585 78.4404256,9.62304688 79.2509766,9.62304688 C80.0712932,9.62304688 80.7023904,9.31055 81.1442871,8.68554688 C81.5861839,8.06054375 81.8071289,7.14746694 81.8071289,5.94628906 L81.8071289,5.38964844 Z M95.3061523,0.3359375 L95.3061523,7.46240234 C95.3061523,8.59522051 94.9436071,9.49242833 94.2185059,10.1540527 C93.4934046,10.8156771 92.5278381,11.1464844 91.3217773,11.1464844 C90.1010681,11.1464844 89.1318395,10.8205599 88.4140625,10.1687012 C87.6962855,9.51684244 87.3374023,8.61231047 87.3374023,7.45507812 L87.3374023,0.3359375 L89.1831055,0.3359375 L89.1831055,7.46972656 C89.1831055,8.18262075 89.3637677,8.7270489 89.7250977,9.10302734 C90.0864276,9.47900579 90.6186488,9.66699219 91.3217773,9.66699219 C92.7475657,9.66699219 93.4604492,8.91504658 93.4604492,7.41113281 L93.4604492,0.3359375 L95.3061523,0.3359375 Z M107.743164,11 L105.890137,11 L101.136719,3.43408203 L101.136719,11 L99.2836914,11 L99.2836914,0.3359375 L101.136719,0.3359375 L105.904785,7.93115234 L105.904785,0.3359375 L107.743164,0.3359375 L107.743164,11 Z M111.933105,11 L111.933105,0.3359375 L115.08252,0.3359375 C116.024907,0.3359375 116.86108,0.545896338 117.591064,0.965820312 C118.321049,1.38574429 118.886228,1.98144146 119.286621,2.75292969 C119.687014,3.52441792 119.887207,4.40819814 119.887207,5.40429688 L119.887207,5.93896484 C119.887207,6.94971208 119.685793,7.83837507 119.282959,8.60498047 C118.880125,9.37158586 118.3064,9.96240027 117.561768,10.3774414 C116.817135,10.7924825 115.963872,11 115.001953,11 L111.933105,11 Z M113.786133,1.83007812 L113.786133,9.52050781 L114.994629,9.52050781 C115.966313,9.52050781 116.712156,9.21655577 117.232178,8.60864258 C117.7522,8.00072938 118.01709,7.12793538 118.026855,5.99023438 L118.026855,5.39697266 C118.026855,4.23974031 117.775393,3.35596008 117.272461,2.74560547 C116.769529,2.13525085 116.039556,1.83007812 115.08252,1.83007812 L113.786133,1.83007812 Z" id="CAMPGROUND"></path>
                <path d="M7.10449219,41.0117188 L2.26318359,41.0117188 L1.16455078,44 L0.219726562,44 L4.25537109,33.3359375 L5.11230469,33.3359375 L9.14794922,44 L8.21044922,44 L7.10449219,41.0117188 Z M2.54150391,40.2426758 L6.81884766,40.2426758 L4.68017578,34.4345703 L2.54150391,40.2426758 Z M13.1401367,44 L13.1401367,36.7929688 L11.8291016,36.7929688 L11.8291016,36.0751953 L13.1401367,36.0751953 L13.1401367,35.1157227 C13.1401367,34.3051717 13.3464335,33.6826194 13.7590332,33.2480469 C14.1716329,32.8134744 14.7465783,32.5961914 15.4838867,32.5961914 C15.8159196,32.5961914 16.1259751,32.6376949 16.4140625,32.7207031 L16.3481445,33.453125 C16.1040027,33.394531 15.8378921,33.3652344 15.5498047,33.3652344 C15.0664038,33.3652344 14.690431,33.5153794 14.421875,33.8156738 C14.153319,34.1159683 14.019043,34.5419894 14.019043,35.09375 L14.019043,36.0751953 L15.9086914,36.0751953 L15.9086914,36.7929688 L14.019043,36.7929688 L14.019043,44 L13.1401367,44 Z M20.8383789,34.0463867 L20.8383789,36.0751953 L22.4790039,36.0751953 L22.4790039,36.7929688 L20.8383789,36.7929688 L20.8383789,42.0737305 C20.8383789,42.5131858 20.9177238,42.840331 21.076416,43.0551758 C21.2351082,43.2700206 21.4999981,43.3774414 21.8710938,43.3774414 C22.0175789,43.3774414 22.2543929,43.3530276 22.581543,43.3041992 L22.6181641,44.0219727 C22.3886707,44.1049809 22.0761739,44.1464844 21.6806641,44.1464844 C21.0800751,44.1464844 20.6430678,43.9719256 20.3696289,43.6228027 C20.09619,43.2736799 19.9594727,42.759769 19.9594727,42.0810547 L19.9594727,36.7929688 L18.5019531,36.7929688 L18.5019531,36.0751953 L19.9594727,36.0751953 L19.9594727,34.0463867 L20.8383789,34.0463867 Z M29.3642578,44.1464844 C28.6904263,44.1464844 28.0813016,43.9804704 27.5368652,43.6484375 C26.9924289,43.3164046 26.5688492,42.8537627 26.2661133,42.260498 C25.9633774,41.6672334 25.8120117,41.0019568 25.8120117,40.2646484 L25.8120117,39.949707 C25.8120117,39.1879845 25.9597153,38.5019562 26.255127,37.8916016 C26.5505386,37.2812469 26.9619114,36.8015154 27.4892578,36.4523926 C28.0166042,36.1032697 28.5878875,35.9287109 29.203125,35.9287109 C30.1650439,35.9287109 30.9279757,36.2570768 31.4919434,36.9138184 C32.055911,37.5705599 32.3378906,38.4677677 32.3378906,39.6054688 L32.3378906,40.0961914 L26.6835938,40.0961914 L26.6835938,40.2646484 C26.6835938,41.1630904 26.9411595,41.911374 27.4562988,42.5095215 C27.9714381,43.107669 28.619625,43.4067383 29.4008789,43.4067383 C29.8696312,43.4067383 30.2834455,43.3212899 30.642334,43.1503906 C31.0012225,42.9794913 31.327147,42.7060566 31.6201172,42.3300781 L32.1694336,42.7475586 C31.5248991,43.6801804 30.5898499,44.1464844 29.3642578,44.1464844 Z M29.203125,36.6757812 C28.543942,36.6757812 27.9885276,36.9174781 27.5368652,37.4008789 C27.0852028,37.8842798 26.8105474,38.5336873 26.7128906,39.3491211 L31.4663086,39.3491211 L31.4663086,39.2539062 C31.4418944,38.4921837 31.2246114,37.8720727 30.8144531,37.3935547 C30.4042948,36.9150367 29.8671908,36.6757812 29.203125,36.6757812 Z M39.706543,36.8222656 C39.5209952,36.7880858 39.3232432,36.7709961 39.1132812,36.7709961 C38.5664035,36.7709961 38.1037617,36.9235825 37.7253418,37.2287598 C37.3469219,37.5339371 37.0771492,37.9770479 36.9160156,38.5581055 L36.9160156,44 L36.0444336,44 L36.0444336,36.0751953 L36.9013672,36.0751953 L36.9160156,37.3349609 C37.3798851,36.3974563 38.1245066,35.9287109 39.1499023,35.9287109 C39.3940442,35.9287109 39.5869134,35.9604489 39.7285156,36.0239258 L39.706543,36.8222656 Z M50.1005859,34.0463867 L50.1005859,36.0751953 L51.7412109,36.0751953 L51.7412109,36.7929688 L50.1005859,36.7929688 L50.1005859,42.0737305 C50.1005859,42.5131858 50.1799308,42.840331 50.338623,43.0551758 C50.4973152,43.2700206 50.7622052,43.3774414 51.1333008,43.3774414 C51.2797859,43.3774414 51.5165999,43.3530276 51.84375,43.3041992 L51.8803711,44.0219727 C51.6508778,44.1049809 51.3383809,44.1464844 50.9428711,44.1464844 C50.3422822,44.1464844 49.9052748,43.9719256 49.6318359,43.6228027 C49.3583971,43.2736799 49.2216797,42.759769 49.2216797,42.0810547 L49.2216797,36.7929688 L47.7641602,36.7929688 L47.7641602,36.0751953 L49.2216797,36.0751953 L49.2216797,34.0463867 L50.1005859,34.0463867 Z M56.4291992,37.4155273 C56.7172866,36.9418922 57.0859353,36.5756849 57.5351562,36.3168945 C57.9843772,36.0581042 58.475095,35.9287109 59.0073242,35.9287109 C59.8569378,35.9287109 60.4892557,36.1679664 60.9042969,36.6464844 C61.319338,37.1250024 61.5292969,37.8427687 61.5341797,38.7998047 L61.5341797,44 L60.6625977,44 L60.6625977,38.7924805 C60.6577148,38.0844691 60.5075698,37.5571306 60.2121582,37.2104492 C59.9167466,36.8637678 59.4443392,36.6904297 58.7949219,36.6904297 C58.252927,36.6904297 57.7731954,36.8601057 57.3557129,37.1994629 C56.9382303,37.5388201 56.6293955,37.9965792 56.4291992,38.5727539 L56.4291992,44 L55.5576172,44 L55.5576172,32.75 L56.4291992,32.75 L56.4291992,37.4155273 Z M69.4521484,36.8222656 C69.2666006,36.7880858 69.0688487,36.7709961 68.8588867,36.7709961 C68.312009,36.7709961 67.8493671,36.9235825 67.4709473,37.2287598 C67.0925274,37.5339371 66.8227547,37.9770479 66.6616211,38.5581055 L66.6616211,44 L65.7900391,44 L65.7900391,36.0751953 L66.6469727,36.0751953 L66.6616211,37.3349609 C67.1254906,36.3974563 67.8701121,35.9287109 68.8955078,35.9287109 C69.1396497,35.9287109 69.3325188,35.9604489 69.4741211,36.0239258 L69.4521484,36.8222656 Z M75.7661133,44.1464844 C75.0922818,44.1464844 74.483157,43.9804704 73.9387207,43.6484375 C73.3942844,43.3164046 72.9707046,42.8537627 72.6679688,42.260498 C72.3652329,41.6672334 72.2138672,41.0019568 72.2138672,40.2646484 L72.2138672,39.949707 C72.2138672,39.1879845 72.3615708,38.5019562 72.6569824,37.8916016 C72.9523941,37.2812469 73.3637669,36.8015154 73.8911133,36.4523926 C74.4184597,36.1032697 74.989743,35.9287109 75.6049805,35.9287109 C76.5668993,35.9287109 77.3298312,36.2570768 77.8937988,36.9138184 C78.4577665,37.5705599 78.7397461,38.4677677 78.7397461,39.6054688 L78.7397461,40.0961914 L73.0854492,40.0961914 L73.0854492,40.2646484 C73.0854492,41.1630904 73.343015,41.911374 73.8581543,42.5095215 C74.3732936,43.107669 75.0214805,43.4067383 75.8027344,43.4067383 C76.2714867,43.4067383 76.6853009,43.3212899 77.0441895,43.1503906 C77.403078,42.9794913 77.7290024,42.7060566 78.0219727,42.3300781 L78.5712891,42.7475586 C77.9267546,43.6801804 76.9917053,44.1464844 75.7661133,44.1464844 Z M75.6049805,36.6757812 C74.9457975,36.6757812 74.3903831,36.9174781 73.9387207,37.4008789 C73.4870583,37.8842798 73.2124028,38.5336873 73.1147461,39.3491211 L77.8681641,39.3491211 L77.8681641,39.2539062 C77.8437499,38.4921837 77.6264669,37.8720727 77.2163086,37.3935547 C76.8061503,36.9150367 76.2690463,36.6757812 75.6049805,36.6757812 Z M85.5151367,44.1464844 C84.8413052,44.1464844 84.2321805,43.9804704 83.6877441,43.6484375 C83.1433078,43.3164046 82.7197281,42.8537627 82.4169922,42.260498 C82.1142563,41.6672334 81.9628906,41.0019568 81.9628906,40.2646484 L81.9628906,39.949707 C81.9628906,39.1879845 82.1105942,38.5019562 82.4060059,37.8916016 C82.7014175,37.2812469 83.1127903,36.8015154 83.6401367,36.4523926 C84.1674831,36.1032697 84.7387665,35.9287109 85.3540039,35.9287109 C86.3159228,35.9287109 87.0788546,36.2570768 87.6428223,36.9138184 C88.2067899,37.5705599 88.4887695,38.4677677 88.4887695,39.6054688 L88.4887695,40.0961914 L82.8344727,40.0961914 L82.8344727,40.2646484 C82.8344727,41.1630904 83.0920384,41.911374 83.6071777,42.5095215 C84.122317,43.107669 84.7705039,43.4067383 85.5517578,43.4067383 C86.0205102,43.4067383 86.4343244,43.3212899 86.7932129,43.1503906 C87.1521014,42.9794913 87.4780259,42.7060566 87.7709961,42.3300781 L88.3203125,42.7475586 C87.675778,43.6801804 86.7407288,44.1464844 85.5151367,44.1464844 Z M85.3540039,36.6757812 C84.6948209,36.6757812 84.1394066,36.9174781 83.6877441,37.4008789 C83.2360817,37.8842798 82.9614263,38.5336873 82.8637695,39.3491211 L87.6171875,39.3491211 L87.6171875,39.2539062 C87.5927733,38.4921837 87.3754903,37.8720727 86.965332,37.3935547 C86.5551737,36.9150367 86.0180697,36.6757812 85.3540039,36.6757812 Z M97.4912109,39.9643555 C97.4912109,38.7338806 97.7658664,37.7536658 98.3151855,37.0236816 C98.8645047,36.2936975 99.6103469,35.9287109 100.552734,35.9287109 C101.622076,35.9287109 102.437497,36.35107 102.999023,37.1958008 L102.999023,32.75 L103.870605,32.75 L103.870605,44 L103.050293,44 L103.013672,42.9453125 C102.452146,43.7460978 101.626959,44.1464844 100.538086,44.1464844 C99.6249954,44.1464844 98.8889188,43.7790564 98.329834,43.0441895 C97.7707492,42.3093225 97.4912109,41.3169008 97.4912109,40.0668945 L97.4912109,39.9643555 Z M98.3774414,40.1181641 C98.3774414,41.1289113 98.5800761,41.9260225 98.9853516,42.5095215 C99.390627,43.0930205 99.9619104,43.3847656 100.699219,43.3847656 C101.778326,43.3847656 102.54492,42.9086962 102.999023,41.956543 L102.999023,38.2358398 C102.54492,37.2055613 101.783208,36.6904297 100.713867,36.6904297 C99.9765588,36.6904297 99.4028341,36.9797334 98.9926758,37.5583496 C98.5825175,38.1369658 98.3774414,38.9902287 98.3774414,40.1181641 Z M113.180176,44 C113.092285,43.7509753 113.036133,43.3823267 113.011719,42.894043 C112.7041,43.2944356 112.312258,43.6032704 111.836182,43.8205566 C111.360105,44.0378429 110.85596,44.1464844 110.32373,44.1464844 C109.562008,44.1464844 108.945559,43.9340842 108.474365,43.5092773 C108.003171,43.0844705 107.767578,42.5473665 107.767578,41.8979492 C107.767578,41.126461 108.08862,40.5161155 108.730713,40.0668945 C109.372806,39.6176735 110.267572,39.3930664 111.415039,39.3930664 L113.004395,39.3930664 L113.004395,38.4921875 C113.004395,37.9257784 112.829836,37.4802262 112.480713,37.1555176 C112.13159,36.8308089 111.622562,36.668457 110.953613,36.668457 C110.343259,36.668457 109.837893,36.8247055 109.4375,37.137207 C109.037107,37.4497086 108.836914,37.8256814 108.836914,38.2651367 L107.958008,38.2578125 C107.958008,37.6279265 108.250974,37.0822777 108.836914,36.6208496 C109.422854,36.1594215 110.143062,35.9287109 110.997559,35.9287109 C111.881352,35.9287109 112.578367,36.149656 113.088623,36.5915527 C113.59888,37.0334495 113.861328,37.6498984 113.875977,38.440918 L113.875977,42.190918 C113.875977,42.9575234 113.956542,43.5312481 114.117676,43.9121094 L114.117676,44 L113.180176,44 Z M110.42627,43.3701172 C111.01221,43.3701172 111.535886,43.228517 111.997314,42.9453125 C112.458743,42.662108 112.794433,42.2836938 113.004395,41.8100586 L113.004395,40.0668945 L111.437012,40.0668945 C110.562984,40.0766602 109.879397,40.2365707 109.38623,40.5466309 C108.893064,40.856691 108.646484,41.2827121 108.646484,41.824707 C108.646484,42.2690452 108.811278,42.6376938 109.140869,42.9306641 C109.470461,43.2236343 109.898923,43.3701172 110.42627,43.3701172 Z M120.614746,42.7402344 L122.929199,36.0751953 L123.874023,36.0751953 L120.490234,45.3476562 L120.314453,45.7578125 C119.879881,46.7197314 119.208501,47.2006836 118.300293,47.2006836 C118.090331,47.2006836 117.865724,47.1665042 117.626465,47.0981445 L117.619141,46.3730469 L118.073242,46.4169922 C118.502932,46.4169922 118.850829,46.3107921 119.116943,46.0983887 C119.383058,45.8859853 119.608886,45.5209987 119.794434,45.003418 L120.182617,43.934082 L117.194336,36.0751953 L118.153809,36.0751953 L120.614746,42.7402344 Z M131.975098,41.9858398 C131.975098,41.5512674 131.800539,41.2021498 131.451416,40.9384766 C131.102293,40.6748034 130.576175,40.4685066 129.873047,40.3195801 C129.169918,40.1706536 128.62427,39.9997568 128.236084,39.8068848 C127.847898,39.6140127 127.559815,39.3784194 127.371826,39.1000977 C127.183837,38.821776 127.089844,38.4848653 127.089844,38.0893555 C127.089844,37.4643523 127.351072,36.9480001 127.873535,36.5402832 C128.395999,36.1325663 129.064937,35.9287109 129.880371,35.9287109 C130.764165,35.9287109 131.473386,36.1472146 132.008057,36.5842285 C132.542727,37.0212424 132.810059,37.5913051 132.810059,38.2944336 L131.931152,38.2944336 C131.931152,37.8305641 131.737062,37.4448258 131.348877,37.137207 C130.960691,36.8295883 130.471194,36.6757812 129.880371,36.6757812 C129.304196,36.6757812 128.841554,36.8039538 128.492432,37.0603027 C128.143309,37.3166517 127.96875,37.6499003 127.96875,38.0600586 C127.96875,38.4555684 128.114012,38.7619618 128.404541,38.979248 C128.69507,39.1965343 129.22485,39.3955069 129.993896,39.5761719 C130.762943,39.7568368 131.339109,39.949706 131.722412,40.1547852 C132.105715,40.3598643 132.390136,40.6064439 132.575684,40.8945312 C132.761231,41.1826186 132.854004,41.5317362 132.854004,41.9418945 C132.854004,42.6108432 132.584231,43.1455058 132.044678,43.5458984 C131.505124,43.9462911 130.800786,44.1464844 129.931641,44.1464844 C129.008784,44.1464844 128.260501,43.9230979 127.686768,43.4763184 C127.113034,43.0295388 126.826172,42.4643589 126.826172,41.7807617 L127.705078,41.7807617 C127.739258,42.2934596 127.95532,42.6926255 128.353271,42.9782715 C128.751223,43.2639174 129.27734,43.4067383 129.931641,43.4067383 C130.541995,43.4067383 131.035154,43.2724623 131.411133,43.0039062 C131.787111,42.7353502 131.975098,42.3959981 131.975098,41.9858398 Z M147.569336,42.996582 C147.04199,43.7631874 146.199713,44.1464844 145.04248,44.1464844 C144.19775,44.1464844 143.555666,43.9011255 143.116211,43.4104004 C142.676756,42.9196753 142.452148,42.1933642 142.442383,41.2314453 L142.442383,36.0751953 L143.313965,36.0751953 L143.313965,41.121582 C143.313965,42.6303786 143.92431,43.3847656 145.14502,43.3847656 C146.414557,43.3847656 147.217772,42.8598685 147.554688,41.8100586 L147.554688,36.0751953 L148.433594,36.0751953 L148.433594,44 L147.583984,44 L147.569336,42.996582 Z M159.083496,40.1181641 C159.083496,41.3535218 158.810061,42.3337366 158.263184,43.0588379 C157.716306,43.7839392 156.983891,44.1464844 156.065918,44.1464844 C154.981928,44.1464844 154.151858,43.7656288 153.575684,43.0039062 L153.575684,47.046875 L152.704102,47.046875 L152.704102,36.0751953 L153.51709,36.0751953 L153.561035,37.1958008 C154.132327,36.35107 154.959956,35.9287109 156.043945,35.9287109 C156.991216,35.9287109 157.734616,36.2875941 158.27417,37.0053711 C158.813723,37.7231481 159.083496,38.7192319 159.083496,39.9936523 L159.083496,40.1181641 Z M158.20459,39.9643555 C158.20459,38.9536082 157.997072,38.1552764 157.582031,37.5693359 C157.16699,36.9833955 156.588383,36.6904297 155.846191,36.6904297 C155.309079,36.6904297 154.847658,36.8198229 154.461914,37.0786133 C154.07617,37.3374036 153.780763,37.7133764 153.575684,38.206543 L153.575684,42.0078125 C153.785646,42.4619163 154.085936,42.8085926 154.476562,43.0478516 C154.867189,43.2871106 155.328611,43.4067383 155.86084,43.4067383 C156.598148,43.4067383 157.173094,43.1125518 157.585693,42.5241699 C157.998293,41.9357881 158.20459,41.0825251 158.20459,39.9643555 Z M163.895996,37.4155273 C164.184083,36.9418922 164.552732,36.5756849 165.001953,36.3168945 C165.451174,36.0581042 165.941892,35.9287109 166.474121,35.9287109 C167.323735,35.9287109 167.956053,36.1679664 168.371094,36.6464844 C168.786135,37.1250024 168.996094,37.8427687 169.000977,38.7998047 L169.000977,44 L168.129395,44 L168.129395,38.7924805 C168.124512,38.0844691 167.974367,37.5571306 167.678955,37.2104492 C167.383543,36.8637678 166.911136,36.6904297 166.261719,36.6904297 C165.719724,36.6904297 165.239992,36.8601057 164.82251,37.1994629 C164.405027,37.5388201 164.096192,37.9965792 163.895996,38.5727539 L163.895996,44 L163.024414,44 L163.024414,32.75 L163.895996,32.75 L163.895996,37.4155273 Z M174.238281,44 L173.359375,44 L173.359375,36.0751953 L174.238281,36.0751953 L174.238281,44 Z M173.205566,33.7827148 C173.205566,33.6166984 173.259277,33.4763189 173.366699,33.3615723 C173.474122,33.2468256 173.620605,33.1894531 173.806152,33.1894531 C173.9917,33.1894531 174.139404,33.2468256 174.249268,33.3615723 C174.359131,33.4763189 174.414062,33.6166984 174.414062,33.7827148 C174.414062,33.9487313 174.359131,34.0878901 174.249268,34.2001953 C174.139404,34.3125006 173.9917,34.3686523 173.806152,34.3686523 C173.620605,34.3686523 173.474122,34.3125006 173.366699,34.2001953 C173.259277,34.0878901 173.205566,33.9487313 173.205566,33.7827148 Z M179.600098,44 L178.721191,44 L178.721191,32.75 L179.600098,32.75 L179.600098,44 Z M184.961914,44 L184.083008,44 L184.083008,32.75 L184.961914,32.75 L184.961914,44 Z M195.971191,44 L195.092285,44 L195.092285,36.0751953 L195.971191,36.0751953 L195.971191,44 Z M194.938477,33.7827148 C194.938477,33.6166984 194.992187,33.4763189 195.099609,33.3615723 C195.207032,33.2468256 195.353515,33.1894531 195.539062,33.1894531 C195.72461,33.1894531 195.872314,33.2468256 195.982178,33.3615723 C196.092042,33.4763189 196.146973,33.6166984 196.146973,33.7827148 C196.146973,33.9487313 196.092042,34.0878901 195.982178,34.2001953 C195.872314,34.3125006 195.72461,34.3686523 195.539062,34.3686523 C195.353515,34.3686523 195.207032,34.3125006 195.099609,34.2001953 C194.992187,34.0878901 194.938477,33.9487313 194.938477,33.7827148 Z M201.713867,34.0463867 L201.713867,36.0751953 L203.354492,36.0751953 L203.354492,36.7929688 L201.713867,36.7929688 L201.713867,42.0737305 C201.713867,42.5131858 201.793212,42.840331 201.951904,43.0551758 C202.110596,43.2700206 202.375486,43.3774414 202.746582,43.3774414 C202.893067,43.3774414 203.129881,43.3530276 203.457031,43.3041992 L203.493652,44.0219727 C203.264159,44.1049809 202.951662,44.1464844 202.556152,44.1464844 C201.955563,44.1464844 201.518556,43.9719256 201.245117,43.6228027 C200.971678,43.2736799 200.834961,42.759769 200.834961,42.0810547 L200.834961,36.7929688 L199.377441,36.7929688 L199.377441,36.0751953 L200.834961,36.0751953 L200.834961,34.0463867 L201.713867,34.0463867 Z M214.715332,42.1762695 L214.847168,42.8574219 L215.022949,42.1396484 L216.927246,36.0751953 L217.674316,36.0751953 L219.556641,42.0883789 L219.761719,42.9233398 L219.930176,42.1542969 L221.556152,36.0751953 L222.464355,36.0751953 L220.157227,44 L219.410156,44 L217.374023,37.7158203 L217.278809,37.2836914 L217.183594,37.7231445 L215.184082,44 L214.437012,44 L212.137207,36.0751953 L213.038086,36.0751953 L214.715332,42.1762695 Z M231.129395,44 C231.041503,43.7509753 230.985352,43.3823267 230.960938,42.894043 C230.653319,43.2944356 230.261477,43.6032704 229.7854,43.8205566 C229.309324,44.0378429 228.805178,44.1464844 228.272949,44.1464844 C227.511227,44.1464844 226.894778,43.9340842 226.423584,43.5092773 C225.95239,43.0844705 225.716797,42.5473665 225.716797,41.8979492 C225.716797,41.126461 226.037839,40.5161155 226.679932,40.0668945 C227.322025,39.6176735 228.216791,39.3930664 229.364258,39.3930664 L230.953613,39.3930664 L230.953613,38.4921875 C230.953613,37.9257784 230.779054,37.4802262 230.429932,37.1555176 C230.080809,36.8308089 229.571781,36.668457 228.902832,36.668457 C228.292477,36.668457 227.787111,36.8247055 227.386719,37.137207 C226.986326,37.4497086 226.786133,37.8256814 226.786133,38.2651367 L225.907227,38.2578125 C225.907227,37.6279265 226.200192,37.0822777 226.786133,36.6208496 C227.372073,36.1594215 228.092281,35.9287109 228.946777,35.9287109 C229.830571,35.9287109 230.527585,36.149656 231.037842,36.5915527 C231.548098,37.0334495 231.810547,37.6498984 231.825195,38.440918 L231.825195,42.190918 C231.825195,42.9575234 231.905761,43.5312481 232.066895,43.9121094 L232.066895,44 L231.129395,44 Z M228.375488,43.3701172 C228.961429,43.3701172 229.485105,43.228517 229.946533,42.9453125 C230.407961,42.662108 230.743651,42.2836938 230.953613,41.8100586 L230.953613,40.0668945 L229.38623,40.0668945 C228.512203,40.0766602 227.828616,40.2365707 227.335449,40.5466309 C226.842283,40.856691 226.595703,41.2827121 226.595703,41.824707 C226.595703,42.2690452 226.760496,42.6376938 227.090088,42.9306641 C227.419679,43.2236343 227.848142,43.3701172 228.375488,43.3701172 Z M240.907715,41.9858398 C240.907715,41.5512674 240.733156,41.2021498 240.384033,40.9384766 C240.03491,40.6748034 239.508793,40.4685066 238.805664,40.3195801 C238.102536,40.1706536 237.556887,39.9997568 237.168701,39.8068848 C236.780516,39.6140127 236.492433,39.3784194 236.304443,39.1000977 C236.116454,38.821776 236.022461,38.4848653 236.022461,38.0893555 C236.022461,37.4643523 236.283689,36.9480001 236.806152,36.5402832 C237.328616,36.1325663 237.997555,35.9287109 238.812988,35.9287109 C239.696782,35.9287109 240.406003,36.1472146 240.940674,36.5842285 C241.475344,37.0212424 241.742676,37.5913051 241.742676,38.2944336 L240.86377,38.2944336 C240.86377,37.8305641 240.66968,37.4448258 240.281494,37.137207 C239.893309,36.8295883 239.403812,36.6757812 238.812988,36.6757812 C238.236814,36.6757812 237.774172,36.8039538 237.425049,37.0603027 C237.075926,37.3166517 236.901367,37.6499003 236.901367,38.0600586 C236.901367,38.4555684 237.046629,38.7619618 237.337158,38.979248 C237.627687,39.1965343 238.157467,39.3955069 238.926514,39.5761719 C239.69556,39.7568368 240.271727,39.949706 240.655029,40.1547852 C241.038332,40.3598643 241.322753,40.6064439 241.508301,40.8945312 C241.693849,41.1826186 241.786621,41.5317362 241.786621,41.9418945 C241.786621,42.6108432 241.516848,43.1455058 240.977295,43.5458984 C240.437741,43.9462911 239.733403,44.1464844 238.864258,44.1464844 C237.941402,44.1464844 237.193118,43.9230979 236.619385,43.4763184 C236.045651,43.0295388 235.758789,42.4643589 235.758789,41.7807617 L236.637695,41.7807617 C236.671875,42.2934596 236.887937,42.6926255 237.285889,42.9782715 C237.68384,43.2639174 238.209958,43.4067383 238.864258,43.4067383 C239.474612,43.4067383 239.967772,43.2724623 240.34375,43.0039062 C240.719728,42.7353502 240.907715,42.3959981 240.907715,41.9858398 Z M2.50488281,52.0463867 L2.50488281,54.0751953 L4.14550781,54.0751953 L4.14550781,54.7929688 L2.50488281,54.7929688 L2.50488281,60.0737305 C2.50488281,60.5131858 2.58422772,60.840331 2.74291992,61.0551758 C2.90161212,61.2700206 3.16650205,61.3774414 3.53759766,61.3774414 C3.68408276,61.3774414 3.9208968,61.3530276 4.24804688,61.3041992 L4.28466797,62.0219727 C4.05517463,62.1049809 3.74267776,62.1464844 3.34716797,62.1464844 C2.74657903,62.1464844 2.30957168,61.9719256 2.03613281,61.6228027 C1.76269395,61.2736799 1.62597656,60.759769 1.62597656,60.0810547 L1.62597656,54.7929688 L0.168457031,54.7929688 L0.168457031,54.0751953 L1.62597656,54.0751953 L1.62597656,52.0463867 L2.50488281,52.0463867 Z M8.94335938,62 L8.06445312,62 L8.06445312,54.0751953 L8.94335938,54.0751953 L8.94335938,62 Z M7.91064453,51.7827148 C7.91064453,51.6166984 7.96435493,51.4763189 8.07177734,51.3615723 C8.17919976,51.2468256 8.32568267,51.1894531 8.51123047,51.1894531 C8.69677827,51.1894531 8.84448187,51.2468256 8.9543457,51.3615723 C9.06420953,51.4763189 9.11914062,51.6166984 9.11914062,51.7827148 C9.11914062,51.9487313 9.06420953,52.0878901 8.9543457,52.2001953 C8.84448187,52.3125006 8.69677827,52.3686523 8.51123047,52.3686523 C8.32568267,52.3686523 8.17919976,52.3125006 8.07177734,52.2001953 C7.96435493,52.0878901 7.91064453,51.9487313 7.91064453,51.7827148 Z M14.1220703,54.0751953 L14.1513672,55.3642578 C14.4443374,54.8857398 14.8105447,54.5268567 15.25,54.2875977 C15.6894553,54.0483386 16.1777317,53.9287109 16.7148438,53.9287109 C17.96485,53.9287109 18.7582991,54.4414011 19.0952148,55.4667969 C19.3784194,54.9736303 19.7568336,54.5939955 20.2304688,54.3278809 C20.7041039,54.0617662 21.2265596,53.9287109 21.7978516,53.9287109 C23.4970788,53.9287109 24.3637694,54.856436 24.3979492,56.7119141 L24.3979492,62 L23.519043,62 L23.519043,56.777832 C23.5141601,56.0698207 23.3615738,55.5449236 23.0612793,55.203125 C22.7609848,54.8613264 22.2714878,54.6904297 21.5927734,54.6904297 C20.9628875,54.7001954 20.4306662,54.9040507 19.9960938,55.302002 C19.5615213,55.6999532 19.3198245,56.1845675 19.2709961,56.7558594 L19.2709961,62 L18.3920898,62 L18.3920898,56.7119141 C18.387207,56.0331997 18.2272965,55.526613 17.9123535,55.1921387 C17.5974105,54.8576643 17.1127962,54.6904297 16.4584961,54.6904297 C15.9067355,54.6904297 15.4331074,54.8478988 15.0375977,55.1628418 C14.6420879,55.4777848 14.349122,55.9453094 14.1586914,56.5654297 L14.1586914,62 L13.2797852,62 L13.2797852,54.0751953 L14.1220703,54.0751953 Z M31.6860352,62.1464844 C31.0122037,62.1464844 30.4030789,61.9804704 29.8586426,61.6484375 C29.3142063,61.3164046 28.8906265,60.8537627 28.5878906,60.260498 C28.2851547,59.6672334 28.1337891,59.0019568 28.1337891,58.2646484 L28.1337891,57.949707 C28.1337891,57.1879845 28.2814927,56.5019562 28.5769043,55.8916016 C28.8723159,55.2812469 29.2836888,54.8015154 29.8110352,54.4523926 C30.3383815,54.1032697 30.9096649,53.9287109 31.5249023,53.9287109 C32.4868212,53.9287109 33.249753,54.2570768 33.8137207,54.9138184 C34.3776884,55.5705599 34.659668,56.4677677 34.659668,57.6054688 L34.659668,58.0961914 L29.0053711,58.0961914 L29.0053711,58.2646484 C29.0053711,59.1630904 29.2629369,59.911374 29.7780762,60.5095215 C30.2932155,61.107669 30.9414023,61.4067383 31.7226562,61.4067383 C32.1914086,61.4067383 32.6052228,61.3212899 32.9641113,61.1503906 C33.3229998,60.9794913 33.6489243,60.7060566 33.9418945,60.3300781 L34.4912109,60.7475586 C33.8466765,61.6801804 32.9116272,62.1464844 31.6860352,62.1464844 Z M31.5249023,54.6757812 C30.8657194,54.6757812 30.310305,54.9174781 29.8586426,55.4008789 C29.4069802,55.8842798 29.1323247,56.5336873 29.034668,57.3491211 L33.7880859,57.3491211 L33.7880859,57.2539062 C33.7636718,56.4921837 33.5463888,55.8720727 33.1362305,55.3935547 C32.7260722,54.9150367 32.1889682,54.6757812 31.5249023,54.6757812 Z M45.3759766,52.0463867 L45.3759766,54.0751953 L47.0166016,54.0751953 L47.0166016,54.7929688 L45.3759766,54.7929688 L45.3759766,60.0737305 C45.3759766,60.5131858 45.4553215,60.840331 45.6140137,61.0551758 C45.7727059,61.2700206 46.0375958,61.3774414 46.4086914,61.3774414 C46.5551765,61.3774414 46.7919906,61.3530276 47.1191406,61.3041992 L47.1557617,62.0219727 C46.9262684,62.1049809 46.6137715,62.1464844 46.2182617,62.1464844 C45.6176728,62.1464844 45.1806654,61.9719256 44.9072266,61.6228027 C44.6337877,61.2736799 44.4970703,60.759769 44.4970703,60.0810547 L44.4970703,54.7929688 L43.0395508,54.7929688 L43.0395508,54.0751953 L44.4970703,54.0751953 L44.4970703,52.0463867 L45.3759766,52.0463867 Z M50.203125,57.9204102 C50.203125,57.1586876 50.3508286,56.4726593 50.6462402,55.8623047 C50.9416519,55.2519501 51.3591282,54.7771013 51.8986816,54.4377441 C52.4382351,54.098387 53.0498013,53.9287109 53.7333984,53.9287109 C54.7880912,53.9287109 55.6425749,54.2985803 56.296875,55.0383301 C56.9511751,55.7780799 57.2783203,56.7582947 57.2783203,57.9790039 L57.2783203,58.1621094 C57.2783203,58.9287148 57.1306167,59.6184051 56.8352051,60.2312012 C56.5397934,60.8439972 56.1235378,61.3164046 55.5864258,61.6484375 C55.0493137,61.9804704 54.4365269,62.1464844 53.7480469,62.1464844 C52.6982369,62.1464844 51.844974,61.776615 51.1882324,61.0368652 C50.5314909,60.2971154 50.203125,59.3169006 50.203125,58.0961914 L50.203125,57.9204102 Z M51.0820312,58.1621094 C51.0820312,59.1093797 51.3273901,59.8869599 51.8181152,60.494873 C52.3088403,61.1027862 52.9521445,61.4067383 53.7480469,61.4067383 C54.5390665,61.4067383 55.1799292,61.1027862 55.6706543,60.494873 C56.1613794,59.8869599 56.4067383,59.0849659 56.4067383,58.0888672 L56.4067383,57.9204102 C56.4067383,57.3149384 56.2944347,56.7607447 56.0698242,56.2578125 C55.8452137,55.7548803 55.5302755,55.3654799 55.125,55.0895996 C54.7197245,54.8137193 54.255862,54.6757812 53.7333984,54.6757812 C52.9521445,54.6757812 52.3149439,54.9821747 51.8217773,55.5949707 C51.3286108,56.2077667 51.0820312,57.0097607 51.0820312,58.0009766 L51.0820312,58.1621094 Z M67.6064453,55.4155273 C67.8945327,54.9418922 68.2631813,54.5756849 68.7124023,54.3168945 C69.1616233,54.0581042 69.6523411,53.9287109 70.1845703,53.9287109 C71.0341839,53.9287109 71.6665018,54.1679664 72.081543,54.6464844 C72.4965841,55.1250024 72.7065429,55.8427687 72.7114258,56.7998047 L72.7114258,62 L71.8398438,62 L71.8398438,56.7924805 C71.8349609,56.0844691 71.6848159,55.5571306 71.3894043,55.2104492 C71.0939927,54.8637678 70.6215853,54.6904297 69.972168,54.6904297 C69.4301731,54.6904297 68.9504415,54.8601057 68.532959,55.1994629 C68.1154764,55.5388201 67.8066416,55.9965792 67.6064453,56.5727539 L67.6064453,62 L66.7348633,62 L66.7348633,50.75 L67.6064453,50.75 L67.6064453,55.4155273 Z M81.9697266,62 C81.8818355,61.7509753 81.8256837,61.3823267 81.8012695,60.894043 C81.4936508,61.2944356 81.101809,61.6032704 80.6257324,61.8205566 C80.1496558,62.0378429 79.6455105,62.1464844 79.1132812,62.1464844 C78.3515587,62.1464844 77.7351098,61.9340842 77.263916,61.5092773 C76.7927223,61.0844705 76.5571289,60.5473665 76.5571289,59.8979492 C76.5571289,59.126461 76.8781706,58.5161155 77.5202637,58.0668945 C78.1623567,57.6176735 79.0571232,57.3930664 80.2045898,57.3930664 L81.7939453,57.3930664 L81.7939453,56.4921875 C81.7939453,55.9257784 81.6193865,55.4802262 81.2702637,55.1555176 C80.9211408,54.8308089 80.4121127,54.668457 79.7431641,54.668457 C79.1328094,54.668457 78.6274434,54.8247055 78.2270508,55.137207 C77.8266582,55.4497086 77.6264648,55.8256814 77.6264648,56.2651367 L76.7475586,56.2578125 C76.7475586,55.6279265 77.0405244,55.0822777 77.6264648,54.6208496 C78.2124053,54.1594215 78.9326129,53.9287109 79.7871094,53.9287109 C80.6709029,53.9287109 81.3679174,54.149656 81.8781738,54.5915527 C82.3884303,55.0334495 82.6508788,55.6498984 82.6655273,56.440918 L82.6655273,60.190918 C82.6655273,60.9575234 82.7460929,61.5312481 82.9072266,61.9121094 L82.9072266,62 L81.9697266,62 Z M79.2158203,61.3701172 C79.8017607,61.3701172 80.3254371,61.228517 80.7868652,60.9453125 C81.2482933,60.662108 81.5839833,60.2836938 81.7939453,59.8100586 L81.7939453,58.0668945 L80.2265625,58.0668945 C79.3525347,58.0766602 78.6689478,58.2365707 78.1757812,58.5466309 C77.6826147,58.856691 77.4360352,59.2827121 77.4360352,59.824707 C77.4360352,60.2690452 77.6008284,60.6376938 77.9304199,60.9306641 C78.2600114,61.2236343 78.6884739,61.3701172 79.2158203,61.3701172 Z M89.3603516,60.7915039 L91.7700195,54.0751953 L92.6708984,54.0751953 L89.7119141,62 L89.0014648,62 L86.027832,54.0751953 L86.9287109,54.0751953 L89.3603516,60.7915039 Z M99.0800781,62.1464844 C98.4062466,62.1464844 97.7971219,61.9804704 97.2526855,61.6484375 C96.7082492,61.3164046 96.2846695,60.8537627 95.9819336,60.260498 C95.6791977,59.6672334 95.527832,59.0019568 95.527832,58.2646484 L95.527832,57.949707 C95.527832,57.1879845 95.6755356,56.5019562 95.9709473,55.8916016 C96.2663589,55.2812469 96.6777317,54.8015154 97.2050781,54.4523926 C97.7324245,54.1032697 98.3037079,53.9287109 98.9189453,53.9287109 C99.8808642,53.9287109 100.643796,54.2570768 101.207764,54.9138184 C101.771731,55.5705599 102.053711,56.4677677 102.053711,57.6054688 L102.053711,58.0961914 L96.3994141,58.0961914 L96.3994141,58.2646484 C96.3994141,59.1630904 96.6569798,59.911374 97.1721191,60.5095215 C97.6872584,61.107669 98.3354453,61.4067383 99.1166992,61.4067383 C99.5854516,61.4067383 99.9992658,61.3212899 100.358154,61.1503906 C100.717043,60.9794913 101.042967,60.7060566 101.335938,60.3300781 L101.885254,60.7475586 C101.240719,61.6801804 100.30567,62.1464844 99.0800781,62.1464844 Z M98.9189453,54.6757812 C98.2597623,54.6757812 97.704348,54.9174781 97.2526855,55.4008789 C96.8010231,55.8842798 96.5263677,56.5336873 96.4287109,57.3491211 L101.182129,57.3491211 L101.182129,57.2539062 C101.157715,56.4921837 100.940432,55.8720727 100.530273,55.3935547 C100.120115,54.9150367 99.5830111,54.6757812 98.9189453,54.6757812 Z M116.153809,59.9858398 C116.153809,59.5512674 115.97925,59.2021498 115.630127,58.9384766 C115.281004,58.6748034 114.754886,58.4685066 114.051758,58.3195801 C113.348629,58.1706536 112.80298,57.9997568 112.414795,57.8068848 C112.026609,57.6140127 111.738526,57.3784194 111.550537,57.1000977 C111.362548,56.821776 111.268555,56.4848653 111.268555,56.0893555 C111.268555,55.4643523 111.529783,54.9480001 112.052246,54.5402832 C112.57471,54.1325663 113.243648,53.9287109 114.059082,53.9287109 C114.942876,53.9287109 115.652097,54.1472146 116.186768,54.5842285 C116.721438,55.0212424 116.98877,55.5913051 116.98877,56.2944336 L116.109863,56.2944336 C116.109863,55.8305641 115.915773,55.4448258 115.527588,55.137207 C115.139402,54.8295883 114.649905,54.6757812 114.059082,54.6757812 C113.482907,54.6757812 113.020265,54.8039538 112.671143,55.0603027 C112.32202,55.3166517 112.147461,55.6499003 112.147461,56.0600586 C112.147461,56.4555684 112.292723,56.7619618 112.583252,56.979248 C112.873781,57.1965343 113.403561,57.3955069 114.172607,57.5761719 C114.941654,57.7568368 115.51782,57.949706 115.901123,58.1547852 C116.284426,58.3598643 116.568847,58.6064439 116.754395,58.8945312 C116.939942,59.1826186 117.032715,59.5317362 117.032715,59.9418945 C117.032715,60.6108432 116.762942,61.1455058 116.223389,61.5458984 C115.683835,61.9462911 114.979497,62.1464844 114.110352,62.1464844 C113.187495,62.1464844 112.439212,61.9230979 111.865479,61.4763184 C111.291745,61.0295388 111.004883,60.4643589 111.004883,59.7807617 L111.883789,59.7807617 C111.917969,60.2934596 112.134031,60.6926255 112.531982,60.9782715 C112.929934,61.2639174 113.456051,61.4067383 114.110352,61.4067383 C114.720706,61.4067383 115.213865,61.2724623 115.589844,61.0039062 C115.965822,60.7353502 116.153809,60.3959981 116.153809,59.9858398 Z M120.519531,57.9204102 C120.519531,57.1586876 120.667235,56.4726593 120.962646,55.8623047 C121.258058,55.2519501 121.675534,54.7771013 122.215088,54.4377441 C122.754641,54.098387 123.366208,53.9287109 124.049805,53.9287109 C125.104497,53.9287109 125.958981,54.2985803 126.613281,55.0383301 C127.267581,55.7780799 127.594727,56.7582947 127.594727,57.9790039 L127.594727,58.1621094 C127.594727,58.9287148 127.447023,59.6184051 127.151611,60.2312012 C126.8562,60.8439972 126.439944,61.3164046 125.902832,61.6484375 C125.36572,61.9804704 124.752933,62.1464844 124.064453,62.1464844 C123.014643,62.1464844 122.16138,61.776615 121.504639,61.0368652 C120.847897,60.2971154 120.519531,59.3169006 120.519531,58.0961914 L120.519531,57.9204102 Z M121.398438,58.1621094 C121.398438,59.1093797 121.643796,59.8869599 122.134521,60.494873 C122.625247,61.1027862 123.268551,61.4067383 124.064453,61.4067383 C124.855473,61.4067383 125.496335,61.1027862 125.987061,60.494873 C126.477786,59.8869599 126.723145,59.0849659 126.723145,58.0888672 L126.723145,57.9204102 C126.723145,57.3149384 126.610841,56.7607447 126.38623,56.2578125 C126.16162,55.7548803 125.846682,55.3654799 125.441406,55.0895996 C125.036131,54.8137193 124.572268,54.6757812 124.049805,54.6757812 C123.268551,54.6757812 122.63135,54.9821747 122.138184,55.5949707 C121.645017,56.2077667 121.398438,57.0097607 121.398438,58.0009766 L121.398438,58.1621094 Z M132.202148,54.0751953 L132.231445,55.3642578 C132.524416,54.8857398 132.890623,54.5268567 133.330078,54.2875977 C133.769533,54.0483386 134.25781,53.9287109 134.794922,53.9287109 C136.044928,53.9287109 136.838377,54.4414011 137.175293,55.4667969 C137.458498,54.9736303 137.836912,54.5939955 138.310547,54.3278809 C138.784182,54.0617662 139.306638,53.9287109 139.87793,53.9287109 C141.577157,53.9287109 142.443847,54.856436 142.478027,56.7119141 L142.478027,62 L141.599121,62 L141.599121,56.777832 C141.594238,56.0698207 141.441652,55.5449236 141.141357,55.203125 C140.841063,54.8613264 140.351566,54.6904297 139.672852,54.6904297 C139.042966,54.7001954 138.510744,54.9040507 138.076172,55.302002 C137.641599,55.6999532 137.399903,56.1845675 137.351074,56.7558594 L137.351074,62 L136.472168,62 L136.472168,56.7119141 C136.467285,56.0331997 136.307375,55.526613 135.992432,55.1921387 C135.677489,54.8576643 135.192874,54.6904297 134.538574,54.6904297 C133.986814,54.6904297 133.513186,54.8478988 133.117676,55.1628418 C132.722166,55.4777848 132.4292,55.9453094 132.23877,56.5654297 L132.23877,62 L131.359863,62 L131.359863,54.0751953 L132.202148,54.0751953 Z M149.766113,62.1464844 C149.092282,62.1464844 148.483157,61.9804704 147.938721,61.6484375 C147.394284,61.3164046 146.970705,60.8537627 146.667969,60.260498 C146.365233,59.6672334 146.213867,59.0019568 146.213867,58.2646484 L146.213867,57.949707 C146.213867,57.1879845 146.361571,56.5019562 146.656982,55.8916016 C146.952394,55.2812469 147.363767,54.8015154 147.891113,54.4523926 C148.41846,54.1032697 148.989743,53.9287109 149.60498,53.9287109 C150.566899,53.9287109 151.329831,54.2570768 151.893799,54.9138184 C152.457766,55.5705599 152.739746,56.4677677 152.739746,57.6054688 L152.739746,58.0961914 L147.085449,58.0961914 L147.085449,58.2646484 C147.085449,59.1630904 147.343015,59.911374 147.858154,60.5095215 C148.373294,61.107669 149.02148,61.4067383 149.802734,61.4067383 C150.271487,61.4067383 150.685301,61.3212899 151.044189,61.1503906 C151.403078,60.9794913 151.729002,60.7060566 152.021973,60.3300781 L152.571289,60.7475586 C151.926755,61.6801804 150.991705,62.1464844 149.766113,62.1464844 Z M149.60498,54.6757812 C148.945797,54.6757812 148.390383,54.9174781 147.938721,55.4008789 C147.487058,55.8842798 147.212403,56.5336873 147.114746,57.3491211 L151.868164,57.3491211 L151.868164,57.2539062 C151.84375,56.4921837 151.626467,55.8720727 151.216309,55.3935547 C150.80615,54.9150367 150.269046,54.6757812 149.60498,54.6757812 Z M166.839844,59.9858398 C166.839844,59.5512674 166.665285,59.2021498 166.316162,58.9384766 C165.967039,58.6748034 165.440921,58.4685066 164.737793,58.3195801 C164.034664,58.1706536 163.489016,57.9997568 163.10083,57.8068848 C162.712645,57.6140127 162.424561,57.3784194 162.236572,57.1000977 C162.048583,56.821776 161.95459,56.4848653 161.95459,56.0893555 C161.95459,55.4643523 162.215818,54.9480001 162.738281,54.5402832 C163.260745,54.1325663 163.929683,53.9287109 164.745117,53.9287109 C165.628911,53.9287109 166.338132,54.1472146 166.872803,54.5842285 C167.407473,55.0212424 167.674805,55.5913051 167.674805,56.2944336 L166.795898,56.2944336 C166.795898,55.8305641 166.601809,55.4448258 166.213623,55.137207 C165.825438,54.8295883 165.33594,54.6757812 164.745117,54.6757812 C164.168942,54.6757812 163.706301,54.8039538 163.357178,55.0603027 C163.008055,55.3166517 162.833496,55.6499003 162.833496,56.0600586 C162.833496,56.4555684 162.978758,56.7619618 163.269287,56.979248 C163.559816,57.1965343 164.089596,57.3955069 164.858643,57.5761719 C165.627689,57.7568368 166.203856,57.949706 166.587158,58.1547852 C166.970461,58.3598643 167.254882,58.6064439 167.44043,58.8945312 C167.625977,59.1826186 167.71875,59.5317362 167.71875,59.9418945 C167.71875,60.6108432 167.448977,61.1455058 166.909424,61.5458984 C166.36987,61.9462911 165.665532,62.1464844 164.796387,62.1464844 C163.873531,62.1464844 163.125247,61.9230979 162.551514,61.4763184 C161.97778,61.0295388 161.690918,60.4643589 161.690918,59.7807617 L162.569824,59.7807617 C162.604004,60.2934596 162.820066,60.6926255 163.218018,60.9782715 C163.615969,61.2639174 164.142087,61.4067383 164.796387,61.4067383 C165.406741,61.4067383 165.8999,61.2724623 166.275879,61.0039062 C166.651857,60.7353502 166.839844,60.3959981 166.839844,59.9858398 Z M172.67041,62 L171.791504,62 L171.791504,50.75 L172.67041,50.75 L172.67041,62 Z M180.119629,62.1464844 C179.445797,62.1464844 178.836673,61.9804704 178.292236,61.6484375 C177.7478,61.3164046 177.32422,60.8537627 177.021484,60.260498 C176.718748,59.6672334 176.567383,59.0019568 176.567383,58.2646484 L176.567383,57.949707 C176.567383,57.1879845 176.715086,56.5019562 177.010498,55.8916016 C177.30591,55.2812469 177.717283,54.8015154 178.244629,54.4523926 C178.771975,54.1032697 179.343259,53.9287109 179.958496,53.9287109 C180.920415,53.9287109 181.683347,54.2570768 182.247314,54.9138184 C182.811282,55.5705599 183.093262,56.4677677 183.093262,57.6054688 L183.093262,58.0961914 L177.438965,58.0961914 L177.438965,58.2646484 C177.438965,59.1630904 177.696531,59.911374 178.21167,60.5095215 C178.726809,61.107669 179.374996,61.4067383 180.15625,61.4067383 C180.625002,61.4067383 181.038817,61.3212899 181.397705,61.1503906 C181.756594,60.9794913 182.082518,60.7060566 182.375488,60.3300781 L182.924805,60.7475586 C182.28027,61.6801804 181.345221,62.1464844 180.119629,62.1464844 Z M179.958496,54.6757812 C179.299313,54.6757812 178.743899,54.9174781 178.292236,55.4008789 C177.840574,55.8842798 177.565918,56.5336873 177.468262,57.3491211 L182.22168,57.3491211 L182.22168,57.2539062 C182.197266,56.4921837 181.979983,55.8720727 181.569824,55.3935547 C181.159666,54.9150367 180.622562,54.6757812 179.958496,54.6757812 Z M189.868652,62.1464844 C189.194821,62.1464844 188.585696,61.9804704 188.04126,61.6484375 C187.496823,61.3164046 187.073244,60.8537627 186.770508,60.260498 C186.467772,59.6672334 186.316406,59.0019568 186.316406,58.2646484 L186.316406,57.949707 C186.316406,57.1879845 186.46411,56.5019562 186.759521,55.8916016 C187.054933,55.2812469 187.466306,54.8015154 187.993652,54.4523926 C188.520999,54.1032697 189.092282,53.9287109 189.70752,53.9287109 C190.669438,53.9287109 191.43237,54.2570768 191.996338,54.9138184 C192.560306,55.5705599 192.842285,56.4677677 192.842285,57.6054688 L192.842285,58.0961914 L187.187988,58.0961914 L187.187988,58.2646484 C187.187988,59.1630904 187.445554,59.911374 187.960693,60.5095215 C188.475833,61.107669 189.12402,61.4067383 189.905273,61.4067383 C190.374026,61.4067383 190.78784,61.3212899 191.146729,61.1503906 C191.505617,60.9794913 191.831542,60.7060566 192.124512,60.3300781 L192.673828,60.7475586 C192.029294,61.6801804 191.094244,62.1464844 189.868652,62.1464844 Z M189.70752,54.6757812 C189.048337,54.6757812 188.492922,54.9174781 188.04126,55.4008789 C187.589597,55.8842798 187.314942,56.5336873 187.217285,57.3491211 L191.970703,57.3491211 L191.970703,57.2539062 C191.946289,56.4921837 191.729006,55.8720727 191.318848,55.3935547 C190.908689,54.9150367 190.371585,54.6757812 189.70752,54.6757812 Z M202.920898,58.1181641 C202.920898,59.3535218 202.647464,60.3337366 202.100586,61.0588379 C201.553708,61.7839392 200.821294,62.1464844 199.90332,62.1464844 C198.819331,62.1464844 197.989261,61.7656288 197.413086,61.0039062 L197.413086,65.046875 L196.541504,65.046875 L196.541504,54.0751953 L197.354492,54.0751953 L197.398438,55.1958008 C197.969729,54.35107 198.797358,53.9287109 199.881348,53.9287109 C200.828618,53.9287109 201.572019,54.2875941 202.111572,55.0053711 C202.651126,55.7231481 202.920898,56.7192319 202.920898,57.9936523 L202.920898,58.1181641 Z M202.041992,57.9643555 C202.041992,56.9536082 201.834475,56.1552764 201.419434,55.5693359 C201.004392,54.9833955 200.425785,54.6904297 199.683594,54.6904297 C199.146482,54.6904297 198.685061,54.8198229 198.299316,55.0786133 C197.913572,55.3374036 197.618165,55.7133764 197.413086,56.206543 L197.413086,60.0078125 C197.623048,60.4619163 197.923338,60.8085926 198.313965,61.0478516 C198.704592,61.2871106 199.166013,61.4067383 199.698242,61.4067383 C200.435551,61.4067383 201.010496,61.1125518 201.423096,60.5241699 C201.835695,59.9357881 202.041992,59.0825251 202.041992,57.9643555 Z M218.991699,54.0751953 L219.020996,55.4301758 C219.318849,54.9418921 219.689939,54.5695814 220.134277,54.3132324 C220.578616,54.0568835 221.069333,53.9287109 221.606445,53.9287109 C222.456059,53.9287109 223.088377,54.1679664 223.503418,54.6464844 C223.918459,55.1250024 224.128418,55.8427687 224.133301,56.7998047 L224.133301,62 L223.261719,62 L223.261719,56.7924805 C223.256836,56.0844691 223.106691,55.5571306 222.811279,55.2104492 C222.515868,54.8637678 222.04346,54.6904297 221.394043,54.6904297 C220.852048,54.6904297 220.372317,54.8601057 219.954834,55.1994629 C219.537351,55.5388201 219.228517,55.9965792 219.02832,56.5727539 L219.02832,62 L218.156738,62 L218.156738,54.0751953 L218.991699,54.0751953 Z M231.465332,62.1464844 C230.791501,62.1464844 230.182376,61.9804704 229.637939,61.6484375 C229.093503,61.3164046 228.669923,60.8537627 228.367188,60.260498 C228.064452,59.6672334 227.913086,59.0019568 227.913086,58.2646484 L227.913086,57.949707 C227.913086,57.1879845 228.06079,56.5019562 228.356201,55.8916016 C228.651613,55.2812469 229.062986,54.8015154 229.590332,54.4523926 C230.117678,54.1032697 230.688962,53.9287109 231.304199,53.9287109 C232.266118,53.9287109 233.02905,54.2570768 233.593018,54.9138184 C234.156985,55.5705599 234.438965,56.4677677 234.438965,57.6054688 L234.438965,58.0961914 L228.784668,58.0961914 L228.784668,58.2646484 C228.784668,59.1630904 229.042234,59.911374 229.557373,60.5095215 C230.072512,61.107669 230.720699,61.4067383 231.501953,61.4067383 C231.970705,61.4067383 232.38452,61.3212899 232.743408,61.1503906 C233.102297,60.9794913 233.428221,60.7060566 233.721191,60.3300781 L234.270508,60.7475586 C233.625973,61.6801804 232.690924,62.1464844 231.465332,62.1464844 Z M231.304199,54.6757812 C230.645016,54.6757812 230.089602,54.9174781 229.637939,55.4008789 C229.186277,55.8842798 228.911622,56.5336873 228.813965,57.3491211 L233.567383,57.3491211 L233.567383,57.2539062 C233.542969,56.4921837 233.325686,55.8720727 232.915527,55.3935547 C232.505369,54.9150367 231.968265,54.6757812 231.304199,54.6757812 Z M243.147949,62 C243.060058,61.7509753 243.003906,61.3823267 242.979492,60.894043 C242.671873,61.2944356 242.280032,61.6032704 241.803955,61.8205566 C241.327878,62.0378429 240.823733,62.1464844 240.291504,62.1464844 C239.529781,62.1464844 238.913332,61.9340842 238.442139,61.5092773 C237.970945,61.0844705 237.735352,60.5473665 237.735352,59.8979492 C237.735352,59.126461 238.056393,58.5161155 238.698486,58.0668945 C239.340579,57.6176735 240.235346,57.3930664 241.382812,57.3930664 L242.972168,57.3930664 L242.972168,56.4921875 C242.972168,55.9257784 242.797609,55.4802262 242.448486,55.1555176 C242.099363,54.8308089 241.590335,54.668457 240.921387,54.668457 C240.311032,54.668457 239.805666,54.8247055 239.405273,55.137207 C239.004881,55.4497086 238.804688,55.8256814 238.804688,56.2651367 L237.925781,56.2578125 C237.925781,55.6279265 238.218747,55.0822777 238.804688,54.6208496 C239.390628,54.1594215 240.110836,53.9287109 240.965332,53.9287109 C241.849126,53.9287109 242.54614,54.149656 243.056396,54.5915527 C243.566653,55.0334495 243.829101,55.6498984 243.84375,56.440918 L243.84375,60.190918 C243.84375,60.9575234 243.924316,61.5312481 244.085449,61.9121094 L244.085449,62 L243.147949,62 Z M240.394043,61.3701172 C240.979983,61.3701172 241.50366,61.228517 241.965088,60.9453125 C242.426516,60.662108 242.762206,60.2836938 242.972168,59.8100586 L242.972168,58.0668945 L241.404785,58.0668945 C240.530757,58.0766602 239.84717,58.2365707 239.354004,58.5466309 C238.860837,58.856691 238.614258,59.2827121 238.614258,59.824707 C238.614258,60.2690452 238.779051,60.6376938 239.108643,60.9306641 C239.438234,61.2236343 239.866697,61.3701172 240.394043,61.3701172 Z M251.842285,54.8222656 C251.656737,54.7880858 251.458985,54.7709961 251.249023,54.7709961 C250.702146,54.7709961 250.239504,54.9235825 249.861084,55.2287598 C249.482664,55.5339371 249.212891,55.9770479 249.051758,56.5581055 L249.051758,62 L248.180176,62 L248.180176,54.0751953 L249.037109,54.0751953 L249.051758,55.3349609 C249.515627,54.3974563 250.260249,53.9287109 251.285645,53.9287109 C251.529786,53.9287109 251.722656,53.9604489 251.864258,54.0239258 L251.842285,54.8222656 Z M265.876465,62 C265.788574,61.7509753 265.732422,61.3823267 265.708008,60.894043 C265.400389,61.2944356 265.008547,61.6032704 264.532471,61.8205566 C264.056394,62.0378429 263.552249,62.1464844 263.02002,62.1464844 C262.258297,62.1464844 261.641848,61.9340842 261.170654,61.5092773 C260.699461,61.0844705 260.463867,60.5473665 260.463867,59.8979492 C260.463867,59.126461 260.784909,58.5161155 261.427002,58.0668945 C262.069095,57.6176735 262.963861,57.3930664 264.111328,57.3930664 L265.700684,57.3930664 L265.700684,56.4921875 C265.700684,55.9257784 265.526125,55.4802262 265.177002,55.1555176 C264.827879,54.8308089 264.318851,54.668457 263.649902,54.668457 C263.039548,54.668457 262.534182,54.8247055 262.133789,55.137207 C261.733396,55.4497086 261.533203,55.8256814 261.533203,56.2651367 L260.654297,56.2578125 C260.654297,55.6279265 260.947263,55.0822777 261.533203,54.6208496 C262.119144,54.1594215 262.839351,53.9287109 263.693848,53.9287109 C264.577641,53.9287109 265.274656,54.149656 265.784912,54.5915527 C266.295169,55.0334495 266.557617,55.6498984 266.572266,56.440918 L266.572266,60.190918 C266.572266,60.9575234 266.652831,61.5312481 266.813965,61.9121094 L266.813965,62 L265.876465,62 Z M263.122559,61.3701172 C263.708499,61.3701172 264.232175,61.228517 264.693604,60.9453125 C265.155032,60.662108 265.490722,60.2836938 265.700684,59.8100586 L265.700684,58.0668945 L264.133301,58.0668945 C263.259273,58.0766602 262.575686,58.2365707 262.08252,58.5466309 C261.589353,58.856691 261.342773,59.2827121 261.342773,59.824707 C261.342773,60.2690452 261.507567,60.6376938 261.837158,60.9306641 C262.16675,61.2236343 262.595212,61.3701172 263.122559,61.3701172 Z M7.52197266,76.1181641 C7.52197266,77.3535218 7.24853789,78.3337366 6.70166016,79.0588379 C6.15478242,79.7839392 5.41992649,80.1464844 4.49707031,80.1464844 C3.39354917,80.1464844 2.55859658,79.7363322 1.9921875,78.9160156 L1.95556641,80 L1.13525391,80 L1.13525391,68.75 L2.00683594,68.75 L2.00683594,73.2250977 C2.56347935,72.3608355 3.38866641,71.9287109 4.48242188,71.9287109 C5.41992656,71.9287109 6.16088595,72.2863734 6.70532227,73.001709 C7.24975858,73.7170446 7.52197266,74.7119077 7.52197266,75.9863281 L7.52197266,76.1181641 Z M6.64306641,75.9643555 C6.64306641,74.9194284 6.44043171,74.1125517 6.03515625,73.5437012 C5.62988079,72.9748507 5.05859744,72.6904297 4.32128906,72.6904297 C3.75976282,72.6904297 3.28369336,72.8283678 2.89306641,73.104248 C2.50243945,73.3801283 2.20703225,73.784177 2.00683594,74.3164062 L2.00683594,77.890625 C2.44629126,78.8867237 3.22265068,79.3847656 4.3359375,79.3847656 C5.05859736,79.3847656 5.62377726,79.099124 6.03149414,78.527832 C6.43921102,77.9565401 6.64306641,77.1020565 6.64306641,75.9643555 Z M14.5244141,80.1464844 C13.8505826,80.1464844 13.2414578,79.9804704 12.6970215,79.6484375 C12.1525852,79.3164046 11.7290054,78.8537627 11.4262695,78.260498 C11.1235336,77.6672334 10.972168,77.0019568 10.972168,76.2646484 L10.972168,75.949707 C10.972168,75.1879845 11.1198716,74.5019562 11.4152832,73.8916016 C11.7106948,73.2812469 12.1220677,72.8015154 12.6494141,72.4523926 C13.1767604,72.1032697 13.7480438,71.9287109 14.3632812,71.9287109 C15.3252001,71.9287109 16.0881319,72.2570768 16.6520996,72.9138184 C17.2160673,73.5705599 17.4980469,74.4677677 17.4980469,75.6054688 L17.4980469,76.0961914 L11.84375,76.0961914 L11.84375,76.2646484 C11.84375,77.1630904 12.1013158,77.911374 12.6164551,78.5095215 C13.1315944,79.107669 13.7797813,79.4067383 14.5610352,79.4067383 C15.0297875,79.4067383 15.4436017,79.3212899 15.8024902,79.1503906 C16.1613787,78.9794913 16.4873032,78.7060566 16.7802734,78.3300781 L17.3295898,78.7475586 C16.6850554,79.6801804 15.7500061,80.1464844 14.5244141,80.1464844 Z M14.3632812,72.6757812 C13.7040983,72.6757812 13.1486839,72.9174781 12.6970215,73.4008789 C12.2453591,73.8842798 11.9707036,74.5336873 11.8730469,75.3491211 L16.6264648,75.3491211 L16.6264648,75.2539062 C16.6020507,74.4921837 16.3847677,73.8720727 15.9746094,73.3935547 C15.5644511,72.9150367 15.0273471,72.6757812 14.3632812,72.6757812 Z M26.2070312,80 C26.1191402,79.7509753 26.0629884,79.3823267 26.0385742,78.894043 C25.7309555,79.2944356 25.3391137,79.6032704 24.8630371,79.8205566 C24.3869605,80.0378429 23.8828152,80.1464844 23.3505859,80.1464844 C22.5888634,80.1464844 21.9724145,79.9340842 21.5012207,79.5092773 C21.0300269,79.0844705 20.7944336,78.5473665 20.7944336,77.8979492 C20.7944336,77.126461 21.1154753,76.5161155 21.7575684,76.0668945 C22.3996614,75.6176735 23.2944279,75.3930664 24.4418945,75.3930664 L26.03125,75.3930664 L26.03125,74.4921875 C26.03125,73.9257784 25.8566912,73.4802262 25.5075684,73.1555176 C25.1584455,72.8308089 24.6494174,72.668457 23.9804688,72.668457 C23.3701141,72.668457 22.8647481,72.8247055 22.4643555,73.137207 C22.0639628,73.4497086 21.8637695,73.8256814 21.8637695,74.2651367 L20.9848633,74.2578125 C20.9848633,73.6279265 21.2778291,73.0822777 21.8637695,72.6208496 C22.44971,72.1594215 23.1699176,71.9287109 24.0244141,71.9287109 C24.9082075,71.9287109 25.6052221,72.149656 26.1154785,72.5915527 C26.625735,73.0334495 26.8881835,73.6498984 26.902832,74.440918 L26.902832,78.190918 C26.902832,78.9575234 26.9833976,79.5312481 27.1445312,79.9121094 L27.1445312,80 L26.2070312,80 Z M23.453125,79.3701172 C24.0390654,79.3701172 24.5627418,79.228517 25.0241699,78.9453125 C25.485598,78.662108 25.821288,78.2836938 26.03125,77.8100586 L26.03125,76.0668945 L24.4638672,76.0668945 C23.5898394,76.0766602 22.9062525,76.2365707 22.4130859,76.5466309 C21.9199194,76.856691 21.6733398,77.2827121 21.6733398,77.824707 C21.6733398,78.2690452 21.8381331,78.6376938 22.1677246,78.9306641 C22.4973161,79.2236343 22.9257786,79.3701172 23.453125,79.3701172 Z M36.3369141,78.996582 C35.8095677,79.7631874 34.9672909,80.1464844 33.8100586,80.1464844 C32.9653278,80.1464844 32.3232444,79.9011255 31.8837891,79.4104004 C31.4443337,78.9196753 31.2197266,78.1933642 31.2099609,77.2314453 L31.2099609,72.0751953 L32.081543,72.0751953 L32.081543,77.121582 C32.081543,78.6303786 32.6918884,79.3847656 33.9125977,79.3847656 C35.1821353,79.3847656 35.9853499,78.8598685 36.3222656,77.8100586 L36.3222656,72.0751953 L37.2011719,72.0751953 L37.2011719,80 L36.3515625,80 L36.3369141,78.996582 Z M42.8413086,70.0463867 L42.8413086,72.0751953 L44.4819336,72.0751953 L44.4819336,72.7929688 L42.8413086,72.7929688 L42.8413086,78.0737305 C42.8413086,78.5131858 42.9206535,78.840331 43.0793457,79.0551758 C43.2380379,79.2700206 43.5029278,79.3774414 43.8740234,79.3774414 C44.0205085,79.3774414 44.2573226,79.3530276 44.5844727,79.3041992 L44.6210938,80.0219727 C44.3916004,80.1049809 44.0791035,80.1464844 43.6835938,80.1464844 C43.0830048,80.1464844 42.6459975,79.9719256 42.3725586,79.6228027 C42.0991197,79.2736799 41.9624023,78.759769 41.9624023,78.0810547 L41.9624023,72.7929688 L40.5048828,72.7929688 L40.5048828,72.0751953 L41.9624023,72.0751953 L41.9624023,70.0463867 L42.8413086,70.0463867 Z M49.2797852,80 L48.4008789,80 L48.4008789,72.0751953 L49.2797852,72.0751953 L49.2797852,80 Z M48.2470703,69.7827148 C48.2470703,69.6166984 48.3007807,69.4763189 48.4082031,69.3615723 C48.5156255,69.2468256 48.6621084,69.1894531 48.8476562,69.1894531 C49.0332041,69.1894531 49.1809077,69.2468256 49.2907715,69.3615723 C49.4006353,69.4763189 49.4555664,69.6166984 49.4555664,69.7827148 C49.4555664,69.9487313 49.4006353,70.0878901 49.2907715,70.2001953 C49.1809077,70.3125006 49.0332041,70.3686523 48.8476562,70.3686523 C48.6621084,70.3686523 48.5156255,70.3125006 48.4082031,70.2001953 C48.3007807,70.0878901 48.2470703,69.9487313 48.2470703,69.7827148 Z M54.2900391,80 L54.2900391,72.7929688 L52.9790039,72.7929688 L52.9790039,72.0751953 L54.2900391,72.0751953 L54.2900391,71.1157227 C54.2900391,70.3051717 54.4963358,69.6826194 54.9089355,69.2480469 C55.3215353,68.8134744 55.8964807,68.5961914 56.6337891,68.5961914 C56.965822,68.5961914 57.2758775,68.6376949 57.5639648,68.7207031 L57.4980469,69.453125 C57.253905,69.394531 56.9877944,69.3652344 56.699707,69.3652344 C56.2163062,69.3652344 55.8403334,69.5153794 55.5717773,69.8156738 C55.3032213,70.1159683 55.1689453,70.5419894 55.1689453,71.09375 L55.1689453,72.0751953 L57.0585938,72.0751953 L57.0585938,72.7929688 L55.1689453,72.7929688 L55.1689453,80 L54.2900391,80 Z M65.7236328,78.996582 C65.1962864,79.7631874 64.3540097,80.1464844 63.1967773,80.1464844 C62.3520466,80.1464844 61.7099631,79.9011255 61.2705078,79.4104004 C60.8310525,78.9196753 60.6064454,78.1933642 60.5966797,77.2314453 L60.5966797,72.0751953 L61.4682617,72.0751953 L61.4682617,77.121582 C61.4682617,78.6303786 62.0786072,79.3847656 63.2993164,79.3847656 C64.568854,79.3847656 65.3720686,78.8598685 65.7089844,77.8100586 L65.7089844,72.0751953 L66.5878906,72.0751953 L66.5878906,80 L65.7382812,80 L65.7236328,78.996582 Z M71.847168,80 L70.9682617,80 L70.9682617,68.75 L71.847168,68.75 L71.847168,80 Z M82.8564453,80 L81.9775391,80 L81.9775391,68.75 L82.8564453,68.75 L82.8564453,80 Z M92.2392578,80 C92.1513667,79.7509753 92.095215,79.3823267 92.0708008,78.894043 C91.7631821,79.2944356 91.3713403,79.6032704 90.8952637,79.8205566 C90.4191871,80.0378429 89.9150417,80.1464844 89.3828125,80.1464844 C88.6210899,80.1464844 88.004641,79.9340842 87.5334473,79.5092773 C87.0622535,79.0844705 86.8266602,78.5473665 86.8266602,77.8979492 C86.8266602,77.126461 87.1477019,76.5161155 87.7897949,76.0668945 C88.431888,75.6176735 89.3266544,75.3930664 90.4741211,75.3930664 L92.0634766,75.3930664 L92.0634766,74.4921875 C92.0634766,73.9257784 91.8889178,73.4802262 91.5397949,73.1555176 C91.1906721,72.8308089 90.681644,72.668457 90.0126953,72.668457 C89.4023407,72.668457 88.8969747,72.8247055 88.496582,73.137207 C88.0961894,73.4497086 87.8959961,73.8256814 87.8959961,74.2651367 L87.0170898,74.2578125 C87.0170898,73.6279265 87.3100557,73.0822777 87.8959961,72.6208496 C88.4819365,72.1594215 89.2021442,71.9287109 90.0566406,71.9287109 C90.9404341,71.9287109 91.6374486,72.149656 92.1477051,72.5915527 C92.6579615,73.0334495 92.9204101,73.6498984 92.9350586,74.440918 L92.9350586,78.190918 C92.9350586,78.9575234 93.0156242,79.5312481 93.1767578,79.9121094 L93.1767578,80 L92.2392578,80 Z M89.4853516,79.3701172 C90.071292,79.3701172 90.5949684,79.228517 91.0563965,78.9453125 C91.5178246,78.662108 91.8535146,78.2836938 92.0634766,77.8100586 L92.0634766,76.0668945 L90.4960938,76.0668945 C89.6220659,76.0766602 88.938479,76.2365707 88.4453125,76.5466309 C87.952146,76.856691 87.7055664,77.2827121 87.7055664,77.824707 C87.7055664,78.2690452 87.8703597,78.6376938 88.1999512,78.9306641 C88.5295427,79.2236343 88.9580052,79.3701172 89.4853516,79.3701172 Z M99.1538086,76.0083008 L98.1503906,76.9750977 L98.1503906,80 L97.2714844,80 L97.2714844,68.75 L98.1503906,68.75 L98.1503906,75.949707 L98.9780273,75.0561523 L102.010254,72.0751953 L103.116211,72.0751953 L99.7543945,75.4150391 L103.40918,80 L102.361816,80 L99.1538086,76.0083008 Z M109.540039,80.1464844 C108.866208,80.1464844 108.257083,79.9804704 107.712646,79.6484375 C107.16821,79.3164046 106.74463,78.8537627 106.441895,78.260498 C106.139159,77.6672334 105.987793,77.0019568 105.987793,76.2646484 L105.987793,75.949707 C105.987793,75.1879845 106.135497,74.5019562 106.430908,73.8916016 C106.72632,73.2812469 107.137693,72.8015154 107.665039,72.4523926 C108.192385,72.1032697 108.763669,71.9287109 109.378906,71.9287109 C110.340825,71.9287109 111.103757,72.2570768 111.667725,72.9138184 C112.231692,73.5705599 112.513672,74.4677677 112.513672,75.6054688 L112.513672,76.0961914 L106.859375,76.0961914 L106.859375,76.2646484 C106.859375,77.1630904 107.116941,77.911374 107.63208,78.5095215 C108.147219,79.107669 108.795406,79.4067383 109.57666,79.4067383 C110.045412,79.4067383 110.459227,79.3212899 110.818115,79.1503906 C111.177004,78.9794913 111.502928,78.7060566 111.795898,78.3300781 L112.345215,78.7475586 C111.70068,79.6801804 110.765631,80.1464844 109.540039,80.1464844 Z M109.378906,72.6757812 C108.719723,72.6757812 108.164309,72.9174781 107.712646,73.4008789 C107.260984,73.8842798 106.986329,74.5336873 106.888672,75.3491211 L111.64209,75.3491211 L111.64209,75.2539062 C111.617676,74.4921837 111.400393,73.8720727 110.990234,73.3935547 C110.580076,72.9150367 110.042972,72.6757812 109.378906,72.6757812 Z M126.870117,80 C126.782226,79.7509753 126.726074,79.3823267 126.70166,78.894043 C126.394041,79.2944356 126.0022,79.6032704 125.526123,79.8205566 C125.050046,80.0378429 124.545901,80.1464844 124.013672,80.1464844 C123.251949,80.1464844 122.6355,79.9340842 122.164307,79.5092773 C121.693113,79.0844705 121.45752,78.5473665 121.45752,77.8979492 C121.45752,77.126461 121.778561,76.5161155 122.420654,76.0668945 C123.062747,75.6176735 123.957514,75.3930664 125.10498,75.3930664 L126.694336,75.3930664 L126.694336,74.4921875 C126.694336,73.9257784 126.519777,73.4802262 126.170654,73.1555176 C125.821531,72.8308089 125.312503,72.668457 124.643555,72.668457 C124.0332,72.668457 123.527834,72.8247055 123.127441,73.137207 C122.727049,73.4497086 122.526855,73.8256814 122.526855,74.2651367 L121.647949,74.2578125 C121.647949,73.6279265 121.940915,73.0822777 122.526855,72.6208496 C123.112796,72.1594215 123.833004,71.9287109 124.6875,71.9287109 C125.571293,71.9287109 126.268308,72.149656 126.778564,72.5915527 C127.288821,73.0334495 127.551269,73.6498984 127.565918,74.440918 L127.565918,78.190918 C127.565918,78.9575234 127.646484,79.5312481 127.807617,79.9121094 L127.807617,80 L126.870117,80 Z M124.116211,79.3701172 C124.702151,79.3701172 125.225828,79.228517 125.687256,78.9453125 C126.148684,78.662108 126.484374,78.2836938 126.694336,77.8100586 L126.694336,76.0668945 L125.126953,76.0668945 C124.252925,76.0766602 123.569338,76.2365707 123.076172,76.5466309 C122.583005,76.856691 122.336426,77.2827121 122.336426,77.824707 C122.336426,78.2690452 122.501219,78.6376938 122.830811,78.9306641 C123.160402,79.2236343 123.588865,79.3701172 124.116211,79.3701172 Z M132.737305,72.0751953 L132.766602,73.4301758 C133.064455,72.9418921 133.435545,72.5695814 133.879883,72.3132324 C134.324221,72.0568835 134.814939,71.9287109 135.352051,71.9287109 C136.201664,71.9287109 136.833982,72.1679664 137.249023,72.6464844 C137.664065,73.1250024 137.874023,73.8427687 137.878906,74.7998047 L137.878906,80 L137.007324,80 L137.007324,74.7924805 C137.002441,74.0844691 136.852296,73.5571306 136.556885,73.2104492 C136.261473,72.8637678 135.789066,72.6904297 135.139648,72.6904297 C134.597654,72.6904297 134.117922,72.8601057 133.700439,73.1994629 C133.282957,73.5388201 132.974122,73.9965792 132.773926,74.5727539 L132.773926,80 L131.902344,80 L131.902344,72.0751953 L132.737305,72.0751953 Z M141.790527,75.9643555 C141.790527,74.7338806 142.065183,73.7536658 142.614502,73.0236816 C143.163821,72.2936975 143.909663,71.9287109 144.852051,71.9287109 C145.921392,71.9287109 146.736814,72.35107 147.29834,73.1958008 L147.29834,68.75 L148.169922,68.75 L148.169922,80 L147.349609,80 L147.312988,78.9453125 C146.751462,79.7460978 145.926275,80.1464844 144.837402,80.1464844 C143.924312,80.1464844 143.188235,79.7790564 142.62915,79.0441895 C142.070066,78.3093225 141.790527,77.3169008 141.790527,76.0668945 L141.790527,75.9643555 Z M142.676758,76.1181641 C142.676758,77.1289113 142.879393,77.9260225 143.284668,78.5095215 C143.689943,79.0930205 144.261227,79.3847656 144.998535,79.3847656 C146.077642,79.3847656 146.844236,78.9086962 147.29834,77.956543 L147.29834,74.2358398 C146.844236,73.2055613 146.082525,72.6904297 145.013184,72.6904297 C144.275875,72.6904297 143.70215,72.9797334 143.291992,73.5583496 C142.881834,74.1369658 142.676758,74.9902287 142.676758,76.1181641 Z M161.193359,80.1464844 C160.519528,80.1464844 159.910403,79.9804704 159.365967,79.6484375 C158.82153,79.3164046 158.397951,78.8537627 158.095215,78.260498 C157.792479,77.6672334 157.641113,77.0019568 157.641113,76.2646484 L157.641113,75.949707 C157.641113,75.1879845 157.788817,74.5019562 158.084229,73.8916016 C158.37964,73.2812469 158.791013,72.8015154 159.318359,72.4523926 C159.845706,72.1032697 160.416989,71.9287109 161.032227,71.9287109 C161.994145,71.9287109 162.757077,72.2570768 163.321045,72.9138184 C163.885013,73.5705599 164.166992,74.4677677 164.166992,75.6054688 L164.166992,76.0961914 L158.512695,76.0961914 L158.512695,76.2646484 C158.512695,77.1630904 158.770261,77.911374 159.2854,78.5095215 C159.80054,79.107669 160.448727,79.4067383 161.22998,79.4067383 C161.698733,79.4067383 162.112547,79.3212899 162.471436,79.1503906 C162.830324,78.9794913 163.156249,78.7060566 163.449219,78.3300781 L163.998535,78.7475586 C163.354001,79.6801804 162.418951,80.1464844 161.193359,80.1464844 Z M161.032227,72.6757812 C160.373044,72.6757812 159.817629,72.9174781 159.365967,73.4008789 C158.914304,73.8842798 158.639649,74.5336873 158.541992,75.3491211 L163.29541,75.3491211 L163.29541,75.2539062 C163.270996,74.4921837 163.053713,73.8720727 162.643555,73.3935547 C162.233396,72.9150367 161.696292,72.6757812 161.032227,72.6757812 Z M168.708496,72.0751953 L168.737793,73.4301758 C169.035646,72.9418921 169.406736,72.5695814 169.851074,72.3132324 C170.295412,72.0568835 170.78613,71.9287109 171.323242,71.9287109 C172.172856,71.9287109 172.805174,72.1679664 173.220215,72.6464844 C173.635256,73.1250024 173.845215,73.8427687 173.850098,74.7998047 L173.850098,80 L172.978516,80 L172.978516,74.7924805 C172.973633,74.0844691 172.823488,73.5571306 172.528076,73.2104492 C172.232665,72.8637678 171.760257,72.6904297 171.11084,72.6904297 C170.568845,72.6904297 170.089113,72.8601057 169.671631,73.1994629 C169.254148,73.5388201 168.945314,73.9965792 168.745117,74.5727539 L168.745117,80 L167.873535,80 L167.873535,72.0751953 L168.708496,72.0751953 Z M179.058105,72.0751953 L179.058105,80.9448242 C179.058105,81.6772498 178.882326,82.2363262 178.530762,82.6220703 C178.179197,83.0078144 177.661625,83.2006836 176.978027,83.2006836 C176.714354,83.2006836 176.458009,83.1542973 176.208984,83.0615234 L176.223633,82.3364258 C176.438478,82.3999027 176.658202,82.4316406 176.882812,82.4316406 C177.751957,82.4316406 178.186523,81.9311573 178.186523,80.9301758 L178.186523,72.0751953 L179.058105,72.0751953 Z M178.625977,69.1894531 C178.816407,69.1894531 178.965331,69.2468256 179.072754,69.3615723 C179.180176,69.4763189 179.233887,69.6166984 179.233887,69.7827148 C179.233887,69.9487313 179.180176,70.0878901 179.072754,70.2001953 C178.965331,70.3125006 178.816407,70.3686523 178.625977,70.3686523 C178.440429,70.3686523 178.295167,70.3125006 178.190186,70.2001953 C178.085205,70.0878901 178.032715,69.9487313 178.032715,69.7827148 C178.032715,69.6166984 178.085205,69.4763189 178.190186,69.3615723 C178.295167,69.2468256 178.440429,69.1894531 178.625977,69.1894531 Z M183.050293,75.9204102 C183.050293,75.1586876 183.197997,74.4726593 183.493408,73.8623047 C183.78882,73.2519501 184.206296,72.7771013 184.74585,72.4377441 C185.285403,72.098387 185.896969,71.9287109 186.580566,71.9287109 C187.635259,71.9287109 188.489743,72.2985803 189.144043,73.0383301 C189.798343,73.7780799 190.125488,74.7582947 190.125488,75.9790039 L190.125488,76.1621094 C190.125488,76.9287148 189.977785,77.6184051 189.682373,78.2312012 C189.386961,78.8439972 188.970706,79.3164046 188.433594,79.6484375 C187.896482,79.9804704 187.283695,80.1464844 186.595215,80.1464844 C185.545405,80.1464844 184.692142,79.776615 184.0354,79.0368652 C183.378659,78.2971154 183.050293,77.3169006 183.050293,76.0961914 L183.050293,75.9204102 Z M183.929199,76.1621094 C183.929199,77.1093797 184.174558,77.8869599 184.665283,78.494873 C185.156008,79.1027862 185.799312,79.4067383 186.595215,79.4067383 C187.386234,79.4067383 188.027097,79.1027862 188.517822,78.494873 C189.008547,77.8869599 189.253906,77.0849659 189.253906,76.0888672 L189.253906,75.9204102 C189.253906,75.3149384 189.141603,74.7607447 188.916992,74.2578125 C188.692382,73.7548803 188.377443,73.3654799 187.972168,73.0895996 C187.566893,72.8137193 187.10303,72.6757812 186.580566,72.6757812 C185.799313,72.6757812 185.162112,72.9821747 184.668945,73.5949707 C184.175779,74.2077667 183.929199,75.0097607 183.929199,76.0009766 L183.929199,76.1621094 Z M196.336914,78.7402344 L198.651367,72.0751953 L199.596191,72.0751953 L196.212402,81.3476562 L196.036621,81.7578125 C195.602049,82.7197314 194.930669,83.2006836 194.022461,83.2006836 C193.812499,83.2006836 193.587892,83.1665042 193.348633,83.0981445 L193.341309,82.3730469 L193.79541,82.4169922 C194.2251,82.4169922 194.572997,82.3107921 194.839111,82.0983887 C195.105226,81.8859853 195.331054,81.5209987 195.516602,81.003418 L195.904785,79.934082 L192.916504,72.0751953 L193.875977,72.0751953 L196.336914,78.7402344 Z M213.601074,80 C213.513183,79.7509753 213.457031,79.3823267 213.432617,78.894043 C213.124998,79.2944356 212.733157,79.6032704 212.25708,79.8205566 C211.781003,80.0378429 211.276858,80.1464844 210.744629,80.1464844 C209.982906,80.1464844 209.366457,79.9340842 208.895264,79.5092773 C208.42407,79.0844705 208.188477,78.5473665 208.188477,77.8979492 C208.188477,77.126461 208.509518,76.5161155 209.151611,76.0668945 C209.793704,75.6176735 210.688471,75.3930664 211.835938,75.3930664 L213.425293,75.3930664 L213.425293,74.4921875 C213.425293,73.9257784 213.250734,73.4802262 212.901611,73.1555176 C212.552488,72.8308089 212.04346,72.668457 211.374512,72.668457 C210.764157,72.668457 210.258791,72.8247055 209.858398,73.137207 C209.458006,73.4497086 209.257812,73.8256814 209.257812,74.2651367 L208.378906,74.2578125 C208.378906,73.6279265 208.671872,73.0822777 209.257812,72.6208496 C209.843753,72.1594215 210.563961,71.9287109 211.418457,71.9287109 C212.302251,71.9287109 212.999265,72.149656 213.509521,72.5915527 C214.019778,73.0334495 214.282226,73.6498984 214.296875,74.440918 L214.296875,78.190918 C214.296875,78.9575234 214.377441,79.5312481 214.538574,79.9121094 L214.538574,80 L213.601074,80 Z M210.847168,79.3701172 C211.433108,79.3701172 211.956785,79.228517 212.418213,78.9453125 C212.879641,78.662108 213.215331,78.2836938 213.425293,77.8100586 L213.425293,76.0668945 L211.85791,76.0668945 C210.983882,76.0766602 210.300295,76.2365707 209.807129,76.5466309 C209.313962,76.856691 209.067383,77.2827121 209.067383,77.824707 C209.067383,78.2690452 209.232176,78.6376938 209.561768,78.9306641 C209.891359,79.2236343 210.319822,79.3701172 210.847168,79.3701172 Z M230.660156,76.1181641 C230.660156,77.3535218 230.386721,78.3337366 229.839844,79.0588379 C229.292966,79.7839392 228.55811,80.1464844 227.635254,80.1464844 C226.531733,80.1464844 225.69678,79.7363322 225.130371,78.9160156 L225.09375,80 L224.273438,80 L224.273438,68.75 L225.14502,68.75 L225.14502,73.2250977 C225.701663,72.3608355 226.52685,71.9287109 227.620605,71.9287109 C228.55811,71.9287109 229.29907,72.2863734 229.843506,73.001709 C230.387942,73.7170446 230.660156,74.7119077 230.660156,75.9863281 L230.660156,76.1181641 Z M229.78125,75.9643555 C229.78125,74.9194284 229.578615,74.1125517 229.17334,73.5437012 C228.768064,72.9748507 228.196781,72.6904297 227.459473,72.6904297 C226.897946,72.6904297 226.421877,72.8283678 226.03125,73.104248 C225.640623,73.3801283 225.345216,73.784177 225.14502,74.3164062 L225.14502,77.890625 C225.584475,78.8867237 226.360834,79.3847656 227.474121,79.3847656 C228.196781,79.3847656 228.761961,79.099124 229.169678,78.527832 C229.577395,77.9565401 229.78125,77.1020565 229.78125,75.9643555 Z M235.575195,80 L234.696289,80 L234.696289,72.0751953 L235.575195,72.0751953 L235.575195,80 Z M234.54248,69.7827148 C234.54248,69.6166984 234.596191,69.4763189 234.703613,69.3615723 C234.811036,69.2468256 234.957519,69.1894531 235.143066,69.1894531 C235.328614,69.1894531 235.476318,69.2468256 235.586182,69.3615723 C235.696045,69.4763189 235.750977,69.6166984 235.750977,69.7827148 C235.750977,69.9487313 235.696045,70.0878901 235.586182,70.2001953 C235.476318,70.3125006 235.328614,70.3686523 235.143066,70.3686523 C234.957519,70.3686523 234.811036,70.3125006 234.703613,70.2001953 C234.596191,70.0878901 234.54248,69.9487313 234.54248,69.7827148 Z M239.604004,75.9643555 C239.604004,74.7241149 239.878659,73.7414587 240.427979,73.0163574 C240.977298,72.2912561 241.72314,71.9287109 242.665527,71.9287109 C243.744634,71.9287109 244.564939,72.3583941 245.126465,73.2177734 L245.17041,72.0751953 L245.990723,72.0751953 L245.990723,79.8388672 C245.990723,80.8593801 245.705081,81.6674775 245.133789,82.2631836 C244.562497,82.8588897 243.788579,83.1567383 242.812012,83.1567383 C242.260251,83.1567383 241.734133,83.0334485 241.233643,82.7868652 C240.733152,82.540282 240.338869,82.2119161 240.050781,81.8017578 L240.541504,81.2744141 C241.161624,82.0361366 241.898922,82.4169922 242.753418,82.4169922 C243.485844,82.4169922 244.057127,82.2009299 244.467285,81.7687988 C244.877443,81.3366678 245.089844,80.7373085 245.104492,79.9707031 L245.104492,78.9746094 C244.542966,79.7558633 243.725103,80.1464844 242.650879,80.1464844 C241.732906,80.1464844 240.995608,79.7802771 240.438965,79.0478516 C239.882321,78.315426 239.604004,77.3266664 239.604004,76.081543 L239.604004,75.9643555 Z M240.490234,76.1181641 C240.490234,77.1289113 240.692869,77.9260225 241.098145,78.5095215 C241.50342,79.0930205 242.074703,79.3847656 242.812012,79.3847656 C243.891119,79.3847656 244.655271,78.901372 245.104492,77.9345703 L245.104492,74.2504883 C244.899413,73.7426732 244.604006,73.3557142 244.218262,73.0895996 C243.832518,72.823485 243.368655,72.6904297 242.82666,72.6904297 C242.089352,72.6904297 241.515627,72.9797334 241.105469,73.5583496 C240.69531,74.1369658 240.490234,74.9902287 240.490234,76.1181641 Z M0.791015625,93.9643555 C0.791015625,92.7338806 1.06567108,91.7536658 1.61499023,91.0236816 C2.16430939,90.2936975 2.91015154,89.9287109 3.85253906,89.9287109 C4.92188035,89.9287109 5.73730188,90.35107 6.29882812,91.1958008 L6.29882812,86.75 L7.17041016,86.75 L7.17041016,98 L6.35009766,98 L6.31347656,96.9453125 C5.75195032,97.7460978 4.92676326,98.1464844 3.83789062,98.1464844 C2.92480012,98.1464844 2.1887235,97.7790564 1.62963867,97.0441895 C1.07055385,96.3093225 0.791015625,95.3169008 0.791015625,94.0668945 L0.791015625,93.9643555 Z M1.67724609,94.1181641 C1.67724609,95.1289113 1.87988079,95.9260225 2.28515625,96.5095215 C2.69043171,97.0930205 3.26171506,97.3847656 3.99902344,97.3847656 C5.0781304,97.3847656 5.84472429,96.9086962 6.29882812,95.956543 L6.29882812,92.2358398 C5.84472429,91.2055613 5.08301316,90.6904297 4.01367188,90.6904297 C3.2763635,90.6904297 2.70263877,90.9797334 2.29248047,91.5583496 C1.88232217,92.1369658 1.67724609,92.9902287 1.67724609,94.1181641 Z M10.9941406,93.9204102 C10.9941406,93.1586876 11.1418442,92.4726593 11.4372559,91.8623047 C11.7326675,91.2519501 12.1501438,90.7771013 12.6896973,90.4377441 C13.2292507,90.098387 13.8408169,89.9287109 14.5244141,89.9287109 C15.5791068,89.9287109 16.4335905,90.2985803 17.0878906,91.0383301 C17.7421908,91.7780799 18.0693359,92.7582947 18.0693359,93.9790039 L18.0693359,94.1621094 C18.0693359,94.9287148 17.9216323,95.6184051 17.6262207,96.2312012 C17.3308091,96.8439972 16.9145535,97.3164046 16.3774414,97.6484375 C15.8403293,97.9804704 15.2275425,98.1464844 14.5390625,98.1464844 C13.4892526,98.1464844 12.6359896,97.776615 11.979248,97.0368652 C11.3225065,96.2971154 10.9941406,95.3169006 10.9941406,94.0961914 L10.9941406,93.9204102 Z M11.8730469,94.1621094 C11.8730469,95.1093797 12.1184057,95.8869599 12.6091309,96.494873 C13.099856,97.1027862 13.7431601,97.4067383 14.5390625,97.4067383 C15.3300821,97.4067383 15.9709448,97.1027862 16.4616699,96.494873 C16.952395,95.8869599 17.1977539,95.0849659 17.1977539,94.0888672 L17.1977539,93.9204102 C17.1977539,93.3149384 17.0854503,92.7607447 16.8608398,92.2578125 C16.6362293,91.7548803 16.3212911,91.3654799 15.9160156,91.0895996 C15.5107402,90.8137193 15.0468776,90.6757812 14.5244141,90.6757812 C13.7431602,90.6757812 13.1059595,90.9821747 12.612793,91.5949707 C12.1196264,92.2077667 11.8730469,93.0097607 11.8730469,94.0009766 L11.8730469,94.1621094 Z M23.7753906,96.1762695 L23.9072266,96.8574219 L24.0830078,96.1396484 L25.9873047,90.0751953 L26.734375,90.0751953 L28.6166992,96.0883789 L28.8217773,96.9233398 L28.9902344,96.1542969 L30.6162109,90.0751953 L31.5244141,90.0751953 L29.2172852,98 L28.4702148,98 L26.434082,91.7158203 L26.3388672,91.2836914 L26.2436523,91.7231445 L24.2441406,98 L23.4970703,98 L21.1972656,90.0751953 L22.0981445,90.0751953 L23.7753906,96.1762695 Z M36.0219727,90.0751953 L36.0512695,91.4301758 C36.3491226,90.9418921 36.7202126,90.5695814 37.1645508,90.3132324 C37.6088889,90.0568835 38.0996067,89.9287109 38.6367188,89.9287109 C39.4863324,89.9287109 40.1186503,90.1679664 40.5336914,90.6464844 C40.9487325,91.1250024 41.1586914,91.8427687 41.1635742,92.7998047 L41.1635742,98 L40.2919922,98 L40.2919922,92.7924805 C40.2871094,92.0844691 40.1369644,91.5571306 39.8415527,91.2104492 C39.5461411,90.8637678 39.0737337,90.6904297 38.4243164,90.6904297 C37.8823215,90.6904297 37.40259,90.8601057 36.9851074,91.1994629 C36.5676249,91.5388201 36.2587901,91.9965792 36.0585938,92.5727539 L36.0585938,98 L35.1870117,98 L35.1870117,90.0751953 L36.0219727,90.0751953 Z M46.2983398,91.4155273 C46.5864272,90.9418922 46.9550759,90.5756849 47.4042969,90.3168945 C47.8535179,90.0581042 48.3442356,89.9287109 48.8764648,89.9287109 C49.7260785,89.9287109 50.3583964,90.1679664 50.7734375,90.6464844 C51.1884786,91.1250024 51.3984375,91.8427687 51.4033203,92.7998047 L51.4033203,98 L50.5317383,98 L50.5317383,92.7924805 C50.5268554,92.0844691 50.3767105,91.5571306 50.0812988,91.2104492 C49.7858872,90.8637678 49.3134798,90.6904297 48.6640625,90.6904297 C48.1220676,90.6904297 47.6423361,90.8601057 47.2248535,91.1994629 C46.807371,91.5388201 46.4985362,91.9965792 46.2983398,92.5727539 L46.2983398,98 L45.4267578,98 L45.4267578,86.75 L46.2983398,86.75 L46.2983398,91.4155273 Z M56.640625,98 L55.7617188,98 L55.7617188,90.0751953 L56.640625,90.0751953 L56.640625,98 Z M55.6079102,87.7827148 C55.6079102,87.6166984 55.6616206,87.4763189 55.769043,87.3615723 C55.8764654,87.2468256 56.0229483,87.1894531 56.2084961,87.1894531 C56.3940439,87.1894531 56.5417475,87.2468256 56.6516113,87.3615723 C56.7614752,87.4763189 56.8164062,87.6166984 56.8164062,87.7827148 C56.8164062,87.9487313 56.7614752,88.0878901 56.6516113,88.2001953 C56.5417475,88.3125006 56.3940439,88.3686523 56.2084961,88.3686523 C56.0229483,88.3686523 55.8764654,88.3125006 55.769043,88.2001953 C55.6616206,88.0878901 55.6079102,87.9487313 55.6079102,87.7827148 Z M62.0024414,98 L61.1235352,98 L61.1235352,86.75 L62.0024414,86.75 L62.0024414,98 Z M67.3642578,98 L66.4853516,98 L66.4853516,86.75 L67.3642578,86.75 L67.3642578,98 Z M78.7543945,88.0463867 L78.7543945,90.0751953 L80.3950195,90.0751953 L80.3950195,90.7929688 L78.7543945,90.7929688 L78.7543945,96.0737305 C78.7543945,96.5131858 78.8337394,96.840331 78.9924316,97.0551758 C79.1511238,97.2700206 79.4160138,97.3774414 79.7871094,97.3774414 C79.9335945,97.3774414 80.1704085,97.3530276 80.4975586,97.3041992 L80.5341797,98.0219727 C80.3046864,98.1049809 79.9921895,98.1464844 79.5966797,98.1464844 C78.9960907,98.1464844 78.5590834,97.9719256 78.2856445,97.6228027 C78.0122057,97.2736799 77.8754883,96.759769 77.8754883,96.0810547 L77.8754883,90.7929688 L76.4179688,90.7929688 L76.4179688,90.0751953 L77.8754883,90.0751953 L77.8754883,88.0463867 L78.7543945,88.0463867 Z M83.581543,93.9204102 C83.581543,93.1586876 83.7292466,92.4726593 84.0246582,91.8623047 C84.3200698,91.2519501 84.7375461,90.7771013 85.2770996,90.4377441 C85.8166531,90.098387 86.4282192,89.9287109 87.1118164,89.9287109 C88.1665092,89.9287109 89.0209928,90.2985803 89.675293,91.0383301 C90.3295931,91.7780799 90.6567383,92.7582947 90.6567383,93.9790039 L90.6567383,94.1621094 C90.6567383,94.9287148 90.5090347,95.6184051 90.213623,96.2312012 C89.9182114,96.8439972 89.5019558,97.3164046 88.9648438,97.6484375 C88.4277317,97.9804704 87.8149448,98.1464844 87.1264648,98.1464844 C86.0766549,98.1464844 85.223392,97.776615 84.5666504,97.0368652 C83.9099088,96.2971154 83.581543,95.3169006 83.581543,94.0961914 L83.581543,93.9204102 Z M84.4604492,94.1621094 C84.4604492,95.1093797 84.7058081,95.8869599 85.1965332,96.494873 C85.6872583,97.1027862 86.3305624,97.4067383 87.1264648,97.4067383 C87.9174844,97.4067383 88.5583472,97.1027862 89.0490723,96.494873 C89.5397974,95.8869599 89.7851562,95.0849659 89.7851562,94.0888672 L89.7851562,93.9204102 C89.7851562,93.3149384 89.6728527,92.7607447 89.4482422,92.2578125 C89.2236317,91.7548803 88.9086934,91.3654799 88.503418,91.0895996 C88.0981425,90.8137193 87.63428,90.6757812 87.1118164,90.6757812 C86.3305625,90.6757812 85.6933618,90.9821747 85.2001953,91.5949707 C84.7070288,92.2077667 84.4604492,93.0097607 84.4604492,94.0009766 L84.4604492,94.1621094 Z M101.226562,97.2382812 L106.492676,97.2382812 L106.492676,98 L100.318359,98 L100.318359,87.3359375 L101.226562,87.3359375 L101.226562,97.2382812 Z M113.084961,98.1464844 C112.411129,98.1464844 111.802005,97.9804704 111.257568,97.6484375 C110.713132,97.3164046 110.289552,96.8537627 109.986816,96.260498 C109.684081,95.6672334 109.532715,95.0019568 109.532715,94.2646484 L109.532715,93.949707 C109.532715,93.1879845 109.680418,92.5019562 109.97583,91.8916016 C110.271242,91.2812469 110.682615,90.8015154 111.209961,90.4523926 C111.737307,90.1032697 112.308591,89.9287109 112.923828,89.9287109 C113.885747,89.9287109 114.648679,90.2570768 115.212646,90.9138184 C115.776614,91.5705599 116.058594,92.4677677 116.058594,93.6054688 L116.058594,94.0961914 L110.404297,94.0961914 L110.404297,94.2646484 C110.404297,95.1630904 110.661863,95.911374 111.177002,96.5095215 C111.692141,97.107669 112.340328,97.4067383 113.121582,97.4067383 C113.590334,97.4067383 114.004149,97.3212899 114.363037,97.1503906 C114.721926,96.9794913 115.04785,96.7060566 115.34082,96.3300781 L115.890137,96.7475586 C115.245602,97.6801804 114.310553,98.1464844 113.084961,98.1464844 Z M112.923828,90.6757812 C112.264645,90.6757812 111.709231,90.9174781 111.257568,91.4008789 C110.805906,91.8842798 110.53125,92.5336873 110.433594,93.3491211 L115.187012,93.3491211 L115.187012,93.2539062 C115.162598,92.4921837 114.945315,91.8720727 114.535156,91.3935547 C114.124998,90.9150367 113.587894,90.6757812 112.923828,90.6757812 Z M122.833984,98.1464844 C122.160153,98.1464844 121.551028,97.9804704 121.006592,97.6484375 C120.462155,97.3164046 120.038576,96.8537627 119.73584,96.260498 C119.433104,95.6672334 119.281738,95.0019568 119.281738,94.2646484 L119.281738,93.949707 C119.281738,93.1879845 119.429442,92.5019562 119.724854,91.8916016 C120.020265,91.2812469 120.431638,90.8015154 120.958984,90.4523926 C121.486331,90.1032697 122.057614,89.9287109 122.672852,89.9287109 C123.63477,89.9287109 124.397702,90.2570768 124.96167,90.9138184 C125.525638,91.5705599 125.807617,92.4677677 125.807617,93.6054688 L125.807617,94.0961914 L120.15332,94.0961914 L120.15332,94.2646484 C120.15332,95.1630904 120.410886,95.911374 120.926025,96.5095215 C121.441165,97.107669 122.089352,97.4067383 122.870605,97.4067383 C123.339358,97.4067383 123.753172,97.3212899 124.112061,97.1503906 C124.470949,96.9794913 124.796874,96.7060566 125.089844,96.3300781 L125.63916,96.7475586 C124.994626,97.6801804 124.059576,98.1464844 122.833984,98.1464844 Z M122.672852,90.6757812 C122.013669,90.6757812 121.458254,90.9174781 121.006592,91.4008789 C120.554929,91.8842798 120.280274,92.5336873 120.182617,93.3491211 L124.936035,93.3491211 L124.936035,93.2539062 C124.911621,92.4921837 124.694338,91.8720727 124.28418,91.3935547 C123.874021,90.9150367 123.336917,90.6757812 122.672852,90.6757812 Z M138.582031,96.6816406 L138.640625,96.9086914 L138.706543,96.6816406 L142.061035,87.3359375 L143.049805,87.3359375 L139.080078,98 L138.21582,98 L134.246094,87.3359375 L135.227539,87.3359375 L138.582031,96.6816406 Z M147.393555,98 L146.514648,98 L146.514648,90.0751953 L147.393555,90.0751953 L147.393555,98 Z M146.36084,87.7827148 C146.36084,87.6166984 146.41455,87.4763189 146.521973,87.3615723 C146.629395,87.2468256 146.775878,87.1894531 146.961426,87.1894531 C147.146974,87.1894531 147.294677,87.2468256 147.404541,87.3615723 C147.514405,87.4763189 147.569336,87.6166984 147.569336,87.7827148 C147.569336,87.9487313 147.514405,88.0878901 147.404541,88.2001953 C147.294677,88.3125006 147.146974,88.3686523 146.961426,88.3686523 C146.775878,88.3686523 146.629395,88.3125006 146.521973,88.2001953 C146.41455,88.0878901 146.36084,87.9487313 146.36084,87.7827148 Z M152.608887,90.0751953 L152.638184,91.4301758 C152.936037,90.9418921 153.307127,90.5695814 153.751465,90.3132324 C154.195803,90.0568835 154.686521,89.9287109 155.223633,89.9287109 C156.073246,89.9287109 156.705564,90.1679664 157.120605,90.6464844 C157.535647,91.1250024 157.745605,91.8427687 157.750488,92.7998047 L157.750488,98 L156.878906,98 L156.878906,92.7924805 C156.874023,92.0844691 156.723878,91.5571306 156.428467,91.2104492 C156.133055,90.8637678 155.660648,90.6904297 155.01123,90.6904297 C154.469236,90.6904297 153.989504,90.8601057 153.572021,91.1994629 C153.154539,91.5388201 152.845704,91.9965792 152.645508,92.5727539 L152.645508,98 L151.773926,98 L151.773926,90.0751953 L152.608887,90.0751953 Z M162.995117,98 L162.116211,98 L162.116211,90.0751953 L162.995117,90.0751953 L162.995117,98 Z M161.962402,87.7827148 C161.962402,87.6166984 162.016113,87.4763189 162.123535,87.3615723 C162.230958,87.2468256 162.37744,87.1894531 162.562988,87.1894531 C162.748536,87.1894531 162.89624,87.2468256 163.006104,87.3615723 C163.115967,87.4763189 163.170898,87.6166984 163.170898,87.7827148 C163.170898,87.9487313 163.115967,88.0878901 163.006104,88.2001953 C162.89624,88.3125006 162.748536,88.3686523 162.562988,88.3686523 C162.37744,88.3686523 162.230958,88.3125006 162.123535,88.2001953 C162.016113,88.0878901 161.962402,87.9487313 161.962402,87.7827148 Z M168.210449,90.0751953 L168.239746,91.4301758 C168.537599,90.9418921 168.908689,90.5695814 169.353027,90.3132324 C169.797366,90.0568835 170.288083,89.9287109 170.825195,89.9287109 C171.674809,89.9287109 172.307127,90.1679664 172.722168,90.6464844 C173.137209,91.1250024 173.347168,91.8427687 173.352051,92.7998047 L173.352051,98 L172.480469,98 L172.480469,92.7924805 C172.475586,92.0844691 172.325441,91.5571306 172.030029,91.2104492 C171.734618,90.8637678 171.26221,90.6904297 170.612793,90.6904297 C170.070798,90.6904297 169.591067,90.8601057 169.173584,91.1994629 C168.756101,91.5388201 168.447267,91.9965792 168.24707,92.5727539 L168.24707,98 L167.375488,98 L167.375488,90.0751953 L168.210449,90.0751953 Z M177.263672,93.9643555 C177.263672,92.7241149 177.538327,91.7414587 178.087646,91.0163574 C178.636966,90.2912561 179.382808,89.9287109 180.325195,89.9287109 C181.404302,89.9287109 182.224607,90.3583941 182.786133,91.2177734 L182.830078,90.0751953 L183.650391,90.0751953 L183.650391,97.8388672 C183.650391,98.8593801 183.364749,99.6674775 182.793457,100.263184 C182.222165,100.85889 181.448247,101.156738 180.47168,101.156738 C179.919919,101.156738 179.393801,101.033448 178.893311,100.786865 C178.39282,100.540282 177.998537,100.211916 177.710449,99.8017578 L178.201172,99.2744141 C178.821292,100.036137 179.558589,100.416992 180.413086,100.416992 C181.145511,100.416992 181.716795,100.20093 182.126953,99.7687988 C182.537111,99.3366678 182.749512,98.7373085 182.76416,97.9707031 L182.76416,96.9746094 C182.202634,97.7558633 181.384771,98.1464844 180.310547,98.1464844 C179.392574,98.1464844 178.655276,97.7802771 178.098633,97.0478516 C177.541989,96.315426 177.263672,95.3266664 177.263672,94.081543 L177.263672,93.9643555 Z M178.149902,94.1181641 C178.149902,95.1289113 178.352537,95.9260225 178.757812,96.5095215 C179.163088,97.0930205 179.734371,97.3847656 180.47168,97.3847656 C181.550787,97.3847656 182.314939,96.901372 182.76416,95.9345703 L182.76416,92.2504883 C182.559081,91.7426732 182.263674,91.3557142 181.87793,91.0895996 C181.492186,90.823485 181.028323,90.6904297 180.486328,90.6904297 C179.74902,90.6904297 179.175295,90.9797334 178.765137,91.5583496 C178.354978,92.1369658 178.149902,92.9902287 178.149902,94.1181641 Z M187.85498,97.4726562 C187.85498,97.301757 187.909912,97.1564947 188.019775,97.0368652 C188.129639,96.9172357 188.282226,96.8574219 188.477539,96.8574219 C188.672853,96.8574219 188.82666,96.9172357 188.938965,97.0368652 C189.05127,97.1564947 189.107422,97.301757 189.107422,97.4726562 C189.107422,97.6435555 189.05127,97.783935 188.938965,97.8937988 C188.82666,98.0036627 188.672853,98.0585938 188.477539,98.0585938 C188.282226,98.0585938 188.129639,98.0036627 188.019775,97.8937988 C187.909912,97.783935 187.85498,97.6435555 187.85498,97.4726562 Z" id="After-three-days-uph"></path>
            </g>
        </g>
    </g>
</svg>