<?xml version="1.0" encoding="UTF-8"?>
<svg width="267px" height="84px" viewBox="0 0 267 84" version="1.1" xmlns="http://www.w3.org/2000/svg" xmlns:xlink="http://www.w3.org/1999/xlink">
    <!-- Generator: Sketch 41.2 (35397) - http://www.bohemiancoding.com/sketch -->
    <title>Group 2</title>
    <desc>Created with Sketch.</desc>
    <defs></defs>
    <g id="Page-1" stroke="none" stroke-width="1" fill="none" fill-rule="evenodd">
        <g id="Desktop-HD" transform="translate(-67.000000, -237.000000)" fill="#000000">
            <g id="Group-2" transform="translate(67.000000, 237.000000)">
                <path d="M2.82714844,9.52050781 L8.52539062,9.52050781 L8.52539062,11 L0.5859375,11 L0.5859375,9.79882812 L6.10107422,1.83007812 L0.622558594,1.83007812 L0.622558594,0.3359375 L8.34960938,0.3359375 L8.34960938,1.5078125 L2.82714844,9.52050781 Z M18.1791992,8.51708984 L14.0483398,8.51708984 L13.184082,11 L11.2578125,11 L15.2861328,0.3359375 L16.9487305,0.3359375 L20.984375,11 L19.0507812,11 L18.1791992,8.51708984 Z M14.5683594,7.02294922 L17.6591797,7.02294922 L16.1137695,2.59912109 L14.5683594,7.02294922 Z M24.1928711,11 L24.1928711,0.3359375 L27.8476562,0.3359375 C29.053717,0.3359375 29.9716765,0.577634302 30.6015625,1.06103516 C31.2314485,1.54443601 31.5463867,2.26464365 31.5463867,3.22167969 C31.5463867,3.70996338 31.4145521,4.14941211 31.1508789,4.54003906 C30.8872057,4.93066602 30.5014674,5.23339736 29.9936523,5.44824219 C30.5698271,5.60449297 31.0153793,5.89867948 31.3303223,6.33081055 C31.6452652,6.76294161 31.8027344,7.28173525 31.8027344,7.88720703 C31.8027344,8.8881886 31.4816927,9.65722388 30.8395996,10.1943359 C30.1975066,10.731448 29.2783263,11 28.0820312,11 L24.1928711,11 Z M26.0458984,6.18798828 L26.0458984,9.52050781 L28.1040039,9.52050781 C28.6850615,9.52050781 29.1391585,9.37646628 29.4663086,9.08837891 C29.7934587,8.80029153 29.9570312,8.39990491 29.9570312,7.88720703 C29.9570312,6.77880305 29.3906307,6.21240247 28.2578125,6.18798828 L26.0458984,6.18798828 Z M26.0458984,4.82568359 L27.8623047,4.82568359 C28.4384794,4.82568359 28.8889144,4.69506967 29.213623,4.43383789 C29.5383317,4.17260612 29.7006836,3.80273677 29.7006836,3.32421875 C29.7006836,2.79687236 29.5505386,2.4160168 29.2502441,2.18164062 C28.9499497,1.94726445 28.482425,1.83007812 27.8476562,1.83007812 L26.0458984,1.83007812 L26.0458984,4.82568359 Z M39.5742188,6.89111328 L37.5087891,6.89111328 L37.5087891,11 L35.6557617,11 L35.6557617,0.3359375 L39.4057617,0.3359375 C40.6362366,0.3359375 41.5859342,0.611813647 42.2548828,1.16357422 C42.9238315,1.71533479 43.2583008,2.51366665 43.2583008,3.55859375 C43.2583008,4.27148794 43.0861834,4.8684058 42.7419434,5.34936523 C42.3977034,5.83032467 41.9179718,6.20019402 41.3027344,6.45898438 L43.6977539,10.9047852 L43.6977539,11 L41.7128906,11 L39.5742188,6.89111328 Z M37.5087891,5.40429688 L39.4130859,5.40429688 C40.0380891,5.40429688 40.5263654,5.24682775 40.8779297,4.93188477 C41.2294939,4.61694178 41.4052734,4.18603789 41.4052734,3.63916016 C41.4052734,3.06786824 41.2429215,2.62597812 40.9182129,2.31347656 C40.5935042,2.000975 40.1088899,1.8398438 39.4643555,1.83007812 L37.5087891,1.83007812 L37.5087891,5.40429688 Z M48.9716797,11 L47.1259766,11 L47.1259766,0.3359375 L48.9716797,0.3359375 L48.9716797,11 Z M58.8232422,8.25341797 C58.8232422,7.78466563 58.6584489,7.42334111 58.3288574,7.16943359 C57.9992659,6.91552607 57.4047895,6.65918098 56.5454102,6.40039063 C55.6860309,6.14160027 55.0024439,5.85351721 54.4946289,5.53613281 C53.5229444,4.9257782 53.0371094,4.12988772 53.0371094,3.1484375 C53.0371094,2.2890582 53.3874477,1.58105747 54.0881348,1.02441406 C54.7888219,0.467770654 55.6982366,0.189453125 56.8164062,0.189453125 C57.5585975,0.189453125 58.2202119,0.326170508 58.8012695,0.599609375 C59.3823271,0.873048242 59.8388655,1.26244865 60.1708984,1.76782227 C60.5029313,2.27319589 60.6689453,2.83349302 60.6689453,3.44873047 L58.8232422,3.44873047 C58.8232422,2.89208706 58.6486834,2.4563004 58.2995605,2.14135742 C57.9504377,1.82641444 57.4511751,1.66894531 56.8017578,1.66894531 C56.196286,1.66894531 55.72632,1.79833855 55.3918457,2.05712891 C55.0573714,2.31591926 54.8901367,2.67724377 54.8901367,3.14111328 C54.8901367,3.53174023 55.070799,3.85766471 55.4321289,4.11889648 C55.7934588,4.38012826 56.389156,4.63403197 57.2192383,4.88061523 C58.0493206,5.1271985 58.7158178,5.40795741 59.21875,5.72290039 C59.7216822,6.03784337 60.0903309,6.39916788 60.324707,6.80688477 C60.5590832,7.21460165 60.6762695,7.6918918 60.6762695,8.23876953 C60.6762695,9.12744585 60.3356968,9.83422589 59.654541,10.3591309 C58.9733853,10.8840358 58.0493222,11.1464844 56.8823242,11.1464844 C56.110836,11.1464844 55.4016146,11.0036635 54.7546387,10.7180176 C54.1076628,10.4323716 53.6047381,10.0380885 53.2458496,9.53515625 C52.8869611,9.03222405 52.7075195,8.44629241 52.7075195,7.77734375 L54.5605469,7.77734375 C54.5605469,8.38281553 54.7607402,8.85156084 55.1611328,9.18359375 C55.5615254,9.51562666 56.1352502,9.68164062 56.8823242,9.68164062 C57.5268587,9.68164062 58.011473,9.5510267 58.3361816,9.28979492 C58.6608903,9.02856315 58.8232422,8.68310762 58.8232422,8.25341797 Z M67.3637695,6.39306641 L66.1552734,7.67480469 L66.1552734,11 L64.3022461,11 L64.3022461,0.3359375 L66.1552734,0.3359375 L66.1552734,5.33837891 L67.1806641,4.07128906 L70.3007812,0.3359375 L72.5419922,0.3359375 L68.5795898,5.06005859 L72.769043,11 L70.5717773,11 L67.3637695,6.39306641 Z M79.2368164,5.38964844 L81.6904297,0.3359375 L83.7412109,0.3359375 L80.1669922,7.07421875 L80.1669922,11 L78.3066406,11 L78.3066406,7.07421875 L74.7250977,0.3359375 L76.7832031,0.3359375 L79.2368164,5.38964844 Z M94.4868164,7.03759766 L94.4868164,11 L92.6337891,11 L92.6337891,0.3359375 L96.7133789,0.3359375 C97.9047911,0.3359375 98.8508266,0.645992993 99.5515137,1.26611328 C100.252201,1.88623357 100.602539,2.70653787 100.602539,3.72705078 C100.602539,4.77197788 100.259525,5.58495803 99.5734863,6.16601562 C98.8874477,6.74707322 97.926764,7.03759766 96.6914062,7.03759766 L94.4868164,7.03759766 Z M94.4868164,5.55078125 L96.7133789,5.55078125 C97.3725619,5.55078125 97.8754865,5.3957535 98.222168,5.08569336 C98.5688494,4.77563322 98.7421875,4.32763965 98.7421875,3.74169922 C98.7421875,3.16552446 98.566408,2.70532399 98.2148438,2.36108398 C97.8632795,2.01684398 97.3798859,1.8398438 96.7646484,1.83007812 L94.4868164,1.83007812 L94.4868164,5.55078125 Z M112.731934,5.94628906 C112.731934,6.99121616 112.551271,7.90795504 112.189941,8.6965332 C111.828611,9.48511136 111.312259,10.0905741 110.640869,10.5129395 C109.969479,10.9353048 109.196782,11.1464844 108.322754,11.1464844 C107.458492,11.1464844 106.688236,10.9353048 106.011963,10.5129395 C105.33569,10.0905741 104.813234,9.48877344 104.44458,8.70751953 C104.075926,7.92626562 103.88916,7.02539573 103.884277,6.00488281 L103.884277,5.40429688 C103.884277,4.36425261 104.068602,3.44629304 104.437256,2.65039062 C104.80591,1.85448821 105.325924,1.24536344 105.997314,0.822998047 C106.668705,0.400632654 107.43896,0.189453125 108.308105,0.189453125 C109.17725,0.189453125 109.947506,0.398191272 110.618896,0.815673828 C111.290287,1.23315638 111.80908,1.83373632 112.175293,2.61743164 C112.541506,3.40112697 112.727051,4.31298308 112.731934,5.35302734 L112.731934,5.94628906 Z M110.878906,5.38964844 C110.878906,4.2080019 110.65552,3.30224924 110.20874,2.67236328 C109.761961,2.04247732 109.128422,1.72753906 108.308105,1.72753906 C107.50732,1.72753906 106.881106,2.04125663 106.429443,2.66870117 C105.977781,3.29614572 105.74707,4.18358801 105.737305,5.33105469 L105.737305,5.94628906 C105.737305,7.11816992 105.965574,8.02392258 106.422119,8.66357422 C106.878664,9.30322585 107.512203,9.62304688 108.322754,9.62304688 C109.143071,9.62304688 109.774168,9.31055 110.216064,8.68554688 C110.657961,8.06054375 110.878906,7.14746694 110.878906,5.94628906 L110.878906,5.38964844 Z M118.533203,11 L116.6875,11 L116.6875,0.3359375 L118.533203,0.3359375 L118.533203,11 Z M131.270508,11 L129.41748,11 L124.664062,3.43408203 L124.664062,11 L122.811035,11 L122.811035,0.3359375 L124.664062,0.3359375 L129.432129,7.93115234 L129.432129,0.3359375 L131.270508,0.3359375 L131.270508,11 Z M142.953125,1.83007812 L139.62793,1.83007812 L139.62793,11 L137.789551,11 L137.789551,1.83007812 L134.493652,1.83007812 L134.493652,0.3359375 L142.953125,0.3359375 L142.953125,1.83007812 Z" id="ZABRISKY-POINT"></path>
                <path d="M1.59667969,38.5361328 L2.11669922,33.3359375 L7.44873047,33.3359375 L7.44873047,34.1489258 L2.87109375,34.1489258 L2.49755859,37.7524414 C3.06885051,37.3618145 3.73778914,37.1665039 4.50439453,37.1665039 C5.4663134,37.1665039 6.2329073,37.4790008 6.80419922,38.1040039 C7.37549114,38.729007 7.66113281,39.5615182 7.66113281,40.6015625 C7.66113281,41.724615 7.38281528,42.5961883 6.82617188,43.2163086 C6.26952847,43.8364289 5.4858449,44.1464844 4.47509766,44.1464844 C3.54735864,44.1464844 2.79541304,43.8876979 2.21923828,43.3701172 C1.64306353,42.8525365 1.31347698,42.1274461 1.23046875,41.1948242 L2.07275391,41.1948242 C2.15576213,41.9223669 2.4023417,42.4728985 2.8125,42.8464355 C3.2226583,43.2199726 3.77685198,43.4067383 4.47509766,43.4067383 C5.23682021,43.4067383 5.81176564,43.1650415 6.19995117,42.6816406 C6.58813671,42.1982398 6.78222656,41.5097701 6.78222656,40.6162109 C6.78222656,39.834957 6.56494358,39.1977564 6.13037109,38.7045898 C5.69579861,38.2114233 5.10254282,37.9648438 4.35058594,37.9648438 C3.9355448,37.9648438 3.57422029,38.0173335 3.26660156,38.1223145 C2.95898284,38.2272954 2.63427905,38.4311508 2.29248047,38.7338867 L1.59667969,38.5361328 Z M17.9013672,36.0751953 L17.9306641,37.3642578 C18.2236343,36.8857398 18.5898416,36.5268567 19.0292969,36.2875977 C19.4687522,36.0483386 19.9570286,35.9287109 20.4941406,35.9287109 C21.7441469,35.9287109 22.537596,36.4414011 22.8745117,37.4667969 C23.1577163,36.9736303 23.5361304,36.5939955 24.0097656,36.3278809 C24.4834008,36.0617662 25.0058565,35.9287109 25.5771484,35.9287109 C27.2763757,35.9287109 28.1430662,36.856436 28.1772461,38.7119141 L28.1772461,44 L27.2983398,44 L27.2983398,38.777832 C27.293457,38.0698207 27.1408706,37.5449236 26.8405762,37.203125 C26.5402817,36.8613264 26.0507846,36.6904297 25.3720703,36.6904297 C24.7421844,36.7001954 24.2099631,36.9040507 23.7753906,37.302002 C23.3408181,37.6999532 23.0991213,38.1845675 23.050293,38.7558594 L23.050293,44 L22.1713867,44 L22.1713867,38.7119141 C22.1665039,38.0331997 22.0065934,37.526613 21.6916504,37.1921387 C21.3767074,36.8576643 20.8920931,36.6904297 20.237793,36.6904297 C19.6860324,36.6904297 19.2124043,36.8478988 18.8168945,37.1628418 C18.4213847,37.4777848 18.1284189,37.9453094 17.9379883,38.5654297 L17.9379883,44 L17.059082,44 L17.059082,36.0751953 L17.9013672,36.0751953 Z M33.3779297,44 L32.4990234,44 L32.4990234,36.0751953 L33.3779297,36.0751953 L33.3779297,44 Z M32.3452148,33.7827148 C32.3452148,33.6166984 32.3989252,33.4763189 32.5063477,33.3615723 C32.6137701,33.2468256 32.760253,33.1894531 32.9458008,33.1894531 C33.1313486,33.1894531 33.2790522,33.2468256 33.388916,33.3615723 C33.4987798,33.4763189 33.5537109,33.6166984 33.5537109,33.7827148 C33.5537109,33.9487313 33.4987798,34.0878901 33.388916,34.2001953 C33.2790522,34.3125006 33.1313486,34.3686523 32.9458008,34.3686523 C32.760253,34.3686523 32.6137701,34.3125006 32.5063477,34.2001953 C32.3989252,34.0878901 32.3452148,33.9487313 32.3452148,33.7827148 Z M38.7397461,44 L37.8608398,44 L37.8608398,32.75 L38.7397461,32.75 L38.7397461,44 Z M44.1015625,44 L43.2226562,44 L43.2226562,32.75 L44.1015625,32.75 L44.1015625,44 Z M49.4633789,44 L48.5844727,44 L48.5844727,36.0751953 L49.4633789,36.0751953 L49.4633789,44 Z M48.4306641,33.7827148 C48.4306641,33.6166984 48.4843745,33.4763189 48.5917969,33.3615723 C48.6992193,33.2468256 48.8457022,33.1894531 49.03125,33.1894531 C49.2167978,33.1894531 49.3645014,33.2468256 49.4743652,33.3615723 C49.5842291,33.4763189 49.6391602,33.6166984 49.6391602,33.7827148 C49.6391602,33.9487313 49.5842291,34.0878901 49.4743652,34.2001953 C49.3645014,34.3125006 49.2167978,34.3686523 49.03125,34.3686523 C48.8457022,34.3686523 48.6992193,34.3125006 48.5917969,34.2001953 C48.4843745,34.0878901 48.4306641,33.9487313 48.4306641,33.7827148 Z M53.3603516,39.9204102 C53.3603516,39.1586876 53.5080552,38.4726593 53.8034668,37.8623047 C54.0988784,37.2519501 54.5163547,36.7771013 55.0559082,36.4377441 C55.5954617,36.098387 56.2070278,35.9287109 56.890625,35.9287109 C57.9453178,35.9287109 58.7998014,36.2985803 59.4541016,37.0383301 C60.1084017,37.7780799 60.4355469,38.7582947 60.4355469,39.9790039 L60.4355469,40.1621094 C60.4355469,40.9287148 60.2878433,41.6184051 59.9924316,42.2312012 C59.69702,42.8439972 59.2807644,43.3164046 58.7436523,43.6484375 C58.2065403,43.9804704 57.5937534,44.1464844 56.9052734,44.1464844 C55.8554635,44.1464844 55.0022005,43.776615 54.345459,43.0368652 C53.6887174,42.2971154 53.3603516,41.3169006 53.3603516,40.0961914 L53.3603516,39.9204102 Z M54.2392578,40.1621094 C54.2392578,41.1093797 54.4846167,41.8869599 54.9753418,42.494873 C55.4660669,43.1027862 56.109371,43.4067383 56.9052734,43.4067383 C57.696293,43.4067383 58.3371557,43.1027862 58.8278809,42.494873 C59.318606,41.8869599 59.5639648,41.0849659 59.5639648,40.0888672 L59.5639648,39.9204102 C59.5639648,39.3149384 59.4516613,38.7607447 59.2270508,38.2578125 C59.0024403,37.7548803 58.687502,37.3654799 58.2822266,37.0895996 C57.8769511,36.8137193 57.4130885,36.6757812 56.890625,36.6757812 C56.1093711,36.6757812 55.4721704,36.9821747 54.9790039,37.5949707 C54.4858374,38.2077667 54.2392578,39.0097607 54.2392578,40.0009766 L54.2392578,40.1621094 Z M65.0795898,36.0751953 L65.1088867,37.4301758 C65.4067398,36.9418921 65.7778298,36.5695814 66.222168,36.3132324 C66.6665061,36.0568835 67.1572239,35.9287109 67.6943359,35.9287109 C68.5439496,35.9287109 69.1762675,36.1679664 69.5913086,36.6464844 C70.0063497,37.1250024 70.2163086,37.8427687 70.2211914,38.7998047 L70.2211914,44 L69.3496094,44 L69.3496094,38.7924805 C69.3447265,38.0844691 69.1945816,37.5571306 68.8991699,37.2104492 C68.6037583,36.8637678 68.1313509,36.6904297 67.4819336,36.6904297 C66.9399387,36.6904297 66.4602072,36.8601057 66.0427246,37.1994629 C65.6252421,37.5388201 65.3164073,37.9965792 65.1162109,38.5727539 L65.1162109,44 L64.2446289,44 L64.2446289,36.0751953 L65.0795898,36.0751953 Z M82.644043,42.7402344 L84.9584961,36.0751953 L85.9033203,36.0751953 L82.5195312,45.3476562 L82.34375,45.7578125 C81.9091775,46.7197314 81.2377975,47.2006836 80.3295898,47.2006836 C80.1196279,47.2006836 79.8950207,47.1665042 79.6557617,47.0981445 L79.6484375,46.3730469 L80.1025391,46.4169922 C80.5322287,46.4169922 80.8801256,46.3107921 81.1462402,46.0983887 C81.4123548,45.8859853 81.6381827,45.5209987 81.8237305,45.003418 L82.2119141,43.934082 L79.2236328,36.0751953 L80.1831055,36.0751953 L82.644043,42.7402344 Z M92.2319336,44.1464844 C91.5581021,44.1464844 90.9489773,43.9804704 90.404541,43.6484375 C89.8601047,43.3164046 89.436525,42.8537627 89.1337891,42.260498 C88.8310532,41.6672334 88.6796875,41.0019568 88.6796875,40.2646484 L88.6796875,39.949707 C88.6796875,39.1879845 88.8273911,38.5019562 89.1228027,37.8916016 C89.4182144,37.2812469 89.8295872,36.8015154 90.3569336,36.4523926 C90.88428,36.1032697 91.4555633,35.9287109 92.0708008,35.9287109 C93.0327197,35.9287109 93.7956515,36.2570768 94.3596191,36.9138184 C94.9235868,37.5705599 95.2055664,38.4677677 95.2055664,39.6054688 L95.2055664,40.0961914 L89.5512695,40.0961914 L89.5512695,40.2646484 C89.5512695,41.1630904 89.8088353,41.911374 90.3239746,42.5095215 C90.8391139,43.107669 91.4873008,43.4067383 92.2685547,43.4067383 C92.737307,43.4067383 93.1511213,43.3212899 93.5100098,43.1503906 C93.8688983,42.9794913 94.1948228,42.7060566 94.487793,42.3300781 L95.0371094,42.7475586 C94.3925749,43.6801804 93.4575257,44.1464844 92.2319336,44.1464844 Z M92.0708008,36.6757812 C91.4116178,36.6757812 90.8562034,36.9174781 90.404541,37.4008789 C89.9528786,37.8842798 89.6782231,38.5336873 89.5805664,39.3491211 L94.3339844,39.3491211 L94.3339844,39.2539062 C94.3095702,38.4921837 94.0922872,37.8720727 93.6821289,37.3935547 C93.2719706,36.9150367 92.7348666,36.6757812 92.0708008,36.6757812 Z M103.914551,44 C103.82666,43.7509753 103.770508,43.3823267 103.746094,42.894043 C103.438475,43.2944356 103.046633,43.6032704 102.570557,43.8205566 C102.09448,44.0378429 101.590335,44.1464844 101.058105,44.1464844 C100.296383,44.1464844 99.679934,43.9340842 99.2087402,43.5092773 C98.7375465,43.0844705 98.5019531,42.5473665 98.5019531,41.8979492 C98.5019531,41.126461 98.8229948,40.5161155 99.4650879,40.0668945 C100.107181,39.6176735 101.001947,39.3930664 102.149414,39.3930664 L103.73877,39.3930664 L103.73877,38.4921875 C103.73877,37.9257784 103.564211,37.4802262 103.215088,37.1555176 C102.865965,36.8308089 102.356937,36.668457 101.687988,36.668457 C101.077634,36.668457 100.572268,36.8247055 100.171875,37.137207 C99.7714824,37.4497086 99.5712891,37.8256814 99.5712891,38.2651367 L98.6923828,38.2578125 C98.6923828,37.6279265 98.9853486,37.0822777 99.5712891,36.6208496 C100.157229,36.1594215 100.877437,35.9287109 101.731934,35.9287109 C102.615727,35.9287109 103.312742,36.149656 103.822998,36.5915527 C104.333255,37.0334495 104.595703,37.6498984 104.610352,38.440918 L104.610352,42.190918 C104.610352,42.9575234 104.690917,43.5312481 104.852051,43.9121094 L104.852051,44 L103.914551,44 Z M101.160645,43.3701172 C101.746585,43.3701172 102.270261,43.228517 102.731689,42.9453125 C103.193118,42.662108 103.528808,42.2836938 103.73877,41.8100586 L103.73877,40.0668945 L102.171387,40.0668945 C101.297359,40.0766602 100.613772,40.2365707 100.120605,40.5466309 C99.6274389,40.856691 99.3808594,41.2827121 99.3808594,41.824707 C99.3808594,42.2690452 99.5456526,42.6376938 99.8752441,42.9306641 C100.204836,43.2236343 100.633298,43.3701172 101.160645,43.3701172 Z M112.608887,36.8222656 C112.423339,36.7880858 112.225587,36.7709961 112.015625,36.7709961 C111.468747,36.7709961 111.006105,36.9235825 110.627686,37.2287598 C110.249266,37.5339371 109.979493,37.9770479 109.818359,38.5581055 L109.818359,44 L108.946777,44 L108.946777,36.0751953 L109.803711,36.0751953 L109.818359,37.3349609 C110.282229,36.3974563 111.02685,35.9287109 112.052246,35.9287109 C112.296388,35.9287109 112.489257,35.9604489 112.630859,36.0239258 L112.608887,36.8222656 Z M120.739258,41.9858398 C120.739258,41.5512674 120.564699,41.2021498 120.215576,40.9384766 C119.866453,40.6748034 119.340336,40.4685066 118.637207,40.3195801 C117.934079,40.1706536 117.38843,39.9997568 117.000244,39.8068848 C116.612059,39.6140127 116.323976,39.3784194 116.135986,39.1000977 C115.947997,38.821776 115.854004,38.4848653 115.854004,38.0893555 C115.854004,37.4643523 116.115232,36.9480001 116.637695,36.5402832 C117.160159,36.1325663 117.829097,35.9287109 118.644531,35.9287109 C119.528325,35.9287109 120.237546,36.1472146 120.772217,36.5842285 C121.306887,37.0212424 121.574219,37.5913051 121.574219,38.2944336 L120.695312,38.2944336 C120.695312,37.8305641 120.501223,37.4448258 120.113037,37.137207 C119.724852,36.8295883 119.235355,36.6757812 118.644531,36.6757812 C118.068356,36.6757812 117.605715,36.8039538 117.256592,37.0603027 C116.907469,37.3166517 116.73291,37.6499003 116.73291,38.0600586 C116.73291,38.4555684 116.878172,38.7619618 117.168701,38.979248 C117.45923,39.1965343 117.98901,39.3955069 118.758057,39.5761719 C119.527103,39.7568368 120.10327,39.949706 120.486572,40.1547852 C120.869875,40.3598643 121.154296,40.6064439 121.339844,40.8945312 C121.525392,41.1826186 121.618164,41.5317362 121.618164,41.9418945 C121.618164,42.6108432 121.348391,43.1455058 120.808838,43.5458984 C120.269284,43.9462911 119.564946,44.1464844 118.695801,44.1464844 C117.772945,44.1464844 117.024661,43.9230979 116.450928,43.4763184 C115.877194,43.0295388 115.590332,42.4643589 115.590332,41.7807617 L116.469238,41.7807617 C116.503418,42.2934596 116.71948,42.6926255 117.117432,42.9782715 C117.515383,43.2639174 118.041501,43.4067383 118.695801,43.4067383 C119.306155,43.4067383 119.799315,43.2724623 120.175293,43.0039062 C120.551271,42.7353502 120.739258,42.3959981 120.739258,41.9858398 Z M136.238281,44 C136.15039,43.7509753 136.094238,43.3823267 136.069824,42.894043 C135.762205,43.2944356 135.370364,43.6032704 134.894287,43.8205566 C134.418211,44.0378429 133.914065,44.1464844 133.381836,44.1464844 C132.620113,44.1464844 132.003664,43.9340842 131.532471,43.5092773 C131.061277,43.0844705 130.825684,42.5473665 130.825684,41.8979492 C130.825684,41.126461 131.146725,40.5161155 131.788818,40.0668945 C132.430911,39.6176735 133.325678,39.3930664 134.473145,39.3930664 L136.0625,39.3930664 L136.0625,38.4921875 C136.0625,37.9257784 135.887941,37.4802262 135.538818,37.1555176 C135.189696,36.8308089 134.680667,36.668457 134.011719,36.668457 C133.401364,36.668457 132.895998,36.8247055 132.495605,37.137207 C132.095213,37.4497086 131.89502,37.8256814 131.89502,38.2651367 L131.016113,38.2578125 C131.016113,37.6279265 131.309079,37.0822777 131.89502,36.6208496 C132.48096,36.1594215 133.201168,35.9287109 134.055664,35.9287109 C134.939458,35.9287109 135.636472,36.149656 136.146729,36.5915527 C136.656985,37.0334495 136.919434,37.6498984 136.934082,38.440918 L136.934082,42.190918 C136.934082,42.9575234 137.014648,43.5312481 137.175781,43.9121094 L137.175781,44 L136.238281,44 Z M133.484375,43.3701172 C134.070315,43.3701172 134.593992,43.228517 135.05542,42.9453125 C135.516848,42.662108 135.852538,42.2836938 136.0625,41.8100586 L136.0625,40.0668945 L134.495117,40.0668945 C133.621089,40.0766602 132.937502,40.2365707 132.444336,40.5466309 C131.951169,40.856691 131.70459,41.2827121 131.70459,41.824707 C131.70459,42.2690452 131.869383,42.6376938 132.198975,42.9306641 C132.528566,43.2236343 132.957029,43.3701172 133.484375,43.3701172 Z M140.918945,39.9643555 C140.918945,38.7241149 141.193601,37.7414587 141.74292,37.0163574 C142.292239,36.2912561 143.038081,35.9287109 143.980469,35.9287109 C145.059576,35.9287109 145.87988,36.3583941 146.441406,37.2177734 L146.485352,36.0751953 L147.305664,36.0751953 L147.305664,43.8388672 C147.305664,44.8593801 147.020022,45.6674775 146.44873,46.2631836 C145.877439,46.8588897 145.103521,47.1567383 144.126953,47.1567383 C143.575193,47.1567383 143.049075,47.0334485 142.548584,46.7868652 C142.048093,46.540282 141.65381,46.2119161 141.365723,45.8017578 L141.856445,45.2744141 C142.476566,46.0361366 143.213863,46.4169922 144.068359,46.4169922 C144.800785,46.4169922 145.372068,46.2009299 145.782227,45.7687988 C146.192385,45.3366678 146.404785,44.7373085 146.419434,43.9707031 L146.419434,42.9746094 C145.857907,43.7558633 145.040044,44.1464844 143.96582,44.1464844 C143.047847,44.1464844 142.31055,43.7802771 141.753906,43.0478516 C141.197263,42.315426 140.918945,41.3266664 140.918945,40.081543 L140.918945,39.9643555 Z M141.805176,40.1181641 C141.805176,41.1289113 142.00781,41.9260225 142.413086,42.5095215 C142.818361,43.0930205 143.389645,43.3847656 144.126953,43.3847656 C145.20606,43.3847656 145.970213,42.901372 146.419434,41.9345703 L146.419434,38.2504883 C146.214354,37.7426732 145.918947,37.3557142 145.533203,37.0895996 C145.147459,36.823485 144.683596,36.6904297 144.141602,36.6904297 C143.404293,36.6904297 142.830568,36.9797334 142.42041,37.5583496 C142.010252,38.1369658 141.805176,38.9902287 141.805176,40.1181641 Z M151.107422,39.9204102 C151.107422,39.1586876 151.255125,38.4726593 151.550537,37.8623047 C151.845949,37.2519501 152.263425,36.7771013 152.802979,36.4377441 C153.342532,36.098387 153.954098,35.9287109 154.637695,35.9287109 C155.692388,35.9287109 156.546872,36.2985803 157.201172,37.0383301 C157.855472,37.7780799 158.182617,38.7582947 158.182617,39.9790039 L158.182617,40.1621094 C158.182617,40.9287148 158.034914,41.6184051 157.739502,42.2312012 C157.44409,42.8439972 157.027835,43.3164046 156.490723,43.6484375 C155.953611,43.9804704 155.340824,44.1464844 154.652344,44.1464844 C153.602534,44.1464844 152.749271,43.776615 152.092529,43.0368652 C151.435788,42.2971154 151.107422,41.3169006 151.107422,40.0961914 L151.107422,39.9204102 Z M151.986328,40.1621094 C151.986328,41.1093797 152.231687,41.8869599 152.722412,42.494873 C153.213137,43.1027862 153.856441,43.4067383 154.652344,43.4067383 C155.443363,43.4067383 156.084226,43.1027862 156.574951,42.494873 C157.065676,41.8869599 157.311035,41.0849659 157.311035,40.0888672 L157.311035,39.9204102 C157.311035,39.3149384 157.198732,38.7607447 156.974121,38.2578125 C156.749511,37.7548803 156.434572,37.3654799 156.029297,37.0895996 C155.624021,36.8137193 155.160159,36.6757812 154.637695,36.6757812 C153.856441,36.6757812 153.219241,36.9821747 152.726074,37.5949707 C152.232908,38.2077667 151.986328,39.0097607 151.986328,40.0009766 L151.986328,40.1621094 Z M169.001465,34.0463867 L169.001465,36.0751953 L170.64209,36.0751953 L170.64209,36.7929688 L169.001465,36.7929688 L169.001465,42.0737305 C169.001465,42.5131858 169.08081,42.840331 169.239502,43.0551758 C169.398194,43.2700206 169.663084,43.3774414 170.03418,43.3774414 C170.180665,43.3774414 170.417479,43.3530276 170.744629,43.3041992 L170.78125,44.0219727 C170.551757,44.1049809 170.23926,44.1464844 169.84375,44.1464844 C169.243161,44.1464844 168.806154,43.9719256 168.532715,43.6228027 C168.259276,43.2736799 168.122559,42.759769 168.122559,42.0810547 L168.122559,36.7929688 L166.665039,36.7929688 L166.665039,36.0751953 L168.122559,36.0751953 L168.122559,34.0463867 L169.001465,34.0463867 Z M175.330078,37.4155273 C175.618166,36.9418922 175.986814,36.5756849 176.436035,36.3168945 C176.885256,36.0581042 177.375974,35.9287109 177.908203,35.9287109 C178.757817,35.9287109 179.390135,36.1679664 179.805176,36.6464844 C180.220217,37.1250024 180.430176,37.8427687 180.435059,38.7998047 L180.435059,44 L179.563477,44 L179.563477,38.7924805 C179.558594,38.0844691 179.408449,37.5571306 179.113037,37.2104492 C178.817625,36.8637678 178.345218,36.6904297 177.695801,36.6904297 C177.153806,36.6904297 176.674074,36.8601057 176.256592,37.1994629 C175.839109,37.5388201 175.530274,37.9965792 175.330078,38.5727539 L175.330078,44 L174.458496,44 L174.458496,32.75 L175.330078,32.75 L175.330078,37.4155273 Z M185.672363,44 L184.793457,44 L184.793457,36.0751953 L185.672363,36.0751953 L185.672363,44 Z M184.639648,33.7827148 C184.639648,33.6166984 184.693359,33.4763189 184.800781,33.3615723 C184.908204,33.2468256 185.054687,33.1894531 185.240234,33.1894531 C185.425782,33.1894531 185.573486,33.2468256 185.68335,33.3615723 C185.793213,33.4763189 185.848145,33.6166984 185.848145,33.7827148 C185.848145,33.9487313 185.793213,34.0878901 185.68335,34.2001953 C185.573486,34.3125006 185.425782,34.3686523 185.240234,34.3686523 C185.054687,34.3686523 184.908204,34.3125006 184.800781,34.2001953 C184.693359,34.0878901 184.639648,33.9487313 184.639648,33.7827148 Z M194.798828,41.9858398 C194.798828,41.5512674 194.624269,41.2021498 194.275146,40.9384766 C193.926024,40.6748034 193.399906,40.4685066 192.696777,40.3195801 C191.993649,40.1706536 191.448,39.9997568 191.059814,39.8068848 C190.671629,39.6140127 190.383546,39.3784194 190.195557,39.1000977 C190.007567,38.821776 189.913574,38.4848653 189.913574,38.0893555 C189.913574,37.4643523 190.174802,36.9480001 190.697266,36.5402832 C191.219729,36.1325663 191.888668,35.9287109 192.704102,35.9287109 C193.587895,35.9287109 194.297116,36.1472146 194.831787,36.5842285 C195.366458,37.0212424 195.633789,37.5913051 195.633789,38.2944336 L194.754883,38.2944336 C194.754883,37.8305641 194.560793,37.4448258 194.172607,37.137207 C193.784422,36.8295883 193.294925,36.6757812 192.704102,36.6757812 C192.127927,36.6757812 191.665285,36.8039538 191.316162,37.0603027 C190.967039,37.3166517 190.79248,37.6499003 190.79248,38.0600586 C190.79248,38.4555684 190.937743,38.7619618 191.228271,38.979248 C191.5188,39.1965343 192.04858,39.3955069 192.817627,39.5761719 C193.586674,39.7568368 194.16284,39.949706 194.546143,40.1547852 C194.929445,40.3598643 195.213866,40.6064439 195.399414,40.8945312 C195.584962,41.1826186 195.677734,41.5317362 195.677734,41.9418945 C195.677734,42.6108432 195.407962,43.1455058 194.868408,43.5458984 C194.328855,43.9462911 193.624516,44.1464844 192.755371,44.1464844 C191.832515,44.1464844 191.084231,43.9230979 190.510498,43.4763184 C189.936765,43.0295388 189.649902,42.4643589 189.649902,41.7807617 L190.528809,41.7807617 C190.562988,42.2934596 190.779051,42.6926255 191.177002,42.9782715 C191.574953,43.2639174 192.101071,43.4067383 192.755371,43.4067383 C193.365726,43.4067383 193.858885,43.2724623 194.234863,43.0039062 C194.610842,42.7353502 194.798828,42.3959981 194.798828,41.9858398 Z M207.192383,42.1762695 L207.324219,42.8574219 L207.5,42.1396484 L209.404297,36.0751953 L210.151367,36.0751953 L212.033691,42.0883789 L212.23877,42.9233398 L212.407227,42.1542969 L214.033203,36.0751953 L214.941406,36.0751953 L212.634277,44 L211.887207,44 L209.851074,37.7158203 L209.755859,37.2836914 L209.660645,37.7231445 L207.661133,44 L206.914062,44 L204.614258,36.0751953 L205.515137,36.0751953 L207.192383,42.1762695 Z M223.606445,44 C223.518554,43.7509753 223.462402,43.3823267 223.437988,42.894043 C223.13037,43.2944356 222.738528,43.6032704 222.262451,43.8205566 C221.786375,44.0378429 221.282229,44.1464844 220.75,44.1464844 C219.988277,44.1464844 219.371829,43.9340842 218.900635,43.5092773 C218.429441,43.0844705 218.193848,42.5473665 218.193848,41.8979492 C218.193848,41.126461 218.514889,40.5161155 219.156982,40.0668945 C219.799075,39.6176735 220.693842,39.3930664 221.841309,39.3930664 L223.430664,39.3930664 L223.430664,38.4921875 C223.430664,37.9257784 223.256105,37.4802262 222.906982,37.1555176 C222.55786,36.8308089 222.048831,36.668457 221.379883,36.668457 C220.769528,36.668457 220.264162,36.8247055 219.86377,37.137207 C219.463377,37.4497086 219.263184,37.8256814 219.263184,38.2651367 L218.384277,38.2578125 C218.384277,37.6279265 218.677243,37.0822777 219.263184,36.6208496 C219.849124,36.1594215 220.569332,35.9287109 221.423828,35.9287109 C222.307622,35.9287109 223.004636,36.149656 223.514893,36.5915527 C224.025149,37.0334495 224.287598,37.6498984 224.302246,38.440918 L224.302246,42.190918 C224.302246,42.9575234 224.382812,43.5312481 224.543945,43.9121094 L224.543945,44 L223.606445,44 Z M220.852539,43.3701172 C221.438479,43.3701172 221.962156,43.228517 222.423584,42.9453125 C222.885012,42.662108 223.220702,42.2836938 223.430664,41.8100586 L223.430664,40.0668945 L221.863281,40.0668945 C220.989253,40.0766602 220.305667,40.2365707 219.8125,40.5466309 C219.319333,40.856691 219.072754,41.2827121 219.072754,41.824707 C219.072754,42.2690452 219.237547,42.6376938 219.567139,42.9306641 C219.89673,43.2236343 220.325193,43.3701172 220.852539,43.3701172 Z M233.384766,41.9858398 C233.384766,41.5512674 233.210207,41.2021498 232.861084,40.9384766 C232.511961,40.6748034 231.985843,40.4685066 231.282715,40.3195801 C230.579586,40.1706536 230.033937,39.9997568 229.645752,39.8068848 C229.257566,39.6140127 228.969483,39.3784194 228.781494,39.1000977 C228.593505,38.821776 228.499512,38.4848653 228.499512,38.0893555 C228.499512,37.4643523 228.76074,36.9480001 229.283203,36.5402832 C229.805667,36.1325663 230.474605,35.9287109 231.290039,35.9287109 C232.173833,35.9287109 232.883054,36.1472146 233.417725,36.5842285 C233.952395,37.0212424 234.219727,37.5913051 234.219727,38.2944336 L233.34082,38.2944336 C233.34082,37.8305641 233.14673,37.4448258 232.758545,37.137207 C232.370359,36.8295883 231.880862,36.6757812 231.290039,36.6757812 C230.713864,36.6757812 230.251222,36.8039538 229.9021,37.0603027 C229.552977,37.3166517 229.378418,37.6499003 229.378418,38.0600586 C229.378418,38.4555684 229.52368,38.7619618 229.814209,38.979248 C230.104738,39.1965343 230.634518,39.3955069 231.403564,39.5761719 C232.172611,39.7568368 232.748777,39.949706 233.13208,40.1547852 C233.515383,40.3598643 233.799804,40.6064439 233.985352,40.8945312 C234.170899,41.1826186 234.263672,41.5317362 234.263672,41.9418945 C234.263672,42.6108432 233.993899,43.1455058 233.454346,43.5458984 C232.914792,43.9462911 232.210454,44.1464844 231.341309,44.1464844 C230.418452,44.1464844 229.670169,43.9230979 229.096436,43.4763184 C228.522702,43.0295388 228.23584,42.4643589 228.23584,41.7807617 L229.114746,41.7807617 C229.148926,42.2934596 229.364988,42.6926255 229.762939,42.9782715 C230.160891,43.2639174 230.687008,43.4067383 231.341309,43.4067383 C231.951663,43.4067383 232.444822,43.2724623 232.820801,43.0039062 C233.196779,42.7353502 233.384766,42.3959981 233.384766,41.9858398 Z M245.243652,34.0463867 L245.243652,36.0751953 L246.884277,36.0751953 L246.884277,36.7929688 L245.243652,36.7929688 L245.243652,42.0737305 C245.243652,42.5131858 245.322997,42.840331 245.481689,43.0551758 C245.640382,43.2700206 245.905272,43.3774414 246.276367,43.3774414 C246.422852,43.3774414 246.659666,43.3530276 246.986816,43.3041992 L247.023438,44.0219727 C246.793944,44.1049809 246.481447,44.1464844 246.085938,44.1464844 C245.485349,44.1464844 245.048341,43.9719256 244.774902,43.6228027 C244.501463,43.2736799 244.364746,42.759769 244.364746,42.0810547 L244.364746,36.7929688 L242.907227,36.7929688 L242.907227,36.0751953 L244.364746,36.0751953 L244.364746,34.0463867 L245.243652,34.0463867 Z M251.572266,37.4155273 C251.860353,36.9418922 252.229002,36.5756849 252.678223,36.3168945 C253.127444,36.0581042 253.618161,35.9287109 254.150391,35.9287109 C255.000004,35.9287109 255.632322,36.1679664 256.047363,36.6464844 C256.462404,37.1250024 256.672363,37.8427687 256.677246,38.7998047 L256.677246,44 L255.805664,44 L255.805664,38.7924805 C255.800781,38.0844691 255.650636,37.5571306 255.355225,37.2104492 C255.059813,36.8637678 254.587406,36.6904297 253.937988,36.6904297 C253.395993,36.6904297 252.916262,36.8601057 252.498779,37.1994629 C252.081297,37.5388201 251.772462,37.9965792 251.572266,38.5727539 L251.572266,44 L250.700684,44 L250.700684,32.75 L251.572266,32.75 L251.572266,37.4155273 Z M264.001953,44.1464844 C263.328122,44.1464844 262.718997,43.9804704 262.174561,43.6484375 C261.630124,43.3164046 261.206544,42.8537627 260.903809,42.260498 C260.601073,41.6672334 260.449707,41.0019568 260.449707,40.2646484 L260.449707,39.949707 C260.449707,39.1879845 260.597411,38.5019562 260.892822,37.8916016 C261.188234,37.2812469 261.599607,36.8015154 262.126953,36.4523926 C262.6543,36.1032697 263.225583,35.9287109 263.84082,35.9287109 C264.802739,35.9287109 265.565671,36.2570768 266.129639,36.9138184 C266.693606,37.5705599 266.975586,38.4677677 266.975586,39.6054688 L266.975586,40.0961914 L261.321289,40.0961914 L261.321289,40.2646484 C261.321289,41.1630904 261.578855,41.911374 262.093994,42.5095215 C262.609133,43.107669 263.25732,43.4067383 264.038574,43.4067383 C264.507327,43.4067383 264.921141,43.3212899 265.280029,43.1503906 C265.638918,42.9794913 265.964842,42.7060566 266.257812,42.3300781 L266.807129,42.7475586 C266.162594,43.6801804 265.227545,44.1464844 264.001953,44.1464844 Z M263.84082,36.6757812 C263.181637,36.6757812 262.626223,36.9174781 262.174561,37.4008789 C261.722898,37.8842798 261.448243,38.5336873 261.350586,39.3491211 L266.104004,39.3491211 L266.104004,39.2539062 C266.07959,38.4921837 265.862307,37.8720727 265.452148,37.3935547 C265.04199,36.9150367 264.504886,36.6757812 263.84082,36.6757812 Z M7.22167969,57.0195312 L2.24853516,57.0195312 L2.24853516,62 L1.34765625,62 L1.34765625,51.3359375 L7.95410156,51.3359375 L7.95410156,52.1049805 L2.24853516,52.1049805 L2.24853516,56.2504883 L7.22167969,56.2504883 L7.22167969,57.0195312 Z M16.5166016,60.996582 C15.9892552,61.7631874 15.1469784,62.1464844 13.9897461,62.1464844 C13.1450153,62.1464844 12.5029319,61.9011255 12.0634766,61.4104004 C11.6240212,60.9196753 11.3994141,60.1933642 11.3896484,59.2314453 L11.3896484,54.0751953 L12.2612305,54.0751953 L12.2612305,59.121582 C12.2612305,60.6303786 12.8715759,61.3847656 14.0922852,61.3847656 C15.3618228,61.3847656 16.1650374,60.8598685 16.5019531,59.8100586 L16.5019531,54.0751953 L17.3808594,54.0751953 L17.3808594,62 L16.53125,62 L16.5166016,60.996582 Z M25.3208008,54.8222656 C25.135253,54.7880858 24.937501,54.7709961 24.7275391,54.7709961 C24.1806613,54.7709961 23.7180195,54.9235825 23.3395996,55.2287598 C22.9611797,55.5339371 22.6914071,55.9770479 22.5302734,56.5581055 L22.5302734,62 L21.6586914,62 L21.6586914,54.0751953 L22.515625,54.0751953 L22.5302734,55.3349609 C22.9941429,54.3974563 23.7387644,53.9287109 24.7641602,53.9287109 C25.008302,53.9287109 25.2011712,53.9604489 25.3427734,54.0239258 L25.3208008,54.8222656 Z M29.5400391,54.0751953 L29.5693359,55.4301758 C29.867189,54.9418921 30.238279,54.5695814 30.6826172,54.3132324 C31.1269553,54.0568835 31.6176731,53.9287109 32.1547852,53.9287109 C33.0043988,53.9287109 33.6367167,54.1679664 34.0517578,54.6464844 C34.466799,55.1250024 34.6767578,55.8427687 34.6816406,56.7998047 L34.6816406,62 L33.8100586,62 L33.8100586,56.7924805 C33.8051758,56.0844691 33.6550308,55.5571306 33.3596191,55.2104492 C33.0642075,54.8637678 32.5918001,54.6904297 31.9423828,54.6904297 C31.4003879,54.6904297 30.9206564,54.8601057 30.5031738,55.1994629 C30.0856913,55.5388201 29.7768565,55.9965792 29.5766602,56.5727539 L29.5766602,62 L28.7050781,62 L28.7050781,54.0751953 L29.5400391,54.0751953 Z M43.9472656,62 C43.8593746,61.7509753 43.8032228,61.3823267 43.7788086,60.894043 C43.4711899,61.2944356 43.0793481,61.6032704 42.6032715,61.8205566 C42.1271949,62.0378429 41.6230495,62.1464844 41.0908203,62.1464844 C40.3290978,62.1464844 39.7126488,61.9340842 39.2414551,61.5092773 C38.7702613,61.0844705 38.534668,60.5473665 38.534668,59.8979492 C38.534668,59.126461 38.8557097,58.5161155 39.4978027,58.0668945 C40.1398958,57.6176735 41.0346622,57.3930664 42.1821289,57.3930664 L43.7714844,57.3930664 L43.7714844,56.4921875 C43.7714844,55.9257784 43.5969256,55.4802262 43.2478027,55.1555176 C42.8986799,54.8308089 42.3896518,54.668457 41.7207031,54.668457 C41.1103485,54.668457 40.6049825,54.8247055 40.2045898,55.137207 C39.8041972,55.4497086 39.6040039,55.8256814 39.6040039,56.2651367 L38.7250977,56.2578125 C38.7250977,55.6279265 39.0180635,55.0822777 39.6040039,54.6208496 C40.1899443,54.1594215 40.910152,53.9287109 41.7646484,53.9287109 C42.6484419,53.9287109 43.3454564,54.149656 43.8557129,54.5915527 C44.3659693,55.0334495 44.6284179,55.6498984 44.6430664,56.440918 L44.6430664,60.190918 C44.6430664,60.9575234 44.723632,61.5312481 44.8847656,61.9121094 L44.8847656,62 L43.9472656,62 Z M41.1933594,61.3701172 C41.7792998,61.3701172 42.3029762,61.228517 42.7644043,60.9453125 C43.2258324,60.662108 43.5615224,60.2836938 43.7714844,59.8100586 L43.7714844,58.0668945 L42.2041016,58.0668945 C41.3300738,58.0766602 40.6464868,58.2365707 40.1533203,58.5466309 C39.6601538,58.856691 39.4135742,59.2827121 39.4135742,59.824707 C39.4135742,60.2690452 39.5783675,60.6376938 39.907959,60.9306641 C40.2375505,61.2236343 40.666013,61.3701172 41.1933594,61.3701172 Z M51.9091797,61.4067383 C52.5195343,61.4067383 53.0310038,61.2346209 53.4436035,60.8903809 C53.8562032,60.5461409 54.0795897,60.1005887 54.1137695,59.5537109 L54.9560547,59.5537109 C54.9316405,60.0371118 54.7802748,60.4777812 54.5019531,60.8757324 C54.2236314,61.2736836 53.8537621,61.5849598 53.392334,61.8095703 C52.9309059,62.0341808 52.4365261,62.1464844 51.9091797,62.1464844 C50.8691354,62.1464844 50.0451691,61.7851599 49.4372559,61.0625 C48.8293427,60.3398401 48.5253906,59.3681702 48.5253906,58.1474609 L48.5253906,57.8837891 C48.5253906,57.1025352 48.662108,56.4116241 48.9355469,55.8110352 C49.2089857,55.2104462 49.6008275,54.7465837 50.111084,54.4194336 C50.6213404,54.0922835 51.2182583,53.9287109 51.9018555,53.9287109 C52.7710004,53.9287109 53.487546,54.1874974 54.0515137,54.7050781 C54.6154813,55.2226588 54.916992,55.9038044 54.9560547,56.7485352 L54.1137695,56.7485352 C54.0747068,56.1284149 53.8513204,55.6279316 53.4436035,55.2470703 C53.0358866,54.866209 52.5219758,54.6757812 51.9018555,54.6757812 C51.1108359,54.6757812 50.4968284,54.9614229 50.0598145,55.5327148 C49.6228005,56.1040068 49.4042969,56.90478 49.4042969,57.9350586 L49.4042969,58.1914062 C49.4042969,59.2021535 49.6228005,59.9907198 50.0598145,60.5571289 C50.4968284,61.123538 51.1132773,61.4067383 51.9091797,61.4067383 Z M61.7753906,62.1464844 C61.1015591,62.1464844 60.4924344,61.9804704 59.947998,61.6484375 C59.4035617,61.3164046 58.979982,60.8537627 58.6772461,60.260498 C58.3745102,59.6672334 58.2231445,59.0019568 58.2231445,58.2646484 L58.2231445,57.949707 C58.2231445,57.1879845 58.3708481,56.5019562 58.6662598,55.8916016 C58.9616714,55.2812469 59.3730442,54.8015154 59.9003906,54.4523926 C60.427737,54.1032697 60.9990204,53.9287109 61.6142578,53.9287109 C62.5761767,53.9287109 63.3391085,54.2570768 63.9030762,54.9138184 C64.4670438,55.5705599 64.7490234,56.4677677 64.7490234,57.6054688 L64.7490234,58.0961914 L59.0947266,58.0961914 L59.0947266,58.2646484 C59.0947266,59.1630904 59.3522923,59.911374 59.8674316,60.5095215 C60.3825709,61.107669 61.0307578,61.4067383 61.8120117,61.4067383 C62.2807641,61.4067383 62.6945783,61.3212899 63.0534668,61.1503906 C63.4123553,60.9794913 63.7382798,60.7060566 64.03125,60.3300781 L64.5805664,60.7475586 C63.9360319,61.6801804 63.0009827,62.1464844 61.7753906,62.1464844 Z M61.6142578,54.6757812 C60.9550748,54.6757812 60.3996605,54.9174781 59.947998,55.4008789 C59.4963356,55.8842798 59.2216802,56.5336873 59.1240234,57.3491211 L63.8774414,57.3491211 L63.8774414,57.2539062 C63.8530272,56.4921837 63.6357442,55.8720727 63.2255859,55.3935547 C62.8154276,54.9150367 62.2783236,54.6757812 61.6142578,54.6757812 Z M81.859375,58.6748047 C81.7373041,59.7978572 81.3356968,60.6572236 80.654541,61.2529297 C79.9733853,61.8486358 79.0664119,62.1464844 77.9335938,62.1464844 C77.1425742,62.1464844 76.4431183,61.9487324 75.8352051,61.5532227 C75.2272919,61.1577129 74.7573259,60.5974157 74.425293,59.8723145 C74.0932601,59.1472132 73.9248047,58.318364 73.9199219,57.3857422 L73.9199219,56.0014648 C73.9199219,55.0541945 74.0859358,54.2143591 74.4179688,53.4819336 C74.7500017,52.7495081 75.2272918,52.1843282 75.8498535,51.786377 C76.4724152,51.3884257 77.1889608,51.1894531 77.9995117,51.1894531 C79.1420956,51.1894531 80.0441861,51.4982879 80.7058105,52.1159668 C81.3674349,52.7336457 81.7519526,53.5869086 81.859375,54.6757812 L80.9511719,54.6757812 C80.7265614,52.8642488 79.7426845,51.9584961 77.9995117,51.9584961 C77.03271,51.9584961 76.262454,52.3198206 75.6887207,53.0424805 C75.1149874,53.7651403 74.828125,54.7636655 74.828125,56.0380859 L74.828125,57.3417969 C74.828125,58.5722718 75.1076632,59.5537073 75.666748,60.2861328 C76.2258329,61.0185583 76.9814406,61.3847656 77.9335938,61.3847656 C78.8759813,61.3847656 79.5864234,61.1589378 80.0649414,60.7072754 C80.5434594,60.255613 80.8388666,59.5781295 80.9511719,58.6748047 L81.859375,58.6748047 Z M89.5063477,54.8222656 C89.3207999,54.7880858 89.1230479,54.7709961 88.9130859,54.7709961 C88.3662082,54.7709961 87.9035663,54.9235825 87.5251465,55.2287598 C87.1467266,55.5339371 86.8769539,55.9770479 86.7158203,56.5581055 L86.7158203,62 L85.8442383,62 L85.8442383,54.0751953 L86.7011719,54.0751953 L86.7158203,55.3349609 C87.1796898,54.3974563 87.9243113,53.9287109 88.949707,53.9287109 C89.1938489,53.9287109 89.386718,53.9604489 89.5283203,54.0239258 L89.5063477,54.8222656 Z M95.8203125,62.1464844 C95.146481,62.1464844 94.5373562,61.9804704 93.9929199,61.6484375 C93.4484836,61.3164046 93.0249039,60.8537627 92.722168,60.260498 C92.4194321,59.6672334 92.2680664,59.0019568 92.2680664,58.2646484 L92.2680664,57.949707 C92.2680664,57.1879845 92.41577,56.5019562 92.7111816,55.8916016 C93.0065933,55.2812469 93.4179661,54.8015154 93.9453125,54.4523926 C94.4726589,54.1032697 95.0439422,53.9287109 95.6591797,53.9287109 C96.6210986,53.9287109 97.3840304,54.2570768 97.947998,54.9138184 C98.5119657,55.5705599 98.7939453,56.4677677 98.7939453,57.6054688 L98.7939453,58.0961914 L93.1396484,58.0961914 L93.1396484,58.2646484 C93.1396484,59.1630904 93.3972142,59.911374 93.9123535,60.5095215 C94.4274928,61.107669 95.0756797,61.4067383 95.8569336,61.4067383 C96.3256859,61.4067383 96.7395002,61.3212899 97.0983887,61.1503906 C97.4572772,60.9794913 97.7832017,60.7060566 98.0761719,60.3300781 L98.6254883,60.7475586 C97.9809538,61.6801804 97.0459046,62.1464844 95.8203125,62.1464844 Z M95.6591797,54.6757812 C94.9999967,54.6757812 94.4445823,54.9174781 93.9929199,55.4008789 C93.5412575,55.8842798 93.2666021,56.5336873 93.1689453,57.3491211 L97.9223633,57.3491211 L97.9223633,57.2539062 C97.8979491,56.4921837 97.6806661,55.8720727 97.2705078,55.3935547 C96.8603495,54.9150367 96.3232455,54.6757812 95.6591797,54.6757812 Z M105.569336,62.1464844 C104.895504,62.1464844 104.28638,61.9804704 103.741943,61.6484375 C103.197507,61.3164046 102.773927,60.8537627 102.471191,60.260498 C102.168456,59.6672334 102.01709,59.0019568 102.01709,58.2646484 L102.01709,57.949707 C102.01709,57.1879845 102.164793,56.5019562 102.460205,55.8916016 C102.755617,55.2812469 103.16699,54.8015154 103.694336,54.4523926 C104.221682,54.1032697 104.792966,53.9287109 105.408203,53.9287109 C106.370122,53.9287109 107.133054,54.2570768 107.697021,54.9138184 C108.260989,55.5705599 108.542969,56.4677677 108.542969,57.6054688 L108.542969,58.0961914 L102.888672,58.0961914 L102.888672,58.2646484 C102.888672,59.1630904 103.146238,59.911374 103.661377,60.5095215 C104.176516,61.107669 104.824703,61.4067383 105.605957,61.4067383 C106.074709,61.4067383 106.488524,61.3212899 106.847412,61.1503906 C107.206301,60.9794913 107.532225,60.7060566 107.825195,60.3300781 L108.374512,60.7475586 C107.729977,61.6801804 106.794928,62.1464844 105.569336,62.1464844 Z M105.408203,54.6757812 C104.74902,54.6757812 104.193606,54.9174781 103.741943,55.4008789 C103.290281,55.8842798 103.015625,56.5336873 102.917969,57.3491211 L107.671387,57.3491211 L107.671387,57.2539062 C107.646973,56.4921837 107.42969,55.8720727 107.019531,55.3935547 C106.609373,54.9150367 106.072269,54.6757812 105.408203,54.6757812 Z M114.131836,58.0083008 L113.128418,58.9750977 L113.128418,62 L112.249512,62 L112.249512,50.75 L113.128418,50.75 L113.128418,57.949707 L113.956055,57.0561523 L116.988281,54.0751953 L118.094238,54.0751953 L114.732422,57.4150391 L118.387207,62 L117.339844,62 L114.131836,58.0083008 Z M128.356445,61.2382812 L133.622559,61.2382812 L133.622559,62 L127.448242,62 L127.448242,51.3359375 L128.356445,51.3359375 L128.356445,61.2382812 Z M142.148437,62 C142.060546,61.7509753 142.004395,61.3823267 141.97998,60.894043 C141.672362,61.2944356 141.28052,61.6032704 140.804443,61.8205566 C140.328367,62.0378429 139.824221,62.1464844 139.291992,62.1464844 C138.53027,62.1464844 137.913821,61.9340842 137.442627,61.5092773 C136.971433,61.0844705 136.73584,60.5473665 136.73584,59.8979492 C136.73584,59.126461 137.056882,58.5161155 137.698975,58.0668945 C138.341068,57.6176735 139.235834,57.3930664 140.383301,57.3930664 L141.972656,57.3930664 L141.972656,56.4921875 C141.972656,55.9257784 141.798097,55.4802262 141.448975,55.1555176 C141.099852,54.8308089 140.590824,54.668457 139.921875,54.668457 C139.31152,54.668457 138.806154,54.8247055 138.405762,55.137207 C138.005369,55.4497086 137.805176,55.8256814 137.805176,56.2651367 L136.92627,56.2578125 C136.92627,55.6279265 137.219235,55.0822777 137.805176,54.6208496 C138.391116,54.1594215 139.111324,53.9287109 139.96582,53.9287109 C140.849614,53.9287109 141.546628,54.149656 142.056885,54.5915527 C142.567141,55.0334495 142.82959,55.6498984 142.844238,56.440918 L142.844238,60.190918 C142.844238,60.9575234 142.924804,61.5312481 143.085937,61.9121094 L143.085937,62 L142.148437,62 Z M139.394531,61.3701172 C139.980472,61.3701172 140.504148,61.228517 140.965576,60.9453125 C141.427004,60.662108 141.762694,60.2836938 141.972656,59.8100586 L141.972656,58.0668945 L140.405273,58.0668945 C139.531246,58.0766602 138.847659,58.2365707 138.354492,58.5466309 C137.861326,58.856691 137.614746,59.2827121 137.614746,59.824707 C137.614746,60.2690452 137.779539,60.6376938 138.109131,60.9306641 C138.438722,61.2236343 138.867185,61.3701172 139.394531,61.3701172 Z M149.062988,58.0083008 L148.05957,58.9750977 L148.05957,62 L147.180664,62 L147.180664,50.75 L148.05957,50.75 L148.05957,57.949707 L148.887207,57.0561523 L151.919434,54.0751953 L153.025391,54.0751953 L149.663574,57.4150391 L153.318359,62 L152.270996,62 L149.062988,58.0083008 Z M159.449219,62.1464844 C158.775387,62.1464844 158.166262,61.9804704 157.621826,61.6484375 C157.07739,61.3164046 156.65381,60.8537627 156.351074,60.260498 C156.048338,59.6672334 155.896973,59.0019568 155.896973,58.2646484 L155.896973,57.949707 C155.896973,57.1879845 156.044676,56.5019562 156.340088,55.8916016 C156.6355,55.2812469 157.046872,54.8015154 157.574219,54.4523926 C158.101565,54.1032697 158.672848,53.9287109 159.288086,53.9287109 C160.250005,53.9287109 161.012937,54.2570768 161.576904,54.9138184 C162.140872,55.5705599 162.422852,56.4677677 162.422852,57.6054688 L162.422852,58.0961914 L156.768555,58.0961914 L156.768555,58.2646484 C156.768555,59.1630904 157.02612,59.911374 157.54126,60.5095215 C158.056399,61.107669 158.704586,61.4067383 159.48584,61.4067383 C159.954592,61.4067383 160.368406,61.3212899 160.727295,61.1503906 C161.086183,60.9794913 161.412108,60.7060566 161.705078,60.3300781 L162.254395,60.7475586 C161.60986,61.6801804 160.674811,62.1464844 159.449219,62.1464844 Z M159.288086,54.6757812 C158.628903,54.6757812 158.073489,54.9174781 157.621826,55.4008789 C157.170164,55.8842798 156.895508,56.5336873 156.797852,57.3491211 L161.55127,57.3491211 L161.55127,57.2539062 C161.526855,56.4921837 161.309572,55.8720727 160.899414,55.3935547 C160.489256,54.9150367 159.952152,54.6757812 159.288086,54.6757812 Z M166.048828,61.4726562 C166.048828,61.301757 166.103759,61.1564947 166.213623,61.0368652 C166.323487,60.9172357 166.476073,60.8574219 166.671387,60.8574219 C166.8667,60.8574219 167.020507,60.9172357 167.132812,61.0368652 C167.245118,61.1564947 167.30127,61.301757 167.30127,61.4726562 C167.30127,61.6435555 167.245118,61.783935 167.132812,61.8937988 C167.020507,62.0036627 166.8667,62.0585938 166.671387,62.0585938 C166.476073,62.0585938 166.323487,62.0036627 166.213623,61.8937988 C166.103759,61.783935 166.048828,61.6435555 166.048828,61.4726562 Z M183.320312,59.0117188 L178.479004,59.0117188 L177.380371,62 L176.435547,62 L180.471191,51.3359375 L181.328125,51.3359375 L185.36377,62 L184.42627,62 L183.320312,59.0117188 Z M178.757324,58.2426758 L183.034668,58.2426758 L180.895996,52.4345703 L178.757324,58.2426758 Z M200.75293,58.1181641 C200.75293,59.3535218 200.479495,60.3337366 199.932617,61.0588379 C199.385739,61.7839392 198.650884,62.1464844 197.728027,62.1464844 C196.624506,62.1464844 195.789554,61.7363322 195.223145,60.9160156 L195.186523,62 L194.366211,62 L194.366211,50.75 L195.237793,50.75 L195.237793,55.2250977 C195.794436,54.3608355 196.619623,53.9287109 197.713379,53.9287109 C198.650884,53.9287109 199.391843,54.2863734 199.936279,55.001709 C200.480716,55.7170446 200.75293,56.7119077 200.75293,57.9863281 L200.75293,58.1181641 Z M199.874023,57.9643555 C199.874023,56.9194284 199.671389,56.1125517 199.266113,55.5437012 C198.860838,54.9748507 198.289554,54.6904297 197.552246,54.6904297 C196.99072,54.6904297 196.51465,54.8283678 196.124023,55.104248 C195.733396,55.3801283 195.437989,55.784177 195.237793,56.3164062 L195.237793,59.890625 C195.677248,60.8867237 196.453608,61.3847656 197.566895,61.3847656 C198.289554,61.3847656 198.854734,61.099124 199.262451,60.527832 C199.670168,59.9565401 199.874023,59.1020565 199.874023,57.9643555 Z M207.755371,62.1464844 C207.08154,62.1464844 206.472415,61.9804704 205.927979,61.6484375 C205.383542,61.3164046 204.959962,60.8537627 204.657227,60.260498 C204.354491,59.6672334 204.203125,59.0019568 204.203125,58.2646484 L204.203125,57.949707 C204.203125,57.1879845 204.350829,56.5019562 204.64624,55.8916016 C204.941652,55.2812469 205.353025,54.8015154 205.880371,54.4523926 C206.407717,54.1032697 206.979001,53.9287109 207.594238,53.9287109 C208.556157,53.9287109 209.319089,54.2570768 209.883057,54.9138184 C210.447024,55.5705599 210.729004,56.4677677 210.729004,57.6054688 L210.729004,58.0961914 L205.074707,58.0961914 L205.074707,58.2646484 C205.074707,59.1630904 205.332273,59.911374 205.847412,60.5095215 C206.362551,61.107669 207.010738,61.4067383 207.791992,61.4067383 C208.260745,61.4067383 208.674559,61.3212899 209.033447,61.1503906 C209.392336,60.9794913 209.71826,60.7060566 210.01123,60.3300781 L210.560547,60.7475586 C209.916012,61.6801804 208.980963,62.1464844 207.755371,62.1464844 Z M207.594238,54.6757812 C206.935055,54.6757812 206.379641,54.9174781 205.927979,55.4008789 C205.476316,55.8842798 205.201661,56.5336873 205.104004,57.3491211 L209.857422,57.3491211 L209.857422,57.2539062 C209.833008,56.4921837 209.615725,55.8720727 209.205566,55.3935547 C208.795408,54.9150367 208.258304,54.6757812 207.594238,54.6757812 Z M219.437988,62 C219.350097,61.7509753 219.293945,61.3823267 219.269531,60.894043 C218.961913,61.2944356 218.570071,61.6032704 218.093994,61.8205566 C217.617918,62.0378429 217.113772,62.1464844 216.581543,62.1464844 C215.81982,62.1464844 215.203371,61.9340842 214.732178,61.5092773 C214.260984,61.0844705 214.025391,60.5473665 214.025391,59.8979492 C214.025391,59.126461 214.346432,58.5161155 214.988525,58.0668945 C215.630618,57.6176735 216.525385,57.3930664 217.672852,57.3930664 L219.262207,57.3930664 L219.262207,56.4921875 C219.262207,55.9257784 219.087648,55.4802262 218.738525,55.1555176 C218.389403,54.8308089 217.880374,54.668457 217.211426,54.668457 C216.601071,54.668457 216.095705,54.8247055 215.695312,55.137207 C215.29492,55.4497086 215.094727,55.8256814 215.094727,56.2651367 L214.21582,56.2578125 C214.21582,55.6279265 214.508786,55.0822777 215.094727,54.6208496 C215.680667,54.1594215 216.400875,53.9287109 217.255371,53.9287109 C218.139165,53.9287109 218.836179,54.149656 219.346436,54.5915527 C219.856692,55.0334495 220.119141,55.6498984 220.133789,56.440918 L220.133789,60.190918 C220.133789,60.9575234 220.214355,61.5312481 220.375488,61.9121094 L220.375488,62 L219.437988,62 Z M216.684082,61.3701172 C217.270022,61.3701172 217.793699,61.228517 218.255127,60.9453125 C218.716555,60.662108 219.052245,60.2836938 219.262207,59.8100586 L219.262207,58.0668945 L217.694824,58.0668945 C216.820796,58.0766602 216.137209,58.2365707 215.644043,58.5466309 C215.150876,58.856691 214.904297,59.2827121 214.904297,59.824707 C214.904297,60.2690452 215.06909,60.6376938 215.398682,60.9306641 C215.728273,61.2236343 216.156736,61.3701172 216.684082,61.3701172 Z M225.83252,52.0463867 L225.83252,54.0751953 L227.473145,54.0751953 L227.473145,54.7929688 L225.83252,54.7929688 L225.83252,60.0737305 C225.83252,60.5131858 225.911864,60.840331 226.070557,61.0551758 C226.229249,61.2700206 226.494139,61.3774414 226.865234,61.3774414 C227.011719,61.3774414 227.248534,61.3530276 227.575684,61.3041992 L227.612305,62.0219727 C227.382811,62.1049809 227.070314,62.1464844 226.674805,62.1464844 C226.074216,62.1464844 225.637208,61.9719256 225.36377,61.6228027 C225.090331,61.2736799 224.953613,60.759769 224.953613,60.0810547 L224.953613,54.7929688 L223.496094,54.7929688 L223.496094,54.0751953 L224.953613,54.0751953 L224.953613,52.0463867 L225.83252,52.0463867 Z M232.270996,62 L231.39209,62 L231.39209,54.0751953 L232.270996,54.0751953 L232.270996,62 Z M231.238281,51.7827148 C231.238281,51.6166984 231.291992,51.4763189 231.399414,51.3615723 C231.506836,51.2468256 231.653319,51.1894531 231.838867,51.1894531 C232.024415,51.1894531 232.172119,51.2468256 232.281982,51.3615723 C232.391846,51.4763189 232.446777,51.6166984 232.446777,51.7827148 C232.446777,51.9487313 232.391846,52.0878901 232.281982,52.2001953 C232.172119,52.3125006 232.024415,52.3686523 231.838867,52.3686523 C231.653319,52.3686523 231.506836,52.3125006 231.399414,52.2001953 C231.291992,52.0878901 231.238281,51.9487313 231.238281,51.7827148 Z M237.28125,62 L237.28125,54.7929688 L235.970215,54.7929688 L235.970215,54.0751953 L237.28125,54.0751953 L237.28125,53.1157227 C237.28125,52.3051717 237.487547,51.6826194 237.900146,51.2480469 C238.312746,50.8134744 238.887692,50.5961914 239.625,50.5961914 C239.957033,50.5961914 240.267088,50.6376949 240.555176,50.7207031 L240.489258,51.453125 C240.245116,51.394531 239.979005,51.3652344 239.690918,51.3652344 C239.207517,51.3652344 238.831544,51.5153794 238.562988,51.8156738 C238.294432,52.1159683 238.160156,52.5419894 238.160156,53.09375 L238.160156,54.0751953 L240.049805,54.0751953 L240.049805,54.7929688 L238.160156,54.7929688 L238.160156,62 L237.28125,62 Z M248.714844,60.996582 C248.187497,61.7631874 247.345221,62.1464844 246.187988,62.1464844 C245.343257,62.1464844 244.701174,61.9011255 244.261719,61.4104004 C243.822263,60.9196753 243.597656,60.1933642 243.587891,59.2314453 L243.587891,54.0751953 L244.459473,54.0751953 L244.459473,59.121582 C244.459473,60.6303786 245.069818,61.3847656 246.290527,61.3847656 C247.560065,61.3847656 248.36328,60.8598685 248.700195,59.8100586 L248.700195,54.0751953 L249.579102,54.0751953 L249.579102,62 L248.729492,62 L248.714844,60.996582 Z M254.838379,62 L253.959473,62 L253.959473,50.75 L254.838379,50.75 L254.838379,62 Z M7.51464844,76.1181641 C7.51464844,77.3535218 7.24121367,78.3337366 6.69433594,79.0588379 C6.1474582,79.7839392 5.41504365,80.1464844 4.49707031,80.1464844 C3.41308052,80.1464844 2.58301069,79.7656288 2.00683594,79.0039062 L2.00683594,83.046875 L1.13525391,83.046875 L1.13525391,72.0751953 L1.94824219,72.0751953 L1.9921875,73.1958008 C2.56347942,72.35107 3.39110786,71.9287109 4.47509766,71.9287109 C5.42236802,71.9287109 6.16576879,72.2875941 6.70532227,73.0053711 C7.24487574,73.7231481 7.51464844,74.7192319 7.51464844,75.9936523 L7.51464844,76.1181641 Z M6.63574219,75.9643555 C6.63574219,74.9536082 6.42822473,74.1552764 6.01318359,73.5693359 C5.59814246,72.9833955 5.01953496,72.6904297 4.27734375,72.6904297 C3.74023169,72.6904297 3.27881052,72.8198229 2.89306641,73.0786133 C2.50732229,73.3374036 2.21191509,73.7133764 2.00683594,74.206543 L2.00683594,78.0078125 C2.21679792,78.4619163 2.51708789,78.8085926 2.90771484,79.0478516 C3.2983418,79.2871106 3.75976296,79.4067383 4.29199219,79.4067383 C5.02930056,79.4067383 5.60424598,79.1125518 6.0168457,78.5241699 C6.42944542,77.9357881 6.63574219,77.0825251 6.63574219,75.9643555 Z M12.4370117,80 L11.5581055,80 L11.5581055,68.75 L12.4370117,68.75 L12.4370117,80 Z M21.8198242,80 C21.7319332,79.7509753 21.6757814,79.3823267 21.6513672,78.894043 C21.3437485,79.2944356 20.9519067,79.6032704 20.4758301,79.8205566 C19.9997535,80.0378429 19.4956081,80.1464844 18.9633789,80.1464844 C18.2016563,80.1464844 17.5852074,79.9340842 17.1140137,79.5092773 C16.6428199,79.0844705 16.4072266,78.5473665 16.4072266,77.8979492 C16.4072266,77.126461 16.7282683,76.5161155 17.3703613,76.0668945 C18.0124544,75.6176735 18.9072208,75.3930664 20.0546875,75.3930664 L21.644043,75.3930664 L21.644043,74.4921875 C21.644043,73.9257784 21.4694842,73.4802262 21.1203613,73.1555176 C20.7712385,72.8308089 20.2622104,72.668457 19.5932617,72.668457 C18.9829071,72.668457 18.4775411,72.8247055 18.0771484,73.137207 C17.6767558,73.4497086 17.4765625,73.8256814 17.4765625,74.2651367 L16.5976562,74.2578125 C16.5976562,73.6279265 16.8906221,73.0822777 17.4765625,72.6208496 C18.0625029,72.1594215 18.7827106,71.9287109 19.637207,71.9287109 C20.5210005,71.9287109 21.218015,72.149656 21.7282715,72.5915527 C22.2385279,73.0334495 22.5009765,73.6498984 22.515625,74.440918 L22.515625,78.190918 C22.515625,78.9575234 22.5961906,79.5312481 22.7573242,79.9121094 L22.7573242,80 L21.8198242,80 Z M19.065918,79.3701172 C19.6518584,79.3701172 20.1755348,79.228517 20.6369629,78.9453125 C21.098391,78.662108 21.434081,78.2836938 21.644043,77.8100586 L21.644043,76.0668945 L20.0766602,76.0668945 C19.2026323,76.0766602 18.5190454,76.2365707 18.0258789,76.5466309 C17.5327124,76.856691 17.2861328,77.2827121 17.2861328,77.824707 C17.2861328,78.2690452 17.4509261,78.6376938 17.7805176,78.9306641 C18.1101091,79.2236343 18.5385716,79.3701172 19.065918,79.3701172 Z M29.7817383,79.4067383 C30.3920929,79.4067383 30.9035624,79.2346209 31.3161621,78.8903809 C31.7287618,78.5461409 31.9521483,78.1005887 31.9863281,77.5537109 L32.8286133,77.5537109 C32.8041991,78.0371118 32.6528334,78.4777812 32.3745117,78.8757324 C32.09619,79.2736836 31.7263207,79.5849598 31.2648926,79.8095703 C30.8034645,80.0341808 30.3090847,80.1464844 29.7817383,80.1464844 C28.741694,80.1464844 27.9177276,79.7851599 27.3098145,79.0625 C26.7019013,78.3398401 26.3979492,77.3681702 26.3979492,76.1474609 L26.3979492,75.8837891 C26.3979492,75.1025352 26.5346666,74.4116241 26.8081055,73.8110352 C27.0815443,73.2104462 27.4733861,72.7465837 27.9836426,72.4194336 C28.493899,72.0922835 29.0908169,71.9287109 29.7744141,71.9287109 C30.643559,71.9287109 31.3601046,72.1874974 31.9240723,72.7050781 C32.4880399,73.2226588 32.7895506,73.9038044 32.8286133,74.7485352 L31.9863281,74.7485352 C31.9472654,74.1284149 31.723879,73.6279316 31.3161621,73.2470703 C30.9084452,72.866209 30.3945344,72.6757812 29.7744141,72.6757812 C28.9833945,72.6757812 28.369387,72.9614229 27.932373,73.5327148 C27.4953591,74.1040068 27.2768555,74.90478 27.2768555,75.9350586 L27.2768555,76.1914062 C27.2768555,77.2021535 27.4953591,77.9907198 27.932373,78.5571289 C28.369387,79.123538 28.9858359,79.4067383 29.7817383,79.4067383 Z M39.6479492,80.1464844 C38.9741177,80.1464844 38.364993,79.9804704 37.8205566,79.6484375 C37.2761203,79.3164046 36.8525406,78.8537627 36.5498047,78.260498 C36.2470688,77.6672334 36.0957031,77.0019568 36.0957031,76.2646484 L36.0957031,75.949707 C36.0957031,75.1879845 36.2434067,74.5019562 36.5388184,73.8916016 C36.83423,73.2812469 37.2456028,72.8015154 37.7729492,72.4523926 C38.3002956,72.1032697 38.871579,71.9287109 39.4868164,71.9287109 C40.4487353,71.9287109 41.2116671,72.2570768 41.7756348,72.9138184 C42.3396024,73.5705599 42.621582,74.4677677 42.621582,75.6054688 L42.621582,76.0961914 L36.9672852,76.0961914 L36.9672852,76.2646484 C36.9672852,77.1630904 37.2248509,77.911374 37.7399902,78.5095215 C38.2551295,79.107669 38.9033164,79.4067383 39.6845703,79.4067383 C40.1533227,79.4067383 40.5671369,79.3212899 40.9260254,79.1503906 C41.2849139,78.9794913 41.6108384,78.7060566 41.9038086,78.3300781 L42.453125,78.7475586 C41.8085905,79.6801804 40.8735413,80.1464844 39.6479492,80.1464844 Z M39.4868164,72.6757812 C38.8276334,72.6757812 38.2722191,72.9174781 37.8205566,73.4008789 C37.3688942,73.8842798 37.0942388,74.5336873 36.996582,75.3491211 L41.75,75.3491211 L41.75,75.2539062 C41.7255858,74.4921837 41.5083028,73.8720727 41.0981445,73.3935547 C40.6879862,72.9150367 40.1508822,72.6757812 39.4868164,72.6757812 Z M53.3378906,70.0463867 L53.3378906,72.0751953 L54.9785156,72.0751953 L54.9785156,72.7929688 L53.3378906,72.7929688 L53.3378906,78.0737305 C53.3378906,78.5131858 53.4172355,78.840331 53.5759277,79.0551758 C53.7346199,79.2700206 53.9995099,79.3774414 54.3706055,79.3774414 C54.5170906,79.3774414 54.7539046,79.3530276 55.0810547,79.3041992 L55.1176758,80.0219727 C54.8881824,80.1049809 54.5756856,80.1464844 54.1801758,80.1464844 C53.5795868,80.1464844 53.1425795,79.9719256 52.8691406,79.6228027 C52.5957018,79.2736799 52.4589844,78.759769 52.4589844,78.0810547 L52.4589844,72.7929688 L51.0014648,72.7929688 L51.0014648,72.0751953 L52.4589844,72.0751953 L52.4589844,70.0463867 L53.3378906,70.0463867 Z M58.1650391,75.9204102 C58.1650391,75.1586876 58.3127427,74.4726593 58.6081543,73.8623047 C58.9035659,73.2519501 59.3210422,72.7771013 59.8605957,72.4377441 C60.4001492,72.098387 61.0117153,71.9287109 61.6953125,71.9287109 C62.7500053,71.9287109 63.6044889,72.2985803 64.2587891,73.0383301 C64.9130892,73.7780799 65.2402344,74.7582947 65.2402344,75.9790039 L65.2402344,76.1621094 C65.2402344,76.9287148 65.0925308,77.6184051 64.7971191,78.2312012 C64.5017075,78.8439972 64.0854519,79.3164046 63.5483398,79.6484375 C63.0112278,79.9804704 62.3984409,80.1464844 61.7099609,80.1464844 C60.660151,80.1464844 59.806888,79.776615 59.1501465,79.0368652 C58.4934049,78.2971154 58.1650391,77.3169006 58.1650391,76.0961914 L58.1650391,75.9204102 Z M59.0439453,76.1621094 C59.0439453,77.1093797 59.2893042,77.8869599 59.7800293,78.494873 C60.2707544,79.1027862 60.9140585,79.4067383 61.7099609,79.4067383 C62.5009805,79.4067383 63.1418432,79.1027862 63.6325684,78.494873 C64.1232935,77.8869599 64.3686523,77.0849659 64.3686523,76.0888672 L64.3686523,75.9204102 C64.3686523,75.3149384 64.2563488,74.7607447 64.0317383,74.2578125 C63.8071278,73.7548803 63.4921895,73.3654799 63.0869141,73.0895996 C62.6816386,72.8137193 62.217776,72.6757812 61.6953125,72.6757812 C60.9140586,72.6757812 60.2768579,72.9821747 59.7836914,73.5949707 C59.2905249,74.2077667 59.0439453,75.0097607 59.0439453,76.0009766 L59.0439453,76.1621094 Z M77.765625,80.1464844 C77.0917935,80.1464844 76.4826687,79.9804704 75.9382324,79.6484375 C75.3937961,79.3164046 74.9702164,78.8537627 74.6674805,78.260498 C74.3647446,77.6672334 74.2133789,77.0019568 74.2133789,76.2646484 L74.2133789,75.949707 C74.2133789,75.1879845 74.3610825,74.5019562 74.6564941,73.8916016 C74.9519058,73.2812469 75.3632786,72.8015154 75.890625,72.4523926 C76.4179714,72.1032697 76.9892547,71.9287109 77.6044922,71.9287109 C78.5664111,71.9287109 79.3293429,72.2570768 79.8933105,72.9138184 C80.4572782,73.5705599 80.7392578,74.4677677 80.7392578,75.6054688 L80.7392578,76.0961914 L75.0849609,76.0961914 L75.0849609,76.2646484 C75.0849609,77.1630904 75.3425267,77.911374 75.857666,78.5095215 C76.3728053,79.107669 77.0209922,79.4067383 77.8022461,79.4067383 C78.2709984,79.4067383 78.6848127,79.3212899 79.0437012,79.1503906 C79.4025897,78.9794913 79.7285142,78.7060566 80.0214844,78.3300781 L80.5708008,78.7475586 C79.9262663,79.6801804 78.9912171,80.1464844 77.765625,80.1464844 Z M77.6044922,72.6757812 C76.9453092,72.6757812 76.3898948,72.9174781 75.9382324,73.4008789 C75.48657,73.8842798 75.2119146,74.5336873 75.1142578,75.3491211 L79.8676758,75.3491211 L79.8676758,75.2539062 C79.8432616,74.4921837 79.6259786,73.8720727 79.2158203,73.3935547 C78.805662,72.9150367 78.268558,72.6757812 77.6044922,72.6757812 Z M85.2807617,72.0751953 L85.3100586,73.4301758 C85.6079116,72.9418921 85.9790017,72.5695814 86.4233398,72.3132324 C86.867678,72.0568835 87.3583958,71.9287109 87.8955078,71.9287109 C88.7451214,71.9287109 89.3774393,72.1679664 89.7924805,72.6464844 C90.2075216,73.1250024 90.4174804,73.8427687 90.4223633,74.7998047 L90.4223633,80 L89.5507812,80 L89.5507812,74.7924805 C89.5458984,74.0844691 89.3957534,73.5571306 89.1003418,73.2104492 C88.8049302,72.8637678 88.3325228,72.6904297 87.6831055,72.6904297 C87.1411106,72.6904297 86.661379,72.8601057 86.2438965,73.1994629 C85.8264139,73.5388201 85.5175791,73.9965792 85.3173828,74.5727539 L85.3173828,80 L84.4458008,80 L84.4458008,72.0751953 L85.2807617,72.0751953 Z M95.6303711,72.0751953 L95.6303711,80.9448242 C95.6303711,81.6772498 95.4545916,82.2363262 95.1030273,82.6220703 C94.7514631,83.0078144 94.2338901,83.2006836 93.550293,83.2006836 C93.2866198,83.2006836 93.0302747,83.1542973 92.78125,83.0615234 L92.7958984,82.3364258 C93.0107433,82.3999027 93.2304676,82.4316406 93.4550781,82.4316406 C94.3242231,82.4316406 94.7587891,81.9311573 94.7587891,80.9301758 L94.7587891,72.0751953 L95.6303711,72.0751953 Z M95.1982422,69.1894531 C95.3886728,69.1894531 95.5375971,69.2468256 95.6450195,69.3615723 C95.7524419,69.4763189 95.8061523,69.6166984 95.8061523,69.7827148 C95.8061523,69.9487313 95.7524419,70.0878901 95.6450195,70.2001953 C95.5375971,70.3125006 95.3886728,70.3686523 95.1982422,70.3686523 C95.0126944,70.3686523 94.8674322,70.3125006 94.7624512,70.2001953 C94.6574702,70.0878901 94.6049805,69.9487313 94.6049805,69.7827148 C94.6049805,69.6166984 94.6574702,69.4763189 94.7624512,69.3615723 C94.8674322,69.2468256 95.0126944,69.1894531 95.1982422,69.1894531 Z M99.6225586,75.9204102 C99.6225586,75.1586876 99.7702622,74.4726593 100.065674,73.8623047 C100.361085,73.2519501 100.778562,72.7771013 101.318115,72.4377441 C101.857669,72.098387 102.469235,71.9287109 103.152832,71.9287109 C104.207525,71.9287109 105.062008,72.2985803 105.716309,73.0383301 C106.370609,73.7780799 106.697754,74.7582947 106.697754,75.9790039 L106.697754,76.1621094 C106.697754,76.9287148 106.55005,77.6184051 106.254639,78.2312012 C105.959227,78.8439972 105.542971,79.3164046 105.005859,79.6484375 C104.468747,79.9804704 103.85596,80.1464844 103.16748,80.1464844 C102.117671,80.1464844 101.264408,79.776615 100.607666,79.0368652 C99.9509245,78.2971154 99.6225586,77.3169006 99.6225586,76.0961914 L99.6225586,75.9204102 Z M100.501465,76.1621094 C100.501465,77.1093797 100.746824,77.8869599 101.237549,78.494873 C101.728274,79.1027862 102.371578,79.4067383 103.16748,79.4067383 C103.9585,79.4067383 104.599363,79.1027862 105.090088,78.494873 C105.580813,77.8869599 105.826172,77.0849659 105.826172,76.0888672 L105.826172,75.9204102 C105.826172,75.3149384 105.713868,74.7607447 105.489258,74.2578125 C105.264647,73.7548803 104.949709,73.3654799 104.544434,73.0895996 C104.139158,72.8137193 103.675296,72.6757812 103.152832,72.6757812 C102.371578,72.6757812 101.734377,72.9821747 101.241211,73.5949707 C100.748044,74.2077667 100.501465,75.0097607 100.501465,76.0009766 L100.501465,76.1621094 Z M112.90918,78.7402344 L115.223633,72.0751953 L116.168457,72.0751953 L112.784668,81.3476562 L112.608887,81.7578125 C112.174314,82.7197314 111.502934,83.2006836 110.594727,83.2006836 C110.384765,83.2006836 110.160157,83.1665042 109.920898,83.0981445 L109.913574,82.3730469 L110.367676,82.4169922 C110.797365,82.4169922 111.145262,82.3107921 111.411377,82.0983887 C111.677492,81.8859853 111.903319,81.5209987 112.088867,81.003418 L112.477051,79.934082 L109.48877,72.0751953 L110.448242,72.0751953 L112.90918,78.7402344 Z M126.533203,70.0463867 L126.533203,72.0751953 L128.173828,72.0751953 L128.173828,72.7929688 L126.533203,72.7929688 L126.533203,78.0737305 C126.533203,78.5131858 126.612548,78.840331 126.77124,79.0551758 C126.929932,79.2700206 127.194822,79.3774414 127.565918,79.3774414 C127.712403,79.3774414 127.949217,79.3530276 128.276367,79.3041992 L128.312988,80.0219727 C128.083495,80.1049809 127.770998,80.1464844 127.375488,80.1464844 C126.774899,80.1464844 126.337892,79.9719256 126.064453,79.6228027 C125.791014,79.2736799 125.654297,78.759769 125.654297,78.0810547 L125.654297,72.7929688 L124.196777,72.7929688 L124.196777,72.0751953 L125.654297,72.0751953 L125.654297,70.0463867 L126.533203,70.0463867 Z M132.861816,73.4155273 C133.149904,72.9418922 133.518552,72.5756849 133.967773,72.3168945 C134.416994,72.0581042 134.907712,71.9287109 135.439941,71.9287109 C136.289555,71.9287109 136.921873,72.1679664 137.336914,72.6464844 C137.751955,73.1250024 137.961914,73.8427687 137.966797,74.7998047 L137.966797,80 L137.095215,80 L137.095215,74.7924805 C137.090332,74.0844691 136.940187,73.5571306 136.644775,73.2104492 C136.349364,72.8637678 135.876956,72.6904297 135.227539,72.6904297 C134.685544,72.6904297 134.205813,72.8601057 133.78833,73.1994629 C133.370848,73.5388201 133.062013,73.9965792 132.861816,74.5727539 L132.861816,80 L131.990234,80 L131.990234,68.75 L132.861816,68.75 L132.861816,73.4155273 Z M145.291504,80.1464844 C144.617672,80.1464844 144.008548,79.9804704 143.464111,79.6484375 C142.919675,79.3164046 142.496095,78.8537627 142.193359,78.260498 C141.890623,77.6672334 141.739258,77.0019568 141.739258,76.2646484 L141.739258,75.949707 C141.739258,75.1879845 141.886961,74.5019562 142.182373,73.8916016 C142.477785,73.2812469 142.889158,72.8015154 143.416504,72.4523926 C143.94385,72.1032697 144.515134,71.9287109 145.130371,71.9287109 C146.09229,71.9287109 146.855222,72.2570768 147.419189,72.9138184 C147.983157,73.5705599 148.265137,74.4677677 148.265137,75.6054688 L148.265137,76.0961914 L142.61084,76.0961914 L142.61084,76.2646484 C142.61084,77.1630904 142.868406,77.911374 143.383545,78.5095215 C143.898684,79.107669 144.546871,79.4067383 145.328125,79.4067383 C145.796877,79.4067383 146.210692,79.3212899 146.56958,79.1503906 C146.928469,78.9794913 147.254393,78.7060566 147.547363,78.3300781 L148.09668,78.7475586 C147.452145,79.6801804 146.517096,80.1464844 145.291504,80.1464844 Z M145.130371,72.6757812 C144.471188,72.6757812 143.915774,72.9174781 143.464111,73.4008789 C143.012449,73.8842798 142.737793,74.5336873 142.640137,75.3491211 L147.393555,75.3491211 L147.393555,75.2539062 C147.369141,74.4921837 147.151858,73.8720727 146.741699,73.3935547 C146.331541,72.9150367 145.794437,72.6757812 145.130371,72.6757812 Z M162.365234,77.9858398 C162.365234,77.5512674 162.190676,77.2021498 161.841553,76.9384766 C161.49243,76.6748034 160.966312,76.4685066 160.263184,76.3195801 C159.560055,76.1706536 159.014406,75.9997568 158.626221,75.8068848 C158.238035,75.6140127 157.949952,75.3784194 157.761963,75.1000977 C157.573974,74.821776 157.47998,74.4848653 157.47998,74.0893555 C157.47998,73.4643523 157.741208,72.9480001 158.263672,72.5402832 C158.786135,72.1325663 159.455074,71.9287109 160.270508,71.9287109 C161.154301,71.9287109 161.863523,72.1472146 162.398193,72.5842285 C162.932864,73.0212424 163.200195,73.5913051 163.200195,74.2944336 L162.321289,74.2944336 C162.321289,73.8305641 162.127199,73.4448258 161.739014,73.137207 C161.350828,72.8295883 160.861331,72.6757812 160.270508,72.6757812 C159.694333,72.6757812 159.231691,72.8039538 158.882568,73.0603027 C158.533446,73.3166517 158.358887,73.6499003 158.358887,74.0600586 C158.358887,74.4555684 158.504149,74.7619618 158.794678,74.979248 C159.085207,75.1965343 159.614986,75.3955069 160.384033,75.5761719 C161.15308,75.7568368 161.729246,75.949706 162.112549,76.1547852 C162.495852,76.3598643 162.780273,76.6064439 162.96582,76.8945312 C163.151368,77.1826186 163.244141,77.5317362 163.244141,77.9418945 C163.244141,78.6108432 162.974368,79.1455058 162.434814,79.5458984 C161.895261,79.9462911 161.190922,80.1464844 160.321777,80.1464844 C159.398921,80.1464844 158.650638,79.9230979 158.076904,79.4763184 C157.503171,79.0295388 157.216309,78.4643589 157.216309,77.7807617 L158.095215,77.7807617 C158.129395,78.2934596 158.345457,78.6926255 158.743408,78.9782715 C159.141359,79.2639174 159.667477,79.4067383 160.321777,79.4067383 C160.932132,79.4067383 161.425291,79.2724623 161.80127,79.0039062 C162.177248,78.7353502 162.365234,78.3959981 162.365234,77.9858398 Z M172.312012,78.996582 C171.784665,79.7631874 170.942389,80.1464844 169.785156,80.1464844 C168.940425,80.1464844 168.298342,79.9011255 167.858887,79.4104004 C167.419431,78.9196753 167.194824,78.1933642 167.185059,77.2314453 L167.185059,72.0751953 L168.056641,72.0751953 L168.056641,77.121582 C168.056641,78.6303786 168.666986,79.3847656 169.887695,79.3847656 C171.157233,79.3847656 171.960448,78.8598685 172.297363,77.8100586 L172.297363,72.0751953 L173.17627,72.0751953 L173.17627,80 L172.32666,80 L172.312012,78.996582 Z M178.289062,72.0751953 L178.318359,73.4301758 C178.616212,72.9418921 178.987302,72.5695814 179.431641,72.3132324 C179.875979,72.0568835 180.366697,71.9287109 180.903809,71.9287109 C181.753422,71.9287109 182.38574,72.1679664 182.800781,72.6464844 C183.215822,73.1250024 183.425781,73.8427687 183.430664,74.7998047 L183.430664,80 L182.559082,80 L182.559082,74.7924805 C182.554199,74.0844691 182.404054,73.5571306 182.108643,73.2104492 C181.813231,72.8637678 181.340824,72.6904297 180.691406,72.6904297 C180.149411,72.6904297 179.66968,72.8601057 179.252197,73.1994629 C178.834715,73.5388201 178.52588,73.9965792 178.325684,74.5727539 L178.325684,80 L177.454102,80 L177.454102,72.0751953 L178.289062,72.0751953 Z M192.439941,77.9858398 C192.439941,77.5512674 192.265383,77.2021498 191.91626,76.9384766 C191.567137,76.6748034 191.041019,76.4685066 190.337891,76.3195801 C189.634762,76.1706536 189.089113,75.9997568 188.700928,75.8068848 C188.312742,75.6140127 188.024659,75.3784194 187.83667,75.1000977 C187.648681,74.821776 187.554688,74.4848653 187.554688,74.0893555 C187.554688,73.4643523 187.815915,72.9480001 188.338379,72.5402832 C188.860842,72.1325663 189.529781,71.9287109 190.345215,71.9287109 C191.229008,71.9287109 191.93823,72.1472146 192.4729,72.5842285 C193.007571,73.0212424 193.274902,73.5913051 193.274902,74.2944336 L192.395996,74.2944336 C192.395996,73.8305641 192.201906,73.4448258 191.813721,73.137207 C191.425535,72.8295883 190.936038,72.6757812 190.345215,72.6757812 C189.76904,72.6757812 189.306398,72.8039538 188.957275,73.0603027 C188.608153,73.3166517 188.433594,73.6499003 188.433594,74.0600586 C188.433594,74.4555684 188.578856,74.7619618 188.869385,74.979248 C189.159914,75.1965343 189.689693,75.3955069 190.45874,75.5761719 C191.227787,75.7568368 191.803953,75.949706 192.187256,76.1547852 C192.570559,76.3598643 192.85498,76.6064439 193.040527,76.8945312 C193.226075,77.1826186 193.318848,77.5317362 193.318848,77.9418945 C193.318848,78.6108432 193.049075,79.1455058 192.509521,79.5458984 C191.969968,79.9462911 191.265629,80.1464844 190.396484,80.1464844 C189.473628,80.1464844 188.725345,79.9230979 188.151611,79.4763184 C187.577878,79.0295388 187.291016,78.4643589 187.291016,77.7807617 L188.169922,77.7807617 C188.204102,78.2934596 188.420164,78.6926255 188.818115,78.9782715 C189.216066,79.2639174 189.742184,79.4067383 190.396484,79.4067383 C191.006839,79.4067383 191.499998,79.2724623 191.875977,79.0039062 C192.251955,78.7353502 192.439941,78.3959981 192.439941,77.9858398 Z M200.35791,80.1464844 C199.684079,80.1464844 199.074954,79.9804704 198.530518,79.6484375 C197.986081,79.3164046 197.562502,78.8537627 197.259766,78.260498 C196.95703,77.6672334 196.805664,77.0019568 196.805664,76.2646484 L196.805664,75.949707 C196.805664,75.1879845 196.953368,74.5019562 197.248779,73.8916016 C197.544191,73.2812469 197.955564,72.8015154 198.48291,72.4523926 C199.010257,72.1032697 199.58154,71.9287109 200.196777,71.9287109 C201.158696,71.9287109 201.921628,72.2570768 202.485596,72.9138184 C203.049563,73.5705599 203.331543,74.4677677 203.331543,75.6054688 L203.331543,76.0961914 L197.677246,76.0961914 L197.677246,76.2646484 C197.677246,77.1630904 197.934812,77.911374 198.449951,78.5095215 C198.96509,79.107669 199.613277,79.4067383 200.394531,79.4067383 C200.863284,79.4067383 201.277098,79.3212899 201.635986,79.1503906 C201.994875,78.9794913 202.320799,78.7060566 202.61377,78.3300781 L203.163086,78.7475586 C202.518551,79.6801804 201.583502,80.1464844 200.35791,80.1464844 Z M200.196777,72.6757812 C199.537594,72.6757812 198.98218,72.9174781 198.530518,73.4008789 C198.078855,73.8842798 197.8042,74.5336873 197.706543,75.3491211 L202.459961,75.3491211 L202.459961,75.2539062 C202.435547,74.4921837 202.218264,73.8720727 201.808105,73.3935547 C201.397947,72.9150367 200.860843,72.6757812 200.196777,72.6757812 Z M208.400391,70.0463867 L208.400391,72.0751953 L210.041016,72.0751953 L210.041016,72.7929688 L208.400391,72.7929688 L208.400391,78.0737305 C208.400391,78.5131858 208.479736,78.840331 208.638428,79.0551758 C208.79712,79.2700206 209.06201,79.3774414 209.433105,79.3774414 C209.579591,79.3774414 209.816405,79.3530276 210.143555,79.3041992 L210.180176,80.0219727 C209.950682,80.1049809 209.638186,80.1464844 209.242676,80.1464844 C208.642087,80.1464844 208.205079,79.9719256 207.931641,79.6228027 C207.658202,79.2736799 207.521484,78.759769 207.521484,78.0810547 L207.521484,72.7929688 L206.063965,72.7929688 L206.063965,72.0751953 L207.521484,72.0751953 L207.521484,70.0463867 L208.400391,70.0463867 Z M213.776855,79.4726562 C213.776855,79.301757 213.831787,79.1564947 213.94165,79.0368652 C214.051514,78.9172357 214.204101,78.8574219 214.399414,78.8574219 C214.594728,78.8574219 214.748535,78.9172357 214.86084,79.0368652 C214.973145,79.1564947 215.029297,79.301757 215.029297,79.4726562 C215.029297,79.6435555 214.973145,79.783935 214.86084,79.8937988 C214.748535,80.0036627 214.594728,80.0585938 214.399414,80.0585938 C214.204101,80.0585938 214.051514,80.0036627 213.94165,79.8937988 C213.831787,79.783935 213.776855,79.6435555 213.776855,79.4726562 Z" id="5-million-years-ago"></path>
            </g>
        </g>
    </g>
</svg>