<?xml version="1.0" encoding="UTF-8"?>
<svg width="271px" height="81px" viewBox="0 0 271 81" version="1.1" xmlns="http://www.w3.org/2000/svg" xmlns:xlink="http://www.w3.org/1999/xlink">
    <!-- Generator: Sketch 41.2 (35397) - http://www.bohemiancoding.com/sketch -->
    <title>Group 7</title>
    <desc>Created with Sketch.</desc>
    <defs></defs>
    <g id="Page-1" stroke="none" stroke-width="1" fill="none" fill-rule="evenodd">
        <g id="Desktop-HD-Copy" transform="translate(-46.000000, -586.000000)" fill="#000000">
            <g id="Group-7" transform="translate(46.000000, 586.000000)">
                <path d="M8.7890625,1.83007812 L5.46386719,1.83007812 L5.46386719,11 L3.62548828,11 L3.62548828,1.83007812 L0.329589844,1.83007812 L0.329589844,0.3359375 L8.7890625,0.3359375 L8.7890625,1.83007812 Z M14.1435547,11 L12.2978516,11 L12.2978516,0.3359375 L14.1435547,0.3359375 L14.1435547,11 Z M26.9321289,5.94628906 C26.9321289,6.99121616 26.7514667,7.90795504 26.3901367,8.6965332 C26.0288068,9.48511136 25.5124545,10.0905741 24.8410645,10.5129395 C24.1696744,10.9353048 23.396977,11.1464844 22.5229492,11.1464844 C21.6586871,11.1464844 20.8884311,10.9353048 20.2121582,10.5129395 C19.5358853,10.0905741 19.0134296,9.48877344 18.6447754,8.70751953 C18.2761212,7.92626563 18.0893555,7.02539573 18.0844727,6.00488281 L18.0844727,5.40429688 C18.0844727,4.36425261 18.268797,3.44629304 18.6374512,2.65039062 C19.0061054,1.85448821 19.5261197,1.24536344 20.1975098,0.822998047 C20.8688998,0.400632654 21.6391558,0.189453125 22.5083008,0.189453125 C23.3774458,0.189453125 24.1477017,0.398191272 24.8190918,0.815673828 C25.4904819,1.23315638 26.0092755,1.83373632 26.3754883,2.61743164 C26.741701,3.40112697 26.9272461,4.31298308 26.9321289,5.35302734 L26.9321289,5.94628906 Z M25.0791016,5.38964844 C25.0791016,4.2080019 24.8557151,3.30224924 24.4089355,2.67236328 C23.962156,2.04247732 23.3286174,1.72753906 22.5083008,1.72753906 C21.7075155,1.72753906 21.0813011,2.04125663 20.6296387,2.66870117 C20.1779763,3.29614572 19.9472657,4.18358801 19.9375,5.33105469 L19.9375,5.94628906 C19.9375,7.11816992 20.1657692,8.02392258 20.6223145,8.66357422 C21.0788597,9.30322585 21.7123983,9.62304688 22.5229492,9.62304688 C23.3432658,9.62304688 23.974363,9.31055 24.4162598,8.68554688 C24.8581565,8.06054375 25.0791016,7.14746694 25.0791016,5.94628906 L25.0791016,5.38964844 Z M38.9516602,9.61572266 C38.565916,10.1186549 38.0312534,10.4995104 37.3476562,10.7583008 C36.6640591,11.0170911 35.8876997,11.1464844 35.0185547,11.1464844 C34.1249955,11.1464844 33.3339878,10.9438497 32.6455078,10.5385742 C31.9570278,10.1332988 31.4260273,9.55347057 31.0524902,8.79907227 C30.6789532,8.04467396 30.4848634,7.16455581 30.4702148,6.15869141 L30.4702148,5.32373047 C30.4702148,3.71239429 30.8559532,2.45386195 31.6274414,1.5480957 C32.3989296,0.642329456 33.475579,0.189453125 34.8574219,0.189453125 C36.0439512,0.189453125 36.9863246,0.482418945 37.6845703,1.06835938 C38.382816,1.6542998 38.8027337,2.49901792 38.9443359,3.60253906 L37.1279297,3.60253906 C36.9228505,2.31835295 36.1782291,1.67626953 34.894043,1.67626953 C34.0639607,1.67626953 33.4328635,1.97533881 33.0007324,2.57348633 C32.5686014,3.17163385 32.3452149,4.04931062 32.3305664,5.20654297 L32.3305664,6.02685547 C32.3305664,7.17920498 32.5734839,8.07397142 33.0593262,8.71118164 C33.5451684,9.34839186 34.2202105,9.66699219 35.0844727,9.66699219 C36.031743,9.66699219 36.7055644,9.45215059 37.105957,9.02246094 L37.105957,6.93505859 L34.9086914,6.93505859 L34.9086914,5.52880859 L38.9516602,5.52880859 L38.9516602,9.61572266 Z M48.9570312,8.51708984 L44.8261719,8.51708984 L43.9619141,11 L42.0356445,11 L46.0639648,0.3359375 L47.7265625,0.3359375 L51.762207,11 L49.8286133,11 L48.9570312,8.51708984 Z M45.3461914,7.02294922 L48.4370117,7.02294922 L46.8916016,2.59912109 L45.3461914,7.02294922 Z M64.6245117,6.89111328 L62.559082,6.89111328 L62.559082,11 L60.7060547,11 L60.7060547,0.3359375 L64.4560547,0.3359375 C65.6865296,0.3359375 66.6362271,0.611813647 67.3051758,1.16357422 C67.9741244,1.71533479 68.3085938,2.51366665 68.3085938,3.55859375 C68.3085938,4.27148794 68.1364763,4.8684058 67.7922363,5.34936523 C67.4479963,5.83032467 66.9682648,6.20019402 66.3530273,6.45898438 L68.7480469,10.9047852 L68.7480469,11 L66.7631836,11 L64.6245117,6.89111328 Z M62.559082,5.40429688 L64.4633789,5.40429688 C65.088382,5.40429688 65.5766584,5.24682775 65.9282227,4.93188477 C66.2797869,4.61694178 66.4555664,4.18603789 66.4555664,3.63916016 C66.4555664,3.06786824 66.2932145,2.62597812 65.9685059,2.31347656 C65.6437972,2.000975 65.1591829,1.8398438 64.5146484,1.83007812 L62.559082,1.83007812 L62.559082,5.40429688 Z M80.5771484,5.94628906 C80.5771484,6.99121616 80.3964862,7.90795504 80.0351562,8.6965332 C79.6738263,9.48511136 79.1574741,10.0905741 78.486084,10.5129395 C77.8146939,10.9353048 77.0419966,11.1464844 76.1679688,11.1464844 C75.3037066,11.1464844 74.5334506,10.9353048 73.8571777,10.5129395 C73.1809048,10.0905741 72.6584491,9.48877344 72.2897949,8.70751953 C71.9211407,7.92626563 71.734375,7.02539573 71.7294922,6.00488281 L71.7294922,5.40429688 C71.7294922,4.36425261 71.9138165,3.44629304 72.2824707,2.65039062 C72.6511249,1.85448821 73.1711392,1.24536344 73.8425293,0.822998047 C74.5139194,0.400632654 75.2841753,0.189453125 76.1533203,0.189453125 C77.0224653,0.189453125 77.7927213,0.398191272 78.4641113,0.815673828 C79.1355014,1.23315638 79.654295,1.83373632 80.0205078,2.61743164 C80.3867206,3.40112697 80.5722656,4.31298308 80.5771484,5.35302734 L80.5771484,5.94628906 Z M78.7241211,5.38964844 C78.7241211,4.2080019 78.5007347,3.30224924 78.0539551,2.67236328 C77.6071755,2.04247732 76.9736369,1.72753906 76.1533203,1.72753906 C75.3525351,1.72753906 74.7263206,2.04125663 74.2746582,2.66870117 C73.8229958,3.29614572 73.5922852,4.18358801 73.5825195,5.33105469 L73.5825195,5.94628906 C73.5825195,7.11816992 73.8107887,8.02392258 74.267334,8.66357422 C74.7238792,9.30322585 75.3574178,9.62304688 76.1679688,9.62304688 C76.9882854,9.62304688 77.6193826,9.31055 78.0612793,8.68554688 C78.503176,8.06054375 78.7241211,7.14746694 78.7241211,5.94628906 L78.7241211,5.38964844 Z M90.2382812,8.51708984 L86.1074219,8.51708984 L85.2431641,11 L83.3168945,11 L87.3452148,0.3359375 L89.0078125,0.3359375 L93.043457,11 L91.1098633,11 L90.2382812,8.51708984 Z M86.6274414,7.02294922 L89.7182617,7.02294922 L88.1728516,2.59912109 L86.6274414,7.02294922 Z M96.2519531,11 L96.2519531,0.3359375 L99.4013672,0.3359375 C100.343755,0.3359375 101.179928,0.545896338 101.909912,0.965820312 C102.639896,1.38574429 103.205076,1.98144146 103.605469,2.75292969 C104.005861,3.52441792 104.206055,4.40819814 104.206055,5.40429688 L104.206055,5.93896484 C104.206055,6.94971208 104.004641,7.83837507 103.601807,8.60498047 C103.198973,9.37158586 102.625248,9.96240027 101.880615,10.3774414 C101.135983,10.7924825 100.28272,11 99.3208008,11 L96.2519531,11 Z M98.1049805,1.83007812 L98.1049805,9.52050781 L99.3134766,9.52050781 C100.285161,9.52050781 101.031003,9.21655577 101.551025,8.60864258 C102.071048,8.00072938 102.335937,7.12793538 102.345703,5.99023438 L102.345703,5.39697266 C102.345703,4.23974031 102.094241,3.35596008 101.591309,2.74560547 C101.088376,2.13525085 100.358403,1.83007812 99.4013672,1.83007812 L98.1049805,1.83007812 Z" id="TIOGA-ROAD"></path>
                <path d="M6.47460938,39.0634766 C6.16210781,39.5224632 5.7739281,39.8776843 5.31005859,40.1291504 C4.84618909,40.3806165 4.34326443,40.5063477 3.80126953,40.5063477 C3.19579775,40.5063477 2.66113513,40.3500992 2.19726562,40.0375977 C1.73339612,39.7250961 1.37451299,39.2929715 1.12060547,38.7412109 C0.866697949,38.1894504 0.739746094,37.5864291 0.739746094,36.9321289 C0.739746094,36.2290004 0.875242786,35.5893583 1.14624023,35.0131836 C1.41723768,34.4370088 1.79565187,33.9890153 2.28149414,33.6691895 C2.76733641,33.3493636 3.32763354,33.1894531 3.96240234,33.1894531 C5.03174363,33.1894531 5.86425483,33.5642052 6.45996094,34.3137207 C7.05566704,35.0632362 7.35351562,36.126458 7.35351562,37.503418 L7.35351562,38.2944336 C7.35351562,40.2182713 6.94336348,41.6635694 6.12304688,42.6303711 C5.30273027,43.5971728 4.05030139,44.0805664 2.36572266,44.0805664 L2.20458984,44.0805664 L2.21191406,43.3188477 L2.51953125,43.3188477 C3.79395168,43.2993163 4.76318027,42.9379918 5.42724609,42.2348633 C6.09131191,41.5317348 6.44042952,40.4746164 6.47460938,39.0634766 Z M3.91113281,39.7519531 C4.49707324,39.7519531 5.02319103,39.5773943 5.48950195,39.2282715 C5.95581288,38.8791486 6.28662012,38.4262723 6.48193359,37.8696289 L6.48193359,37.3642578 C6.48193359,36.280268 6.25610577,35.439212 5.80444336,34.8410645 C5.35278094,34.2429169 4.74365618,33.9438477 3.97705078,33.9438477 C3.28368794,33.9438477 2.71484597,34.2233859 2.27050781,34.7824707 C1.82616965,35.3415555 1.60400391,36.0458942 1.60400391,36.8955078 C1.60400391,37.7109416 1.81762482,38.3908664 2.24487305,38.9353027 C2.67212128,39.4797391 3.22753564,39.7519531 3.91113281,39.7519531 Z M11.2724609,45.9921875 L10.7524414,45.6113281 C11.1967796,45.015622 11.4262695,44.3979524 11.440918,43.7583008 L11.440918,42.6230469 L12.2978516,42.6230469 L12.2978516,43.5385742 C12.2978516,44.5542043 11.9560581,45.3720672 11.2724609,45.9921875 Z M21.6586914,39.0634766 C21.3461898,39.5224632 20.9580101,39.8776843 20.4941406,40.1291504 C20.0302711,40.3806165 19.5273465,40.5063477 18.9853516,40.5063477 C18.3798798,40.5063477 17.8452172,40.3500992 17.3813477,40.0375977 C16.9174781,39.7250961 16.558595,39.2929715 16.3046875,38.7412109 C16.05078,38.1894504 15.9238281,37.5864291 15.9238281,36.9321289 C15.9238281,36.2290004 16.0593248,35.5893583 16.3303223,35.0131836 C16.6013197,34.4370088 16.9797339,33.9890153 17.4655762,33.6691895 C17.9514184,33.3493636 18.5117156,33.1894531 19.1464844,33.1894531 C20.2158257,33.1894531 21.0483369,33.5642052 21.644043,34.3137207 C22.2397491,35.0632362 22.5375977,36.126458 22.5375977,37.503418 L22.5375977,38.2944336 C22.5375977,40.2182713 22.1274455,41.6635694 21.3071289,42.6303711 C20.4868123,43.5971728 19.2343834,44.0805664 17.5498047,44.0805664 L17.3886719,44.0805664 L17.3959961,43.3188477 L17.7036133,43.3188477 C18.9780337,43.2993163 19.9472623,42.9379918 20.6113281,42.2348633 C21.2753939,41.5317348 21.6245115,40.4746164 21.6586914,39.0634766 Z M19.0952148,39.7519531 C19.6811553,39.7519531 20.2072731,39.5773943 20.673584,39.2282715 C21.1398949,38.8791486 21.4707021,38.4262723 21.6660156,37.8696289 L21.6660156,37.3642578 C21.6660156,36.280268 21.4401878,35.439212 20.9885254,34.8410645 C20.536863,34.2429169 19.9277382,33.9438477 19.1611328,33.9438477 C18.46777,33.9438477 17.898928,34.2233859 17.4545898,34.7824707 C17.0102517,35.3415555 16.7880859,36.0458942 16.7880859,36.8955078 C16.7880859,37.7109416 17.0017068,38.3908664 17.4289551,38.9353027 C17.8562033,39.4797391 18.4116177,39.7519531 19.0952148,39.7519531 Z M31.8837891,40.5649414 L33.5463867,40.5649414 L33.5463867,41.3046875 L31.8837891,41.3046875 L31.8837891,44 L31.0048828,44 L31.0048828,41.3046875 L25.987793,41.3046875 L25.987793,40.8066406 L30.9243164,33.3359375 L31.8837891,33.3359375 L31.8837891,40.5649414 Z M27.0644531,40.5649414 L31.0048828,40.5649414 L31.0048828,34.4711914 L30.6166992,35.1450195 L27.0644531,40.5649414 Z M38.7617188,38.1918945 L39.6699219,38.1918945 C40.1728541,38.1918945 40.6123028,38.1027841 40.9882813,37.9245605 C41.3642597,37.746337 41.6511221,37.5021988 41.848877,37.1921387 C42.0466318,36.8820785 42.1455078,36.5244161 42.1455078,36.1191406 C42.1455078,35.4355435 41.9526386,34.9008808 41.5668945,34.5151367 C41.1811504,34.1293926 40.6269567,33.9365234 39.9042969,33.9365234 C39.2206997,33.9365234 38.6604026,34.1379374 38.2233887,34.5407715 C37.7863748,34.9436055 37.5678711,35.4746061 37.5678711,36.1337891 L36.6889648,36.1337891 C36.6889648,35.5820285 36.8281236,35.0778831 37.1064453,34.6213379 C37.384767,34.1647926 37.7705053,33.812013 38.2636719,33.5629883 C38.7568384,33.3139636 39.3037079,33.1894531 39.9042969,33.1894531 C40.8710986,33.1894531 41.6328097,33.4531224 42.1894531,33.9804688 C42.7460965,34.5078151 43.0244141,35.2304642 43.0244141,36.1484375 C43.0244141,36.6611354 42.8620622,37.1335428 42.5373535,37.5656738 C42.2126449,37.9978049 41.7670927,38.321288 41.2006836,38.5361328 C41.8647494,38.7216806 42.3676741,39.0402809 42.7094727,39.4919434 C43.0512712,39.9436058 43.222168,40.4819305 43.222168,41.1069336 C43.222168,42.0200241 42.9243194,42.75488 42.3286133,43.3115234 C41.7329072,43.8681668 40.9370167,44.1464844 39.940918,44.1464844 C39.3061492,44.1464844 38.7238796,44.0195325 38.1940918,43.765625 C37.664304,43.5117175 37.2541518,43.1564964 36.963623,42.6999512 C36.6730943,42.2434059 36.527832,41.7124054 36.527832,41.1069336 L37.4067383,41.1069336 C37.4067383,41.7856479 37.6435523,42.3386209 38.1171875,42.7658691 C38.5908227,43.1931174 39.1987268,43.4067383 39.940918,43.4067383 C40.6977577,43.4067383 41.2873514,43.2126484 41.7097168,42.8244629 C42.1320822,42.4362774 42.3432617,41.8735388 42.3432617,41.1362305 C42.3432617,40.4233363 42.1149925,39.8789081 41.6584473,39.5029297 C41.201902,39.1269512 40.5293013,38.9389648 39.640625,38.9389648 L38.7617188,38.9389648 L38.7617188,38.1918945 Z M53.5429688,44 L53.5429688,36.7929688 L52.2319336,36.7929688 L52.2319336,36.0751953 L53.5429688,36.0751953 L53.5429688,35.1157227 C53.5429688,34.3051717 53.7492655,33.6826194 54.1618652,33.2480469 C54.574465,32.8134744 55.1494104,32.5961914 55.8867188,32.5961914 C56.2187517,32.5961914 56.5288072,32.6376949 56.8168945,32.7207031 L56.7509766,33.453125 C56.5068347,33.394531 56.2407241,33.3652344 55.9526367,33.3652344 C55.4692359,33.3652344 55.0932631,33.5153794 54.824707,33.8156738 C54.556151,34.1159683 54.421875,34.5419894 54.421875,35.09375 L54.421875,36.0751953 L56.3115234,36.0751953 L56.3115234,36.7929688 L54.421875,36.7929688 L54.421875,44 L53.5429688,44 Z M62.7719727,44.1464844 C62.0981412,44.1464844 61.4890164,43.9804704 60.9445801,43.6484375 C60.4001438,43.3164046 59.976564,42.8537627 59.6738281,42.260498 C59.3710922,41.6672334 59.2197266,41.0019568 59.2197266,40.2646484 L59.2197266,39.949707 C59.2197266,39.1879845 59.3674302,38.5019562 59.6628418,37.8916016 C59.9582534,37.2812469 60.3696263,36.8015154 60.8969727,36.4523926 C61.424319,36.1032697 61.9956024,35.9287109 62.6108398,35.9287109 C63.5727587,35.9287109 64.3356905,36.2570768 64.8996582,36.9138184 C65.4636259,37.5705599 65.7456055,38.4677677 65.7456055,39.6054688 L65.7456055,40.0961914 L60.0913086,40.0961914 L60.0913086,40.2646484 C60.0913086,41.1630904 60.3488744,41.911374 60.8640137,42.5095215 C61.379153,43.107669 62.0273398,43.4067383 62.8085938,43.4067383 C63.2773461,43.4067383 63.6911603,43.3212899 64.0500488,43.1503906 C64.4089373,42.9794913 64.7348618,42.7060566 65.027832,42.3300781 L65.5771484,42.7475586 C64.932614,43.6801804 63.9975647,44.1464844 62.7719727,44.1464844 Z M62.6108398,36.6757812 C61.9516569,36.6757812 61.3962425,36.9174781 60.9445801,37.4008789 C60.4929177,37.8842798 60.2182622,38.5336873 60.1206055,39.3491211 L64.8740234,39.3491211 L64.8740234,39.2539062 C64.8496093,38.4921837 64.6323263,37.8720727 64.222168,37.3935547 C63.8120097,36.9150367 63.2749057,36.6757812 62.6108398,36.6757812 Z M72.5209961,44.1464844 C71.8471646,44.1464844 71.2380398,43.9804704 70.6936035,43.6484375 C70.1491672,43.3164046 69.7255875,42.8537627 69.4228516,42.260498 C69.1201157,41.6672334 68.96875,41.0019568 68.96875,40.2646484 L68.96875,39.949707 C68.96875,39.1879845 69.1164536,38.5019562 69.4118652,37.8916016 C69.7072769,37.2812469 70.1186497,36.8015154 70.6459961,36.4523926 C71.1733425,36.1032697 71.7446258,35.9287109 72.3598633,35.9287109 C73.3217822,35.9287109 74.084714,36.2570768 74.6486816,36.9138184 C75.2126493,37.5705599 75.4946289,38.4677677 75.4946289,39.6054688 L75.4946289,40.0961914 L69.840332,40.0961914 L69.840332,40.2646484 C69.840332,41.1630904 70.0978978,41.911374 70.6130371,42.5095215 C71.1281764,43.107669 71.7763633,43.4067383 72.5576172,43.4067383 C73.0263695,43.4067383 73.4401838,43.3212899 73.7990723,43.1503906 C74.1579608,42.9794913 74.4838853,42.7060566 74.7768555,42.3300781 L75.3261719,42.7475586 C74.6816374,43.6801804 73.7465882,44.1464844 72.5209961,44.1464844 Z M72.3598633,36.6757812 C71.7006803,36.6757812 71.1452659,36.9174781 70.6936035,37.4008789 C70.2419411,37.8842798 69.9672856,38.5336873 69.8696289,39.3491211 L74.6230469,39.3491211 L74.6230469,39.2539062 C74.5986327,38.4921837 74.3813497,37.8720727 73.9711914,37.3935547 C73.5610331,36.9150367 73.0239291,36.6757812 72.3598633,36.6757812 Z M80.5634766,34.0463867 L80.5634766,36.0751953 L82.2041016,36.0751953 L82.2041016,36.7929688 L80.5634766,36.7929688 L80.5634766,42.0737305 C80.5634766,42.5131858 80.6428215,42.840331 80.8015137,43.0551758 C80.9602059,43.2700206 81.2250958,43.3774414 81.5961914,43.3774414 C81.7426765,43.3774414 81.9794906,43.3530276 82.3066406,43.3041992 L82.3432617,44.0219727 C82.1137684,44.1049809 81.8012715,44.1464844 81.4057617,44.1464844 C80.8051728,44.1464844 80.3681654,43.9719256 80.0947266,43.6228027 C79.8212877,43.2736799 79.6845703,42.759769 79.6845703,42.0810547 L79.6845703,36.7929688 L78.2270508,36.7929688 L78.2270508,36.0751953 L79.6845703,36.0751953 L79.6845703,34.0463867 L80.5634766,34.0463867 Z M96.6704102,44 C96.5825191,43.7509753 96.5263673,43.3823267 96.5019531,42.894043 C96.1943344,43.2944356 95.8024926,43.6032704 95.326416,43.8205566 C94.8503394,44.0378429 94.3461941,44.1464844 93.8139648,44.1464844 C93.0522423,44.1464844 92.4357934,43.9340842 91.9645996,43.5092773 C91.4934058,43.0844705 91.2578125,42.5473665 91.2578125,41.8979492 C91.2578125,41.126461 91.5788542,40.5161155 92.2209473,40.0668945 C92.8630403,39.6176735 93.7578068,39.3930664 94.9052734,39.3930664 L96.4946289,39.3930664 L96.4946289,38.4921875 C96.4946289,37.9257784 96.3200701,37.4802262 95.9709473,37.1555176 C95.6218244,36.8308089 95.1127963,36.668457 94.4438477,36.668457 C93.833493,36.668457 93.328127,36.8247055 92.9277344,37.137207 C92.5273417,37.4497086 92.3271484,37.8256814 92.3271484,38.2651367 L91.4482422,38.2578125 C91.4482422,37.6279265 91.741208,37.0822777 92.3271484,36.6208496 C92.9130889,36.1594215 93.6332965,35.9287109 94.487793,35.9287109 C95.3715865,35.9287109 96.068601,36.149656 96.5788574,36.5915527 C97.0891139,37.0334495 97.3515624,37.6498984 97.3662109,38.440918 L97.3662109,42.190918 C97.3662109,42.9575234 97.4467765,43.5312481 97.6079102,43.9121094 L97.6079102,44 L96.6704102,44 Z M93.9165039,43.3701172 C94.5024443,43.3701172 95.0261207,43.228517 95.4875488,42.9453125 C95.9489769,42.662108 96.2846669,42.2836938 96.4946289,41.8100586 L96.4946289,40.0668945 L94.9272461,40.0668945 C94.0532183,40.0766602 93.3696314,40.2365707 92.8764648,40.5466309 C92.3832983,40.856691 92.1367188,41.2827121 92.1367188,41.824707 C92.1367188,42.2690452 92.301512,42.6376938 92.6311035,42.9306641 C92.960695,43.2236343 93.3891575,43.3701172 93.9165039,43.3701172 Z M108.082031,40.1181641 C108.082031,41.3535218 107.808596,42.3337366 107.261719,43.0588379 C106.714841,43.7839392 105.979985,44.1464844 105.057129,44.1464844 C103.953608,44.1464844 103.118655,43.7363322 102.552246,42.9160156 L102.515625,44 L101.695312,44 L101.695312,32.75 L102.566895,32.75 L102.566895,37.2250977 C103.123538,36.3608355 103.948725,35.9287109 105.04248,35.9287109 C105.979985,35.9287109 106.720945,36.2863734 107.265381,37.001709 C107.809817,37.7170446 108.082031,38.7119077 108.082031,39.9863281 L108.082031,40.1181641 Z M107.203125,39.9643555 C107.203125,38.9194284 107.00049,38.1125517 106.595215,37.5437012 C106.189939,36.9748507 105.618656,36.6904297 104.881348,36.6904297 C104.319821,36.6904297 103.843752,36.8283678 103.453125,37.104248 C103.062498,37.3801283 102.767091,37.784177 102.566895,38.3164062 L102.566895,41.890625 C103.00635,42.8867237 103.782709,43.3847656 104.895996,43.3847656 C105.618656,43.3847656 106.183836,43.099124 106.591553,42.527832 C106.99927,41.9565401 107.203125,41.1020565 107.203125,39.9643555 Z M111.532227,39.9204102 C111.532227,39.1586876 111.67993,38.4726593 111.975342,37.8623047 C112.270753,37.2519501 112.68823,36.7771013 113.227783,36.4377441 C113.767337,36.098387 114.378903,35.9287109 115.0625,35.9287109 C116.117193,35.9287109 116.971676,36.2985803 117.625977,37.0383301 C118.280277,37.7780799 118.607422,38.7582947 118.607422,39.9790039 L118.607422,40.1621094 C118.607422,40.9287148 118.459718,41.6184051 118.164307,42.2312012 C117.868895,42.8439972 117.452639,43.3164046 116.915527,43.6484375 C116.378415,43.9804704 115.765628,44.1464844 115.077148,44.1464844 C114.027339,44.1464844 113.174076,43.776615 112.517334,43.0368652 C111.860592,42.2971154 111.532227,41.3169006 111.532227,40.0961914 L111.532227,39.9204102 Z M112.411133,40.1621094 C112.411133,41.1093797 112.656492,41.8869599 113.147217,42.494873 C113.637942,43.1027862 114.281246,43.4067383 115.077148,43.4067383 C115.868168,43.4067383 116.509031,43.1027862 116.999756,42.494873 C117.490481,41.8869599 117.73584,41.0849659 117.73584,40.0888672 L117.73584,39.9204102 C117.73584,39.3149384 117.623536,38.7607447 117.398926,38.2578125 C117.174315,37.7548803 116.859377,37.3654799 116.454102,37.0895996 C116.048826,36.8137193 115.584964,36.6757812 115.0625,36.6757812 C114.281246,36.6757812 113.644045,36.9821747 113.150879,37.5949707 C112.657712,38.2077667 112.411133,39.0097607 112.411133,40.0009766 L112.411133,40.1621094 Z M124.774902,42.7915039 L127.18457,36.0751953 L128.085449,36.0751953 L125.126465,44 L124.416016,44 L121.442383,36.0751953 L122.343262,36.0751953 L124.774902,42.7915039 Z M134.494629,44.1464844 C133.820797,44.1464844 133.211673,43.9804704 132.667236,43.6484375 C132.1228,43.3164046 131.69922,42.8537627 131.396484,42.260498 C131.093748,41.6672334 130.942383,41.0019568 130.942383,40.2646484 L130.942383,39.949707 C130.942383,39.1879845 131.090086,38.5019562 131.385498,37.8916016 C131.68091,37.2812469 132.092283,36.8015154 132.619629,36.4523926 C133.146975,36.1032697 133.718259,35.9287109 134.333496,35.9287109 C135.295415,35.9287109 136.058347,36.2570768 136.622314,36.9138184 C137.186282,37.5705599 137.468262,38.4677677 137.468262,39.6054688 L137.468262,40.0961914 L131.813965,40.0961914 L131.813965,40.2646484 C131.813965,41.1630904 132.071531,41.911374 132.58667,42.5095215 C133.101809,43.107669 133.749996,43.4067383 134.53125,43.4067383 C135.000002,43.4067383 135.413817,43.3212899 135.772705,43.1503906 C136.131594,42.9794913 136.457518,42.7060566 136.750488,42.3300781 L137.299805,42.7475586 C136.65527,43.6801804 135.720221,44.1464844 134.494629,44.1464844 Z M134.333496,36.6757812 C133.674313,36.6757812 133.118899,36.9174781 132.667236,37.4008789 C132.215574,37.8842798 131.940918,38.5336873 131.843262,39.3491211 L136.59668,39.3491211 L136.59668,39.2539062 C136.572266,38.4921837 136.354983,37.8720727 135.944824,37.3935547 C135.534666,36.9150367 134.997562,36.6757812 134.333496,36.6757812 Z M148.18457,34.0463867 L148.18457,36.0751953 L149.825195,36.0751953 L149.825195,36.7929688 L148.18457,36.7929688 L148.18457,42.0737305 C148.18457,42.5131858 148.263915,42.840331 148.422607,43.0551758 C148.5813,43.2700206 148.84619,43.3774414 149.217285,43.3774414 C149.36377,43.3774414 149.600584,43.3530276 149.927734,43.3041992 L149.964355,44.0219727 C149.734862,44.1049809 149.422365,44.1464844 149.026855,44.1464844 C148.426267,44.1464844 147.989259,43.9719256 147.71582,43.6228027 C147.442381,43.2736799 147.305664,42.759769 147.305664,42.0810547 L147.305664,36.7929688 L145.848145,36.7929688 L145.848145,36.0751953 L147.305664,36.0751953 L147.305664,34.0463867 L148.18457,34.0463867 Z M154.513184,37.4155273 C154.801271,36.9418922 155.16992,36.5756849 155.619141,36.3168945 C156.068362,36.0581042 156.559079,35.9287109 157.091309,35.9287109 C157.940922,35.9287109 158.57324,36.1679664 158.988281,36.6464844 C159.403322,37.1250024 159.613281,37.8427687 159.618164,38.7998047 L159.618164,44 L158.746582,44 L158.746582,38.7924805 C158.741699,38.0844691 158.591554,37.5571306 158.296143,37.2104492 C158.000731,36.8637678 157.528324,36.6904297 156.878906,36.6904297 C156.336911,36.6904297 155.85718,36.8601057 155.439697,37.1994629 C155.022215,37.5388201 154.71338,37.9965792 154.513184,38.5727539 L154.513184,44 L153.641602,44 L153.641602,32.75 L154.513184,32.75 L154.513184,37.4155273 Z M166.942871,44.1464844 C166.26904,44.1464844 165.659915,43.9804704 165.115479,43.6484375 C164.571042,43.3164046 164.147462,42.8537627 163.844727,42.260498 C163.541991,41.6672334 163.390625,41.0019568 163.390625,40.2646484 L163.390625,39.949707 C163.390625,39.1879845 163.538329,38.5019562 163.83374,37.8916016 C164.129152,37.2812469 164.540525,36.8015154 165.067871,36.4523926 C165.595217,36.1032697 166.166501,35.9287109 166.781738,35.9287109 C167.743657,35.9287109 168.506589,36.2570768 169.070557,36.9138184 C169.634524,37.5705599 169.916504,38.4677677 169.916504,39.6054688 L169.916504,40.0961914 L164.262207,40.0961914 L164.262207,40.2646484 C164.262207,41.1630904 164.519773,41.911374 165.034912,42.5095215 C165.550051,43.107669 166.198238,43.4067383 166.979492,43.4067383 C167.448245,43.4067383 167.862059,43.3212899 168.220947,43.1503906 C168.579836,42.9794913 168.90576,42.7060566 169.19873,42.3300781 L169.748047,42.7475586 C169.103512,43.6801804 168.168463,44.1464844 166.942871,44.1464844 Z M166.781738,36.6757812 C166.122555,36.6757812 165.567141,36.9174781 165.115479,37.4008789 C164.663816,37.8842798 164.389161,38.5336873 164.291504,39.3491211 L169.044922,39.3491211 L169.044922,39.2539062 C169.020508,38.4921837 168.803225,37.8720727 168.393066,37.3935547 C167.982908,36.9150367 167.445804,36.6757812 166.781738,36.6757812 Z M184.016602,41.9858398 C184.016602,41.5512674 183.842043,41.2021498 183.49292,40.9384766 C183.143797,40.6748034 182.617679,40.4685066 181.914551,40.3195801 C181.211422,40.1706536 180.665773,39.9997568 180.277588,39.8068848 C179.889402,39.6140127 179.601319,39.3784194 179.41333,39.1000977 C179.225341,38.821776 179.131348,38.4848653 179.131348,38.0893555 C179.131348,37.4643523 179.392576,36.9480001 179.915039,36.5402832 C180.437503,36.1325663 181.106441,35.9287109 181.921875,35.9287109 C182.805668,35.9287109 183.51489,36.1472146 184.049561,36.5842285 C184.584231,37.0212424 184.851562,37.5913051 184.851562,38.2944336 L183.972656,38.2944336 C183.972656,37.8305641 183.778566,37.4448258 183.390381,37.137207 C183.002195,36.8295883 182.512698,36.6757812 181.921875,36.6757812 C181.3457,36.6757812 180.883058,36.8039538 180.533936,37.0603027 C180.184813,37.3166517 180.010254,37.6499003 180.010254,38.0600586 C180.010254,38.4555684 180.155516,38.7619618 180.446045,38.979248 C180.736574,39.1965343 181.266354,39.3955069 182.0354,39.5761719 C182.804447,39.7568368 183.380613,39.949706 183.763916,40.1547852 C184.147219,40.3598643 184.43164,40.6064439 184.617188,40.8945312 C184.802735,41.1826186 184.895508,41.5317362 184.895508,41.9418945 C184.895508,42.6108432 184.625735,43.1455058 184.086182,43.5458984 C183.546628,43.9462911 182.84229,44.1464844 181.973145,44.1464844 C181.050288,44.1464844 180.302005,43.9230979 179.728271,43.4763184 C179.154538,43.0295388 178.867676,42.4643589 178.867676,41.7807617 L179.746582,41.7807617 C179.780762,42.2934596 179.996824,42.6926255 180.394775,42.9782715 C180.792727,43.2639174 181.318844,43.4067383 181.973145,43.4067383 C182.583499,43.4067383 183.076658,43.2724623 183.452637,43.0039062 C183.828615,42.7353502 184.016602,42.3959981 184.016602,41.9858398 Z M191.93457,44.1464844 C191.260739,44.1464844 190.651614,43.9804704 190.107178,43.6484375 C189.562741,43.3164046 189.139162,42.8537627 188.836426,42.260498 C188.53369,41.6672334 188.382324,41.0019568 188.382324,40.2646484 L188.382324,39.949707 C188.382324,39.1879845 188.530028,38.5019562 188.825439,37.8916016 C189.120851,37.2812469 189.532224,36.8015154 190.05957,36.4523926 C190.586917,36.1032697 191.1582,35.9287109 191.773438,35.9287109 C192.735356,35.9287109 193.498288,36.2570768 194.062256,36.9138184 C194.626224,37.5705599 194.908203,38.4677677 194.908203,39.6054688 L194.908203,40.0961914 L189.253906,40.0961914 L189.253906,40.2646484 C189.253906,41.1630904 189.511472,41.911374 190.026611,42.5095215 C190.541751,43.107669 191.189938,43.4067383 191.971191,43.4067383 C192.439944,43.4067383 192.853758,43.3212899 193.212646,43.1503906 C193.571535,42.9794913 193.897459,42.7060566 194.19043,42.3300781 L194.739746,42.7475586 C194.095212,43.6801804 193.160162,44.1464844 191.93457,44.1464844 Z M191.773438,36.6757812 C191.114255,36.6757812 190.55884,36.9174781 190.107178,37.4008789 C189.655515,37.8842798 189.38086,38.5336873 189.283203,39.3491211 L194.036621,39.3491211 L194.036621,39.2539062 C194.012207,38.4921837 193.794924,37.8720727 193.384766,37.3935547 C192.974607,36.9150367 192.437503,36.6757812 191.773438,36.6757812 Z M203.617188,44 C203.529296,43.7509753 203.473145,43.3823267 203.44873,42.894043 C203.141112,43.2944356 202.74927,43.6032704 202.273193,43.8205566 C201.797117,44.0378429 201.292971,44.1464844 200.760742,44.1464844 C199.99902,44.1464844 199.382571,43.9340842 198.911377,43.5092773 C198.440183,43.0844705 198.20459,42.5473665 198.20459,41.8979492 C198.20459,41.126461 198.525632,40.5161155 199.167725,40.0668945 C199.809818,39.6176735 200.704584,39.3930664 201.852051,39.3930664 L203.441406,39.3930664 L203.441406,38.4921875 C203.441406,37.9257784 203.266847,37.4802262 202.917725,37.1555176 C202.568602,36.8308089 202.059574,36.668457 201.390625,36.668457 C200.78027,36.668457 200.274904,36.8247055 199.874512,37.137207 C199.474119,37.4497086 199.273926,37.8256814 199.273926,38.2651367 L198.39502,38.2578125 C198.39502,37.6279265 198.687985,37.0822777 199.273926,36.6208496 C199.859866,36.1594215 200.580074,35.9287109 201.43457,35.9287109 C202.318364,35.9287109 203.015378,36.149656 203.525635,36.5915527 C204.035891,37.0334495 204.29834,37.6498984 204.312988,38.440918 L204.312988,42.190918 C204.312988,42.9575234 204.393554,43.5312481 204.554688,43.9121094 L204.554688,44 L203.617188,44 Z M200.863281,43.3701172 C201.449222,43.3701172 201.972898,43.228517 202.434326,42.9453125 C202.895754,42.662108 203.231444,42.2836938 203.441406,41.8100586 L203.441406,40.0668945 L201.874023,40.0668945 C200.999996,40.0766602 200.316409,40.2365707 199.823242,40.5466309 C199.330076,40.856691 199.083496,41.2827121 199.083496,41.824707 C199.083496,42.2690452 199.248289,42.6376938 199.577881,42.9306641 C199.907472,43.2236343 200.335935,43.3701172 200.863281,43.3701172 Z M215.27832,44 L214.399414,44 L214.399414,32.75 L215.27832,32.75 L215.27832,44 Z M222.727539,44.1464844 C222.053708,44.1464844 221.444583,43.9804704 220.900146,43.6484375 C220.35571,43.3164046 219.93213,42.8537627 219.629395,42.260498 C219.326659,41.6672334 219.175293,41.0019568 219.175293,40.2646484 L219.175293,39.949707 C219.175293,39.1879845 219.322997,38.5019562 219.618408,37.8916016 C219.91382,37.2812469 220.325193,36.8015154 220.852539,36.4523926 C221.379885,36.1032697 221.951169,35.9287109 222.566406,35.9287109 C223.528325,35.9287109 224.291257,36.2570768 224.855225,36.9138184 C225.419192,37.5705599 225.701172,38.4677677 225.701172,39.6054688 L225.701172,40.0961914 L220.046875,40.0961914 L220.046875,40.2646484 C220.046875,41.1630904 220.304441,41.911374 220.81958,42.5095215 C221.334719,43.107669 221.982906,43.4067383 222.76416,43.4067383 C223.232912,43.4067383 223.646727,43.3212899 224.005615,43.1503906 C224.364504,42.9794913 224.690428,42.7060566 224.983398,42.3300781 L225.532715,42.7475586 C224.88818,43.6801804 223.953131,44.1464844 222.727539,44.1464844 Z M222.566406,36.6757812 C221.907223,36.6757812 221.351809,36.9174781 220.900146,37.4008789 C220.448484,37.8842798 220.173829,38.5336873 220.076172,39.3491211 L224.82959,39.3491211 L224.82959,39.2539062 C224.805176,38.4921837 224.587893,37.8720727 224.177734,37.3935547 C223.767576,36.9150367 223.230472,36.6757812 222.566406,36.6757812 Z M231.780762,42.7915039 L234.19043,36.0751953 L235.091309,36.0751953 L232.132324,44 L231.421875,44 L228.448242,36.0751953 L229.349121,36.0751953 L231.780762,42.7915039 Z M241.500488,44.1464844 C240.826657,44.1464844 240.217532,43.9804704 239.673096,43.6484375 C239.128659,43.3164046 238.70508,42.8537627 238.402344,42.260498 C238.099608,41.6672334 237.948242,41.0019568 237.948242,40.2646484 L237.948242,39.949707 C237.948242,39.1879845 238.095946,38.5019562 238.391357,37.8916016 C238.686769,37.2812469 239.098142,36.8015154 239.625488,36.4523926 C240.152835,36.1032697 240.724118,35.9287109 241.339355,35.9287109 C242.301274,35.9287109 243.064206,36.2570768 243.628174,36.9138184 C244.192141,37.5705599 244.474121,38.4677677 244.474121,39.6054688 L244.474121,40.0961914 L238.819824,40.0961914 L238.819824,40.2646484 C238.819824,41.1630904 239.07739,41.911374 239.592529,42.5095215 C240.107669,43.107669 240.755855,43.4067383 241.537109,43.4067383 C242.005862,43.4067383 242.419676,43.3212899 242.778564,43.1503906 C243.137453,42.9794913 243.463377,42.7060566 243.756348,42.3300781 L244.305664,42.7475586 C243.66113,43.6801804 242.72608,44.1464844 241.500488,44.1464844 Z M241.339355,36.6757812 C240.680172,36.6757812 240.124758,36.9174781 239.673096,37.4008789 C239.221433,37.8842798 238.946778,38.5336873 238.849121,39.3491211 L243.602539,39.3491211 L243.602539,39.2539062 C243.578125,38.4921837 243.360842,37.8720727 242.950684,37.3935547 C242.540525,36.9150367 242.003421,36.6757812 241.339355,36.6757812 Z M249.162109,44 L248.283203,44 L248.283203,32.75 L249.162109,32.75 L249.162109,44 Z M260.171387,44 L259.29248,44 L259.29248,36.0751953 L260.171387,36.0751953 L260.171387,44 Z M259.138672,33.7827148 C259.138672,33.6166984 259.192382,33.4763189 259.299805,33.3615723 C259.407227,33.2468256 259.55371,33.1894531 259.739258,33.1894531 C259.924806,33.1894531 260.072509,33.2468256 260.182373,33.3615723 C260.292237,33.4763189 260.347168,33.6166984 260.347168,33.7827148 C260.347168,33.9487313 260.292237,34.0878901 260.182373,34.2001953 C260.072509,34.3125006 259.924806,34.3686523 259.739258,34.3686523 C259.55371,34.3686523 259.407227,34.3125006 259.299805,34.2001953 C259.192382,34.0878901 259.138672,33.9487313 259.138672,33.7827148 Z M269.297852,41.9858398 C269.297852,41.5512674 269.123293,41.2021498 268.77417,40.9384766 C268.425047,40.6748034 267.898929,40.4685066 267.195801,40.3195801 C266.492672,40.1706536 265.947023,39.9997568 265.558838,39.8068848 C265.170652,39.6140127 264.882569,39.3784194 264.69458,39.1000977 C264.506591,38.821776 264.412598,38.4848653 264.412598,38.0893555 C264.412598,37.4643523 264.673826,36.9480001 265.196289,36.5402832 C265.718753,36.1325663 266.387691,35.9287109 267.203125,35.9287109 C268.086918,35.9287109 268.79614,36.1472146 269.330811,36.5842285 C269.865481,37.0212424 270.132812,37.5913051 270.132812,38.2944336 L269.253906,38.2944336 C269.253906,37.8305641 269.059816,37.4448258 268.671631,37.137207 C268.283445,36.8295883 267.793948,36.6757812 267.203125,36.6757812 C266.62695,36.6757812 266.164308,36.8039538 265.815186,37.0603027 C265.466063,37.3166517 265.291504,37.6499003 265.291504,38.0600586 C265.291504,38.4555684 265.436766,38.7619618 265.727295,38.979248 C266.017824,39.1965343 266.547604,39.3955069 267.31665,39.5761719 C268.085697,39.7568368 268.661863,39.949706 269.045166,40.1547852 C269.428469,40.3598643 269.71289,40.6064439 269.898438,40.8945312 C270.083985,41.1826186 270.176758,41.5317362 270.176758,41.9418945 C270.176758,42.6108432 269.906985,43.1455058 269.367432,43.5458984 C268.827878,43.9462911 268.12354,44.1464844 267.254395,44.1464844 C266.331538,44.1464844 265.583255,43.9230979 265.009521,43.4763184 C264.435788,43.0295388 264.148926,42.4643589 264.148926,41.7807617 L265.027832,41.7807617 C265.062012,42.2934596 265.278074,42.6926255 265.676025,42.9782715 C266.073977,43.2639174 266.600094,43.4067383 267.254395,43.4067383 C267.864749,43.4067383 268.357908,43.2724623 268.733887,43.0039062 C269.109865,42.7353502 269.297852,42.3959981 269.297852,41.9858398 Z M2.50488281,52.0463867 L2.50488281,54.0751953 L4.14550781,54.0751953 L4.14550781,54.7929688 L2.50488281,54.7929688 L2.50488281,60.0737305 C2.50488281,60.5131858 2.58422772,60.840331 2.74291992,61.0551758 C2.90161212,61.2700206 3.16650205,61.3774414 3.53759766,61.3774414 C3.68408276,61.3774414 3.9208968,61.3530276 4.24804688,61.3041992 L4.28466797,62.0219727 C4.05517463,62.1049809 3.74267776,62.1464844 3.34716797,62.1464844 C2.74657903,62.1464844 2.30957168,61.9719256 2.03613281,61.6228027 C1.76269395,61.2736799 1.62597656,60.759769 1.62597656,60.0810547 L1.62597656,54.7929688 L0.168457031,54.7929688 L0.168457031,54.0751953 L1.62597656,54.0751953 L1.62597656,52.0463867 L2.50488281,52.0463867 Z M8.83349609,55.4155273 C9.12158347,54.9418922 9.49023213,54.5756849 9.93945312,54.3168945 C10.3886741,54.0581042 10.8793919,53.9287109 11.4116211,53.9287109 C12.2612347,53.9287109 12.8935526,54.1679664 13.3085938,54.6464844 C13.7236349,55.1250024 13.9335937,55.8427687 13.9384766,56.7998047 L13.9384766,62 L13.0668945,62 L13.0668945,56.7924805 C13.0620117,56.0844691 12.9118667,55.5571306 12.6164551,55.2104492 C12.3210434,54.8637678 11.8486361,54.6904297 11.1992188,54.6904297 C10.6572239,54.6904297 10.1774923,54.8601057 9.76000977,55.1994629 C9.34252721,55.5388201 9.03369241,55.9965792 8.83349609,56.5727539 L8.83349609,62 L7.96191406,62 L7.96191406,50.75 L8.83349609,50.75 L8.83349609,55.4155273 Z M21.2631836,62.1464844 C20.5893521,62.1464844 19.9802273,61.9804704 19.435791,61.6484375 C18.8913547,61.3164046 18.467775,60.8537627 18.1650391,60.260498 C17.8623032,59.6672334 17.7109375,59.0019568 17.7109375,58.2646484 L17.7109375,57.949707 C17.7109375,57.1879845 17.8586411,56.5019562 18.1540527,55.8916016 C18.4494644,55.2812469 18.8608372,54.8015154 19.3881836,54.4523926 C19.91553,54.1032697 20.4868133,53.9287109 21.1020508,53.9287109 C22.0639697,53.9287109 22.8269015,54.2570768 23.3908691,54.9138184 C23.9548368,55.5705599 24.2368164,56.4677677 24.2368164,57.6054688 L24.2368164,58.0961914 L18.5825195,58.0961914 L18.5825195,58.2646484 C18.5825195,59.1630904 18.8400853,59.911374 19.3552246,60.5095215 C19.8703639,61.107669 20.5185508,61.4067383 21.2998047,61.4067383 C21.768557,61.4067383 22.1823713,61.3212899 22.5412598,61.1503906 C22.9001483,60.9794913 23.2260728,60.7060566 23.519043,60.3300781 L24.0683594,60.7475586 C23.4238249,61.6801804 22.4887757,62.1464844 21.2631836,62.1464844 Z M21.1020508,54.6757812 C20.4428678,54.6757812 19.8874534,54.9174781 19.435791,55.4008789 C18.9841286,55.8842798 18.7094731,56.5336873 18.6118164,57.3491211 L23.3652344,57.3491211 L23.3652344,57.2539062 C23.3408202,56.4921837 23.1235372,55.8720727 22.7133789,55.3935547 C22.3032206,54.9150367 21.7661166,54.6757812 21.1020508,54.6757812 Z M34.4624023,55.4155273 C34.7504897,54.9418922 35.1191384,54.5756849 35.5683594,54.3168945 C36.0175804,54.0581042 36.5082981,53.9287109 37.0405273,53.9287109 C37.890141,53.9287109 38.5224589,54.1679664 38.9375,54.6464844 C39.3525411,55.1250024 39.5625,55.8427687 39.5673828,56.7998047 L39.5673828,62 L38.6958008,62 L38.6958008,56.7924805 C38.6909179,56.0844691 38.540773,55.5571306 38.2453613,55.2104492 C37.9499497,54.8637678 37.4775423,54.6904297 36.828125,54.6904297 C36.2861301,54.6904297 35.8063986,54.8601057 35.388916,55.1994629 C34.9714335,55.5388201 34.6625987,55.9965792 34.4624023,56.5727539 L34.4624023,62 L33.5908203,62 L33.5908203,50.75 L34.4624023,50.75 L34.4624023,55.4155273 Z M46.8920898,62.1464844 C46.2182583,62.1464844 45.6091336,61.9804704 45.0646973,61.6484375 C44.5202609,61.3164046 44.0966812,60.8537627 43.7939453,60.260498 C43.4912094,59.6672334 43.3398438,59.0019568 43.3398438,58.2646484 L43.3398438,57.949707 C43.3398438,57.1879845 43.4875474,56.5019562 43.782959,55.8916016 C44.0783706,55.2812469 44.4897435,54.8015154 45.0170898,54.4523926 C45.5444362,54.1032697 46.1157196,53.9287109 46.730957,53.9287109 C47.6928759,53.9287109 48.4558077,54.2570768 49.0197754,54.9138184 C49.5837431,55.5705599 49.8657227,56.4677677 49.8657227,57.6054688 L49.8657227,58.0961914 L44.2114258,58.0961914 L44.2114258,58.2646484 C44.2114258,59.1630904 44.4689916,59.911374 44.9841309,60.5095215 C45.4992702,61.107669 46.147457,61.4067383 46.9287109,61.4067383 C47.3974633,61.4067383 47.8112775,61.3212899 48.170166,61.1503906 C48.5290545,60.9794913 48.854979,60.7060566 49.1479492,60.3300781 L49.6972656,60.7475586 C49.0527312,61.6801804 48.1176819,62.1464844 46.8920898,62.1464844 Z M46.730957,54.6757812 C46.071774,54.6757812 45.5163597,54.9174781 45.0646973,55.4008789 C44.6130349,55.8842798 44.3383794,56.5336873 44.2407227,57.3491211 L48.9941406,57.3491211 L48.9941406,57.2539062 C48.9697264,56.4921837 48.7524435,55.8720727 48.3422852,55.3935547 C47.9321269,54.9150367 47.3950229,54.6757812 46.730957,54.6757812 Z M54.5537109,62 L53.6748047,62 L53.6748047,54.0751953 L54.5537109,54.0751953 L54.5537109,62 Z M53.5209961,51.7827148 C53.5209961,51.6166984 53.5747065,51.4763189 53.6821289,51.3615723 C53.7895513,51.2468256 53.9360342,51.1894531 54.121582,51.1894531 C54.3071298,51.1894531 54.4548334,51.2468256 54.5646973,51.3615723 C54.6745611,51.4763189 54.7294922,51.6166984 54.7294922,51.7827148 C54.7294922,51.9487313 54.6745611,52.0878901 54.5646973,52.2001953 C54.4548334,52.3125006 54.3071298,52.3686523 54.121582,52.3686523 C53.9360342,52.3686523 53.7895513,52.3125006 53.6821289,52.2001953 C53.5747065,52.0878901 53.5209961,51.9487313 53.5209961,51.7827148 Z M58.5825195,57.9643555 C58.5825195,56.7241149 58.857175,55.7414587 59.4064941,55.0163574 C59.9558133,54.2912561 60.7016554,53.9287109 61.644043,53.9287109 C62.7231499,53.9287109 63.5434542,54.3583941 64.1049805,55.2177734 L64.1489258,54.0751953 L64.9692383,54.0751953 L64.9692383,61.8388672 C64.9692383,62.8593801 64.6835966,63.6674775 64.1123047,64.2631836 C63.5410128,64.8588897 62.7670947,65.1567383 61.7905273,65.1567383 C61.2387668,65.1567383 60.712649,65.0334485 60.2121582,64.7868652 C59.7116674,64.540282 59.3173843,64.2119161 59.0292969,63.8017578 L59.5200195,63.2744141 C60.1401398,64.0361366 60.8774371,64.4169922 61.7319336,64.4169922 C62.4643591,64.4169922 63.0356425,64.2009299 63.4458008,63.7687988 C63.8559591,63.3366678 64.0683593,62.7373085 64.0830078,61.9707031 L64.0830078,60.9746094 C63.5214816,61.7558633 62.7036187,62.1464844 61.6293945,62.1464844 C60.7114212,62.1464844 59.9741239,61.7802771 59.4174805,61.0478516 C58.8608371,60.315426 58.5825195,59.3266664 58.5825195,58.081543 L58.5825195,57.9643555 Z M59.46875,58.1181641 C59.46875,59.1289113 59.6713847,59.9260225 60.0766602,60.5095215 C60.4819356,61.0930205 61.053219,61.3847656 61.7905273,61.3847656 C62.8696343,61.3847656 63.6337868,60.901372 64.0830078,59.9345703 L64.0830078,56.2504883 C63.8779287,55.7426732 63.5825215,55.3557142 63.1967773,55.0895996 C62.8110332,54.823485 62.3471707,54.6904297 61.8051758,54.6904297 C61.0678674,54.6904297 60.4941427,54.9797334 60.0839844,55.5583496 C59.6738261,56.1369658 59.46875,56.9902287 59.46875,58.1181641 Z M70.1259766,55.4155273 C70.4140639,54.9418922 70.7827126,54.5756849 71.2319336,54.3168945 C71.6811546,54.0581042 72.1718723,53.9287109 72.7041016,53.9287109 C73.5537152,53.9287109 74.1860331,54.1679664 74.6010742,54.6464844 C75.0161154,55.1250024 75.2260742,55.8427687 75.230957,56.7998047 L75.230957,62 L74.359375,62 L74.359375,56.7924805 C74.3544922,56.0844691 74.2043472,55.5571306 73.9089355,55.2104492 C73.6135239,54.8637678 73.1411165,54.6904297 72.4916992,54.6904297 C71.9497043,54.6904297 71.4699728,54.8601057 71.0524902,55.1994629 C70.6350077,55.5388201 70.3261729,55.9965792 70.1259766,56.5727539 L70.1259766,62 L69.2543945,62 L69.2543945,50.75 L70.1259766,50.75 L70.1259766,55.4155273 Z M80.8491211,52.0463867 L80.8491211,54.0751953 L82.4897461,54.0751953 L82.4897461,54.7929688 L80.8491211,54.7929688 L80.8491211,60.0737305 C80.8491211,60.5131858 80.928466,60.840331 81.0871582,61.0551758 C81.2458504,61.2700206 81.5107403,61.3774414 81.8818359,61.3774414 C82.028321,61.3774414 82.2651351,61.3530276 82.5922852,61.3041992 L82.6289062,62.0219727 C82.3994129,62.1049809 82.086916,62.1464844 81.6914062,62.1464844 C81.0908173,62.1464844 80.65381,61.9719256 80.3803711,61.6228027 C80.1069322,61.2736799 79.9702148,60.759769 79.9702148,60.0810547 L79.9702148,54.7929688 L78.5126953,54.7929688 L78.5126953,54.0751953 L79.9702148,54.0751953 L79.9702148,52.0463867 L80.8491211,52.0463867 Z M91.4702148,57.9204102 C91.4702148,57.1586876 91.6179184,56.4726593 91.9133301,55.8623047 C92.2087417,55.2519501 92.626218,54.7771013 93.1657715,54.4377441 C93.705325,54.098387 94.3168911,53.9287109 95.0004883,53.9287109 C96.0551811,53.9287109 96.9096647,54.2985803 97.5639648,55.0383301 C98.218265,55.7780799 98.5454102,56.7582947 98.5454102,57.9790039 L98.5454102,58.1621094 C98.5454102,58.9287148 98.3977066,59.6184051 98.1022949,60.2312012 C97.8068833,60.8439972 97.3906277,61.3164046 96.8535156,61.6484375 C96.3164036,61.9804704 95.7036167,62.1464844 95.0151367,62.1464844 C93.9653268,62.1464844 93.1120638,61.776615 92.4553223,61.0368652 C91.7985807,60.2971154 91.4702148,59.3169006 91.4702148,58.0961914 L91.4702148,57.9204102 Z M92.3491211,58.1621094 C92.3491211,59.1093797 92.59448,59.8869599 93.0852051,60.494873 C93.5759302,61.1027862 94.2192343,61.4067383 95.0151367,61.4067383 C95.8061563,61.4067383 96.447019,61.1027862 96.9377441,60.494873 C97.4284693,59.8869599 97.6738281,59.0849659 97.6738281,58.0888672 L97.6738281,57.9204102 C97.6738281,57.3149384 97.5615246,56.7607447 97.3369141,56.2578125 C97.1123036,55.7548803 96.7973653,55.3654799 96.3920898,55.0895996 C95.9868144,54.8137193 95.5229518,54.6757812 95.0004883,54.6757812 C94.2192344,54.6757812 93.5820337,54.9821747 93.0888672,55.5949707 C92.5957007,56.2077667 92.3491211,57.0097607 92.3491211,58.0009766 L92.3491211,58.1621094 Z M102.984375,62 L102.984375,54.7929688 L101.67334,54.7929688 L101.67334,54.0751953 L102.984375,54.0751953 L102.984375,53.1157227 C102.984375,52.3051717 103.190672,51.6826194 103.603271,51.2480469 C104.015871,50.8134744 104.590817,50.5961914 105.328125,50.5961914 C105.660158,50.5961914 105.970213,50.6376949 106.258301,50.7207031 L106.192383,51.453125 C105.948241,51.394531 105.68213,51.3652344 105.394043,51.3652344 C104.910642,51.3652344 104.534669,51.5153794 104.266113,51.8156738 C103.997557,52.1159683 103.863281,52.5419894 103.863281,53.09375 L103.863281,54.0751953 L105.75293,54.0751953 L105.75293,54.7929688 L103.863281,54.7929688 L103.863281,62 L102.984375,62 Z M116.330078,52.0463867 L116.330078,54.0751953 L117.970703,54.0751953 L117.970703,54.7929688 L116.330078,54.7929688 L116.330078,60.0737305 C116.330078,60.5131858 116.409423,60.840331 116.568115,61.0551758 C116.726807,61.2700206 116.991697,61.3774414 117.362793,61.3774414 C117.509278,61.3774414 117.746092,61.3530276 118.073242,61.3041992 L118.109863,62.0219727 C117.88037,62.1049809 117.567873,62.1464844 117.172363,62.1464844 C116.571774,62.1464844 116.134767,61.9719256 115.861328,61.6228027 C115.587889,61.2736799 115.451172,60.759769 115.451172,60.0810547 L115.451172,54.7929688 L113.993652,54.7929688 L113.993652,54.0751953 L115.451172,54.0751953 L115.451172,52.0463867 L116.330078,52.0463867 Z M122.658691,55.4155273 C122.946779,54.9418922 123.315427,54.5756849 123.764648,54.3168945 C124.213869,54.0581042 124.704587,53.9287109 125.236816,53.9287109 C126.08643,53.9287109 126.718748,54.1679664 127.133789,54.6464844 C127.54883,55.1250024 127.758789,55.8427687 127.763672,56.7998047 L127.763672,62 L126.89209,62 L126.89209,56.7924805 C126.887207,56.0844691 126.737062,55.5571306 126.44165,55.2104492 C126.146239,54.8637678 125.673831,54.6904297 125.024414,54.6904297 C124.482419,54.6904297 124.002688,54.8601057 123.585205,55.1994629 C123.167723,55.5388201 122.858888,55.9965792 122.658691,56.5727539 L122.658691,62 L121.787109,62 L121.787109,50.75 L122.658691,50.75 L122.658691,55.4155273 Z M135.088379,62.1464844 C134.414547,62.1464844 133.805423,61.9804704 133.260986,61.6484375 C132.71655,61.3164046 132.29297,60.8537627 131.990234,60.260498 C131.687498,59.6672334 131.536133,59.0019568 131.536133,58.2646484 L131.536133,57.949707 C131.536133,57.1879845 131.683836,56.5019562 131.979248,55.8916016 C132.27466,55.2812469 132.686033,54.8015154 133.213379,54.4523926 C133.740725,54.1032697 134.312009,53.9287109 134.927246,53.9287109 C135.889165,53.9287109 136.652097,54.2570768 137.216064,54.9138184 C137.780032,55.5705599 138.062012,56.4677677 138.062012,57.6054688 L138.062012,58.0961914 L132.407715,58.0961914 L132.407715,58.2646484 C132.407715,59.1630904 132.665281,59.911374 133.18042,60.5095215 C133.695559,61.107669 134.343746,61.4067383 135.125,61.4067383 C135.593752,61.4067383 136.007567,61.3212899 136.366455,61.1503906 C136.725344,60.9794913 137.051268,60.7060566 137.344238,60.3300781 L137.893555,60.7475586 C137.24902,61.6801804 136.313971,62.1464844 135.088379,62.1464844 Z M134.927246,54.6757812 C134.268063,54.6757812 133.712649,54.9174781 133.260986,55.4008789 C132.809324,55.8842798 132.534668,56.5336873 132.437012,57.3491211 L137.19043,57.3491211 L137.19043,57.2539062 C137.166016,56.4921837 136.948733,55.8720727 136.538574,55.3935547 C136.128416,54.9150367 135.591312,54.6757812 134.927246,54.6757812 Z M154.564453,52.1049805 L150.909668,52.1049805 L150.909668,62 L150.008789,62 L150.008789,52.1049805 L146.361328,52.1049805 L146.361328,51.3359375 L154.564453,51.3359375 L154.564453,52.1049805 Z M159.062012,62 L158.183105,62 L158.183105,54.0751953 L159.062012,54.0751953 L159.062012,62 Z M158.029297,51.7827148 C158.029297,51.6166984 158.083007,51.4763189 158.19043,51.3615723 C158.297852,51.2468256 158.444335,51.1894531 158.629883,51.1894531 C158.815431,51.1894531 158.963134,51.2468256 159.072998,51.3615723 C159.182862,51.4763189 159.237793,51.6166984 159.237793,51.7827148 C159.237793,51.9487313 159.182862,52.0878901 159.072998,52.2001953 C158.963134,52.3125006 158.815431,52.3686523 158.629883,52.3686523 C158.444335,52.3686523 158.297852,52.3125006 158.19043,52.2001953 C158.083007,52.0878901 158.029297,51.9487313 158.029297,51.7827148 Z M162.958984,57.9204102 C162.958984,57.1586876 163.106688,56.4726593 163.4021,55.8623047 C163.697511,55.2519501 164.114988,54.7771013 164.654541,54.4377441 C165.194094,54.098387 165.805661,53.9287109 166.489258,53.9287109 C167.543951,53.9287109 168.398434,54.2985803 169.052734,55.0383301 C169.707035,55.7780799 170.03418,56.7582947 170.03418,57.9790039 L170.03418,58.1621094 C170.03418,58.9287148 169.886476,59.6184051 169.591064,60.2312012 C169.295653,60.8439972 168.879397,61.3164046 168.342285,61.6484375 C167.805173,61.9804704 167.192386,62.1464844 166.503906,62.1464844 C165.454096,62.1464844 164.600833,61.776615 163.944092,61.0368652 C163.28735,60.2971154 162.958984,59.3169006 162.958984,58.0961914 L162.958984,57.9204102 Z M163.837891,58.1621094 C163.837891,59.1093797 164.083249,59.8869599 164.573975,60.494873 C165.0647,61.1027862 165.708004,61.4067383 166.503906,61.4067383 C167.294926,61.4067383 167.935789,61.1027862 168.426514,60.494873 C168.917239,59.8869599 169.162598,59.0849659 169.162598,58.0888672 L169.162598,57.9204102 C169.162598,57.3149384 169.050294,56.7607447 168.825684,56.2578125 C168.601073,55.7548803 168.286135,55.3654799 167.880859,55.0895996 C167.475584,54.8137193 167.011721,54.6757812 166.489258,54.6757812 C165.708004,54.6757812 165.070803,54.9821747 164.577637,55.5949707 C164.08447,56.2077667 163.837891,57.0097607 163.837891,58.0009766 L163.837891,58.1621094 Z M173.491699,57.9643555 C173.491699,56.7241149 173.766355,55.7414587 174.315674,55.0163574 C174.864993,54.2912561 175.610835,53.9287109 176.553223,53.9287109 C177.63233,53.9287109 178.452634,54.3583941 179.01416,55.2177734 L179.058105,54.0751953 L179.878418,54.0751953 L179.878418,61.8388672 C179.878418,62.8593801 179.592776,63.6674775 179.021484,64.2631836 C178.450192,64.8588897 177.676274,65.1567383 176.699707,65.1567383 C176.147946,65.1567383 175.621829,65.0334485 175.121338,64.7868652 C174.620847,64.540282 174.226564,64.2119161 173.938477,63.8017578 L174.429199,63.2744141 C175.04932,64.0361366 175.786617,64.4169922 176.641113,64.4169922 C177.373539,64.4169922 177.944822,64.2009299 178.35498,63.7687988 C178.765139,63.3366678 178.977539,62.7373085 178.992188,61.9707031 L178.992188,60.9746094 C178.430661,61.7558633 177.612798,62.1464844 176.538574,62.1464844 C175.620601,62.1464844 174.883304,61.7802771 174.32666,61.0478516 C173.770017,60.315426 173.491699,59.3266664 173.491699,58.081543 L173.491699,57.9643555 Z M174.37793,58.1181641 C174.37793,59.1289113 174.580564,59.9260225 174.98584,60.5095215 C175.391115,61.0930205 175.962399,61.3847656 176.699707,61.3847656 C177.778814,61.3847656 178.542967,60.901372 178.992188,59.9345703 L178.992188,56.2504883 C178.787108,55.7426732 178.491701,55.3557142 178.105957,55.0895996 C177.720213,54.823485 177.25635,54.6904297 176.714355,54.6904297 C175.977047,54.6904297 175.403322,54.9797334 174.993164,55.5583496 C174.583006,56.1369658 174.37793,56.9902287 174.37793,58.1181641 Z M189.166016,62 C189.078125,61.7509753 189.021973,61.3823267 188.997559,60.894043 C188.68994,61.2944356 188.298098,61.6032704 187.822021,61.8205566 C187.345945,62.0378429 186.8418,62.1464844 186.30957,62.1464844 C185.547848,62.1464844 184.931399,61.9340842 184.460205,61.5092773 C183.989011,61.0844705 183.753418,60.5473665 183.753418,59.8979492 C183.753418,59.126461 184.07446,58.5161155 184.716553,58.0668945 C185.358646,57.6176735 186.253412,57.3930664 187.400879,57.3930664 L188.990234,57.3930664 L188.990234,56.4921875 C188.990234,55.9257784 188.815676,55.4802262 188.466553,55.1555176 C188.11743,54.8308089 187.608402,54.668457 186.939453,54.668457 C186.329099,54.668457 185.823732,54.8247055 185.42334,55.137207 C185.022947,55.4497086 184.822754,55.8256814 184.822754,56.2651367 L183.943848,56.2578125 C183.943848,55.6279265 184.236813,55.0822777 184.822754,54.6208496 C185.408694,54.1594215 186.128902,53.9287109 186.983398,53.9287109 C187.867192,53.9287109 188.564206,54.149656 189.074463,54.5915527 C189.584719,55.0334495 189.847168,55.6498984 189.861816,56.440918 L189.861816,60.190918 C189.861816,60.9575234 189.942382,61.5312481 190.103516,61.9121094 L190.103516,62 L189.166016,62 Z M186.412109,61.3701172 C186.99805,61.3701172 187.521726,61.228517 187.983154,60.9453125 C188.444582,60.662108 188.780272,60.2836938 188.990234,59.8100586 L188.990234,58.0668945 L187.422852,58.0668945 C186.548824,58.0766602 185.865237,58.2365707 185.37207,58.5466309 C184.878904,58.856691 184.632324,59.2827121 184.632324,59.824707 C184.632324,60.2690452 184.797117,60.6376938 185.126709,60.9306641 C185.4563,61.2236343 185.884763,61.3701172 186.412109,61.3701172 Z M200.95166,57.6567383 L200.95166,62 L200.050781,62 L200.050781,51.3359375 L203.683594,51.3359375 C204.791998,51.3359375 205.667233,51.6191378 206.309326,52.1855469 C206.951419,52.751956 207.272461,53.5307568 207.272461,54.5219727 C207.272461,55.5229542 206.963626,56.2956516 206.345947,56.8400879 C205.728268,57.3845242 204.833502,57.6567383 203.661621,57.6567383 L200.95166,57.6567383 Z M200.95166,56.8950195 L203.683594,56.8950195 C204.557622,56.8950195 205.224119,56.6875021 205.683105,56.2724609 C206.142092,55.8574198 206.371582,55.2788123 206.371582,54.5366211 C206.371582,53.7993127 206.143313,53.2121604 205.686768,52.7751465 C205.230222,52.3381326 204.582035,52.1147461 203.742188,52.1049805 L200.95166,52.1049805 L200.95166,56.8950195 Z M216.003418,62 C215.915527,61.7509753 215.859375,61.3823267 215.834961,60.894043 C215.527342,61.2944356 215.1355,61.6032704 214.659424,61.8205566 C214.183347,62.0378429 213.679202,62.1464844 213.146973,62.1464844 C212.38525,62.1464844 211.768801,61.9340842 211.297607,61.5092773 C210.826414,61.0844705 210.59082,60.5473665 210.59082,59.8979492 C210.59082,59.126461 210.911862,58.5161155 211.553955,58.0668945 C212.196048,57.6176735 213.090815,57.3930664 214.238281,57.3930664 L215.827637,57.3930664 L215.827637,56.4921875 C215.827637,55.9257784 215.653078,55.4802262 215.303955,55.1555176 C214.954832,54.8308089 214.445804,54.668457 213.776855,54.668457 C213.166501,54.668457 212.661135,54.8247055 212.260742,55.137207 C211.86035,55.4497086 211.660156,55.8256814 211.660156,56.2651367 L210.78125,56.2578125 C210.78125,55.6279265 211.074216,55.0822777 211.660156,54.6208496 C212.246097,54.1594215 212.966304,53.9287109 213.820801,53.9287109 C214.704594,53.9287109 215.401609,54.149656 215.911865,54.5915527 C216.422122,55.0334495 216.68457,55.6498984 216.699219,56.440918 L216.699219,60.190918 C216.699219,60.9575234 216.779784,61.5312481 216.940918,61.9121094 L216.940918,62 L216.003418,62 Z M213.249512,61.3701172 C213.835452,61.3701172 214.359129,61.228517 214.820557,60.9453125 C215.281985,60.662108 215.617675,60.2836938 215.827637,59.8100586 L215.827637,58.0668945 L214.260254,58.0668945 C213.386226,58.0766602 212.702639,58.2365707 212.209473,58.5466309 C211.716306,58.856691 211.469727,59.2827121 211.469727,59.824707 C211.469727,60.2690452 211.63452,60.6376938 211.964111,60.9306641 C212.293703,61.2236343 212.722165,61.3701172 213.249512,61.3701172 Z M225.781738,59.9858398 C225.781738,59.5512674 225.607179,59.2021498 225.258057,58.9384766 C224.908934,58.6748034 224.382816,58.4685066 223.679688,58.3195801 C222.976559,58.1706536 222.43091,57.9997568 222.042725,57.8068848 C221.654539,57.6140127 221.366456,57.3784194 221.178467,57.1000977 C220.990478,56.821776 220.896484,56.4848653 220.896484,56.0893555 C220.896484,55.4643523 221.157712,54.9480001 221.680176,54.5402832 C222.202639,54.1325663 222.871578,53.9287109 223.687012,53.9287109 C224.570805,53.9287109 225.280027,54.1472146 225.814697,54.5842285 C226.349368,55.0212424 226.616699,55.5913051 226.616699,56.2944336 L225.737793,56.2944336 C225.737793,55.8305641 225.543703,55.4448258 225.155518,55.137207 C224.767332,54.8295883 224.277835,54.6757812 223.687012,54.6757812 C223.110837,54.6757812 222.648195,54.8039538 222.299072,55.0603027 C221.949949,55.3166517 221.775391,55.6499003 221.775391,56.0600586 C221.775391,56.4555684 221.920653,56.7619618 222.211182,56.979248 C222.50171,57.1965343 223.03149,57.3955069 223.800537,57.5761719 C224.569584,57.7568368 225.14575,57.949706 225.529053,58.1547852 C225.912355,58.3598643 226.196776,58.6064439 226.382324,58.8945312 C226.567872,59.1826186 226.660645,59.5317362 226.660645,59.9418945 C226.660645,60.6108432 226.390872,61.1455058 225.851318,61.5458984 C225.311765,61.9462911 224.607426,62.1464844 223.738281,62.1464844 C222.815425,62.1464844 222.067142,61.9230979 221.493408,61.4763184 C220.919675,61.0295388 220.632812,60.4643589 220.632812,59.7807617 L221.511719,59.7807617 C221.545899,60.2934596 221.761961,60.6926255 222.159912,60.9782715 C222.557863,61.2639174 223.083981,61.4067383 223.738281,61.4067383 C224.348636,61.4067383 224.841795,61.2724623 225.217773,61.0039062 C225.593752,60.7353502 225.781738,60.3959981 225.781738,59.9858398 Z M235.376953,59.9858398 C235.376953,59.5512674 235.202394,59.2021498 234.853271,58.9384766 C234.504149,58.6748034 233.978031,58.4685066 233.274902,58.3195801 C232.571774,58.1706536 232.026125,57.9997568 231.637939,57.8068848 C231.249754,57.6140127 230.961671,57.3784194 230.773682,57.1000977 C230.585692,56.821776 230.491699,56.4848653 230.491699,56.0893555 C230.491699,55.4643523 230.752927,54.9480001 231.275391,54.5402832 C231.797854,54.1325663 232.466793,53.9287109 233.282227,53.9287109 C234.16602,53.9287109 234.875241,54.1472146 235.409912,54.5842285 C235.944583,55.0212424 236.211914,55.5913051 236.211914,56.2944336 L235.333008,56.2944336 C235.333008,55.8305641 235.138918,55.4448258 234.750732,55.137207 C234.362547,54.8295883 233.87305,54.6757812 233.282227,54.6757812 C232.706052,54.6757812 232.24341,54.8039538 231.894287,55.0603027 C231.545164,55.3166517 231.370605,55.6499003 231.370605,56.0600586 C231.370605,56.4555684 231.515868,56.7619618 231.806396,56.979248 C232.096925,57.1965343 232.626705,57.3955069 233.395752,57.5761719 C234.164799,57.7568368 234.740965,57.949706 235.124268,58.1547852 C235.50757,58.3598643 235.791991,58.6064439 235.977539,58.8945312 C236.163087,59.1826186 236.255859,59.5317362 236.255859,59.9418945 C236.255859,60.6108432 235.986087,61.1455058 235.446533,61.5458984 C234.90698,61.9462911 234.202641,62.1464844 233.333496,62.1464844 C232.41064,62.1464844 231.662356,61.9230979 231.088623,61.4763184 C230.51489,61.0295388 230.228027,60.4643589 230.228027,59.7807617 L231.106934,59.7807617 C231.141113,60.2934596 231.357176,60.6926255 231.755127,60.9782715 C232.153078,61.2639174 232.679196,61.4067383 233.333496,61.4067383 C233.943851,61.4067383 234.43701,61.2724623 234.812988,61.0039062 C235.188967,60.7353502 235.376953,60.3959981 235.376953,59.9858398 Z M245.390137,57.9204102 C245.390137,57.1586876 245.53784,56.4726593 245.833252,55.8623047 C246.128664,55.2519501 246.54614,54.7771013 247.085693,54.4377441 C247.625247,54.098387 248.236813,53.9287109 248.92041,53.9287109 C249.975103,53.9287109 250.829587,54.2985803 251.483887,55.0383301 C252.138187,55.7780799 252.465332,56.7582947 252.465332,57.9790039 L252.465332,58.1621094 C252.465332,58.9287148 252.317628,59.6184051 252.022217,60.2312012 C251.726805,60.8439972 251.31055,61.3164046 250.773438,61.6484375 C250.236325,61.9804704 249.623539,62.1464844 248.935059,62.1464844 C247.885249,62.1464844 247.031986,61.776615 246.375244,61.0368652 C245.718503,60.2971154 245.390137,59.3169006 245.390137,58.0961914 L245.390137,57.9204102 Z M246.269043,58.1621094 C246.269043,59.1093797 246.514402,59.8869599 247.005127,60.494873 C247.495852,61.1027862 248.139156,61.4067383 248.935059,61.4067383 C249.726078,61.4067383 250.366941,61.1027862 250.857666,60.494873 C251.348391,59.8869599 251.59375,59.0849659 251.59375,58.0888672 L251.59375,57.9204102 C251.59375,57.3149384 251.481446,56.7607447 251.256836,56.2578125 C251.032225,55.7548803 250.717287,55.3654799 250.312012,55.0895996 C249.906736,54.8137193 249.442874,54.6757812 248.92041,54.6757812 C248.139156,54.6757812 247.501956,54.9821747 247.008789,55.5949707 C246.515623,56.2077667 246.269043,57.0097607 246.269043,58.0009766 L246.269043,58.1621094 Z M257.109375,54.0751953 L257.138672,55.4301758 C257.436525,54.9418921 257.807615,54.5695814 258.251953,54.3132324 C258.696291,54.0568835 259.187009,53.9287109 259.724121,53.9287109 C260.573735,53.9287109 261.206053,54.1679664 261.621094,54.6464844 C262.036135,55.1250024 262.246094,55.8427687 262.250977,56.7998047 L262.250977,62 L261.379395,62 L261.379395,56.7924805 C261.374512,56.0844691 261.224367,55.5571306 260.928955,55.2104492 C260.633543,54.8637678 260.161136,54.6904297 259.511719,54.6904297 C258.969724,54.6904297 258.489992,54.8601057 258.07251,55.1994629 C257.655027,55.5388201 257.346192,55.9965792 257.145996,56.5727539 L257.145996,62 L256.274414,62 L256.274414,54.0751953 L257.109375,54.0751953 Z M2.50488281,70.0463867 L2.50488281,72.0751953 L4.14550781,72.0751953 L4.14550781,72.7929688 L2.50488281,72.7929688 L2.50488281,78.0737305 C2.50488281,78.5131858 2.58422772,78.840331 2.74291992,79.0551758 C2.90161212,79.2700206 3.16650205,79.3774414 3.53759766,79.3774414 C3.68408276,79.3774414 3.9208968,79.3530276 4.24804688,79.3041992 L4.28466797,80.0219727 C4.05517463,80.1049809 3.74267776,80.1464844 3.34716797,80.1464844 C2.74657903,80.1464844 2.30957168,79.9719256 2.03613281,79.6228027 C1.76269395,79.2736799 1.62597656,78.759769 1.62597656,78.0810547 L1.62597656,72.7929688 L0.168457031,72.7929688 L0.168457031,72.0751953 L1.62597656,72.0751953 L1.62597656,70.0463867 L2.50488281,70.0463867 Z M8.83349609,73.4155273 C9.12158347,72.9418922 9.49023213,72.5756849 9.93945312,72.3168945 C10.3886741,72.0581042 10.8793919,71.9287109 11.4116211,71.9287109 C12.2612347,71.9287109 12.8935526,72.1679664 13.3085938,72.6464844 C13.7236349,73.1250024 13.9335937,73.8427687 13.9384766,74.7998047 L13.9384766,80 L13.0668945,80 L13.0668945,74.7924805 C13.0620117,74.0844691 12.9118667,73.5571306 12.6164551,73.2104492 C12.3210434,72.8637678 11.8486361,72.6904297 11.1992188,72.6904297 C10.6572239,72.6904297 10.1774923,72.8601057 9.76000977,73.1994629 C9.34252721,73.5388201 9.03369241,73.9965792 8.83349609,74.5727539 L8.83349609,80 L7.96191406,80 L7.96191406,68.75 L8.83349609,68.75 L8.83349609,73.4155273 Z M21.2631836,80.1464844 C20.5893521,80.1464844 19.9802273,79.9804704 19.435791,79.6484375 C18.8913547,79.3164046 18.467775,78.8537627 18.1650391,78.260498 C17.8623032,77.6672334 17.7109375,77.0019568 17.7109375,76.2646484 L17.7109375,75.949707 C17.7109375,75.1879845 17.8586411,74.5019562 18.1540527,73.8916016 C18.4494644,73.2812469 18.8608372,72.8015154 19.3881836,72.4523926 C19.91553,72.1032697 20.4868133,71.9287109 21.1020508,71.9287109 C22.0639697,71.9287109 22.8269015,72.2570768 23.3908691,72.9138184 C23.9548368,73.5705599 24.2368164,74.4677677 24.2368164,75.6054688 L24.2368164,76.0961914 L18.5825195,76.0961914 L18.5825195,76.2646484 C18.5825195,77.1630904 18.8400853,77.911374 19.3552246,78.5095215 C19.8703639,79.107669 20.5185508,79.4067383 21.2998047,79.4067383 C21.768557,79.4067383 22.1823713,79.3212899 22.5412598,79.1503906 C22.9001483,78.9794913 23.2260728,78.7060566 23.519043,78.3300781 L24.0683594,78.7475586 C23.4238249,79.6801804 22.4887757,80.1464844 21.2631836,80.1464844 Z M21.1020508,72.6757812 C20.4428678,72.6757812 19.8874534,72.9174781 19.435791,73.4008789 C18.9841286,73.8842798 18.7094731,74.5336873 18.6118164,75.3491211 L23.3652344,75.3491211 L23.3652344,75.2539062 C23.3408202,74.4921837 23.1235372,73.8720727 22.7133789,73.3935547 C22.3032206,72.9150367 21.7661166,72.6757812 21.1020508,72.6757812 Z M39.8310547,77.3779297 C39.8310547,76.7871064 39.6235372,76.3195818 39.2084961,75.9753418 C38.793455,75.6311018 38.0341852,75.3039566 36.9306641,74.9938965 C35.8271429,74.6838363 35.0214869,74.345705 34.5136719,73.9794922 C33.791012,73.4619115 33.4296875,72.7832073 33.4296875,71.9433594 C33.4296875,71.1279256 33.7653775,70.4650904 34.4367676,69.954834 C35.1081577,69.4445775 35.9663034,69.1894531 37.0112305,69.1894531 C37.7192418,69.1894531 38.3527804,69.3261705 38.9118652,69.5996094 C39.4709501,69.8730482 39.9042953,70.2539038 40.2119141,70.7421875 C40.5195328,71.2304712 40.6733398,71.7748993 40.6733398,72.3754883 L39.7651367,72.3754883 C39.7651367,71.6479456 39.5161158,71.0632346 39.0180664,70.6213379 C38.520017,70.1794411 37.8510784,69.9584961 37.0112305,69.9584961 C36.1957967,69.9584961 35.5463891,70.140379 35.0629883,70.5041504 C34.5795874,70.8679217 34.3378906,71.3427705 34.3378906,71.9287109 C34.3378906,72.4707058 34.5551736,72.9125959 34.9897461,73.2543945 C35.4243186,73.5961931 36.1201124,73.8977038 37.0771484,74.1589355 C38.0341845,74.4201673 38.7592749,74.6911607 39.2524414,74.9719238 C39.7456079,75.252687 40.116698,75.588377 40.3657227,75.9790039 C40.6147473,76.3696309 40.7392578,76.831052 40.7392578,77.3632812 C40.7392578,78.2031292 40.4035678,78.8769506 39.7321777,79.3847656 C39.0607877,79.8925807 38.1757867,80.1464844 37.0771484,80.1464844 C36.3251916,80.1464844 35.6355012,80.0122084 35.0080566,79.7436523 C34.3806121,79.4750963 33.9045426,79.0991235 33.579834,78.6157227 C33.2551253,78.1323218 33.0927734,77.5781281 33.0927734,76.953125 L33.9936523,76.953125 C33.9936523,77.7050819 34.2744113,78.2983377 34.8359375,78.7329102 C35.3974637,79.1674826 36.1445266,79.3847656 37.0771484,79.3847656 C37.9072307,79.3847656 38.573728,79.201662 39.0766602,78.8354492 C39.5795924,78.4692365 39.8310547,77.9834015 39.8310547,77.3779297 Z M45.8374023,70.0463867 L45.8374023,72.0751953 L47.4780273,72.0751953 L47.4780273,72.7929688 L45.8374023,72.7929688 L45.8374023,78.0737305 C45.8374023,78.5131858 45.9167473,78.840331 46.0754395,79.0551758 C46.2341317,79.2700206 46.4990216,79.3774414 46.8701172,79.3774414 C47.0166023,79.3774414 47.2534163,79.3530276 47.5805664,79.3041992 L47.6171875,80.0219727 C47.3876942,80.1049809 47.0751973,80.1464844 46.6796875,80.1464844 C46.0790986,80.1464844 45.6420912,79.9719256 45.3686523,79.6228027 C45.0952135,79.2736799 44.9584961,78.759769 44.9584961,78.0810547 L44.9584961,72.7929688 L43.5009766,72.7929688 L43.5009766,72.0751953 L44.9584961,72.0751953 L44.9584961,70.0463867 L45.8374023,70.0463867 Z M56.296875,80 C56.2089839,79.7509753 56.1528322,79.3823267 56.128418,78.894043 C55.8207992,79.2944356 55.4289575,79.6032704 54.9528809,79.8205566 C54.4768043,80.0378429 53.9726589,80.1464844 53.4404297,80.1464844 C52.6787071,80.1464844 52.0622582,79.9340842 51.5910645,79.5092773 C51.1198707,79.0844705 50.8842773,78.5473665 50.8842773,77.8979492 C50.8842773,77.126461 51.2053191,76.5161155 51.8474121,76.0668945 C52.4895052,75.6176735 53.3842716,75.3930664 54.5317383,75.3930664 L56.1210938,75.3930664 L56.1210938,74.4921875 C56.1210938,73.9257784 55.9465349,73.4802262 55.5974121,73.1555176 C55.2482893,72.8308089 54.7392612,72.668457 54.0703125,72.668457 C53.4599579,72.668457 52.9545918,72.8247055 52.5541992,73.137207 C52.1538066,73.4497086 51.9536133,73.8256814 51.9536133,74.2651367 L51.074707,74.2578125 C51.074707,73.6279265 51.3676729,73.0822777 51.9536133,72.6208496 C52.5395537,72.1594215 53.2597614,71.9287109 54.1142578,71.9287109 C54.9980513,71.9287109 55.6950658,72.149656 56.2053223,72.5915527 C56.7155787,73.0334495 56.9780273,73.6498984 56.9926758,74.440918 L56.9926758,78.190918 C56.9926758,78.9575234 57.0732414,79.5312481 57.234375,79.9121094 L57.234375,80 L56.296875,80 Z M53.5429688,79.3701172 C54.1289092,79.3701172 54.6525856,79.228517 55.1140137,78.9453125 C55.5754418,78.662108 55.9111318,78.2836938 56.1210938,77.8100586 L56.1210938,76.0668945 L54.5537109,76.0668945 C53.6796831,76.0766602 52.9960962,76.2365707 52.5029297,76.5466309 C52.0097632,76.856691 51.7631836,77.2827121 51.7631836,77.824707 C51.7631836,78.2690452 51.9279769,78.6376938 52.2575684,78.9306641 C52.5871599,79.2236343 53.0156224,79.3701172 53.5429688,79.3701172 Z M62.6914062,70.0463867 L62.6914062,72.0751953 L64.3320312,72.0751953 L64.3320312,72.7929688 L62.6914062,72.7929688 L62.6914062,78.0737305 C62.6914062,78.5131858 62.7707512,78.840331 62.9294434,79.0551758 C63.0881356,79.2700206 63.3530255,79.3774414 63.7241211,79.3774414 C63.8706062,79.3774414 64.1074202,79.3530276 64.4345703,79.3041992 L64.4711914,80.0219727 C64.2416981,80.1049809 63.9292012,80.1464844 63.5336914,80.1464844 C62.9331025,80.1464844 62.4960951,79.9719256 62.2226562,79.6228027 C61.9492174,79.2736799 61.8125,78.759769 61.8125,78.0810547 L61.8125,72.7929688 L60.3549805,72.7929688 L60.3549805,72.0751953 L61.8125,72.0751953 L61.8125,70.0463867 L62.6914062,70.0463867 Z M71.2172852,80.1464844 C70.5434537,80.1464844 69.9343289,79.9804704 69.3898926,79.6484375 C68.8454563,79.3164046 68.4218765,78.8537627 68.1191406,78.260498 C67.8164047,77.6672334 67.6650391,77.0019568 67.6650391,76.2646484 L67.6650391,75.949707 C67.6650391,75.1879845 67.8127427,74.5019562 68.1081543,73.8916016 C68.4035659,73.2812469 68.8149388,72.8015154 69.3422852,72.4523926 C69.8696315,72.1032697 70.4409149,71.9287109 71.0561523,71.9287109 C72.0180712,71.9287109 72.781003,72.2570768 73.3449707,72.9138184 C73.9089384,73.5705599 74.190918,74.4677677 74.190918,75.6054688 L74.190918,76.0961914 L68.5366211,76.0961914 L68.5366211,76.2646484 C68.5366211,77.1630904 68.7941869,77.911374 69.3093262,78.5095215 C69.8244655,79.107669 70.4726523,79.4067383 71.2539062,79.4067383 C71.7226586,79.4067383 72.1364728,79.3212899 72.4953613,79.1503906 C72.8542498,78.9794913 73.1801743,78.7060566 73.4731445,78.3300781 L74.0224609,78.7475586 C73.3779265,79.6801804 72.4428772,80.1464844 71.2172852,80.1464844 Z M71.0561523,72.6757812 C70.3969694,72.6757812 69.841555,72.9174781 69.3898926,73.4008789 C68.9382302,73.8842798 68.6635747,74.5336873 68.565918,75.3491211 L73.3193359,75.3491211 L73.3193359,75.2539062 C73.2949218,74.4921837 73.0776388,73.8720727 72.6674805,73.3935547 C72.2573222,72.9150367 71.7202182,72.6757812 71.0561523,72.6757812 Z M87.734375,75.5615234 L84.6362305,75.5615234 L84.6362305,80 L83.7280273,80 L83.7280273,69.3359375 L87.1923828,69.3359375 C88.3300838,69.3359375 89.2187468,69.6118136 89.8583984,70.1635742 C90.4980501,70.7153348 90.8178711,71.4868115 90.8178711,72.4780273 C90.8178711,73.1616245 90.6176778,73.7646458 90.2172852,74.2871094 C89.8168925,74.8095729 89.2797885,75.1708974 88.605957,75.3710938 L91.2719727,79.9047852 L91.2719727,80 L90.3125,80 L87.734375,75.5615234 Z M84.6362305,74.7924805 L87.3974609,74.7924805 C88.1543007,74.7924805 88.7622047,74.5776389 89.2211914,74.1479492 C89.6801781,73.7182596 89.909668,73.1616245 89.909668,72.4780273 C89.909668,71.7260705 89.6704125,71.1425802 89.1918945,70.7275391 C88.7133765,70.3124979 88.0419965,70.1049805 87.1777344,70.1049805 L84.6362305,70.1049805 L84.6362305,74.7924805 Z M94.5830078,75.9204102 C94.5830078,75.1586876 94.7307114,74.4726593 95.026123,73.8623047 C95.3215347,73.2519501 95.739011,72.7771013 96.2785645,72.4377441 C96.8181179,72.098387 97.4296841,71.9287109 98.1132812,71.9287109 C99.167974,71.9287109 100.022458,72.2985803 100.676758,73.0383301 C101.331058,73.7780799 101.658203,74.7582947 101.658203,75.9790039 L101.658203,76.1621094 C101.658203,76.9287148 101.5105,77.6184051 101.215088,78.2312012 C100.919676,78.8439972 100.503421,79.3164046 99.9663086,79.6484375 C99.4291965,79.9804704 98.8164097,80.1464844 98.1279297,80.1464844 C97.0781198,80.1464844 96.2248568,79.776615 95.5681152,79.0368652 C94.9113737,78.2971154 94.5830078,77.3169006 94.5830078,76.0961914 L94.5830078,75.9204102 Z M95.4619141,76.1621094 C95.4619141,77.1093797 95.7072729,77.8869599 96.197998,78.494873 C96.6887232,79.1027862 97.3320273,79.4067383 98.1279297,79.4067383 C98.9189493,79.4067383 99.559812,79.1027862 100.050537,78.494873 C100.541262,77.8869599 100.786621,77.0849659 100.786621,76.0888672 L100.786621,75.9204102 C100.786621,75.3149384 100.674318,74.7607447 100.449707,74.2578125 C100.225097,73.7548803 99.9101583,73.3654799 99.5048828,73.0895996 C99.0996073,72.8137193 98.6357448,72.6757812 98.1132812,72.6757812 C97.3320273,72.6757812 96.6948267,72.9821747 96.2016602,73.5949707 C95.7084936,74.2077667 95.4619141,75.0097607 95.4619141,76.0009766 L95.4619141,76.1621094 Z M110.564941,78.996582 C110.037595,79.7631874 109.195318,80.1464844 108.038086,80.1464844 C107.193355,80.1464844 106.551272,79.9011255 106.111816,79.4104004 C105.672361,78.9196753 105.447754,78.1933642 105.437988,77.2314453 L105.437988,72.0751953 L106.30957,72.0751953 L106.30957,77.121582 C106.30957,78.6303786 106.919916,79.3847656 108.140625,79.3847656 C109.410163,79.3847656 110.213377,78.8598685 110.550293,77.8100586 L110.550293,72.0751953 L111.429199,72.0751953 L111.429199,80 L110.57959,80 L110.564941,78.996582 Z M117.069336,70.0463867 L117.069336,72.0751953 L118.709961,72.0751953 L118.709961,72.7929688 L117.069336,72.7929688 L117.069336,78.0737305 C117.069336,78.5131858 117.148681,78.840331 117.307373,79.0551758 C117.466065,79.2700206 117.730955,79.3774414 118.102051,79.3774414 C118.248536,79.3774414 118.48535,79.3530276 118.8125,79.3041992 L118.849121,80.0219727 C118.619628,80.1049809 118.307131,80.1464844 117.911621,80.1464844 C117.311032,80.1464844 116.874025,79.9719256 116.600586,79.6228027 C116.327147,79.2736799 116.19043,78.759769 116.19043,78.0810547 L116.19043,72.7929688 L114.73291,72.7929688 L114.73291,72.0751953 L116.19043,72.0751953 L116.19043,70.0463867 L117.069336,70.0463867 Z M125.595215,80.1464844 C124.921383,80.1464844 124.312259,79.9804704 123.767822,79.6484375 C123.223386,79.3164046 122.799806,78.8537627 122.49707,78.260498 C122.194334,77.6672334 122.042969,77.0019568 122.042969,76.2646484 L122.042969,75.949707 C122.042969,75.1879845 122.190672,74.5019562 122.486084,73.8916016 C122.781496,73.2812469 123.192868,72.8015154 123.720215,72.4523926 C124.247561,72.1032697 124.818845,71.9287109 125.434082,71.9287109 C126.396001,71.9287109 127.158933,72.2570768 127.7229,72.9138184 C128.286868,73.5705599 128.568848,74.4677677 128.568848,75.6054688 L128.568848,76.0961914 L122.914551,76.0961914 L122.914551,76.2646484 C122.914551,77.1630904 123.172117,77.911374 123.687256,78.5095215 C124.202395,79.107669 124.850582,79.4067383 125.631836,79.4067383 C126.100588,79.4067383 126.514403,79.3212899 126.873291,79.1503906 C127.23218,78.9794913 127.558104,78.7060566 127.851074,78.3300781 L128.400391,78.7475586 C127.755856,79.6801804 126.820807,80.1464844 125.595215,80.1464844 Z M125.434082,72.6757812 C124.774899,72.6757812 124.219485,72.9174781 123.767822,73.4008789 C123.31616,73.8842798 123.041504,74.5336873 122.943848,75.3491211 L127.697266,75.3491211 L127.697266,75.2539062 C127.672851,74.4921837 127.455568,73.8720727 127.04541,73.3935547 C126.635252,72.9150367 126.098148,72.6757812 125.434082,72.6757812 Z M141.863281,80 L140.984375,80 L140.984375,70.390625 L138.083984,71.4672852 L138.083984,70.6469727 L141.716797,69.2993164 L141.863281,69.2993164 L141.863281,80 Z M154.776367,80 L148.09668,80 L148.09668,79.3261719 L151.751465,75.1806641 C152.356937,74.4824184 152.776854,73.9062523 153.01123,73.4521484 C153.245607,72.9980446 153.362793,72.5561545 153.362793,72.1264648 C153.362793,71.4526333 153.165041,70.9191914 152.769531,70.526123 C152.374021,70.1330547 151.829593,69.9365234 151.13623,69.9365234 C150.418453,69.9365234 149.838625,70.1660133 149.396729,70.625 C148.954832,71.0839867 148.733887,71.6796838 148.733887,72.4121094 L147.862305,72.4121094 C147.862305,71.8115204 147.997801,71.2646509 148.268799,70.7714844 C148.539796,70.2783178 148.925535,69.8913588 149.426025,69.6105957 C149.926516,69.3298326 150.496579,69.1894531 151.13623,69.1894531 C152.112798,69.1894531 152.87573,69.4457982 153.425049,69.9584961 C153.974368,70.471194 154.249023,71.1694292 154.249023,72.0532227 C154.249023,72.551272 154.093996,73.0957002 153.783936,73.6865234 C153.473875,74.2773467 152.928227,75.014644 152.146973,75.8984375 L149.17334,79.2602539 L154.776367,79.2602539 L154.776367,80 Z M164.840332,75.5541992 C164.840332,77.058113 164.564456,78.199459 164.012695,78.9782715 C163.460935,79.757084 162.647955,80.1464844 161.57373,80.1464844 C160.519038,80.1464844 159.71094,79.7644081 159.149414,79.0002441 C158.587888,78.2360802 158.299805,77.1240307 158.285156,75.6640625 L158.285156,73.7524414 C158.285156,72.2534105 158.563474,71.1181679 159.120117,70.3466797 C159.676761,69.5751915 160.489741,69.1894531 161.559082,69.1894531 C162.613775,69.1894531 163.419431,69.5617639 163.976074,70.3063965 C164.532718,71.0510291 164.820801,72.1484302 164.840332,73.5986328 L164.840332,75.5541992 Z M163.961426,73.6425781 C163.961426,72.4218689 163.762453,71.4990266 163.364502,70.8740234 C162.966551,70.2490203 162.36475,69.9365234 161.559082,69.9365234 C160.768062,69.9365234 160.172365,70.2416962 159.771973,70.8520508 C159.37158,71.4624054 159.166504,72.3632753 159.156738,73.5546875 L159.156738,75.6494141 C159.156738,76.8652405 159.363035,77.7954069 159.775635,78.4399414 C160.188234,79.0844759 160.787594,79.4067383 161.57373,79.4067383 C162.354984,79.4067383 162.947019,79.0918 163.349854,78.4619141 C163.752688,77.8320281 163.956543,76.9091858 163.961426,75.6933594 L163.961426,73.6425781 Z M168.78125,79.4726562 C168.78125,79.301757 168.836181,79.1564947 168.946045,79.0368652 C169.055909,78.9172357 169.208495,78.8574219 169.403809,78.8574219 C169.599122,78.8574219 169.752929,78.9172357 169.865234,79.0368652 C169.97754,79.1564947 170.033691,79.301757 170.033691,79.4726562 C170.033691,79.6435555 169.97754,79.783935 169.865234,79.8937988 C169.752929,80.0036627 169.599122,80.0585938 169.403809,80.0585938 C169.208495,80.0585938 169.055909,80.0036627 168.946045,79.8937988 C168.836181,79.783935 168.78125,79.6435555 168.78125,79.4726562 Z" id="9,943-feet-above-the"></path>
            </g>
        </g>
    </g>
</svg>