<?xml version="1.0" encoding="UTF-8"?>
<svg width="248px" height="66px" viewBox="0 0 248 66" version="1.1" xmlns="http://www.w3.org/2000/svg" xmlns:xlink="http://www.w3.org/1999/xlink">
    <!-- Generator: Sketch 41.2 (35397) - http://www.bohemiancoding.com/sketch -->
    <title>Group 12</title>
    <desc>Created with Sketch.</desc>
    <defs></defs>
    <g id="Page-1" stroke="none" stroke-width="1" fill="none" fill-rule="evenodd">
        <g id="Desktop-HD-Copy" transform="translate(-1110.000000, -605.000000)" fill="#000000">
            <g id="Group-12" transform="translate(1110.000000, 605.000000)">
                <path d="M0.083984375,11 L0.083984375,0.3359375 L3.23339844,0.3359375 C4.17578596,0.3359375 5.01195924,0.545896338 5.74194336,0.965820312 C6.47192748,1.38574429 7.03710737,1.98144146 7.4375,2.75292969 C7.83789263,3.52441792 8.03808594,4.40819814 8.03808594,5.40429688 L8.03808594,5.93896484 C8.03808594,6.94971208 7.83667194,7.83837507 7.43383789,8.60498047 C7.03100385,9.37158586 6.45727911,9.96240027 5.71264648,10.3774414 C4.96801385,10.7924825 4.1147509,11 3.15283203,11 L0.083984375,11 Z M1.93701172,1.83007812 L1.93701172,9.52050781 L3.14550781,9.52050781 C4.11719236,9.52050781 4.86303451,9.21655577 5.38305664,8.60864258 C5.90307877,8.00072938 6.1679687,7.12793538 6.17773438,5.99023438 L6.17773438,5.39697266 C6.17773438,4.23974031 5.92627205,3.35596008 5.42333984,2.74560547 C4.92040764,2.13525085 4.19043447,1.83007812 3.23339844,1.83007812 L1.93701172,1.83007812 Z M18.1166992,6.23925781 L13.7368164,6.23925781 L13.7368164,9.52050781 L18.8564453,9.52050781 L18.8564453,11 L11.8837891,11 L11.8837891,0.3359375 L18.8051758,0.3359375 L18.8051758,1.83007812 L13.7368164,1.83007812 L13.7368164,4.77441406 L18.1166992,4.77441406 L18.1166992,6.23925781 Z M28.3344727,8.51708984 L24.2036133,8.51708984 L23.3393555,11 L21.4130859,11 L25.4414062,0.3359375 L27.1040039,0.3359375 L31.1396484,11 L29.2060547,11 L28.3344727,8.51708984 Z M24.7236328,7.02294922 L27.8144531,7.02294922 L26.269043,2.59912109 L24.7236328,7.02294922 Z M41.1743164,1.83007812 L37.8491211,1.83007812 L37.8491211,11 L36.0107422,11 L36.0107422,1.83007812 L32.7148438,1.83007812 L32.7148438,0.3359375 L41.1743164,0.3359375 L41.1743164,1.83007812 Z M53.0400391,11 L51.1943359,11 L51.1943359,6.26123047 L46.4262695,6.26123047 L46.4262695,11 L44.5732422,11 L44.5732422,0.3359375 L46.4262695,0.3359375 L46.4262695,4.77441406 L51.1943359,4.77441406 L51.1943359,0.3359375 L53.0400391,0.3359375 L53.0400391,11 Z M66.7226562,8.67822266 L69.4326172,0.3359375 L71.46875,0.3359375 L67.6308594,11 L65.8364258,11 L62.0131836,0.3359375 L64.0419922,0.3359375 L66.7226562,8.67822266 Z M80.0898438,8.51708984 L75.9589844,8.51708984 L75.0947266,11 L73.168457,11 L77.1967773,0.3359375 L78.859375,0.3359375 L82.8950195,11 L80.9614258,11 L80.0898438,8.51708984 Z M76.4790039,7.02294922 L79.5698242,7.02294922 L78.0244141,2.59912109 L76.4790039,7.02294922 Z M87.956543,9.52050781 L92.7978516,9.52050781 L92.7978516,11 L86.1035156,11 L86.1035156,0.3359375 L87.956543,0.3359375 L87.956543,9.52050781 Z M98.0717773,9.52050781 L102.913086,9.52050781 L102.913086,11 L96.21875,11 L96.21875,0.3359375 L98.0717773,0.3359375 L98.0717773,9.52050781 Z M112.566895,6.23925781 L108.187012,6.23925781 L108.187012,9.52050781 L113.306641,9.52050781 L113.306641,11 L106.333984,11 L106.333984,0.3359375 L113.255371,0.3359375 L113.255371,1.83007812 L108.187012,1.83007812 L108.187012,4.77441406 L112.566895,4.77441406 L112.566895,6.23925781 Z M120.294434,5.38964844 L122.748047,0.3359375 L124.798828,0.3359375 L121.224609,7.07421875 L121.224609,11 L119.364258,11 L119.364258,7.07421875 L115.782715,0.3359375 L117.84082,0.3359375 L120.294434,5.38964844 Z" id="DEATH-VALLEY"></path>
                <path d="M6.23632812,38.8876953 L1.24853516,38.8876953 L1.24853516,43.2382812 L6.98339844,43.2382812 L6.98339844,44 L0.34765625,44 L0.34765625,33.3359375 L6.94677734,33.3359375 L6.94677734,34.1049805 L1.24853516,34.1049805 L1.24853516,38.1259766 L6.23632812,38.1259766 L6.23632812,38.8876953 Z M13.1655273,39.2905273 L15.3041992,36.0751953 L16.3442383,36.0751953 L13.65625,39.9643555 L16.4614258,44 L15.4287109,44 L13.1728516,40.6455078 L10.9169922,44 L9.88427734,44 L12.6821289,39.9643555 L9.99414062,36.0751953 L11.0268555,36.0751953 L13.1655273,39.2905273 Z M21.3325195,34.0463867 L21.3325195,36.0751953 L22.9731445,36.0751953 L22.9731445,36.7929688 L21.3325195,36.7929688 L21.3325195,42.0737305 C21.3325195,42.5131858 21.4118644,42.840331 21.5705566,43.0551758 C21.7292488,43.2700206 21.9941388,43.3774414 22.3652344,43.3774414 C22.5117195,43.3774414 22.7485335,43.3530276 23.0756836,43.3041992 L23.1123047,44.0219727 C22.8828114,44.1049809 22.5703145,44.1464844 22.1748047,44.1464844 C21.5742157,44.1464844 21.1372084,43.9719256 20.8637695,43.6228027 C20.5903307,43.2736799 20.4536133,42.759769 20.4536133,42.0810547 L20.4536133,36.7929688 L18.9960938,36.7929688 L18.9960938,36.0751953 L20.4536133,36.0751953 L20.4536133,34.0463867 L21.3325195,34.0463867 Z M30.4516602,36.8222656 C30.2661124,36.7880858 30.0683604,36.7709961 29.8583984,36.7709961 C29.3115207,36.7709961 28.8488788,36.9235825 28.470459,37.2287598 C28.0920391,37.5339371 27.8222664,37.9770479 27.6611328,38.5581055 L27.6611328,44 L26.7895508,44 L26.7895508,36.0751953 L27.6464844,36.0751953 L27.6611328,37.3349609 C28.1250023,36.3974563 28.8696238,35.9287109 29.8950195,35.9287109 C30.1391614,35.9287109 30.3320305,35.9604489 30.4736328,36.0239258 L30.4516602,36.8222656 Z M36.765625,44.1464844 C36.0917935,44.1464844 35.4826687,43.9804704 34.9382324,43.6484375 C34.3937961,43.3164046 33.9702164,42.8537627 33.6674805,42.260498 C33.3647446,41.6672334 33.2133789,41.0019568 33.2133789,40.2646484 L33.2133789,39.949707 C33.2133789,39.1879845 33.3610825,38.5019562 33.6564941,37.8916016 C33.9519058,37.2812469 34.3632786,36.8015154 34.890625,36.4523926 C35.4179714,36.1032697 35.9892547,35.9287109 36.6044922,35.9287109 C37.5664111,35.9287109 38.3293429,36.2570768 38.8933105,36.9138184 C39.4572782,37.5705599 39.7392578,38.4677677 39.7392578,39.6054688 L39.7392578,40.0961914 L34.0849609,40.0961914 L34.0849609,40.2646484 C34.0849609,41.1630904 34.3425267,41.911374 34.857666,42.5095215 C35.3728053,43.107669 36.0209922,43.4067383 36.8022461,43.4067383 C37.2709984,43.4067383 37.6848127,43.3212899 38.0437012,43.1503906 C38.4025897,42.9794913 38.7285142,42.7060566 39.0214844,42.3300781 L39.5708008,42.7475586 C38.9262663,43.6801804 37.9912171,44.1464844 36.765625,44.1464844 Z M36.6044922,36.6757812 C35.9453092,36.6757812 35.3898948,36.9174781 34.9382324,37.4008789 C34.48657,37.8842798 34.2119146,38.5336873 34.1142578,39.3491211 L38.8676758,39.3491211 L38.8676758,39.2539062 C38.8432616,38.4921837 38.6259786,37.8720727 38.2158203,37.3935547 C37.805662,36.9150367 37.268558,36.6757812 36.6044922,36.6757812 Z M44.2441406,36.0751953 L44.2734375,37.3642578 C44.5664077,36.8857398 44.932615,36.5268567 45.3720703,36.2875977 C45.8115256,36.0483386 46.299802,35.9287109 46.8369141,35.9287109 C48.0869203,35.9287109 48.8803694,36.4414011 49.2172852,37.4667969 C49.5004897,36.9736303 49.8789039,36.5939955 50.3525391,36.3278809 C50.8261742,36.0617662 51.34863,35.9287109 51.9199219,35.9287109 C53.6191491,35.9287109 54.4858397,36.856436 54.5200195,38.7119141 L54.5200195,44 L53.6411133,44 L53.6411133,38.777832 C53.6362304,38.0698207 53.4836441,37.5449236 53.1833496,37.203125 C52.8830551,36.8613264 52.3935581,36.6904297 51.7148438,36.6904297 C51.0849578,36.7001954 50.5527365,36.9040507 50.1181641,37.302002 C49.6835916,37.6999532 49.4418948,38.1845675 49.3930664,38.7558594 L49.3930664,44 L48.5141602,44 L48.5141602,38.7119141 C48.5092773,38.0331997 48.3493668,37.526613 48.0344238,37.1921387 C47.7194808,36.8576643 47.2348666,36.6904297 46.5805664,36.6904297 C46.0288058,36.6904297 45.5551778,36.8478988 45.159668,37.1628418 C44.7641582,37.4777848 44.4711924,37.9453094 44.2807617,38.5654297 L44.2807617,44 L43.4018555,44 L43.4018555,36.0751953 L44.2441406,36.0751953 Z M61.8081055,44.1464844 C61.134274,44.1464844 60.5251492,43.9804704 59.9807129,43.6484375 C59.4362766,43.3164046 59.0126968,42.8537627 58.7099609,42.260498 C58.407225,41.6672334 58.2558594,41.0019568 58.2558594,40.2646484 L58.2558594,39.949707 C58.2558594,39.1879845 58.403563,38.5019562 58.6989746,37.8916016 C58.9943862,37.2812469 59.4057591,36.8015154 59.9331055,36.4523926 C60.4604519,36.1032697 61.0317352,35.9287109 61.6469727,35.9287109 C62.6088915,35.9287109 63.3718234,36.2570768 63.935791,36.9138184 C64.4997587,37.5705599 64.7817383,38.4677677 64.7817383,39.6054688 L64.7817383,40.0961914 L59.1274414,40.0961914 L59.1274414,40.2646484 C59.1274414,41.1630904 59.3850072,41.911374 59.9001465,42.5095215 C60.4152858,43.107669 61.0634727,43.4067383 61.8447266,43.4067383 C62.3134789,43.4067383 62.7272931,43.3212899 63.0861816,43.1503906 C63.4450702,42.9794913 63.7709946,42.7060566 64.0639648,42.3300781 L64.6132812,42.7475586 C63.9687468,43.6801804 63.0336975,44.1464844 61.8081055,44.1464844 Z M61.6469727,36.6757812 C60.9877897,36.6757812 60.4323753,36.9174781 59.9807129,37.4008789 C59.5290505,37.8842798 59.254395,38.5336873 59.1567383,39.3491211 L63.9101562,39.3491211 L63.9101562,39.2539062 C63.8857421,38.4921837 63.6684591,37.8720727 63.2583008,37.3935547 C62.8481425,36.9150367 62.3110385,36.6757812 61.6469727,36.6757812 Z M75.0073242,37.4155273 C75.2954116,36.9418922 75.6640603,36.5756849 76.1132812,36.3168945 C76.5625022,36.0581042 77.05322,35.9287109 77.5854492,35.9287109 C78.4350628,35.9287109 79.0673807,36.1679664 79.4824219,36.6464844 C79.897463,37.1250024 80.1074219,37.8427687 80.1123047,38.7998047 L80.1123047,44 L79.2407227,44 L79.2407227,38.7924805 C79.2358398,38.0844691 79.0856948,37.5571306 78.7902832,37.2104492 C78.4948716,36.8637678 78.0224642,36.6904297 77.3730469,36.6904297 C76.831052,36.6904297 76.3513204,36.8601057 75.9338379,37.1994629 C75.5163553,37.5388201 75.2075205,37.9965792 75.0073242,38.5727539 L75.0073242,44 L74.1357422,44 L74.1357422,32.75 L75.0073242,32.75 L75.0073242,37.4155273 Z M83.8847656,39.9204102 C83.8847656,39.1586876 84.0324692,38.4726593 84.3278809,37.8623047 C84.6232925,37.2519501 85.0407688,36.7771013 85.5803223,36.4377441 C86.1198757,36.098387 86.7314419,35.9287109 87.4150391,35.9287109 C88.4697318,35.9287109 89.3242155,36.2985803 89.9785156,37.0383301 C90.6328158,37.7780799 90.9599609,38.7582947 90.9599609,39.9790039 L90.9599609,40.1621094 C90.9599609,40.9287148 90.8122573,41.6184051 90.5168457,42.2312012 C90.2214341,42.8439972 89.8051785,43.3164046 89.2680664,43.6484375 C88.7309543,43.9804704 88.1181675,44.1464844 87.4296875,44.1464844 C86.3798776,44.1464844 85.5266146,43.776615 84.869873,43.0368652 C84.2131315,42.2971154 83.8847656,41.3169006 83.8847656,40.0961914 L83.8847656,39.9204102 Z M84.7636719,40.1621094 C84.7636719,41.1093797 85.0090307,41.8869599 85.4997559,42.494873 C85.990481,43.1027862 86.6337851,43.4067383 87.4296875,43.4067383 C88.2207071,43.4067383 88.8615698,43.1027862 89.3522949,42.494873 C89.84302,41.8869599 90.0883789,41.0849659 90.0883789,40.0888672 L90.0883789,39.9204102 C90.0883789,39.3149384 89.9760753,38.7607447 89.7514648,38.2578125 C89.5268543,37.7548803 89.2119161,37.3654799 88.8066406,37.0895996 C88.4013652,36.8137193 87.9375026,36.6757812 87.4150391,36.6757812 C86.6337852,36.6757812 85.9965845,36.9821747 85.503418,37.5949707 C85.0102514,38.2077667 84.7636719,39.0097607 84.7636719,40.0009766 L84.7636719,40.1621094 Z M96.1313477,34.0463867 L96.1313477,36.0751953 L97.7719727,36.0751953 L97.7719727,36.7929688 L96.1313477,36.7929688 L96.1313477,42.0737305 C96.1313477,42.5131858 96.2106926,42.840331 96.3693848,43.0551758 C96.528077,43.2700206 96.7929669,43.3774414 97.1640625,43.3774414 C97.3105476,43.3774414 97.5473616,43.3530276 97.8745117,43.3041992 L97.9111328,44.0219727 C97.6816395,44.1049809 97.3691426,44.1464844 96.9736328,44.1464844 C96.3730439,44.1464844 95.9360365,43.9719256 95.6625977,43.6228027 C95.3891588,43.2736799 95.2524414,42.759769 95.2524414,42.0810547 L95.2524414,36.7929688 L93.7949219,36.7929688 L93.7949219,36.0751953 L95.2524414,36.0751953 L95.2524414,34.0463867 L96.1313477,34.0463867 Z M106.884277,39.9643555 C106.884277,38.7338806 107.158933,37.7536658 107.708252,37.0236816 C108.257571,36.2936975 109.003413,35.9287109 109.945801,35.9287109 C111.015142,35.9287109 111.830564,36.35107 112.39209,37.1958008 L112.39209,32.75 L113.263672,32.75 L113.263672,44 L112.443359,44 L112.406738,42.9453125 C111.845212,43.7460978 111.020025,44.1464844 109.931152,44.1464844 C109.018062,44.1464844 108.281985,43.7790564 107.7229,43.0441895 C107.163816,42.3093225 106.884277,41.3169008 106.884277,40.0668945 L106.884277,39.9643555 Z M107.770508,40.1181641 C107.770508,41.1289113 107.973143,41.9260225 108.378418,42.5095215 C108.783693,43.0930205 109.354977,43.3847656 110.092285,43.3847656 C111.171392,43.3847656 111.937986,42.9086962 112.39209,41.956543 L112.39209,38.2358398 C111.937986,37.2055613 111.176275,36.6904297 110.106934,36.6904297 C109.369625,36.6904297 108.7959,36.9797334 108.385742,37.5583496 C107.975584,38.1369658 107.770508,38.9902287 107.770508,40.1181641 Z M122.573242,44 C122.485351,43.7509753 122.429199,43.3823267 122.404785,42.894043 C122.097166,43.2944356 121.705325,43.6032704 121.229248,43.8205566 C120.753171,44.0378429 120.249026,44.1464844 119.716797,44.1464844 C118.955074,44.1464844 118.338625,43.9340842 117.867432,43.5092773 C117.396238,43.0844705 117.160645,42.5473665 117.160645,41.8979492 C117.160645,41.126461 117.481686,40.5161155 118.123779,40.0668945 C118.765872,39.6176735 119.660639,39.3930664 120.808105,39.3930664 L122.397461,39.3930664 L122.397461,38.4921875 C122.397461,37.9257784 122.222902,37.4802262 121.873779,37.1555176 C121.524656,36.8308089 121.015628,36.668457 120.34668,36.668457 C119.736325,36.668457 119.230959,36.8247055 118.830566,37.137207 C118.430174,37.4497086 118.22998,37.8256814 118.22998,38.2651367 L117.351074,38.2578125 C117.351074,37.6279265 117.64404,37.0822777 118.22998,36.6208496 C118.815921,36.1594215 119.536129,35.9287109 120.390625,35.9287109 C121.274418,35.9287109 121.971433,36.149656 122.481689,36.5915527 C122.991946,37.0334495 123.254394,37.6498984 123.269043,38.440918 L123.269043,42.190918 C123.269043,42.9575234 123.349609,43.5312481 123.510742,43.9121094 L123.510742,44 L122.573242,44 Z M119.819336,43.3701172 C120.405276,43.3701172 120.928953,43.228517 121.390381,42.9453125 C121.851809,42.662108 122.187499,42.2836938 122.397461,41.8100586 L122.397461,40.0668945 L120.830078,40.0668945 C119.95605,40.0766602 119.272463,40.2365707 118.779297,40.5466309 C118.28613,40.856691 118.039551,41.2827121 118.039551,41.824707 C118.039551,42.2690452 118.204344,42.6376938 118.533936,42.9306641 C118.863527,43.2236343 119.29199,43.3701172 119.819336,43.3701172 Z M130.007812,42.7402344 L132.322266,36.0751953 L133.26709,36.0751953 L129.883301,45.3476562 L129.70752,45.7578125 C129.272947,46.7197314 128.601567,47.2006836 127.693359,47.2006836 C127.483397,47.2006836 127.25879,47.1665042 127.019531,47.0981445 L127.012207,46.3730469 L127.466309,46.4169922 C127.895998,46.4169922 128.243895,46.3107921 128.51001,46.0983887 C128.776124,45.8859853 129.001952,45.5209987 129.1875,45.003418 L129.575684,43.934082 L126.587402,36.0751953 L127.546875,36.0751953 L130.007812,42.7402344 Z M141.368164,41.9858398 C141.368164,41.5512674 141.193605,41.2021498 140.844482,40.9384766 C140.49536,40.6748034 139.969242,40.4685066 139.266113,40.3195801 C138.562985,40.1706536 138.017336,39.9997568 137.62915,39.8068848 C137.240965,39.6140127 136.952882,39.3784194 136.764893,39.1000977 C136.576903,38.821776 136.48291,38.4848653 136.48291,38.0893555 C136.48291,37.4643523 136.744138,36.9480001 137.266602,36.5402832 C137.789065,36.1325663 138.458004,35.9287109 139.273438,35.9287109 C140.157231,35.9287109 140.866452,36.1472146 141.401123,36.5842285 C141.935794,37.0212424 142.203125,37.5913051 142.203125,38.2944336 L141.324219,38.2944336 C141.324219,37.8305641 141.130129,37.4448258 140.741943,37.137207 C140.353758,36.8295883 139.864261,36.6757812 139.273438,36.6757812 C138.697263,36.6757812 138.234621,36.8039538 137.885498,37.0603027 C137.536375,37.3166517 137.361816,37.6499003 137.361816,38.0600586 C137.361816,38.4555684 137.507079,38.7619618 137.797607,38.979248 C138.088136,39.1965343 138.617916,39.3955069 139.386963,39.5761719 C140.15601,39.7568368 140.732176,39.949706 141.115479,40.1547852 C141.498781,40.3598643 141.783202,40.6064439 141.96875,40.8945312 C142.154298,41.1826186 142.24707,41.5317362 142.24707,41.9418945 C142.24707,42.6108432 141.977298,43.1455058 141.437744,43.5458984 C140.898191,43.9462911 140.193852,44.1464844 139.324707,44.1464844 C138.401851,44.1464844 137.653567,43.9230979 137.079834,43.4763184 C136.506101,43.0295388 136.219238,42.4643589 136.219238,41.7807617 L137.098145,41.7807617 C137.132324,42.2934596 137.348387,42.6926255 137.746338,42.9782715 C138.144289,43.2639174 138.670407,43.4067383 139.324707,43.4067383 C139.935062,43.4067383 140.428221,43.2724623 140.804199,43.0039062 C141.180178,42.7353502 141.368164,42.3959981 141.368164,41.9858398 Z M146.136719,43.4726562 C146.136719,43.301757 146.19165,43.1564947 146.301514,43.0368652 C146.411378,42.9172357 146.563964,42.8574219 146.759277,42.8574219 C146.954591,42.8574219 147.108398,42.9172357 147.220703,43.0368652 C147.333008,43.1564947 147.38916,43.301757 147.38916,43.4726562 C147.38916,43.6435555 147.333008,43.783935 147.220703,43.8937988 C147.108398,44.0036627 146.954591,44.0585938 146.759277,44.0585938 C146.563964,44.0585938 146.411378,44.0036627 146.301514,43.8937988 C146.19165,43.783935 146.136719,43.6435555 146.136719,43.4726562 Z M157.651367,44 L157.651367,33.3359375 L160.632324,33.3359375 C161.506352,33.3359375 162.290036,33.5349101 162.983398,33.9328613 C163.676761,34.3308125 164.217527,34.9008752 164.605713,35.6430664 C164.993898,36.3852576 165.187988,37.2299757 165.187988,38.1772461 L165.187988,39.1586914 C165.187988,40.1108446 164.995119,40.9555627 164.609375,41.6928711 C164.223631,42.4301795 163.680423,42.9990214 162.979736,43.3994141 C162.279049,43.7998067 161.474614,44 160.566406,44 L157.651367,44 Z M158.552246,34.1049805 L158.552246,43.2382812 L160.57373,43.2382812 C161.696783,43.2382812 162.597653,42.8659705 163.276367,42.1213379 C163.955082,41.3767053 164.294434,40.3696353 164.294434,39.1000977 L164.294434,38.1625977 C164.294434,36.9370056 163.959964,35.9555701 163.291016,35.2182617 C162.622067,34.4809533 161.740728,34.1098633 160.646973,34.1049805 L158.552246,34.1049805 Z M172.336914,44.1464844 C171.663083,44.1464844 171.053958,43.9804704 170.509521,43.6484375 C169.965085,43.3164046 169.541505,42.8537627 169.23877,42.260498 C168.936034,41.6672334 168.784668,41.0019568 168.784668,40.2646484 L168.784668,39.949707 C168.784668,39.1879845 168.932372,38.5019562 169.227783,37.8916016 C169.523195,37.2812469 169.934568,36.8015154 170.461914,36.4523926 C170.98926,36.1032697 171.560544,35.9287109 172.175781,35.9287109 C173.1377,35.9287109 173.900632,36.2570768 174.4646,36.9138184 C175.028567,37.5705599 175.310547,38.4677677 175.310547,39.6054688 L175.310547,40.0961914 L169.65625,40.0961914 L169.65625,40.2646484 C169.65625,41.1630904 169.913816,41.911374 170.428955,42.5095215 C170.944094,43.107669 171.592281,43.4067383 172.373535,43.4067383 C172.842288,43.4067383 173.256102,43.3212899 173.61499,43.1503906 C173.973879,42.9794913 174.299803,42.7060566 174.592773,42.3300781 L175.14209,42.7475586 C174.497555,43.6801804 173.562506,44.1464844 172.336914,44.1464844 Z M172.175781,36.6757812 C171.516598,36.6757812 170.961184,36.9174781 170.509521,37.4008789 C170.057859,37.8842798 169.783204,38.5336873 169.685547,39.3491211 L174.438965,39.3491211 L174.438965,39.2539062 C174.414551,38.4921837 174.197268,37.8720727 173.787109,37.3935547 C173.376951,36.9150367 172.839847,36.6757812 172.175781,36.6757812 Z M179.544434,44 L179.544434,36.7929688 L178.226074,36.7929688 L178.226074,36.0751953 L179.544434,36.0751953 L179.544434,35.262207 C179.544434,34.4174762 179.773923,33.7619652 180.23291,33.2956543 C180.691897,32.8293434 181.338863,32.5961914 182.173828,32.5961914 C182.828128,32.5961914 183.50195,32.7402329 184.195312,33.0283203 L184.048828,33.7827148 C183.453122,33.5239245 182.847659,33.3945312 182.232422,33.3945312 C181.026361,33.3945312 180.42334,34.0219664 180.42334,35.2768555 L180.42334,36.0751953 L182.276367,36.0751953 L182.276367,36.7929688 L180.42334,36.7929688 L180.42334,44 L179.544434,44 Z M184.671387,44 L183.79248,44 L183.79248,36.0751953 L184.671387,36.0751953 L184.671387,44 Z M189.908691,36.0751953 L189.937988,37.4301758 C190.235841,36.9418921 190.606931,36.5695814 191.05127,36.3132324 C191.495608,36.0568835 191.986325,35.9287109 192.523438,35.9287109 C193.373051,35.9287109 194.005369,36.1679664 194.42041,36.6464844 C194.835451,37.1250024 195.04541,37.8427687 195.050293,38.7998047 L195.050293,44 L194.178711,44 L194.178711,38.7924805 C194.173828,38.0844691 194.023683,37.5571306 193.728271,37.2104492 C193.43286,36.8637678 192.960452,36.6904297 192.311035,36.6904297 C191.76904,36.6904297 191.289309,36.8601057 190.871826,37.1994629 C190.454344,37.5388201 190.145509,37.9965792 189.945312,38.5727539 L189.945312,44 L189.07373,44 L189.07373,36.0751953 L189.908691,36.0751953 Z M200.294922,44 L199.416016,44 L199.416016,36.0751953 L200.294922,36.0751953 L200.294922,44 Z M199.262207,33.7827148 C199.262207,33.6166984 199.315917,33.4763189 199.42334,33.3615723 C199.530762,33.2468256 199.677245,33.1894531 199.862793,33.1894531 C200.048341,33.1894531 200.196044,33.2468256 200.305908,33.3615723 C200.415772,33.4763189 200.470703,33.6166984 200.470703,33.7827148 C200.470703,33.9487313 200.415772,34.0878901 200.305908,34.2001953 C200.196044,34.3125006 200.048341,34.3686523 199.862793,34.3686523 C199.677245,34.3686523 199.530762,34.3125006 199.42334,34.2001953 C199.315917,34.0878901 199.262207,33.9487313 199.262207,33.7827148 Z M206.037598,34.0463867 L206.037598,36.0751953 L207.678223,36.0751953 L207.678223,36.7929688 L206.037598,36.7929688 L206.037598,42.0737305 C206.037598,42.5131858 206.116943,42.840331 206.275635,43.0551758 C206.434327,43.2700206 206.699217,43.3774414 207.070312,43.3774414 C207.216798,43.3774414 207.453612,43.3530276 207.780762,43.3041992 L207.817383,44.0219727 C207.587889,44.1049809 207.275393,44.1464844 206.879883,44.1464844 C206.279294,44.1464844 205.842287,43.9719256 205.568848,43.6228027 C205.295409,43.2736799 205.158691,42.759769 205.158691,42.0810547 L205.158691,36.7929688 L203.701172,36.7929688 L203.701172,36.0751953 L205.158691,36.0751953 L205.158691,34.0463867 L206.037598,34.0463867 Z M214.563477,44.1464844 C213.889645,44.1464844 213.28052,43.9804704 212.736084,43.6484375 C212.191648,43.3164046 211.768068,42.8537627 211.465332,42.260498 C211.162596,41.6672334 211.01123,41.0019568 211.01123,40.2646484 L211.01123,39.949707 C211.01123,39.1879845 211.158934,38.5019562 211.454346,37.8916016 C211.749757,37.2812469 212.16113,36.8015154 212.688477,36.4523926 C213.215823,36.1032697 213.787106,35.9287109 214.402344,35.9287109 C215.364263,35.9287109 216.127194,36.2570768 216.691162,36.9138184 C217.25513,37.5705599 217.537109,38.4677677 217.537109,39.6054688 L217.537109,40.0961914 L211.882812,40.0961914 L211.882812,40.2646484 C211.882812,41.1630904 212.140378,41.911374 212.655518,42.5095215 C213.170657,43.107669 213.818844,43.4067383 214.600098,43.4067383 C215.06885,43.4067383 215.482664,43.3212899 215.841553,43.1503906 C216.200441,42.9794913 216.526366,42.7060566 216.819336,42.3300781 L217.368652,42.7475586 C216.724118,43.6801804 215.789069,44.1464844 214.563477,44.1464844 Z M214.402344,36.6757812 C213.743161,36.6757812 213.187746,36.9174781 212.736084,37.4008789 C212.284422,37.8842798 212.009766,38.5336873 211.912109,39.3491211 L216.665527,39.3491211 L216.665527,39.2539062 C216.641113,38.4921837 216.42383,37.8720727 216.013672,37.3935547 C215.603514,36.9150367 215.06641,36.6757812 214.402344,36.6757812 Z M222.225098,44 L221.346191,44 L221.346191,32.75 L222.225098,32.75 L222.225098,44 Z M229.117676,42.7402344 L231.432129,36.0751953 L232.376953,36.0751953 L228.993164,45.3476562 L228.817383,45.7578125 C228.38281,46.7197314 227.71143,47.2006836 226.803223,47.2006836 C226.593261,47.2006836 226.368654,47.1665042 226.129395,47.0981445 L226.12207,46.3730469 L226.576172,46.4169922 C227.005862,46.4169922 227.353758,46.3107921 227.619873,46.0983887 C227.885988,45.8859853 228.111815,45.5209987 228.297363,45.003418 L228.685547,43.934082 L225.697266,36.0751953 L226.656738,36.0751953 L229.117676,42.7402344 Z M246.381836,44 C246.293945,43.7509753 246.237793,43.3823267 246.213379,42.894043 C245.90576,43.2944356 245.513918,43.6032704 245.037842,43.8205566 C244.561765,44.0378429 244.05762,44.1464844 243.525391,44.1464844 C242.763668,44.1464844 242.147219,43.9340842 241.676025,43.5092773 C241.204832,43.0844705 240.969238,42.5473665 240.969238,41.8979492 C240.969238,41.126461 241.29028,40.5161155 241.932373,40.0668945 C242.574466,39.6176735 243.469233,39.3930664 244.616699,39.3930664 L246.206055,39.3930664 L246.206055,38.4921875 C246.206055,37.9257784 246.031496,37.4802262 245.682373,37.1555176 C245.33325,36.8308089 244.824222,36.668457 244.155273,36.668457 C243.544919,36.668457 243.039553,36.8247055 242.63916,37.137207 C242.238768,37.4497086 242.038574,37.8256814 242.038574,38.2651367 L241.159668,38.2578125 C241.159668,37.6279265 241.452634,37.0822777 242.038574,36.6208496 C242.624515,36.1594215 243.344722,35.9287109 244.199219,35.9287109 C245.083012,35.9287109 245.780027,36.149656 246.290283,36.5915527 C246.80054,37.0334495 247.062988,37.6498984 247.077637,38.440918 L247.077637,42.190918 C247.077637,42.9575234 247.158202,43.5312481 247.319336,43.9121094 L247.319336,44 L246.381836,44 Z M243.62793,43.3701172 C244.21387,43.3701172 244.737547,43.228517 245.198975,42.9453125 C245.660403,42.662108 245.996093,42.2836938 246.206055,41.8100586 L246.206055,40.0668945 L244.638672,40.0668945 C243.764644,40.0766602 243.081057,40.2365707 242.587891,40.5466309 C242.094724,40.856691 241.848145,41.2827121 241.848145,41.824707 C241.848145,42.2690452 242.012938,42.6376938 242.342529,42.9306641 C242.672121,43.2236343 243.100583,43.3701172 243.62793,43.3701172 Z M6.51464844,58.1181641 C6.51464844,59.3535218 6.24121367,60.3337366 5.69433594,61.0588379 C5.1474582,61.7839392 4.41504365,62.1464844 3.49707031,62.1464844 C2.41308052,62.1464844 1.58301069,61.7656288 1.00683594,61.0039062 L1.00683594,65.046875 L0.135253906,65.046875 L0.135253906,54.0751953 L0.948242188,54.0751953 L0.9921875,55.1958008 C1.56347942,54.35107 2.39110786,53.9287109 3.47509766,53.9287109 C4.42236802,53.9287109 5.16576879,54.2875941 5.70532227,55.0053711 C6.24487574,55.7231481 6.51464844,56.7192319 6.51464844,57.9936523 L6.51464844,58.1181641 Z M5.63574219,57.9643555 C5.63574219,56.9536082 5.42822473,56.1552764 5.01318359,55.5693359 C4.59814246,54.9833955 4.01953496,54.6904297 3.27734375,54.6904297 C2.74023169,54.6904297 2.27881052,54.8198229 1.89306641,55.0786133 C1.50732229,55.3374036 1.21191509,55.7133764 1.00683594,56.206543 L1.00683594,60.0078125 C1.21679792,60.4619163 1.51708789,60.8085926 1.90771484,61.0478516 C2.2983418,61.2871106 2.75976296,61.4067383 3.29199219,61.4067383 C4.02930056,61.4067383 4.60424598,61.1125518 5.0168457,60.5241699 C5.42944542,59.9357881 5.63574219,59.0825251 5.63574219,57.9643555 Z M9.97216797,57.9204102 C9.97216797,57.1586876 10.1198716,56.4726593 10.4152832,55.8623047 C10.7106948,55.2519501 11.1281711,54.7771013 11.6677246,54.4377441 C12.2072781,54.098387 12.8188442,53.9287109 13.5024414,53.9287109 C14.5571342,53.9287109 15.4116178,54.2985803 16.065918,55.0383301 C16.7202181,55.7780799 17.0473633,56.7582947 17.0473633,57.9790039 L17.0473633,58.1621094 C17.0473633,58.9287148 16.8996597,59.6184051 16.604248,60.2312012 C16.3088364,60.8439972 15.8925808,61.3164046 15.3554688,61.6484375 C14.8183567,61.9804704 14.2055698,62.1464844 13.5170898,62.1464844 C12.4672799,62.1464844 11.614017,61.776615 10.9572754,61.0368652 C10.3005338,60.2971154 9.97216797,59.3169006 9.97216797,58.0961914 L9.97216797,57.9204102 Z M10.8510742,58.1621094 C10.8510742,59.1093797 11.0964331,59.8869599 11.5871582,60.494873 C12.0778833,61.1027862 12.7211874,61.4067383 13.5170898,61.4067383 C14.3081094,61.4067383 14.9489722,61.1027862 15.4396973,60.494873 C15.9304224,59.8869599 16.1757812,59.0849659 16.1757812,58.0888672 L16.1757812,57.9204102 C16.1757812,57.3149384 16.0634777,56.7607447 15.8388672,56.2578125 C15.6142567,55.7548803 15.2993184,55.3654799 14.894043,55.0895996 C14.4887675,54.8137193 14.024905,54.6757812 13.5024414,54.6757812 C12.7211875,54.6757812 12.0839868,54.9821747 11.5908203,55.5949707 C11.0976538,56.2077667 10.8510742,57.0097607 10.8510742,58.0009766 L10.8510742,58.1621094 Z M22.753418,60.1762695 L22.8852539,60.8574219 L23.0610352,60.1396484 L24.965332,54.0751953 L25.7124023,54.0751953 L27.5947266,60.0883789 L27.7998047,60.9233398 L27.9682617,60.1542969 L29.5942383,54.0751953 L30.5024414,54.0751953 L28.1953125,62 L27.4482422,62 L25.4121094,55.7158203 L25.3168945,55.2836914 L25.2216797,55.7231445 L23.222168,62 L22.4750977,62 L20.175293,54.0751953 L21.0761719,54.0751953 L22.753418,60.1762695 Z M37.2338867,62.1464844 C36.5600552,62.1464844 35.9509305,61.9804704 35.4064941,61.6484375 C34.8620578,61.3164046 34.4384781,60.8537627 34.1357422,60.260498 C33.8330063,59.6672334 33.6816406,59.0019568 33.6816406,58.2646484 L33.6816406,57.949707 C33.6816406,57.1879845 33.8293442,56.5019562 34.1247559,55.8916016 C34.4201675,55.2812469 34.8315403,54.8015154 35.3588867,54.4523926 C35.8862331,54.1032697 36.4575165,53.9287109 37.0727539,53.9287109 C38.0346728,53.9287109 38.7976046,54.2570768 39.3615723,54.9138184 C39.9255399,55.5705599 40.2075195,56.4677677 40.2075195,57.6054688 L40.2075195,58.0961914 L34.5532227,58.0961914 L34.5532227,58.2646484 C34.5532227,59.1630904 34.8107884,59.911374 35.3259277,60.5095215 C35.841067,61.107669 36.4892539,61.4067383 37.2705078,61.4067383 C37.7392602,61.4067383 38.1530744,61.3212899 38.5119629,61.1503906 C38.8708514,60.9794913 39.1967759,60.7060566 39.4897461,60.3300781 L40.0390625,60.7475586 C39.394528,61.6801804 38.4594788,62.1464844 37.2338867,62.1464844 Z M37.0727539,54.6757812 C36.4135709,54.6757812 35.8581566,54.9174781 35.4064941,55.4008789 C34.9548317,55.8842798 34.6801763,56.5336873 34.5825195,57.3491211 L39.3359375,57.3491211 L39.3359375,57.2539062 C39.3115233,56.4921837 39.0942403,55.8720727 38.684082,55.3935547 C38.2739237,54.9150367 37.7368197,54.6757812 37.0727539,54.6757812 Z M47.5761719,54.8222656 C47.3906241,54.7880858 47.1928721,54.7709961 46.9829102,54.7709961 C46.4360324,54.7709961 45.9733906,54.9235825 45.5949707,55.2287598 C45.2165508,55.5339371 44.9467781,55.9770479 44.7856445,56.5581055 L44.7856445,62 L43.9140625,62 L43.9140625,54.0751953 L44.7709961,54.0751953 L44.7856445,55.3349609 C45.249514,54.3974563 45.9941355,53.9287109 47.0195312,53.9287109 C47.2636731,53.9287109 47.4565423,53.9604489 47.5981445,54.0239258 L47.5761719,54.8222656 Z M51.7001953,62 L51.7001953,54.7929688 L50.3891602,54.7929688 L50.3891602,54.0751953 L51.7001953,54.0751953 L51.7001953,53.1157227 C51.7001953,52.3051717 51.9064921,51.6826194 52.3190918,51.2480469 C52.7316915,50.8134744 53.3066369,50.5961914 54.0439453,50.5961914 C54.3759782,50.5961914 54.6860337,50.6376949 54.9741211,50.7207031 L54.9082031,51.453125 C54.6640613,51.394531 54.3979507,51.3652344 54.1098633,51.3652344 C53.6264624,51.3652344 53.2504896,51.5153794 52.9819336,51.8156738 C52.7133776,52.1159683 52.5791016,52.5419894 52.5791016,53.09375 L52.5791016,54.0751953 L54.46875,54.0751953 L54.46875,54.7929688 L52.5791016,54.7929688 L52.5791016,62 L51.7001953,62 Z M63.1337891,60.996582 C62.6064427,61.7631874 61.7641659,62.1464844 60.6069336,62.1464844 C59.7622028,62.1464844 59.1201194,61.9011255 58.6806641,61.4104004 C58.2412087,60.9196753 58.0166016,60.1933642 58.0068359,59.2314453 L58.0068359,54.0751953 L58.878418,54.0751953 L58.878418,59.121582 C58.878418,60.6303786 59.4887634,61.3847656 60.7094727,61.3847656 C61.9790103,61.3847656 62.7822249,60.8598685 63.1191406,59.8100586 L63.1191406,54.0751953 L63.9980469,54.0751953 L63.9980469,62 L63.1484375,62 L63.1337891,60.996582 Z M69.2573242,62 L68.378418,62 L68.378418,50.75 L69.2573242,50.75 L69.2573242,62 Z M82.3540039,62.1464844 C81.6801724,62.1464844 81.0710476,61.9804704 80.5266113,61.6484375 C79.982175,61.3164046 79.5585953,60.8537627 79.2558594,60.260498 C78.9531235,59.6672334 78.8017578,59.0019568 78.8017578,58.2646484 L78.8017578,57.949707 C78.8017578,57.1879845 78.9494614,56.5019562 79.244873,55.8916016 C79.5402847,55.2812469 79.9516575,54.8015154 80.4790039,54.4523926 C81.0063503,54.1032697 81.5776336,53.9287109 82.1928711,53.9287109 C83.15479,53.9287109 83.9177218,54.2570768 84.4816895,54.9138184 C85.0456571,55.5705599 85.3276367,56.4677677 85.3276367,57.6054688 L85.3276367,58.0961914 L79.6733398,58.0961914 L79.6733398,58.2646484 C79.6733398,59.1630904 79.9309056,59.911374 80.4460449,60.5095215 C80.9611842,61.107669 81.6093711,61.4067383 82.390625,61.4067383 C82.8593773,61.4067383 83.2731916,61.3212899 83.6320801,61.1503906 C83.9909686,60.9794913 84.3168931,60.7060566 84.6098633,60.3300781 L85.1591797,60.7475586 C84.5146452,61.6801804 83.579596,62.1464844 82.3540039,62.1464844 Z M82.1928711,54.6757812 C81.5336881,54.6757812 80.9782737,54.9174781 80.5266113,55.4008789 C80.0749489,55.8842798 79.8002935,56.5336873 79.7026367,57.3491211 L84.4560547,57.3491211 L84.4560547,57.2539062 C84.4316405,56.4921837 84.2143575,55.8720727 83.8041992,55.3935547 C83.3940409,54.9150367 82.8569369,54.6757812 82.1928711,54.6757812 Z M91.5244141,57.2905273 L93.6630859,54.0751953 L94.703125,54.0751953 L92.0151367,57.9643555 L94.8203125,62 L93.7875977,62 L91.5317383,58.6455078 L89.2758789,62 L88.2431641,62 L91.0410156,57.9643555 L88.3530273,54.0751953 L89.3857422,54.0751953 L91.5244141,57.2905273 Z M104.701172,58.1181641 C104.701172,59.3535218 104.427737,60.3337366 103.880859,61.0588379 C103.333982,61.7839392 102.601567,62.1464844 101.683594,62.1464844 C100.599604,62.1464844 99.7695341,61.7656288 99.1933594,61.0039062 L99.1933594,65.046875 L98.3217773,65.046875 L98.3217773,54.0751953 L99.1347656,54.0751953 L99.1787109,55.1958008 C99.7500029,54.35107 100.577631,53.9287109 101.661621,53.9287109 C102.608891,53.9287109 103.352292,54.2875941 103.891846,55.0053711 C104.431399,55.7231481 104.701172,56.7192319 104.701172,57.9936523 L104.701172,58.1181641 Z M103.822266,57.9643555 C103.822266,56.9536082 103.614748,56.1552764 103.199707,55.5693359 C102.784666,54.9833955 102.206058,54.6904297 101.463867,54.6904297 C100.926755,54.6904297 100.465334,54.8198229 100.07959,55.0786133 C99.6938457,55.3374036 99.3984385,55.7133764 99.1933594,56.206543 L99.1933594,60.0078125 C99.4033214,60.4619163 99.7036113,60.8085926 100.094238,61.0478516 C100.484865,61.2871106 100.946286,61.4067383 101.478516,61.4067383 C102.215824,61.4067383 102.790769,61.1125518 103.203369,60.5241699 C103.615969,59.9357881 103.822266,59.0825251 103.822266,57.9643555 Z M111.710938,62.1464844 C111.037106,62.1464844 110.427981,61.9804704 109.883545,61.6484375 C109.339109,61.3164046 108.915529,60.8537627 108.612793,60.260498 C108.310057,59.6672334 108.158691,59.0019568 108.158691,58.2646484 L108.158691,57.949707 C108.158691,57.1879845 108.306395,56.5019562 108.601807,55.8916016 C108.897218,55.2812469 109.308591,54.8015154 109.835938,54.4523926 C110.363284,54.1032697 110.934567,53.9287109 111.549805,53.9287109 C112.511724,53.9287109 113.274655,54.2570768 113.838623,54.9138184 C114.402591,55.5705599 114.68457,56.4677677 114.68457,57.6054688 L114.68457,58.0961914 L109.030273,58.0961914 L109.030273,58.2646484 C109.030273,59.1630904 109.287839,59.911374 109.802979,60.5095215 C110.318118,61.107669 110.966305,61.4067383 111.747559,61.4067383 C112.216311,61.4067383 112.630125,61.3212899 112.989014,61.1503906 C113.347902,60.9794913 113.673827,60.7060566 113.966797,60.3300781 L114.516113,60.7475586 C113.871579,61.6801804 112.93653,62.1464844 111.710938,62.1464844 Z M111.549805,54.6757812 C110.890622,54.6757812 110.335207,54.9174781 109.883545,55.4008789 C109.431883,55.8842798 109.157227,56.5336873 109.05957,57.3491211 L113.812988,57.3491211 L113.812988,57.2539062 C113.788574,56.4921837 113.571291,55.8720727 113.161133,55.3935547 C112.750975,54.9150367 112.213871,54.6757812 111.549805,54.6757812 Z M122.053223,54.8222656 C121.867675,54.7880858 121.669923,54.7709961 121.459961,54.7709961 C120.913083,54.7709961 120.450441,54.9235825 120.072021,55.2287598 C119.693602,55.5339371 119.423829,55.9770479 119.262695,56.5581055 L119.262695,62 L118.391113,62 L118.391113,54.0751953 L119.248047,54.0751953 L119.262695,55.3349609 C119.726565,54.3974563 120.471186,53.9287109 121.496582,53.9287109 C121.740724,53.9287109 121.933593,53.9604489 122.075195,54.0239258 L122.053223,54.8222656 Z M126.418945,62 L125.540039,62 L125.540039,54.0751953 L126.418945,54.0751953 L126.418945,62 Z M125.38623,51.7827148 C125.38623,51.6166984 125.439941,51.4763189 125.547363,51.3615723 C125.654786,51.2468256 125.801269,51.1894531 125.986816,51.1894531 C126.172364,51.1894531 126.320068,51.2468256 126.429932,51.3615723 C126.539795,51.4763189 126.594727,51.6166984 126.594727,51.7827148 C126.594727,51.9487313 126.539795,52.0878901 126.429932,52.2001953 C126.320068,52.3125006 126.172364,52.3686523 125.986816,52.3686523 C125.801269,52.3686523 125.654786,52.3125006 125.547363,52.2001953 C125.439941,52.0878901 125.38623,51.9487313 125.38623,51.7827148 Z M133.868164,62.1464844 C133.194333,62.1464844 132.585208,61.9804704 132.040771,61.6484375 C131.496335,61.3164046 131.072755,60.8537627 130.77002,60.260498 C130.467284,59.6672334 130.315918,59.0019568 130.315918,58.2646484 L130.315918,57.949707 C130.315918,57.1879845 130.463622,56.5019562 130.759033,55.8916016 C131.054445,55.2812469 131.465818,54.8015154 131.993164,54.4523926 C132.52051,54.1032697 133.091794,53.9287109 133.707031,53.9287109 C134.66895,53.9287109 135.431882,54.2570768 135.99585,54.9138184 C136.559817,55.5705599 136.841797,56.4677677 136.841797,57.6054688 L136.841797,58.0961914 L131.1875,58.0961914 L131.1875,58.2646484 C131.1875,59.1630904 131.445066,59.911374 131.960205,60.5095215 C132.475344,61.107669 133.123531,61.4067383 133.904785,61.4067383 C134.373538,61.4067383 134.787352,61.3212899 135.14624,61.1503906 C135.505129,60.9794913 135.831053,60.7060566 136.124023,60.3300781 L136.67334,60.7475586 C136.028805,61.6801804 135.093756,62.1464844 133.868164,62.1464844 Z M133.707031,54.6757812 C133.047848,54.6757812 132.492434,54.9174781 132.040771,55.4008789 C131.589109,55.8842798 131.314454,56.5336873 131.216797,57.3491211 L135.970215,57.3491211 L135.970215,57.2539062 C135.945801,56.4921837 135.728518,55.8720727 135.318359,55.3935547 C134.908201,54.9150367 134.371097,54.6757812 133.707031,54.6757812 Z M141.383301,54.0751953 L141.412598,55.4301758 C141.710451,54.9418921 142.081541,54.5695814 142.525879,54.3132324 C142.970217,54.0568835 143.460935,53.9287109 143.998047,53.9287109 C144.84766,53.9287109 145.479978,54.1679664 145.89502,54.6464844 C146.310061,55.1250024 146.52002,55.8427687 146.524902,56.7998047 L146.524902,62 L145.65332,62 L145.65332,56.7924805 C145.648437,56.0844691 145.498292,55.5571306 145.202881,55.2104492 C144.907469,54.8637678 144.435062,54.6904297 143.785645,54.6904297 C143.24365,54.6904297 142.763918,54.8601057 142.346436,55.1994629 C141.928953,55.5388201 141.620118,55.9965792 141.419922,56.5727539 L141.419922,62 L140.54834,62 L140.54834,54.0751953 L141.383301,54.0751953 Z M153.717773,61.4067383 C154.328128,61.4067383 154.839598,61.2346209 155.252197,60.8903809 C155.664797,60.5461409 155.888183,60.1005887 155.922363,59.5537109 L156.764648,59.5537109 C156.740234,60.0371118 156.588869,60.4777812 156.310547,60.8757324 C156.032225,61.2736836 155.662356,61.5849598 155.200928,61.8095703 C154.7395,62.0341808 154.24512,62.1464844 153.717773,62.1464844 C152.677729,62.1464844 151.853763,61.7851599 151.24585,61.0625 C150.637936,60.3398401 150.333984,59.3681702 150.333984,58.1474609 L150.333984,57.8837891 C150.333984,57.1025352 150.470702,56.4116241 150.744141,55.8110352 C151.017579,55.2104462 151.409421,54.7465837 151.919678,54.4194336 C152.429934,54.0922835 153.026852,53.9287109 153.710449,53.9287109 C154.579594,53.9287109 155.29614,54.1874974 155.860107,54.7050781 C156.424075,55.2226588 156.725586,55.9038044 156.764648,56.7485352 L155.922363,56.7485352 C155.883301,56.1284149 155.659914,55.6279316 155.252197,55.2470703 C154.84448,54.866209 154.33057,54.6757812 153.710449,54.6757812 C152.91943,54.6757812 152.305422,54.9614229 151.868408,55.5327148 C151.431394,56.1040068 151.212891,56.90478 151.212891,57.9350586 L151.212891,58.1914062 C151.212891,59.2021535 151.431394,59.9907198 151.868408,60.5571289 C152.305422,61.123538 152.921871,61.4067383 153.717773,61.4067383 Z M163.583984,62.1464844 C162.910153,62.1464844 162.301028,61.9804704 161.756592,61.6484375 C161.212155,61.3164046 160.788576,60.8537627 160.48584,60.260498 C160.183104,59.6672334 160.031738,59.0019568 160.031738,58.2646484 L160.031738,57.949707 C160.031738,57.1879845 160.179442,56.5019562 160.474854,55.8916016 C160.770265,55.2812469 161.181638,54.8015154 161.708984,54.4523926 C162.236331,54.1032697 162.807614,53.9287109 163.422852,53.9287109 C164.38477,53.9287109 165.147702,54.2570768 165.71167,54.9138184 C166.275638,55.5705599 166.557617,56.4677677 166.557617,57.6054688 L166.557617,58.0961914 L160.90332,58.0961914 L160.90332,58.2646484 C160.90332,59.1630904 161.160886,59.911374 161.676025,60.5095215 C162.191165,61.107669 162.839352,61.4067383 163.620605,61.4067383 C164.089358,61.4067383 164.503172,61.3212899 164.862061,61.1503906 C165.220949,60.9794913 165.546874,60.7060566 165.839844,60.3300781 L166.38916,60.7475586 C165.744626,61.6801804 164.809576,62.1464844 163.583984,62.1464844 Z M163.422852,54.6757812 C162.763669,54.6757812 162.208254,54.9174781 161.756592,55.4008789 C161.304929,55.8842798 161.030274,56.5336873 160.932617,57.3491211 L165.686035,57.3491211 L165.686035,57.2539062 C165.661621,56.4921837 165.444338,55.8720727 165.03418,55.3935547 C164.624021,54.9150367 164.086917,54.6757812 163.422852,54.6757812 Z M170.183594,61.4726562 C170.183594,61.301757 170.238525,61.1564947 170.348389,61.0368652 C170.458253,60.9172357 170.610839,60.8574219 170.806152,60.8574219 C171.001466,60.8574219 171.155273,60.9172357 171.267578,61.0368652 C171.379883,61.1564947 171.436035,61.301757 171.436035,61.4726562 C171.436035,61.6435555 171.379883,61.783935 171.267578,61.8937988 C171.155273,62.0036627 171.001466,62.0585938 170.806152,62.0585938 C170.610839,62.0585938 170.458253,62.0036627 170.348389,61.8937988 C170.238525,61.783935 170.183594,61.6435555 170.183594,61.4726562 Z" id="Extreme-hot-days.-De"></path>
            </g>
        </g>
    </g>
</svg>