<?xml version="1.0" encoding="UTF-8"?>
<svg width="213px" height="140px" viewBox="0 0 213 140" version="1.1" xmlns="http://www.w3.org/2000/svg" xmlns:xlink="http://www.w3.org/1999/xlink">
    <!-- Generator: Sketch 41.2 (35397) - http://www.bohemiancoding.com/sketch -->
    <title>Group 2</title>
    <desc>Created with Sketch.</desc>
    <defs></defs>
    <g id="Page-1" stroke="none" stroke-width="1" fill="none" fill-rule="evenodd">
        <g id="index-1-rast" transform="translate(-85.000000, -110.000000)">
            <g id="Group-2" transform="translate(85.000000, 110.000000)">
                <g id="LogoBlack" transform="translate(55.000000, 0.000000)" fill="#231F20">
                    <g id="Camada_1">
                        <path d="M16.1217391,46.8734177 C12.1808696,46.8734177 9.83426087,46.3949367 7.27269565,44.6582278 C6.43078261,44.0911392 5.24852174,43.2405063 4.67530435,42.4075949 C2.884,39.8025316 3.1706087,34.6987342 4.01252174,31.9873418 C5.17686957,28.2835443 7.05773913,26.5468354 9.99547826,24.3316456 C13.2198261,30.356962 18.3966957,35.2481013 25.8664348,33.2632911 C26.9233043,32.9797468 27.6935652,32.5544304 28.6071304,32.0936709 L33.0674783,29.0455696 L39.2116522,33.3696203 C33.1391304,37.7113924 21.9972174,46.8734177 16.1217391,46.8734177 L16.1217391,46.8734177 L16.1217391,46.8734177 Z M67.0664348,52.2253165 C74.0525217,56.2303797 80.8953043,57.0101266 88.3471304,54.121519 C98.3067826,50.2759494 102.838783,37.7291139 102.838783,27.964557 C102.838783,22.7367089 100.098087,18.3417722 97.7693913,15.2936709 C94.8674783,11.5189873 91.464,9.0556962 86.1975652,9.0556962 C85.5347826,6.66329114 81.1998261,0.992405063 76.3095652,0.17721519 C72.0104348,-0.53164557 66.8156522,1.0278481 62.9822609,2.81772152 C54.9751304,6.57468354 47.2904348,12.8658228 39.8744348,17.7746835 C37.921913,16.4455696 34.8229565,14.3544304 32.6196522,12.8658228 C30.3805217,11.3417722 27.4965217,9.09113924 25.132,7.92151899 C21.1015652,5.91898734 16.9636522,5.49367089 12.1450435,9.25063291 C9.15356522,11.5898734 8.02504348,15.3468354 8.02504348,19.2455696 C6.84278261,19.8658228 6.09043478,20.3088608 5.14104348,21.2481013 C-1.54052174,27.9113924 -1.18226087,36.0632911 4.29913043,43.2936709 C6.78904348,46.5721519 8.18626087,48.1848101 11.930087,50.0455696 C16.8203478,52.4734177 22.4271304,51.4987342 26.8695652,48.5924051 C32.5838261,44.6227848 38.2622609,40.7063291 43.8869565,36.7012658 C51.070087,41.6987342 59.5608696,47.9189873 67.0664348,52.2253165 L67.0664348,52.2253165 L67.0664348,52.2253165 Z M34.8408696,27.8582278 C36.9546087,29.2759494 39.1041739,30.7468354 41.2358261,32.1822785 C43.8690435,30.3392405 46.5022609,28.4962025 49.1354783,26.635443 C48.0606957,25.9088608 46.968,25.164557 45.8932174,24.4379747 L42.6867826,22.2759494 C40.0714783,24.1367089 37.4561739,25.9974684 34.8408696,27.8582278 L34.8408696,27.8582278 L34.8408696,27.8582278 Z M11.4822609,23.6050633 C11.4822609,29.7189873 20.8507826,30.2329114 25.2036522,27.964557 C25.9201739,27.5924051 27.6577391,26.3341772 28.4638261,25.7848101 C27.7831304,25.3063291 27.1203478,24.7924051 26.4396522,24.3316456 C22.9286957,21.9924051 20.7253913,21.9037975 16.892,21.9037975 C15.5664348,21.9037975 11.4822609,22.9493671 11.4822609,23.6050633 L11.4822609,23.6050633 L11.4822609,23.6050633 Z M12.4495652,17.5443038 C13.5243478,17.3848101 14.3841739,17.2253165 15.3873043,17.2962025 C19.0773913,17.5088608 21.9972174,18.8202532 25.0245217,20.8936709 L30.093913,24.5797468 C32.2793043,23.1443038 34.8946087,21.3898734 36.9008696,19.8658228 L38.2085217,18.9620253 C35.7186087,17.278481 33.2286957,15.5772152 30.7387826,13.8759494 C27.7114783,11.7139241 26.1888696,10.9873418 21.7643478,10.9873418 C17.8593043,10.9873418 13.1481739,14.6379747 12.4495652,17.5443038 L12.4495652,17.5443038 L12.4495652,17.5443038 Z M87.8993043,13.4151899 C89.7264348,13.4151899 91.2848696,13.5392405 92.7537391,13.9468354 C95.2257391,14.6202532 97.8589565,15.9316456 98.7546087,18.4658228 C101.459478,26.1037975 98.1813913,37.5164557 93.2194783,43.4177215 C78.3158261,61.1037975 59.4892174,45.5088608 45.7678261,35.4075949 L53.7928696,29.9316456 C54.1869565,30.2151899 55.0467826,30.8708861 55.5125217,31.1721519 C60.6356522,34.521519 63.7166957,37.1797468 71.2401739,37.1797468 C81.6297391,37.1797468 88.150087,25.3772152 88.150087,16.0911392 C88.150087,14.7443038 88.0426087,14.1772152 87.8993043,13.4151899 L87.8993043,13.4151899 L87.8993043,13.4151899 Z M67.568,32.8202532 C63.3046957,32.8202532 59.1667826,31.1544304 55.7812174,28.6556962 C57.3754783,27.5037975 60.2773913,25.4835443 61.9253913,24.3493671 C67.0485217,20.7873418 74.3391304,16.4278481 80.3937391,14.7443038 C82.005913,14.3012658 83.3493913,14.0531646 84.9436522,13.6810127 C84.3525217,20.7164557 80.734087,27.521519 74.8944348,30.8886076 C73.1747826,31.8810127 70.3086957,32.8202532 67.568,32.8202532 L67.568,32.8202532 L67.568,32.8202532 Z M62.9106087,8.80759494 C63.9674783,8.18734177 65.7946087,7.30126582 66.9947826,6.78734177 C71.3476522,4.9443038 77.3126957,3.22531646 82.0954783,5.56455696 C83.7972174,6.39746835 84.4062609,7.03544304 84.46,9.0556962 C77.9933913,9.0556962 70.057913,13.043038 65.7587826,15.5240506 C60.5281739,18.5367089 55.5304348,22.1696203 50.4968696,25.5189873 L44.3526957,21.0531646 C50.5147826,16.9063291 56.6589565,12.7949367 62.9106087,8.80759494 L62.9106087,8.80759494 Z" id="Shape"></path>
                    </g>
                </g>
                <g id="Logo-Escrito-Flowbodies" transform="translate(11.000000, 101.000000)" fill="#231F20">
                    <g id="Camada_1">
                        <g id="Group">
                            <path d="M2.92366566,5.38333333 L2.92366566,3.70222222 L11.1560926,3.70222222 L11.1560926,0.528888889 L0,0.528888889 L0,16.4711111 L2.92366566,16.4711111 L2.92366566,12.58 L2.92366566,10.7477778 L2.92366566,9.82222222 L9.19415911,9.82222222 L9.19415911,6.64888889 L2.92366566,6.64888889 L2.92366566,5.38333333 L2.92366566,5.38333333 L2.92366566,5.38333333 Z M161.897986,7.25333333 L167.149043,7.25333333 L168.726284,7.25333333 L168.726284,9.23666667 L167.149043,9.23666667 L161.897986,9.23666667 L161.897986,10.4077778 L161.897986,10.7477778 L161.897986,11.9 L161.897986,13.26 L161.897986,13.8455556 L162.49426,13.8455556 L171.226788,13.8455556 L171.226788,15.8666667 L160.166868,15.8666667 L160.166868,1.11444444 L170.688218,1.11444444 L170.688218,3.09777778 L162.49426,3.09777778 L161.897986,3.09777778 L161.897986,3.68333333 L161.897986,6.53555556 L161.897986,7.25333333 L161.897986,7.25333333 L161.897986,7.25333333 Z M28.6019134,16.4711111 L28.6019134,13.26 L20.6964753,13.26 L20.6964753,0.528888889 L17.6189325,0.528888889 L17.6189325,16.4711111 L28.6019134,16.4711111 L28.6019134,16.4711111 L28.6019134,16.4711111 Z M47.509567,8.36777778 C47.509567,11.8055556 44.6628399,13.7322222 41.8545821,13.7322222 C39.007855,13.7322222 36.1418933,12.1077778 36.1418933,8.5 C36.1418933,4.89222222 38.9501511,3.26777778 41.8353474,3.26777778 C44.6436052,3.26777778 47.509567,4.79777778 47.509567,8.36777778 L47.509567,8.36777778 L47.509567,8.36777778 Z M118.65851,8.36777778 C118.65851,10.1622222 117.966062,11.5788889 116.888922,12.58 C115.696375,13.7133333 114.022961,14.3177778 112.388016,14.3177778 C110.714602,14.3177778 109.021954,13.7888889 107.810171,12.6744444 C106.752266,11.7111111 106.079053,10.3322222 106.079053,8.48111111 C106.079053,6.63 106.752266,5.25111111 107.810171,4.28777778 C109.021954,3.19222222 110.695368,2.66333333 112.368781,2.66333333 C114.022961,2.66333333 115.715609,3.17333333 116.927392,4.25 C117.985297,5.19444444 118.65851,6.55444444 118.65851,8.36777778 L118.65851,8.36777778 L118.65851,8.36777778 Z M86.4981873,3.09777778 L92.6725076,3.09777778 C93.2687815,3.09777778 93.7881168,3.26777778 94.1728097,3.60777778 C94.5575025,3.94777778 94.7690836,4.42 94.7690836,5.02444444 C94.7690836,5.64777778 94.5959718,6.13888889 94.2305136,6.49777778 C93.8650554,6.83777778 93.3649547,7.00777778 92.6725076,7.00777778 L91.9031219,7.00777778 L85.8826788,7.00777778 L85.8826788,6.47888889 L85.8826788,3.70222222 L85.8826788,3.11666667 L86.4981873,3.11666667 L86.4981873,3.09777778 L86.4981873,3.09777778 Z M91.9223565,9.04777778 L92.6917422,9.04777778 C93.6534743,9.04777778 94.3651561,9.25555556 94.8460222,9.63333333 C95.3845921,10.0488889 95.6154079,10.6533333 95.6154079,11.4277778 C95.6154079,12.4288889 95.230715,13.0522222 94.6152064,13.43 C94.0574018,13.77 93.3841893,13.8644444 92.6725076,13.8644444 L86.4981873,13.8644444 L85.9019134,13.8644444 L85.9019134,13.2788889 L85.9019134,10.71 L85.9019134,10.5588889 L85.9019134,10.2188889 L85.9019134,9.04777778 L91.9223565,9.04777778 L91.9223565,9.04777778 L91.9223565,9.04777778 Z M133.642296,3.09777778 C135.258006,3.09777778 136.546727,3.57 137.431521,4.51444444 L137.431521,4.51444444 C138.29708,5.42111111 138.758711,6.74333333 138.758711,8.44333333 C138.758711,10.1433333 138.29708,11.4844444 137.412286,12.41 C136.527492,13.3544444 135.238771,13.8644444 133.642296,13.8644444 L130.680161,13.8644444 L130.083887,13.8644444 L130.083887,13.2788889 L130.083887,3.70222222 L130.083887,3.11666667 L130.680161,3.11666667 L133.642296,3.11666667 L133.642296,3.09777778 L133.642296,3.09777778 Z M150.511078,15.8666667 L150.511078,1.11444444 L148.77996,1.11444444 L148.77996,15.8666667 L150.511078,15.8666667 L150.511078,15.8666667 L150.511078,15.8666667 Z M189.557402,2.13444444 C188.711078,1.58666667 187.883988,1.20888889 187.056898,0.982222222 C186.075932,0.698888889 185.07573,0.604444444 184.037059,0.604444444 C182.479053,0.604444444 181.036455,1.05777778 179.997784,1.87 C179.074522,2.56888889 178.497482,3.58888889 178.497482,4.79777778 C178.497482,6.23333333 178.978348,7.23444444 179.824673,7.87666667 C180.805639,8.63222222 182.286707,8.95333333 184.056294,8.95333333 C185.672004,8.95333333 186.883787,9.02888889 187.710876,9.31222222 C188.749547,9.67111111 189.249648,10.2755556 189.249648,11.2955556 C189.249648,12.3344444 188.691843,13.1466667 187.710876,13.6944444 C186.806848,14.2044444 185.537362,14.4688889 184.037059,14.4688889 C181.536556,14.4688889 180.305539,13.2222222 179.401511,12.1644444 L178.093555,13.5811111 C178.805237,14.3744444 179.670796,15.0355556 180.632528,15.5266667 C181.690433,16.0555556 182.863746,16.3577778 184.056294,16.3577778 C186.15287,16.3577778 187.980161,15.8855556 189.230413,14.96 C190.326788,14.1288889 190.980765,12.92 190.980765,11.2955556 C190.980765,10.1433333 190.769184,9.08555556 189.903625,8.33 C188.980363,7.51777778 187.268479,7.00777778 184.24864,7.00777778 C182.6714,7.00777778 181.767372,6.81888889 181.209567,6.47888889 C180.51712,6.04444444 180.401712,5.49666667 180.401712,4.81666667 C180.401712,4.13666667 180.901813,3.53222222 181.632729,3.11666667 C182.305942,2.73888889 183.190735,2.49333333 184.037059,2.49333333 C184.960322,2.49333333 185.825881,2.58777778 186.633736,2.83333333 C187.249245,3.02222222 187.845519,3.28666667 188.364854,3.64555556 L189.557402,2.13444444 L189.557402,2.13444444 L189.557402,2.13444444 Z M128.179658,3.09777778 L128.179658,3.68333333 L128.179658,4.66555556 L128.179658,15.8666667 L133.642296,15.8666667 C135.738872,15.8666667 137.46999,15.1488889 138.681772,13.8644444 C139.893555,12.5611111 140.566767,10.6911111 140.566767,8.36777778 C140.566767,6.04444444 139.893555,4.25 138.739476,3.02222222 C137.527694,1.77555556 135.758107,1.11444444 133.642296,1.11444444 L128.179658,1.11444444 L128.179658,3.09777778 L128.179658,3.09777778 L128.179658,3.09777778 Z M120.562739,8.34888889 C120.562739,5.93111111 119.69718,4.08 118.350755,2.81444444 C116.811984,1.34111111 114.619235,0.604444444 112.388016,0.604444444 C110.176032,0.604444444 108.002518,1.39777778 106.463746,2.87111111 C105.098087,4.19333333 104.194058,6.06333333 104.194058,8.44333333 C104.194058,10.8233333 105.078852,12.7311111 106.463746,14.0722222 C108.002518,15.5644444 110.137563,16.3766667 112.349547,16.3766667 C114.561531,16.3766667 116.715811,15.5455556 118.273817,14.0344444 C119.658711,12.6744444 120.562739,10.7477778 120.562739,8.34888889 L120.562739,8.34888889 L120.562739,8.34888889 Z M97.3657603,11.4844444 C97.3657603,10.7666667 97.2311178,10.0866667 96.9425982,9.52 C96.6925478,8.99111111 96.3270896,8.53777778 95.8846928,8.25444444 L95.2499496,7.85777778 L95.769285,7.34777778 C96.03857,7.08333333 96.2309164,6.76222222 96.3655589,6.40333333 C96.5194361,5.98777778 96.57714,5.51555556 96.57714,5.02444444 C96.57714,3.89111111 96.1539778,2.92777778 95.4615307,2.24777778 C94.7498489,1.53 93.7496475,1.13333333 92.6532729,1.13333333 L84.1130916,1.13333333 L84.1130916,15.8666667 L92.6532729,15.8666667 C94.1343404,15.8666667 95.3268882,15.4511111 96.1155086,14.7144444 C96.9233635,13.9777778 97.3657603,12.8822222 97.3657603,11.4844444 L97.3657603,11.4844444 L97.3657603,11.4844444 Z M50.6255791,8.34888889 C50.6255791,2.81444444 46.3170191,0 41.8353474,0 C37.3729104,0 33.0451158,3.02222222 33.0451158,8.42444444 C33.0451158,13.8077778 37.2959718,16.9433333 41.8161128,16.9433333 C46.2977845,16.9622222 50.6255791,13.7511111 50.6255791,8.34888889 L50.6255791,8.34888889 Z" id="Shape"></path>
                            <polygon id="Shape" points="63.5320242 16.3011111 66.4364552 5.95 66.5903323 5.40222222 66.7442095 5.95 69.6486405 16.3011111 73.6879154 16.3011111 78.284995 0.528888889 75.2074522 0.528888889 71.8990937 12.2588889 71.7452165 12.7877778 71.5913394 12.2588889 68.3406848 0.528888889 66.5903323 0.528888889 64.8207452 0.528888889 61.5893253 12.2588889 61.4354481 12.7877778 61.281571 12.2588889 57.9539778 0.528888889 54.8956697 0.528888889 59.4927492 16.3011111"></polygon>
                        </g>
                    </g>
                </g>
                <path d="M5.49609375,134.318359 L0.840820312,134.318359 L0.840820312,138.378906 L6.19335938,138.378906 L6.19335938,139.089844 L0,139.089844 L0,129.136719 L6.15917969,129.136719 L6.15917969,129.854492 L0.840820312,129.854492 L0.840820312,133.607422 L5.49609375,133.607422 L5.49609375,134.318359 Z M12.7621875,133.347656 L15.5649219,129.136719 L16.5698047,129.136719 L13.2748828,134.044922 L16.6723437,139.089844 L15.660625,139.089844 L12.7621875,134.742188 L9.85007811,139.089844 L8.85203123,139.089844 L12.2563281,134.044922 L8.95457029,129.136719 L9.95945311,129.136719 L12.7621875,133.347656 Z M20.9101171,135.036133 L20.9101171,139.089844 L20.0692968,139.089844 L20.0692968,129.136719 L23.4599218,129.136719 C24.4944322,129.136719 25.3113186,129.401039 25.9106054,129.929688 C26.5098923,130.458336 26.8095312,131.185217 26.8095312,132.110352 C26.8095312,133.044601 26.5212854,133.765785 25.9447851,134.273926 C25.3682848,134.782066 24.5331695,135.036133 23.439414,135.036133 L20.9101171,135.036133 Z M20.9101171,134.325195 L23.4599218,134.325195 C24.2756811,134.325195 24.8977452,134.131512 25.3261328,133.744141 C25.7545203,133.356769 25.9687109,132.816735 25.9687109,132.124023 C25.9687109,131.435869 25.7556596,130.88786 25.3295507,130.47998 C24.9034418,130.072101 24.2984674,129.863607 23.5146093,129.854492 L20.9101171,129.854492 L20.9101171,134.325195 Z M31.3070703,138.378906 L36.2221093,138.378906 L36.2221093,139.089844 L30.459414,139.089844 L30.459414,129.136719 L31.3070703,129.136719 L31.3070703,138.378906 Z M46.5165234,134.65332 C46.5165234,135.569341 46.3581591,136.373694 46.0414257,137.066406 C45.7246924,137.759118 45.2723857,138.292316 44.6844921,138.666016 C44.0965985,139.039715 43.4175689,139.226562 42.6473827,139.226562 C41.4852676,139.226562 40.5464749,138.810714 39.8309765,137.979004 C39.1154781,137.147294 38.7577343,136.025072 38.7577343,134.612305 L38.7577343,133.586914 C38.7577343,132.680008 38.9183772,131.876794 39.2396679,131.177246 C39.5609586,130.477698 40.0155439,129.939943 40.6034374,129.563965 C41.191331,129.187986 41.868082,129 42.6337109,129 C43.3993397,129 44.0749514,129.184568 44.6605663,129.553711 C45.2461812,129.922853 45.6984879,130.444658 46.0174999,131.119141 C46.3365119,131.793623 46.5028514,132.575191 46.5165234,133.463867 L46.5165234,134.65332 Z M45.675703,133.573242 C45.675703,132.374668 45.4045469,131.435876 44.8622265,130.756836 C44.3199061,130.077796 43.577075,129.738281 42.6337109,129.738281 C41.708576,129.738281 40.9714415,130.078935 40.4222851,130.760254 C39.8731287,131.441572 39.5985546,132.392898 39.5985546,133.614258 L39.5985546,134.65332 C39.5985546,135.833665 39.8719894,136.76904 40.4188671,137.459473 C40.9657448,138.149906 41.708576,138.495117 42.6473827,138.495117 C43.5998615,138.495117 44.3426926,138.154463 44.8758984,137.473145 C45.4091042,136.791826 45.675703,135.84278 45.675703,134.625977 L45.675703,133.573242 Z M54.124414,134.947266 L51.2328124,134.947266 L51.2328124,139.089844 L50.3851562,139.089844 L50.3851562,129.136719 L53.6185546,129.136719 C54.6804089,129.136719 55.5098276,129.394203 56.1068358,129.90918 C56.703844,130.424156 57.0023437,131.144201 57.0023437,132.069336 C57.0023437,132.70736 56.8154966,133.27018 56.4417968,133.757812 C56.068097,134.245445 55.5667999,134.582681 54.9378905,134.769531 L57.4261718,139.000977 L57.4261718,139.089844 L56.530664,139.089844 L54.124414,134.947266 Z M51.2328124,134.229492 L53.8099608,134.229492 C54.5163446,134.229492 55.0837217,134.028973 55.5121093,133.62793 C55.9404968,133.226886 56.1546874,132.70736 56.1546874,132.069336 C56.1546874,131.36751 55.9313823,130.822919 55.4847655,130.435547 C55.0381487,130.048175 54.4115274,129.854492 53.6048827,129.854492 L51.2328124,129.854492 L51.2328124,134.229492 Z M62.0877733,139.089844 L61.246953,139.089844 L61.246953,129.136719 L62.0877733,129.136719 L62.0877733,139.089844 Z M73.9681249,139.089844 L73.1273046,139.089844 L67.4056249,130.572266 L67.4056249,139.089844 L66.5579686,139.089844 L66.5579686,129.136719 L67.4056249,129.136719 L73.1341405,137.661133 L73.1341405,129.136719 L73.9681249,129.136719 L73.9681249,139.089844 Z M85.451992,137.907227 C85.1603239,138.321942 84.70346,138.645507 84.0813866,138.87793 C83.4593131,139.110353 82.7631938,139.226562 81.9930077,139.226562 C81.2137069,139.226562 80.5210055,139.039715 79.9148827,138.666016 C79.3087598,138.292316 78.8393635,137.763675 78.5066795,137.080078 C78.1739956,136.396481 78.0053775,135.612635 78.0008202,134.728516 L78.0008202,133.470703 C78.0008202,132.089837 78.3494495,130.999516 79.0467186,130.199707 C79.7439877,129.399898 80.6805018,129 81.8562889,129 C82.8816847,129 83.7065462,129.260902 84.3308983,129.782715 C84.9552504,130.304527 85.3266659,131.023433 85.4451561,131.939453 L84.6043358,131.939453 C84.4812883,131.210283 84.183928,130.657717 83.7122459,130.281738 C83.2405639,129.90576 82.6241964,129.717773 81.8631248,129.717773 C80.9334327,129.717773 80.1974375,130.048174 79.655117,130.708984 C79.1127966,131.369795 78.8416405,132.301752 78.8416405,133.504883 L78.8416405,134.680664 C78.8416405,135.437178 78.9703827,136.105954 79.2278709,136.687012 C79.4853592,137.268069 79.8544961,137.718097 80.3352928,138.037109 C80.8160895,138.356121 81.3686556,138.515625 81.9930077,138.515625 C82.7176207,138.515625 83.3396847,138.401694 83.8592186,138.173828 C84.1964599,138.023437 84.4471084,137.847983 84.6111717,137.647461 L84.6111717,135.077148 L81.9383202,135.077148 L81.9383202,134.366211 L85.451992,134.366211 L85.451992,137.907227 Z M102.192187,139.089844 L101.351367,139.089844 L95.6296873,130.572266 L95.6296873,139.089844 L94.7820311,139.089844 L94.7820311,129.136719 L95.6296873,129.136719 L101.358203,137.661133 L101.358203,129.136719 L102.192187,129.136719 L102.192187,139.089844 Z M111.987578,134.318359 L107.332304,134.318359 L107.332304,138.378906 L112.684844,138.378906 L112.684844,139.089844 L106.491484,139.089844 L106.491484,129.136719 L112.650664,129.136719 L112.650664,129.854492 L107.332304,129.854492 L107.332304,133.607422 L111.987578,133.607422 L111.987578,134.318359 Z M118.064219,136.40332 L118.371836,137.948242 L118.747812,136.47168 L120.907969,129.136719 L121.666758,129.136719 L123.79957,136.47168 L124.168711,137.961914 L124.496836,136.40332 L126.294687,129.136719 L127.156015,129.136719 L124.606211,139.089844 L123.79957,139.089844 L121.543711,131.303711 L121.290781,130.319336 L121.044687,131.303711 L118.73414,139.089844 L117.9275,139.089844 L115.384531,129.136719 L116.245859,129.136719 L118.064219,136.40332 Z M139.439179,134.947266 L136.547578,134.947266 L136.547578,139.089844 L135.699922,139.089844 L135.699922,129.136719 L138.93332,129.136719 C139.995174,129.136719 140.824593,129.394203 141.421601,129.90918 C142.018609,130.424156 142.317109,131.144201 142.317109,132.069336 C142.317109,132.70736 142.130262,133.27018 141.756562,133.757812 C141.382862,134.245445 140.881565,134.582681 140.252656,134.769531 L142.740937,139.000977 L142.740937,139.089844 L141.845429,139.089844 L139.439179,134.947266 Z M136.547578,134.229492 L139.124726,134.229492 C139.83111,134.229492 140.398487,134.028973 140.826875,133.62793 C141.255262,133.226886 141.469453,132.70736 141.469453,132.069336 C141.469453,131.36751 141.246148,130.822919 140.799531,130.435547 C140.352914,130.048175 139.726293,129.854492 138.919648,129.854492 L136.547578,129.854492 L136.547578,134.229492 Z M151.873242,134.318359 L147.217968,134.318359 L147.217968,138.378906 L152.570508,138.378906 L152.570508,139.089844 L146.377148,139.089844 L146.377148,129.136719 L152.536328,129.136719 L152.536328,129.854492 L147.217968,129.854492 L147.217968,133.607422 L151.873242,133.607422 L151.873242,134.318359 Z M161.484062,136.300781 L156.965508,136.300781 L155.940117,139.089844 L155.058281,139.089844 L158.824883,129.136719 L159.624687,129.136719 L163.391289,139.089844 L162.516289,139.089844 L161.484062,136.300781 Z M157.225273,135.583008 L161.217461,135.583008 L159.221367,130.162109 L157.225273,135.583008 Z M167.471836,138.378906 L172.386875,138.378906 L172.386875,139.089844 L166.624179,139.089844 L166.624179,129.136719 L167.471836,129.136719 L167.471836,138.378906 Z M176.795547,139.089844 L175.954726,139.089844 L175.954726,129.136719 L176.795547,129.136719 L176.795547,139.089844 Z M187.821406,129.854492 L184.410273,129.854492 L184.410273,139.089844 L183.569453,139.089844 L183.569453,129.854492 L180.165156,129.854492 L180.165156,129.136719 L187.821406,129.136719 L187.821406,129.854492 Z M192.223242,139.089844 L191.382421,139.089844 L191.382421,129.136719 L192.223242,129.136719 L192.223242,139.089844 Z M202.189531,134.318359 L197.534257,134.318359 L197.534257,138.378906 L202.886796,138.378906 L202.886796,139.089844 L196.693437,139.089844 L196.693437,129.136719 L202.852617,129.136719 L202.852617,129.854492 L197.534257,129.854492 L197.534257,133.607422 L202.189531,133.607422 L202.189531,134.318359 Z M212.060117,136.642578 C212.060117,136.091143 211.866434,135.654787 211.479062,135.333496 C211.09169,135.012205 210.383039,134.70687 209.353086,134.41748 C208.323132,134.128091 207.571187,133.812502 207.097226,133.470703 C206.422744,132.987628 206.085507,132.354171 206.085507,131.570312 C206.085507,130.809241 206.398818,130.190595 207.025449,129.714355 C207.65208,129.238116 208.453016,129 209.428281,129 C210.089091,129 210.680394,129.127603 211.202207,129.382812 C211.724019,129.638022 212.128475,129.993487 212.415586,130.449219 C212.702696,130.90495 212.84625,131.413083 212.84625,131.973633 L211.998593,131.973633 C211.998593,131.294593 211.766174,130.748863 211.301328,130.336426 C210.836482,129.923989 210.212139,129.717773 209.428281,129.717773 C208.667209,129.717773 208.061096,129.887531 207.609921,130.227051 C207.158747,130.566571 206.933164,131.009763 206.933164,131.556641 C206.933164,132.062503 207.135961,132.474933 207.541562,132.793945 C207.947163,133.112957 208.596571,133.394367 209.489804,133.638184 C210.383038,133.882 211.059789,134.134927 211.520078,134.396973 C211.980366,134.659018 212.326717,134.972329 212.55914,135.336914 C212.791563,135.701499 212.907773,136.132159 212.907773,136.628906 C212.907773,137.412764 212.594462,138.041664 211.967832,138.515625 C211.341201,138.989586 210.5152,139.226562 209.489804,139.226562 C208.787978,139.226562 208.144267,139.101238 207.558652,138.850586 C206.973037,138.599934 206.528706,138.249026 206.225644,137.797852 C205.922583,137.346677 205.771054,136.82943 205.771054,136.246094 L206.611875,136.246094 C206.611875,136.94792 206.873916,137.501626 207.398007,137.907227 C207.922099,138.312828 208.619357,138.515625 209.489804,138.515625 C210.264548,138.515625 210.886612,138.344728 211.356015,138.00293 C211.825419,137.661131 212.060117,137.207685 212.060117,136.642578 Z" id="EXPLORING-NEW-REALIT" fill="#000000"></path>
            </g>
        </g>
    </g>
</svg>