<?xml version="1.0" encoding="UTF-8"?>
<svg width="67px" height="10px" viewBox="0 0 67 10" version="1.1" xmlns="http://www.w3.org/2000/svg" xmlns:xlink="http://www.w3.org/1999/xlink">
    <!-- Generator: Sketch 41.2 (35397) - http://www.bohemiancoding.com/sketch -->
    <title>Headlands</title>
    <desc>Created with Sketch.</desc>
    <defs></defs>
    <g id="Page-1" stroke="none" stroke-width="1" fill="none" fill-rule="evenodd">
        <g id="index-1-rast" transform="translate(-102.000000, -479.000000)" fill="#FFFFFF">
            <path d="M108.400391,488 L107.673828,488 L107.673828,483.910156 L102.798828,483.910156 L102.798828,488 L102.078125,488 L102.078125,479.46875 L102.798828,479.46875 L102.798828,483.300781 L107.673828,483.300781 L107.673828,479.46875 L108.400391,479.46875 L108.400391,488 Z M114.376518,488.117188 C113.837453,488.117188 113.350153,487.984376 112.914604,487.71875 C112.479055,487.453124 112.140191,487.08301 111.898002,486.608398 C111.655813,486.133787 111.534721,485.601565 111.534721,485.011719 L111.534721,484.759766 C111.534721,484.150388 111.652884,483.601565 111.889213,483.113281 C112.125542,482.624998 112.454641,482.241212 112.876518,481.961914 C113.298395,481.682616 113.755422,481.542969 114.247612,481.542969 C115.017147,481.542969 115.627492,481.805661 116.078666,482.331055 C116.52984,482.856448 116.755424,483.574214 116.755424,484.484375 L116.755424,484.876953 L112.231987,484.876953 L112.231987,485.011719 C112.231987,485.730472 112.438039,486.329099 112.850151,486.807617 C113.262262,487.286135 113.780812,487.525391 114.405815,487.525391 C114.780817,487.525391 115.111868,487.457032 115.398979,487.320312 C115.68609,487.183593 115.946829,486.964845 116.181205,486.664062 L116.620658,486.998047 C116.105031,487.744144 115.356991,488.117188 114.376518,488.117188 Z M114.247612,482.140625 C113.720265,482.140625 113.275934,482.333982 112.914604,482.720703 C112.553274,483.107424 112.333549,483.62695 112.255424,484.279297 L116.058158,484.279297 L116.058158,484.203125 C116.038627,483.593747 115.864801,483.097658 115.536674,482.714844 C115.208547,482.332029 114.778864,482.140625 114.247612,482.140625 Z M123.639754,488 C123.569441,487.80078 123.52452,487.505861 123.504989,487.115234 C123.258894,487.435548 122.94542,487.682616 122.564559,487.856445 C122.183698,488.030274 121.780381,488.117188 121.354598,488.117188 C120.74522,488.117188 120.252061,487.947267 119.875106,487.607422 C119.498151,487.267576 119.309676,486.837893 119.309676,486.318359 C119.309676,485.701169 119.56651,485.212892 120.080184,484.853516 C120.593858,484.494139 121.309672,484.314453 122.227645,484.314453 L123.499129,484.314453 L123.499129,483.59375 C123.499129,483.140623 123.359482,482.784181 123.080184,482.524414 C122.800886,482.264647 122.393663,482.134766 121.858504,482.134766 C121.370221,482.134766 120.965928,482.259764 120.645614,482.509766 C120.3253,482.759767 120.165145,483.060545 120.165145,483.412109 L119.46202,483.40625 C119.46202,482.902341 119.696393,482.465822 120.165145,482.09668 C120.633897,481.727537 121.210063,481.542969 121.893661,481.542969 C122.600695,481.542969 123.158307,481.719725 123.566512,482.073242 C123.974717,482.42676 124.184676,482.919919 124.196395,483.552734 L124.196395,486.552734 C124.196395,487.166019 124.260847,487.624998 124.389754,487.929688 L124.389754,488 L123.639754,488 Z M121.436629,487.496094 C121.905382,487.496094 122.324323,487.382814 122.693465,487.15625 C123.062608,486.929686 123.33116,486.626955 123.499129,486.248047 L123.499129,484.853516 L122.245223,484.853516 C121.546001,484.861328 120.999131,484.989257 120.604598,485.237305 C120.210065,485.485353 120.012801,485.82617 120.012801,486.259766 C120.012801,486.615236 120.144636,486.910155 120.408309,487.144531 C120.671982,487.378907 121.014752,487.496094 121.436629,487.496094 Z M127.301428,484.771484 C127.301428,483.787104 127.521153,483.002933 127.960608,482.418945 C128.400063,481.834958 128.996737,481.542969 129.750647,481.542969 C130.60612,481.542969 131.258457,481.880856 131.707678,482.556641 L131.707678,479 L132.404944,479 L132.404944,488 L131.748694,488 L131.719397,487.15625 C131.270176,487.796878 130.610026,488.117188 129.738928,488.117188 C129.008456,488.117188 128.419595,487.823245 127.972327,487.235352 C127.525059,486.647458 127.301428,485.853521 127.301428,484.853516 L127.301428,484.771484 Z M128.010413,484.894531 C128.010413,485.703129 128.17252,486.340818 128.496741,486.807617 C128.820961,487.274416 129.277988,487.507812 129.867835,487.507812 C130.73112,487.507812 131.344395,487.126957 131.707678,486.365234 L131.707678,483.388672 C131.344395,482.564449 130.735026,482.152344 129.879553,482.152344 C129.289707,482.152344 128.830727,482.383787 128.5026,482.84668 C128.174474,483.309573 128.010413,483.992183 128.010413,484.894531 Z M136.552946,488 L135.849821,488 L135.849821,479 L136.552946,479 L136.552946,488 Z M143.976339,488 C143.906026,487.80078 143.861105,487.505861 143.841573,487.115234 C143.595478,487.435548 143.282005,487.682616 142.901144,487.856445 C142.520282,488.030274 142.116966,488.117188 141.691183,488.117188 C141.081805,488.117188 140.588645,487.947267 140.21169,487.607422 C139.834735,487.267576 139.646261,486.837893 139.646261,486.318359 C139.646261,485.701169 139.903094,485.212892 140.416769,484.853516 C140.930443,484.494139 141.646256,484.314453 142.564229,484.314453 L143.835714,484.314453 L143.835714,483.59375 C143.835714,483.140623 143.696067,482.784181 143.416769,482.524414 C143.13747,482.264647 142.730248,482.134766 142.195089,482.134766 C141.706805,482.134766 141.302512,482.259764 140.982198,482.509766 C140.661884,482.759767 140.501729,483.060545 140.501729,483.412109 L139.798604,483.40625 C139.798604,482.902341 140.032977,482.465822 140.501729,482.09668 C140.970482,481.727537 141.546648,481.542969 142.230245,481.542969 C142.93728,481.542969 143.494892,481.719725 143.903097,482.073242 C144.311302,482.42676 144.521261,482.919919 144.532979,483.552734 L144.532979,486.552734 C144.532979,487.166019 144.597432,487.624998 144.726339,487.929688 L144.726339,488 L143.976339,488 Z M141.773214,487.496094 C142.241966,487.496094 142.660907,487.382814 143.03005,487.15625 C143.399192,486.929686 143.667744,486.626955 143.835714,486.248047 L143.835714,484.853516 L142.581808,484.853516 C141.882585,484.861328 141.335716,484.989257 140.941183,485.237305 C140.546649,485.485353 140.349386,485.82617 140.349386,486.259766 C140.349386,486.615236 140.48122,486.910155 140.744894,487.144531 C141.008567,487.378907 141.351337,487.496094 141.773214,487.496094 Z M148.587232,481.660156 L148.610669,482.744141 C148.848952,482.353514 149.145824,482.055665 149.501294,481.850586 C149.856765,481.645507 150.249339,481.542969 150.679029,481.542969 C151.358719,481.542969 151.864574,481.734373 152.196607,482.117188 C152.52864,482.500002 152.696607,483.074215 152.700513,483.839844 L152.700513,488 L152.003247,488 L152.003247,483.833984 C151.999341,483.267575 151.879225,482.845705 151.642896,482.568359 C151.406566,482.291014 151.02864,482.152344 150.509107,482.152344 C150.075511,482.152344 149.691725,482.288085 149.357739,482.55957 C149.023753,482.831056 148.776686,483.197263 148.616529,483.658203 L148.616529,488 L147.919263,488 L147.919263,481.660156 L148.587232,481.660156 Z M155.746953,484.771484 C155.746953,483.787104 155.966677,483.002933 156.406132,482.418945 C156.845588,481.834958 157.442261,481.542969 158.196171,481.542969 C159.051644,481.542969 159.703982,481.880856 160.153203,482.556641 L160.153203,479 L160.850468,479 L160.850468,488 L160.194218,488 L160.164921,487.15625 C159.7157,487.796878 159.055551,488.117188 158.184453,488.117188 C157.45398,488.117188 156.865119,487.823245 156.417851,487.235352 C155.970583,486.647458 155.746953,485.853521 155.746953,484.853516 L155.746953,484.771484 Z M156.455937,484.894531 C156.455937,485.703129 156.618045,486.340818 156.942265,486.807617 C157.266485,487.274416 157.723512,487.507812 158.313359,487.507812 C159.176644,487.507812 159.789919,487.126957 160.153203,486.365234 L160.153203,483.388672 C159.789919,482.564449 159.180551,482.152344 158.325078,482.152344 C157.735231,482.152344 157.276251,482.383787 156.948124,482.84668 C156.619998,483.309573 156.455937,483.992183 156.455937,484.894531 Z M168.010189,486.388672 C168.010189,486.041014 167.870542,485.76172 167.591244,485.550781 C167.311945,485.339843 166.891051,485.174805 166.328548,485.055664 C165.766046,484.936523 165.329527,484.799805 165.018978,484.645508 C164.70843,484.49121 164.477963,484.302735 164.327572,484.080078 C164.17718,483.857421 164.101986,483.587892 164.101986,483.271484 C164.101986,482.771482 164.310968,482.3584 164.728939,482.032227 C165.14691,481.706053 165.682061,481.542969 166.334408,481.542969 C167.041443,481.542969 167.60882,481.717772 168.036556,482.067383 C168.464293,482.416994 168.678158,482.873044 168.678158,483.435547 L167.975033,483.435547 C167.975033,483.064451 167.819761,482.755861 167.509212,482.509766 C167.198664,482.263671 166.807066,482.140625 166.334408,482.140625 C165.873468,482.140625 165.503355,482.243163 165.224056,482.448242 C164.944758,482.653321 164.805111,482.91992 164.805111,483.248047 C164.805111,483.564455 164.921321,483.809569 165.153744,483.983398 C165.386167,484.157227 165.809991,484.316406 166.425228,484.460938 C167.040466,484.605469 167.501398,484.759765 167.808041,484.923828 C168.114683,485.087891 168.34222,485.285155 168.490658,485.515625 C168.639096,485.746095 168.713314,486.025389 168.713314,486.353516 C168.713314,486.888675 168.497496,487.316405 168.065853,487.636719 C167.63421,487.957033 167.070739,488.117188 166.375423,488.117188 C165.637138,488.117188 165.038512,487.938478 164.579525,487.581055 C164.120538,487.223631 163.891048,486.771487 163.891048,486.224609 L164.594173,486.224609 C164.621517,486.634768 164.794367,486.9541 165.112728,487.182617 C165.431089,487.411134 165.851983,487.525391 166.375423,487.525391 C166.863707,487.525391 167.258234,487.41797 167.559017,487.203125 C167.8598,486.98828 168.010189,486.716799 168.010189,486.388672 Z" id="Headlands"></path>
        </g>
    </g>
</svg>