<?xml version="1.0" encoding="UTF-8"?>
<svg width="82px" height="12px" viewBox="0 0 82 12" version="1.1" xmlns="http://www.w3.org/2000/svg" xmlns:xlink="http://www.w3.org/1999/xlink">
    <!-- Generator: Sketch 41.2 (35397) - http://www.bohemiancoding.com/sketch -->
    <title>Campgroung</title>
    <desc>Created with Sketch.</desc>
    <defs></defs>
    <g id="Page-1" stroke="none" stroke-width="1" fill="none" fill-rule="evenodd">
        <g id="index-1-rast" transform="translate(-249.000000, -553.000000)" fill="#FFFFFF">
            <path d="M256.119141,559.339844 C256.021484,560.238286 255.700198,560.925779 255.155273,561.402344 C254.610349,561.878909 253.88477,562.117188 252.978516,562.117188 C252.3457,562.117188 251.786135,561.958986 251.299805,561.642578 C250.813474,561.32617 250.437501,560.877933 250.171875,560.297852 C249.906249,559.717771 249.771484,559.054691 249.767578,558.308594 L249.767578,557.201172 C249.767578,556.443356 249.900389,555.771487 250.166016,555.185547 C250.431642,554.599606 250.813474,554.147463 251.311523,553.829102 C251.809573,553.510741 252.382809,553.351562 253.03125,553.351562 C253.945317,553.351562 254.66699,553.59863 255.196289,554.092773 C255.725589,554.586917 256.033203,555.269527 256.119141,556.140625 L255.392578,556.140625 C255.21289,554.691399 254.425788,553.966797 253.03125,553.966797 C252.257809,553.966797 251.641604,554.255856 251.182617,554.833984 C250.723631,555.412112 250.494141,556.210932 250.494141,557.230469 L250.494141,558.273438 C250.494141,559.257817 250.717771,560.042966 251.165039,560.628906 C251.612307,561.214847 252.216793,561.507812 252.978516,561.507812 C253.732426,561.507812 254.300779,561.32715 254.683594,560.96582 C255.066408,560.60449 255.302734,560.062504 255.392578,559.339844 L256.119141,559.339844 Z M263.226127,562 C263.155814,561.80078 263.110893,561.505861 263.091362,561.115234 C262.845267,561.435548 262.531793,561.682616 262.150932,561.856445 C261.770071,562.030274 261.366754,562.117188 260.940971,562.117188 C260.331593,562.117188 259.838434,561.947267 259.461479,561.607422 C259.084524,561.267576 258.896049,560.837893 258.896049,560.318359 C258.896049,559.701169 259.152882,559.212892 259.666557,558.853516 C260.180231,558.494139 260.896044,558.314453 261.814018,558.314453 L263.085502,558.314453 L263.085502,557.59375 C263.085502,557.140623 262.945855,556.784181 262.666557,556.524414 C262.387259,556.264647 261.980036,556.134766 261.444877,556.134766 C260.956593,556.134766 260.552301,556.259764 260.231987,556.509766 C259.911672,556.759767 259.751518,557.060545 259.751518,557.412109 L259.048393,557.40625 C259.048393,556.902341 259.282765,556.465822 259.751518,556.09668 C260.22027,555.727537 260.796436,555.542969 261.480033,555.542969 C262.187068,555.542969 262.74468,555.719725 263.152885,556.073242 C263.56109,556.42676 263.771049,556.919919 263.782768,557.552734 L263.782768,560.552734 C263.782768,561.166019 263.84722,561.624998 263.976127,561.929688 L263.976127,562 L263.226127,562 Z M261.023002,561.496094 C261.491754,561.496094 261.910696,561.382814 262.279838,561.15625 C262.648981,560.929686 262.917533,560.626955 263.085502,560.248047 L263.085502,558.853516 L261.831596,558.853516 C261.132374,558.861328 260.585504,558.989257 260.190971,559.237305 C259.796438,559.485353 259.599174,559.82617 259.599174,560.259766 C259.599174,560.615236 259.731009,560.910155 259.994682,561.144531 C260.258355,561.378907 260.601125,561.496094 261.023002,561.496094 Z M267.807723,555.660156 L267.831161,556.691406 C268.065537,556.308592 268.358503,556.021485 268.710067,555.830078 C269.061631,555.638671 269.452252,555.542969 269.881942,555.542969 C270.881947,555.542969 271.516706,555.953121 271.786239,556.773438 C272.012802,556.378904 272.315534,556.075196 272.694442,555.862305 C273.07335,555.649413 273.491315,555.542969 273.948348,555.542969 C275.30773,555.542969 276.001082,556.285149 276.028426,557.769531 L276.028426,562 L275.325301,562 L275.325301,557.822266 C275.321395,557.255857 275.199326,556.835939 274.95909,556.5625 C274.718855,556.289061 274.327257,556.152344 273.784286,556.152344 C273.280377,556.160156 272.8546,556.323241 272.506942,556.641602 C272.159284,556.959963 271.965926,557.347654 271.926864,557.804688 L271.926864,562 L271.223739,562 L271.223739,557.769531 C271.219832,557.22656 271.091904,556.82129 270.83995,556.553711 C270.587995,556.286131 270.200304,556.152344 269.676864,556.152344 C269.235455,556.152344 268.856553,556.278319 268.540145,556.530273 C268.223737,556.782228 267.989364,557.156248 267.83702,557.652344 L267.83702,562 L267.133895,562 L267.133895,555.660156 L267.807723,555.660156 Z M284.418616,558.894531 C284.418616,559.882817 284.199868,560.666989 283.762366,561.24707 C283.324864,561.827151 282.738932,562.117188 282.004553,562.117188 C281.137361,562.117188 280.473306,561.812503 280.012366,561.203125 L280.012366,564.4375 L279.3151,564.4375 L279.3151,555.660156 L279.965491,555.660156 L280.000647,556.556641 C280.457681,555.880856 281.119783,555.542969 281.986975,555.542969 C282.744791,555.542969 283.339512,555.830075 283.771155,556.404297 C284.202798,556.978518 284.418616,557.775386 284.418616,558.794922 L284.418616,558.894531 Z M283.715491,558.771484 C283.715491,557.962887 283.549477,557.324221 283.217444,556.855469 C282.885411,556.386716 282.422525,556.152344 281.828772,556.152344 C281.399082,556.152344 281.029945,556.255858 280.72135,556.462891 C280.412755,556.669923 280.176429,556.970701 280.012366,557.365234 L280.012366,560.40625 C280.180335,560.769533 280.420567,561.046874 280.733069,561.238281 C281.045571,561.429688 281.414707,561.525391 281.840491,561.525391 C282.430338,561.525391 282.890294,561.290041 283.220374,560.819336 C283.550453,560.34863 283.715491,559.66602 283.715491,558.771484 Z M287.207243,558.771484 C287.207243,557.779292 287.426967,556.993167 287.866423,556.413086 C288.305878,555.833005 288.902552,555.542969 289.656462,555.542969 C290.519747,555.542969 291.175991,555.886715 291.625212,556.574219 L291.660368,555.660156 L292.316618,555.660156 L292.316618,561.871094 C292.316618,562.687504 292.088105,563.333982 291.631071,563.810547 C291.174038,564.287112 290.554903,564.525391 289.773649,564.525391 C289.332241,564.525391 288.911347,564.426759 288.510954,564.229492 C288.110561,564.032226 287.795135,563.769533 287.564665,563.441406 L287.957243,563.019531 C288.453339,563.628909 289.043177,563.933594 289.726774,563.933594 C290.312715,563.933594 290.769741,563.760744 291.097868,563.415039 C291.425995,563.069334 291.595915,562.589847 291.607634,561.976562 L291.607634,561.179688 C291.158413,561.804691 290.504122,562.117188 289.644743,562.117188 C288.910364,562.117188 288.320526,561.824222 287.875212,561.238281 C287.429897,560.652341 287.207243,559.861333 287.207243,558.865234 L287.207243,558.771484 Z M287.916227,558.894531 C287.916227,559.703129 288.078335,560.340818 288.402555,560.807617 C288.726776,561.274416 289.183803,561.507812 289.773649,561.507812 C290.636935,561.507812 291.248257,561.121098 291.607634,560.347656 L291.607634,557.400391 C291.44357,556.994139 291.207245,556.684571 290.898649,556.47168 C290.590054,556.258788 290.218964,556.152344 289.785368,556.152344 C289.195521,556.152344 288.736541,556.383787 288.408415,556.84668 C288.080288,557.309573 287.916227,557.992183 287.916227,558.894531 Z M298.591573,556.257812 C298.443135,556.230469 298.284933,556.216797 298.116964,556.216797 C297.679462,556.216797 297.309348,556.338866 297.006612,556.583008 C296.703876,556.82715 296.488058,557.181638 296.359151,557.646484 L296.359151,562 L295.661886,562 L295.661886,555.660156 L296.347433,555.660156 L296.359151,556.667969 C296.730247,555.917965 297.325944,555.542969 298.146261,555.542969 C298.341574,555.542969 298.49587,555.568359 298.609151,555.619141 L298.591573,556.257812 Z M300.712232,558.736328 C300.712232,558.12695 300.830395,557.578127 301.066724,557.089844 C301.303053,556.60156 301.637034,556.221681 302.068677,555.950195 C302.50032,555.67871 302.989573,555.542969 303.53645,555.542969 C304.380205,555.542969 305.063792,555.838864 305.587232,556.430664 C306.110672,557.022464 306.372388,557.806636 306.372388,558.783203 L306.372388,558.929688 C306.372388,559.542972 306.254225,560.094724 306.017896,560.584961 C305.781566,561.075198 305.448562,561.453124 305.018872,561.71875 C304.589183,561.984376 304.098953,562.117188 303.548169,562.117188 C302.708321,562.117188 302.025711,561.821292 301.500318,561.229492 C300.974924,560.637692 300.712232,559.853521 300.712232,558.876953 L300.712232,558.736328 Z M301.415357,558.929688 C301.415357,559.687504 301.611644,560.309568 302.004224,560.795898 C302.396804,561.282229 302.911447,561.525391 303.548169,561.525391 C304.180985,561.525391 304.693675,561.282229 305.086255,560.795898 C305.478835,560.309568 305.675122,559.667973 305.675122,558.871094 L305.675122,558.736328 C305.675122,558.251951 305.585279,557.808596 305.405591,557.40625 C305.225903,557.003904 304.973952,556.692384 304.649732,556.47168 C304.325511,556.250975 303.954421,556.140625 303.53645,556.140625 C302.911447,556.140625 302.401687,556.38574 302.007154,556.875977 C301.61262,557.366213 301.415357,558.007809 301.415357,558.800781 L301.415357,558.929688 Z M313.414921,561.197266 C312.993044,561.81055 312.319223,562.117188 311.393437,562.117188 C310.717652,562.117188 310.203986,561.9209 309.852421,561.52832 C309.500857,561.13574 309.321171,560.554691 309.313359,559.785156 L309.313359,555.660156 L310.010624,555.660156 L310.010624,559.697266 C310.010624,560.904303 310.498901,561.507812 311.475468,561.507812 C312.491098,561.507812 313.13367,561.087895 313.403203,560.248047 L313.403203,555.660156 L314.106328,555.660156 L314.106328,562 L313.42664,562 L313.414921,561.197266 Z M318.113705,555.660156 L318.137142,556.744141 C318.375425,556.353514 318.672297,556.055665 319.027767,555.850586 C319.383238,555.645507 319.775812,555.542969 320.205502,555.542969 C320.885192,555.542969 321.391047,555.734373 321.72308,556.117188 C322.055113,556.500002 322.22308,557.074215 322.226986,557.839844 L322.226986,562 L321.52972,562 L321.52972,557.833984 C321.525814,557.267575 321.405698,556.845705 321.169369,556.568359 C320.933039,556.291014 320.555114,556.152344 320.03558,556.152344 C319.601984,556.152344 319.218199,556.288085 318.884212,556.55957 C318.550226,556.831056 318.303159,557.197263 318.143002,557.658203 L318.143002,562 L317.445736,562 L317.445736,555.660156 L318.113705,555.660156 Z M325.273426,558.771484 C325.273426,557.779292 325.49315,556.993167 325.932605,556.413086 C326.372061,555.833005 326.968734,555.542969 327.722644,555.542969 C328.58593,555.542969 329.242173,555.886715 329.691394,556.574219 L329.726551,555.660156 L330.382801,555.660156 L330.382801,561.871094 C330.382801,562.687504 330.154287,563.333982 329.697254,563.810547 C329.24022,564.287112 328.621086,564.525391 327.839832,564.525391 C327.398423,564.525391 326.977529,564.426759 326.577137,564.229492 C326.176744,564.032226 325.861317,563.769533 325.630847,563.441406 L326.023426,563.019531 C326.519522,563.628909 327.10936,563.933594 327.792957,563.933594 C328.378897,563.933594 328.835924,563.760744 329.164051,563.415039 C329.492177,563.069334 329.662097,562.589847 329.673816,561.976562 L329.673816,561.179688 C329.224595,561.804691 328.570305,562.117188 327.710926,562.117188 C326.976547,562.117188 326.386709,561.824222 325.941394,561.238281 C325.49608,560.652341 325.273426,559.861333 325.273426,558.865234 L325.273426,558.771484 Z M325.98241,558.894531 C325.98241,559.703129 326.144518,560.340818 326.468738,560.807617 C326.792958,561.274416 327.249985,561.507812 327.839832,561.507812 C328.703117,561.507812 329.314439,561.121098 329.673816,560.347656 L329.673816,557.400391 C329.509753,556.994139 329.273427,556.684571 328.964832,556.47168 C328.656237,556.258788 328.285146,556.152344 327.851551,556.152344 C327.261704,556.152344 326.802724,556.383787 326.474597,556.84668 C326.146471,557.309573 325.98241,557.992183 325.98241,558.894531 Z" id="Campgroung"></path>
        </g>
    </g>
</svg>