<?xml version="1.0" encoding="UTF-8"?>
<svg width="84px" height="12px" viewBox="0 0 84 12" version="1.1" xmlns="http://www.w3.org/2000/svg" xmlns:xlink="http://www.w3.org/1999/xlink">
    <!-- Generator: Sketch 41.2 (35397) - http://www.bohemiancoding.com/sketch -->
    <title>Saint George</title>
    <desc>Created with Sketch.</desc>
    <defs></defs>
    <g id="Page-1" stroke="none" stroke-width="1" fill="none" fill-rule="evenodd">
        <g id="Desktop-HD" transform="translate(-105.000000, -772.000000)" fill="#FFFFFF">
            <path d="M110.90625,778.902344 C110.90625,778.429685 110.740236,778.055665 110.408203,777.780273 C110.07617,777.504881 109.468754,777.243165 108.585938,776.995117 C107.703121,776.747069 107.058596,776.476564 106.652344,776.183594 C106.074216,775.769529 105.785156,775.226566 105.785156,774.554688 C105.785156,773.90234 106.053708,773.372072 106.59082,772.963867 C107.127932,772.555662 107.814449,772.351562 108.650391,772.351562 C109.2168,772.351562 109.723631,772.460936 110.170898,772.679688 C110.618166,772.898439 110.964843,773.203123 111.210938,773.59375 C111.457032,773.984377 111.580078,774.419919 111.580078,774.900391 L110.853516,774.900391 C110.853516,774.318356 110.654299,773.850588 110.255859,773.49707 C109.85742,773.143553 109.322269,772.966797 108.650391,772.966797 C107.998044,772.966797 107.478518,773.112303 107.091797,773.40332 C106.705076,773.694337 106.511719,774.074216 106.511719,774.542969 C106.511719,774.976565 106.685545,775.330077 107.033203,775.603516 C107.380861,775.876954 107.937496,776.118163 108.703125,776.327148 C109.468754,776.536134 110.048826,776.752929 110.443359,776.977539 C110.837893,777.20215 111.134765,777.470702 111.333984,777.783203 C111.533204,778.095705 111.632812,778.464842 111.632812,778.890625 C111.632812,779.562503 111.36426,780.10156 110.827148,780.507812 C110.290036,780.914065 109.582036,781.117188 108.703125,781.117188 C108.101559,781.117188 107.549807,781.009767 107.047852,780.794922 C106.545896,780.580077 106.16504,780.279299 105.905273,779.892578 C105.645507,779.505857 105.515625,779.062503 105.515625,778.5625 L106.236328,778.5625 C106.236328,779.164066 106.460935,779.63867 106.910156,779.986328 C107.359377,780.333986 107.957028,780.507812 108.703125,780.507812 C109.367191,780.507812 109.900389,780.36133 110.302734,780.068359 C110.70508,779.775389 110.90625,779.386721 110.90625,778.902344 Z M118.54058,781 C118.470267,780.80078 118.425346,780.505861 118.405815,780.115234 C118.15972,780.435548 117.846246,780.682616 117.465385,780.856445 C117.084524,781.030274 116.681207,781.117188 116.255424,781.117188 C115.646046,781.117188 115.152887,780.947267 114.775932,780.607422 C114.398977,780.267576 114.210502,779.837893 114.210502,779.318359 C114.210502,778.701169 114.467336,778.212892 114.98101,777.853516 C115.494684,777.494139 116.210498,777.314453 117.128471,777.314453 L118.399955,777.314453 L118.399955,776.59375 C118.399955,776.140623 118.260308,775.784181 117.98101,775.524414 C117.701712,775.264647 117.294489,775.134766 116.75933,775.134766 C116.271047,775.134766 115.866754,775.259764 115.54644,775.509766 C115.226126,775.759767 115.065971,776.060545 115.065971,776.412109 L114.362846,776.40625 C114.362846,775.902341 114.597219,775.465822 115.065971,775.09668 C115.534723,774.727537 116.110889,774.542969 116.794487,774.542969 C117.501521,774.542969 118.059133,774.719725 118.467338,775.073242 C118.875543,775.42676 119.085502,775.919919 119.097221,776.552734 L119.097221,779.552734 C119.097221,780.166019 119.161673,780.624998 119.29058,780.929688 L119.29058,781 L118.54058,781 Z M116.337455,780.496094 C116.806208,780.496094 117.225149,780.382814 117.594291,780.15625 C117.963434,779.929686 118.231986,779.626955 118.399955,779.248047 L118.399955,777.853516 L117.146049,777.853516 C116.446827,777.861328 115.899957,777.989257 115.505424,778.237305 C115.110891,778.485353 114.913627,778.82617 114.913627,779.259766 C114.913627,779.615236 115.045462,779.910155 115.309135,780.144531 C115.572808,780.378907 115.915578,780.496094 116.337455,780.496094 Z M123.268661,781 L122.565536,781 L122.565536,774.660156 L123.268661,774.660156 L123.268661,781 Z M122.442489,772.826172 C122.442489,772.693359 122.485457,772.581055 122.571395,772.489258 C122.657333,772.39746 122.774519,772.351562 122.922957,772.351562 C123.071396,772.351562 123.189559,772.39746 123.27745,772.489258 C123.365341,772.581055 123.409286,772.693359 123.409286,772.826172 C123.409286,772.958985 123.365341,773.070312 123.27745,773.160156 C123.189559,773.25 123.071396,773.294922 122.922957,773.294922 C122.774519,773.294922 122.657333,773.25 122.571395,773.160156 C122.485457,773.070312 122.442489,772.958985 122.442489,772.826172 Z M127.358069,774.660156 L127.381506,775.744141 C127.619789,775.353514 127.916661,775.055665 128.272131,774.850586 C128.627602,774.645507 129.020176,774.542969 129.449866,774.542969 C130.129557,774.542969 130.635411,774.734373 130.967444,775.117188 C131.299477,775.500002 131.467444,776.074215 131.47135,776.839844 L131.47135,781 L130.774085,781 L130.774085,776.833984 C130.770178,776.267575 130.650062,775.845705 130.413733,775.568359 C130.177404,775.291014 129.799478,775.152344 129.279944,775.152344 C128.846348,775.152344 128.462563,775.288085 128.128577,775.55957 C127.794591,775.831056 127.547523,776.197263 127.387366,776.658203 L127.387366,781 L126.6901,781 L126.6901,774.660156 L127.358069,774.660156 Z M135.888884,773.037109 L135.888884,774.660156 L137.201384,774.660156 L137.201384,775.234375 L135.888884,775.234375 L135.888884,779.458984 C135.888884,779.810549 135.95236,780.072265 136.079313,780.244141 C136.206267,780.416016 136.418179,780.501953 136.715055,780.501953 C136.832244,780.501953 137.021695,780.482422 137.283415,780.443359 L137.312712,781.017578 C137.129117,781.083985 136.87912,781.117188 136.562712,781.117188 C136.082241,781.117188 135.732635,780.97754 135.513884,780.698242 C135.295132,780.418944 135.185759,780.007815 135.185759,779.464844 L135.185759,775.234375 L134.019743,775.234375 L134.019743,774.660156 L135.185759,774.660156 L135.185759,773.037109 L135.888884,773.037109 Z M150.929029,779.986328 C150.679027,780.341799 150.28743,780.61914 149.754224,780.818359 C149.221018,781.017579 148.624344,781.117188 147.964185,781.117188 C147.296213,781.117188 146.702469,780.957033 146.182935,780.636719 C145.663401,780.316405 145.261061,779.863284 144.975904,779.277344 C144.690746,778.691403 144.546216,778.019535 144.54231,777.261719 L144.54231,776.183594 C144.54231,774.999994 144.841135,774.065433 145.438794,773.379883 C146.036453,772.694333 146.83918,772.351562 147.846997,772.351562 C148.725908,772.351562 149.432932,772.575193 149.968091,773.022461 C150.50325,773.469729 150.821606,774.085934 150.923169,774.871094 L150.202466,774.871094 C150.096997,774.246091 149.842116,773.772463 149.437818,773.450195 C149.033519,773.127928 148.505204,772.966797 147.852857,772.966797 C147.055978,772.966797 146.425125,773.249997 145.960279,773.816406 C145.495432,774.382815 145.263013,775.181635 145.263013,776.212891 L145.263013,777.220703 C145.263013,777.869144 145.373363,778.44238 145.594068,778.94043 C145.814772,779.438479 146.131175,779.824217 146.543286,780.097656 C146.955398,780.371095 147.429026,780.507812 147.964185,780.507812 C148.585282,780.507812 149.118479,780.410157 149.563794,780.214844 C149.852858,780.085937 150.0677,779.935548 150.208325,779.763672 L150.208325,777.560547 L147.91731,777.560547 L147.91731,776.951172 L150.929029,776.951172 L150.929029,779.986328 Z M156.782109,781.117188 C156.243044,781.117188 155.755744,780.984376 155.320195,780.71875 C154.884646,780.453124 154.545782,780.08301 154.303593,779.608398 C154.061404,779.133787 153.940312,778.601565 153.940312,778.011719 L153.940312,777.759766 C153.940312,777.150388 154.058475,776.601565 154.294804,776.113281 C154.531133,775.624998 154.860232,775.241212 155.282109,774.961914 C155.703986,774.682616 156.161013,774.542969 156.653203,774.542969 C157.422738,774.542969 158.033083,774.805661 158.484257,775.331055 C158.935431,775.856448 159.161015,776.574214 159.161015,777.484375 L159.161015,777.876953 L154.637578,777.876953 L154.637578,778.011719 C154.637578,778.730472 154.84363,779.329099 155.255742,779.807617 C155.667853,780.286135 156.186403,780.525391 156.811406,780.525391 C157.186408,780.525391 157.517459,780.457032 157.80457,780.320312 C158.091681,780.183593 158.35242,779.964845 158.586796,779.664062 L159.026249,779.998047 C158.510622,780.744144 157.762582,781.117188 156.782109,781.117188 Z M156.653203,775.140625 C156.125856,775.140625 155.681525,775.333982 155.320195,775.720703 C154.958865,776.107424 154.73914,776.62695 154.661015,777.279297 L158.463749,777.279297 L158.463749,777.203125 C158.444218,776.593747 158.270392,776.097658 157.942265,775.714844 C157.614138,775.332029 157.184455,775.140625 156.653203,775.140625 Z M161.656673,777.736328 C161.656673,777.12695 161.774836,776.578127 162.011166,776.089844 C162.247495,775.60156 162.581476,775.221681 163.013119,774.950195 C163.444762,774.67871 163.934014,774.542969 164.480892,774.542969 C165.324646,774.542969 166.008233,774.838864 166.531673,775.430664 C167.055114,776.022464 167.31683,776.806636 167.31683,777.783203 L167.31683,777.929688 C167.31683,778.542972 167.198667,779.094724 166.962337,779.584961 C166.726008,780.075198 166.393004,780.453124 165.963314,780.71875 C165.533624,780.984376 165.043395,781.117188 164.492611,781.117188 C163.652763,781.117188 162.970153,780.821292 162.444759,780.229492 C161.919366,779.637692 161.656673,778.853521 161.656673,777.876953 L161.656673,777.736328 Z M162.359798,777.929688 C162.359798,778.687504 162.556086,779.309568 162.948666,779.795898 C163.341246,780.282229 163.855889,780.525391 164.492611,780.525391 C165.125427,780.525391 165.638117,780.282229 166.030697,779.795898 C166.423277,779.309568 166.619564,778.667973 166.619564,777.871094 L166.619564,777.736328 C166.619564,777.251951 166.529721,776.808596 166.350033,776.40625 C166.170344,776.003904 165.918394,775.692384 165.594173,775.47168 C165.269953,775.250975 164.898863,775.140625 164.480892,775.140625 C163.855889,775.140625 163.346129,775.38574 162.951595,775.875977 C162.557062,776.366213 162.359798,777.007809 162.359798,777.800781 L162.359798,777.929688 Z M173.210926,775.257812 C173.062487,775.230469 172.904286,775.216797 172.736316,775.216797 C172.298814,775.216797 171.928701,775.338866 171.625965,775.583008 C171.323229,775.82715 171.107411,776.181638 170.978504,776.646484 L170.978504,781 L170.281238,781 L170.281238,774.660156 L170.966785,774.660156 L170.978504,775.667969 C171.349599,774.917965 171.945296,774.542969 172.765613,774.542969 C172.960927,774.542969 173.115222,774.568359 173.228504,774.619141 L173.210926,775.257812 Z M175.442912,777.771484 C175.442912,776.779292 175.662636,775.993167 176.102092,775.413086 C176.541547,774.833005 177.138221,774.542969 177.892131,774.542969 C178.755416,774.542969 179.41166,774.886715 179.860881,775.574219 L179.896037,774.660156 L180.552287,774.660156 L180.552287,780.871094 C180.552287,781.687504 180.323774,782.333982 179.86674,782.810547 C179.409707,783.287112 178.790572,783.525391 178.009318,783.525391 C177.56791,783.525391 177.147016,783.426759 176.746623,783.229492 C176.34623,783.032226 176.030804,782.769533 175.800334,782.441406 L176.192912,782.019531 C176.689008,782.628909 177.278846,782.933594 177.962443,782.933594 C178.548384,782.933594 179.00541,782.760744 179.333537,782.415039 C179.661664,782.069334 179.831584,781.589847 179.843303,780.976562 L179.843303,780.179688 C179.394082,780.804691 178.739791,781.117188 177.880412,781.117188 C177.146033,781.117188 176.556196,780.824222 176.110881,780.238281 C175.665566,779.652341 175.442912,778.861333 175.442912,777.865234 L175.442912,777.771484 Z M176.151896,777.894531 C176.151896,778.703129 176.314004,779.340818 176.638225,779.807617 C176.962445,780.274416 177.419472,780.507812 178.009318,780.507812 C178.872604,780.507812 179.483926,780.121098 179.843303,779.347656 L179.843303,776.400391 C179.679239,775.994139 179.442914,775.684571 179.134318,775.47168 C178.825723,775.258788 178.454633,775.152344 178.021037,775.152344 C177.43119,775.152344 176.972211,775.383787 176.644084,775.84668 C176.315957,776.309573 176.151896,776.992183 176.151896,777.894531 Z M186.352633,781.117188 C185.813568,781.117188 185.326268,780.984376 184.890719,780.71875 C184.45517,780.453124 184.116306,780.08301 183.874117,779.608398 C183.631929,779.133787 183.510836,778.601565 183.510836,778.011719 L183.510836,777.759766 C183.510836,777.150388 183.628999,776.601565 183.865328,776.113281 C184.101658,775.624998 184.430756,775.241212 184.852633,774.961914 C185.27451,774.682616 185.731537,774.542969 186.223727,774.542969 C186.993262,774.542969 187.603607,774.805661 188.054781,775.331055 C188.505956,775.856448 188.731539,776.574214 188.731539,777.484375 L188.731539,777.876953 L184.208102,777.876953 L184.208102,778.011719 C184.208102,778.730472 184.414154,779.329099 184.826266,779.807617 C185.238377,780.286135 185.756927,780.525391 186.38193,780.525391 C186.756932,780.525391 187.087983,780.457032 187.375094,780.320312 C187.662205,780.183593 187.922944,779.964845 188.15732,779.664062 L188.596774,779.998047 C188.081146,780.744144 187.333107,781.117188 186.352633,781.117188 Z M186.223727,775.140625 C185.69638,775.140625 185.252049,775.333982 184.890719,775.720703 C184.529389,776.107424 184.309665,776.62695 184.231539,777.279297 L188.034274,777.279297 L188.034274,777.203125 C188.014742,776.593747 187.840916,776.097658 187.512789,775.714844 C187.184663,775.332029 186.754979,775.140625 186.223727,775.140625 Z" id="Saint-George"></path>
        </g>
    </g>
</svg>