<?xml version="1.0" encoding="UTF-8"?>
<svg width="131px" height="12px" viewBox="0 0 131 12" version="1.1" xmlns="http://www.w3.org/2000/svg" xmlns:xlink="http://www.w3.org/1999/xlink">
    <!-- Generator: Sketch 41.2 (35397) - http://www.bohemiancoding.com/sketch -->
    <title>Mystical Experience</title>
    <desc>Created with Sketch.</desc>
    <defs></defs>
    <g id="Page-1" stroke="none" stroke-width="1" fill="none" fill-rule="evenodd">
        <g id="Desktop-HD-Copy" transform="translate(-483.000000, -389.000000)" fill="#FFFFFF">
            <path d="M484.033203,389.46875 L487.179688,396.998047 L490.337891,389.46875 L491.298828,389.46875 L491.298828,398 L490.578125,398 L490.578125,394.285156 L490.636719,390.476562 L487.460938,398 L486.904297,398 L483.740234,390.505859 L483.798828,394.261719 L483.798828,398 L483.078125,398 L483.078125,389.46875 L484.033203,389.46875 Z M496.823783,396.992188 L498.675346,391.660156 L499.431205,391.660156 L496.724174,399.078125 L496.583549,399.40625 C496.235891,400.175785 495.698787,400.560547 494.972221,400.560547 C494.804251,400.560547 494.624566,400.533203 494.433158,400.478516 L494.427299,399.898438 L494.79058,399.933594 C495.134332,399.933594 495.41265,399.848634 495.625541,399.678711 C495.838433,399.508788 496.019095,399.216799 496.167533,398.802734 L496.47808,397.947266 L494.087455,391.660156 L494.855033,391.660156 L496.823783,396.992188 Z M505.829207,396.388672 C505.829207,396.041014 505.68956,395.76172 505.410262,395.550781 C505.130964,395.339843 504.71007,395.174805 504.147567,395.055664 C503.585064,394.936523 503.148545,394.799805 502.837996,394.645508 C502.527448,394.49121 502.296982,394.302735 502.14659,394.080078 C501.996199,393.857421 501.921004,393.587892 501.921004,393.271484 C501.921004,392.771482 502.129987,392.3584 502.547957,392.032227 C502.965928,391.706053 503.501079,391.542969 504.153426,391.542969 C504.860461,391.542969 505.427838,391.717772 505.855575,392.067383 C506.283311,392.416994 506.497176,392.873044 506.497176,393.435547 L505.794051,393.435547 C505.794051,393.064451 505.638779,392.755861 505.328231,392.509766 C505.017682,392.263671 504.626085,392.140625 504.153426,392.140625 C503.692486,392.140625 503.322373,392.243163 503.043075,392.448242 C502.763776,392.653321 502.624129,392.91992 502.624129,393.248047 C502.624129,393.564455 502.740339,393.809569 502.972762,393.983398 C503.205185,394.157227 503.629009,394.316406 504.244246,394.460938 C504.859484,394.605469 505.320417,394.759765 505.627059,394.923828 C505.933701,395.087891 506.161238,395.285155 506.309676,395.515625 C506.458114,395.746095 506.532332,396.025389 506.532332,396.353516 C506.532332,396.888675 506.316514,397.316405 505.884871,397.636719 C505.453229,397.957033 504.889758,398.117188 504.194442,398.117188 C503.456157,398.117188 502.85753,397.938478 502.398543,397.581055 C501.939557,397.223631 501.710067,396.771487 501.710067,396.224609 L502.413192,396.224609 C502.440536,396.634768 502.613386,396.9541 502.931746,397.182617 C503.250107,397.411134 503.671002,397.525391 504.194442,397.525391 C504.682725,397.525391 505.077253,397.41797 505.378036,397.203125 C505.678818,396.98828 505.829207,396.716799 505.829207,396.388672 Z M510.715491,390.037109 L510.715491,391.660156 L512.027991,391.660156 L512.027991,392.234375 L510.715491,392.234375 L510.715491,396.458984 C510.715491,396.810549 510.778967,397.072265 510.905921,397.244141 C511.032874,397.416016 511.244786,397.501953 511.541663,397.501953 C511.658851,397.501953 511.848302,397.482422 512.110022,397.443359 L512.139319,398.017578 C511.955724,398.083985 511.705727,398.117188 511.389319,398.117188 C510.908848,398.117188 510.559242,397.97754 510.340491,397.698242 C510.12174,397.418944 510.012366,397.007815 510.012366,396.464844 L510.012366,392.234375 L508.84635,392.234375 L508.84635,391.660156 L510.012366,391.660156 L510.012366,390.037109 L510.715491,390.037109 Z M515.783415,398 L515.08029,398 L515.08029,391.660156 L515.783415,391.660156 L515.783415,398 Z M514.957243,389.826172 C514.957243,389.693359 515.000211,389.581055 515.086149,389.489258 C515.172087,389.39746 515.289273,389.351562 515.437712,389.351562 C515.58615,389.351562 515.704313,389.39746 515.792204,389.489258 C515.880095,389.581055 515.92404,389.693359 515.92404,389.826172 C515.92404,389.958985 515.880095,390.070312 515.792204,390.160156 C515.704313,390.25 515.58615,390.294922 515.437712,390.294922 C515.289273,390.294922 515.172087,390.25 515.086149,390.160156 C515.000211,390.070312 514.957243,389.958985 514.957243,389.826172 Z M521.548604,397.525391 C522.036888,397.525391 522.446064,397.387697 522.776144,397.112305 C523.106223,396.836913 523.284932,396.480471 523.312276,396.042969 L523.986104,396.042969 C523.966573,396.429689 523.845481,396.782225 523.622823,397.100586 C523.400166,397.418947 523.10427,397.667968 522.735128,397.847656 C522.365985,398.027345 521.970482,398.117188 521.548604,398.117188 C520.716569,398.117188 520.057396,397.828128 519.571065,397.25 C519.084735,396.671872 518.841573,395.894536 518.841573,394.917969 L518.841573,394.707031 C518.841573,394.082028 518.950947,393.529299 519.169698,393.048828 C519.388449,392.568357 519.701923,392.197267 520.110128,391.935547 C520.518333,391.673827 520.995867,391.542969 521.542745,391.542969 C522.238061,391.542969 522.811298,391.749998 523.262472,392.164062 C523.713646,392.578127 523.954854,393.123043 523.986104,393.798828 L523.312276,393.798828 C523.281026,393.302732 523.102317,392.902345 522.776144,392.597656 C522.44997,392.292967 522.038841,392.140625 521.542745,392.140625 C520.909929,392.140625 520.418723,392.369138 520.069112,392.826172 C519.719501,393.283205 519.544698,393.923824 519.544698,394.748047 L519.544698,394.953125 C519.544698,395.761723 519.719501,396.392576 520.069112,396.845703 C520.418723,397.29883 520.911883,397.525391 521.548604,397.525391 Z M530.905591,398 C530.835278,397.80078 530.790357,397.505861 530.770825,397.115234 C530.52473,397.435548 530.211257,397.682616 529.830396,397.856445 C529.449534,398.030274 529.046218,398.117188 528.620435,398.117188 C528.011057,398.117188 527.517898,397.947267 527.140943,397.607422 C526.763988,397.267576 526.575513,396.837893 526.575513,396.318359 C526.575513,395.701169 526.832346,395.212892 527.346021,394.853516 C527.859695,394.494139 528.575508,394.314453 529.493482,394.314453 L530.764966,394.314453 L530.764966,393.59375 C530.764966,393.140623 530.625319,392.784181 530.346021,392.524414 C530.066722,392.264647 529.6595,392.134766 529.124341,392.134766 C528.636057,392.134766 528.231764,392.259764 527.91145,392.509766 C527.591136,392.759767 527.430982,393.060545 527.430982,393.412109 L526.727857,393.40625 C526.727857,392.902341 526.962229,392.465822 527.430982,392.09668 C527.899734,391.727537 528.4759,391.542969 529.159497,391.542969 C529.866532,391.542969 530.424144,391.719725 530.832349,392.073242 C531.240554,392.42676 531.450513,392.919919 531.462232,393.552734 L531.462232,396.552734 C531.462232,397.166019 531.526684,397.624998 531.655591,397.929688 L531.655591,398 L530.905591,398 Z M528.702466,397.496094 C529.171218,397.496094 529.590159,397.382814 529.959302,397.15625 C530.328444,396.929686 530.596996,396.626955 530.764966,396.248047 L530.764966,394.853516 L529.51106,394.853516 C528.811838,394.861328 528.264968,394.989257 527.870435,395.237305 C527.475902,395.485353 527.278638,395.82617 527.278638,396.259766 C527.278638,396.615236 527.410473,396.910155 527.674146,397.144531 C527.937819,397.378907 528.280589,397.496094 528.702466,397.496094 Z M535.633671,398 L534.930546,398 L534.930546,389 L535.633671,389 L535.633671,398 Z M548.365222,393.910156 L544.374988,393.910156 L544.374988,397.390625 L548.962879,397.390625 L548.962879,398 L543.654285,398 L543.654285,389.46875 L548.933582,389.46875 L548.933582,390.083984 L544.374988,390.083984 L544.374988,393.300781 L548.365222,393.300781 L548.365222,393.910156 Z M553.825725,394.232422 L555.536662,391.660156 L556.368693,391.660156 L554.218303,394.771484 L556.462443,398 L555.636271,398 L553.831584,395.316406 L552.026896,398 L551.200725,398 L553.439006,394.771484 L551.288615,391.660156 L552.114787,391.660156 L553.825725,394.232422 Z M564.284274,394.894531 C564.284274,395.882817 564.065526,396.666989 563.628024,397.24707 C563.190521,397.827151 562.60459,398.117188 561.870211,398.117188 C561.003019,398.117188 560.338963,397.812503 559.878024,397.203125 L559.878024,400.4375 L559.180758,400.4375 L559.180758,391.660156 L559.831149,391.660156 L559.866305,392.556641 C560.323338,391.880856 560.985441,391.542969 561.852633,391.542969 C562.610449,391.542969 563.20517,391.830075 563.636813,392.404297 C564.068455,392.978518 564.284274,393.775386 564.284274,394.794922 L564.284274,394.894531 Z M563.581149,394.771484 C563.581149,393.962887 563.415135,393.324221 563.083102,392.855469 C562.751069,392.386716 562.288183,392.152344 561.69443,392.152344 C561.26474,392.152344 560.895603,392.255858 560.587008,392.462891 C560.278413,392.669923 560.042087,392.970701 559.878024,393.365234 L559.878024,396.40625 C560.045993,396.769533 560.286225,397.046874 560.598727,397.238281 C560.911228,397.429688 561.280365,397.525391 561.706149,397.525391 C562.295995,397.525391 562.755952,397.290041 563.086031,396.819336 C563.416111,396.34863 563.581149,395.66602 563.581149,394.771484 Z M569.809229,398.117188 C569.270164,398.117188 568.782864,397.984376 568.347315,397.71875 C567.911766,397.453124 567.572902,397.08301 567.330713,396.608398 C567.088525,396.133787 566.967432,395.601565 566.967432,395.011719 L566.967432,394.759766 C566.967432,394.150388 567.085595,393.601565 567.321924,393.113281 C567.558254,392.624998 567.887352,392.241212 568.309229,391.961914 C568.731106,391.682616 569.188133,391.542969 569.680323,391.542969 C570.449858,391.542969 571.060203,391.805661 571.511377,392.331055 C571.962551,392.856448 572.188135,393.574214 572.188135,394.484375 L572.188135,394.876953 L567.664698,394.876953 L567.664698,395.011719 C567.664698,395.730472 567.87075,396.329099 568.282862,396.807617 C568.694973,397.286135 569.213523,397.525391 569.838526,397.525391 C570.213528,397.525391 570.544579,397.457032 570.83169,397.320312 C571.118801,397.183593 571.37954,396.964845 571.613916,396.664062 L572.05337,396.998047 C571.537742,397.744144 570.789703,398.117188 569.809229,398.117188 Z M569.680323,392.140625 C569.152976,392.140625 568.708645,392.333982 568.347315,392.720703 C567.985985,393.107424 567.766261,393.62695 567.688135,394.279297 L571.49087,394.279297 L571.49087,394.203125 C571.471338,393.593747 571.297512,393.097658 570.969385,392.714844 C570.641259,392.332029 570.211575,392.140625 569.680323,392.140625 Z M578.0002,392.257812 C577.851762,392.230469 577.69356,392.216797 577.52559,392.216797 C577.088088,392.216797 576.717975,392.338866 576.415239,392.583008 C576.112503,392.82715 575.896685,393.181638 575.767778,393.646484 L575.767778,398 L575.070512,398 L575.070512,391.660156 L575.756059,391.660156 L575.767778,392.667969 C576.138874,391.917965 576.734571,391.542969 577.554887,391.542969 C577.750201,391.542969 577.904496,391.568359 578.017778,391.619141 L578.0002,392.257812 Z M581.409921,398 L580.706796,398 L580.706796,391.660156 L581.409921,391.660156 L581.409921,398 Z M580.583749,389.826172 C580.583749,389.693359 580.626717,389.581055 580.712655,389.489258 C580.798593,389.39746 580.915779,389.351562 581.064218,389.351562 C581.212656,389.351562 581.330819,389.39746 581.41871,389.489258 C581.506601,389.581055 581.550546,389.693359 581.550546,389.826172 C581.550546,389.958985 581.506601,390.070312 581.41871,390.160156 C581.330819,390.25 581.212656,390.294922 581.064218,390.294922 C580.915779,390.294922 580.798593,390.25 580.712655,390.160156 C580.626717,390.070312 580.583749,389.958985 580.583749,389.826172 Z M587.286438,398.117188 C586.747373,398.117188 586.260073,397.984376 585.824524,397.71875 C585.388975,397.453124 585.050112,397.08301 584.807923,396.608398 C584.565734,396.133787 584.444642,395.601565 584.444642,395.011719 L584.444642,394.759766 C584.444642,394.150388 584.562804,393.601565 584.799134,393.113281 C585.035463,392.624998 585.364561,392.241212 585.786438,391.961914 C586.208316,391.682616 586.665342,391.542969 587.157532,391.542969 C587.927067,391.542969 588.537413,391.805661 588.988587,392.331055 C589.439761,392.856448 589.665345,393.574214 589.665345,394.484375 L589.665345,394.876953 L585.141907,394.876953 L585.141907,395.011719 C585.141907,395.730472 585.34796,396.329099 585.760071,396.807617 C586.172183,397.286135 586.690732,397.525391 587.315735,397.525391 C587.690737,397.525391 588.021789,397.457032 588.308899,397.320312 C588.59601,397.183593 588.85675,396.964845 589.091126,396.664062 L589.530579,396.998047 C589.014952,397.744144 588.266912,398.117188 587.286438,398.117188 Z M587.157532,392.140625 C586.630186,392.140625 586.185854,392.333982 585.824524,392.720703 C585.463194,393.107424 585.24347,393.62695 585.165345,394.279297 L588.968079,394.279297 L588.968079,394.203125 C588.948548,393.593747 588.774721,393.097658 588.446595,392.714844 C588.118468,392.332029 587.688785,392.140625 587.157532,392.140625 Z M593.215691,391.660156 L593.239128,392.744141 C593.477411,392.353514 593.774283,392.055665 594.129753,391.850586 C594.485224,391.645507 594.877798,391.542969 595.307487,391.542969 C595.987178,391.542969 596.493033,391.734373 596.825066,392.117188 C597.157099,392.500002 597.325066,393.074215 597.328972,393.839844 L597.328972,398 L596.631706,398 L596.631706,393.833984 C596.6278,393.267575 596.507684,392.845705 596.271355,392.568359 C596.035025,392.291014 595.657099,392.152344 595.137566,392.152344 C594.70397,392.152344 594.320184,392.288085 593.986198,392.55957 C593.652212,392.831056 593.405145,393.197263 593.244987,393.658203 L593.244987,398 L592.547722,398 L592.547722,391.660156 L593.215691,391.660156 Z M603.000412,397.525391 C603.488695,397.525391 603.897871,397.387697 604.227951,397.112305 C604.55803,396.836913 604.736739,396.480471 604.764083,396.042969 L605.437912,396.042969 C605.41838,396.429689 605.297288,396.782225 605.07463,397.100586 C604.851973,397.418947 604.556077,397.667968 604.186935,397.847656 C603.817792,398.027345 603.422289,398.117188 603.000412,398.117188 C602.168376,398.117188 601.509203,397.828128 601.022872,397.25 C600.536542,396.671872 600.29338,395.894536 600.29338,394.917969 L600.29338,394.707031 C600.29338,394.082028 600.402754,393.529299 600.621505,393.048828 C600.840256,392.568357 601.15373,392.197267 601.561935,391.935547 C601.97014,391.673827 602.447674,391.542969 602.994552,391.542969 C603.689868,391.542969 604.263105,391.749998 604.714279,392.164062 C605.165453,392.578127 605.406661,393.123043 605.437912,393.798828 L604.764083,393.798828 C604.732833,393.302732 604.554124,392.902345 604.227951,392.597656 C603.901777,392.292967 603.490648,392.140625 602.994552,392.140625 C602.361736,392.140625 601.87053,392.369138 601.520919,392.826172 C601.171308,393.283205 600.996505,393.923824 600.996505,394.748047 L600.996505,394.953125 C600.996505,395.761723 601.171308,396.392576 601.520919,396.845703 C601.87053,397.29883 602.36369,397.525391 603.000412,397.525391 Z M610.810523,398.117188 C610.271458,398.117188 609.784158,397.984376 609.348609,397.71875 C608.91306,397.453124 608.574196,397.08301 608.332007,396.608398 C608.089819,396.133787 607.968726,395.601565 607.968726,395.011719 L607.968726,394.759766 C607.968726,394.150388 608.086889,393.601565 608.323218,393.113281 C608.559548,392.624998 608.888646,392.241212 609.310523,391.961914 C609.7324,391.682616 610.189427,391.542969 610.681617,391.542969 C611.451152,391.542969 612.061497,391.805661 612.512671,392.331055 C612.963846,392.856448 613.189429,393.574214 613.189429,394.484375 L613.189429,394.876953 L608.665992,394.876953 L608.665992,395.011719 C608.665992,395.730472 608.872044,396.329099 609.284156,396.807617 C609.696267,397.286135 610.214817,397.525391 610.83982,397.525391 C611.214822,397.525391 611.545873,397.457032 611.832984,397.320312 C612.120095,397.183593 612.380834,396.964845 612.615211,396.664062 L613.054664,396.998047 C612.539036,397.744144 611.790997,398.117188 610.810523,398.117188 Z M610.681617,392.140625 C610.15427,392.140625 609.709939,392.333982 609.348609,392.720703 C608.987279,393.107424 608.767555,393.62695 608.689429,394.279297 L612.492164,394.279297 L612.492164,394.203125 C612.472632,393.593747 612.298806,393.097658 611.970679,392.714844 C611.642553,392.332029 611.212869,392.140625 610.681617,392.140625 Z" id="Mystical-Experience"></path>
        </g>
    </g>
</svg>