<?xml version="1.0" encoding="UTF-8"?>
<svg width="27px" height="10px" viewBox="0 0 27 10" version="1.1" xmlns="http://www.w3.org/2000/svg" xmlns:xlink="http://www.w3.org/1999/xlink">
    <!-- Generator: Sketch 41.2 (35397) - http://www.bohemiancoding.com/sketch -->
    <title>Zion</title>
    <desc>Created with Sketch.</desc>
    <defs></defs>
    <g id="Page-1" stroke="none" stroke-width="1" fill="none" fill-rule="evenodd">
        <g id="Desktop-HD" transform="translate(-311.000000, -772.000000)" fill="#FFFFFF">
            <path d="M312.400391,780.390625 L317.667969,780.390625 L317.667969,781 L311.527344,781 L311.527344,780.455078 L316.589844,773.083984 L311.679688,773.083984 L311.679688,772.46875 L317.480469,772.46875 L317.480469,772.984375 L312.400391,780.390625 Z M321.394096,781 L320.690971,781 L320.690971,774.660156 L321.394096,774.660156 L321.394096,781 Z M320.567924,772.826172 C320.567924,772.693359 320.610892,772.581055 320.69683,772.489258 C320.782768,772.39746 320.899955,772.351562 321.048393,772.351562 C321.196831,772.351562 321.314994,772.39746 321.402885,772.489258 C321.490776,772.581055 321.534721,772.693359 321.534721,772.826172 C321.534721,772.958985 321.490776,773.070312 321.402885,773.160156 C321.314994,773.25 321.196831,773.294922 321.048393,773.294922 C320.899955,773.294922 320.782768,773.25 320.69683,773.160156 C320.610892,773.070312 320.567924,772.958985 320.567924,772.826172 Z M324.428817,777.736328 C324.428817,777.12695 324.54698,776.578127 324.783309,776.089844 C325.019638,775.60156 325.353619,775.221681 325.785262,774.950195 C326.216905,774.67871 326.706158,774.542969 327.253036,774.542969 C328.09679,774.542969 328.780377,774.838864 329.303817,775.430664 C329.827257,776.022464 330.088973,776.806636 330.088973,777.783203 L330.088973,777.929688 C330.088973,778.542972 329.97081,779.094724 329.734481,779.584961 C329.498152,780.075198 329.165147,780.453124 328.735457,780.71875 C328.305768,780.984376 327.815538,781.117188 327.264754,781.117188 C326.424906,781.117188 325.742296,780.821292 325.216903,780.229492 C324.691509,779.637692 324.428817,778.853521 324.428817,777.876953 L324.428817,777.736328 Z M325.131942,777.929688 C325.131942,778.687504 325.328229,779.309568 325.720809,779.795898 C326.113389,780.282229 326.628032,780.525391 327.264754,780.525391 C327.89757,780.525391 328.41026,780.282229 328.80284,779.795898 C329.19542,779.309568 329.391707,778.667973 329.391707,777.871094 L329.391707,777.736328 C329.391707,777.251951 329.301865,776.808596 329.122176,776.40625 C328.942488,776.003904 328.690537,775.692384 328.366317,775.47168 C328.042096,775.250975 327.671006,775.140625 327.253036,775.140625 C326.628032,775.140625 326.118272,775.38574 325.723739,775.875977 C325.329205,776.366213 325.131942,777.007809 325.131942,777.800781 L325.131942,777.929688 Z M333.72135,774.660156 L333.744788,775.744141 C333.98307,775.353514 334.279942,775.055665 334.635413,774.850586 C334.990883,774.645507 335.383457,774.542969 335.813147,774.542969 C336.492838,774.542969 336.998692,774.734373 337.330725,775.117188 C337.662758,775.500002 337.830725,776.074215 337.834631,776.839844 L337.834631,781 L337.137366,781 L337.137366,776.833984 C337.13346,776.267575 337.013344,775.845705 336.777014,775.568359 C336.540685,775.291014 336.162759,775.152344 335.643225,775.152344 C335.209629,775.152344 334.825844,775.288085 334.491858,775.55957 C334.157872,775.831056 333.910804,776.197263 333.750647,776.658203 L333.750647,781 L333.053381,781 L333.053381,774.660156 L333.72135,774.660156 Z" id="Zion"></path>
        </g>
    </g>
</svg>