<?xml version="1.0" encoding="UTF-8"?>
<svg width="63px" height="10px" viewBox="0 0 63 10" version="1.1" xmlns="http://www.w3.org/2000/svg" xmlns:xlink="http://www.w3.org/1999/xlink">
    <!-- Generator: Sketch 41.2 (35397) - http://www.bohemiancoding.com/sketch -->
    <title>Tuolumne</title>
    <desc>Created with Sketch.</desc>
    <defs></defs>
    <g id="Page-1" stroke="none" stroke-width="1" fill="none" fill-rule="evenodd">
        <g id="index-1-rast" transform="translate(-265.000000, -417.000000)" fill="#FFFFFF">
            <path d="M271.867188,418.083984 L268.943359,418.083984 L268.943359,426 L268.222656,426 L268.222656,418.083984 L265.304688,418.083984 L265.304688,417.46875 L271.867188,417.46875 L271.867188,418.083984 Z M278.118705,425.197266 C277.696828,425.81055 277.023007,426.117188 276.097221,426.117188 C275.421436,426.117188 274.90777,425.9209 274.556205,425.52832 C274.204641,425.13574 274.024955,424.554691 274.017143,423.785156 L274.017143,419.660156 L274.714408,419.660156 L274.714408,423.697266 C274.714408,424.904303 275.202685,425.507812 276.179252,425.507812 C277.194882,425.507812 277.837454,425.087895 278.106987,424.248047 L278.106987,419.660156 L278.810112,419.660156 L278.810112,426 L278.130424,426 L278.118705,425.197266 Z M281.762801,422.736328 C281.762801,422.12695 281.880964,421.578127 282.117293,421.089844 C282.353623,420.60156 282.687604,420.221681 283.119246,419.950195 C283.550889,419.67871 284.040142,419.542969 284.58702,419.542969 C285.430774,419.542969 286.114361,419.838864 286.637801,420.430664 C287.161241,421.022464 287.422957,421.806636 287.422957,422.783203 L287.422957,422.929688 C287.422957,423.542972 287.304795,424.094724 287.068465,424.584961 C286.832136,425.075198 286.499131,425.453124 286.069442,425.71875 C285.639752,425.984376 285.149523,426.117188 284.598739,426.117188 C283.758891,426.117188 283.07628,425.821292 282.550887,425.229492 C282.025494,424.637692 281.762801,423.853521 281.762801,422.876953 L281.762801,422.736328 Z M282.465926,422.929688 C282.465926,423.687504 282.662213,424.309568 283.054793,424.795898 C283.447373,425.282229 283.962017,425.525391 284.598739,425.525391 C285.231554,425.525391 285.744245,425.282229 286.136825,424.795898 C286.529405,424.309568 286.725692,423.667973 286.725692,422.871094 L286.725692,422.736328 C286.725692,422.251951 286.635849,421.808596 286.456161,421.40625 C286.276472,421.003904 286.024522,420.692384 285.700301,420.47168 C285.376081,420.250975 285.004991,420.140625 284.58702,420.140625 C283.962017,420.140625 283.452256,420.38574 283.057723,420.875977 C282.66319,421.366213 282.465926,422.007809 282.465926,422.800781 L282.465926,422.929688 Z M291.172522,426 L290.469397,426 L290.469397,417 L291.172522,417 L291.172522,426 Z M298.672087,425.197266 C298.25021,425.81055 297.576388,426.117188 296.650602,426.117188 C295.974818,426.117188 295.461151,425.9209 295.109587,425.52832 C294.758022,425.13574 294.578337,424.554691 294.570524,423.785156 L294.570524,419.660156 L295.26779,419.660156 L295.26779,423.697266 C295.26779,424.904303 295.756066,425.507812 296.732634,425.507812 C297.748264,425.507812 298.390835,425.087895 298.660368,424.248047 L298.660368,419.660156 L299.363493,419.660156 L299.363493,426 L298.683805,426 L298.672087,425.197266 Z M303.341573,419.660156 L303.365011,420.691406 C303.599387,420.308592 303.892353,420.021485 304.243917,419.830078 C304.595481,419.638671 304.986102,419.542969 305.415792,419.542969 C306.415797,419.542969 307.050556,419.953121 307.320089,420.773438 C307.546652,420.378904 307.849384,420.075196 308.228292,419.862305 C308.6072,419.649413 309.025165,419.542969 309.482198,419.542969 C310.84158,419.542969 311.534932,420.285149 311.562276,421.769531 L311.562276,426 L310.859151,426 L310.859151,421.822266 C310.855245,421.255857 310.733176,420.835939 310.49294,420.5625 C310.252705,420.289061 309.861107,420.152344 309.318136,420.152344 C308.814227,420.160156 308.38845,420.323241 308.040792,420.641602 C307.693134,420.959963 307.499777,421.347654 307.460714,421.804688 L307.460714,426 L306.757589,426 L306.757589,421.769531 C306.753683,421.22656 306.625754,420.82129 306.3738,420.553711 C306.121845,420.286131 305.734154,420.152344 305.210714,420.152344 C304.769305,420.152344 304.390403,420.278319 304.073995,420.530273 C303.757587,420.782228 303.523215,421.156248 303.37087,421.652344 L303.37087,426 L302.667745,426 L302.667745,419.660156 L303.341573,419.660156 Z M315.522779,419.660156 L315.546216,420.744141 C315.784498,420.353514 316.08137,420.055665 316.436841,419.850586 C316.792312,419.645507 317.184886,419.542969 317.614575,419.542969 C318.294266,419.542969 318.800121,419.734373 319.132154,420.117188 C319.464186,420.500002 319.632153,421.074215 319.63606,421.839844 L319.63606,426 L318.938794,426 L318.938794,421.833984 C318.934888,421.267575 318.814772,420.845705 318.578443,420.568359 C318.342113,420.291014 317.964187,420.152344 317.444654,420.152344 C317.011058,420.152344 316.627272,420.288085 316.293286,420.55957 C315.9593,420.831056 315.712232,421.197263 315.552075,421.658203 L315.552075,426 L314.85481,426 L314.85481,419.660156 L315.522779,419.660156 Z M325.418828,426.117188 C324.879762,426.117188 324.392463,425.984376 323.956913,425.71875 C323.521364,425.453124 323.182501,425.08301 322.940312,424.608398 C322.698123,424.133787 322.577031,423.601565 322.577031,423.011719 L322.577031,422.759766 C322.577031,422.150388 322.695194,421.601565 322.931523,421.113281 C323.167852,420.624998 323.49695,420.241212 323.918828,419.961914 C324.340705,419.682616 324.797731,419.542969 325.289921,419.542969 C326.059456,419.542969 326.669802,419.805661 327.120976,420.331055 C327.57215,420.856448 327.797734,421.574214 327.797734,422.484375 L327.797734,422.876953 L323.274296,422.876953 L323.274296,423.011719 C323.274296,423.730472 323.480349,424.329099 323.89246,424.807617 C324.304572,425.286135 324.823121,425.525391 325.448124,425.525391 C325.823126,425.525391 326.154178,425.457032 326.441288,425.320312 C326.728399,425.183593 326.989139,424.964845 327.223515,424.664062 L327.662968,424.998047 C327.147341,425.744144 326.399301,426.117188 325.418828,426.117188 Z M325.289921,420.140625 C324.762575,420.140625 324.318243,420.333982 323.956913,420.720703 C323.595584,421.107424 323.375859,421.62695 323.297734,422.279297 L327.100468,422.279297 L327.100468,422.203125 C327.080937,421.593747 326.90711,421.097658 326.578984,420.714844 C326.250857,420.332029 325.821174,420.140625 325.289921,420.140625 Z" id="Tuolumne"></path>
        </g>
    </g>
</svg>