<?xml version="1.0" encoding="UTF-8"?>
<svg width="81px" height="12px" viewBox="0 0 81 12" version="1.1" xmlns="http://www.w3.org/2000/svg" xmlns:xlink="http://www.w3.org/1999/xlink">
    <!-- Generator: Sketch 41.2 (35397) - http://www.bohemiancoding.com/sketch -->
    <title>Death Valley</title>
    <desc>Created with Sketch.</desc>
    <defs></defs>
    <g id="Page-1" stroke="none" stroke-width="1" fill="none" fill-rule="evenodd">
        <g id="Desktop-HD" transform="translate(-310.000000, -735.000000)" fill="#FFFFFF">
            <path d="M310.078125,744 L310.078125,735.46875 L312.462891,735.46875 C313.162113,735.46875 313.78906,735.627928 314.34375,735.946289 C314.89844,736.26465 315.331053,736.7207 315.641602,737.314453 C315.95215,737.908206 316.107422,738.583981 316.107422,739.341797 L316.107422,740.126953 C316.107422,740.888676 315.953127,741.56445 315.644531,742.154297 C315.335936,742.744144 314.90137,743.199217 314.34082,743.519531 C313.780271,743.839845 313.136722,744 312.410156,744 L310.078125,744 Z M310.798828,736.083984 L310.798828,743.390625 L312.416016,743.390625 C313.314458,743.390625 314.035154,743.092776 314.578125,742.49707 C315.121096,741.901364 315.392578,741.095708 315.392578,740.080078 L315.392578,739.330078 C315.392578,738.349604 315.125003,737.564456 314.589844,736.974609 C314.054685,736.384763 313.349614,736.087891 312.474609,736.083984 L310.798828,736.083984 Z M321.743705,744.117188 C321.20464,744.117188 320.71734,743.984376 320.281791,743.71875 C319.846242,743.453124 319.507378,743.08301 319.26519,742.608398 C319.023001,742.133787 318.901908,741.601565 318.901908,741.011719 L318.901908,740.759766 C318.901908,740.150388 319.020071,739.601565 319.256401,739.113281 C319.49273,738.624998 319.821828,738.241212 320.243705,737.961914 C320.665582,737.682616 321.122609,737.542969 321.614799,737.542969 C322.384334,737.542969 322.99468,737.805661 323.445854,738.331055 C323.897028,738.856448 324.122612,739.574214 324.122612,740.484375 L324.122612,740.876953 L319.599174,740.876953 L319.599174,741.011719 C319.599174,741.730472 319.805227,742.329099 320.217338,742.807617 C320.62945,743.286135 321.147999,743.525391 321.773002,743.525391 C322.148004,743.525391 322.479055,743.457032 322.766166,743.320312 C323.053277,743.183593 323.314017,742.964845 323.548393,742.664062 L323.987846,742.998047 C323.472218,743.744144 322.724179,744.117188 321.743705,744.117188 Z M321.614799,738.140625 C321.087453,738.140625 320.643121,738.333982 320.281791,738.720703 C319.920461,739.107424 319.700737,739.62695 319.622612,740.279297 L323.425346,740.279297 L323.425346,740.203125 C323.405815,739.593747 323.231988,739.097658 322.903862,738.714844 C322.575735,738.332029 322.146052,738.140625 321.614799,738.140625 Z M331.006942,744 C330.936629,743.80078 330.891708,743.505861 330.872176,743.115234 C330.626081,743.435548 330.312608,743.682616 329.931746,743.856445 C329.550885,744.030274 329.147569,744.117188 328.721786,744.117188 C328.112407,744.117188 327.619248,743.947267 327.242293,743.607422 C326.865338,743.267576 326.676864,742.837893 326.676864,742.318359 C326.676864,741.701169 326.933697,741.212892 327.447371,740.853516 C327.961046,740.494139 328.676859,740.314453 329.594832,740.314453 L330.866317,740.314453 L330.866317,739.59375 C330.866317,739.140623 330.72667,738.784181 330.447371,738.524414 C330.168073,738.264647 329.760851,738.134766 329.225692,738.134766 C328.737408,738.134766 328.333115,738.259764 328.012801,738.509766 C327.692487,738.759767 327.532332,739.060545 327.532332,739.412109 L326.829207,739.40625 C326.829207,738.902341 327.06358,738.465822 327.532332,738.09668 C328.001085,737.727537 328.577251,737.542969 329.260848,737.542969 C329.967883,737.542969 330.525494,737.719725 330.9337,738.073242 C331.341905,738.42676 331.551864,738.919919 331.563582,739.552734 L331.563582,742.552734 C331.563582,743.166019 331.628035,743.624998 331.756942,743.929688 L331.756942,744 L331.006942,744 Z M328.803817,743.496094 C329.272569,743.496094 329.69151,743.382814 330.060653,743.15625 C330.429795,742.929686 330.698347,742.626955 330.866317,742.248047 L330.866317,740.853516 L329.612411,740.853516 C328.913188,740.861328 328.366319,740.989257 327.971786,741.237305 C327.577252,741.485353 327.379989,741.82617 327.379989,742.259766 C327.379989,742.615236 327.511823,742.910155 327.775496,743.144531 C328.03917,743.378907 328.38194,743.496094 328.803817,743.496094 Z M336.03971,736.037109 L336.03971,737.660156 L337.35221,737.660156 L337.35221,738.234375 L336.03971,738.234375 L336.03971,742.458984 C336.03971,742.810549 336.103185,743.072265 336.230139,743.244141 C336.357093,743.416016 336.569005,743.501953 336.865881,743.501953 C336.98307,743.501953 337.172521,743.482422 337.434241,743.443359 L337.463538,744.017578 C337.279943,744.083985 337.029946,744.117188 336.713538,744.117188 C336.233067,744.117188 335.883461,743.97754 335.66471,743.698242 C335.445958,743.418944 335.336585,743.007815 335.336585,742.464844 L335.336585,738.234375 L334.170569,738.234375 L334.170569,737.660156 L335.336585,737.660156 L335.336585,736.037109 L336.03971,736.037109 Z M341.019743,738.732422 C341.250213,738.353514 341.545132,738.060548 341.904509,737.853516 C342.263885,737.646483 342.65646,737.542969 343.082243,737.542969 C343.761934,737.542969 344.267788,737.734373 344.599821,738.117188 C344.931854,738.500002 345.099821,739.074215 345.103727,739.839844 L345.103727,744 L344.406462,744 L344.406462,739.833984 C344.402555,739.267575 344.282439,738.845705 344.04611,738.568359 C343.809781,738.291014 343.431855,738.152344 342.912321,738.152344 C342.478725,738.152344 342.09494,738.288085 341.760954,738.55957 C341.426968,738.831056 341.1799,739.197263 341.019743,739.658203 L341.019743,744 L340.322477,744 L340.322477,735 L341.019743,735 L341.019743,738.732422 Z M355.596997,742.945312 L355.643872,743.126953 L355.696607,742.945312 L358.3802,735.46875 L359.171216,735.46875 L355.995435,744 L355.304029,744 L352.128247,735.46875 L352.913404,735.46875 L355.596997,742.945312 Z M365.510624,744 C365.440312,743.80078 365.39539,743.505861 365.375859,743.115234 C365.129764,743.435548 364.81629,743.682616 364.435429,743.856445 C364.054568,744.030274 363.651252,744.117188 363.225468,744.117188 C362.61609,744.117188 362.122931,743.947267 361.745976,743.607422 C361.369021,743.267576 361.180546,742.837893 361.180546,742.318359 C361.180546,741.701169 361.43738,741.212892 361.951054,740.853516 C362.464729,740.494139 363.180542,740.314453 364.098515,740.314453 L365.369999,740.314453 L365.369999,739.59375 C365.369999,739.140623 365.230352,738.784181 364.951054,738.524414 C364.671756,738.264647 364.264533,738.134766 363.729374,738.134766 C363.241091,738.134766 362.836798,738.259764 362.516484,738.509766 C362.19617,738.759767 362.036015,739.060545 362.036015,739.412109 L361.33289,739.40625 C361.33289,738.902341 361.567263,738.465822 362.036015,738.09668 C362.504767,737.727537 363.080933,737.542969 363.764531,737.542969 C364.471565,737.542969 365.029177,737.719725 365.437382,738.073242 C365.845587,738.42676 366.055546,738.919919 366.067265,739.552734 L366.067265,742.552734 C366.067265,743.166019 366.131718,743.624998 366.260624,743.929688 L366.260624,744 L365.510624,744 Z M363.307499,743.496094 C363.776252,743.496094 364.195193,743.382814 364.564335,743.15625 C364.933478,742.929686 365.20203,742.626955 365.369999,742.248047 L365.369999,740.853516 L364.116093,740.853516 C363.416871,740.861328 362.870001,740.989257 362.475468,741.237305 C362.080935,741.485353 361.883671,741.82617 361.883671,742.259766 C361.883671,742.615236 362.015506,742.910155 362.279179,743.144531 C362.542852,743.378907 362.885622,743.496094 363.307499,743.496094 Z M370.238705,744 L369.53558,744 L369.53558,735 L370.238705,735 L370.238705,744 Z M374.445301,744 L373.742176,744 L373.742176,735 L374.445301,735 L374.445301,744 Z M380.321818,744.117188 C379.782753,744.117188 379.295453,743.984376 378.859904,743.71875 C378.424355,743.453124 378.085491,743.08301 377.843303,742.608398 C377.601114,742.133787 377.480021,741.601565 377.480021,741.011719 L377.480021,740.759766 C377.480021,740.150388 377.598184,739.601565 377.834514,739.113281 C378.070843,738.624998 378.399941,738.241212 378.821818,737.961914 C379.243695,737.682616 379.700722,737.542969 380.192912,737.542969 C380.962447,737.542969 381.572793,737.805661 382.023967,738.331055 C382.475141,738.856448 382.700725,739.574214 382.700725,740.484375 L382.700725,740.876953 L378.177287,740.876953 L378.177287,741.011719 C378.177287,741.730472 378.38334,742.329099 378.795451,742.807617 C379.207563,743.286135 379.726112,743.525391 380.351115,743.525391 C380.726117,743.525391 381.057168,743.457032 381.344279,743.320312 C381.63139,743.183593 381.89213,742.964845 382.126506,742.664062 L382.565959,742.998047 C382.050331,743.744144 381.302292,744.117188 380.321818,744.117188 Z M380.192912,738.140625 C379.665566,738.140625 379.221234,738.333982 378.859904,738.720703 C378.498574,739.107424 378.27885,739.62695 378.200725,740.279297 L382.003459,740.279297 L382.003459,740.203125 C381.983928,739.593747 381.810101,739.097658 381.481975,738.714844 C381.153848,738.332029 380.724165,738.140625 380.192912,738.140625 Z M387.516695,742.992188 L389.368258,737.660156 L390.124117,737.660156 L387.417086,745.078125 L387.276461,745.40625 C386.928803,746.175785 386.391699,746.560547 385.665133,746.560547 C385.497163,746.560547 385.317478,746.533203 385.12607,746.478516 L385.120211,745.898438 L385.483492,745.933594 C385.827244,745.933594 386.105562,745.848634 386.318453,745.678711 C386.531345,745.508788 386.712007,745.216799 386.860445,744.802734 L387.170992,743.947266 L384.780367,737.660156 L385.547945,737.660156 L387.516695,742.992188 Z" id="Death-Valley"></path>
        </g>
    </g>
</svg>