<?xml version="1.0" encoding="UTF-8"?>
<svg width="93px" height="10px" viewBox="0 0 93 10" version="1.1" xmlns="http://www.w3.org/2000/svg" xmlns:xlink="http://www.w3.org/1999/xlink">
    <!-- Generator: Sketch 41.2 (35397) - http://www.bohemiancoding.com/sketch -->
    <title>Slack Presidio</title>
    <desc>Created with Sketch.</desc>
    <defs></defs>
    <g id="Page-1" stroke="none" stroke-width="1" fill="none" fill-rule="evenodd">
        <g id="index-1-rast" transform="translate(-190.000000, -615.000000)" fill="#FFFFFF">
            <path d="M195.90625,621.902344 C195.90625,621.429685 195.740236,621.055665 195.408203,620.780273 C195.07617,620.504881 194.468754,620.243165 193.585938,619.995117 C192.703121,619.747069 192.058596,619.476564 191.652344,619.183594 C191.074216,618.769529 190.785156,618.226566 190.785156,617.554688 C190.785156,616.90234 191.053708,616.372072 191.59082,615.963867 C192.127932,615.555662 192.814449,615.351562 193.650391,615.351562 C194.2168,615.351562 194.723631,615.460936 195.170898,615.679688 C195.618166,615.898439 195.964843,616.203123 196.210938,616.59375 C196.457032,616.984377 196.580078,617.419919 196.580078,617.900391 L195.853516,617.900391 C195.853516,617.318356 195.654299,616.850588 195.255859,616.49707 C194.85742,616.143553 194.322269,615.966797 193.650391,615.966797 C192.998044,615.966797 192.478518,616.112303 192.091797,616.40332 C191.705076,616.694337 191.511719,617.074216 191.511719,617.542969 C191.511719,617.976565 191.685545,618.330077 192.033203,618.603516 C192.380861,618.876954 192.937496,619.118163 193.703125,619.327148 C194.468754,619.536134 195.048826,619.752929 195.443359,619.977539 C195.837893,620.20215 196.134765,620.470702 196.333984,620.783203 C196.533204,621.095705 196.632812,621.464842 196.632812,621.890625 C196.632812,622.562503 196.36426,623.10156 195.827148,623.507812 C195.290036,623.914065 194.582036,624.117188 193.703125,624.117188 C193.101559,624.117188 192.549807,624.009767 192.047852,623.794922 C191.545896,623.580077 191.16504,623.279299 190.905273,622.892578 C190.645507,622.505857 190.515625,622.062503 190.515625,621.5625 L191.236328,621.5625 C191.236328,622.164066 191.460935,622.63867 191.910156,622.986328 C192.359377,623.333986 192.957028,623.507812 193.703125,623.507812 C194.367191,623.507812 194.900389,623.36133 195.302734,623.068359 C195.70508,622.775389 195.90625,622.386721 195.90625,621.902344 Z M200.323783,624 L199.620658,624 L199.620658,615 L200.323783,615 L200.323783,624 Z M207.747176,624 C207.676863,623.80078 207.631942,623.505861 207.612411,623.115234 C207.366316,623.435548 207.052842,623.682616 206.671981,623.856445 C206.29112,624.030274 205.887803,624.117188 205.46202,624.117188 C204.852642,624.117188 204.359483,623.947267 203.982528,623.607422 C203.605573,623.267576 203.417098,622.837893 203.417098,622.318359 C203.417098,621.701169 203.673931,621.212892 204.187606,620.853516 C204.70128,620.494139 205.417093,620.314453 206.335067,620.314453 L207.606551,620.314453 L207.606551,619.59375 C207.606551,619.140623 207.466904,618.784181 207.187606,618.524414 C206.908308,618.264647 206.501085,618.134766 205.965926,618.134766 C205.477642,618.134766 205.07335,618.259764 204.753036,618.509766 C204.432721,618.759767 204.272567,619.060545 204.272567,619.412109 L203.569442,619.40625 C203.569442,618.902341 203.803814,618.465822 204.272567,618.09668 C204.741319,617.727537 205.317485,617.542969 206.001082,617.542969 C206.708117,617.542969 207.265729,617.719725 207.673934,618.073242 C208.082139,618.42676 208.292098,618.919919 208.303817,619.552734 L208.303817,622.552734 C208.303817,623.166019 208.368269,623.624998 208.497176,623.929688 L208.497176,624 L207.747176,624 Z M205.544051,623.496094 C206.012804,623.496094 206.431745,623.382814 206.800887,623.15625 C207.17003,622.929686 207.438582,622.626955 207.606551,622.248047 L207.606551,620.853516 L206.352645,620.853516 C205.653423,620.861328 205.106553,620.989257 204.71202,621.237305 C204.317487,621.485353 204.120223,621.82617 204.120223,622.259766 C204.120223,622.615236 204.252058,622.910155 204.515731,623.144531 C204.779404,623.378907 205.122174,623.496094 205.544051,623.496094 Z M214.03385,623.525391 C214.522134,623.525391 214.931309,623.387697 215.261389,623.112305 C215.591469,622.836913 215.770178,622.480471 215.797522,622.042969 L216.47135,622.042969 C216.451819,622.429689 216.330726,622.782225 216.108069,623.100586 C215.885412,623.418947 215.589516,623.667968 215.220374,623.847656 C214.851231,624.027345 214.455727,624.117188 214.03385,624.117188 C213.201815,624.117188 212.542642,623.828128 212.056311,623.25 C211.569981,622.671872 211.326819,621.894536 211.326819,620.917969 L211.326819,620.707031 C211.326819,620.082028 211.436193,619.529299 211.654944,619.048828 C211.873695,618.568357 212.187168,618.197267 212.595374,617.935547 C213.003579,617.673827 213.481113,617.542969 214.027991,617.542969 C214.723307,617.542969 215.296543,617.749998 215.747717,618.164062 C216.198892,618.578127 216.4401,619.123043 216.47135,619.798828 L215.797522,619.798828 C215.766272,619.302732 215.587563,618.902345 215.261389,618.597656 C214.935216,618.292967 214.524087,618.140625 214.027991,618.140625 C213.395175,618.140625 212.903969,618.369138 212.554358,618.826172 C212.204747,619.283205 212.029944,619.923824 212.029944,620.748047 L212.029944,620.953125 C212.029944,621.761723 212.204747,622.392576 212.554358,622.845703 C212.903969,623.29883 213.397128,623.525391 214.03385,623.525391 Z M220.894743,620.806641 L220.092009,621.580078 L220.092009,624 L219.388884,624 L219.388884,615 L220.092009,615 L220.092009,620.759766 L220.754118,620.044922 L223.179899,617.660156 L224.064665,617.660156 L221.375212,620.332031 L224.29904,624 L223.461149,624 L220.894743,620.806641 Z M232.102857,620.525391 L232.102857,624 L231.382154,624 L231.382154,615.46875 L234.288404,615.46875 C235.175127,615.46875 235.875315,615.69531 236.388989,616.148438 C236.902664,616.601565 237.159497,617.224605 237.159497,618.017578 C237.159497,618.818363 236.912429,619.436521 236.418286,619.87207 C235.924143,620.307619 235.20833,620.525391 234.270825,620.525391 L232.102857,620.525391 Z M232.102857,619.916016 L234.288404,619.916016 C234.987626,619.916016 235.520824,619.750002 235.888013,619.417969 C236.255202,619.085936 236.438794,618.62305 236.438794,618.029297 C236.438794,617.43945 236.256179,616.969728 235.890943,616.620117 C235.525706,616.270506 235.007157,616.091797 234.335279,616.083984 L232.102857,616.083984 L232.102857,619.916016 Z M243.053593,618.257812 C242.905155,618.230469 242.746953,618.216797 242.578984,618.216797 C242.141482,618.216797 241.771368,618.338866 241.468632,618.583008 C241.165896,618.82715 240.950078,619.181638 240.821171,619.646484 L240.821171,624 L240.123906,624 L240.123906,617.660156 L240.809453,617.660156 L240.821171,618.667969 C241.192267,617.917965 241.787964,617.542969 242.608281,617.542969 C242.803594,617.542969 242.957889,617.568359 243.071171,617.619141 L243.053593,618.257812 Z M248.021908,624.117188 C247.482843,624.117188 246.995543,623.984376 246.559994,623.71875 C246.124445,623.453124 245.785581,623.08301 245.543392,622.608398 C245.301203,622.133787 245.180111,621.601565 245.180111,621.011719 L245.180111,620.759766 C245.180111,620.150388 245.298274,619.601565 245.534603,619.113281 C245.770932,618.624998 246.100031,618.241212 246.521908,617.961914 C246.943785,617.682616 247.400812,617.542969 247.893002,617.542969 C248.662537,617.542969 249.272882,617.805661 249.724056,618.331055 C250.17523,618.856448 250.400814,619.574214 250.400814,620.484375 L250.400814,620.876953 L245.877377,620.876953 L245.877377,621.011719 C245.877377,621.730472 246.083429,622.329099 246.495541,622.807617 C246.907652,623.286135 247.426202,623.525391 248.051205,623.525391 C248.426207,623.525391 248.757258,623.457032 249.044369,623.320312 C249.33148,623.183593 249.592219,622.964845 249.826595,622.664062 L250.266048,622.998047 C249.750421,623.744144 249.002381,624.117188 248.021908,624.117188 Z M247.893002,618.140625 C247.365655,618.140625 246.921324,618.333982 246.559994,618.720703 C246.198664,619.107424 245.978939,619.62695 245.900814,620.279297 L249.703548,620.279297 L249.703548,620.203125 C249.684017,619.593747 249.510191,619.097658 249.182064,618.714844 C248.853937,618.332029 248.424254,618.140625 247.893002,618.140625 Z M257.080066,622.388672 C257.080066,622.041014 256.940419,621.76172 256.661121,621.550781 C256.381823,621.339843 255.960928,621.174805 255.398426,621.055664 C254.835923,620.936523 254.399404,620.799805 254.088855,620.645508 C253.778307,620.49121 253.54784,620.302735 253.397449,620.080078 C253.247058,619.857421 253.171863,619.587892 253.171863,619.271484 C253.171863,618.771482 253.380845,618.3584 253.798816,618.032227 C254.216787,617.706053 254.751938,617.542969 255.404285,617.542969 C256.11132,617.542969 256.678697,617.717772 257.106433,618.067383 C257.53417,618.416994 257.748035,618.873044 257.748035,619.435547 L257.04491,619.435547 C257.04491,619.064451 256.889638,618.755861 256.57909,618.509766 C256.268541,618.263671 255.876944,618.140625 255.404285,618.140625 C254.943345,618.140625 254.573232,618.243163 254.293933,618.448242 C254.014635,618.653321 253.874988,618.91992 253.874988,619.248047 C253.874988,619.564455 253.991198,619.809569 254.223621,619.983398 C254.456044,620.157227 254.879868,620.316406 255.495105,620.460938 C256.110343,620.605469 256.571276,620.759765 256.877918,620.923828 C257.18456,621.087891 257.412097,621.285155 257.560535,621.515625 C257.708973,621.746095 257.783191,622.025389 257.783191,622.353516 C257.783191,622.888675 257.567373,623.316405 257.13573,623.636719 C256.704087,623.957033 256.140617,624.117188 255.445301,624.117188 C254.707016,624.117188 254.108389,623.938478 253.649402,623.581055 C253.190415,623.223631 252.960926,622.771487 252.960926,622.224609 L253.664051,622.224609 C253.691394,622.634768 253.864244,622.9541 254.182605,623.182617 C254.500966,623.411134 254.92186,623.525391 255.445301,623.525391 C255.933584,623.525391 256.328112,623.41797 256.628894,623.203125 C256.929677,622.98828 257.080066,622.716799 257.080066,622.388672 Z M261.661662,624 L260.958537,624 L260.958537,617.660156 L261.661662,617.660156 L261.661662,624 Z M260.83549,615.826172 C260.83549,615.693359 260.878459,615.581055 260.964396,615.489258 C261.050334,615.39746 261.167521,615.351562 261.315959,615.351562 C261.464397,615.351562 261.58256,615.39746 261.670451,615.489258 C261.758342,615.581055 261.802287,615.693359 261.802287,615.826172 C261.802287,615.958985 261.758342,616.070312 261.670451,616.160156 C261.58256,616.25 261.464397,616.294922 261.315959,616.294922 C261.167521,616.294922 261.050334,616.25 260.964396,616.160156 C260.878459,616.070312 260.83549,615.958985 260.83549,615.826172 Z M264.801852,620.771484 C264.801852,619.787104 265.021576,619.002933 265.461031,618.418945 C265.900487,617.834958 266.49716,617.542969 267.25107,617.542969 C268.106544,617.542969 268.758881,617.880856 269.208102,618.556641 L269.208102,615 L269.905367,615 L269.905367,624 L269.249117,624 L269.21982,623.15625 C268.7706,623.796878 268.11045,624.117188 267.239352,624.117188 C266.508879,624.117188 265.920018,623.823245 265.47275,623.235352 C265.025482,622.647458 264.801852,621.853521 264.801852,620.853516 L264.801852,620.771484 Z M265.510836,620.894531 C265.510836,621.703129 265.672944,622.340818 265.997164,622.807617 C266.321385,623.274416 266.778411,623.507812 267.368258,623.507812 C268.231544,623.507812 268.844819,623.126957 269.208102,622.365234 L269.208102,619.388672 C268.844819,618.564449 268.23545,618.152344 267.379977,618.152344 C266.79013,618.152344 266.33115,618.383787 266.003024,618.84668 C265.674897,619.309573 265.510836,619.992183 265.510836,620.894531 Z M274.05337,624 L273.350245,624 L273.350245,617.660156 L274.05337,617.660156 L274.05337,624 Z M273.227198,615.826172 C273.227198,615.693359 273.270166,615.581055 273.356104,615.489258 C273.442042,615.39746 273.559228,615.351562 273.707666,615.351562 C273.856105,615.351562 273.974268,615.39746 274.062159,615.489258 C274.15005,615.581055 274.193995,615.693359 274.193995,615.826172 C274.193995,615.958985 274.15005,616.070312 274.062159,616.160156 C273.974268,616.25 273.856105,616.294922 273.707666,616.294922 C273.559228,616.294922 273.442042,616.25 273.356104,616.160156 C273.270166,616.070312 273.227198,615.958985 273.227198,615.826172 Z M277.08809,620.736328 C277.08809,620.12695 277.206253,619.578127 277.442583,619.089844 C277.678912,618.60156 278.012893,618.221681 278.444536,617.950195 C278.876179,617.67871 279.365431,617.542969 279.912309,617.542969 C280.756063,617.542969 281.43965,617.838864 281.96309,618.430664 C282.486531,619.022464 282.748247,619.806636 282.748247,620.783203 L282.748247,620.929688 C282.748247,621.542972 282.630084,622.094724 282.393754,622.584961 C282.157425,623.075198 281.824421,623.453124 281.394731,623.71875 C280.965041,623.984376 280.474812,624.117188 279.924028,624.117188 C279.08418,624.117188 278.40157,623.821292 277.876176,623.229492 C277.350783,622.637692 277.08809,621.853521 277.08809,620.876953 L277.08809,620.736328 Z M277.791215,620.929688 C277.791215,621.687504 277.987503,622.309568 278.380083,622.795898 C278.772663,623.282229 279.287306,623.525391 279.924028,623.525391 C280.556844,623.525391 281.069534,623.282229 281.462114,622.795898 C281.854694,622.309568 282.050981,621.667973 282.050981,620.871094 L282.050981,620.736328 C282.050981,620.251951 281.961138,619.808596 281.78145,619.40625 C281.601761,619.003904 281.349811,618.692384 281.02559,618.47168 C280.70137,618.250975 280.33028,618.140625 279.912309,618.140625 C279.287306,618.140625 278.777546,618.38574 278.383012,618.875977 C277.988479,619.366213 277.791215,620.007809 277.791215,620.800781 L277.791215,620.929688 Z" id="Slack-Presidio"></path>
        </g>
    </g>
</svg>