<?xml version="1.0" encoding="UTF-8"?>
<svg width="94px" height="12px" viewBox="0 0 94 12" version="1.1" xmlns="http://www.w3.org/2000/svg" xmlns:xlink="http://www.w3.org/1999/xlink">
    <!-- Generator: Sketch 41.2 (35397) - http://www.bohemiancoding.com/sketch -->
    <title>Zabrisky Point</title>
    <desc>Created with Sketch.</desc>
    <defs></defs>
    <g id="Page-1" stroke="none" stroke-width="1" fill="none" fill-rule="evenodd">
        <g id="Desktop-HD" transform="translate(-103.000000, -735.000000)" fill="#FFFFFF">
            <path d="M104.400391,743.390625 L109.667969,743.390625 L109.667969,744 L103.527344,744 L103.527344,743.455078 L108.589844,736.083984 L103.679688,736.083984 L103.679688,735.46875 L109.480469,735.46875 L109.480469,735.984375 L104.400391,743.390625 Z M116.610893,744 C116.54058,743.80078 116.495658,743.505861 116.476127,743.115234 C116.230032,743.435548 115.916559,743.682616 115.535697,743.856445 C115.154836,744.030274 114.75152,744.117188 114.325737,744.117188 C113.716358,744.117188 113.223199,743.947267 112.846244,743.607422 C112.469289,743.267576 112.280815,742.837893 112.280815,742.318359 C112.280815,741.701169 112.537648,741.212892 113.051322,740.853516 C113.564997,740.494139 114.28081,740.314453 115.198783,740.314453 L116.470268,740.314453 L116.470268,739.59375 C116.470268,739.140623 116.330621,738.784181 116.051322,738.524414 C115.772024,738.264647 115.364802,738.134766 114.829643,738.134766 C114.341359,738.134766 113.937066,738.259764 113.616752,738.509766 C113.296438,738.759767 113.136283,739.060545 113.136283,739.412109 L112.433158,739.40625 C112.433158,738.902341 112.667531,738.465822 113.136283,738.09668 C113.605036,737.727537 114.181202,737.542969 114.864799,737.542969 C115.571834,737.542969 116.129445,737.719725 116.537651,738.073242 C116.945856,738.42676 117.155815,738.919919 117.167533,739.552734 L117.167533,742.552734 C117.167533,743.166019 117.231986,743.624998 117.360893,743.929688 L117.360893,744 L116.610893,744 Z M114.407768,743.496094 C114.87652,743.496094 115.295461,743.382814 115.664604,743.15625 C116.033746,742.929686 116.302298,742.626955 116.470268,742.248047 L116.470268,740.853516 L115.216362,740.853516 C114.517139,740.861328 113.97027,740.989257 113.575737,741.237305 C113.181203,741.485353 112.98394,741.82617 112.98394,742.259766 C112.98394,742.615236 113.115774,742.910155 113.379447,743.144531 C113.643121,743.378907 113.985891,743.496094 114.407768,743.496094 Z M125.657332,740.894531 C125.657332,741.882817 125.438585,742.666989 125.001082,743.24707 C124.56358,743.827151 123.975695,744.117188 123.237411,744.117188 C122.354594,744.117188 121.686632,743.789066 121.233504,743.132812 L121.204207,744 L120.547957,744 L120.547957,735 L121.245223,735 L121.245223,738.580078 C121.690538,737.888668 122.350687,737.542969 123.225692,737.542969 C123.975696,737.542969 124.568463,737.829099 125.004012,738.401367 C125.439561,738.973636 125.657332,739.769526 125.657332,740.789062 L125.657332,740.894531 Z M124.954207,740.771484 C124.954207,739.935543 124.7921,739.290041 124.467879,738.834961 C124.143659,738.379881 123.686632,738.152344 123.096786,738.152344 C122.647565,738.152344 122.266709,738.262694 121.954207,738.483398 C121.641706,738.704103 121.40538,739.027342 121.245223,739.453125 L121.245223,742.3125 C121.596787,743.109379 122.217875,743.507812 123.108504,743.507812 C123.686632,743.507812 124.138776,743.279299 124.46495,742.822266 C124.791123,742.365232 124.954207,741.681645 124.954207,740.771484 Z M131.651038,738.257812 C131.502599,738.230469 131.344398,738.216797 131.176428,738.216797 C130.738926,738.216797 130.368813,738.338866 130.066077,738.583008 C129.763341,738.82715 129.547523,739.181638 129.418616,739.646484 L129.418616,744 L128.72135,744 L128.72135,737.660156 L129.406897,737.660156 L129.418616,738.667969 C129.789711,737.917965 130.385409,737.542969 131.205725,737.542969 C131.401039,737.542969 131.555334,737.568359 131.668616,737.619141 L131.651038,738.257812 Z M135.060759,744 L134.357634,744 L134.357634,737.660156 L135.060759,737.660156 L135.060759,744 Z M134.234587,735.826172 C134.234587,735.693359 134.277555,735.581055 134.363493,735.489258 C134.449431,735.39746 134.566617,735.351562 134.715055,735.351562 C134.863494,735.351562 134.981657,735.39746 135.069548,735.489258 C135.157439,735.581055 135.201384,735.693359 135.201384,735.826172 C135.201384,735.958985 135.157439,736.070312 135.069548,736.160156 C134.981657,736.25 134.863494,736.294922 134.715055,736.294922 C134.566617,736.294922 134.449431,736.25 134.363493,736.160156 C134.277555,736.070312 134.234587,735.958985 134.234587,735.826172 Z M142.279073,742.388672 C142.279073,742.041014 142.139426,741.76172 141.860128,741.550781 C141.58083,741.339843 141.159935,741.174805 140.597433,741.055664 C140.03493,740.936523 139.598411,740.799805 139.287862,740.645508 C138.977314,740.49121 138.746847,740.302735 138.596456,740.080078 C138.446065,739.857421 138.37087,739.587892 138.37087,739.271484 C138.37087,738.771482 138.579852,738.3584 138.997823,738.032227 C139.415794,737.706053 139.950945,737.542969 140.603292,737.542969 C141.310327,737.542969 141.877704,737.717772 142.30544,738.067383 C142.733177,738.416994 142.947042,738.873044 142.947042,739.435547 L142.243917,739.435547 C142.243917,739.064451 142.088645,738.755861 141.778097,738.509766 C141.467548,738.263671 141.075951,738.140625 140.603292,738.140625 C140.142352,738.140625 139.772239,738.243163 139.49294,738.448242 C139.213642,738.653321 139.073995,738.91992 139.073995,739.248047 C139.073995,739.564455 139.190205,739.809569 139.422628,739.983398 C139.655051,740.157227 140.078875,740.316406 140.694112,740.460938 C141.30935,740.605469 141.770283,740.759765 142.076925,740.923828 C142.383567,741.087891 142.611104,741.285155 142.759542,741.515625 C142.90798,741.746095 142.982198,742.025389 142.982198,742.353516 C142.982198,742.888675 142.76638,743.316405 142.334737,743.636719 C141.903095,743.957033 141.339624,744.117188 140.644308,744.117188 C139.906023,744.117188 139.307396,743.938478 138.848409,743.581055 C138.389423,743.223631 138.159933,742.771487 138.159933,742.224609 L138.863058,742.224609 C138.890402,742.634768 139.063251,742.9541 139.381612,743.182617 C139.699973,743.411134 140.120867,743.525391 140.644308,743.525391 C141.132591,743.525391 141.527119,743.41797 141.827901,743.203125 C142.128684,742.98828 142.279073,742.716799 142.279073,742.388672 Z M147.581372,740.806641 L146.778638,741.580078 L146.778638,744 L146.075513,744 L146.075513,735 L146.778638,735 L146.778638,740.759766 L147.440747,740.044922 L149.866529,737.660156 L150.751294,737.660156 L148.061841,740.332031 L150.985669,744 L150.147779,744 L147.581372,740.806641 Z M155.479374,742.992188 L157.330937,737.660156 L158.086796,737.660156 L155.379765,745.078125 L155.23914,745.40625 C154.891482,746.175785 154.354378,746.560547 153.627812,746.560547 C153.459842,746.560547 153.280157,746.533203 153.088749,746.478516 L153.08289,745.898438 L153.446171,745.933594 C153.789923,745.933594 154.068241,745.848634 154.281132,745.678711 C154.494024,745.508788 154.674686,745.216799 154.823124,744.802734 L155.133671,743.947266 L152.743046,737.660156 L153.510624,737.660156 L155.479374,742.992188 Z M166.007801,740.525391 L166.007801,744 L165.287097,744 L165.287097,735.46875 L168.193347,735.46875 C169.080071,735.46875 169.780259,735.69531 170.293933,736.148438 C170.807608,736.601565 171.064441,737.224605 171.064441,738.017578 C171.064441,738.818363 170.817373,739.436521 170.32323,739.87207 C169.829087,740.307619 169.113274,740.525391 168.175769,740.525391 L166.007801,740.525391 Z M166.007801,739.916016 L168.193347,739.916016 C168.89257,739.916016 169.425767,739.750002 169.792957,739.417969 C170.160146,739.085936 170.343738,738.62305 170.343738,738.029297 C170.343738,737.43945 170.161123,736.969728 169.795887,736.620117 C169.43065,736.270506 168.912101,736.091797 168.240222,736.083984 L166.007801,736.083984 L166.007801,739.916016 Z M173.565959,740.736328 C173.565959,740.12695 173.684122,739.578127 173.920451,739.089844 C174.15678,738.60156 174.490762,738.221681 174.922404,737.950195 C175.354047,737.67871 175.8433,737.542969 176.390178,737.542969 C177.233932,737.542969 177.917519,737.838864 178.440959,738.430664 C178.964399,739.022464 179.226115,739.806636 179.226115,740.783203 L179.226115,740.929688 C179.226115,741.542972 179.107952,742.094724 178.871623,742.584961 C178.635294,743.075198 178.302289,743.453124 177.8726,743.71875 C177.44291,743.984376 176.95268,744.117188 176.401896,744.117188 C175.562049,744.117188 174.879438,743.821292 174.354045,743.229492 C173.828652,742.637692 173.565959,741.853521 173.565959,740.876953 L173.565959,740.736328 Z M174.269084,740.929688 C174.269084,741.687504 174.465371,742.309568 174.857951,742.795898 C175.250531,743.282229 175.765175,743.525391 176.401896,743.525391 C177.034712,743.525391 177.547402,743.282229 177.939982,742.795898 C178.332563,742.309568 178.52885,741.667973 178.52885,740.871094 L178.52885,740.736328 C178.52885,740.251951 178.439007,739.808596 178.259318,739.40625 C178.07963,739.003904 177.827679,738.692384 177.503459,738.47168 C177.179239,738.250975 176.808149,738.140625 176.390178,738.140625 C175.765175,738.140625 175.255414,738.38574 174.860881,738.875977 C174.466348,739.366213 174.269084,740.007809 174.269084,740.800781 L174.269084,740.929688 Z M182.97568,744 L182.272555,744 L182.272555,737.660156 L182.97568,737.660156 L182.97568,744 Z M182.149508,735.826172 C182.149508,735.693359 182.192476,735.581055 182.278414,735.489258 C182.364352,735.39746 182.481539,735.351562 182.629977,735.351562 C182.778415,735.351562 182.896578,735.39746 182.984469,735.489258 C183.07236,735.581055 183.116305,735.693359 183.116305,735.826172 C183.116305,735.958985 183.07236,736.070312 182.984469,736.160156 C182.896578,736.25 182.778415,736.294922 182.629977,736.294922 C182.481539,736.294922 182.364352,736.25 182.278414,736.160156 C182.192476,736.070312 182.149508,735.958985 182.149508,735.826172 Z M187.065088,737.660156 L187.088526,738.744141 C187.326808,738.353514 187.62368,738.055665 187.979151,737.850586 C188.334621,737.645507 188.727195,737.542969 189.156885,737.542969 C189.836576,737.542969 190.34243,737.734373 190.674463,738.117188 C191.006496,738.500002 191.174463,739.074215 191.17837,739.839844 L191.17837,744 L190.481104,744 L190.481104,739.833984 C190.477198,739.267575 190.357082,738.845705 190.120752,738.568359 C189.884423,738.291014 189.506497,738.152344 188.986963,738.152344 C188.553367,738.152344 188.169582,738.288085 187.835596,738.55957 C187.50161,738.831056 187.254542,739.197263 187.094385,739.658203 L187.094385,744 L186.39712,744 L186.39712,737.660156 L187.065088,737.660156 Z M195.595903,736.037109 L195.595903,737.660156 L196.908403,737.660156 L196.908403,738.234375 L195.595903,738.234375 L195.595903,742.458984 C195.595903,742.810549 195.659379,743.072265 195.786333,743.244141 C195.913286,743.416016 196.125198,743.501953 196.422075,743.501953 C196.539263,743.501953 196.728714,743.482422 196.990434,743.443359 L197.019731,744.017578 C196.836136,744.083985 196.586139,744.117188 196.269731,744.117188 C195.78926,744.117188 195.439654,743.97754 195.220903,743.698242 C195.002152,743.418944 194.892778,743.007815 194.892778,742.464844 L194.892778,738.234375 L193.726762,738.234375 L193.726762,737.660156 L194.892778,737.660156 L194.892778,736.037109 L195.595903,736.037109 Z" id="Zabrisky-Point"></path>
        </g>
    </g>
</svg>