<?xml version="1.0" encoding="UTF-8"?>
<svg width="100px" height="10px" viewBox="0 0 100 10" version="1.1" xmlns="http://www.w3.org/2000/svg" xmlns:xlink="http://www.w3.org/1999/xlink">
    <!-- Generator: Sketch 41.2 (35397) - http://www.bohemiancoding.com/sketch -->
    <title>Badwater Basin</title>
    <desc>Created with Sketch.</desc>
    <defs></defs>
    <g id="Page-1" stroke="none" stroke-width="1" fill="none" fill-rule="evenodd">
        <g id="Desktop-HD" transform="translate(-106.000000, -855.000000)" fill="#FFFFFF">
            <path d="M106.078125,864 L106.078125,855.46875 L108.597656,855.46875 C109.511723,855.46875 110.205076,855.657225 110.677734,856.03418 C111.150393,856.411135 111.386719,856.966793 111.386719,857.701172 C111.386719,858.14258 111.266603,858.526366 111.026367,858.852539 C110.786132,859.178713 110.457033,859.412109 110.039062,859.552734 C110.535159,859.66211 110.934569,859.906248 111.237305,860.285156 C111.540041,860.664064 111.691406,861.10156 111.691406,861.597656 C111.691406,862.351566 111.448245,862.940428 110.961914,863.364258 C110.475584,863.788088 109.798832,864 108.931641,864 L106.078125,864 Z M106.798828,859.898438 L106.798828,863.390625 L108.960938,863.390625 C109.578128,863.390625 110.067381,863.2334 110.428711,862.918945 C110.790041,862.604491 110.970703,862.167972 110.970703,861.609375 C110.970703,861.082029 110.797853,860.665041 110.452148,860.358398 C110.106444,860.051756 109.628909,859.898438 109.019531,859.898438 L106.798828,859.898438 Z M106.798828,859.294922 L108.767578,859.294922 C109.369144,859.283203 109.834959,859.141603 110.165039,858.870117 C110.495119,858.598631 110.660156,858.203128 110.660156,857.683594 C110.660156,857.136716 110.48926,856.7334 110.147461,856.473633 C109.805662,856.213866 109.289066,856.083984 108.597656,856.083984 L106.798828,856.083984 L106.798828,859.294922 Z M118.786674,864 C118.716361,863.80078 118.67144,863.505861 118.651908,863.115234 C118.405813,863.435548 118.09234,863.682616 117.711479,863.856445 C117.330617,864.030274 116.927301,864.117188 116.501518,864.117188 C115.89214,864.117188 115.398981,863.947267 115.022026,863.607422 C114.645071,863.267576 114.456596,862.837893 114.456596,862.318359 C114.456596,861.701169 114.713429,861.212892 115.227104,860.853516 C115.740778,860.494139 116.456591,860.314453 117.374565,860.314453 L118.646049,860.314453 L118.646049,859.59375 C118.646049,859.140623 118.506402,858.784181 118.227104,858.524414 C117.947805,858.264647 117.540583,858.134766 117.005424,858.134766 C116.51714,858.134766 116.112847,858.259764 115.792533,858.509766 C115.472219,858.759767 115.312065,859.060545 115.312065,859.412109 L114.60894,859.40625 C114.60894,858.902341 114.843312,858.465822 115.312065,858.09668 C115.780817,857.727537 116.356983,857.542969 117.04058,857.542969 C117.747615,857.542969 118.305227,857.719725 118.713432,858.073242 C119.121637,858.42676 119.331596,858.919919 119.343315,859.552734 L119.343315,862.552734 C119.343315,863.166019 119.407767,863.624998 119.536674,863.929688 L119.536674,864 L118.786674,864 Z M116.583549,863.496094 C117.052301,863.496094 117.471242,863.382814 117.840385,863.15625 C118.209527,862.929686 118.478079,862.626955 118.646049,862.248047 L118.646049,860.853516 L117.392143,860.853516 C116.692921,860.861328 116.146051,860.989257 115.751518,861.237305 C115.356985,861.485353 115.159721,861.82617 115.159721,862.259766 C115.159721,862.615236 115.291556,862.910155 115.555229,863.144531 C115.818902,863.378907 116.161672,863.496094 116.583549,863.496094 Z M122.448348,860.771484 C122.448348,859.787104 122.668072,859.002933 123.107528,858.418945 C123.546983,857.834958 124.143657,857.542969 124.897567,857.542969 C125.75304,857.542969 126.405377,857.880856 126.854598,858.556641 L126.854598,855 L127.551864,855 L127.551864,864 L126.895614,864 L126.866317,863.15625 C126.417096,863.796878 125.756946,864.117188 124.885848,864.117188 C124.155376,864.117188 123.566514,863.823245 123.119246,863.235352 C122.671979,862.647458 122.448348,861.853521 122.448348,860.853516 L122.448348,860.771484 Z M123.157332,860.894531 C123.157332,861.703129 123.31944,862.340818 123.643661,862.807617 C123.967881,863.274416 124.424908,863.507812 125.014754,863.507812 C125.87804,863.507812 126.491315,863.126957 126.854598,862.365234 L126.854598,859.388672 C126.491315,858.564449 125.881946,858.152344 125.026473,858.152344 C124.436626,858.152344 123.977647,858.383787 123.64952,858.84668 C123.321393,859.309573 123.157332,859.992183 123.157332,860.894531 Z M132.432288,862.541016 L132.537756,863.085938 L132.678381,862.511719 L134.201819,857.660156 L134.799475,857.660156 L136.305335,862.470703 L136.469397,863.138672 L136.604163,862.523438 L137.904944,857.660156 L138.631506,857.660156 L136.785803,864 L136.188147,864 L134.559241,858.972656 L134.483069,858.626953 L134.406897,858.978516 L132.807288,864 L132.209631,864 L130.369788,857.660156 L131.090491,857.660156 L132.432288,862.541016 Z M145.48068,864 C145.410368,863.80078 145.365446,863.505861 145.345915,863.115234 C145.09982,863.435548 144.786346,863.682616 144.405485,863.856445 C144.024624,864.030274 143.621308,864.117188 143.195524,864.117188 C142.586146,864.117188 142.092987,863.947267 141.716032,863.607422 C141.339077,863.267576 141.150602,862.837893 141.150602,862.318359 C141.150602,861.701169 141.407436,861.212892 141.92111,860.853516 C142.434785,860.494139 143.150598,860.314453 144.068571,860.314453 L145.340055,860.314453 L145.340055,859.59375 C145.340055,859.140623 145.200408,858.784181 144.92111,858.524414 C144.641812,858.264647 144.234589,858.134766 143.69943,858.134766 C143.211147,858.134766 142.806854,858.259764 142.48654,858.509766 C142.166226,858.759767 142.006071,859.060545 142.006071,859.412109 L141.302946,859.40625 C141.302946,858.902341 141.537319,858.465822 142.006071,858.09668 C142.474823,857.727537 143.05099,857.542969 143.734587,857.542969 C144.441622,857.542969 144.999233,857.719725 145.407438,858.073242 C145.815643,858.42676 146.025602,858.919919 146.037321,859.552734 L146.037321,862.552734 C146.037321,863.166019 146.101774,863.624998 146.23068,863.929688 L146.23068,864 L145.48068,864 Z M143.277555,863.496094 C143.746308,863.496094 144.165249,863.382814 144.534391,863.15625 C144.903534,862.929686 145.172086,862.626955 145.340055,862.248047 L145.340055,860.853516 L144.086149,860.853516 C143.386927,860.861328 142.840057,860.989257 142.445524,861.237305 C142.050991,861.485353 141.853727,861.82617 141.853727,862.259766 C141.853727,862.615236 141.985562,862.910155 142.249235,863.144531 C142.512908,863.378907 142.855678,863.496094 143.277555,863.496094 Z M150.513448,856.037109 L150.513448,857.660156 L151.825948,857.660156 L151.825948,858.234375 L150.513448,858.234375 L150.513448,862.458984 C150.513448,862.810549 150.576924,863.072265 150.703878,863.244141 C150.830832,863.416016 151.042744,863.501953 151.33962,863.501953 C151.456808,863.501953 151.646259,863.482422 151.907979,863.443359 L151.937276,864.017578 C151.753682,864.083985 151.503684,864.117188 151.187276,864.117188 C150.706805,864.117188 150.357199,863.97754 150.138448,863.698242 C149.919697,863.418944 149.810323,863.007815 149.810323,862.464844 L149.810323,858.234375 L148.644308,858.234375 L148.644308,857.660156 L149.810323,857.660156 L149.810323,856.037109 L150.513448,856.037109 Z M157.251294,864.117188 C156.712229,864.117188 156.224929,863.984376 155.78938,863.71875 C155.353831,863.453124 155.014967,863.08301 154.772779,862.608398 C154.53059,862.133787 154.409497,861.601565 154.409497,861.011719 L154.409497,860.759766 C154.409497,860.150388 154.52766,859.601565 154.763989,859.113281 C155.000319,858.624998 155.329417,858.241212 155.751294,857.961914 C156.173171,857.682616 156.630198,857.542969 157.122388,857.542969 C157.891923,857.542969 158.502268,857.805661 158.953443,858.331055 C159.404617,858.856448 159.6302,859.574214 159.6302,860.484375 L159.6302,860.876953 L155.106763,860.876953 L155.106763,861.011719 C155.106763,861.730472 155.312816,862.329099 155.724927,862.807617 C156.137038,863.286135 156.655588,863.525391 157.280591,863.525391 C157.655593,863.525391 157.986644,863.457032 158.273755,863.320312 C158.560866,863.183593 158.821605,862.964845 159.055982,862.664062 L159.495435,862.998047 C158.979807,863.744144 158.231768,864.117188 157.251294,864.117188 Z M157.122388,858.140625 C156.595041,858.140625 156.15071,858.333982 155.78938,858.720703 C155.42805,859.107424 155.208326,859.62695 155.1302,860.279297 L158.932935,860.279297 L158.932935,860.203125 C158.913403,859.593747 158.739577,859.097658 158.41145,858.714844 C158.083324,858.332029 157.653641,858.140625 157.122388,858.140625 Z M165.442265,858.257812 C165.293827,858.230469 165.135625,858.216797 164.967656,858.216797 C164.530153,858.216797 164.16004,858.338866 163.857304,858.583008 C163.554568,858.82715 163.33875,859.181638 163.209843,859.646484 L163.209843,864 L162.512578,864 L162.512578,857.660156 L163.198124,857.660156 L163.209843,858.667969 C163.580939,857.917965 164.176636,857.542969 164.996953,857.542969 C165.192266,857.542969 165.346561,857.568359 165.459843,857.619141 L165.442265,858.257812 Z M172.666004,864 L172.666004,855.46875 L175.185535,855.46875 C176.099602,855.46875 176.792954,855.657225 177.265613,856.03418 C177.738272,856.411135 177.974597,856.966793 177.974597,857.701172 C177.974597,858.14258 177.854481,858.526366 177.614246,858.852539 C177.37401,859.178713 177.044912,859.412109 176.626941,859.552734 C177.123037,859.66211 177.522448,859.906248 177.825183,860.285156 C178.127919,860.664064 178.279285,861.10156 178.279285,861.597656 C178.279285,862.351566 178.036123,862.940428 177.549793,863.364258 C177.063462,863.788088 176.386711,864 175.519519,864 L172.666004,864 Z M173.386707,859.898438 L173.386707,863.390625 L175.548816,863.390625 C176.166007,863.390625 176.65526,863.2334 177.01659,862.918945 C177.37792,862.604491 177.558582,862.167972 177.558582,861.609375 C177.558582,861.082029 177.385732,860.665041 177.040027,860.358398 C176.694322,860.051756 176.216788,859.898438 175.60741,859.898438 L173.386707,859.898438 Z M173.386707,859.294922 L175.355457,859.294922 C175.957022,859.283203 176.422838,859.141603 176.752918,858.870117 C177.082998,858.598631 177.248035,858.203128 177.248035,857.683594 C177.248035,857.136716 177.077138,856.7334 176.73534,856.473633 C176.393541,856.213866 175.876945,856.083984 175.185535,856.083984 L173.386707,856.083984 L173.386707,859.294922 Z M185.374553,864 C185.30424,863.80078 185.259318,863.505861 185.239787,863.115234 C184.993692,863.435548 184.680219,863.682616 184.299357,863.856445 C183.918496,864.030274 183.51518,864.117188 183.089396,864.117188 C182.480018,864.117188 181.986859,863.947267 181.609904,863.607422 C181.232949,863.267576 181.044475,862.837893 181.044475,862.318359 C181.044475,861.701169 181.301308,861.212892 181.814982,860.853516 C182.328657,860.494139 183.04447,860.314453 183.962443,860.314453 L185.233928,860.314453 L185.233928,859.59375 C185.233928,859.140623 185.094281,858.784181 184.814982,858.524414 C184.535684,858.264647 184.128462,858.134766 183.593303,858.134766 C183.105019,858.134766 182.700726,858.259764 182.380412,858.509766 C182.060098,858.759767 181.899943,859.060545 181.899943,859.412109 L181.196818,859.40625 C181.196818,858.902341 181.431191,858.465822 181.899943,858.09668 C182.368696,857.727537 182.944862,857.542969 183.628459,857.542969 C184.335494,857.542969 184.893105,857.719725 185.301311,858.073242 C185.709516,858.42676 185.919475,858.919919 185.931193,859.552734 L185.931193,862.552734 C185.931193,863.166019 185.995646,863.624998 186.124553,863.929688 L186.124553,864 L185.374553,864 Z M183.171428,863.496094 C183.64018,863.496094 184.059121,863.382814 184.428264,863.15625 C184.797406,862.929686 185.065958,862.626955 185.233928,862.248047 L185.233928,860.853516 L183.980021,860.853516 C183.280799,860.861328 182.73393,860.989257 182.339396,861.237305 C181.944863,861.485353 181.7476,861.82617 181.7476,862.259766 C181.7476,862.615236 181.879434,862.910155 182.143107,863.144531 C182.406781,863.378907 182.749551,863.496094 183.171428,863.496094 Z M193.114352,862.388672 C193.114352,862.041014 192.974705,861.76172 192.695406,861.550781 C192.416108,861.339843 191.995214,861.174805 191.432711,861.055664 C190.870208,860.936523 190.433689,860.799805 190.123141,860.645508 C189.812592,860.49121 189.582126,860.302735 189.431735,860.080078 C189.281343,859.857421 189.206149,859.587892 189.206149,859.271484 C189.206149,858.771482 189.415131,858.3584 189.833102,858.032227 C190.251073,857.706053 190.786223,857.542969 191.43857,857.542969 C192.145605,857.542969 192.712982,857.717772 193.140719,858.067383 C193.568455,858.416994 193.78232,858.873044 193.78232,859.435547 L193.079195,859.435547 C193.079195,859.064451 192.923924,858.755861 192.613375,858.509766 C192.302827,858.263671 191.911229,858.140625 191.43857,858.140625 C190.977631,858.140625 190.607517,858.243163 190.328219,858.448242 C190.048921,858.653321 189.909274,858.91992 189.909274,859.248047 C189.909274,859.564455 190.025483,859.809569 190.257906,859.983398 C190.490329,860.157227 190.914153,860.316406 191.529391,860.460938 C192.144628,860.605469 192.605561,860.759765 192.912203,860.923828 C193.218845,861.087891 193.446382,861.285155 193.59482,861.515625 C193.743259,861.746095 193.817477,862.025389 193.817477,862.353516 C193.817477,862.888675 193.601659,863.316405 193.170016,863.636719 C192.738373,863.957033 192.174902,864.117188 191.479586,864.117188 C190.741301,864.117188 190.142674,863.938478 189.683688,863.581055 C189.224701,863.223631 188.995211,862.771487 188.995211,862.224609 L189.698336,862.224609 C189.72568,862.634768 189.89853,862.9541 190.216891,863.182617 C190.535252,863.411134 190.956146,863.525391 191.479586,863.525391 C191.96787,863.525391 192.362397,863.41797 192.66318,863.203125 C192.963963,862.98828 193.114352,862.716799 193.114352,862.388672 Z M197.695948,864 L196.992823,864 L196.992823,857.660156 L197.695948,857.660156 L197.695948,864 Z M196.869776,855.826172 C196.869776,855.693359 196.912744,855.581055 196.998682,855.489258 C197.08462,855.39746 197.201806,855.351562 197.350245,855.351562 C197.498683,855.351562 197.616846,855.39746 197.704737,855.489258 C197.792628,855.581055 197.836573,855.693359 197.836573,855.826172 C197.836573,855.958985 197.792628,856.070312 197.704737,856.160156 C197.616846,856.25 197.498683,856.294922 197.350245,856.294922 C197.201806,856.294922 197.08462,856.25 196.998682,856.160156 C196.912744,856.070312 196.869776,855.958985 196.869776,855.826172 Z M201.785356,857.660156 L201.808794,858.744141 C202.047076,858.353514 202.343948,858.055665 202.699419,857.850586 C203.054889,857.645507 203.447463,857.542969 203.877153,857.542969 C204.556844,857.542969 205.062698,857.734373 205.394731,858.117188 C205.726764,858.500002 205.894731,859.074215 205.898637,859.839844 L205.898637,864 L205.201372,864 L205.201372,859.833984 C205.197465,859.267575 205.077349,858.845705 204.84102,858.568359 C204.604691,858.291014 204.226765,858.152344 203.707231,858.152344 C203.273635,858.152344 202.88985,858.288085 202.555864,858.55957 C202.221878,858.831056 201.97481,859.197263 201.814653,859.658203 L201.814653,864 L201.117387,864 L201.117387,857.660156 L201.785356,857.660156 Z" id="Badwater-Basin"></path>
        </g>
    </g>
</svg>