<?xml version="1.0" encoding="UTF-8"?>
<svg width="82px" height="13px" viewBox="0 0 82 13" version="1.1" xmlns="http://www.w3.org/2000/svg" xmlns:xlink="http://www.w3.org/1999/xlink">
    <!-- Generator: Sketch 41.2 (35397) - http://www.bohemiancoding.com/sketch -->
    <title>SFO feelings</title>
    <desc>Created with Sketch.</desc>
    <defs></defs>
    <g id="Page-1" stroke="none" stroke-width="1" fill="none" fill-rule="evenodd">
        <g id="index-1-rast" transform="translate(-132.000000, -527.000000)" fill="#FFFFFF">
            <path d="M137.90625,534.902344 C137.90625,534.429685 137.740236,534.055665 137.408203,533.780273 C137.07617,533.504881 136.468754,533.243165 135.585938,532.995117 C134.703121,532.747069 134.058596,532.476564 133.652344,532.183594 C133.074216,531.769529 132.785156,531.226566 132.785156,530.554688 C132.785156,529.90234 133.053708,529.372072 133.59082,528.963867 C134.127932,528.555662 134.814449,528.351562 135.650391,528.351562 C136.2168,528.351562 136.723631,528.460936 137.170898,528.679688 C137.618166,528.898439 137.964843,529.203123 138.210938,529.59375 C138.457032,529.984377 138.580078,530.419919 138.580078,530.900391 L137.853516,530.900391 C137.853516,530.318356 137.654299,529.850588 137.255859,529.49707 C136.85742,529.143553 136.322269,528.966797 135.650391,528.966797 C134.998044,528.966797 134.478518,529.112303 134.091797,529.40332 C133.705076,529.694337 133.511719,530.074216 133.511719,530.542969 C133.511719,530.976565 133.685545,531.330077 134.033203,531.603516 C134.380861,531.876954 134.937496,532.118163 135.703125,532.327148 C136.468754,532.536134 137.048826,532.752929 137.443359,532.977539 C137.837893,533.20215 138.134765,533.470702 138.333984,533.783203 C138.533204,534.095705 138.632812,534.464842 138.632812,534.890625 C138.632812,535.562503 138.36426,536.10156 137.827148,536.507812 C137.290036,536.914065 136.582036,537.117188 135.703125,537.117188 C135.101559,537.117188 134.549807,537.009767 134.047852,536.794922 C133.545896,536.580077 133.16504,536.279299 132.905273,535.892578 C132.645507,535.505857 132.515625,535.062503 132.515625,534.5625 L133.236328,534.5625 C133.236328,535.164066 133.460935,535.63867 133.910156,535.986328 C134.359377,536.333986 134.957028,536.507812 135.703125,536.507812 C136.367191,536.507812 136.900389,536.36133 137.302734,536.068359 C137.70508,535.775389 137.90625,535.386721 137.90625,534.902344 Z M146.401908,533.015625 L142.423393,533.015625 L142.423393,537 L141.70269,537 L141.70269,528.46875 L146.987846,528.46875 L146.987846,529.083984 L142.423393,529.083984 L142.423393,532.400391 L146.401908,532.400391 L146.401908,533.015625 Z M156.27452,533.197266 C156.27452,533.982426 156.138779,534.671872 155.867293,535.265625 C155.595808,535.859378 155.208116,536.316405 154.704207,536.636719 C154.200299,536.957033 153.618273,537.117188 152.958114,537.117188 C151.962015,537.117188 151.157335,536.760746 150.544051,536.047852 C149.930767,535.334957 149.624129,534.373053 149.624129,533.162109 L149.624129,532.283203 C149.624129,531.505855 149.761823,530.817386 150.037215,530.217773 C150.312607,529.618161 150.702252,529.157228 151.206161,528.834961 C151.710069,528.512694 152.290142,528.351562 152.946395,528.351562 C153.602648,528.351562 154.181744,528.509764 154.6837,528.826172 C155.185655,529.14258 155.573347,529.589841 155.846786,530.167969 C156.120224,530.746097 156.262801,531.416012 156.27452,532.177734 L156.27452,533.197266 Z M155.553817,532.271484 C155.553817,531.244135 155.321397,530.439456 154.856551,529.857422 C154.391705,529.275388 153.754993,528.984375 152.946395,528.984375 C152.153422,528.984375 151.521593,529.276364 151.050887,529.860352 C150.580182,530.444339 150.344832,531.25976 150.344832,532.306641 L150.344832,533.197266 C150.344832,534.208989 150.579205,535.010739 151.047957,535.602539 C151.51671,536.194339 152.153422,536.490234 152.958114,536.490234 C153.774524,536.490234 154.411236,536.198245 154.86827,535.614258 C155.325303,535.030271 155.553817,534.216802 155.553817,533.173828 L155.553817,532.271484 Z M164.383024,537 L164.383024,531.234375 L163.334196,531.234375 L163.334196,530.660156 L164.383024,530.660156 L164.383024,529.892578 C164.383024,529.244137 164.548062,528.746095 164.878141,528.398438 C165.208221,528.05078 165.668178,527.876953 166.258024,527.876953 C166.523651,527.876953 166.771695,527.910156 167.002165,527.976562 L166.94943,528.5625 C166.754117,528.515625 166.541228,528.492188 166.310759,528.492188 C165.924038,528.492188 165.62326,528.612303 165.408415,528.852539 C165.19357,529.092775 165.086149,529.433592 165.086149,529.875 L165.086149,530.660156 L166.597868,530.660156 L166.597868,531.234375 L165.086149,531.234375 L165.086149,537 L164.383024,537 Z M171.68337,537.117188 C171.144305,537.117188 170.657005,536.984376 170.221456,536.71875 C169.785907,536.453124 169.447043,536.08301 169.204854,535.608398 C168.962666,535.133787 168.841573,534.601565 168.841573,534.011719 L168.841573,533.759766 C168.841573,533.150388 168.959736,532.601565 169.196065,532.113281 C169.432395,531.624998 169.761493,531.241212 170.18337,530.961914 C170.605247,530.682616 171.062274,530.542969 171.554464,530.542969 C172.323999,530.542969 172.934344,530.805661 173.385519,531.331055 C173.836693,531.856448 174.062276,532.574214 174.062276,533.484375 L174.062276,533.876953 L169.538839,533.876953 L169.538839,534.011719 C169.538839,534.730472 169.744891,535.329099 170.157003,535.807617 C170.569114,536.286135 171.087664,536.525391 171.712667,536.525391 C172.087669,536.525391 172.41872,536.457032 172.705831,536.320312 C172.992942,536.183593 173.253681,535.964845 173.488058,535.664062 L173.927511,535.998047 C173.411883,536.744144 172.663844,537.117188 171.68337,537.117188 Z M171.554464,531.140625 C171.027117,531.140625 170.582786,531.333982 170.221456,531.720703 C169.860126,532.107424 169.640402,532.62695 169.562276,533.279297 L173.365011,533.279297 L173.365011,533.203125 C173.345479,532.593747 173.171653,532.097658 172.843526,531.714844 C172.5154,531.332029 172.085717,531.140625 171.554464,531.140625 Z M179.399732,537.117188 C178.860666,537.117188 178.373367,536.984376 177.937818,536.71875 C177.502269,536.453124 177.163405,536.08301 176.921216,535.608398 C176.679027,535.133787 176.557935,534.601565 176.557935,534.011719 L176.557935,533.759766 C176.557935,533.150388 176.676098,532.601565 176.912427,532.113281 C177.148756,531.624998 177.477855,531.241212 177.899732,530.961914 C178.321609,530.682616 178.778635,530.542969 179.270825,530.542969 C180.04036,530.542969 180.650706,530.805661 181.10188,531.331055 C181.553054,531.856448 181.778638,532.574214 181.778638,533.484375 L181.778638,533.876953 L177.2552,533.876953 L177.2552,534.011719 C177.2552,534.730472 177.461253,535.329099 177.873364,535.807617 C178.285476,536.286135 178.804025,536.525391 179.429029,536.525391 C179.80403,536.525391 180.135082,536.457032 180.422193,536.320312 C180.709303,536.183593 180.970043,535.964845 181.204419,535.664062 L181.643872,535.998047 C181.128245,536.744144 180.380205,537.117188 179.399732,537.117188 Z M179.270825,531.140625 C178.743479,531.140625 178.299148,531.333982 177.937818,531.720703 C177.576488,532.107424 177.356763,532.62695 177.278638,533.279297 L181.081372,533.279297 L181.081372,533.203125 C181.061841,532.593747 180.888015,532.097658 180.559888,531.714844 C180.231761,531.332029 179.802078,531.140625 179.270825,531.140625 Z M185.446171,537 L184.743046,537 L184.743046,528 L185.446171,528 L185.446171,537 Z M189.652767,537 L188.949642,537 L188.949642,530.660156 L189.652767,530.660156 L189.652767,537 Z M188.826595,528.826172 C188.826595,528.693359 188.869564,528.581055 188.955502,528.489258 C189.041439,528.39746 189.158626,528.351562 189.307064,528.351562 C189.455502,528.351562 189.573665,528.39746 189.661556,528.489258 C189.749447,528.581055 189.793392,528.693359 189.793392,528.826172 C189.793392,528.958985 189.749447,529.070312 189.661556,529.160156 C189.573665,529.25 189.455502,529.294922 189.307064,529.294922 C189.158626,529.294922 189.041439,529.25 188.955502,529.160156 C188.869564,529.070312 188.826595,528.958985 188.826595,528.826172 Z M193.742176,530.660156 L193.765613,531.744141 C194.003896,531.353514 194.300768,531.055665 194.656238,530.850586 C195.011709,530.645507 195.404283,530.542969 195.833972,530.542969 C196.513663,530.542969 197.019518,530.734373 197.351551,531.117188 C197.683583,531.500002 197.851551,532.074215 197.855457,532.839844 L197.855457,537 L197.158191,537 L197.158191,532.833984 C197.154285,532.267575 197.034169,531.845705 196.79784,531.568359 C196.56151,531.291014 196.183584,531.152344 195.664051,531.152344 C195.230455,531.152344 194.846669,531.288085 194.512683,531.55957 C194.178697,531.831056 193.93163,532.197263 193.771472,532.658203 L193.771472,537 L193.074207,537 L193.074207,530.660156 L193.742176,530.660156 Z M200.901896,533.771484 C200.901896,532.779292 201.121621,531.993167 201.561076,531.413086 C202.000531,530.833005 202.597205,530.542969 203.351115,530.542969 C204.214401,530.542969 204.870644,530.886715 205.319865,531.574219 L205.355021,530.660156 L206.011271,530.660156 L206.011271,536.871094 C206.011271,537.687504 205.782758,538.333982 205.325725,538.810547 C204.868691,539.287112 204.249557,539.525391 203.468303,539.525391 C203.026894,539.525391 202.606,539.426759 202.205607,539.229492 C201.805215,539.032226 201.489788,538.769533 201.259318,538.441406 L201.651896,538.019531 C202.147993,538.628909 202.737831,538.933594 203.421428,538.933594 C204.007368,538.933594 204.464395,538.760744 204.792521,538.415039 C205.120648,538.069334 205.290568,537.589847 205.302287,536.976562 L205.302287,536.179688 C204.853066,536.804691 204.198776,537.117188 203.339396,537.117188 C202.605018,537.117188 202.01518,536.824222 201.569865,536.238281 C201.124551,535.652341 200.901896,534.861333 200.901896,533.865234 L200.901896,533.771484 Z M201.610881,533.894531 C201.610881,534.703129 201.772989,535.340818 202.097209,535.807617 C202.421429,536.274416 202.878456,536.507812 203.468303,536.507812 C204.331588,536.507812 204.94291,536.121098 205.302287,535.347656 L205.302287,532.400391 C205.138224,531.994139 204.901898,531.684571 204.593303,531.47168 C204.284707,531.258788 203.913617,531.152344 203.480021,531.152344 C202.890175,531.152344 202.431195,531.383787 202.103068,531.84668 C201.774942,532.309573 201.610881,532.992183 201.610881,533.894531 Z M213.153414,535.388672 C213.153414,535.041014 213.013767,534.76172 212.734469,534.550781 C212.455171,534.339843 212.034276,534.174805 211.471774,534.055664 C210.909271,533.936523 210.472752,533.799805 210.162203,533.645508 C209.851655,533.49121 209.621188,533.302735 209.470797,533.080078 C209.320406,532.857421 209.245211,532.587892 209.245211,532.271484 C209.245211,531.771482 209.454193,531.3584 209.872164,531.032227 C210.290135,530.706053 210.825286,530.542969 211.477633,530.542969 C212.184668,530.542969 212.752045,530.717772 213.179781,531.067383 C213.607518,531.416994 213.821383,531.873044 213.821383,532.435547 L213.118258,532.435547 C213.118258,532.064451 212.962986,531.755861 212.652438,531.509766 C212.341889,531.263671 211.950292,531.140625 211.477633,531.140625 C211.016693,531.140625 210.64658,531.243163 210.367281,531.448242 C210.087983,531.653321 209.948336,531.91992 209.948336,532.248047 C209.948336,532.564455 210.064546,532.809569 210.296969,532.983398 C210.529392,533.157227 210.953216,533.316406 211.568453,533.460938 C212.183691,533.605469 212.644624,533.759765 212.951266,533.923828 C213.257908,534.087891 213.485445,534.285155 213.633883,534.515625 C213.782321,534.746095 213.856539,535.025389 213.856539,535.353516 C213.856539,535.888675 213.640721,536.316405 213.209078,536.636719 C212.777436,536.957033 212.213965,537.117188 211.518649,537.117188 C210.780364,537.117188 210.181737,536.938478 209.72275,536.581055 C209.263764,536.223631 209.034274,535.771487 209.034274,535.224609 L209.737399,535.224609 C209.764743,535.634768 209.937592,535.9541 210.255953,536.182617 C210.574314,536.411134 210.995209,536.525391 211.518649,536.525391 C212.006932,536.525391 212.40146,536.41797 212.702242,536.203125 C213.003025,535.98828 213.153414,535.716799 213.153414,535.388672 Z" id="SFO-feelings"></path>
        </g>
    </g>
</svg>