<?xml version="1.0" encoding="UTF-8"?>
<svg width="211px" height="77px" viewBox="0 0 211 77" version="1.1" xmlns="http://www.w3.org/2000/svg" xmlns:xlink="http://www.w3.org/1999/xlink">
    <!-- Generator: Sketch 41.2 (35397) - http://www.bohemiancoding.com/sketch -->
    <title>Group 3</title>
    <desc>Created with Sketch.</desc>
    <defs></defs>
    <g id="Page-1" stroke="none" stroke-width="1" fill="none" fill-rule="evenodd">
        <g id="Desktop-HD" transform="translate(-898.000000, -57.000000)" fill="#000000">
            <g id="Group-3" transform="translate(898.000000, 57.000000)">
                <path d="M8.03222656,2.12695312 L4.83300781,2.12695312 L4.83300781,11 L3.52734375,11 L3.52734375,2.12695312 L0.334960938,2.12695312 L0.334960938,1.046875 L8.03222656,1.046875 L8.03222656,2.12695312 Z M17.855625,1.046875 L17.855625,7.81445312 C17.8510677,8.7532599 17.555986,9.52115587 16.9703711,10.1181641 C16.3847562,10.7151723 15.5906561,11.0501298 14.5880469,11.1230469 L14.2394141,11.1367188 C13.1502159,11.1367188 12.2820606,10.8427764 11.6349219,10.2548828 C10.9877833,9.66698925 10.6596615,8.85807807 10.6505469,7.828125 L10.6505469,1.046875 L11.949375,1.046875 L11.949375,7.78710938 C11.949375,8.50716506 12.1476152,9.06656702 12.5441016,9.46533203 C12.940588,9.86409705 13.5056865,10.0634766 14.2394141,10.0634766 C14.9822564,10.0634766 15.5507728,9.86523636 15.9449805,9.46875 C16.3391882,9.07226364 16.5362891,8.514001 16.5362891,7.79394531 L16.5362891,1.046875 L17.855625,1.046875 Z M28.9231641,6.34472656 C28.9231641,7.31999186 28.7591033,8.17105756 28.4309766,8.89794922 C28.10285,9.62484087 27.6380109,10.1796856 27.0364454,10.5625 C26.4348799,10.9453144 25.733064,11.1367188 24.9309766,11.1367188 C24.1471185,11.1367188 23.4521385,10.9441751 22.8460157,10.559082 C22.2398929,10.173989 21.7693572,9.62484081 21.4343946,8.91162109 C21.099432,8.19840138 20.9273959,7.37240053 20.9182813,6.43359375 L20.9182813,5.71582031 C20.9182813,4.75878428 21.0846208,3.91341513 21.4173048,3.1796875 C21.7499887,2.44595987 22.2205244,1.88427929 22.8289258,1.49462891 C23.4373273,1.10497852 24.1334467,0.91015625 24.9173048,0.91015625 C25.7148348,0.91015625 26.41779,1.1026999 27.0261915,1.48779297 C27.634593,1.87288604 28.10285,2.43114869 28.4309766,3.16259766 C28.7591033,3.89404663 28.9231641,4.74511233 28.9231641,5.71582031 L28.9231641,6.34472656 Z M27.6175001,5.70214844 C27.6175001,4.52180399 27.3805233,3.61605133 26.9065626,2.98486328 C26.4326019,2.35367523 25.7695226,2.03808594 24.9173048,2.03808594 C24.0878735,2.03808594 23.435048,2.35367523 22.9588087,2.98486328 C22.4825693,3.61605133 22.2376173,4.49218189 22.2239454,5.61328125 L22.2239454,6.34472656 C22.2239454,7.48861249 22.4643401,8.38752928 22.9451368,9.04150391 C23.4259335,9.69547853 24.0878735,10.0224609 24.9309766,10.0224609 C25.7786371,10.0224609 26.4348806,9.71370751 26.8997266,9.09619141 C27.3645727,8.4786753 27.6038281,7.59343024 27.6175001,6.44042969 L27.6175001,5.70214844 Z M33.5512501,9.92675781 L38.268047,9.92675781 L38.268047,11 L32.2319142,11 L32.2319142,1.046875 L33.5512501,1.046875 L33.5512501,9.92675781 Z M47.7428126,1.046875 L47.7428126,7.81445312 C47.7382553,8.7532599 47.4431736,9.52115587 46.8575587,10.1181641 C46.2719438,10.7151723 45.4778437,11.0501298 44.4752345,11.1230469 L44.1266017,11.1367188 C43.0374035,11.1367188 42.1692482,10.8427764 41.5221095,10.2548828 C40.8749709,9.66698925 40.5468491,8.85807807 40.5377345,7.828125 L40.5377345,1.046875 L41.8365626,1.046875 L41.8365626,7.78710938 C41.8365626,8.50716506 42.0348028,9.06656702 42.4312892,9.46533203 C42.8277756,9.86409705 43.3928741,10.0634766 44.1266017,10.0634766 C44.869444,10.0634766 45.4379604,9.86523636 45.8321681,9.46875 C46.2263758,9.07226364 46.4234767,8.514001 46.4234767,7.79394531 L46.4234767,1.046875 L47.7428126,1.046875 Z M52.8494142,1.046875 L56.1033205,9.16796875 L59.3572267,1.046875 L61.0593752,1.046875 L61.0593752,11 L59.7468752,11 L59.7468752,7.12402344 L59.869922,2.94042969 L56.6023439,11 L55.5974611,11 L52.3367189,2.9609375 L52.4666017,7.12402344 L52.4666017,11 L51.1541017,11 L51.1541017,1.046875 L52.8494142,1.046875 Z M72.3661721,11 L71.0468361,11 L66.036094,3.33007812 L66.036094,11 L64.716758,11 L64.716758,1.046875 L66.036094,1.046875 L71.060508,8.75097656 L71.060508,1.046875 L72.3661721,1.046875 L72.3661721,11 Z M81.6632034,6.39941406 L77.3497268,6.39941406 L77.3497268,9.92675781 L82.360469,9.92675781 L82.360469,11 L76.0372268,11 L76.0372268,1.046875 L82.2921096,1.046875 L82.2921096,2.12695312 L77.3497268,2.12695312 L77.3497268,5.32617188 L81.6632034,5.32617188 L81.6632034,6.39941406 Z M91.8353909,1.046875 L95.0892972,9.16796875 L98.3432034,1.046875 L100.045352,1.046875 L100.045352,11 L98.7328519,11 L98.7328519,7.12402344 L98.8558987,2.94042969 L95.5883206,11 L94.5834378,11 L91.3226956,2.9609375 L91.4525784,7.12402344 L91.4525784,11 L90.1400784,11 L90.1400784,1.046875 L91.8353909,1.046875 Z M109.328711,6.39941406 L105.015235,6.39941406 L105.015235,9.92675781 L110.025977,9.92675781 L110.025977,11 L103.702735,11 L103.702735,1.046875 L109.957618,1.046875 L109.957618,2.12695312 L105.015235,2.12695312 L105.015235,5.32617188 L109.328711,5.32617188 L109.328711,6.39941406 Z M118.49586,8.40234375 L114.325938,8.40234375 L113.389414,11 L112.035899,11 L115.83668,1.046875 L116.985118,1.046875 L120.792735,11 L119.446055,11 L118.49586,8.40234375 Z M114.722422,7.32226562 L118.106211,7.32226562 L116.410899,2.66699219 L114.722422,7.32226562 Z M123.472579,11 L123.472579,1.046875 L126.282149,1.046875 C127.148039,1.046875 127.913656,1.23827934 128.579024,1.62109375 C129.244392,2.00390816 129.758221,2.54849907 130.120528,3.25488281 C130.482834,3.96126655 130.666263,4.77245636 130.670821,5.68847656 L130.670821,6.32421875 C130.670821,7.26302553 130.48967,8.08560845 130.127364,8.79199219 C129.765057,9.49837593 129.24781,10.0406882 128.575606,10.4189453 C127.903402,10.7972024 127.120695,10.9908854 126.227461,11 L123.472579,11 Z M124.785079,2.12695312 L124.785079,9.92675781 L126.165938,9.92675781 C127.177662,9.92675781 127.964926,9.61230783 128.527754,8.98339844 C129.090583,8.35448904 129.371993,7.45899019 129.371993,6.296875 L129.371993,5.71582031 C129.371993,4.58560633 129.106533,3.70719714 128.575606,3.08056641 C128.044679,2.45393567 127.291594,2.13606775 126.316329,2.12695312 L124.785079,2.12695312 Z M141.649493,6.34472656 C141.649493,7.31999186 141.485432,8.17105756 141.157305,8.89794922 C140.829178,9.62484087 140.364339,10.1796856 139.762774,10.5625 C139.161208,10.9453144 138.459392,11.1367188 137.657305,11.1367188 C136.873447,11.1367188 136.178467,10.9441751 135.572344,10.559082 C134.966221,10.173989 134.495686,9.62484081 134.160723,8.91162109 C133.82576,8.19840138 133.653724,7.37240053 133.64461,6.43359375 L133.64461,5.71582031 C133.64461,4.75878428 133.810949,3.91341513 134.143633,3.1796875 C134.476317,2.44595987 134.946853,1.88427929 135.555254,1.49462891 C136.163656,1.10497852 136.859775,0.91015625 137.643633,0.91015625 C138.441163,0.91015625 139.144118,1.1026999 139.75252,1.48779297 C140.360921,1.87288604 140.829178,2.43114869 141.157305,3.16259766 C141.485432,3.89404663 141.649493,4.74511233 141.649493,5.71582031 L141.649493,6.34472656 Z M140.343829,5.70214844 C140.343829,4.52180399 140.106852,3.61605133 139.632891,2.98486328 C139.15893,2.35367523 138.495851,2.03808594 137.643633,2.03808594 C136.814202,2.03808594 136.161377,2.35367523 135.685137,2.98486328 C135.208898,3.61605133 134.963946,4.49218189 134.950274,5.61328125 L134.950274,6.34472656 C134.950274,7.48861249 135.190669,8.38752928 135.671465,9.04150391 C136.152262,9.69547853 136.814202,10.0224609 137.657305,10.0224609 C138.504966,10.0224609 139.161209,9.71370751 139.626055,9.09619141 C140.090901,8.4786753 140.330157,7.59343024 140.343829,6.44042969 L140.343829,5.70214844 Z M147.104727,7.86230469 L147.296133,9.17480469 L147.576407,7.9921875 L149.545157,1.046875 L150.652579,1.046875 L152.573477,7.9921875 L152.846915,9.1953125 L153.058829,7.85546875 L154.60375,1.046875 L155.923086,1.046875 L153.51,11 L152.313711,11 L150.26293,3.74707031 L150.105704,2.98828125 L149.948477,3.74707031 L147.8225,11 L146.626211,11 L144.219961,1.046875 L145.532461,1.046875 L147.104727,7.86230469 Z M161.651758,6.56347656 C160.526102,6.23990724 159.706937,5.84228751 159.194239,5.37060547 C158.681541,4.89892342 158.425196,4.31673523 158.425196,3.62402344 C158.425196,2.84016535 158.738506,2.19189709 159.365137,1.67919922 C159.991768,1.16650134 160.806376,0.91015625 161.808985,0.91015625 C162.492582,0.91015625 163.102114,1.04231639 163.637598,1.30664062 C164.173083,1.57096486 164.587792,1.93554455 164.881739,2.40039062 C165.175686,2.8652367 165.322657,3.37336964 165.322657,3.92480469 L164.003321,3.92480469 C164.003321,3.32323918 163.811916,2.8504249 163.429102,2.50634766 C163.046288,2.16227042 162.506254,1.99023438 161.808985,1.99023438 C161.161846,1.99023438 160.657131,2.13264832 160.294825,2.41748047 C159.932518,2.70231262 159.751368,3.09765372 159.751368,3.60351562 C159.751368,4.00911661 159.923404,4.35204938 160.267481,4.63232422 C160.611558,4.91259906 161.197164,5.16894415 162.024317,5.40136719 C162.851469,5.63379022 163.498598,5.89013532 163.965723,6.17041016 C164.432848,6.450685 164.779199,6.7776674 165.004786,7.15136719 C165.230373,7.52506697 165.343165,7.96484122 165.343165,8.47070312 C165.343165,9.27734778 165.028715,9.92333742 164.399805,10.4086914 C163.770896,10.8940454 162.930084,11.1367188 161.877344,11.1367188 C161.193747,11.1367188 160.555733,11.0056979 159.963282,10.7436523 C159.370831,10.4816068 158.913967,10.1227236 158.592676,9.66699219 C158.271386,9.21126074 158.110743,8.69401331 158.110743,8.11523438 L159.430079,8.11523438 C159.430079,8.71679988 159.652244,9.19189279 160.096583,9.54052734 C160.540921,9.8891619 161.134502,10.0634766 161.877344,10.0634766 C162.570056,10.0634766 163.100975,9.92220193 163.470118,9.63964844 C163.83926,9.35709494 164.023829,8.97200765 164.023829,8.484375 C164.023829,7.99674235 163.852932,7.61963024 163.511133,7.35302734 C163.169335,7.08642445 162.549549,6.82324349 161.651758,6.56347656 L161.651758,6.56347656 Z" id="TUOLUMNE-MEADOWS"></path>
                <polygon id="X" points="205.402344 5.86132812 207.788086 2.046875 209.333008 2.046875 206.188477 6.98242188 209.408203 12 207.849609 12 205.402344 8.1171875 202.941406 12 201.389648 12 204.616211 6.98242188 201.464844 2.046875 203.00293 2.046875"></polygon>
                <path d="M8.68359375,39.609375 L4.81054688,39.609375 L3.93164062,42 L3.17578125,42 L6.40429688,33.46875 L7.08984375,33.46875 L10.3183594,42 L9.56835938,42 L8.68359375,39.609375 Z M5.03320312,38.9941406 L8.45507812,38.9941406 L6.74414062,34.3476562 L5.03320312,38.9941406 Z M16.1023201,36.2578125 C15.9538819,36.2304686 15.7956803,36.2167969 15.6277108,36.2167969 C15.1902086,36.2167969 14.8200951,36.338866 14.5173592,36.5830078 C14.2146233,36.8271497 13.9988052,37.1816383 13.8698983,37.6464844 L13.8698983,42 L13.1726326,42 L13.1726326,35.6601562 L13.8581795,35.6601562 L13.8698983,36.6679688 C14.2409939,35.917965 14.836691,35.5429688 15.6570076,35.5429688 C15.8523211,35.5429688 16.0066164,35.5683591 16.1198983,35.6191406 L16.1023201,36.2578125 Z M21.903859,36.2578125 C21.7554208,36.2304686 21.5972192,36.2167969 21.4292496,36.2167969 C20.9917475,36.2167969 20.621634,36.338866 20.3188981,36.5830078 C20.0161622,36.8271497 19.800344,37.1816383 19.6714371,37.6464844 L19.6714371,42 L18.9741715,42 L18.9741715,35.6601562 L19.6597184,35.6601562 L19.6714371,36.6679688 C20.0425327,35.917965 20.6382299,35.5429688 21.4585465,35.5429688 C21.65386,35.5429688 21.8081553,35.5683591 21.9214371,35.6191406 L21.903859,36.2578125 Z M25.5608666,42 L24.8577416,42 L24.8577416,35.6601562 L25.5608666,35.6601562 L25.5608666,42 Z M24.7346948,33.8261719 C24.7346948,33.6933587 24.7776631,33.5810551 24.863601,33.4892578 C24.949539,33.3974605 25.0667253,33.3515625 25.2151635,33.3515625 C25.3636018,33.3515625 25.4817646,33.3974605 25.5696557,33.4892578 C25.6575468,33.5810551 25.7014916,33.6933587 25.7014916,33.8261719 C25.7014916,33.958985 25.6575468,34.0703121 25.5696557,34.1601562 C25.4817646,34.2500004 25.3636018,34.2949219 25.2151635,34.2949219 C25.0667253,34.2949219 24.949539,34.2500004 24.863601,34.1601562 C24.7776631,34.0703121 24.7346948,33.958985 24.7346948,33.8261719 L24.7346948,33.8261719 Z M31.2042024,41.0332031 L33.1319368,35.6601562 L33.8526399,35.6601562 L31.4854524,42 L30.917093,42 L28.5381868,35.6601562 L29.2588899,35.6601562 L31.2042024,41.0332031 Z M37.5506632,42 L36.8475382,42 L36.8475382,35.6601562 L37.5506632,35.6601562 L37.5506632,42 Z M36.7244913,33.8261719 C36.7244913,33.6933587 36.7674596,33.5810551 36.8533975,33.4892578 C36.9393355,33.3974605 37.0565218,33.3515625 37.20496,33.3515625 C37.3533983,33.3515625 37.4715612,33.3974605 37.5594522,33.4892578 C37.6473433,33.5810551 37.6912882,33.6933587 37.6912882,33.8261719 C37.6912882,33.958985 37.6473433,34.0703121 37.5594522,34.1601562 C37.4715612,34.2500004 37.3533983,34.2949219 37.20496,34.2949219 C37.0565218,34.2949219 36.9393355,34.2500004 36.8533975,34.1601562 C36.7674596,34.0703121 36.7244913,33.958985 36.7244913,33.8261719 L36.7244913,33.8261719 Z M41.8873583,35.6601562 L41.9107958,36.7441406 C42.1490782,36.3535137 42.4459503,36.0556651 42.8014208,35.8505859 C43.1568913,35.6455068 43.5494655,35.5429688 43.9791552,35.5429688 C44.6588461,35.5429688 45.1647004,35.7343731 45.4967333,36.1171875 C45.8287662,36.5000019 45.9967333,37.0742149 46.0006395,37.8398438 L46.0006395,42 L45.3033739,42 L45.3033739,37.8339844 C45.2994677,37.2675753 45.1793517,36.8457045 44.9430224,36.5683594 C44.7066931,36.2910142 44.3287671,36.1523438 43.8092333,36.1523438 C43.3756374,36.1523438 42.9918522,36.2880846 42.6578661,36.5595703 C42.3238801,36.831056 42.0768122,37.1972633 41.9166552,37.6582031 L41.9166552,42 L41.2193895,42 L41.2193895,35.6601562 L41.8873583,35.6601562 Z M49.2943659,38.7714844 C49.2943659,37.7792919 49.5140903,36.993167 49.9535456,36.4130859 C50.3930009,35.8330049 50.9896747,35.5429688 51.7435847,35.5429688 C52.6068702,35.5429688 53.2631137,35.8867153 53.7123347,36.5742188 L53.7474909,35.6601562 L54.4037409,35.6601562 L54.4037409,41.8710938 C54.4037409,42.6875041 54.1752276,43.333982 53.7181941,43.8105469 C53.2611605,44.2871118 52.6420261,44.5253906 51.8607722,44.5253906 C51.4193637,44.5253906 50.9984695,44.4267588 50.5980769,44.2294922 C50.1976842,44.0322256 49.8822577,43.7695329 49.6517878,43.4414062 L50.0443659,43.0195312 C50.5404622,43.6289093 51.1303,43.9335938 51.8138972,43.9335938 C52.3998376,43.9335938 52.8568643,43.7607439 53.1849909,43.4150391 C53.5131176,43.0693342 53.6830377,42.5898468 53.6947566,41.9765625 L53.6947566,41.1796875 C53.2455356,41.8046906 52.5912452,42.1171875 51.7318659,42.1171875 C50.9974873,42.1171875 50.4076494,41.8242217 49.9623347,41.2382812 C49.51702,40.6523408 49.2943659,39.8613331 49.2943659,38.8652344 L49.2943659,38.7714844 Z M50.0033503,38.8945312 C50.0033503,39.703129 50.1654581,40.340818 50.4896784,40.8076172 C50.8138988,41.2744164 51.2709255,41.5078125 51.8607722,41.5078125 C52.7240577,41.5078125 53.3353798,41.1210976 53.6947566,40.3476562 L53.6947566,37.4003906 C53.5306932,36.9941386 53.2943675,36.6845714 52.9857722,36.4716797 C52.6771769,36.258788 52.3060869,36.1523438 51.8724909,36.1523438 C51.2826442,36.1523438 50.8236644,36.3837867 50.4955378,36.8466797 C50.1674112,37.3095726 50.0033503,37.992183 50.0033503,38.8945312 L50.0033503,38.8945312 Z M68.619315,36.7324219 C68.8497849,36.3535137 69.1447039,36.0605479 69.5040807,35.8535156 C69.8634575,35.6464833 70.2560317,35.5429688 70.681815,35.5429688 C71.3615059,35.5429688 71.8673603,35.7343731 72.1993932,36.1171875 C72.5314261,36.5000019 72.6993932,37.0742149 72.7032994,37.8398438 L72.7032994,42 L72.0060338,42 L72.0060338,37.8339844 C72.0021275,37.2675753 71.8820115,36.8457045 71.6456822,36.5683594 C71.4093529,36.2910142 71.031427,36.1523438 70.5118932,36.1523438 C70.0782973,36.1523438 69.694512,36.2880846 69.360526,36.5595703 C69.0265399,36.831056 68.7794721,37.1972633 68.619315,37.6582031 L68.619315,42 L67.9220494,42 L67.9220494,33 L68.619315,33 L68.619315,36.7324219 Z M78.7274946,42.1171875 C78.1884294,42.1171875 77.7011295,41.9843763 77.2655805,41.71875 C76.8300314,41.4531237 76.4911676,41.0830102 76.2489789,40.6083984 C76.0067902,40.1337867 75.8856977,39.6015654 75.8856977,39.0117188 L75.8856977,38.7597656 C75.8856977,38.1503876 76.0038606,37.6015649 76.2401899,37.1132812 C76.4765192,36.6249976 76.8056174,36.2412123 77.2274946,35.9619141 C77.6493717,35.6826158 78.1063983,35.5429688 78.5985883,35.5429688 C79.3681234,35.5429688 79.9784689,35.8056614 80.429643,36.3310547 C80.8808171,36.8564479 81.1064008,37.5742142 81.1064008,38.484375 L81.1064008,38.8769531 L76.5829633,38.8769531 L76.5829633,39.0117188 C76.5829633,39.7304723 76.7890159,40.3290992 77.2011274,40.8076172 C77.6132388,41.2861352 78.1317883,41.5253906 78.7567914,41.5253906 C79.1317933,41.5253906 79.4628447,41.4570319 79.7499555,41.3203125 C80.0370663,41.1835931 80.2978059,40.9648453 80.5321821,40.6640625 L80.9716352,40.9980469 C80.4560076,41.7441444 79.7079682,42.1171875 78.7274946,42.1171875 L78.7274946,42.1171875 Z M78.5985883,36.140625 C78.0712419,36.140625 77.6269104,36.3339824 77.2655805,36.7207031 C76.9042506,37.1074238 76.6845262,37.6269499 76.6064008,38.2792969 L80.4091352,38.2792969 L80.4091352,38.203125 C80.3896038,37.593747 80.2157774,37.0976582 79.8876508,36.7148438 C79.5595242,36.3320293 79.129841,36.140625 78.5985883,36.140625 L78.5985883,36.140625 Z M87.1657522,36.2578125 C87.0173139,36.2304686 86.8591124,36.2167969 86.6911428,36.2167969 C86.2536406,36.2167969 85.8835271,36.338866 85.5807913,36.5830078 C85.2780554,36.8271497 85.0622372,37.1816383 84.9333303,37.6464844 L84.9333303,42 L84.2360647,42 L84.2360647,35.6601562 L84.9216116,35.6601562 L84.9333303,36.6679688 C85.3044259,35.917965 85.9001231,35.5429688 86.7204397,35.5429688 C86.9157532,35.5429688 87.0700485,35.5683591 87.1833303,35.6191406 L87.1657522,36.2578125 Z M92.3813536,42.1171875 C91.8422884,42.1171875 91.3549886,41.9843763 90.9194395,41.71875 C90.4838905,41.4531237 90.1450267,41.0830102 89.9028379,40.6083984 C89.6606492,40.1337867 89.5395567,39.6015654 89.5395567,39.0117188 L89.5395567,38.7597656 C89.5395567,38.1503876 89.6577196,37.6015649 89.8940489,37.1132812 C90.1303782,36.6249976 90.4594765,36.2412123 90.8813536,35.9619141 C91.3032307,35.6826158 91.7602574,35.5429688 92.2524473,35.5429688 C93.0219824,35.5429688 93.6323279,35.8056614 94.083502,36.3310547 C94.5346761,36.8564479 94.7602598,37.5742142 94.7602598,38.484375 L94.7602598,38.8769531 L90.2368223,38.8769531 L90.2368223,39.0117188 C90.2368223,39.7304723 90.4428749,40.3290992 90.8549864,40.8076172 C91.2670978,41.2861352 91.7856473,41.5253906 92.4106504,41.5253906 C92.7856523,41.5253906 93.1167037,41.4570319 93.4038145,41.3203125 C93.6909253,41.1835931 93.9516649,40.9648453 94.1860411,40.6640625 L94.6254942,40.9980469 C94.1098666,41.7441444 93.3618272,42.1171875 92.3813536,42.1171875 L92.3813536,42.1171875 Z M92.2524473,36.140625 C91.7251009,36.140625 91.2807694,36.3339824 90.9194395,36.7207031 C90.5581096,37.1074238 90.3383852,37.6269499 90.2602598,38.2792969 L94.0629942,38.2792969 L94.0629942,38.203125 C94.0434628,37.593747 93.8696365,37.0976582 93.5415098,36.7148438 C93.2133832,36.3320293 92.7837,36.140625 92.2524473,36.140625 L92.2524473,36.140625 Z M108.319584,42 L108.319584,36.234375 L107.270756,36.234375 L107.270756,35.6601562 L108.319584,35.6601562 L108.319584,34.8925781 C108.319584,34.2441374 108.484621,33.7460955 108.814701,33.3984375 C109.144781,33.0507795 109.604737,32.8769531 110.194584,32.8769531 C110.46021,32.8769531 110.708255,32.9101559 110.938725,32.9765625 L110.88599,33.5625 C110.690677,33.5156248 110.477788,33.4921875 110.247318,33.4921875 C109.860598,33.4921875 109.559819,33.6123035 109.344975,33.8525391 C109.13013,34.0927746 109.022709,34.4335915 109.022709,34.875 L109.022709,35.6601562 L110.534428,35.6601562 L110.534428,36.234375 L109.022709,36.234375 L109.022709,42 L108.319584,42 Z M116.482451,36.2578125 C116.334013,36.2304686 116.175811,36.2167969 116.007842,36.2167969 C115.570339,36.2167969 115.200226,36.338866 114.89749,36.5830078 C114.594754,36.8271497 114.378936,37.1816383 114.250029,37.6464844 L114.250029,42 L113.552763,42 L113.552763,35.6601562 L114.23831,35.6601562 L114.250029,36.6679688 C114.621125,35.917965 115.216822,35.5429688 116.037138,35.5429688 C116.232452,35.5429688 116.386747,35.5683591 116.500029,35.6191406 L116.482451,36.2578125 Z M118.850396,38.7363281 C118.850396,38.1269501 118.968559,37.5781274 119.204888,37.0898438 C119.441218,36.6015601 119.775199,36.221681 120.206841,35.9501953 C120.638484,35.6787096 121.127737,35.5429688 121.674615,35.5429688 C122.518369,35.5429688 123.201956,35.8388642 123.725396,36.4306641 C124.248836,37.0224639 124.510552,37.8066357 124.510552,38.7832031 L124.510552,38.9296875 C124.510552,39.5429718 124.392389,40.0947241 124.15606,40.5849609 C123.919731,41.0751978 123.586726,41.4531237 123.157037,41.71875 C122.727347,41.9843763 122.237118,42.1171875 121.686334,42.1171875 C120.846486,42.1171875 120.163875,41.821292 119.638482,41.2294922 C119.113089,40.6376924 118.850396,39.8535205 118.850396,38.8769531 L118.850396,38.7363281 Z M119.553521,38.9296875 C119.553521,39.6875038 119.749808,40.3095679 120.142388,40.7958984 C120.534968,41.282229 121.049612,41.5253906 121.686334,41.5253906 C122.319149,41.5253906 122.831839,41.282229 123.22442,40.7958984 C123.617,40.3095679 123.813287,39.6679727 123.813287,38.8710938 L123.813287,38.7363281 C123.813287,38.2519507 123.723444,37.8085958 123.543755,37.40625 C123.364067,37.0039042 123.112116,36.6923839 122.787896,36.4716797 C122.463676,36.2509755 122.092586,36.140625 121.674615,36.140625 C121.049612,36.140625 120.539851,36.3857397 120.145318,36.8759766 C119.750785,37.3662134 119.553521,38.0078085 119.553521,38.8007812 L119.553521,38.9296875 Z M128.360919,35.6601562 L128.384357,36.6914062 C128.618733,36.3085918 128.911699,36.0214853 129.263263,35.8300781 C129.614827,35.6386709 130.005448,35.5429688 130.435138,35.5429688 C131.435143,35.5429688 132.069902,35.9531209 132.339435,36.7734375 C132.565999,36.3789043 132.86873,36.0751964 133.247638,35.8623047 C133.626546,35.649413 134.044511,35.5429688 134.501544,35.5429688 C135.860926,35.5429688 136.554279,36.2851488 136.581622,37.7695312 L136.581622,42 L135.878497,42 L135.878497,37.8222656 C135.874591,37.2558565 135.752522,36.8359389 135.512287,36.5625 C135.272051,36.2890611 134.880453,36.1523438 134.337482,36.1523438 C133.833573,36.1601563 133.407796,36.3232406 133.060138,36.6416016 C132.71248,36.9599625 132.519123,37.347654 132.48006,37.8046875 L132.48006,42 L131.776935,42 L131.776935,37.7695312 C131.773029,37.2265598 131.6451,36.8212904 131.393146,36.5537109 C131.141192,36.2861315 130.7535,36.1523438 130.23006,36.1523438 C129.788652,36.1523438 129.409749,36.2783191 129.093341,36.5302734 C128.776933,36.7822278 128.542561,37.1562475 128.390216,37.6523438 L128.390216,42 L127.687091,42 L127.687091,35.6601562 L128.360919,35.6601562 Z M152.713212,38.1210938 L155.320634,33.46875 L156.152665,33.46875 L153.070634,38.7890625 L153.070634,42 L152.349931,42 L152.349931,38.7890625 L149.273759,33.46875 L150.129228,33.46875 L152.713212,38.1210938 Z M158.227642,38.7363281 C158.227642,38.1269501 158.345805,37.5781274 158.582134,37.0898438 C158.818463,36.6015601 159.152444,36.221681 159.584087,35.9501953 C160.01573,35.6787096 160.504983,35.5429688 161.05186,35.5429688 C161.895615,35.5429688 162.579202,35.8388642 163.102642,36.4306641 C163.626082,37.0224639 163.887798,37.8066357 163.887798,38.7832031 L163.887798,38.9296875 C163.887798,39.5429718 163.769635,40.0947241 163.533306,40.5849609 C163.296976,41.0751978 162.963972,41.4531237 162.534282,41.71875 C162.104593,41.9843763 161.614363,42.1171875 161.063579,42.1171875 C160.223731,42.1171875 159.541121,41.821292 159.015728,41.2294922 C158.490334,40.6376924 158.227642,39.8535205 158.227642,38.8769531 L158.227642,38.7363281 Z M158.930767,38.9296875 C158.930767,39.6875038 159.127054,40.3095679 159.519634,40.7958984 C159.912214,41.282229 160.426857,41.5253906 161.063579,41.5253906 C161.696395,41.5253906 162.209085,41.282229 162.601665,40.7958984 C162.994245,40.3095679 163.190532,39.6679727 163.190532,38.8710938 L163.190532,38.7363281 C163.190532,38.2519507 163.100689,37.8085958 162.921001,37.40625 C162.741313,37.0039042 162.489362,36.6923839 162.165142,36.4716797 C161.840921,36.2509755 161.469831,36.140625 161.05186,36.140625 C160.426857,36.140625 159.917097,36.3857397 159.522564,36.8759766 C159.12803,37.3662134 158.930767,38.0078085 158.930767,38.8007812 L158.930767,38.9296875 Z M170.896368,40.3886719 C170.896368,40.0410139 170.756721,39.7617198 170.477423,39.5507812 C170.198125,39.3398427 169.77723,39.1748053 169.214727,39.0556641 C168.652225,38.9365228 168.215706,38.7998055 167.905157,38.6455078 C167.594609,38.4912102 167.364142,38.3027355 167.213751,38.0800781 C167.06336,37.8574208 166.988165,37.5878922 166.988165,37.2714844 C166.988165,36.7714819 167.197147,36.3584001 167.615118,36.0322266 C168.033089,35.7060531 168.56824,35.5429688 169.220587,35.5429688 C169.927622,35.5429688 170.494999,35.7177717 170.922735,36.0673828 C171.350472,36.4169939 171.564337,36.8730441 171.564337,37.4355469 L170.861212,37.4355469 C170.861212,37.0644513 170.70594,36.7558606 170.395392,36.5097656 C170.084843,36.2636706 169.693245,36.140625 169.220587,36.140625 C168.759647,36.140625 168.389534,36.243163 168.110235,36.4482422 C167.830937,36.6533213 167.69129,36.9199202 167.69129,37.2480469 C167.69129,37.5644547 167.8075,37.8095694 168.039923,37.9833984 C168.272346,38.1572274 168.69617,38.3164055 169.311407,38.4609375 C169.926645,38.6054695 170.387577,38.7597648 170.69422,38.9238281 C171.000862,39.0878914 171.228399,39.2851551 171.376837,39.515625 C171.525275,39.7460949 171.599493,40.025389 171.599493,40.3535156 C171.599493,40.8886746 171.383675,41.3164046 170.952032,41.6367188 C170.520389,41.9570329 169.956918,42.1171875 169.261602,42.1171875 C168.523318,42.1171875 167.924691,41.9384783 167.465704,41.5810547 C167.006717,41.223631 166.777227,40.7714871 166.777227,40.2246094 L167.480352,40.2246094 C167.507696,40.6347677 167.680546,40.9541004 167.998907,41.1826172 C168.317268,41.411134 168.738162,41.5253906 169.261602,41.5253906 C169.749886,41.5253906 170.144413,41.4179698 170.445196,41.203125 C170.745979,40.9882802 170.896368,40.7167985 170.896368,40.3886719 L170.896368,40.3886719 Z M177.395173,42.1171875 C176.856107,42.1171875 176.368808,41.9843763 175.933259,41.71875 C175.497709,41.4531237 175.158846,41.0830102 174.916657,40.6083984 C174.674468,40.1337867 174.553376,39.6015654 174.553376,39.0117188 L174.553376,38.7597656 C174.553376,38.1503876 174.671539,37.6015649 174.907868,37.1132812 C175.144197,36.6249976 175.473295,36.2412123 175.895173,35.9619141 C176.31705,35.6826158 176.774076,35.5429688 177.266266,35.5429688 C178.035801,35.5429688 178.646147,35.8056614 179.097321,36.3310547 C179.548495,36.8564479 179.774079,37.5742142 179.774079,38.484375 L179.774079,38.8769531 L175.250641,38.8769531 L175.250641,39.0117188 C175.250641,39.7304723 175.456694,40.3290992 175.868805,40.8076172 C176.280917,41.2861352 176.799466,41.5253906 177.424469,41.5253906 C177.799471,41.5253906 178.130523,41.4570319 178.417634,41.3203125 C178.704744,41.1835931 178.965484,40.9648453 179.19986,40.6640625 L179.639313,40.9980469 C179.123686,41.7441444 178.375646,42.1171875 177.395173,42.1171875 L177.395173,42.1171875 Z M177.266266,36.140625 C176.73892,36.140625 176.294588,36.3339824 175.933259,36.7207031 C175.571929,37.1074238 175.352204,37.6269499 175.274079,38.2792969 L179.076813,38.2792969 L179.076813,38.203125 C179.057282,37.593747 178.883455,37.0976582 178.555329,36.7148438 C178.227202,36.3320293 177.797519,36.140625 177.266266,36.140625 L177.266266,36.140625 Z M183.542415,35.6601562 L183.565852,36.6914062 C183.800228,36.3085918 184.093194,36.0214853 184.444758,35.8300781 C184.796323,35.6386709 185.186944,35.5429688 185.616633,35.5429688 C186.616638,35.5429688 187.251398,35.9531209 187.52093,36.7734375 C187.747494,36.3789043 188.050225,36.0751964 188.429133,35.8623047 C188.808042,35.649413 189.226006,35.5429688 189.68304,35.5429688 C191.042421,35.5429688 191.735774,36.2851488 191.763118,37.7695312 L191.763118,42 L191.059993,42 L191.059993,37.8222656 C191.056086,37.2558565 190.934017,36.8359389 190.693782,36.5625 C190.453546,36.2890611 190.061949,36.1523438 189.518977,36.1523438 C189.015068,36.1601563 188.589291,36.3232406 188.241633,36.6416016 C187.893975,36.9599625 187.700618,37.347654 187.661555,37.8046875 L187.661555,42 L186.95843,42 L186.95843,37.7695312 C186.954524,37.2265598 186.826596,36.8212904 186.574641,36.5537109 C186.322687,36.2861315 185.934995,36.1523438 185.411555,36.1523438 C184.970147,36.1523438 184.591244,36.2783191 184.274836,36.5302734 C183.958429,36.7822278 183.724056,37.1562475 183.571711,37.6523438 L183.571711,42 L182.868586,42 L182.868586,35.6601562 L183.542415,35.6601562 Z M196.088094,42 L195.384969,42 L195.384969,35.6601562 L196.088094,35.6601562 L196.088094,42 Z M195.261922,33.8261719 C195.261922,33.6933587 195.304891,33.5810551 195.390828,33.4892578 C195.476766,33.3974605 195.593953,33.3515625 195.742391,33.3515625 C195.890829,33.3515625 196.008992,33.3974605 196.096883,33.4892578 C196.184774,33.5810551 196.228719,33.6933587 196.228719,33.8261719 C196.228719,33.958985 196.184774,34.0703121 196.096883,34.1601562 C196.008992,34.2500004 195.890829,34.2949219 195.742391,34.2949219 C195.593953,34.2949219 195.476766,34.2500004 195.390828,34.1601562 C195.304891,34.0703121 195.261922,33.958985 195.261922,33.8261719 L195.261922,33.8261719 Z M200.846664,34.0371094 L200.846664,35.6601562 L202.159164,35.6601562 L202.159164,36.234375 L200.846664,36.234375 L200.846664,40.4589844 C200.846664,40.8105486 200.91014,41.0722648 201.037094,41.2441406 C201.164048,41.4160165 201.37596,41.5019531 201.672836,41.5019531 C201.790024,41.5019531 201.979475,41.4824221 202.241196,41.4433594 L202.270492,42.0175781 C202.086898,42.0839847 201.8369,42.1171875 201.520492,42.1171875 C201.040021,42.1171875 200.690415,41.9775405 200.471664,41.6982422 C200.252913,41.4189439 200.143539,41.0078152 200.143539,40.4648438 L200.143539,36.234375 L198.977524,36.234375 L198.977524,35.6601562 L200.143539,35.6601562 L200.143539,34.0371094 L200.846664,34.0371094 Z M207.831797,42.1171875 C207.292732,42.1171875 206.805432,41.9843763 206.369883,41.71875 C205.934334,41.4531237 205.59547,41.0830102 205.353281,40.6083984 C205.111093,40.1337867 204.99,39.6015654 204.99,39.0117188 L204.99,38.7597656 C204.99,38.1503876 205.108163,37.6015649 205.344492,37.1132812 C205.580822,36.6249976 205.90992,36.2412123 206.331797,35.9619141 C206.753674,35.6826158 207.210701,35.5429688 207.702891,35.5429688 C208.472426,35.5429688 209.082771,35.8056614 209.533945,36.3310547 C209.985119,36.8564479 210.210703,37.5742142 210.210703,38.484375 L210.210703,38.8769531 L205.687266,38.8769531 L205.687266,39.0117188 C205.687266,39.7304723 205.893318,40.3290992 206.30543,40.8076172 C206.717541,41.2861352 207.236091,41.5253906 207.861094,41.5253906 C208.236096,41.5253906 208.567147,41.4570319 208.854258,41.3203125 C209.141369,41.1835931 209.402108,40.9648453 209.636484,40.6640625 L210.075938,40.9980469 C209.56031,41.7441444 208.812271,42.1171875 207.831797,42.1171875 L207.831797,42.1171875 Z M207.702891,36.140625 C207.175544,36.140625 206.731213,36.3339824 206.369883,36.7207031 C206.008553,37.1074238 205.788829,37.6269499 205.710703,38.2792969 L209.513438,38.2792969 L209.513438,38.203125 C209.493906,37.593747 209.32008,37.0976582 208.991953,36.7148438 C208.663826,36.3320293 208.234143,36.140625 207.702891,36.140625 L207.702891,36.140625 Z M6.65039062,56.9453125 L6.69726562,57.1269531 L6.75,56.9453125 L9.43359375,49.46875 L10.2246094,49.46875 L7.04882812,58 L6.35742188,58 L3.18164062,49.46875 L3.96679688,49.46875 L6.65039062,56.9453125 Z M16.306875,58 C16.2365621,57.8007803 16.1916407,57.5058613 16.1721094,57.1152344 C15.9260144,57.4355485 15.612541,57.6826163 15.2316797,57.8564453 C14.8508184,58.0302743 14.4475021,58.1171875 14.0217187,58.1171875 C13.4123407,58.1171875 12.9191816,57.9472673 12.5422266,57.6074219 C12.1652715,57.2675764 11.9767969,56.8378932 11.9767969,56.3183594 C11.9767969,55.7011688 12.2336302,55.2128924 12.7473047,54.8535156 C13.2609791,54.4941388 13.9767923,54.3144531 14.8947656,54.3144531 L16.16625,54.3144531 L16.16625,53.59375 C16.16625,53.1406227 16.0266029,52.784181 15.7473047,52.5244141 C15.4680064,52.2646471 15.0607839,52.1347656 14.525625,52.1347656 C14.0373413,52.1347656 13.6330485,52.2597644 13.3127344,52.5097656 C12.9924203,52.7597669 12.8322656,53.0605451 12.8322656,53.4121094 L12.1291406,53.40625 C12.1291406,52.9023412 12.3635133,52.4658222 12.8322656,52.0966797 C13.301018,51.7275372 13.8771841,51.5429688 14.5607812,51.5429688 C15.267816,51.5429688 15.8254276,51.7197248 16.2336328,52.0732422 C16.641838,52.4267596 16.8517968,52.9199187 16.8635156,53.5527344 L16.8635156,56.5527344 C16.8635156,57.1660187 16.9279681,57.6249985 17.056875,57.9296875 L17.056875,58 L16.306875,58 Z M14.10375,57.4960938 C14.5725023,57.4960938 14.9914435,57.3828136 15.3605859,57.15625 C15.7297284,56.9296864 15.9982804,56.626955 16.16625,56.2480469 L16.16625,54.8535156 L14.9123437,54.8535156 C14.2131215,54.8613282 13.666252,54.9892566 13.2717187,55.2373047 C12.8771855,55.4853528 12.6799219,55.8261697 12.6799219,56.2597656 C12.6799219,56.6152362 12.8117565,56.9101551 13.0754297,57.1445312 C13.3391029,57.3789074 13.6818729,57.4960938 14.10375,57.4960938 L14.10375,57.4960938 Z M20.7778125,58 L20.0746875,58 L20.0746875,49 L20.7778125,49 L20.7778125,58 Z M24.7272656,58 L24.0241406,58 L24.0241406,49 L24.7272656,49 L24.7272656,58 Z M30.3466406,58.1171875 C29.8075754,58.1171875 29.3202756,57.9843763 28.8847265,57.71875 C28.4491775,57.4531237 28.1103137,57.0830102 27.868125,56.6083984 C27.6259363,56.1337867 27.5048437,55.6015654 27.5048437,55.0117188 L27.5048437,54.7597656 C27.5048437,54.1503876 27.6230066,53.6015649 27.8593359,53.1132812 C28.0956652,52.6249976 28.4247635,52.2412123 28.8466406,51.9619141 C29.2685177,51.6826158 29.7255444,51.5429688 30.2177343,51.5429688 C30.9872694,51.5429688 31.5976149,51.8056614 32.048789,52.3310547 C32.4999632,52.8564479 32.7255468,53.5742142 32.7255468,54.484375 L32.7255468,54.8769531 L28.2021093,54.8769531 L28.2021093,55.0117188 C28.2021093,55.7304723 28.408162,56.3290992 28.8202734,56.8076172 C29.2323848,57.2861352 29.7509343,57.5253906 30.3759375,57.5253906 C30.7509393,57.5253906 31.0819907,57.4570319 31.3691015,57.3203125 C31.6562123,57.1835931 31.9169519,56.9648453 32.1513281,56.6640625 L32.5907812,56.9980469 C32.0751536,57.7441444 31.3271142,58.1171875 30.3466406,58.1171875 L30.3466406,58.1171875 Z M30.2177343,52.140625 C29.690388,52.140625 29.2460565,52.3339824 28.8847265,52.7207031 C28.5233966,53.1074238 28.3036722,53.6269499 28.2255468,54.2792969 L32.0282812,54.2792969 L32.0282812,54.203125 C32.0087499,53.593747 31.8349235,53.0976582 31.5067968,52.7148438 C31.1786702,52.3320293 30.748987,52.140625 30.2177343,52.140625 L30.2177343,52.140625 Z M37.284375,56.9921875 L39.1359375,51.6601562 L39.8917968,51.6601562 L37.1847656,59.078125 L37.0441406,59.40625 C36.6964826,60.1757851 36.1593786,60.5605469 35.4328125,60.5605469 C35.2648429,60.5605469 35.0851572,60.5332034 34.89375,60.4785156 L34.8878906,59.8984375 L35.2511718,59.9335938 C35.5949235,59.9335938 35.8732411,59.8486337 36.0861328,59.6787109 C36.2990245,59.5087882 36.4796867,59.2167989 36.628125,58.8027344 L36.9386718,57.9472656 L34.5480468,51.6601562 L35.315625,51.6601562 L37.284375,56.9921875 Z M51.4420312,56.5410156 L51.5475,57.0859375 L51.688125,56.5117188 L53.2115625,51.6601562 L53.8092187,51.6601562 L55.3150781,56.4707031 L55.4791406,57.1386719 L55.6139062,56.5234375 L56.9146875,51.6601562 L57.64125,51.6601562 L55.7955469,58 L55.1978906,58 L53.5689844,52.9726562 L53.4928125,52.6269531 L53.4166406,52.9785156 L51.8170312,58 L51.219375,58 L49.3795312,51.6601562 L50.1002344,51.6601562 L51.4420312,56.5410156 Z M64.2332812,58 C64.1629684,57.8007803 64.118047,57.5058613 64.0985156,57.1152344 C63.8524206,57.4355485 63.5389472,57.6826163 63.1580859,57.8564453 C62.7772246,58.0302743 62.3739084,58.1171875 61.948125,58.1171875 C61.3387469,58.1171875 60.8455878,57.9472673 60.4686328,57.6074219 C60.0916778,57.2675764 59.9032031,56.8378932 59.9032031,56.3183594 C59.9032031,55.7011688 60.1600365,55.2128924 60.6737109,54.8535156 C61.1873854,54.4941388 61.9031985,54.3144531 62.8211719,54.3144531 L64.0926562,54.3144531 L64.0926562,53.59375 C64.0926562,53.1406227 63.9530092,52.784181 63.6737109,52.5244141 C63.3944126,52.2646471 62.9871902,52.1347656 62.4520312,52.1347656 C61.9637475,52.1347656 61.5594547,52.2597644 61.2391406,52.5097656 C60.9188265,52.7597669 60.7586719,53.0605451 60.7586719,53.4121094 L60.0555469,53.40625 C60.0555469,52.9023412 60.2899195,52.4658222 60.7586719,52.0966797 C61.2274242,51.7275372 61.8035903,51.5429688 62.4871875,51.5429688 C63.1942223,51.5429688 63.7518339,51.7197248 64.160039,52.0732422 C64.5682442,52.4267596 64.778203,52.9199187 64.7899219,53.5527344 L64.7899219,56.5527344 C64.7899219,57.1660187 64.8543743,57.6249985 64.9832812,57.9296875 L64.9832812,58 L64.2332812,58 Z M62.0301562,57.4960938 C62.4989086,57.4960938 62.9178497,57.3828136 63.2869922,57.15625 C63.6561346,56.9296864 63.9246866,56.626955 64.0926562,56.2480469 L64.0926562,54.8535156 L62.83875,54.8535156 C62.1395277,54.8613282 61.5926582,54.9892566 61.198125,55.2373047 C60.8035918,55.4853528 60.6063281,55.8261697 60.6063281,56.2597656 C60.6063281,56.6152362 60.7381627,56.9101551 61.0018359,57.1445312 C61.2655091,57.3789074 61.6082791,57.4960938 62.0301562,57.4960938 L62.0301562,57.4960938 Z M71.7159375,56.3886719 C71.7159375,56.0410139 71.5762904,55.7617198 71.2969922,55.5507812 C71.0176939,55.3398427 70.5967997,55.1748053 70.0342968,55.0556641 C69.471794,54.9365228 69.035275,54.7998055 68.7247265,54.6455078 C68.4141781,54.4912102 68.1837117,54.3027355 68.0333203,54.0800781 C67.8829289,53.8574208 67.8077343,53.5878922 67.8077343,53.2714844 C67.8077343,52.7714819 68.0167166,52.3584001 68.4346875,52.0322266 C68.8526583,51.7060531 69.3878092,51.5429688 70.0401562,51.5429688 C70.747191,51.5429688 71.3145681,51.7177717 71.7423047,52.0673828 C72.1700412,52.4169939 72.3839062,52.8730441 72.3839062,53.4355469 L71.6807812,53.4355469 C71.6807812,53.0644513 71.5255093,52.7558606 71.2149609,52.5097656 C70.9044125,52.2636706 70.5128148,52.140625 70.0401562,52.140625 C69.5792164,52.140625 69.2091029,52.243163 68.9298047,52.4482422 C68.6505064,52.6533213 68.5108593,52.9199202 68.5108593,53.2480469 C68.5108593,53.5644547 68.6270691,53.8095694 68.8594922,53.9833984 C69.0919152,54.1572274 69.5157391,54.3164055 70.1309765,54.4609375 C70.746214,54.6054695 71.2071469,54.7597648 71.513789,54.9238281 C71.8204312,55.0878914 72.047968,55.2851551 72.1964062,55.515625 C72.3448445,55.7460949 72.4190625,56.025389 72.4190625,56.3535156 C72.4190625,56.8886746 72.2032443,57.3164046 71.7716015,57.6367188 C71.3399588,57.9570329 70.7764878,58.1171875 70.0811718,58.1171875 C69.3428869,58.1171875 68.7442601,57.9384783 68.2852734,57.5810547 C67.8262867,57.223631 67.5967968,56.7714871 67.5967968,56.2246094 L68.2999218,56.2246094 C68.3272657,56.6347677 68.5001156,56.9541004 68.8184765,57.1826172 C69.1368375,57.411134 69.5577317,57.5253906 70.0811718,57.5253906 C70.5694555,57.5253906 70.9639828,57.4179698 71.2647656,57.203125 C71.5655484,56.9882802 71.7159375,56.7167985 71.7159375,56.3886719 L71.7159375,56.3886719 Z M84.03375,50.0371094 L84.03375,51.6601562 L85.34625,51.6601562 L85.34625,52.234375 L84.03375,52.234375 L84.03375,56.4589844 C84.03375,56.8105486 84.0972259,57.0722648 84.2241797,57.2441406 C84.3511335,57.4160165 84.5630454,57.5019531 84.8599219,57.5019531 C84.97711,57.5019531 85.1665612,57.4824221 85.4282813,57.4433594 L85.4575781,58.0175781 C85.2739835,58.0839847 85.023986,58.1171875 84.7075781,58.1171875 C84.227107,58.1171875 83.8775011,57.9775405 83.65875,57.6982422 C83.4399989,57.4189439 83.330625,57.0078152 83.330625,56.4648438 L83.330625,52.234375 L82.1646094,52.234375 L82.1646094,51.6601562 L83.330625,51.6601562 L83.330625,50.0371094 L84.03375,50.0371094 Z M88.7566406,52.7324219 C88.9871105,52.3535137 89.2820295,52.0605479 89.6414063,51.8535156 C90.000783,51.6464833 90.3933572,51.5429688 90.8191406,51.5429688 C91.4988315,51.5429688 92.0046858,51.7343731 92.3367188,52.1171875 C92.6687517,52.5000019 92.8367187,53.0742149 92.840625,53.8398438 L92.840625,58 L92.1433594,58 L92.1433594,53.8339844 C92.1394531,53.2675753 92.0193371,52.8457045 91.7830078,52.5683594 C91.5466785,52.2910142 91.1687526,52.1523438 90.6492188,52.1523438 C90.2156228,52.1523438 89.8318376,52.2880846 89.4978516,52.5595703 C89.1638655,52.831056 88.9167977,53.1972633 88.7566406,53.6582031 L88.7566406,58 L88.059375,58 L88.059375,49 L88.7566406,49 L88.7566406,52.7324219 Z M98.3603906,58.1171875 C97.8213254,58.1171875 97.3340256,57.9843763 96.8984766,57.71875 C96.4629275,57.4531237 96.1240637,57.0830102 95.881875,56.6083984 C95.6396863,56.1337867 95.5185937,55.6015654 95.5185937,55.0117188 L95.5185937,54.7597656 C95.5185937,54.1503876 95.6367566,53.6015649 95.8730859,53.1132812 C96.1094152,52.6249976 96.4385135,52.2412123 96.8603906,51.9619141 C97.2822677,51.6826158 97.7392944,51.5429688 98.2314844,51.5429688 C99.0010195,51.5429688 99.6113649,51.8056614 100.062539,52.3310547 C100.513713,52.8564479 100.739297,53.5742142 100.739297,54.484375 L100.739297,54.8769531 L96.2158594,54.8769531 L96.2158594,55.0117188 C96.2158594,55.7304723 96.421912,56.3290992 96.8340234,56.8076172 C97.2461349,57.2861352 97.7646844,57.5253906 98.3896875,57.5253906 C98.7646894,57.5253906 99.0957407,57.4570319 99.3828516,57.3203125 C99.6699624,57.1835931 99.9307019,56.9648453 100.165078,56.6640625 L100.604531,56.9980469 C100.088904,57.7441444 99.3408643,58.1171875 98.3603906,58.1171875 L98.3603906,58.1171875 Z M98.2314844,52.140625 C97.704138,52.140625 97.2598065,52.3339824 96.8984766,52.7207031 C96.5371466,53.1074238 96.3174223,53.6269499 96.2392969,54.2792969 L100.042031,54.2792969 L100.042031,54.203125 C100.0225,53.593747 99.8486735,53.0976582 99.5205469,52.7148438 C99.1924202,52.3320293 98.762737,52.140625 98.2314844,52.140625 L98.2314844,52.140625 Z M111.750469,52.7324219 C111.980939,52.3535137 112.275858,52.0605479 112.635234,51.8535156 C112.994611,51.6464833 113.387185,51.5429688 113.812969,51.5429688 C114.49266,51.5429688 114.998514,51.7343731 115.330547,52.1171875 C115.66258,52.5000019 115.830547,53.0742149 115.834453,53.8398438 L115.834453,58 L115.137188,58 L115.137188,53.8339844 C115.133281,53.2675753 115.013165,52.8457045 114.776836,52.5683594 C114.540507,52.2910142 114.162581,52.1523438 113.643047,52.1523438 C113.209451,52.1523438 112.825666,52.2880846 112.49168,52.5595703 C112.157694,52.831056 111.910626,53.1972633 111.750469,53.6582031 L111.750469,58 L111.053203,58 L111.053203,49 L111.750469,49 L111.750469,52.7324219 Z M122.901094,58 C122.830781,57.8007803 122.785859,57.5058613 122.766328,57.1152344 C122.520233,57.4355485 122.20676,57.6826163 121.825898,57.8564453 C121.445037,58.0302743 121.041721,58.1171875 120.615938,58.1171875 C120.006559,58.1171875 119.5134,57.9472673 119.136445,57.6074219 C118.75949,57.2675764 118.571016,56.8378932 118.571016,56.3183594 C118.571016,55.7011688 118.827849,55.2128924 119.341523,54.8535156 C119.855198,54.4941388 120.571011,54.3144531 121.488984,54.3144531 L122.760469,54.3144531 L122.760469,53.59375 C122.760469,53.1406227 122.620822,52.784181 122.341523,52.5244141 C122.062225,52.2646471 121.655003,52.1347656 121.119844,52.1347656 C120.63156,52.1347656 120.227267,52.2597644 119.906953,52.5097656 C119.586639,52.7597669 119.426484,53.0605451 119.426484,53.4121094 L118.723359,53.40625 C118.723359,52.9023412 118.957732,52.4658222 119.426484,52.0966797 C119.895237,51.7275372 120.471403,51.5429688 121.155,51.5429688 C121.862035,51.5429688 122.419646,51.7197248 122.827852,52.0732422 C123.236057,52.4267596 123.446016,52.9199187 123.457734,53.5527344 L123.457734,56.5527344 C123.457734,57.1660187 123.522187,57.6249985 123.651094,57.9296875 L123.651094,58 L122.901094,58 Z M120.697969,57.4960938 C121.166721,57.4960938 121.585662,57.3828136 121.954805,57.15625 C122.323947,56.9296864 122.592499,56.626955 122.760469,56.2480469 L122.760469,54.8535156 L121.506563,54.8535156 C120.80734,54.8613282 120.260471,54.9892566 119.865938,55.2373047 C119.471404,55.4853528 119.274141,55.8261697 119.274141,56.2597656 C119.274141,56.6152362 119.405975,56.9101551 119.669648,57.1445312 C119.933322,57.3789074 120.276092,57.4960938 120.697969,57.4960938 L120.697969,57.4960938 Z M129.516563,52.2578125 C129.368124,52.2304686 129.209923,52.2167969 129.041953,52.2167969 C128.604451,52.2167969 128.234337,52.338866 127.931602,52.5830078 C127.628866,52.8271497 127.413048,53.1816383 127.284141,53.6464844 L127.284141,58 L126.586875,58 L126.586875,51.6601562 L127.272422,51.6601562 L127.284141,52.6679688 C127.655236,51.917965 128.250933,51.5429688 129.07125,51.5429688 C129.266563,51.5429688 129.420859,51.5683591 129.534141,51.6191406 L129.516563,52.2578125 Z M131.491406,54.7714844 C131.491406,53.7871045 131.711131,53.0029326 132.150586,52.4189453 C132.590041,51.834958 133.186715,51.5429688 133.940625,51.5429688 C134.796098,51.5429688 135.448435,51.880856 135.897656,52.5566406 L135.897656,49 L136.594922,49 L136.594922,58 L135.938672,58 L135.909375,57.15625 C135.460154,57.7968782 134.800004,58.1171875 133.928906,58.1171875 C133.198434,58.1171875 132.609573,57.8232451 132.162305,57.2353516 C131.715037,56.647458 131.491406,55.8535206 131.491406,54.8535156 L131.491406,54.7714844 Z M132.200391,54.8945312 C132.200391,55.703129 132.362498,56.340818 132.686719,56.8076172 C133.010939,57.2744164 133.467966,57.5078125 134.057812,57.5078125 C134.921098,57.5078125 135.534373,57.1269569 135.897656,56.3652344 L135.897656,53.3886719 C135.534373,52.564449 134.925004,52.1523438 134.069531,52.1523438 C133.479685,52.1523438 133.020705,52.3837867 132.692578,52.8466797 C132.364451,53.3095726 132.200391,53.992183 132.200391,54.8945312 L132.200391,54.8945312 Z M142.155703,58.1171875 C141.616638,58.1171875 141.129338,57.9843763 140.693789,57.71875 C140.25824,57.4531237 139.919376,57.0830102 139.677187,56.6083984 C139.434999,56.1337867 139.313906,55.6015654 139.313906,55.0117188 L139.313906,54.7597656 C139.313906,54.1503876 139.432069,53.6015649 139.668398,53.1132812 C139.904728,52.6249976 140.233826,52.2412123 140.655703,51.9619141 C141.07758,51.6826158 141.534607,51.5429688 142.026797,51.5429688 C142.796332,51.5429688 143.406677,51.8056614 143.857852,52.3310547 C144.309026,52.8564479 144.534609,53.5742142 144.534609,54.484375 L144.534609,54.8769531 L140.011172,54.8769531 L140.011172,55.0117188 C140.011172,55.7304723 140.217224,56.3290992 140.629336,56.8076172 C141.041447,57.2861352 141.559997,57.5253906 142.185,57.5253906 C142.560002,57.5253906 142.891053,57.4570319 143.178164,57.3203125 C143.465275,57.1835931 143.726014,56.9648453 143.960391,56.6640625 L144.399844,56.9980469 C143.884216,57.7441444 143.136177,58.1171875 142.155703,58.1171875 L142.155703,58.1171875 Z M142.026797,52.140625 C141.49945,52.140625 141.055119,52.3339824 140.693789,52.7207031 C140.332459,53.1074238 140.112735,53.6269499 140.034609,54.2792969 L143.837344,54.2792969 L143.837344,54.203125 C143.817812,53.593747 143.643986,53.0976582 143.315859,52.7148438 C142.987733,52.3320293 142.55805,52.140625 142.026797,52.140625 L142.026797,52.140625 Z M150.956719,56.3886719 C150.956719,56.0410139 150.817072,55.7617198 150.537773,55.5507812 C150.258475,55.3398427 149.837581,55.1748053 149.275078,55.0556641 C148.712575,54.9365228 148.276056,54.7998055 147.965508,54.6455078 C147.654959,54.4912102 147.424493,54.3027355 147.274102,54.0800781 C147.12371,53.8574208 147.048516,53.5878922 147.048516,53.2714844 C147.048516,52.7714819 147.257498,52.3584001 147.675469,52.0322266 C148.09344,51.7060531 148.62859,51.5429688 149.280937,51.5429688 C149.987972,51.5429688 150.555349,51.7177717 150.983086,52.0673828 C151.410822,52.4169939 151.624687,52.8730441 151.624687,53.4355469 L150.921562,53.4355469 C150.921562,53.0644513 150.766291,52.7558606 150.455742,52.5097656 C150.145194,52.2636706 149.753596,52.140625 149.280937,52.140625 C148.819998,52.140625 148.449884,52.243163 148.170586,52.4482422 C147.891288,52.6533213 147.751641,52.9199202 147.751641,53.2480469 C147.751641,53.5644547 147.86785,53.8095694 148.100273,53.9833984 C148.332696,54.1572274 148.75652,54.3164055 149.371758,54.4609375 C149.986995,54.6054695 150.447928,54.7597648 150.75457,54.9238281 C151.061212,55.0878914 151.288749,55.2851551 151.437187,55.515625 C151.585626,55.7460949 151.659844,56.025389 151.659844,56.3535156 C151.659844,56.8886746 151.444026,57.3164046 151.012383,57.6367188 C150.58074,57.9570329 150.017269,58.1171875 149.321953,58.1171875 C148.583668,58.1171875 147.985041,57.9384783 147.526055,57.5810547 C147.067068,57.223631 146.837578,56.7714871 146.837578,56.2246094 L147.540703,56.2246094 C147.568047,56.6347677 147.740897,56.9541004 148.059258,57.1826172 C148.377619,57.411134 148.798513,57.5253906 149.321953,57.5253906 C149.810237,57.5253906 150.204764,57.4179698 150.505547,57.203125 C150.80633,56.9882802 150.956719,56.7167985 150.956719,56.3886719 L150.956719,56.3886719 Z M155.585859,50.0371094 L155.585859,51.6601562 L156.898359,51.6601562 L156.898359,52.234375 L155.585859,52.234375 L155.585859,56.4589844 C155.585859,56.8105486 155.649335,57.0722648 155.776289,57.2441406 C155.903243,57.4160165 156.115155,57.5019531 156.412031,57.5019531 C156.529219,57.5019531 156.718671,57.4824221 156.980391,57.4433594 L157.009687,58.0175781 C156.826093,58.0839847 156.576095,58.1171875 156.259687,58.1171875 C155.779216,58.1171875 155.42961,57.9775405 155.210859,57.6982422 C154.992108,57.4189439 154.882734,57.0078152 154.882734,56.4648438 L154.882734,52.234375 L153.716719,52.234375 L153.716719,51.6601562 L154.882734,51.6601562 L154.882734,50.0371094 L155.585859,50.0371094 Z M170.229844,52.2578125 C170.081406,52.2304686 169.923204,52.2167969 169.755234,52.2167969 C169.317732,52.2167969 168.947619,52.338866 168.644883,52.5830078 C168.342147,52.8271497 168.126329,53.1816383 167.997422,53.6464844 L167.997422,58 L167.300156,58 L167.300156,51.6601562 L167.985703,51.6601562 L167.997422,52.6679688 C168.368517,51.917965 168.964215,51.5429688 169.784531,51.5429688 C169.979845,51.5429688 170.13414,51.5683591 170.247422,51.6191406 L170.229844,52.2578125 Z M173.382422,58 L172.679297,58 L172.679297,51.6601562 L173.382422,51.6601562 L173.382422,58 Z M172.55625,49.8261719 C172.55625,49.6933587 172.599218,49.5810551 172.685156,49.4892578 C172.771094,49.3974605 172.888281,49.3515625 173.036719,49.3515625 C173.185157,49.3515625 173.30332,49.3974605 173.391211,49.4892578 C173.479102,49.5810551 173.523047,49.6933587 173.523047,49.8261719 C173.523047,49.958985 173.479102,50.0703121 173.391211,50.1601562 C173.30332,50.2500004 173.185157,50.2949219 173.036719,50.2949219 C172.888281,50.2949219 172.771094,50.2500004 172.685156,50.1601562 C172.599218,50.0703121 172.55625,49.958985 172.55625,49.8261719 L172.55625,49.8261719 Z M176.265469,54.7714844 C176.265469,53.7871045 176.485193,53.0029326 176.924648,52.4189453 C177.364104,51.834958 177.960777,51.5429688 178.714687,51.5429688 C179.570161,51.5429688 180.222498,51.880856 180.671719,52.5566406 L180.671719,49 L181.368984,49 L181.368984,58 L180.712734,58 L180.683437,57.15625 C180.234216,57.7968782 179.574067,58.1171875 178.702969,58.1171875 C177.972496,58.1171875 177.383635,57.8232451 176.936367,57.2353516 C176.489099,56.647458 176.265469,55.8535206 176.265469,54.8535156 L176.265469,54.7714844 Z M176.974453,54.8945312 C176.974453,55.703129 177.136561,56.340818 177.460781,56.8076172 C177.785002,57.2744164 178.242028,57.5078125 178.831875,57.5078125 C179.695161,57.5078125 180.308436,57.1269569 180.671719,56.3652344 L180.671719,53.3886719 C180.308436,52.564449 179.699067,52.1523438 178.843594,52.1523438 C178.253747,52.1523438 177.794767,52.3837867 177.466641,52.8466797 C177.138514,53.3095726 176.974453,53.992183 176.974453,54.8945312 L176.974453,54.8945312 Z M186.929766,58.1171875 C186.3907,58.1171875 185.903401,57.9843763 185.467852,57.71875 C185.032302,57.4531237 184.693439,57.0830102 184.45125,56.6083984 C184.209061,56.1337867 184.087969,55.6015654 184.087969,55.0117188 L184.087969,54.7597656 C184.087969,54.1503876 184.206132,53.6015649 184.442461,53.1132812 C184.67879,52.6249976 185.007888,52.2412123 185.429766,51.9619141 C185.851643,51.6826158 186.308669,51.5429688 186.800859,51.5429688 C187.570394,51.5429688 188.18074,51.8056614 188.631914,52.3310547 C189.083088,52.8564479 189.308672,53.5742142 189.308672,54.484375 L189.308672,54.8769531 L184.785234,54.8769531 L184.785234,55.0117188 C184.785234,55.7304723 184.991287,56.3290992 185.403398,56.8076172 C185.81551,57.2861352 186.334059,57.5253906 186.959062,57.5253906 C187.334064,57.5253906 187.665116,57.4570319 187.952227,57.3203125 C188.239337,57.1835931 188.500077,56.9648453 188.734453,56.6640625 L189.173906,56.9980469 C188.658279,57.7441444 187.910239,58.1171875 186.929766,58.1171875 L186.929766,58.1171875 Z M186.800859,52.140625 C186.273513,52.140625 185.829181,52.3339824 185.467852,52.7207031 C185.106522,53.1074238 184.886797,53.6269499 184.808672,54.2792969 L188.611406,54.2792969 L188.611406,54.203125 C188.591875,53.593747 188.418048,53.0976582 188.089922,52.7148438 C187.761795,52.3320293 187.332112,52.140625 186.800859,52.140625 L186.800859,52.140625 Z M199.235859,54.7363281 C199.235859,54.1269501 199.354022,53.5781274 199.590352,53.0898438 C199.826681,52.6015601 200.160662,52.221681 200.592305,51.9501953 C201.023947,51.6787096 201.5132,51.5429688 202.060078,51.5429688 C202.903832,51.5429688 203.587419,51.8388642 204.110859,52.4306641 C204.6343,53.0224639 204.896016,53.8066357 204.896016,54.7832031 L204.896016,54.9296875 C204.896016,55.5429718 204.777853,56.0947241 204.541523,56.5849609 C204.305194,57.0751978 203.97219,57.4531237 203.5425,57.71875 C203.11281,57.9843763 202.622581,58.1171875 202.071797,58.1171875 C201.231949,58.1171875 200.549339,57.821292 200.023945,57.2294922 C199.498552,56.6376924 199.235859,55.8535205 199.235859,54.8769531 L199.235859,54.7363281 Z M199.938984,54.9296875 C199.938984,55.6875038 200.135271,56.3095679 200.527852,56.7958984 C200.920432,57.282229 201.435075,57.5253906 202.071797,57.5253906 C202.704613,57.5253906 203.217303,57.282229 203.609883,56.7958984 C204.002463,56.3095679 204.19875,55.6679727 204.19875,54.8710938 L204.19875,54.7363281 C204.19875,54.2519507 204.108907,53.8085958 203.929219,53.40625 C203.74953,53.0039042 203.49758,52.6923839 203.173359,52.4716797 C202.849139,52.2509755 202.478049,52.140625 202.060078,52.140625 C201.435075,52.140625 200.925314,52.3857397 200.530781,52.8759766 C200.136248,53.3662134 199.938984,54.0078085 199.938984,54.8007812 L199.938984,54.9296875 Z M208.107188,58 L208.107188,52.234375 L207.058359,52.234375 L207.058359,51.6601562 L208.107188,51.6601562 L208.107188,50.8925781 C208.107188,50.2441374 208.272225,49.7460955 208.602305,49.3984375 C208.932384,49.0507795 209.392341,48.8769531 209.982188,48.8769531 C210.247814,48.8769531 210.495858,48.9101559 210.726328,48.9765625 L210.673594,49.5625 C210.47828,49.5156248 210.265392,49.4921875 210.034922,49.4921875 C209.648201,49.4921875 209.347423,49.6123035 209.132578,49.8525391 C208.917733,50.0927746 208.810313,50.4335915 208.810313,50.875 L208.810313,51.6601562 L210.322031,51.6601562 L210.322031,52.234375 L208.810313,52.234375 L208.810313,58 L208.107188,58 Z M5.00390625,66.0371094 L5.00390625,67.6601562 L6.31640625,67.6601562 L6.31640625,68.234375 L5.00390625,68.234375 L5.00390625,72.4589844 C5.00390625,72.8105486 5.06738218,73.0722648 5.19433594,73.2441406 C5.3212897,73.4160165 5.53320164,73.5019531 5.83007812,73.5019531 C5.94726621,73.5019531 6.13671744,73.4824221 6.3984375,73.4433594 L6.42773438,74.0175781 C6.24413971,74.0839847 5.99414221,74.1171875 5.67773438,74.1171875 C5.19726322,74.1171875 4.84765734,73.9775405 4.62890625,73.6982422 C4.41015516,73.4189439 4.30078125,73.0078152 4.30078125,72.4648438 L4.30078125,68.234375 L3.13476562,68.234375 L3.13476562,67.6601562 L4.30078125,67.6601562 L4.30078125,66.0371094 L5.00390625,66.0371094 Z M9.72679687,68.7324219 C9.95726677,68.3535137 10.2521857,68.0605479 10.6115625,67.8535156 C10.9709393,67.6464833 11.3635135,67.5429688 11.7892969,67.5429688 C12.4689878,67.5429688 12.9748421,67.7343731 13.306875,68.1171875 C13.6389079,68.5000019 13.806875,69.0742149 13.8107812,69.8398438 L13.8107812,74 L13.1135156,74 L13.1135156,69.8339844 C13.1096093,69.2675753 12.9894934,68.8457045 12.7531641,68.5683594 C12.5168347,68.2910142 12.1389088,68.1523438 11.619375,68.1523438 C11.1857791,68.1523438 10.8019938,68.2880846 10.4680078,68.5595703 C10.1340218,68.831056 9.88695392,69.1972633 9.72679687,69.6582031 L9.72679687,74 L9.02953124,74 L9.02953124,65 L9.72679687,65 L9.72679687,68.7324219 Z M19.3305469,74.1171875 C18.7914817,74.1171875 18.3041818,73.9843763 17.8686328,73.71875 C17.4330837,73.4531237 17.0942199,73.0830102 16.8520312,72.6083984 C16.6098425,72.1337867 16.48875,71.6015654 16.48875,71.0117188 L16.48875,70.7597656 C16.48875,70.1503876 16.6069129,69.6015649 16.8432422,69.1132812 C17.0795715,68.6249976 17.4086697,68.2412123 17.8305469,67.9619141 C18.252424,67.6826158 18.7094506,67.5429688 19.2016406,67.5429688 C19.9711757,67.5429688 20.5815212,67.8056614 21.0326953,68.3310547 C21.4838694,68.8564479 21.7094531,69.5742142 21.7094531,70.484375 L21.7094531,70.8769531 L17.1860156,70.8769531 L17.1860156,71.0117188 C17.1860156,71.7304723 17.3920682,72.3290992 17.8041797,72.8076172 C18.2162911,73.2861352 18.7348406,73.5253906 19.3598437,73.5253906 C19.7348456,73.5253906 20.065897,73.4570319 20.3530078,73.3203125 C20.6401186,73.1835931 20.9008582,72.9648453 21.1352344,72.6640625 L21.5746875,72.9980469 C21.0590599,73.7441444 20.3110205,74.1171875 19.3305469,74.1171875 L19.3305469,74.1171875 Z M19.2016406,68.140625 C18.6742942,68.140625 18.2299627,68.3339824 17.8686328,68.7207031 C17.5073029,69.1074238 17.2875785,69.6269499 17.2094531,70.2792969 L21.0121875,70.2792969 L21.0121875,70.203125 C20.9926561,69.593747 20.8188297,69.0976582 20.4907031,68.7148438 C20.1625765,68.3320293 19.7328933,68.140625 19.2016406,68.140625 L19.2016406,68.140625 Z M29.6025,66.0371094 L29.6025,67.6601562 L30.915,67.6601562 L30.915,68.234375 L29.6025,68.234375 L29.6025,72.4589844 C29.6025,72.8105486 29.6659759,73.0722648 29.7929296,73.2441406 C29.9198834,73.4160165 30.1317954,73.5019531 30.4286718,73.5019531 C30.5458599,73.5019531 30.7353112,73.4824221 30.9970312,73.4433594 L31.0263281,74.0175781 C30.8427334,74.0839847 30.5927359,74.1171875 30.2763281,74.1171875 C29.7958569,74.1171875 29.4462511,73.9775405 29.2275,73.6982422 C29.0087489,73.4189439 28.899375,73.0078152 28.899375,72.4648438 L28.899375,68.234375 L27.7333593,68.234375 L27.7333593,67.6601562 L28.899375,67.6601562 L28.899375,66.0371094 L29.6025,66.0371094 Z M36.5578125,68.2578125 C36.4093742,68.2304686 36.2511727,68.2167969 36.0832031,68.2167969 C35.6457009,68.2167969 35.2755874,68.338866 34.9728515,68.5830078 C34.6701156,68.8271497 34.4542975,69.1816383 34.3253906,69.6464844 L34.3253906,74 L33.628125,74 L33.628125,67.6601562 L34.3136718,67.6601562 L34.3253906,68.6679688 C34.6964862,67.917965 35.2921834,67.5429688 36.1125,67.5429688 C36.3078134,67.5429688 36.4621088,67.5683591 36.5753906,67.6191406 L36.5578125,68.2578125 Z M39.7103906,74 L39.0072656,74 L39.0072656,67.6601562 L39.7103906,67.6601562 L39.7103906,74 Z M38.8842187,65.8261719 C38.8842187,65.6933587 38.927187,65.5810551 39.0131249,65.4892578 C39.0990629,65.3974605 39.2162492,65.3515625 39.3646874,65.3515625 C39.5131257,65.3515625 39.6312886,65.3974605 39.7191796,65.4892578 C39.8070707,65.5810551 39.8510156,65.6933587 39.8510156,65.8261719 C39.8510156,65.958985 39.8070707,66.0703121 39.7191796,66.1601562 C39.6312886,66.2500004 39.5131257,66.2949219 39.3646874,66.2949219 C39.2162492,66.2949219 39.0990629,66.2500004 39.0131249,66.1601562 C38.927187,66.0703121 38.8842187,65.958985 38.8842187,65.8261719 L38.8842187,65.8261719 Z M47.9723437,70.8945312 C47.9723437,71.8828174 47.7535959,72.6669893 47.3160937,73.2470703 C46.8785915,73.8271513 46.2926599,74.1171875 45.5582812,74.1171875 C44.6910893,74.1171875 44.0270335,73.812503 43.5660937,73.203125 L43.5660937,76.4375 L42.8688281,76.4375 L42.8688281,67.6601562 L43.5192187,67.6601562 L43.5543749,68.5566406 C44.0114085,67.880856 44.6735112,67.5429688 45.5407031,67.5429688 C46.2985193,67.5429688 46.89324,67.8300753 47.3248827,68.4042969 C47.7565255,68.9785185 47.9723437,69.7753855 47.9723437,70.7949219 L47.9723437,70.8945312 Z M47.2692187,70.7714844 C47.2692187,69.9628866 47.1032047,69.3242211 46.7711718,68.8554688 C46.4391389,68.3867164 45.9762529,68.1523438 45.3824999,68.1523438 C44.9528103,68.1523438 44.5836734,68.2558583 44.2750781,68.4628906 C43.9664828,68.6699229 43.730157,68.9707012 43.5660937,69.3652344 L43.5660937,72.40625 C43.7340633,72.7695331 43.9742952,73.046874 44.2867968,73.2382812 C44.5992984,73.4296885 44.9684353,73.5253906 45.3942187,73.5253906 C45.9840654,73.5253906 46.4440217,73.2900414 46.7741015,72.8193359 C47.1041813,72.3486305 47.2692187,71.6660201 47.2692187,70.7714844 L47.2692187,70.7714844 Z M50.7206249,73.578125 C50.7206249,73.4414056 50.7645698,73.3251958 50.8524609,73.2294922 C50.9403519,73.1337886 51.062421,73.0859375 51.2186718,73.0859375 C51.3749226,73.0859375 51.4979682,73.1337886 51.5878124,73.2294922 C51.6776566,73.3251958 51.722578,73.4414056 51.722578,73.578125 C51.722578,73.7148444 51.6776566,73.827148 51.5878124,73.9150391 C51.4979682,74.0029301 51.3749226,74.046875 51.2186718,74.046875 C51.062421,74.046875 50.9403519,74.0029301 50.8524609,73.9150391 C50.7645698,73.827148 50.7206249,73.7148444 50.7206249,73.578125 L50.7206249,73.578125 Z M64.8070312,66.0839844 L61.883203,66.0839844 L61.883203,74 L61.1624999,74 L61.1624999,66.0839844 L58.2445312,66.0839844 L58.2445312,65.46875 L64.8070312,65.46875 L64.8070312,66.0839844 Z M68.4635155,72.5410156 L68.5689843,73.0859375 L68.7096093,72.5117188 L70.2330468,67.6601562 L70.830703,67.6601562 L72.3365624,72.4707031 L72.5006249,73.1386719 L72.6353905,72.5234375 L73.9361718,67.6601562 L74.6627343,67.6601562 L72.8170311,74 L72.2193749,74 L70.5904686,68.9726562 L70.5142968,68.6269531 L70.4381249,68.9785156 L68.8385155,74 L68.2408593,74 L66.4010155,67.6601562 L67.1217186,67.6601562 L68.4635155,72.5410156 Z M76.8660936,70.7363281 C76.8660936,70.1269501 76.9842565,69.5781274 77.2205858,69.0898438 C77.4569151,68.6015601 77.7908962,68.221681 78.2225389,67.9501953 C78.6541817,67.6787096 79.1434347,67.5429688 79.6903124,67.5429688 C80.5340666,67.5429688 81.2176535,67.8388642 81.7410936,68.4306641 C82.2645338,69.0224639 82.5262499,69.8066357 82.5262499,70.7832031 L82.5262499,70.9296875 C82.5262499,71.5429718 82.408087,72.0947241 82.1717577,72.5849609 C81.9354284,73.0751978 81.6024239,73.4531237 81.1727343,73.71875 C80.7430446,73.9843763 80.2528151,74.1171875 79.7020311,74.1171875 C78.8621832,74.1171875 78.1795728,73.821292 77.6541796,73.2294922 C77.1287863,72.6376924 76.8660936,71.8535205 76.8660936,70.8769531 L76.8660936,70.7363281 Z M77.5692186,70.9296875 C77.5692186,71.6875038 77.7655057,72.3095679 78.1580858,72.7958984 C78.5506659,73.282229 79.0653092,73.5253906 79.7020311,73.5253906 C80.3348468,73.5253906 80.847537,73.282229 81.2401171,72.7958984 C81.6326972,72.3095679 81.8289843,71.6679727 81.8289843,70.8710938 L81.8289843,70.7363281 C81.8289843,70.2519507 81.7391414,69.8085958 81.559453,69.40625 C81.3797646,69.0039042 81.127814,68.6923839 80.8035936,68.4716797 C80.4793733,68.2509755 80.1082832,68.140625 79.6903124,68.140625 C79.0653093,68.140625 78.5555487,68.3857397 78.1610155,68.8759766 C77.7664823,69.3662134 77.5692186,70.0078085 77.5692186,70.8007812 L77.5692186,70.9296875 Z M89.1302342,70.7714844 C89.1302342,69.7871045 89.3499586,69.0029326 89.7894139,68.4189453 C90.2288693,67.834958 90.825543,67.5429688 91.579453,67.5429688 C92.434926,67.5429688 93.0872632,67.880856 93.5364842,68.5566406 L93.5364842,65 L94.2337499,65 L94.2337499,74 L93.5774999,74 L93.548203,73.15625 C93.098982,73.7968782 92.4388323,74.1171875 91.5677342,74.1171875 C90.8372618,74.1171875 90.2484005,73.8232451 89.8011327,73.2353516 C89.3538648,72.647458 89.1302342,71.8535206 89.1302342,70.8535156 L89.1302342,70.7714844 Z M89.8392186,70.8945312 C89.8392186,71.703129 90.0013264,72.340818 90.3255467,72.8076172 C90.6497671,73.2744164 91.1067938,73.5078125 91.6966405,73.5078125 C92.5599261,73.5078125 93.1732012,73.1269569 93.5364842,72.3652344 L93.5364842,69.3886719 C93.1732012,68.564449 92.5638323,68.1523438 91.7083592,68.1523438 C91.1185125,68.1523438 90.6595328,68.3837867 90.3314061,68.8466797 C90.0032795,69.3095726 89.8392186,69.992183 89.8392186,70.8945312 L89.8392186,70.8945312 Z M101.341406,74 C101.271093,73.8007803 101.226172,73.5058613 101.20664,73.1152344 C100.960546,73.4355485 100.647072,73.6826163 100.266211,73.8564453 C99.8853495,74.0302743 99.4820332,74.1171875 99.0562499,74.1171875 C98.4468718,74.1171875 97.9537127,73.9472673 97.5767577,73.6074219 C97.1998027,73.2675764 97.011328,72.8378932 97.011328,72.3183594 C97.011328,71.7011688 97.2681614,71.2128924 97.7818358,70.8535156 C98.2955102,70.4941388 99.0113234,70.3144531 99.9292967,70.3144531 L101.200781,70.3144531 L101.200781,69.59375 C101.200781,69.1406227 101.061134,68.784181 100.781836,68.5244141 C100.502538,68.2646471 100.095315,68.1347656 99.5601561,68.1347656 C99.0718724,68.1347656 98.6675796,68.2597644 98.3472655,68.5097656 C98.0269514,68.7597669 97.8667967,69.0605451 97.8667967,69.4121094 L97.1636717,69.40625 C97.1636717,68.9023412 97.3980444,68.4658222 97.8667967,68.0966797 C98.3355491,67.7275372 98.9117152,67.5429688 99.5953124,67.5429688 C100.302347,67.5429688 100.859959,67.7197248 101.268164,68.0732422 C101.676369,68.4267596 101.886328,68.9199187 101.898047,69.5527344 L101.898047,72.5527344 C101.898047,73.1660187 101.962499,73.6249985 102.091406,73.9296875 L102.091406,74 L101.341406,74 Z M99.1382811,73.4960938 C99.6070335,73.4960938 100.025975,73.3828136 100.395117,73.15625 C100.76426,72.9296864 101.032812,72.626955 101.200781,72.2480469 L101.200781,70.8535156 L99.9468749,70.8535156 C99.2476526,70.8613282 98.7007831,70.9892566 98.3062499,71.2373047 C97.9117166,71.4853528 97.714453,71.8261697 97.714453,72.2597656 C97.714453,72.6152362 97.8462876,72.9101551 98.1099608,73.1445312 C98.373634,73.3789074 98.716404,73.4960938 99.1382811,73.4960938 L99.1382811,73.4960938 Z M106.949062,72.9921875 L108.800625,67.6601562 L109.556484,67.6601562 L106.849453,75.078125 L106.708828,75.40625 C106.36117,76.1757851 105.824066,76.5605469 105.0975,76.5605469 C104.92953,76.5605469 104.749845,76.5332034 104.558437,76.4785156 L104.552578,75.8984375 L104.915859,75.9335938 C105.259611,75.9335938 105.537928,75.8486337 105.75082,75.6787109 C105.963712,75.5087882 106.144374,75.2167989 106.292812,74.8027344 L106.603359,73.9472656 L104.212734,67.6601562 L104.980312,67.6601562 L106.949062,72.9921875 Z M115.697344,72.3886719 C115.697344,72.0410139 115.557697,71.7617198 115.278398,71.5507812 C114.9991,71.3398427 114.578206,71.1748053 114.015703,71.0556641 C113.4532,70.9365228 113.016681,70.7998055 112.706133,70.6455078 C112.395584,70.4912102 112.165118,70.3027355 112.014726,70.0800781 C111.864335,69.8574208 111.78914,69.5878922 111.78914,69.2714844 C111.78914,68.7714819 111.998123,68.3584001 112.416094,68.0322266 C112.834064,67.7060531 113.369215,67.5429688 114.021562,67.5429688 C114.728597,67.5429688 115.295974,67.7177717 115.723711,68.0673828 C116.151447,68.4169939 116.365312,68.8730441 116.365312,69.4355469 L115.662187,69.4355469 C115.662187,69.0644513 115.506915,68.7558606 115.196367,68.5097656 C114.885819,68.2636706 114.494221,68.140625 114.021562,68.140625 C113.560623,68.140625 113.190509,68.243163 112.911211,68.4482422 C112.631913,68.6533213 112.492265,68.9199202 112.492265,69.2480469 C112.492265,69.5644547 112.608475,69.8095694 112.840898,69.9833984 C113.073321,70.1572274 113.497145,70.3164055 114.112383,70.4609375 C114.72762,70.6054695 115.188553,70.7597648 115.495195,70.9238281 C115.801837,71.0878914 116.029374,71.2851551 116.177812,71.515625 C116.326251,71.7460949 116.400469,72.025389 116.400469,72.3535156 C116.400469,72.8886746 116.18465,73.3164046 115.753008,73.6367188 C115.321365,73.9570329 114.757894,74.1171875 114.062578,74.1171875 C113.324293,74.1171875 112.725666,73.9384783 112.26668,73.5810547 C111.807693,73.223631 111.578203,72.7714871 111.578203,72.2246094 L112.281328,72.2246094 C112.308672,72.6347677 112.481522,72.9541004 112.799883,73.1826172 C113.118244,73.411134 113.539138,73.5253906 114.062578,73.5253906 C114.550862,73.5253906 114.945389,73.4179698 115.246172,73.203125 C115.546954,72.9882802 115.697344,72.7167985 115.697344,72.3886719 L115.697344,72.3886719 Z M127.492734,73.1972656 C127.070857,73.8105499 126.397036,74.1171875 125.47125,74.1171875 C124.795465,74.1171875 124.281798,73.9209004 123.930234,73.5283203 C123.57867,73.1357402 123.398984,72.5546913 123.391172,71.7851562 L123.391172,67.6601562 L124.088437,67.6601562 L124.088437,71.6972656 C124.088437,72.9043029 124.576714,73.5078125 125.553281,73.5078125 C126.568911,73.5078125 127.211483,73.0878948 127.481015,72.2480469 L127.481015,67.6601562 L128.18414,67.6601562 L128.18414,74 L127.504453,74 L127.492734,73.1972656 Z M136.364062,70.8945312 C136.364062,71.8828174 136.145314,72.6669893 135.707812,73.2470703 C135.27031,73.8271513 134.684378,74.1171875 133.95,74.1171875 C133.082808,74.1171875 132.418752,73.812503 131.957812,73.203125 L131.957812,76.4375 L131.260547,76.4375 L131.260547,67.6601562 L131.910937,67.6601562 L131.946094,68.5566406 C132.403127,67.880856 133.06523,67.5429688 133.932422,67.5429688 C134.690238,67.5429688 135.284959,67.8300753 135.716601,68.4042969 C136.148244,68.9785185 136.364062,69.7753855 136.364062,70.7949219 L136.364062,70.8945312 Z M135.660937,70.7714844 C135.660937,69.9628866 135.494923,69.3242211 135.16289,68.8554688 C134.830858,68.3867164 134.367972,68.1523438 133.774219,68.1523438 C133.344529,68.1523438 132.975392,68.2558583 132.666797,68.4628906 C132.358201,68.6699229 132.121876,68.9707012 131.957812,69.3652344 L131.957812,72.40625 C132.125782,72.7695331 132.366014,73.046874 132.678515,73.2382812 C132.991017,73.4296885 133.360154,73.5253906 133.785937,73.5253906 C134.375784,73.5253906 134.83574,73.2900414 135.16582,72.8193359 C135.4959,72.3486305 135.660937,71.6660201 135.660937,70.7714844 L135.660937,70.7714844 Z M139.874062,68.7324219 C140.104532,68.3535137 140.399451,68.0605479 140.758828,67.8535156 C141.118205,67.6464833 141.510779,67.5429688 141.936562,67.5429688 C142.616253,67.5429688 143.122108,67.7343731 143.45414,68.1171875 C143.786173,68.5000019 143.95414,69.0742149 143.958047,69.8398438 L143.958047,74 L143.260781,74 L143.260781,69.8339844 C143.256875,69.2675753 143.136759,68.8457045 142.900429,68.5683594 C142.6641,68.2910142 142.286174,68.1523438 141.76664,68.1523438 C141.333045,68.1523438 140.949259,68.2880846 140.615273,68.5595703 C140.281287,68.831056 140.034219,69.1972633 139.874062,69.6582031 L139.874062,74 L139.176797,74 L139.176797,65 L139.874062,65 L139.874062,68.7324219 Z M147.80789,74 L147.104765,74 L147.104765,67.6601562 L147.80789,67.6601562 L147.80789,74 Z M146.981719,65.8261719 C146.981719,65.6933587 147.024687,65.5810551 147.110625,65.4892578 C147.196563,65.3974605 147.313749,65.3515625 147.462187,65.3515625 C147.610626,65.3515625 147.728788,65.3974605 147.816679,65.4892578 C147.904571,65.5810551 147.948515,65.6933587 147.948515,65.8261719 C147.948515,65.958985 147.904571,66.0703121 147.816679,66.1601562 C147.728788,66.2500004 147.610626,66.2949219 147.462187,66.2949219 C147.313749,66.2949219 147.196563,66.2500004 147.110625,66.1601562 C147.024687,66.0703121 146.981719,65.958985 146.981719,65.8261719 L146.981719,65.8261719 Z M151.757344,74 L151.054219,74 L151.054219,65 L151.757344,65 L151.757344,74 Z M155.706797,74 L155.003672,74 L155.003672,65 L155.706797,65 L155.706797,74 Z M162.667969,72.3886719 C162.667969,72.0410139 162.528321,71.7617198 162.249023,71.5507812 C161.969725,71.3398427 161.548831,71.1748053 160.986328,71.0556641 C160.423825,70.9365228 159.987306,70.7998055 159.676758,70.6455078 C159.366209,70.4912102 159.135743,70.3027355 158.985351,70.0800781 C158.83496,69.8574208 158.759765,69.5878922 158.759765,69.2714844 C158.759765,68.7714819 158.968748,68.3584001 159.386719,68.0322266 C159.804689,67.7060531 160.33984,67.5429688 160.992187,67.5429688 C161.699222,67.5429688 162.266599,67.7177717 162.694336,68.0673828 C163.122072,68.4169939 163.335937,68.8730441 163.335937,69.4355469 L162.632812,69.4355469 C162.632812,69.0644513 162.47754,68.7558606 162.166992,68.5097656 C161.856444,68.2636706 161.464846,68.140625 160.992187,68.140625 C160.531247,68.140625 160.161134,68.243163 159.881836,68.4482422 C159.602537,68.6533213 159.46289,68.9199202 159.46289,69.2480469 C159.46289,69.5644547 159.5791,69.8095694 159.811523,69.9833984 C160.043946,70.1572274 160.46777,70.3164055 161.083008,70.4609375 C161.698245,70.6054695 162.159178,70.7597648 162.46582,70.9238281 C162.772462,71.0878914 162.999999,71.2851551 163.148437,71.515625 C163.296876,71.7460949 163.371094,72.025389 163.371094,72.3535156 C163.371094,72.8886746 163.155275,73.3164046 162.723633,73.6367188 C162.29199,73.9570329 161.728519,74.1171875 161.033203,74.1171875 C160.294918,74.1171875 159.696291,73.9384783 159.237304,73.5810547 C158.778318,73.223631 158.548828,72.7714871 158.548828,72.2246094 L159.251953,72.2246094 C159.279297,72.6347677 159.452147,72.9541004 159.770508,73.1826172 C160.088869,73.411134 160.509763,73.5253906 161.033203,73.5253906 C161.521487,73.5253906 161.916014,73.4179698 162.216797,73.203125 C162.517579,72.9882802 162.667969,72.7167985 162.667969,72.3886719 L162.667969,72.3886719 Z M166.142812,73.578125 C166.142812,73.4414056 166.186757,73.3251958 166.274648,73.2294922 C166.362539,73.1337886 166.484608,73.0859375 166.640859,73.0859375 C166.79711,73.0859375 166.920156,73.1337886 167.01,73.2294922 C167.099844,73.3251958 167.144765,73.4414056 167.144765,73.578125 C167.144765,73.7148444 167.099844,73.827148 167.01,73.9150391 C166.920156,74.0029301 166.79711,74.046875 166.640859,74.046875 C166.484608,74.046875 166.362539,74.0029301 166.274648,73.9150391 C166.186757,73.827148 166.142812,73.7148444 166.142812,73.578125 L166.142812,73.578125 Z" id="Arriving-here-from-Y"></path>
            </g>
        </g>
    </g>
</svg>