<?xml version="1.0" encoding="UTF-8"?>
<svg width="90px" height="11px" viewBox="0 0 90 11" version="1.1" xmlns="http://www.w3.org/2000/svg" xmlns:xlink="http://www.w3.org/1999/xlink">
    <!-- Generator: Sketch 41.2 (35397) - http://www.bohemiancoding.com/sketch -->
    <title>Mission Cliffs</title>
    <desc>Created with Sketch.</desc>
    <defs></defs>
    <g id="Page-1" stroke="none" stroke-width="1" fill="none" fill-rule="evenodd">
        <g id="Desktop-HD-Copy" transform="translate(-120.000000, -368.000000)" fill="#FFFFFF">
            <path d="M121.033203,369.46875 L124.179688,376.998047 L127.337891,369.46875 L128.298828,369.46875 L128.298828,378 L127.578125,378 L127.578125,374.285156 L127.636719,370.476562 L124.460938,378 L123.904297,378 L120.740234,370.505859 L120.798828,374.261719 L120.798828,378 L120.078125,378 L120.078125,369.46875 L121.033203,369.46875 Z M132.599174,378 L131.896049,378 L131.896049,371.660156 L132.599174,371.660156 L132.599174,378 Z M131.773002,369.826172 C131.773002,369.693359 131.81597,369.581055 131.901908,369.489258 C131.987846,369.39746 132.105033,369.351562 132.253471,369.351562 C132.401909,369.351562 132.520072,369.39746 132.607963,369.489258 C132.695854,369.581055 132.739799,369.693359 132.739799,369.826172 C132.739799,369.958985 132.695854,370.070312 132.607963,370.160156 C132.520072,370.25 132.401909,370.294922 132.253471,370.294922 C132.105033,370.294922 131.987846,370.25 131.901908,370.160156 C131.81597,370.070312 131.773002,369.958985 131.773002,369.826172 Z M139.817489,376.388672 C139.817489,376.041014 139.677842,375.76172 139.398543,375.550781 C139.119245,375.339843 138.698351,375.174805 138.135848,375.055664 C137.573345,374.936523 137.136826,374.799805 136.826278,374.645508 C136.515729,374.49121 136.285263,374.302735 136.134871,374.080078 C135.98448,373.857421 135.909286,373.587892 135.909286,373.271484 C135.909286,372.771482 136.118268,372.3584 136.536239,372.032227 C136.95421,371.706053 137.48936,371.542969 138.141707,371.542969 C138.848742,371.542969 139.416119,371.717772 139.843856,372.067383 C140.271592,372.416994 140.485457,372.873044 140.485457,373.435547 L139.782332,373.435547 C139.782332,373.064451 139.627061,372.755861 139.316512,372.509766 C139.005964,372.263671 138.614366,372.140625 138.141707,372.140625 C137.680768,372.140625 137.310654,372.243163 137.031356,372.448242 C136.752058,372.653321 136.612411,372.91992 136.612411,373.248047 C136.612411,373.564455 136.72862,373.809569 136.961043,373.983398 C137.193466,374.157227 137.61729,374.316406 138.232528,374.460938 C138.847765,374.605469 139.308698,374.759765 139.61534,374.923828 C139.921982,375.087891 140.149519,375.285155 140.297957,375.515625 C140.446396,375.746095 140.520614,376.025389 140.520614,376.353516 C140.520614,376.888675 140.304796,377.316405 139.873153,377.636719 C139.44151,377.957033 138.878039,378.117188 138.182723,378.117188 C137.444438,378.117188 136.845811,377.938478 136.386825,377.581055 C135.927838,377.223631 135.698348,376.771487 135.698348,376.224609 L136.401473,376.224609 C136.428817,376.634768 136.601667,376.9541 136.920028,377.182617 C137.238389,377.411134 137.659283,377.525391 138.182723,377.525391 C138.671007,377.525391 139.065534,377.41797 139.366317,377.203125 C139.6671,376.98828 139.817489,376.716799 139.817489,376.388672 Z M147.410803,376.388672 C147.410803,376.041014 147.271156,375.76172 146.991858,375.550781 C146.71256,375.339843 146.291666,375.174805 145.729163,375.055664 C145.16666,374.936523 144.730141,374.799805 144.419592,374.645508 C144.109044,374.49121 143.878578,374.302735 143.728186,374.080078 C143.577795,373.857421 143.5026,373.587892 143.5026,373.271484 C143.5026,372.771482 143.711582,372.3584 144.129553,372.032227 C144.547524,371.706053 145.082675,371.542969 145.735022,371.542969 C146.442057,371.542969 147.009434,371.717772 147.437171,372.067383 C147.864907,372.416994 148.078772,372.873044 148.078772,373.435547 L147.375647,373.435547 C147.375647,373.064451 147.220375,372.755861 146.909827,372.509766 C146.599278,372.263671 146.207681,372.140625 145.735022,372.140625 C145.274082,372.140625 144.903969,372.243163 144.624671,372.448242 C144.345372,372.653321 144.205725,372.91992 144.205725,373.248047 C144.205725,373.564455 144.321935,373.809569 144.554358,373.983398 C144.786781,374.157227 145.210605,374.316406 145.825842,374.460938 C146.44108,374.605469 146.902013,374.759765 147.208655,374.923828 C147.515297,375.087891 147.742834,375.285155 147.891272,375.515625 C148.03971,375.746095 148.113928,376.025389 148.113928,376.353516 C148.113928,376.888675 147.89811,377.316405 147.466467,377.636719 C147.034825,377.957033 146.471354,378.117188 145.776038,378.117188 C145.037753,378.117188 144.439126,377.938478 143.980139,377.581055 C143.521153,377.223631 143.291663,376.771487 143.291663,376.224609 L143.994788,376.224609 C144.022132,376.634768 144.194981,376.9541 144.513342,377.182617 C144.831703,377.411134 145.252598,377.525391 145.776038,377.525391 C146.264321,377.525391 146.658849,377.41797 146.959631,377.203125 C147.260414,376.98828 147.410803,376.716799 147.410803,376.388672 Z M151.992399,378 L151.289274,378 L151.289274,371.660156 L151.992399,371.660156 L151.992399,378 Z M151.166227,369.826172 C151.166227,369.693359 151.209196,369.581055 151.295134,369.489258 C151.381072,369.39746 151.498258,369.351562 151.646696,369.351562 C151.795134,369.351562 151.913297,369.39746 152.001188,369.489258 C152.089079,369.581055 152.133024,369.693359 152.133024,369.826172 C152.133024,369.958985 152.089079,370.070312 152.001188,370.160156 C151.913297,370.25 151.795134,370.294922 151.646696,370.294922 C151.498258,370.294922 151.381072,370.25 151.295134,370.160156 C151.209196,370.070312 151.166227,369.958985 151.166227,369.826172 Z M155.02712,374.736328 C155.02712,374.12695 155.145283,373.578127 155.381612,373.089844 C155.617942,372.60156 155.951923,372.221681 156.383565,371.950195 C156.815208,371.67871 157.304461,371.542969 157.851339,371.542969 C158.695093,371.542969 159.37868,371.838864 159.90212,372.430664 C160.42556,373.022464 160.687276,373.806636 160.687276,374.783203 L160.687276,374.929688 C160.687276,375.542972 160.569113,376.094724 160.332784,376.584961 C160.096455,377.075198 159.76345,377.453124 159.333761,377.71875 C158.904071,377.984376 158.413842,378.117188 157.863058,378.117188 C157.02321,378.117188 156.340599,377.821292 155.815206,377.229492 C155.289813,376.637692 155.02712,375.853521 155.02712,374.876953 L155.02712,374.736328 Z M155.730245,374.929688 C155.730245,375.687504 155.926532,376.309568 156.319112,376.795898 C156.711692,377.282229 157.226336,377.525391 157.863058,377.525391 C158.495873,377.525391 159.008563,377.282229 159.401144,376.795898 C159.793724,376.309568 159.990011,375.667973 159.990011,374.871094 L159.990011,374.736328 C159.990011,374.251951 159.900168,373.808596 159.720479,373.40625 C159.540791,373.003904 159.28884,372.692384 158.96462,372.47168 C158.6404,372.250975 158.26931,372.140625 157.851339,372.140625 C157.226336,372.140625 156.716575,372.38574 156.322042,372.875977 C155.927509,373.366213 155.730245,374.007809 155.730245,374.800781 L155.730245,374.929688 Z M164.319654,371.660156 L164.343091,372.744141 C164.581373,372.353514 164.878245,372.055665 165.233716,371.850586 C165.589187,371.645507 165.981761,371.542969 166.41145,371.542969 C167.091141,371.542969 167.596996,371.734373 167.929029,372.117188 C168.261061,372.500002 168.429028,373.074215 168.432935,373.839844 L168.432935,378 L167.735669,378 L167.735669,373.833984 C167.731763,373.267575 167.611647,372.845705 167.375318,372.568359 C167.138988,372.291014 166.761062,372.152344 166.241529,372.152344 C165.807933,372.152344 165.424147,372.288085 165.090161,372.55957 C164.756175,372.831056 164.509107,373.197263 164.34895,373.658203 L164.34895,378 L163.651685,378 L163.651685,371.660156 L164.319654,371.660156 Z M182.400814,375.339844 C182.303157,376.238286 181.981871,376.925779 181.436947,377.402344 C180.892022,377.878909 180.166444,378.117188 179.260189,378.117188 C178.627373,378.117188 178.067809,377.958986 177.581478,377.642578 C177.095148,377.32617 176.719175,376.877933 176.453548,376.297852 C176.187922,375.717771 176.053158,375.054691 176.049252,374.308594 L176.049252,373.201172 C176.049252,372.443356 176.182063,371.771487 176.447689,371.185547 C176.713315,370.599606 177.095148,370.147463 177.593197,369.829102 C178.091246,369.510741 178.664483,369.351562 179.312923,369.351562 C180.226991,369.351562 180.948663,369.59863 181.477962,370.092773 C182.007262,370.586917 182.314876,371.269527 182.400814,372.140625 L181.674252,372.140625 C181.494563,370.691399 180.707462,369.966797 179.312923,369.966797 C178.539482,369.966797 177.923277,370.255856 177.464291,370.833984 C177.005304,371.412112 176.775814,372.210932 176.775814,373.230469 L176.775814,374.273438 C176.775814,375.257817 176.999445,376.042966 177.446712,376.628906 C177.89398,377.214847 178.498466,377.507812 179.260189,377.507812 C180.014099,377.507812 180.582453,377.32715 180.965267,376.96582 C181.348082,376.60449 181.584407,376.062504 181.674252,375.339844 L182.400814,375.339844 Z M186.291004,378 L185.587879,378 L185.587879,369 L186.291004,369 L186.291004,378 Z M190.4976,378 L189.794475,378 L189.794475,371.660156 L190.4976,371.660156 L190.4976,378 Z M189.671428,369.826172 C189.671428,369.693359 189.714396,369.581055 189.800334,369.489258 C189.886272,369.39746 190.003458,369.351562 190.151896,369.351562 C190.300335,369.351562 190.418498,369.39746 190.506389,369.489258 C190.59428,369.581055 190.638225,369.693359 190.638225,369.826172 C190.638225,369.958985 190.59428,370.070312 190.506389,370.160156 C190.418498,370.25 190.300335,370.294922 190.151896,370.294922 C190.003458,370.294922 189.886272,370.25 189.800334,370.160156 C189.714396,370.070312 189.671428,369.958985 189.671428,369.826172 Z M194.422945,378 L194.422945,372.234375 L193.374117,372.234375 L193.374117,371.660156 L194.422945,371.660156 L194.422945,370.892578 C194.422945,370.244137 194.587983,369.746095 194.918063,369.398438 C195.248142,369.05078 195.708099,368.876953 196.297945,368.876953 C196.563572,368.876953 196.811616,368.910156 197.042086,368.976562 L196.989352,369.5625 C196.794038,369.515625 196.58115,369.492188 196.35068,369.492188 C195.963959,369.492188 195.663181,369.612303 195.448336,369.852539 C195.233491,370.092775 195.12607,370.433592 195.12607,370.875 L195.12607,371.660156 L196.637789,371.660156 L196.637789,372.234375 L195.12607,372.234375 L195.12607,378 L194.422945,378 Z M199.912745,378 L199.912745,372.234375 L198.863916,372.234375 L198.863916,371.660156 L199.912745,371.660156 L199.912745,370.892578 C199.912745,370.244137 200.077782,369.746095 200.407862,369.398438 C200.737941,369.05078 201.197898,368.876953 201.787745,368.876953 C202.053371,368.876953 202.301415,368.910156 202.531885,368.976562 L202.479151,369.5625 C202.283837,369.515625 202.070949,369.492188 201.840479,369.492188 C201.453758,369.492188 201.15298,369.612303 200.938135,369.852539 C200.72329,370.092775 200.61587,370.433592 200.61587,370.875 L200.61587,371.660156 L202.127588,371.660156 L202.127588,372.234375 L200.61587,372.234375 L200.61587,378 L199.912745,378 Z M208.695512,376.388672 C208.695512,376.041014 208.555865,375.76172 208.276567,375.550781 C207.997269,375.339843 207.576374,375.174805 207.013872,375.055664 C206.451369,374.936523 206.01485,374.799805 205.704301,374.645508 C205.393753,374.49121 205.163286,374.302735 205.012895,374.080078 C204.862504,373.857421 204.787309,373.587892 204.787309,373.271484 C204.787309,372.771482 204.996291,372.3584 205.414262,372.032227 C205.832233,371.706053 206.367384,371.542969 207.019731,371.542969 C207.726766,371.542969 208.294143,371.717772 208.721879,372.067383 C209.149616,372.416994 209.363481,372.873044 209.363481,373.435547 L208.660356,373.435547 C208.660356,373.064451 208.505084,372.755861 208.194536,372.509766 C207.883987,372.263671 207.49239,372.140625 207.019731,372.140625 C206.558791,372.140625 206.188678,372.243163 205.909379,372.448242 C205.630081,372.653321 205.490434,372.91992 205.490434,373.248047 C205.490434,373.564455 205.606644,373.809569 205.839067,373.983398 C206.07149,374.157227 206.495314,374.316406 207.110551,374.460938 C207.725789,374.605469 208.186722,374.759765 208.493364,374.923828 C208.800006,375.087891 209.027543,375.285155 209.175981,375.515625 C209.324419,375.746095 209.398637,376.025389 209.398637,376.353516 C209.398637,376.888675 209.182819,377.316405 208.751176,377.636719 C208.319534,377.957033 207.756063,378.117188 207.060747,378.117188 C206.322462,378.117188 205.723835,377.938478 205.264848,377.581055 C204.805862,377.223631 204.576372,376.771487 204.576372,376.224609 L205.279497,376.224609 C205.306841,376.634768 205.47969,376.9541 205.798051,377.182617 C206.116412,377.411134 206.537307,377.525391 207.060747,377.525391 C207.54903,377.525391 207.943558,377.41797 208.24434,377.203125 C208.545123,376.98828 208.695512,376.716799 208.695512,376.388672 Z" id="Mission-Cliffs"></path>
        </g>
    </g>
</svg>