<?xml version="1.0" encoding="UTF-8"?>
<svg width="82px" height="10px" viewBox="0 0 82 10" version="1.1" xmlns="http://www.w3.org/2000/svg" xmlns:xlink="http://www.w3.org/1999/xlink">
    <!-- Generator: Sketch 41.2 (35397) - http://www.bohemiancoding.com/sketch -->
    <title>Whats Next?</title>
    <desc>Created with Sketch.</desc>
    <defs></defs>
    <g id="Page-1" stroke="none" stroke-width="1" fill="none" fill-rule="evenodd">
        <g id="Desktop-HD" transform="translate(-311.000000, -892.000000)" fill="#FFFFFF">
            <path d="M313.654297,898.697266 L313.917969,900.021484 L314.240234,898.755859 L316.091797,892.46875 L316.742188,892.46875 L318.570312,898.755859 L318.886719,900.033203 L319.167969,898.697266 L320.708984,892.46875 L321.447266,892.46875 L319.261719,901 L318.570312,901 L316.636719,894.326172 L316.419922,893.482422 L316.208984,894.326172 L314.228516,901 L313.537109,901 L311.357422,892.46875 L312.095703,892.46875 L313.654297,898.697266 Z M324.886283,895.732422 C325.116753,895.353514 325.411672,895.060548 325.771049,894.853516 C326.130426,894.646483 326.523,894.542969 326.948783,894.542969 C327.628474,894.542969 328.134329,894.734373 328.466362,895.117188 C328.798394,895.500002 328.966362,896.074215 328.970268,896.839844 L328.970268,901 L328.273002,901 L328.273002,896.833984 C328.269096,896.267575 328.14898,895.845705 327.912651,895.568359 C327.676321,895.291014 327.298395,895.152344 326.778862,895.152344 C326.345266,895.152344 325.96148,895.288085 325.627494,895.55957 C325.293508,895.831056 325.04644,896.197263 324.886283,896.658203 L324.886283,901 L324.189018,901 L324.189018,892 L324.886283,892 L324.886283,895.732422 Z M336.294051,901 C336.223738,900.80078 336.178817,900.505861 336.159286,900.115234 C335.913191,900.435548 335.599717,900.682616 335.218856,900.856445 C334.837995,901.030274 334.434678,901.117188 334.008895,901.117188 C333.399517,901.117188 332.906358,900.947267 332.529403,900.607422 C332.152448,900.267576 331.963973,899.837893 331.963973,899.318359 C331.963973,898.701169 332.220806,898.212892 332.734481,897.853516 C333.248155,897.494139 333.963968,897.314453 334.881942,897.314453 L336.153426,897.314453 L336.153426,896.59375 C336.153426,896.140623 336.013779,895.784181 335.734481,895.524414 C335.455183,895.264647 335.04796,895.134766 334.512801,895.134766 C334.024517,895.134766 333.620225,895.259764 333.299911,895.509766 C332.979596,895.759767 332.819442,896.060545 332.819442,896.412109 L332.116317,896.40625 C332.116317,895.902341 332.350689,895.465822 332.819442,895.09668 C333.288194,894.727537 333.86436,894.542969 334.547957,894.542969 C335.254992,894.542969 335.812604,894.719725 336.220809,895.073242 C336.629014,895.42676 336.838973,895.919919 336.850692,896.552734 L336.850692,899.552734 C336.850692,900.166019 336.915144,900.624998 337.044051,900.929688 L337.044051,901 L336.294051,901 Z M334.090926,900.496094 C334.559679,900.496094 334.97862,900.382814 335.347762,900.15625 C335.716905,899.929686 335.985457,899.626955 336.153426,899.248047 L336.153426,897.853516 L334.89952,897.853516 C334.200298,897.861328 333.653428,897.989257 333.258895,898.237305 C332.864362,898.485353 332.667098,898.82617 332.667098,899.259766 C332.667098,899.615236 332.798933,899.910155 333.062606,900.144531 C333.326279,900.378907 333.669049,900.496094 334.090926,900.496094 Z M341.326819,893.037109 L341.326819,894.660156 L342.639319,894.660156 L342.639319,895.234375 L341.326819,895.234375 L341.326819,899.458984 C341.326819,899.810549 341.390295,900.072265 341.517249,900.244141 C341.644202,900.416016 341.856114,900.501953 342.152991,900.501953 C342.270179,900.501953 342.45963,900.482422 342.72135,900.443359 L342.750647,901.017578 C342.567052,901.083985 342.317055,901.117188 342.000647,901.117188 C341.520176,901.117188 341.17057,900.97754 340.951819,900.698242 C340.733068,900.418944 340.623694,900.007815 340.623694,899.464844 L340.623694,895.234375 L339.457678,895.234375 L339.457678,894.660156 L340.623694,894.660156 L340.623694,893.037109 L341.326819,893.037109 Z M349.406462,899.388672 C349.406462,899.041014 349.266815,898.76172 348.987516,898.550781 C348.708218,898.339843 348.287324,898.174805 347.724821,898.055664 C347.162318,897.936523 346.725799,897.799805 346.415251,897.645508 C346.104702,897.49121 345.874236,897.302735 345.723845,897.080078 C345.573453,896.857421 345.498259,896.587892 345.498259,896.271484 C345.498259,895.771482 345.707241,895.3584 346.125212,895.032227 C346.543183,894.706053 347.078333,894.542969 347.73068,894.542969 C348.437715,894.542969 349.005092,894.717772 349.432829,895.067383 C349.860565,895.416994 350.07443,895.873044 350.07443,896.435547 L349.371305,896.435547 C349.371305,896.064451 349.216034,895.755861 348.905485,895.509766 C348.594937,895.263671 348.203339,895.140625 347.73068,895.140625 C347.269741,895.140625 346.899627,895.243163 346.620329,895.448242 C346.341031,895.653321 346.201384,895.91992 346.201384,896.248047 C346.201384,896.564455 346.317593,896.809569 346.550016,896.983398 C346.782439,897.157227 347.206263,897.316406 347.821501,897.460938 C348.436738,897.605469 348.897671,897.759765 349.204313,897.923828 C349.510955,898.087891 349.738492,898.285155 349.88693,898.515625 C350.035369,898.746095 350.109587,899.025389 350.109587,899.353516 C350.109587,899.888675 349.893769,900.316405 349.462126,900.636719 C349.030483,900.957033 348.467012,901.117188 347.771696,901.117188 C347.033411,901.117188 346.434784,900.938478 345.975798,900.581055 C345.516811,900.223631 345.287321,899.771487 345.287321,899.224609 L345.990446,899.224609 C346.01779,899.634768 346.19064,899.9541 346.509001,900.182617 C346.827362,900.411134 347.248256,900.525391 347.771696,900.525391 C348.25998,900.525391 348.654507,900.41797 348.95529,900.203125 C349.256073,899.98828 349.406462,899.716799 349.406462,899.388672 Z M364.153638,901 L363.432935,901 L358.528638,893.699219 L358.528638,901 L357.802075,901 L357.802075,892.46875 L358.528638,892.46875 L363.438794,899.775391 L363.438794,892.46875 L364.153638,892.46875 L364.153638,901 Z M370.129765,901.117188 C369.5907,901.117188 369.1034,900.984376 368.667851,900.71875 C368.232302,900.453124 367.893438,900.08301 367.651249,899.608398 C367.409061,899.133787 367.287968,898.601565 367.287968,898.011719 L367.287968,897.759766 C367.287968,897.150388 367.406131,896.601565 367.64246,896.113281 C367.87879,895.624998 368.207888,895.241212 368.629765,894.961914 C369.051642,894.682616 369.508669,894.542969 370.000859,894.542969 C370.770394,894.542969 371.380739,894.805661 371.831913,895.331055 C372.283088,895.856448 372.508671,896.574214 372.508671,897.484375 L372.508671,897.876953 L367.985234,897.876953 L367.985234,898.011719 C367.985234,898.730472 368.191286,899.329099 368.603398,899.807617 C369.015509,900.286135 369.534059,900.525391 370.159062,900.525391 C370.534064,900.525391 370.865115,900.457032 371.152226,900.320312 C371.439337,900.183593 371.700076,899.964845 371.934453,899.664062 L372.373906,899.998047 C371.858278,900.744144 371.110239,901.117188 370.129765,901.117188 Z M370.000859,895.140625 C369.473512,895.140625 369.029181,895.333982 368.667851,895.720703 C368.306521,896.107424 368.086797,896.62695 368.008671,897.279297 L371.811406,897.279297 L371.811406,897.203125 C371.791874,896.593747 371.618048,896.097658 371.289921,895.714844 C370.961795,895.332029 370.532111,895.140625 370.000859,895.140625 Z M377.383236,897.232422 L379.094173,894.660156 L379.926205,894.660156 L377.775814,897.771484 L380.019955,901 L379.193783,901 L377.389095,898.316406 L375.584408,901 L374.758236,901 L376.996517,897.771484 L374.846127,894.660156 L375.672298,894.660156 L377.383236,897.232422 Z M383.833972,893.037109 L383.833972,894.660156 L385.146472,894.660156 L385.146472,895.234375 L383.833972,895.234375 L383.833972,899.458984 C383.833972,899.810549 383.897448,900.072265 384.024402,900.244141 C384.151356,900.416016 384.363268,900.501953 384.660144,900.501953 C384.777332,900.501953 384.966784,900.482422 385.228504,900.443359 L385.257801,901.017578 C385.074206,901.083985 384.824208,901.117188 384.507801,901.117188 C384.027329,901.117188 383.677724,900.97754 383.458972,900.698242 C383.240221,900.418944 383.130847,900.007815 383.130847,899.464844 L383.130847,895.234375 L381.964832,895.234375 L381.964832,894.660156 L383.130847,894.660156 L383.130847,893.037109 L383.833972,893.037109 Z M389.405803,898.632812 C389.413615,898.171873 389.476115,897.800783 389.593303,897.519531 C389.710491,897.23828 389.962441,896.907228 390.349162,896.526367 C390.735883,896.145506 390.984904,895.875977 391.096232,895.717773 C391.207561,895.55957 391.293498,895.385743 391.354045,895.196289 C391.414592,895.006835 391.444865,894.791017 391.444865,894.548828 C391.444865,894.060544 391.314984,893.676759 391.055217,893.397461 C390.79545,893.118163 390.433149,892.978516 389.968303,892.978516 C389.49955,892.978516 389.121624,893.112303 388.834514,893.379883 C388.547403,893.647462 388.399943,894.009763 388.392131,894.466797 L387.694865,894.466797 C387.702678,893.826169 387.919472,893.313478 388.345256,892.928711 C388.771039,892.543943 389.312049,892.351562 389.968303,892.351562 C390.640181,892.351562 391.170449,892.54785 391.559123,892.94043 C391.947797,893.33301 392.142131,893.865231 392.142131,894.537109 C392.142131,894.958986 392.046429,895.35449 391.855021,895.723633 C391.663614,896.092775 391.300337,896.523435 390.765178,897.015625 C390.323769,897.386721 390.103068,897.925778 390.103068,898.632812 L389.405803,898.632812 Z M389.312053,900.589844 C389.312053,900.457031 389.354044,900.344727 389.438029,900.25293 C389.522014,900.161132 389.640177,900.115234 389.792521,900.115234 C389.94096,900.115234 390.059123,900.161132 390.147014,900.25293 C390.234905,900.344727 390.27885,900.457031 390.27885,900.589844 C390.27885,900.718751 390.234905,900.827148 390.147014,900.915039 C390.059123,901.00293 389.94096,901.046875 389.792521,901.046875 C389.640177,901.046875 389.522014,901.00293 389.438029,900.915039 C389.354044,900.827148 389.312053,900.718751 389.312053,900.589844 Z" id="Whats-Next?"></path>
        </g>
    </g>
</svg>