<?xml version="1.0" encoding="UTF-8"?>
<svg width="208px" height="78px" viewBox="0 0 208 78" version="1.1" xmlns="http://www.w3.org/2000/svg" xmlns:xlink="http://www.w3.org/1999/xlink">
    <!-- Generator: Sketch 41.2 (35397) - http://www.bohemiancoding.com/sketch -->
    <title>Group 3</title>
    <desc>Created with Sketch.</desc>
    <defs></defs>
    <g id="Page-1" stroke="none" stroke-width="1" fill="none" fill-rule="evenodd">
        <g id="Desktop-HD" transform="translate(-921.000000, -55.000000)" fill="#000000">
            <g id="Group-3" transform="translate(921.000000, 55.000000)">
                <path d="M2.13964844,9.92675781 L7.83398438,9.92675781 L7.83398438,11 L0.587890625,11 L0.587890625,10.015625 L6.04296875,2.12695312 L0.676757812,2.12695312 L0.676757812,1.046875 L7.61523438,1.046875 L7.61523438,2.01074219 L2.13964844,9.92675781 Z M12.284336,11 L10.971836,11 L10.971836,1.046875 L12.284336,1.046875 L12.284336,11 Z M23.6800001,6.34472656 C23.6800001,7.31999186 23.5159392,8.17105756 23.1878126,8.89794922 C22.8596859,9.62484087 22.3948468,10.1796856 21.7932813,10.5625 C21.1917158,10.9453144 20.4898999,11.1367188 19.6878126,11.1367188 C18.9039545,11.1367188 18.2089745,10.9441751 17.6028516,10.559082 C16.9967288,10.173989 16.5261931,9.62484081 16.1912305,8.91162109 C15.8562679,8.19840138 15.6842319,7.37240053 15.6751173,6.43359375 L15.6751173,5.71582031 C15.6751173,4.75878428 15.8414567,3.91341513 16.1741407,3.1796875 C16.5068246,2.44595987 16.9773603,1.88427929 17.5857618,1.49462891 C18.1941633,1.10497852 18.8902826,0.91015625 19.6741407,0.91015625 C20.4716707,0.91015625 21.1746259,1.1026999 21.7830274,1.48779297 C22.3914289,1.87288604 22.8596859,2.43114869 23.1878126,3.16259766 C23.5159392,3.89404663 23.6800001,4.74511233 23.6800001,5.71582031 L23.6800001,6.34472656 Z M22.374336,5.70214844 C22.374336,4.52180399 22.1373592,3.61605133 21.6633985,2.98486328 C21.1894378,2.35367523 20.5263585,2.03808594 19.6741407,2.03808594 C18.8447095,2.03808594 18.191884,2.35367523 17.7156446,2.98486328 C17.2394052,3.61605133 16.9944533,4.49218189 16.9807813,5.61328125 L16.9807813,6.34472656 C16.9807813,7.48861249 17.221176,8.38752928 17.7019727,9.04150391 C18.1827694,9.69547853 18.8447094,10.0224609 19.6878126,10.0224609 C20.5354731,10.0224609 21.1917165,9.71370751 21.6565626,9.09619141 C22.1214086,8.4786753 22.3606641,7.59343024 22.374336,6.44042969 L22.374336,5.70214844 Z M34.6381642,11 L33.3188282,11 L28.308086,3.33007812 L28.308086,11 L26.9887501,11 L26.9887501,1.046875 L28.308086,1.046875 L33.3325001,8.75097656 L33.3325001,1.046875 L34.6381642,1.046875 L34.6381642,11 Z M50.7644533,11 L49.4451174,11 L44.4343752,3.33007812 L44.4343752,11 L43.1150392,11 L43.1150392,1.046875 L44.4343752,1.046875 L49.4587892,8.75097656 L49.4587892,1.046875 L50.7644533,1.046875 L50.7644533,11 Z M60.0546486,8.40234375 L55.8847268,8.40234375 L54.9482033,11 L53.5946877,11 L57.395469,1.046875 L58.5439065,1.046875 L62.3515236,11 L61.004844,11 L60.0546486,8.40234375 Z M56.2812111,7.32226562 L59.6650002,7.32226562 L57.9696877,2.66699219 L56.2812111,7.32226562 Z M71.0264846,2.12695312 L67.8272659,2.12695312 L67.8272659,11 L66.5216018,11 L66.5216018,2.12695312 L63.329219,2.12695312 L63.329219,1.046875 L71.0264846,1.046875 L71.0264846,2.12695312 Z M75.2512503,11 L73.9387503,11 L73.9387503,1.046875 L75.2512503,1.046875 L75.2512503,11 Z M86.6469144,6.34472656 C86.6469144,7.31999186 86.4828535,8.17105756 86.1547269,8.89794922 C85.8266002,9.62484087 85.3617611,10.1796856 84.7601956,10.5625 C84.1586301,10.9453144 83.4568142,11.1367188 82.6547269,11.1367188 C81.8708688,11.1367188 81.1758887,10.9441751 80.5697659,10.559082 C79.9636431,10.173989 79.4931074,9.62484081 79.1581448,8.91162109 C78.8231822,8.19840138 78.6511462,7.37240053 78.6420316,6.43359375 L78.6420316,5.71582031 C78.6420316,4.75878428 78.808371,3.91341513 79.141055,3.1796875 C79.4737389,2.44595987 79.9442746,1.88427929 80.5526761,1.49462891 C81.1610776,1.10497852 81.8571969,0.91015625 82.641055,0.91015625 C83.438585,0.91015625 84.1415402,1.1026999 84.7499417,1.48779297 C85.3583432,1.87288604 85.8266002,2.43114869 86.1547269,3.16259766 C86.4828535,3.89404663 86.6469144,4.74511233 86.6469144,5.71582031 L86.6469144,6.34472656 Z M85.3412503,5.70214844 C85.3412503,4.52180399 85.1042735,3.61605133 84.6303128,2.98486328 C84.1563521,2.35367523 83.4932728,2.03808594 82.641055,2.03808594 C81.8116238,2.03808594 81.1587983,2.35367523 80.6825589,2.98486328 C80.2063195,3.61605133 79.9613676,4.49218189 79.9476956,5.61328125 L79.9476956,6.34472656 C79.9476956,7.48861249 80.1880903,8.38752928 80.668887,9.04150391 C81.1496837,9.69547853 81.8116237,10.0224609 82.6547269,10.0224609 C83.5023874,10.0224609 84.1586308,9.71370751 84.6234769,9.09619141 C85.0883229,8.4786753 85.3275784,7.59343024 85.3412503,6.44042969 L85.3412503,5.70214844 Z M97.6050785,11 L96.2857425,11 L91.2750003,3.33007812 L91.2750003,11 L89.9556644,11 L89.9556644,1.046875 L91.2750003,1.046875 L96.2994144,8.75097656 L96.2994144,1.046875 L97.6050785,1.046875 L97.6050785,11 Z M106.895274,8.40234375 L102.725352,8.40234375 L101.788828,11 L100.435313,11 L104.236094,1.046875 L105.384532,1.046875 L109.192149,11 L107.845469,11 L106.895274,8.40234375 Z M103.121836,7.32226562 L106.505625,7.32226562 L104.810313,2.66699219 L103.121836,7.32226562 Z M113.191329,9.92675781 L117.908125,9.92675781 L117.908125,11 L111.871993,11 L111.871993,1.046875 L113.191329,1.046875 L113.191329,9.92675781 Z M126.863516,7.10351562 L126.863516,11 L125.551016,11 L125.551016,1.046875 L129.221915,1.046875 C130.311113,1.046875 131.164457,1.32486701 131.781973,1.88085938 C132.399489,2.43685174 132.708243,3.17284698 132.708243,4.08886719 C132.708243,5.05501785 132.406325,5.79898828 131.802481,6.32080078 C131.198637,6.84261329 130.333899,7.10351562 129.208243,7.10351562 L126.863516,7.10351562 Z M126.863516,6.03027344 L129.221915,6.03027344 C129.923741,6.03027344 130.461496,5.86507327 130.835196,5.53466797 C131.208896,5.20426267 131.395743,4.72689114 131.395743,4.10253906 C131.395743,3.51008818 131.208896,3.03613459 130.835196,2.68066406 C130.461496,2.32519354 129.948806,2.14062507 129.29711,2.12695312 L126.863516,2.12695312 L126.863516,6.03027344 Z M140.275782,8.40234375 L136.10586,8.40234375 L135.169336,11 L133.815821,11 L137.616602,1.046875 L138.76504,1.046875 L142.572657,11 L141.225977,11 L140.275782,8.40234375 Z M136.502344,7.32226562 L139.886133,7.32226562 L138.190821,2.66699219 L136.502344,7.32226562 Z M148.902891,6.97363281 L146.565001,6.97363281 L146.565001,11 L145.245665,11 L145.245665,1.046875 L148.540586,1.046875 C149.661686,1.046875 150.524145,1.30208078 151.127989,1.8125 C151.731833,2.32291922 152.033751,3.06575033 152.033751,4.04101562 C152.033751,4.66081039 151.866272,5.20084405 151.531309,5.66113281 C151.196347,6.12142157 150.730368,6.46549365 150.13336,6.69335938 L152.471251,10.9179688 L152.471251,11 L151.063047,11 L148.902891,6.97363281 Z M146.565001,5.90039062 L148.581602,5.90039062 C149.233298,5.90039062 149.751685,5.73177252 150.136778,5.39453125 C150.521871,5.05728998 150.714415,4.60612262 150.714415,4.04101562 C150.714415,3.42577817 150.530985,2.9541032 150.164122,2.62597656 C149.797258,2.29784992 149.267478,2.13151044 148.574766,2.12695312 L146.565001,2.12695312 L146.565001,5.90039062 Z M157.741915,6.37207031 L156.525118,7.63671875 L156.525118,11 L155.212618,11 L155.212618,1.046875 L156.525118,1.046875 L156.525118,5.96875 L160.947969,1.046875 L162.533907,1.046875 L158.616915,5.44238281 L162.841524,11 L161.269258,11 L157.741915,6.37207031 Z" id="ZION-NATIONAL-PARK"></path>
                <polygon id="X" points="202.402344 6.86132812 204.788086 3.046875 206.333008 3.046875 203.188477 7.98242188 206.408203 13 204.849609 13 202.402344 9.1171875 199.941406 13 198.389648 13 201.616211 7.98242188 198.464844 3.046875 200.00293 3.046875"></polygon>
                <path d="M2.65429688,40.6972656 L2.91796875,42.0214844 L3.24023438,40.7558594 L5.09179688,34.46875 L5.7421875,34.46875 L7.5703125,40.7558594 L7.88671875,42.0332031 L8.16796875,40.6972656 L9.70898438,34.46875 L10.4472656,34.46875 L8.26171875,43 L7.5703125,43 L5.63671875,36.3261719 L5.41992188,35.4824219 L5.20898438,36.3261719 L3.22851562,43 L2.53710938,43 L0.357421875,34.46875 L1.09570312,34.46875 L2.65429688,40.6972656 Z M15.2053125,43.1171875 C14.6662473,43.1171875 14.1789475,42.9843763 13.7433984,42.71875 C13.3078494,42.4531237 12.9689856,42.0830102 12.7267969,41.6083984 C12.4846082,41.1337867 12.3635156,40.6015654 12.3635156,40.0117188 L12.3635156,39.7597656 C12.3635156,39.1503876 12.4816785,38.6015649 12.7180078,38.1132812 C12.9543371,37.6249976 13.2834354,37.2412123 13.7053125,36.9619141 C14.1271896,36.6826158 14.5842163,36.5429688 15.0764062,36.5429688 C15.8459413,36.5429688 16.4562868,36.8056614 16.9074609,37.3310547 C17.3586351,37.8564479 17.5842187,38.5742142 17.5842187,39.484375 L17.5842187,39.8769531 L13.0607812,39.8769531 L13.0607812,40.0117188 C13.0607812,40.7304723 13.2668339,41.3290992 13.6789453,41.8076172 C14.0910567,42.2861352 14.6096062,42.5253906 15.2346094,42.5253906 C15.6096112,42.5253906 15.9406626,42.4570319 16.2277734,42.3203125 C16.5148842,42.1835931 16.7756238,41.9648453 17.01,41.6640625 L17.4494531,41.9980469 C16.9338255,42.7441444 16.1857861,43.1171875 15.2053125,43.1171875 L15.2053125,43.1171875 Z M15.0764062,37.140625 C14.5490599,37.140625 14.1047284,37.3339824 13.7433984,37.7207031 C13.3820685,38.1074238 13.1623441,38.6269499 13.0842187,39.2792969 L16.8869531,39.2792969 L16.8869531,39.203125 C16.8674218,38.593747 16.6935954,38.0976582 16.3654687,37.7148438 C16.0373421,37.3320293 15.6076589,37.140625 15.0764062,37.140625 L15.0764062,37.140625 Z M27.9830469,37.7324219 C28.2135168,37.3535137 28.5084357,37.0605479 28.8678125,36.8535156 C29.2271893,36.6464833 29.6197635,36.5429688 30.0455469,36.5429688 C30.7252378,36.5429688 31.2310921,36.7343731 31.563125,37.1171875 C31.8951579,37.5000019 32.063125,38.0742149 32.0670313,38.8398438 L32.0670313,43 L31.3697656,43 L31.3697656,38.8339844 C31.3658594,38.2675753 31.2457434,37.8457045 31.0094141,37.5683594 C30.7730848,37.2910142 30.3951589,37.1523438 29.875625,37.1523438 C29.4420291,37.1523438 29.0582439,37.2880846 28.7242578,37.5595703 C28.3902718,37.831056 28.1432039,38.1972633 27.9830469,38.6582031 L27.9830469,43 L27.2857813,43 L27.2857813,34 L27.9830469,34 L27.9830469,37.7324219 Z M39.1336719,43 C39.063359,42.8007803 39.0184376,42.5058613 38.9989063,42.1152344 C38.7528113,42.4355485 38.4393378,42.6826163 38.0584766,42.8564453 C37.6776153,43.0302743 37.274299,43.1171875 36.8485156,43.1171875 C36.2391376,43.1171875 35.7459785,42.9472673 35.3690234,42.6074219 C34.9920684,42.2675764 34.8035938,41.8378932 34.8035938,41.3183594 C34.8035938,40.7011688 35.0604271,40.2128924 35.5741016,39.8535156 C36.087776,39.4941388 36.8035892,39.3144531 37.7215625,39.3144531 L38.9930469,39.3144531 L38.9930469,38.59375 C38.9930469,38.1406227 38.8533998,37.784181 38.5741016,37.5244141 C38.2948033,37.2646471 37.8875808,37.1347656 37.3524219,37.1347656 C36.8641382,37.1347656 36.4598454,37.2597644 36.1395313,37.5097656 C35.8192172,37.7597669 35.6590625,38.0605451 35.6590625,38.4121094 L34.9559375,38.40625 C34.9559375,37.9023412 35.1903102,37.4658222 35.6590625,37.0966797 C36.1278148,36.7275372 36.703981,36.5429688 37.3875781,36.5429688 C38.0946129,36.5429688 38.6522245,36.7197248 39.0604297,37.0732422 C39.4686349,37.4267596 39.6785937,37.9199187 39.6903125,38.5527344 L39.6903125,41.5527344 C39.6903125,42.1660187 39.754765,42.6249985 39.8836719,42.9296875 L39.8836719,43 L39.1336719,43 Z M36.9305469,42.4960938 C37.3992992,42.4960938 37.8182403,42.3828136 38.1873828,42.15625 C38.5565253,41.9296864 38.8250773,41.626955 38.9930469,41.2480469 L38.9930469,39.8535156 L37.7391406,39.8535156 C37.0399184,39.8613282 36.4930489,39.9892566 36.0985156,40.2373047 C35.7039824,40.4853528 35.5067188,40.8261697 35.5067188,41.2597656 C35.5067188,41.6152362 35.6385534,41.9101551 35.9022266,42.1445312 C36.1658998,42.3789074 36.5086698,42.4960938 36.9305469,42.4960938 L36.9305469,42.4960938 Z M44.7061719,42.0332031 L46.6339062,36.6601562 L47.3546094,36.6601562 L44.9874219,43 L44.4190625,43 L42.0401562,36.6601562 L42.7608594,36.6601562 L44.7061719,42.0332031 Z M52.1419531,43.1171875 C51.6028879,43.1171875 51.1155881,42.9843763 50.680039,42.71875 C50.24449,42.4531237 49.9056262,42.0830102 49.6634375,41.6083984 C49.4212488,41.1337867 49.3001562,40.6015654 49.3001562,40.0117188 L49.3001562,39.7597656 C49.3001562,39.1503876 49.4183191,38.6015649 49.6546484,38.1132812 C49.8909777,37.6249976 50.220076,37.2412123 50.6419531,36.9619141 C51.0638302,36.6826158 51.5208569,36.5429688 52.0130469,36.5429688 C52.782582,36.5429688 53.3929274,36.8056614 53.8441015,37.3310547 C54.2952757,37.8564479 54.5208594,38.5742142 54.5208594,39.484375 L54.5208594,39.8769531 L49.9974219,39.8769531 L49.9974219,40.0117188 C49.9974219,40.7304723 50.2034745,41.3290992 50.6155859,41.8076172 C51.0276974,42.2861352 51.5462469,42.5253906 52.17125,42.5253906 C52.5462519,42.5253906 52.8773032,42.4570319 53.164414,42.3203125 C53.4515249,42.1835931 53.7122644,41.9648453 53.9466406,41.6640625 L54.3860937,41.9980469 C53.8704662,42.7441444 53.1224268,43.1171875 52.1419531,43.1171875 L52.1419531,43.1171875 Z M52.0130469,37.140625 C51.4857005,37.140625 51.041369,37.3339824 50.680039,37.7207031 C50.3187091,38.1074238 50.0989848,38.6269499 50.0208594,39.2792969 L53.8235937,39.2792969 L53.8235937,39.203125 C53.8040624,38.593747 53.630236,38.0976582 53.3021094,37.7148438 C52.9739827,37.3320293 52.5442995,37.140625 52.0130469,37.140625 L52.0130469,37.140625 Z M65.3122656,35.0371094 L65.3122656,36.6601562 L66.6247656,36.6601562 L66.6247656,37.234375 L65.3122656,37.234375 L65.3122656,41.4589844 C65.3122656,41.8105486 65.3757416,42.0722648 65.5026953,42.2441406 C65.6296491,42.4160165 65.841561,42.5019531 66.1384375,42.5019531 C66.2556256,42.5019531 66.4450768,42.4824221 66.7067969,42.4433594 L66.7360938,43.0175781 C66.5524991,43.0839847 66.3025016,43.1171875 65.9860938,43.1171875 C65.5056226,43.1171875 65.1560167,42.9775405 64.9372656,42.6982422 C64.7185145,42.4189439 64.6091406,42.0078152 64.6091406,41.4648438 L64.6091406,37.234375 L63.443125,37.234375 L63.443125,36.6601562 L64.6091406,36.6601562 L64.6091406,35.0371094 L65.3122656,35.0371094 Z M68.8339844,39.7363281 C68.8339844,39.1269501 68.9521473,38.5781274 69.1884766,38.0898438 C69.4248059,37.6015601 69.7587869,37.221681 70.1904297,36.9501953 C70.6220725,36.6787096 71.1113254,36.5429688 71.6582031,36.5429688 C72.5019573,36.5429688 73.1855443,36.8388642 73.7089844,37.4306641 C74.2324245,38.0224639 74.4941406,38.8066357 74.4941406,39.7832031 L74.4941406,39.9296875 C74.4941406,40.5429718 74.3759777,41.0947241 74.1396484,41.5849609 C73.9033191,42.0751978 73.5703146,42.4531237 73.140625,42.71875 C72.7109354,42.9843763 72.2207059,43.1171875 71.6699219,43.1171875 C70.8300739,43.1171875 70.1474636,42.821292 69.6220703,42.2294922 C69.0966771,41.6376924 68.8339844,40.8535205 68.8339844,39.8769531 L68.8339844,39.7363281 Z M69.5371094,39.9296875 C69.5371094,40.6875038 69.7333965,41.3095679 70.1259766,41.7958984 C70.5185567,42.282229 71.0331999,42.5253906 71.6699219,42.5253906 C72.3027375,42.5253906 72.8154277,42.282229 73.2080078,41.7958984 C73.6005879,41.3095679 73.796875,40.6679727 73.796875,39.8710938 L73.796875,39.7363281 C73.796875,39.2519507 73.7070321,38.8085958 73.5273438,38.40625 C73.3476554,38.0039042 73.0957047,37.6923839 72.7714844,37.4716797 C72.447264,37.2509755 72.076174,37.140625 71.6582031,37.140625 C71.0332,37.140625 70.5234395,37.3857397 70.1289062,37.8759766 C69.734373,38.3662134 69.5371094,39.0078085 69.5371094,39.8007812 L69.5371094,39.9296875 Z M86.6214844,42.5253906 C87.1097681,42.5253906 87.5189437,42.3876967 87.8490235,42.1123047 C88.1791032,41.8369127 88.3578124,41.4804709 88.3851563,41.0429688 L89.0589844,41.0429688 C89.0394531,41.4296894 88.9183605,41.782225 88.6957031,42.1005859 C88.4730458,42.4189469 88.1771503,42.6679679 87.8080078,42.8476562 C87.4388654,43.0273446 87.0433615,43.1171875 86.6214844,43.1171875 C85.789449,43.1171875 85.1302759,42.8281279 84.6439453,42.25 C84.1576148,41.6718721 83.9144531,40.8945361 83.9144531,39.9179688 L83.9144531,39.7070312 C83.9144531,39.0820281 84.0238271,38.5292993 84.2425781,38.0488281 C84.4613292,37.568357 84.7748027,37.1972669 85.1830078,36.9355469 C85.591213,36.6738268 86.0687473,36.5429688 86.615625,36.5429688 C87.310941,36.5429688 87.8841775,36.7499979 88.3353516,37.1640625 C88.7865257,37.5781271 89.0277342,38.1230435 89.0589844,38.7988281 L88.3851563,38.7988281 C88.3539061,38.3027319 88.175197,37.9023453 87.8490235,37.5976562 C87.52285,37.2929672 87.1117213,37.140625 86.615625,37.140625 C85.9828094,37.140625 85.4916033,37.3691383 85.1419922,37.8261719 C84.7923811,38.2832054 84.6175781,38.923824 84.6175781,39.7480469 L84.6175781,39.953125 C84.6175781,40.7617228 84.7923811,41.3925759 85.1419922,41.8457031 C85.4916033,42.2988304 85.9847625,42.5253906 86.6214844,42.5253906 L86.6214844,42.5253906 Z M91.3326563,39.7363281 C91.3326563,39.1269501 91.4508191,38.5781274 91.6871485,38.0898438 C91.9234778,37.6015601 92.2574588,37.221681 92.6891016,36.9501953 C93.1207444,36.6787096 93.6099973,36.5429688 94.156875,36.5429688 C95.0006292,36.5429688 95.6842161,36.8388642 96.2076563,37.4306641 C96.7310964,38.0224639 96.9928125,38.8066357 96.9928125,39.7832031 L96.9928125,39.9296875 C96.9928125,40.5429718 96.8746496,41.0947241 96.6383203,41.5849609 C96.401991,42.0751978 96.0689865,42.4531237 95.6392969,42.71875 C95.2096072,42.9843763 94.7193778,43.1171875 94.1685938,43.1171875 C93.3287458,43.1171875 92.6461355,42.821292 92.1207422,42.2294922 C91.5953489,41.6376924 91.3326563,40.8535205 91.3326563,39.8769531 L91.3326563,39.7363281 Z M92.0357813,39.9296875 C92.0357813,40.6875038 92.2320684,41.3095679 92.6246485,41.7958984 C93.0172285,42.282229 93.5318718,42.5253906 94.1685938,42.5253906 C94.8014094,42.5253906 95.3140996,42.282229 95.7066797,41.7958984 C96.0992598,41.3095679 96.2955469,40.6679727 96.2955469,39.8710938 L96.2955469,39.7363281 C96.2955469,39.2519507 96.205704,38.8085958 96.0260156,38.40625 C95.8463272,38.0039042 95.5943766,37.6923839 95.2701563,37.4716797 C94.9459359,37.2509755 94.5748459,37.140625 94.156875,37.140625 C93.5318719,37.140625 93.0221114,37.3857397 92.6275781,37.8759766 C92.2330449,38.3662134 92.0357813,39.0078085 92.0357813,39.8007812 L92.0357813,39.9296875 Z M100.33875,36.6601562 L100.362188,37.6914062 C100.596564,37.3085918 100.889529,37.0214853 101.241094,36.8300781 C101.592658,36.6386709 101.983279,36.5429688 102.412969,36.5429688 C103.412974,36.5429688 104.047733,36.9531209 104.317266,37.7734375 C104.543829,37.3789043 104.846561,37.0751964 105.225469,36.8623047 C105.604377,36.649413 106.022341,36.5429688 106.479375,36.5429688 C107.838757,36.5429688 108.532109,37.2851488 108.559453,38.7695312 L108.559453,43 L107.856328,43 L107.856328,38.8222656 C107.852422,38.2558565 107.730353,37.8359389 107.490117,37.5625 C107.249882,37.2890611 106.858284,37.1523438 106.315313,37.1523438 C105.811404,37.1601563 105.385627,37.3232406 105.037969,37.6416016 C104.690311,37.9599625 104.496953,38.347654 104.457891,38.8046875 L104.457891,43 L103.754766,43 L103.754766,38.7695312 C103.750859,38.2265598 103.622931,37.8212904 103.370977,37.5537109 C103.119022,37.2861315 102.731331,37.1523438 102.207891,37.1523438 C101.766482,37.1523438 101.38758,37.2783191 101.071172,37.5302734 C100.754764,37.7822278 100.520391,38.1562475 100.368047,38.6523438 L100.368047,43 L99.6649219,43 L99.6649219,36.6601562 L100.33875,36.6601562 Z M114.049922,43.1171875 C113.510857,43.1171875 113.023557,42.9843763 112.588008,42.71875 C112.152459,42.4531237 111.813595,42.0830102 111.571406,41.6083984 C111.329218,41.1337867 111.208125,40.6015654 111.208125,40.0117188 L111.208125,39.7597656 C111.208125,39.1503876 111.326288,38.6015649 111.562617,38.1132812 C111.798946,37.6249976 112.128045,37.2412123 112.549922,36.9619141 C112.971799,36.6826158 113.428826,36.5429688 113.921016,36.5429688 C114.690551,36.5429688 115.300896,36.8056614 115.75207,37.3310547 C116.203244,37.8564479 116.428828,38.5742142 116.428828,39.484375 L116.428828,39.8769531 L111.905391,39.8769531 L111.905391,40.0117188 C111.905391,40.7304723 112.111443,41.3290992 112.523555,41.8076172 C112.935666,42.2861352 113.454216,42.5253906 114.079219,42.5253906 C114.454221,42.5253906 114.785272,42.4570319 115.072383,42.3203125 C115.359494,42.1835931 115.620233,41.9648453 115.854609,41.6640625 L116.294062,41.9980469 C115.778435,42.7441444 115.030396,43.1171875 114.049922,43.1171875 L114.049922,43.1171875 Z M113.921016,37.140625 C113.393669,37.140625 112.949338,37.3339824 112.588008,37.7207031 C112.226678,38.1074238 112.006954,38.6269499 111.928828,39.2792969 L115.731562,39.2792969 L115.731562,39.203125 C115.712031,38.593747 115.538205,38.0976582 115.210078,37.7148438 C114.881951,37.3320293 114.452268,37.140625 113.921016,37.140625 L113.921016,37.140625 Z M131.233906,39.8945312 C131.233906,40.8828174 131.015158,41.6669893 130.577656,42.2470703 C130.140154,42.8271513 129.552269,43.1171875 128.813984,43.1171875 C127.931167,43.1171875 127.263205,42.7890658 126.810078,42.1328125 L126.780781,43 L126.124531,43 L126.124531,34 L126.821797,34 L126.821797,37.5800781 C127.267112,36.8886684 127.927261,36.5429688 128.802266,36.5429688 C129.552269,36.5429688 130.145037,36.8290987 130.580586,37.4013672 C131.016135,37.9736357 131.233906,38.7695262 131.233906,39.7890625 L131.233906,39.8945312 Z M130.530781,39.7714844 C130.530781,38.9355427 130.368674,38.2900413 130.044453,37.8349609 C129.720233,37.3798805 129.263206,37.1523438 128.673359,37.1523438 C128.224138,37.1523438 127.843283,37.2626942 127.530781,37.4833984 C127.21828,37.7041027 126.981954,38.0273416 126.821797,38.453125 L126.821797,41.3125 C127.173361,42.109379 127.794449,42.5078125 128.685078,42.5078125 C129.263206,42.5078125 129.71535,42.2792992 130.041523,41.8222656 C130.367697,41.3652321 130.530781,40.6816452 130.530781,39.7714844 L130.530781,39.7714844 Z M138.042734,43 C137.972422,42.8007803 137.9275,42.5058613 137.907969,42.1152344 C137.661874,42.4355485 137.3484,42.6826163 136.967539,42.8564453 C136.586678,43.0302743 136.183362,43.1171875 135.757578,43.1171875 C135.1482,43.1171875 134.655041,42.9472673 134.278086,42.6074219 C133.901131,42.2675764 133.712656,41.8378932 133.712656,41.3183594 C133.712656,40.7011688 133.96949,40.2128924 134.483164,39.8535156 C134.996839,39.4941388 135.712652,39.3144531 136.630625,39.3144531 L137.902109,39.3144531 L137.902109,38.59375 C137.902109,38.1406227 137.762462,37.784181 137.483164,37.5244141 C137.203866,37.2646471 136.796643,37.1347656 136.261484,37.1347656 C135.773201,37.1347656 135.368908,37.2597644 135.048594,37.5097656 C134.72828,37.7597669 134.568125,38.0605451 134.568125,38.4121094 L133.865,38.40625 C133.865,37.9023412 134.099373,37.4658222 134.568125,37.0966797 C135.036877,36.7275372 135.613043,36.5429688 136.296641,36.5429688 C137.003675,36.5429688 137.561287,36.7197248 137.969492,37.0732422 C138.377697,37.4267596 138.587656,37.9199187 138.599375,38.5527344 L138.599375,41.5527344 C138.599375,42.1660187 138.663827,42.6249985 138.792734,42.9296875 L138.792734,43 L138.042734,43 Z M135.839609,42.4960938 C136.308362,42.4960938 136.727303,42.3828136 137.096445,42.15625 C137.465588,41.9296864 137.73414,41.626955 137.902109,41.2480469 L137.902109,39.8535156 L136.648203,39.8535156 C135.948981,39.8613282 135.402111,39.9892566 135.007578,40.2373047 C134.613045,40.4853528 134.415781,40.8261697 134.415781,41.2597656 C134.415781,41.6152362 134.547616,41.9101551 134.811289,42.1445312 C135.074962,42.3789074 135.417732,42.4960938 135.839609,42.4960938 L135.839609,42.4960938 Z M144.072266,42.5253906 C144.560549,42.5253906 144.969725,42.3876967 145.299805,42.1123047 C145.629884,41.8369127 145.808594,41.4804709 145.835938,41.0429688 L146.509766,41.0429688 C146.490234,41.4296894 146.369142,41.782225 146.146484,42.1005859 C145.923827,42.4189469 145.627932,42.6679679 145.258789,42.8476562 C144.889647,43.0273446 144.494143,43.1171875 144.072266,43.1171875 C143.24023,43.1171875 142.581057,42.8281279 142.094727,42.25 C141.608396,41.6718721 141.365234,40.8945361 141.365234,39.9179688 L141.365234,39.7070312 C141.365234,39.0820281 141.474608,38.5292993 141.693359,38.0488281 C141.91211,37.568357 142.225584,37.1972669 142.633789,36.9355469 C143.041994,36.6738268 143.519529,36.5429688 144.066406,36.5429688 C144.761722,36.5429688 145.334959,36.7499979 145.786133,37.1640625 C146.237307,37.5781271 146.478515,38.1230435 146.509766,38.7988281 L145.835938,38.7988281 C145.804687,38.3027319 145.625978,37.9023453 145.299805,37.5976562 C144.973631,37.2929672 144.562502,37.140625 144.066406,37.140625 C143.433591,37.140625 142.942385,37.3691383 142.592773,37.8261719 C142.243162,38.2832054 142.068359,38.923824 142.068359,39.7480469 L142.068359,39.953125 C142.068359,40.7617228 142.243162,41.3925759 142.592773,41.8457031 C142.942385,42.2988304 143.435544,42.5253906 144.072266,42.5253906 L144.072266,42.5253906 Z M150.676016,39.8066406 L149.873281,40.5800781 L149.873281,43 L149.170156,43 L149.170156,34 L149.873281,34 L149.873281,39.7597656 L150.535391,39.0449219 L152.961172,36.6601562 L153.845937,36.6601562 L151.156484,39.3320312 L154.080312,43 L153.242422,43 L150.676016,39.8066406 Z M167.385391,43 C167.315078,42.8007803 167.270156,42.5058613 167.250625,42.1152344 C167.00453,42.4355485 166.691057,42.6826163 166.310195,42.8564453 C165.929334,43.0302743 165.526018,43.1171875 165.100234,43.1171875 C164.490856,43.1171875 163.997697,42.9472673 163.620742,42.6074219 C163.243787,42.2675764 163.055313,41.8378932 163.055313,41.3183594 C163.055313,40.7011688 163.312146,40.2128924 163.82582,39.8535156 C164.339495,39.4941388 165.055308,39.3144531 165.973281,39.3144531 L167.244766,39.3144531 L167.244766,38.59375 C167.244766,38.1406227 167.105119,37.784181 166.82582,37.5244141 C166.546522,37.2646471 166.1393,37.1347656 165.604141,37.1347656 C165.115857,37.1347656 164.711564,37.2597644 164.39125,37.5097656 C164.070936,37.7597669 163.910781,38.0605451 163.910781,38.4121094 L163.207656,38.40625 C163.207656,37.9023412 163.442029,37.4658222 163.910781,37.0966797 C164.379534,36.7275372 164.9557,36.5429688 165.639297,36.5429688 C166.346332,36.5429688 166.903943,36.7197248 167.312148,37.0732422 C167.720354,37.4267596 167.930312,37.9199187 167.942031,38.5527344 L167.942031,41.5527344 C167.942031,42.1660187 168.006484,42.6249985 168.135391,42.9296875 L168.135391,43 L167.385391,43 Z M165.182266,42.4960938 C165.651018,42.4960938 166.069959,42.3828136 166.439102,42.15625 C166.808244,41.9296864 167.076796,41.626955 167.244766,41.2480469 L167.244766,39.8535156 L165.990859,39.8535156 C165.291637,39.8613282 164.744768,39.9892566 164.350234,40.2373047 C163.955701,40.4853528 163.758438,40.8261697 163.758438,41.2597656 C163.758438,41.6152362 163.890272,41.9101551 164.153945,42.1445312 C164.417619,42.3789074 164.760389,42.4960938 165.182266,42.4960938 L165.182266,42.4960938 Z M171.739141,36.6601562 L171.762578,37.7441406 C172.000861,37.3535137 172.297733,37.0556651 172.653203,36.8505859 C173.008674,36.6455068 173.401248,36.5429688 173.830938,36.5429688 C174.510628,36.5429688 175.016483,36.7343731 175.348516,37.1171875 C175.680549,37.5000019 175.848516,38.0742149 175.852422,38.8398438 L175.852422,43 L175.155156,43 L175.155156,38.8339844 C175.15125,38.2675753 175.031134,37.8457045 174.794805,37.5683594 C174.558475,37.2910142 174.180549,37.1523438 173.661016,37.1523438 C173.22742,37.1523438 172.843634,37.2880846 172.509648,37.5595703 C172.175662,37.831056 171.928595,38.1972633 171.768438,38.6582031 L171.768438,43 L171.071172,43 L171.071172,36.6601562 L171.739141,36.6601562 Z M178.641719,39.7714844 C178.641719,38.7871045 178.861443,38.0029326 179.300898,37.4189453 C179.740354,36.834958 180.337027,36.5429688 181.090937,36.5429688 C181.946411,36.5429688 182.598748,36.880856 183.047969,37.5566406 L183.047969,34 L183.745234,34 L183.745234,43 L183.088984,43 L183.059687,42.15625 C182.610466,42.7968782 181.950317,43.1171875 181.079219,43.1171875 C180.348746,43.1171875 179.759885,42.8232451 179.312617,42.2353516 C178.865349,41.647458 178.641719,40.8535206 178.641719,39.8535156 L178.641719,39.7714844 Z M179.350703,39.8945312 C179.350703,40.703129 179.512811,41.340818 179.837031,41.8076172 C180.161252,42.2744164 180.618278,42.5078125 181.208125,42.5078125 C182.071411,42.5078125 182.684686,42.1269569 183.047969,41.3652344 L183.047969,38.3886719 C182.684686,37.564449 182.075317,37.1523438 181.219844,37.1523438 C180.629997,37.1523438 180.171017,37.3837867 179.842891,37.8466797 C179.514764,38.3095726 179.350703,38.992183 179.350703,39.8945312 L179.350703,39.8945312 Z M193.646016,39.7714844 C193.646016,38.7871045 193.86574,38.0029326 194.305195,37.4189453 C194.744651,36.834958 195.341324,36.5429688 196.095234,36.5429688 C196.950707,36.5429688 197.603045,36.880856 198.052266,37.5566406 L198.052266,34 L198.749531,34 L198.749531,43 L198.093281,43 L198.063984,42.15625 C197.614763,42.7968782 196.954614,43.1171875 196.083516,43.1171875 C195.353043,43.1171875 194.764182,42.8232451 194.316914,42.2353516 C193.869646,41.647458 193.646016,40.8535206 193.646016,39.8535156 L193.646016,39.7714844 Z M194.355,39.8945312 C194.355,40.703129 194.517108,41.340818 194.841328,41.8076172 C195.165549,42.2744164 195.622575,42.5078125 196.212422,42.5078125 C197.075707,42.5078125 197.688983,42.1269569 198.052266,41.3652344 L198.052266,38.3886719 C197.688983,37.564449 197.079614,37.1523438 196.224141,37.1523438 C195.634294,37.1523438 195.175314,37.3837867 194.847188,37.8466797 C194.519061,38.3095726 194.355,38.992183 194.355,39.8945312 L194.355,39.8945312 Z M201.468516,39.7363281 C201.468516,39.1269501 201.586679,38.5781274 201.823008,38.0898438 C202.059337,37.6015601 202.393318,37.221681 202.824961,36.9501953 C203.256604,36.6787096 203.745857,36.5429688 204.292734,36.5429688 C205.136489,36.5429688 205.820076,36.8388642 206.343516,37.4306641 C206.866956,38.0224639 207.128672,38.8066357 207.128672,39.7832031 L207.128672,39.9296875 C207.128672,40.5429718 207.010509,41.0947241 206.77418,41.5849609 C206.53785,42.0751978 206.204846,42.4531237 205.775156,42.71875 C205.345467,42.9843763 204.855237,43.1171875 204.304453,43.1171875 C203.464605,43.1171875 202.781995,42.821292 202.256602,42.2294922 C201.731208,41.6376924 201.468516,40.8535205 201.468516,39.8769531 L201.468516,39.7363281 Z M202.171641,39.9296875 C202.171641,40.6875038 202.367928,41.3095679 202.760508,41.7958984 C203.153088,42.282229 203.667731,42.5253906 204.304453,42.5253906 C204.937269,42.5253906 205.449959,42.282229 205.842539,41.7958984 C206.235119,41.3095679 206.431406,40.6679727 206.431406,39.8710938 L206.431406,39.7363281 C206.431406,39.2519507 206.341563,38.8085958 206.161875,38.40625 C205.982187,38.0039042 205.730236,37.6923839 205.406016,37.4716797 C205.081795,37.2509755 204.710705,37.140625 204.292734,37.140625 C203.667731,37.140625 203.157971,37.3857397 202.763438,37.8759766 C202.368904,38.3662134 202.171641,39.0078085 202.171641,39.8007812 L202.171641,39.9296875 Z M4.91601562,59 C4.84570277,58.8007803 4.80078135,58.5058613 4.78125,58.1152344 C4.53515502,58.4355485 4.22168159,58.6826163 3.84082031,58.8564453 C3.45995903,59.0302743 3.05664275,59.1171875 2.63085938,59.1171875 C2.02148133,59.1171875 1.5283222,58.9472673 1.15136719,58.6074219 C0.774412178,58.2675764 0.5859375,57.8378932 0.5859375,57.3183594 C0.5859375,56.7011688 0.842770869,56.2128924 1.35644531,55.8535156 C1.87011976,55.4941388 2.58593291,55.3144531 3.50390625,55.3144531 L4.77539062,55.3144531 L4.77539062,54.59375 C4.77539062,54.1406227 4.63574358,53.784181 4.35644531,53.5244141 C4.07714704,53.2646471 3.66992455,53.1347656 3.13476562,53.1347656 C2.64648193,53.1347656 2.2421891,53.2597644 1.921875,53.5097656 C1.6015609,53.7597669 1.44140625,54.0605451 1.44140625,54.4121094 L0.73828125,54.40625 C0.73828125,53.9023412 0.972653906,53.4658222 1.44140625,53.0966797 C1.91015859,52.7275372 2.48632471,52.5429688 3.16992188,52.5429688 C3.87695666,52.5429688 4.43456827,52.7197248 4.84277344,53.0732422 C5.2509786,53.4267596 5.46093744,53.9199187 5.47265625,54.5527344 L5.47265625,57.5527344 C5.47265625,58.1660187 5.53710873,58.6249985 5.66601562,58.9296875 L5.66601562,59 L4.91601562,59 Z M2.71289062,58.4960938 C3.18164297,58.4960938 3.60058409,58.3828136 3.96972656,58.15625 C4.33886903,57.9296864 4.60742104,57.626955 4.77539062,57.2480469 L4.77539062,55.8535156 L3.52148438,55.8535156 C2.82226213,55.8613282 2.2753926,55.9892566 1.88085938,56.2373047 C1.48632615,56.4853528 1.2890625,56.8261697 1.2890625,57.2597656 C1.2890625,57.6152362 1.42089712,57.9101551 1.68457031,58.1445312 C1.94824351,58.3789074 2.29101352,58.4960938 2.71289062,58.4960938 L2.71289062,58.4960938 Z M9.26976562,52.6601562 L9.29320312,53.7441406 C9.53148556,53.3535137 9.82835759,53.0556651 10.1838281,52.8505859 C10.5392986,52.6455068 10.9318728,52.5429688 11.3615625,52.5429688 C12.0412534,52.5429688 12.5471077,52.7343731 12.8791406,53.1171875 C13.2111735,53.5000019 13.3791406,54.0742149 13.3830469,54.8398438 L13.3830469,59 L12.6857812,59 L12.6857812,54.8339844 C12.681875,54.2675753 12.561759,53.8457045 12.3254297,53.5683594 C12.0891004,53.2910142 11.7111745,53.1523438 11.1916406,53.1523438 C10.7580447,53.1523438 10.3742595,53.2880846 10.0402734,53.5595703 C9.70628738,53.831056 9.45921954,54.1972633 9.29906249,54.6582031 L9.29906249,59 L8.60179687,59 L8.60179687,52.6601562 L9.26976562,52.6601562 Z M16.066875,55.7363281 C16.066875,55.1269501 16.1850379,54.5781274 16.4213672,54.0898438 C16.6576965,53.6015601 16.9916775,53.221681 17.4233203,52.9501953 C17.8549631,52.6787096 18.344216,52.5429688 18.8910937,52.5429688 C19.7348479,52.5429688 20.4184349,52.8388642 20.941875,53.4306641 C21.4653151,54.0224639 21.7270312,54.8066357 21.7270312,55.7832031 L21.7270312,55.9296875 C21.7270312,56.5429718 21.6088684,57.0947241 21.372539,57.5849609 C21.1362097,58.0751978 20.8032053,58.4531237 20.3735156,58.71875 C19.943826,58.9843763 19.4535965,59.1171875 18.9028125,59.1171875 C18.0629645,59.1171875 17.3803542,58.821292 16.8549609,58.2294922 C16.3295677,57.6376924 16.066875,56.8535205 16.066875,55.8769531 L16.066875,55.7363281 Z M16.77,55.9296875 C16.77,56.6875038 16.9662871,57.3095679 17.3588672,57.7958984 C17.7514473,58.282229 18.2660905,58.5253906 18.9028125,58.5253906 C19.5356281,58.5253906 20.0483183,58.282229 20.4408984,57.7958984 C20.8334785,57.3095679 21.0297656,56.6679727 21.0297656,55.8710938 L21.0297656,55.7363281 C21.0297656,55.2519507 20.9399228,54.8085958 20.7602344,54.40625 C20.580546,54.0039042 20.3285954,53.6923839 20.004375,53.4716797 C19.6801546,53.2509755 19.3090646,53.140625 18.8910937,53.140625 C18.2660906,53.140625 17.7563301,53.3857397 17.3617969,53.8759766 C16.9672636,54.3662134 16.77,55.0078085 16.77,55.8007812 L16.77,55.9296875 Z M25.5241406,51.0371094 L25.5241406,52.6601562 L26.8366406,52.6601562 L26.8366406,53.234375 L25.5241406,53.234375 L25.5241406,57.4589844 C25.5241406,57.8105486 25.5876165,58.0722648 25.7145703,58.2441406 C25.841524,58.4160165 26.053436,58.5019531 26.3503125,58.5019531 C26.4675006,58.5019531 26.6569518,58.4824221 26.9186718,58.4433594 L26.9479687,59.0175781 C26.7643741,59.0839847 26.5143766,59.1171875 26.1979687,59.1171875 C25.7174976,59.1171875 25.3678917,58.9775405 25.1491406,58.6982422 C24.9303895,58.4189439 24.8210156,58.0078152 24.8210156,57.4648438 L24.8210156,53.234375 L23.655,53.234375 L23.655,52.6601562 L24.8210156,52.6601562 L24.8210156,51.0371094 L25.5241406,51.0371094 Z M30.2470312,53.7324219 C30.4775011,53.3535137 30.77242,53.0605479 31.1317968,52.8535156 C31.4911736,52.6464833 31.8837478,52.5429688 32.3095312,52.5429688 C32.9892221,52.5429688 33.4950764,52.7343731 33.8271093,53.1171875 C34.1591422,53.5000019 34.3271093,54.0742149 34.3310156,54.8398438 L34.3310156,59 L33.63375,59 L33.63375,54.8339844 C33.6298437,54.2675753 33.5097277,53.8457045 33.2733984,53.5683594 C33.0370691,53.2910142 32.6591432,53.1523438 32.1396093,53.1523438 C31.7060134,53.1523438 31.3222282,53.2880846 30.9882421,53.5595703 C30.6542561,53.831056 30.4071883,54.1972633 30.2470312,54.6582031 L30.2470312,59 L29.5497656,59 L29.5497656,50 L30.2470312,50 L30.2470312,53.7324219 Z M39.8507812,59.1171875 C39.311716,59.1171875 38.8244162,58.9843763 38.3888671,58.71875 C37.9533181,58.4531237 37.6144543,58.0830102 37.3722656,57.6083984 C37.1300769,57.1337867 37.0089843,56.6015654 37.0089843,56.0117188 L37.0089843,55.7597656 C37.0089843,55.1503876 37.1271472,54.6015649 37.3634765,54.1132812 C37.5998058,53.6249976 37.9289041,53.2412123 38.3507812,52.9619141 C38.7726583,52.6826158 39.229685,52.5429688 39.721875,52.5429688 C40.49141,52.5429688 41.1017555,52.8056614 41.5529296,53.3310547 C42.0041038,53.8564479 42.2296875,54.5742142 42.2296875,55.484375 L42.2296875,55.8769531 L37.70625,55.8769531 L37.70625,56.0117188 C37.70625,56.7304723 37.9123026,57.3290992 38.324414,57.8076172 C38.7365255,58.2861352 39.255075,58.5253906 39.8800781,58.5253906 C40.25508,58.5253906 40.5861313,58.4570319 40.8732421,58.3203125 C41.160353,58.1835931 41.4210925,57.9648453 41.6554687,57.6640625 L42.0949218,57.9980469 C41.5792942,58.7441444 40.8312549,59.1171875 39.8507812,59.1171875 L39.8507812,59.1171875 Z M39.721875,53.140625 C39.1945286,53.140625 38.7501971,53.3339824 38.3888671,53.7207031 C38.0275372,54.1074238 37.8078128,54.6269499 37.7296875,55.2792969 L41.5324218,55.2792969 L41.5324218,55.203125 C41.5128905,54.593747 41.3390641,54.0976582 41.0109375,53.7148438 C40.6828108,53.3320293 40.2531276,53.140625 39.721875,53.140625 L39.721875,53.140625 Z M47.7846093,53.2578125 C47.6361711,53.2304686 47.4779695,53.2167969 47.3099999,53.2167969 C46.8724978,53.2167969 46.5023843,53.338866 46.1996484,53.5830078 C45.8969125,53.8271497 45.6810943,54.1816383 45.5521874,54.6464844 L45.5521874,59 L44.8549218,59 L44.8549218,52.6601562 L45.5404687,52.6601562 L45.5521874,53.6679688 C45.923283,52.917965 46.5189802,52.5429688 47.3392968,52.5429688 C47.5346103,52.5429688 47.6889056,52.5683591 47.8021874,52.6191406 L47.7846093,53.2578125 Z M60.709043,53.2578125 C60.5606047,53.2304686 60.4024032,53.2167969 60.2344336,53.2167969 C59.7969314,53.2167969 59.4268179,53.338866 59.124082,53.5830078 C58.8213461,53.8271497 58.605528,54.1816383 58.4766211,54.6464844 L58.4766211,59 L57.7793555,59 L57.7793555,52.6601562 L58.4649023,52.6601562 L58.4766211,53.6679688 C58.8477167,52.917965 59.4434139,52.5429688 60.2637305,52.5429688 C60.4590439,52.5429688 60.6133393,52.5683591 60.7266211,52.6191406 L60.709043,53.2578125 Z M62.5725586,55.7363281 C62.5725586,55.1269501 62.6907215,54.5781274 62.9270508,54.0898438 C63.1633801,53.6015601 63.4973611,53.221681 63.9290039,52.9501953 C64.3606467,52.6787096 64.8498996,52.5429688 65.3967773,52.5429688 C66.2405316,52.5429688 66.9241185,52.8388642 67.4475586,53.4306641 C67.9709987,54.0224639 68.2327148,54.8066357 68.2327148,55.7832031 L68.2327148,55.9296875 C68.2327148,56.5429718 68.114552,57.0947241 67.8782226,57.5849609 C67.6418933,58.0751978 67.3088889,58.4531237 66.8791992,58.71875 C66.4495096,58.9843763 65.9592801,59.1171875 65.4084961,59.1171875 C64.5686481,59.1171875 63.8860378,58.821292 63.3606445,58.2294922 C62.8352513,57.6376924 62.5725586,56.8535205 62.5725586,55.8769531 L62.5725586,55.7363281 Z M63.2756836,55.9296875 C63.2756836,56.6875038 63.4719707,57.3095679 63.8645508,57.7958984 C64.2571309,58.282229 64.7717741,58.5253906 65.4084961,58.5253906 C66.0413117,58.5253906 66.5540019,58.282229 66.946582,57.7958984 C67.3391621,57.3095679 67.5354492,56.6679727 67.5354492,55.8710938 L67.5354492,55.7363281 C67.5354492,55.2519507 67.4456064,54.8085958 67.265918,54.40625 C67.0862296,54.0039042 66.834279,53.6923839 66.5100586,53.4716797 C66.1858382,53.2509755 65.8147482,53.140625 65.3967773,53.140625 C64.7717742,53.140625 64.2620137,53.3857397 63.8674805,53.8759766 C63.4729472,54.3662134 63.2756836,55.0078085 63.2756836,55.8007812 L63.2756836,55.9296875 Z M73.2837304,58.5253906 C73.7720141,58.5253906 74.1811897,58.3876967 74.5112695,58.1123047 C74.8413493,57.8369127 75.0200584,57.4804709 75.0474023,57.0429688 L75.7212304,57.0429688 C75.7016991,57.4296894 75.5806066,57.782225 75.3579492,58.1005859 C75.1352918,58.4189469 74.8393964,58.6679679 74.4702539,58.8476562 C74.1011114,59.0273446 73.7056076,59.1171875 73.2837304,59.1171875 C72.451695,59.1171875 71.7925219,58.8281279 71.3061914,58.25 C70.8198608,57.6718721 70.5766992,56.8945361 70.5766992,55.9179688 L70.5766992,55.7070312 C70.5766992,55.0820281 70.6860731,54.5292993 70.9048242,54.0488281 C71.1235753,53.568357 71.4370487,53.1972669 71.8452539,52.9355469 C72.2534591,52.6738268 72.7309933,52.5429688 73.2778711,52.5429688 C73.973187,52.5429688 74.5464235,52.7499979 74.9975976,53.1640625 C75.4487718,53.5781271 75.6899803,54.1230435 75.7212304,54.7988281 L75.0474023,54.7988281 C75.0161522,54.3027319 74.837443,53.9023453 74.5112695,53.5976562 C74.185096,53.2929672 73.7739673,53.140625 73.2778711,53.140625 C72.6450554,53.140625 72.1538494,53.3691383 71.8042383,53.8261719 C71.4546271,54.2832054 71.2798242,54.923824 71.2798242,55.7480469 L71.2798242,55.953125 C71.2798242,56.7617228 71.4546271,57.3925759 71.8042383,57.8457031 C72.1538494,58.2988304 72.6470085,58.5253906 73.2837304,58.5253906 L73.2837304,58.5253906 Z M79.8874804,55.8066406 L79.0847461,56.5800781 L79.0847461,59 L78.3816211,59 L78.3816211,50 L79.0847461,50 L79.0847461,55.7597656 L79.7468554,55.0449219 L82.1726367,52.6601562 L83.0574023,52.6601562 L80.3679492,55.3320312 L83.2917773,59 L82.4538867,59 L79.8874804,55.8066406 Z M95.4896485,58.5253906 C95.9779322,58.5253906 96.3871077,58.3876967 96.7171875,58.1123047 C97.0472673,57.8369127 97.2259764,57.4804709 97.2533203,57.0429688 L97.9271485,57.0429688 C97.9076171,57.4296894 97.7865246,57.782225 97.5638672,58.1005859 C97.3412098,58.4189469 97.0453144,58.6679679 96.6761719,58.8476562 C96.3070294,59.0273446 95.9115256,59.1171875 95.4896485,59.1171875 C94.6576131,59.1171875 93.99844,58.8281279 93.5121094,58.25 C93.0257788,57.6718721 92.7826172,56.8945361 92.7826172,55.9179688 L92.7826172,55.7070312 C92.7826172,55.0820281 92.8919911,54.5292993 93.1107422,54.0488281 C93.3294933,53.568357 93.6429667,53.1972669 94.0511719,52.9355469 C94.4593771,52.6738268 94.9369114,52.5429688 95.4837891,52.5429688 C96.1791051,52.5429688 96.7523415,52.7499979 97.2035156,53.1640625 C97.6546898,53.5781271 97.8958983,54.1230435 97.9271485,54.7988281 L97.2533203,54.7988281 C97.2220702,54.3027319 97.043361,53.9023453 96.7171875,53.5976562 C96.391014,53.2929672 95.9798853,53.140625 95.4837891,53.140625 C94.8509734,53.140625 94.3597674,53.3691383 94.0101563,53.8261719 C93.6605452,54.2832054 93.4857422,54.923824 93.4857422,55.7480469 L93.4857422,55.953125 C93.4857422,56.7617228 93.6605452,57.3925759 94.0101563,57.8457031 C94.3597674,58.2988304 94.8529265,58.5253906 95.4896485,58.5253906 L95.4896485,58.5253906 Z M101.372695,59 L100.66957,59 L100.66957,50 L101.372695,50 L101.372695,59 Z M105.322148,59 L104.619023,59 L104.619023,52.6601562 L105.322148,52.6601562 L105.322148,59 Z M104.495977,50.8261719 C104.495977,50.6933587 104.538945,50.5810551 104.624883,50.4892578 C104.710821,50.3974605 104.828007,50.3515625 104.976445,50.3515625 C105.124884,50.3515625 105.243046,50.3974605 105.330938,50.4892578 C105.418829,50.5810551 105.462773,50.6933587 105.462773,50.8261719 C105.462773,50.958985 105.418829,51.0703121 105.330938,51.1601562 C105.243046,51.2500004 105.124884,51.2949219 104.976445,51.2949219 C104.828007,51.2949219 104.710821,51.2500004 104.624883,51.1601562 C104.538945,51.0703121 104.495977,50.958985 104.495977,50.8261719 L104.495977,50.8261719 Z M109.125117,52.6601562 L109.148555,53.6914062 C109.382931,53.3085918 109.675897,53.0214853 110.027461,52.8300781 C110.379025,52.6386709 110.769646,52.5429688 111.199336,52.5429688 C112.199341,52.5429688 112.8341,52.9531209 113.103633,53.7734375 C113.330196,53.3789043 113.632928,53.0751964 114.011836,52.8623047 C114.390744,52.649413 114.808709,52.5429688 115.265742,52.5429688 C116.625124,52.5429688 117.318476,53.2851488 117.34582,54.7695312 L117.34582,59 L116.642695,59 L116.642695,54.8222656 C116.638789,54.2558565 116.51672,53.8359389 116.276484,53.5625 C116.036249,53.2890611 115.644651,53.1523438 115.10168,53.1523438 C114.597771,53.1601563 114.171994,53.3232406 113.824336,53.6416016 C113.476678,53.9599625 113.283321,54.347654 113.244258,54.8046875 L113.244258,59 L112.541133,59 L112.541133,54.7695312 C112.537227,54.2265598 112.409298,53.8212904 112.157344,53.5537109 C111.905389,53.2861315 111.517698,53.1523438 110.994258,53.1523438 C110.552849,53.1523438 110.173947,53.2783191 109.857539,53.5302734 C109.541131,53.7822278 109.306759,54.1562475 109.154414,54.6523438 L109.154414,59 L108.451289,59 L108.451289,52.6601562 L109.125117,52.6601562 Z M125.484727,55.8945312 C125.484727,56.8828174 125.265979,57.6669893 124.828477,58.2470703 C124.390974,58.8271513 123.80309,59.1171875 123.064805,59.1171875 C122.181988,59.1171875 121.514026,58.7890658 121.060898,58.1328125 L121.031602,59 L120.375352,59 L120.375352,50 L121.072617,50 L121.072617,53.5800781 C121.517932,52.8886684 122.178082,52.5429688 123.053086,52.5429688 C123.80309,52.5429688 124.395857,52.8290987 124.831406,53.4013672 C125.266955,53.9736357 125.484727,54.7695262 125.484727,55.7890625 L125.484727,55.8945312 Z M124.781602,55.7714844 C124.781602,54.9355427 124.619494,54.2900413 124.295273,53.8349609 C123.971053,53.3798805 123.514026,53.1523438 122.92418,53.1523438 C122.474959,53.1523438 122.094103,53.2626942 121.781602,53.4833984 C121.4691,53.7041027 121.232774,54.0273416 121.072617,54.453125 L121.072617,57.3125 C121.424181,58.109379 122.045269,58.5078125 122.935898,58.5078125 C123.514026,58.5078125 123.96617,58.2792992 124.292344,57.8222656 C124.618517,57.3652321 124.781602,56.6816452 124.781602,55.7714844 L124.781602,55.7714844 Z M129.076758,59 L128.373633,59 L128.373633,52.6601562 L129.076758,52.6601562 L129.076758,59 Z M128.250586,50.8261719 C128.250586,50.6933587 128.293554,50.5810551 128.379492,50.4892578 C128.46543,50.3974605 128.582616,50.3515625 128.731055,50.3515625 C128.879493,50.3515625 128.997656,50.3974605 129.085547,50.4892578 C129.173438,50.5810551 129.217383,50.6933587 129.217383,50.8261719 C129.217383,50.958985 129.173438,51.0703121 129.085547,51.1601562 C128.997656,51.2500004 128.879493,51.2949219 128.731055,51.2949219 C128.582616,51.2949219 128.46543,51.2500004 128.379492,51.1601562 C128.293554,51.0703121 128.250586,50.958985 128.250586,50.8261719 L128.250586,50.8261719 Z M132.909023,52.6601562 L132.932461,53.7441406 C133.170743,53.3535137 133.467615,53.0556651 133.823086,52.8505859 C134.178556,52.6455068 134.571131,52.5429688 135.00082,52.5429688 C135.680511,52.5429688 136.186365,52.7343731 136.518398,53.1171875 C136.850431,53.5000019 137.018398,54.0742149 137.022305,54.8398438 L137.022305,59 L136.325039,59 L136.325039,54.8339844 C136.321133,54.2675753 136.201017,53.8457045 135.964687,53.5683594 C135.728358,53.2910142 135.350432,53.1523438 134.830898,53.1523438 C134.397302,53.1523438 134.013517,53.2880846 133.679531,53.5595703 C133.345545,53.831056 133.098477,54.1972633 132.93832,54.6582031 L132.93832,59 L132.241055,59 L132.241055,52.6601562 L132.909023,52.6601562 Z M139.811602,55.7714844 C139.811602,54.7792919 140.031326,53.993167 140.470781,53.4130859 C140.910237,52.8330049 141.50691,52.5429688 142.26082,52.5429688 C143.124106,52.5429688 143.780349,52.8867153 144.22957,53.5742188 L144.264727,52.6601562 L144.920977,52.6601562 L144.920977,58.8710938 C144.920977,59.6875041 144.692463,60.333982 144.23543,60.8105469 C143.778396,61.2871118 143.159262,61.5253906 142.378008,61.5253906 C141.936599,61.5253906 141.515705,61.4267588 141.115312,61.2294922 C140.71492,61.0322256 140.399493,60.7695329 140.169023,60.4414062 L140.561602,60.0195312 C141.057698,60.6289093 141.647536,60.9335938 142.331133,60.9335938 C142.917073,60.9335938 143.3741,60.7607439 143.702227,60.4150391 C144.030353,60.0693342 144.200273,59.5898468 144.211992,58.9765625 L144.211992,58.1796875 C143.762771,58.8046906 143.108481,59.1171875 142.249102,59.1171875 C141.514723,59.1171875 140.924885,58.8242217 140.47957,58.2382812 C140.034256,57.6523408 139.811602,56.8613331 139.811602,55.8652344 L139.811602,55.7714844 Z M140.520586,55.8945312 C140.520586,56.703129 140.682694,57.340818 141.006914,57.8076172 C141.331134,58.2744164 141.788161,58.5078125 142.378008,58.5078125 C143.241293,58.5078125 143.852615,58.1210976 144.211992,57.3476562 L144.211992,54.4003906 C144.047929,53.9941386 143.811603,53.6845714 143.503008,53.4716797 C143.194412,53.258788 142.823322,53.1523438 142.389727,53.1523438 C141.79988,53.1523438 141.3409,53.3837867 141.012773,53.8466797 C140.684647,54.3095726 140.520586,54.992183 140.520586,55.8945312 L140.520586,55.8945312 Z M156.72627,51.0371094 L156.72627,52.6601562 L158.03877,52.6601562 L158.03877,53.234375 L156.72627,53.234375 L156.72627,57.4589844 C156.72627,57.8105486 156.789745,58.0722648 156.916699,58.2441406 C157.043653,58.4160165 157.255565,58.5019531 157.552441,58.5019531 C157.66963,58.5019531 157.859081,58.4824221 158.120801,58.4433594 L158.150098,59.0175781 C157.966503,59.0839847 157.716506,59.1171875 157.400098,59.1171875 C156.919627,59.1171875 156.570021,58.9775405 156.35127,58.6982422 C156.132518,58.4189439 156.023145,58.0078152 156.023145,57.4648438 L156.023145,53.234375 L154.857129,53.234375 L154.857129,52.6601562 L156.023145,52.6601562 L156.023145,51.0371094 L156.72627,51.0371094 Z M163.681582,53.2578125 C163.533144,53.2304686 163.374942,53.2167969 163.206973,53.2167969 C162.76947,53.2167969 162.399357,53.338866 162.096621,53.5830078 C161.793885,53.8271497 161.578067,54.1816383 161.44916,54.6464844 L161.44916,59 L160.751895,59 L160.751895,52.6601562 L161.437441,52.6601562 L161.44916,53.6679688 C161.820256,52.917965 162.415953,52.5429688 163.23627,52.5429688 C163.431583,52.5429688 163.585878,52.5683591 163.69916,52.6191406 L163.681582,53.2578125 Z M166.83416,59 L166.131035,59 L166.131035,52.6601562 L166.83416,52.6601562 L166.83416,59 Z M166.007988,50.8261719 C166.007988,50.6933587 166.050957,50.5810551 166.136895,50.4892578 C166.222832,50.3974605 166.340019,50.3515625 166.488457,50.3515625 C166.636895,50.3515625 166.755058,50.3974605 166.842949,50.4892578 C166.93084,50.5810551 166.974785,50.6933587 166.974785,50.8261719 C166.974785,50.958985 166.93084,51.0703121 166.842949,51.1601562 C166.755058,51.2500004 166.636895,51.2949219 166.488457,51.2949219 C166.340019,51.2949219 166.222832,51.2500004 166.136895,51.1601562 C166.050957,51.0703121 166.007988,50.958985 166.007988,50.8261719 L166.007988,50.8261719 Z M175.096113,55.8945312 C175.096113,56.8828174 174.877365,57.6669893 174.439863,58.2470703 C174.002361,58.8271513 173.416429,59.1171875 172.682051,59.1171875 C171.814859,59.1171875 171.150803,58.812503 170.689863,58.203125 L170.689863,61.4375 L169.992598,61.4375 L169.992598,52.6601562 L170.642988,52.6601562 L170.678145,53.5566406 C171.135178,52.880856 171.797281,52.5429688 172.664473,52.5429688 C173.422289,52.5429688 174.01701,52.8300753 174.448652,53.4042969 C174.880295,53.9785185 175.096113,54.7753855 175.096113,55.7949219 L175.096113,55.8945312 Z M174.392988,55.7714844 C174.392988,54.9628866 174.226974,54.3242211 173.894941,53.8554688 C173.562908,53.3867164 173.100022,53.1523438 172.50627,53.1523438 C172.07658,53.1523438 171.707443,53.2558583 171.398848,53.4628906 C171.090252,53.6699229 170.853927,53.9707012 170.689863,54.3652344 L170.689863,57.40625 C170.857833,57.7695331 171.098065,58.046874 171.410566,58.2382812 C171.723068,58.4296885 172.092205,58.5253906 172.517988,58.5253906 C173.107835,58.5253906 173.567791,58.2900414 173.897871,57.8193359 C174.227951,57.3486305 174.392988,56.6660201 174.392988,55.7714844 L174.392988,55.7714844 Z M186.292031,52.6601562 L186.292031,59.7558594 C186.292031,60.3417998 186.151408,60.789061 185.870156,61.0976562 C185.588905,61.4062515 185.174847,61.5605469 184.627969,61.5605469 C184.41703,61.5605469 184.211954,61.5234379 184.012734,61.4492188 L184.024453,60.8691406 C184.196329,60.9199221 184.372109,60.9453125 184.551797,60.9453125 C185.247113,60.9453125 185.594766,60.5449259 185.594766,59.7441406 L185.594766,52.6601562 L186.292031,52.6601562 Z M185.946328,50.3515625 C186.098673,50.3515625 186.217812,50.3974605 186.30375,50.4892578 C186.389688,50.5810551 186.432656,50.6933587 186.432656,50.8261719 C186.432656,50.958985 186.389688,51.0703121 186.30375,51.1601562 C186.217812,51.2500004 186.098673,51.2949219 185.946328,51.2949219 C185.79789,51.2949219 185.68168,51.2500004 185.597695,51.1601562 C185.513711,51.0703121 185.471719,50.958985 185.471719,50.8261719 C185.471719,50.6933587 185.513711,50.5810551 185.597695,50.4892578 C185.68168,50.3974605 185.79789,50.3515625 185.946328,50.3515625 L185.946328,50.3515625 Z M193.610625,58.1972656 C193.188748,58.8105499 192.514927,59.1171875 191.589141,59.1171875 C190.913356,59.1171875 190.399689,58.9209004 190.048125,58.5283203 C189.696561,58.1357402 189.516875,57.5546913 189.509063,56.7851562 L189.509063,52.6601562 L190.206328,52.6601562 L190.206328,56.6972656 C190.206328,57.9043029 190.694605,58.5078125 191.671172,58.5078125 C192.686802,58.5078125 193.329374,58.0878948 193.598906,57.2480469 L193.598906,52.6601562 L194.302031,52.6601562 L194.302031,59 L193.622344,59 L193.610625,58.1972656 Z M201.181172,57.3886719 C201.181172,57.0410139 201.041525,56.7617198 200.762227,56.5507812 C200.482928,56.3398427 200.062034,56.1748053 199.499531,56.0556641 C198.937028,55.9365228 198.500509,55.7998055 198.189961,55.6455078 C197.879413,55.4912102 197.648946,55.3027355 197.498555,55.0800781 C197.348163,54.8574208 197.272969,54.5878922 197.272969,54.2714844 C197.272969,53.7714819 197.481951,53.3584001 197.899922,53.0322266 C198.317893,52.7060531 198.853044,52.5429688 199.505391,52.5429688 C200.212425,52.5429688 200.779803,52.7177717 201.207539,53.0673828 C201.635276,53.4169939 201.849141,53.8730441 201.849141,54.4355469 L201.146016,54.4355469 C201.146016,54.0644513 200.990744,53.7558606 200.680195,53.5097656 C200.369647,53.2636706 199.978049,53.140625 199.505391,53.140625 C199.044451,53.140625 198.674337,53.243163 198.395039,53.4482422 C198.115741,53.6533213 197.976094,53.9199202 197.976094,54.2480469 C197.976094,54.5644547 198.092304,54.8095694 198.324727,54.9833984 C198.55715,55.1572274 198.980974,55.3164055 199.596211,55.4609375 C200.211448,55.6054695 200.672381,55.7597648 200.979023,55.9238281 C201.285666,56.0878914 201.513202,56.2851551 201.661641,56.515625 C201.810079,56.7460949 201.884297,57.025389 201.884297,57.3535156 C201.884297,57.8886746 201.668479,58.3164046 201.236836,58.6367188 C200.805193,58.9570329 200.241722,59.1171875 199.546406,59.1171875 C198.808121,59.1171875 198.209495,58.9384783 197.750508,58.5810547 C197.291521,58.223631 197.062031,57.7714871 197.062031,57.2246094 L197.765156,57.2246094 C197.7925,57.6347677 197.96535,57.9541004 198.283711,58.1826172 C198.602072,58.411134 199.022966,58.5253906 199.546406,58.5253906 C200.03469,58.5253906 200.429217,58.4179698 200.73,58.203125 C201.030783,57.9882802 201.181172,57.7167985 201.181172,57.3886719 L201.181172,57.3886719 Z M205.810313,51.0371094 L205.810313,52.6601562 L207.122813,52.6601562 L207.122813,53.234375 L205.810313,53.234375 L205.810313,57.4589844 C205.810313,57.8105486 205.873788,58.0722648 206.000742,58.2441406 C206.127696,58.4160165 206.339608,58.5019531 206.636484,58.5019531 C206.753672,58.5019531 206.943124,58.4824221 207.204844,58.4433594 L207.234141,59.0175781 C207.050546,59.0839847 206.800548,59.1171875 206.484141,59.1171875 C206.003669,59.1171875 205.654064,58.9775405 205.435313,58.6982422 C205.216561,58.4189439 205.107188,58.0078152 205.107188,57.4648438 L205.107188,53.234375 L203.941172,53.234375 L203.941172,52.6601562 L205.107188,52.6601562 L205.107188,51.0371094 L205.810313,51.0371094 Z M1.69921875,75 L0.99609375,75 L0.99609375,68.6601562 L1.69921875,68.6601562 L1.69921875,75 Z M0.873046875,66.8261719 C0.873046875,66.6933587 0.916015195,66.5810551 1.00195312,66.4892578 C1.08789105,66.3974605 1.20507738,66.3515625 1.35351562,66.3515625 C1.50195387,66.3515625 1.62011675,66.3974605 1.70800781,66.4892578 C1.79589888,66.5810551 1.83984375,66.6933587 1.83984375,66.8261719 C1.83984375,66.958985 1.79589888,67.0703121 1.70800781,67.1601562 C1.62011675,67.2500004 1.50195387,67.2949219 1.35351562,67.2949219 C1.20507738,67.2949219 1.08789105,67.2500004 1.00195312,67.1601562 C0.916015195,67.0703121 0.873046875,66.958985 0.873046875,66.8261719 L0.873046875,66.8261719 Z M5.53148437,68.6601562 L5.55492187,69.7441406 C5.79320431,69.3535137 6.09007634,69.0556651 6.44554687,68.8505859 C6.80101739,68.6455068 7.19359159,68.5429688 7.62328124,68.5429688 C8.30297214,68.5429688 8.80882646,68.7343731 9.14085937,69.1171875 C9.47289228,69.5000019 9.64085935,70.0742149 9.64476562,70.8398438 L9.64476562,75 L8.94749999,75 L8.94749999,70.8339844 C8.94359372,70.2675753 8.82347773,69.8457045 8.58714843,69.5683594 C8.35081912,69.2910142 7.97289321,69.1523438 7.45335937,69.1523438 C7.01976345,69.1523438 6.63597822,69.2880846 6.30199218,69.5595703 C5.96800613,69.831056 5.72093829,70.1972633 5.56078124,70.6582031 L5.56078124,75 L4.86351562,75 L4.86351562,68.6601562 L5.53148437,68.6601562 Z M22.9342968,66.46875 L22.9342968,72.2929688 C22.9303906,72.8671904 22.8034387,73.3671854 22.5534375,73.7929688 C22.3034362,74.2187521 21.9509007,74.5458973 21.4958203,74.7744141 C21.0407399,75.0029308 20.5182842,75.1171875 19.9284375,75.1171875 C19.0299955,75.1171875 18.3102761,74.8720728 17.7692578,74.3818359 C17.2282395,73.8915991 16.9479688,73.212895 16.9284375,72.3457031 L16.9284375,66.46875 L17.6432812,66.46875 L17.6432812,72.2402344 C17.6432812,72.958988 17.8483573,73.5165996 18.2585156,73.9130859 C18.6686739,74.3095723 19.225309,74.5078125 19.9284375,74.5078125 C20.631566,74.5078125 21.1872245,74.3085957 21.5954297,73.9101562 C22.0036348,73.5117168 22.2077343,72.9570348 22.2077343,72.2460938 L22.2077343,66.46875 L22.9342968,66.46875 Z M27.1298437,67.0371094 L27.1298437,68.6601562 L28.4423437,68.6601562 L28.4423437,69.234375 L27.1298437,69.234375 L27.1298437,73.4589844 C27.1298437,73.8105486 27.1933196,74.0722648 27.3202734,74.2441406 C27.4472272,74.4160165 27.6591391,74.5019531 27.9560156,74.5019531 C28.0732037,74.5019531 28.2626549,74.4824221 28.524375,74.4433594 L28.5536718,75.0175781 C28.3700772,75.0839847 28.1200797,75.1171875 27.8036718,75.1171875 C27.3232007,75.1171875 26.9735948,74.9775405 26.7548437,74.6982422 C26.5360926,74.4189439 26.4267187,74.0078152 26.4267187,73.4648438 L26.4267187,69.234375 L25.2607031,69.234375 L25.2607031,68.6601562 L26.4267187,68.6601562 L26.4267187,67.0371094 L27.1298437,67.0371094 Z M35.1574218,75 C35.087109,74.8007803 35.0421875,74.5058613 35.0226562,74.1152344 C34.7765612,74.4355485 34.4630878,74.6826163 34.0822265,74.8564453 C33.7013652,75.0302743 33.298049,75.1171875 32.8722656,75.1171875 C32.2628875,75.1171875 31.7697284,74.9472673 31.3927734,74.6074219 C31.0158184,74.2675764 30.8273437,73.8378932 30.8273437,73.3183594 C30.8273437,72.7011688 31.0841771,72.2128924 31.5978515,71.8535156 C32.111526,71.4941388 32.8273391,71.3144531 33.7453125,71.3144531 L35.0167968,71.3144531 L35.0167968,70.59375 C35.0167968,70.1406227 34.8771498,69.784181 34.5978515,69.5244141 C34.3185532,69.2646471 33.9113308,69.1347656 33.3761718,69.1347656 C32.8878881,69.1347656 32.4835953,69.2597644 32.1632812,69.5097656 C31.8429671,69.7597669 31.6828125,70.0605451 31.6828125,70.4121094 L30.9796875,70.40625 C30.9796875,69.9023412 31.2140601,69.4658222 31.6828125,69.0966797 C32.1515648,68.7275372 32.7277309,68.5429688 33.4113281,68.5429688 C34.1183629,68.5429688 34.6759745,68.7197248 35.0841796,69.0732422 C35.4923848,69.4267596 35.7023436,69.9199187 35.7140625,70.5527344 L35.7140625,73.5527344 C35.7140625,74.1660187 35.7785149,74.6249985 35.9074218,74.9296875 L35.9074218,75 L35.1574218,75 Z M32.9542968,74.4960938 C33.4230492,74.4960938 33.8419903,74.3828136 34.2111328,74.15625 C34.5802752,73.9296864 34.8488272,73.626955 35.0167968,73.2480469 L35.0167968,71.8535156 L33.7628906,71.8535156 C33.0636683,71.8613282 32.5167988,71.9892566 32.1222656,72.2373047 C31.7277324,72.4853528 31.5304687,72.8261697 31.5304687,73.2597656 C31.5304687,73.6152362 31.6623033,73.9101551 31.9259765,74.1445312 C32.1896497,74.3789074 32.5324197,74.4960938 32.9542968,74.4960938 L32.9542968,74.4960938 Z M39.5404687,69.7324219 C39.7709386,69.3535137 40.0658575,69.0605479 40.4252343,68.8535156 C40.7846111,68.6464833 41.1771853,68.5429688 41.6029687,68.5429688 C42.2826596,68.5429688 42.7885139,68.7343731 43.1205468,69.1171875 C43.4525797,69.5000019 43.6205468,70.0742149 43.6244531,70.8398438 L43.6244531,75 L42.9271874,75 L42.9271874,70.8339844 C42.9232812,70.2675753 42.8031652,69.8457045 42.5668359,69.5683594 C42.3305066,69.2910142 41.9525807,69.1523438 41.4330468,69.1523438 C40.9994509,69.1523438 40.6156657,69.2880846 40.2816796,69.5595703 C39.9476936,69.831056 39.7006257,70.1972633 39.5404687,70.6582031 L39.5404687,75 L38.8432031,75 L38.8432031,66 L39.5404687,66 L39.5404687,69.7324219 Z M46.6246874,74.578125 C46.6246874,74.4414056 46.6686323,74.3251958 46.7565234,74.2294922 C46.8444144,74.1337886 46.9664835,74.0859375 47.1227343,74.0859375 C47.2789851,74.0859375 47.4020307,74.1337886 47.4918749,74.2294922 C47.5817191,74.3251958 47.6266406,74.4414056 47.6266406,74.578125 C47.6266406,74.7148444 47.5817191,74.827148 47.4918749,74.9150391 C47.4020307,75.0029301 47.2789851,75.046875 47.1227343,75.046875 C46.9664835,75.046875 46.8444144,75.0029301 46.7565234,74.9150391 C46.6686323,74.827148 46.6246874,74.7148444 46.6246874,74.578125 L46.6246874,74.578125 Z M59.9845312,72.9023438 C59.9845312,72.4296851 59.8185172,72.0556654 59.4864843,71.7802734 C59.1544514,71.5048814 58.5470356,71.2431653 57.6642187,70.9951172 C56.7814018,70.7470691 56.1368769,70.476564 55.7306249,70.1835938 C55.152497,69.7695292 54.8634374,69.2265659 54.8634374,68.5546875 C54.8634374,67.9023405 55.1319894,67.3720724 55.6691015,66.9638672 C56.2062135,66.555662 56.8927301,66.3515625 57.7286718,66.3515625 C58.2950809,66.3515625 58.8019117,66.4609364 59.2491796,66.6796875 C59.6964475,66.8984386 60.0431237,67.203123 60.2892187,67.59375 C60.5353136,67.984377 60.6583593,68.4199195 60.6583593,68.9003906 L59.9317968,68.9003906 C59.9317968,68.3183565 59.73258,67.8505877 59.3341405,67.4970703 C58.935701,67.1435529 58.4005501,66.9667969 57.7286718,66.9667969 C57.0763248,66.9667969 56.5567987,67.1123032 56.170078,67.4033203 C55.7833574,67.6943374 55.5899999,68.0742164 55.5899999,68.5429688 C55.5899999,68.9765647 55.7638263,69.3300768 56.1114843,69.6035156 C56.4591423,69.8769545 57.0157773,70.118163 57.7814062,70.3271484 C58.547035,70.5361339 59.1271073,70.7529286 59.5216405,70.9775391 C59.9161738,71.2021496 60.2130458,71.4707016 60.4122655,71.7832031 C60.6114853,72.0957047 60.7110937,72.4648416 60.7110937,72.890625 C60.7110937,73.5625034 60.4425417,74.1015605 59.9054296,74.5078125 C59.3683175,74.9140645 58.6603168,75.1171875 57.7814062,75.1171875 C57.1798407,75.1171875 56.6280884,75.0097667 56.1261327,74.7949219 C55.6241771,74.5800771 55.2433215,74.2792988 54.9835546,73.8925781 C54.7237877,73.5058574 54.5939062,73.0625025 54.5939062,72.5625 L55.3146093,72.5625 C55.3146093,73.1640655 55.5392164,73.6386701 55.9884374,73.9863281 C56.4376584,74.3339861 57.0353087,74.5078125 57.7814062,74.5078125 C58.445472,74.5078125 58.9786698,74.3613296 59.3810155,74.0683594 C59.7833613,73.7753892 59.9845312,73.3867212 59.9845312,72.9023438 L59.9845312,72.9023438 Z M62.9730468,71.7363281 C62.9730468,71.1269501 63.0912097,70.5781274 63.327539,70.0898438 C63.5638683,69.6015601 63.8978493,69.221681 64.3294921,68.9501953 C64.7611349,68.6787096 65.2503878,68.5429688 65.7972655,68.5429688 C66.6410197,68.5429688 67.3246067,68.8388642 67.8480468,69.4306641 C68.3714869,70.0224639 68.633203,70.8066357 68.633203,71.7832031 L68.633203,71.9296875 C68.633203,72.5429718 68.5150401,73.0947241 68.2787108,73.5849609 C68.0423815,74.0751978 67.7093771,74.4531237 67.2796874,74.71875 C66.8499978,74.9843763 66.3597683,75.1171875 65.8089843,75.1171875 C64.9691363,75.1171875 64.286526,74.821292 63.7611327,74.2294922 C63.2357395,73.6376924 62.9730468,72.8535205 62.9730468,71.8769531 L62.9730468,71.7363281 Z M63.6761718,71.9296875 C63.6761718,72.6875038 63.8724589,73.3095679 64.265039,73.7958984 C64.6576191,74.282229 65.1722623,74.5253906 65.8089843,74.5253906 C66.4417999,74.5253906 66.9544901,74.282229 67.3470702,73.7958984 C67.7396503,73.3095679 67.9359374,72.6679727 67.9359374,71.8710938 L67.9359374,71.7363281 C67.9359374,71.2519507 67.8460946,70.8085958 67.6664062,70.40625 C67.4867178,70.0039042 67.2347672,69.6923839 66.9105468,69.4716797 C66.5863264,69.2509755 66.2152364,69.140625 65.7972655,69.140625 C65.1722624,69.140625 64.6625019,69.3857397 64.2679687,69.8759766 C63.8734354,70.3662134 63.6761718,71.0078085 63.6761718,71.8007812 L63.6761718,71.9296875 Z M76.1571093,68.6601562 L76.1805468,69.6914062 C76.4149229,69.3085918 76.7078888,69.0214853 77.059453,68.8300781 C77.4110173,68.6386709 77.8016384,68.5429688 78.231328,68.5429688 C79.231333,68.5429688 79.8660923,68.9531209 80.1356249,69.7734375 C80.3621885,69.3789043 80.6649199,69.0751964 81.043828,68.8623047 C81.4227362,68.649413 81.8407007,68.5429688 82.2977343,68.5429688 C83.6571161,68.5429688 84.3504685,69.2851488 84.3778124,70.7695312 L84.3778124,75 L83.6746874,75 L83.6746874,70.8222656 C83.6707811,70.2558565 83.548712,69.8359389 83.3084764,69.5625 C83.0682409,69.2890611 82.6766432,69.1523438 82.1336718,69.1523438 C81.629763,69.1601563 81.203986,69.3232406 80.856328,69.6416016 C80.50867,69.9599625 80.3153126,70.347654 80.2762499,70.8046875 L80.2762499,75 L79.5731249,75 L79.5731249,70.7695312 C79.5692186,70.2265598 79.4412902,69.8212904 79.1893358,69.5537109 C78.9373814,69.2861315 78.54969,69.1523438 78.0262499,69.1523438 C77.5848414,69.1523438 77.205939,69.2783191 76.8895311,69.5302734 C76.5731233,69.7822278 76.3387506,70.1562475 76.1864061,70.6523438 L76.1864061,75 L75.4832811,75 L75.4832811,68.6601562 L76.1571093,68.6601562 Z M91.491328,74.1972656 C91.0694509,74.8105499 90.3956295,75.1171875 89.4698436,75.1171875 C88.794059,75.1171875 88.2803923,74.9209004 87.928828,74.5283203 C87.5772637,74.1357402 87.397578,73.5546913 87.3897655,72.7851562 L87.3897655,68.6601562 L88.0870311,68.6601562 L88.0870311,72.6972656 C88.0870311,73.9043029 88.5753075,74.5078125 89.5518749,74.5078125 C90.567505,74.5078125 91.2100767,74.0878948 91.4796093,73.2480469 L91.4796093,68.6601562 L92.1827343,68.6601562 L92.1827343,75 L91.5030468,75 L91.491328,74.1972656 Z M97.6087499,74.5253906 C98.0970336,74.5253906 98.5062092,74.3876967 98.8362889,74.1123047 C99.1663687,73.8369127 99.3450779,73.4804709 99.3724217,73.0429688 L100.04625,73.0429688 C100.026719,73.4296894 99.905626,73.782225 99.6829686,74.1005859 C99.4603113,74.4189469 99.1644158,74.6679679 98.7952733,74.8476562 C98.4261308,75.0273446 98.030627,75.1171875 97.6087499,75.1171875 C96.7767145,75.1171875 96.1175414,74.8281279 95.6312108,74.25 C95.1448802,73.6718721 94.9017186,72.8945361 94.9017186,71.9179688 L94.9017186,71.7070312 C94.9017186,71.0820281 95.0110925,70.5292993 95.2298436,70.0488281 C95.4485947,69.568357 95.7620681,69.1972669 96.1702733,68.9355469 C96.5784785,68.6738268 97.0560128,68.5429688 97.6028905,68.5429688 C98.2982065,68.5429688 98.8714429,68.7499979 99.3226171,69.1640625 C99.7737912,69.5781271 100.015,70.1230435 100.04625,70.7988281 L99.3724217,70.7988281 C99.3411716,70.3027319 99.1624624,69.9023453 98.8362889,69.5976562 C98.5101154,69.2929672 98.0989867,69.140625 97.6028905,69.140625 C96.9700748,69.140625 96.4788688,69.3691383 96.1292577,69.8261719 C95.7796466,70.2832054 95.6048436,70.923824 95.6048436,71.7480469 L95.6048436,71.953125 C95.6048436,72.7617228 95.7796466,73.3925759 96.1292577,73.8457031 C96.4788688,74.2988304 96.9720279,74.5253906 97.6087499,74.5253906 L97.6087499,74.5253906 Z M103.403906,69.7324219 C103.634376,69.3535137 103.929295,69.0605479 104.288672,68.8535156 C104.648049,68.6464833 105.040623,68.5429688 105.466406,68.5429688 C106.146097,68.5429688 106.651951,68.7343731 106.983984,69.1171875 C107.316017,69.5000019 107.483984,70.0742149 107.48789,70.8398438 L107.48789,75 L106.790625,75 L106.790625,70.8339844 C106.786719,70.2675753 106.666603,69.8457045 106.430273,69.5683594 C106.193944,69.2910142 105.816018,69.1523438 105.296484,69.1523438 C104.862888,69.1523438 104.479103,69.2880846 104.145117,69.5595703 C103.811131,69.831056 103.564063,70.1972633 103.403906,70.6582031 L103.403906,75 L102.70664,75 L102.70664,66 L103.403906,66 L103.403906,69.7324219 Z M115.82039,67.0371094 L115.82039,68.6601562 L117.13289,68.6601562 L117.13289,69.234375 L115.82039,69.234375 L115.82039,73.4589844 C115.82039,73.8105486 115.883866,74.0722648 116.01082,74.2441406 C116.137774,74.4160165 116.349686,74.5019531 116.646562,74.5019531 C116.76375,74.5019531 116.953202,74.4824221 117.214922,74.4433594 L117.244219,75.0175781 C117.060624,75.0839847 116.810626,75.1171875 116.494219,75.1171875 C116.013747,75.1171875 115.664142,74.9775405 115.44539,74.6982422 C115.226639,74.4189439 115.117265,74.0078152 115.117265,73.4648438 L115.117265,69.234375 L113.95125,69.234375 L113.95125,68.6601562 L115.117265,68.6601562 L115.117265,67.0371094 L115.82039,67.0371094 Z M119.342109,71.7363281 C119.342109,71.1269501 119.460272,70.5781274 119.696601,70.0898438 C119.932931,69.6015601 120.266912,69.221681 120.698555,68.9501953 C121.130197,68.6787096 121.61945,68.5429688 122.166328,68.5429688 C123.010082,68.5429688 123.693669,68.8388642 124.217109,69.4306641 C124.740549,70.0224639 125.002265,70.8066357 125.002265,71.7832031 L125.002265,71.9296875 C125.002265,72.5429718 124.884103,73.0947241 124.647773,73.5849609 C124.411444,74.0751978 124.078439,74.4531237 123.64875,74.71875 C123.21906,74.9843763 122.728831,75.1171875 122.178047,75.1171875 C121.338199,75.1171875 120.655588,74.821292 120.130195,74.2294922 C119.604802,73.6376924 119.342109,72.8535205 119.342109,71.8769531 L119.342109,71.7363281 Z M120.045234,71.9296875 C120.045234,72.6875038 120.241521,73.3095679 120.634101,73.7958984 C121.026681,74.282229 121.541325,74.5253906 122.178047,74.5253906 C122.810862,74.5253906 123.323553,74.282229 123.716133,73.7958984 C124.108713,73.3095679 124.305,72.6679727 124.305,71.8710938 L124.305,71.7363281 C124.305,71.2519507 124.215157,70.8085958 124.035469,70.40625 C123.85578,70.0039042 123.60383,69.6923839 123.279609,69.4716797 C122.955389,69.2509755 122.584299,69.140625 122.166328,69.140625 C121.541325,69.140625 121.031564,69.3857397 120.637031,69.8759766 C120.242498,70.3662134 120.045234,71.0078085 120.045234,71.8007812 L120.045234,71.9296875 Z M134.342578,75.1171875 C133.803513,75.1171875 133.316213,74.9843763 132.880664,74.71875 C132.445115,74.4531237 132.106251,74.0830102 131.864062,73.6083984 C131.621874,73.1337867 131.500781,72.6015654 131.500781,72.0117188 L131.500781,71.7597656 C131.500781,71.1503876 131.618944,70.6015649 131.855273,70.1132812 C132.091603,69.6249976 132.420701,69.2412123 132.842578,68.9619141 C133.264455,68.6826158 133.721482,68.5429688 134.213672,68.5429688 C134.983207,68.5429688 135.593552,68.8056614 136.044726,69.3310547 C136.495901,69.8564479 136.721484,70.5742142 136.721484,71.484375 L136.721484,71.8769531 L132.198047,71.8769531 L132.198047,72.0117188 C132.198047,72.7304723 132.404099,73.3290992 132.816211,73.8076172 C133.228322,74.2861352 133.746872,74.5253906 134.371875,74.5253906 C134.746877,74.5253906 135.077928,74.4570319 135.365039,74.3203125 C135.65215,74.1835931 135.912889,73.9648453 136.147265,73.6640625 L136.586719,73.9980469 C136.071091,74.7441444 135.323052,75.1171875 134.342578,75.1171875 L134.342578,75.1171875 Z M134.213672,69.140625 C133.686325,69.140625 133.241994,69.3339824 132.880664,69.7207031 C132.519334,70.1074238 132.29961,70.6269499 132.221484,71.2792969 L136.024219,71.2792969 L136.024219,71.203125 C136.004687,70.593747 135.830861,70.0976582 135.502734,69.7148438 C135.174608,69.3320293 134.744924,69.140625 134.213672,69.140625 L134.213672,69.140625 Z M141.338906,71.2324219 L143.049844,68.6601562 L143.881875,68.6601562 L141.731484,71.7714844 L143.975625,75 L143.149453,75 L141.344765,72.3164062 L139.540078,75 L138.713906,75 L140.952187,71.7714844 L138.801797,68.6601562 L139.627969,68.6601562 L141.338906,71.2324219 Z M151.540312,71.8945312 C151.540312,72.8828174 151.321564,73.6669893 150.884062,74.2470703 C150.44656,74.8271513 149.860628,75.1171875 149.12625,75.1171875 C148.259058,75.1171875 147.595002,74.812503 147.134062,74.203125 L147.134062,77.4375 L146.436797,77.4375 L146.436797,68.6601562 L147.087187,68.6601562 L147.122344,69.5566406 C147.579377,68.880856 148.24148,68.5429688 149.108672,68.5429688 C149.866488,68.5429688 150.461209,68.8300753 150.892851,69.4042969 C151.324494,69.9785185 151.540312,70.7753855 151.540312,71.7949219 L151.540312,71.8945312 Z M150.837187,71.7714844 C150.837187,70.9628866 150.671173,70.3242211 150.33914,69.8554688 C150.007108,69.3867164 149.544222,69.1523438 148.950469,69.1523438 C148.520779,69.1523438 148.151642,69.2558583 147.843047,69.4628906 C147.534451,69.6699229 147.298126,69.9707012 147.134062,70.3652344 L147.134062,73.40625 C147.302032,73.7695331 147.542264,74.046874 147.854765,74.2382812 C148.167267,74.4296885 148.536404,74.5253906 148.962187,74.5253906 C149.552034,74.5253906 150.01199,74.2900414 150.34207,73.8193359 C150.67215,73.3486305 150.837187,72.6660201 150.837187,71.7714844 L150.837187,71.7714844 Z M155.138203,75 L154.435078,75 L154.435078,66 L155.138203,66 L155.138203,75 Z M157.915781,71.7363281 C157.915781,71.1269501 158.033944,70.5781274 158.270273,70.0898438 C158.506603,69.6015601 158.840584,69.221681 159.272226,68.9501953 C159.703869,68.6787096 160.193122,68.5429688 160.74,68.5429688 C161.583754,68.5429688 162.267341,68.8388642 162.790781,69.4306641 C163.314221,70.0224639 163.575937,70.8066357 163.575937,71.7832031 L163.575937,71.9296875 C163.575937,72.5429718 163.457774,73.0947241 163.221445,73.5849609 C162.985116,74.0751978 162.652111,74.4531237 162.222422,74.71875 C161.792732,74.9843763 161.302503,75.1171875 160.751719,75.1171875 C159.911871,75.1171875 159.22926,74.821292 158.703867,74.2294922 C158.178474,73.6376924 157.915781,72.8535205 157.915781,71.8769531 L157.915781,71.7363281 Z M158.618906,71.9296875 C158.618906,72.6875038 158.815193,73.3095679 159.207773,73.7958984 C159.600353,74.282229 160.114997,74.5253906 160.751719,74.5253906 C161.384534,74.5253906 161.897224,74.282229 162.289804,73.7958984 C162.682385,73.3095679 162.878672,72.6679727 162.878672,71.8710938 L162.878672,71.7363281 C162.878672,71.2519507 162.788829,70.8085958 162.60914,70.40625 C162.429452,70.0039042 162.177501,69.6923839 161.853281,69.4716797 C161.529061,69.2509755 161.157971,69.140625 160.74,69.140625 C160.114997,69.140625 159.605236,69.3857397 159.210703,69.8759766 C158.81617,70.3662134 158.618906,71.0078085 158.618906,71.8007812 L158.618906,71.9296875 Z M169.21289,69.2578125 C169.064452,69.2304686 168.906251,69.2167969 168.738281,69.2167969 C168.300779,69.2167969 167.930665,69.338866 167.627929,69.5830078 C167.325194,69.8271497 167.109375,70.1816383 166.980469,70.6464844 L166.980469,75 L166.283203,75 L166.283203,68.6601562 L166.96875,68.6601562 L166.980469,69.6679688 C167.351564,68.917965 167.947261,68.5429688 168.767578,68.5429688 C168.962891,68.5429688 169.117187,68.5683591 169.230469,68.6191406 L169.21289,69.2578125 Z M173.924062,75.1171875 C173.384997,75.1171875 172.897697,74.9843763 172.462148,74.71875 C172.026599,74.4531237 171.687735,74.0830102 171.445547,73.6083984 C171.203358,73.1337867 171.082265,72.6015654 171.082265,72.0117188 L171.082265,71.7597656 C171.082265,71.1503876 171.200428,70.6015649 171.436758,70.1132812 C171.673087,69.6249976 172.002185,69.2412123 172.424062,68.9619141 C172.845939,68.6826158 173.302966,68.5429688 173.795156,68.5429688 C174.564691,68.5429688 175.175037,68.8056614 175.626211,69.3310547 C176.077385,69.8564479 176.302969,70.5742142 176.302969,71.484375 L176.302969,71.8769531 L171.779531,71.8769531 L171.779531,72.0117188 C171.779531,72.7304723 171.985584,73.3290992 172.397695,73.8076172 C172.809807,74.2861352 173.328356,74.5253906 173.953359,74.5253906 C174.328361,74.5253906 174.659412,74.4570319 174.946523,74.3203125 C175.233634,74.1835931 175.494374,73.9648453 175.72875,73.6640625 L176.168203,73.9980469 C175.652575,74.7441444 174.904536,75.1171875 173.924062,75.1171875 L173.924062,75.1171875 Z M173.795156,69.140625 C173.26781,69.140625 172.823478,69.3339824 172.462148,69.7207031 C172.100818,70.1074238 171.881094,70.6269499 171.802969,71.2792969 L175.605703,71.2792969 L175.605703,71.203125 C175.586172,70.593747 175.412345,70.0976582 175.084219,69.7148438 C174.756092,69.3320293 174.326409,69.140625 173.795156,69.140625 L173.795156,69.140625 Z M179.678203,72.6269531 L179.027812,72.6269531 L178.992656,66.46875 L179.719218,66.46875 L179.678203,72.6269531 Z M178.910625,74.5898438 C178.910625,74.4570306 178.953593,74.344727 179.039531,74.2529297 C179.125469,74.1611324 179.242655,74.1152344 179.391093,74.1152344 C179.539532,74.1152344 179.657695,74.1611324 179.745586,74.2529297 C179.833477,74.344727 179.877422,74.4570306 179.877422,74.5898438 C179.877422,74.7187506 179.833477,74.827148 179.745586,74.9150391 C179.657695,75.0029301 179.539532,75.046875 179.391093,75.046875 C179.242655,75.046875 179.125469,75.0029301 179.039531,74.9150391 C178.953593,74.827148 178.910625,74.7187506 178.910625,74.5898438 L178.910625,74.5898438 Z" id="We-have-to-come-back"></path>
            </g>
        </g>
    </g>
</svg>