<?xml version="1.0" encoding="UTF-8"?>
<svg width="208px" height="78px" viewBox="0 0 208 78" version="1.1" xmlns="http://www.w3.org/2000/svg" xmlns:xlink="http://www.w3.org/1999/xlink">
    <!-- Generator: Sketch 41.2 (35397) - http://www.bohemiancoding.com/sketch -->
    <title>Group 2</title>
    <desc>Created with Sketch.</desc>
    <defs></defs>
    <g id="Page-1" stroke="none" stroke-width="1" fill="none" fill-rule="evenodd">
        <g id="Desktop-HD" transform="translate(-309.000000, -55.000000)" fill="#000000">
            <g id="Group-2" transform="translate(309.000000, 55.000000)">
                <path d="M2.13964844,9.92675781 L7.83398438,9.92675781 L7.83398438,11 L0.587890625,11 L0.587890625,10.015625 L6.04296875,2.12695312 L0.676757812,2.12695312 L0.676757812,1.046875 L7.61523438,1.046875 L7.61523438,2.01074219 L2.13964844,9.92675781 Z M16.4610938,8.40234375 L12.2911719,8.40234375 L11.3546485,11 L10.0011328,11 L13.8019141,1.046875 L14.9503516,1.046875 L18.7579688,11 L17.4112891,11 L16.4610938,8.40234375 Z M12.6876563,7.32226562 L16.0714453,7.32226562 L14.3761328,2.66699219 L12.6876563,7.32226562 Z M21.4378126,11 L21.4378126,1.046875 L24.6917188,1.046875 C25.7718023,1.046875 26.5841315,1.27018006 27.1287305,1.71679688 C27.6733296,2.16341369 27.9456251,2.82421437 27.9456251,3.69921875 C27.9456251,4.16406482 27.8134649,4.57535628 27.5491407,4.93310547 C27.2848165,5.29085465 26.924794,5.56770735 26.4690626,5.76367188 C27.0068257,5.91406325 27.4317889,6.20003044 27.7439649,6.62158203 C28.056141,7.04313362 28.2122266,7.54557 28.2122266,8.12890625 C28.2122266,9.02213988 27.9228415,9.72395578 27.3440626,10.234375 C26.7652836,10.7447942 25.947258,11 24.889961,11 L21.4378126,11 Z M22.7503126,6.34472656 L22.7503126,9.92675781 L24.9173048,9.92675781 C25.5279849,9.92675781 26.0099137,9.76839351 26.3631055,9.45166016 C26.7162974,9.1349268 26.8928907,8.69857049 26.8928907,8.14257812 C26.8928907,6.94400442 26.2412045,6.34472656 24.9378126,6.34472656 L22.7503126,6.34472656 Z M22.7503126,5.29199219 L24.7327344,5.29199219 C25.3069561,5.29199219 25.7660986,5.14843894 26.1101758,4.86132812 C26.4542531,4.57421731 26.6262891,4.18457277 26.6262891,3.69238281 C26.6262891,3.14550508 26.4667855,2.74788536 26.1477735,2.49951172 C25.8287615,2.25113808 25.3434148,2.12695312 24.6917188,2.12695312 L22.7503126,2.12695312 L22.7503126,5.29199219 Z M35.1440235,6.97363281 L32.8061329,6.97363281 L32.8061329,11 L31.486797,11 L31.486797,1.046875 L34.7817189,1.046875 C35.9028182,1.046875 36.765277,1.30208078 37.3691212,1.8125 C37.9729654,2.32291922 38.2748829,3.06575033 38.2748829,4.04101562 C38.2748829,4.66081039 38.1074041,5.20084405 37.7724415,5.66113281 C37.4374789,6.12142157 36.9715005,6.46549365 36.3744923,6.69335938 L38.7123829,10.9179688 L38.7123829,11 L37.3041798,11 L35.1440235,6.97363281 Z M32.8061329,5.90039062 L34.8227345,5.90039062 C35.4744304,5.90039062 35.9928172,5.73177252 36.3779103,5.39453125 C36.7630033,5.05728998 36.955547,4.60612262 36.955547,4.04101562 C36.955547,3.42577817 36.7721178,2.9541032 36.405254,2.62597656 C36.0383902,2.29784992 35.5086103,2.13151044 34.8158985,2.12695312 L32.8061329,2.12695312 L32.8061329,5.90039062 Z M42.8619533,11 L41.5494533,11 L41.5494533,1.046875 L42.8619533,1.046875 L42.8619533,11 Z M49.5339845,6.56347656 C48.4083279,6.23990724 47.5891629,5.84228751 47.076465,5.37060547 C46.5637671,4.89892342 46.307422,4.31673523 46.307422,3.62402344 C46.307422,2.84016535 46.6207327,2.19189709 47.2473634,1.67919922 C47.8739942,1.16650134 48.6886019,0.91015625 49.6912111,0.91015625 C50.3748083,0.91015625 50.9843399,1.04231639 51.5198244,1.30664062 C52.0553088,1.57096486 52.4700182,1.93554455 52.763965,2.40039062 C53.0579118,2.8652367 53.204883,3.37336964 53.204883,3.92480469 L51.885547,3.92480469 C51.885547,3.32323918 51.6941427,2.8504249 51.3113283,2.50634766 C50.9285139,2.16227042 50.3884802,1.99023438 49.6912111,1.99023438 C49.0440725,1.99023438 48.5393574,2.13264832 48.1770509,2.41748047 C47.8147444,2.70231262 47.6335939,3.09765372 47.6335939,3.60351562 C47.6335939,4.00911661 47.80563,4.35204938 48.1497072,4.63232422 C48.4937844,4.91259906 49.0793906,5.16894415 49.9065431,5.40136719 C50.7336957,5.63379022 51.3808247,5.89013532 51.8479494,6.17041016 C52.3150741,6.450685 52.6614248,6.7776674 52.8870119,7.15136719 C53.112599,7.52506697 53.2253908,7.96484122 53.2253908,8.47070312 C53.2253908,9.27734778 52.9109408,9.92333742 52.2820314,10.4086914 C51.653122,10.8940454 50.8123101,11.1367188 49.7595705,11.1367188 C49.0759733,11.1367188 48.4379589,11.0056979 47.845508,10.7436523 C47.2530571,10.4816068 46.7961932,10.1227236 46.4749025,9.66699219 C46.1536118,9.21126074 45.9929689,8.69401331 45.9929689,8.11523438 L47.3123049,8.11523438 C47.3123049,8.71679988 47.5344706,9.19189279 47.9788088,9.54052734 C48.4231469,9.8891619 49.0167282,10.0634766 49.7595705,10.0634766 C50.4522823,10.0634766 50.9832014,9.92220193 51.3523439,9.63964844 C51.7214864,9.35709494 51.9060549,8.97200765 51.9060549,8.484375 C51.9060549,7.99674235 51.7351581,7.61963024 51.3933595,7.35302734 C51.051561,7.08642445 50.4317755,6.82324349 49.5339845,6.56347656 L49.5339845,6.56347656 Z M58.7763283,6.37207031 L57.5595315,7.63671875 L57.5595315,11 L56.2470315,11 L56.2470315,1.046875 L57.5595315,1.046875 L57.5595315,5.96875 L61.982383,1.046875 L63.5683205,1.046875 L59.6513283,5.44238281 L63.8759377,11 L62.3036721,11 L58.7763283,6.37207031 Z M69.3995315,6.04394531 L71.9971877,1.046875 L73.4874221,1.046875 L70.0557815,7.28808594 L70.0557815,11 L68.7432815,11 L68.7432815,7.28808594 L65.3116409,1.046875 L66.8155471,1.046875 L69.3995315,6.04394531 Z M82.2308987,7.10351562 L82.2308987,11 L80.9183987,11 L80.9183987,1.046875 L84.5892972,1.046875 C85.6784953,1.046875 86.5318397,1.32486701 87.1493558,1.88085938 C87.7668719,2.43685174 88.0756253,3.17284698 88.0756253,4.08886719 C88.0756253,5.05501785 87.7737077,5.79898828 87.1698636,6.32080078 C86.5660194,6.84261329 85.701282,7.10351562 84.5756253,7.10351562 L82.2308987,7.10351562 Z M82.2308987,6.03027344 L84.5892972,6.03027344 C85.2911236,6.03027344 85.8288786,5.86507327 86.2025784,5.53466797 C86.5762782,5.20426267 86.7631253,4.72689114 86.7631253,4.10253906 C86.7631253,3.51008818 86.5762782,3.03613459 86.2025784,2.68066406 C85.8288786,2.32519354 85.3161885,2.14062507 84.6644925,2.12695312 L82.2308987,2.12695312 L82.2308987,6.03027344 Z M98.74668,6.34472656 C98.74668,7.31999186 98.5826192,8.17105756 98.2544925,8.89794922 C97.9263659,9.62484087 97.4615268,10.1796856 96.8599613,10.5625 C96.2583958,10.9453144 95.5565799,11.1367188 94.7544925,11.1367188 C93.9706344,11.1367188 93.2756544,10.9441751 92.6695316,10.559082 C92.0634088,10.173989 91.5928731,9.62484081 91.2579105,8.91162109 C90.9229479,8.19840138 90.7509118,7.37240053 90.7417972,6.43359375 L90.7417972,5.71582031 C90.7417972,4.75878428 90.9081367,3.91341513 91.2408206,3.1796875 C91.5735046,2.44595987 92.0440403,1.88427929 92.6524417,1.49462891 C93.2608432,1.10497852 93.9569626,0.91015625 94.7408206,0.91015625 C95.5383507,0.91015625 96.2413059,1.1026999 96.8497074,1.48779297 C97.4581088,1.87288604 97.9263659,2.43114869 98.2544925,3.16259766 C98.5826192,3.89404663 98.74668,4.74511233 98.74668,5.71582031 L98.74668,6.34472656 Z M97.441016,5.70214844 C97.441016,4.52180399 97.2040392,3.61605133 96.7300785,2.98486328 C96.2561178,2.35367523 95.5930384,2.03808594 94.7408206,2.03808594 C93.9113894,2.03808594 93.2585639,2.35367523 92.7823246,2.98486328 C92.3060852,3.61605133 92.0611332,4.49218189 92.0474613,5.61328125 L92.0474613,6.34472656 C92.0474613,7.48861249 92.287856,8.38752928 92.7686527,9.04150391 C93.2494494,9.69547853 93.9113893,10.0224609 94.7544925,10.0224609 C95.602153,10.0224609 96.2583964,9.71370751 96.7232425,9.09619141 C97.1880886,8.4786753 97.427344,7.59343024 97.441016,6.44042969 L97.441016,5.70214844 Z M103.463633,11 L102.151133,11 L102.151133,1.046875 L103.463633,1.046875 L103.463633,11 Z M114.852461,11 L113.533125,11 L108.522383,3.33007812 L108.522383,11 L107.203047,11 L107.203047,1.046875 L108.522383,1.046875 L113.546797,8.75097656 L113.546797,1.046875 L114.852461,1.046875 L114.852461,11 Z M125.202227,2.12695312 L122.003008,2.12695312 L122.003008,11 L120.697344,11 L120.697344,2.12695312 L117.504961,2.12695312 L117.504961,1.046875 L125.202227,1.046875 L125.202227,2.12695312 Z" id="ZABRISKY-POINT"></path>
                <polygon id="X" points="202.402344 6.86132812 204.788086 3.046875 206.333008 3.046875 203.188477 7.98242188 206.408203 13 204.849609 13 202.402344 9.1171875 199.941406 13 198.389648 13 201.616211 7.98242188 198.464844 3.046875 200.00293 3.046875"></polygon>
                <path d="M1.27734375,38.6289062 L1.69335938,34.46875 L5.95898438,34.46875 L5.95898438,35.1191406 L2.296875,35.1191406 L1.99804688,38.0019531 C2.45508041,37.6894516 2.99023131,37.5332031 3.60351562,37.5332031 C4.37305072,37.5332031 4.98632584,37.7832006 5.44335938,38.2832031 C5.90039291,38.7832056 6.12890625,39.4492146 6.12890625,40.28125 C6.12890625,41.179692 5.90625223,41.8769506 5.4609375,42.3730469 C5.01562277,42.8691431 4.38867592,43.1171875 3.58007812,43.1171875 C2.83788691,43.1171875 2.23633043,42.9101583 1.77539062,42.4960938 C1.31445082,42.0820292 1.05078158,41.5019569 0.984375,40.7558594 L1.65820312,40.7558594 C1.72460971,41.3378935 1.92187336,41.7783188 2.25,42.0771484 C2.57812664,42.3759781 3.02148158,42.5253906 3.58007812,42.5253906 C4.18945617,42.5253906 4.64941251,42.3320332 4.95996094,41.9453125 C5.27050937,41.5585918 5.42578125,41.0078161 5.42578125,40.2929688 C5.42578125,39.6679656 5.25195486,39.1582051 4.90429688,38.7636719 C4.55663889,38.3691387 4.08203426,38.171875 3.48046875,38.171875 C3.14843584,38.171875 2.85937623,38.2138668 2.61328125,38.2978516 C2.36718627,38.3818364 2.10742324,38.5449207 1.83398438,38.7871094 L1.27734375,38.6289062 Z M14.3361328,36.6601562 L14.3595703,37.6914062 C14.5939465,37.3085918 14.8869123,37.0214853 15.2384766,36.8300781 C15.5900409,36.6386709 15.9806619,36.5429688 16.4103516,36.5429688 C17.4103566,36.5429688 18.0451159,36.9531209 18.3146485,37.7734375 C18.5412121,37.3789043 18.8439434,37.0751964 19.2228516,36.8623047 C19.6017597,36.649413 20.0197243,36.5429688 20.4767578,36.5429688 C21.8361396,36.5429688 22.5294921,37.2851488 22.556836,38.7695312 L22.556836,43 L21.853711,43 L21.853711,38.8222656 C21.8498047,38.2558565 21.7277356,37.8359389 21.4875,37.5625 C21.2472645,37.2890611 20.8556668,37.1523438 20.3126953,37.1523438 C19.8087866,37.1601563 19.3830096,37.3232406 19.0353516,37.6416016 C18.6876936,37.9599625 18.4943362,38.347654 18.4552735,38.8046875 L18.4552735,43 L17.7521485,43 L17.7521485,38.7695312 C17.7482422,38.2265598 17.6203138,37.8212904 17.3683594,37.5537109 C17.116405,37.2861315 16.7287136,37.1523438 16.2052735,37.1523438 C15.763865,37.1523438 15.3849626,37.2783191 15.0685547,37.5302734 C14.7521469,37.7822278 14.5177742,38.1562475 14.3654297,38.6523438 L14.3654297,43 L13.6623047,43 L13.6623047,36.6601562 L14.3361328,36.6601562 Z M26.3773828,43 L25.6742578,43 L25.6742578,36.6601562 L26.3773828,36.6601562 L26.3773828,43 Z M25.551211,34.8261719 C25.551211,34.6933587 25.5941793,34.5810551 25.6801172,34.4892578 C25.7660551,34.3974605 25.8832415,34.3515625 26.0316797,34.3515625 C26.180118,34.3515625 26.2982808,34.3974605 26.3861719,34.4892578 C26.474063,34.5810551 26.5180078,34.6933587 26.5180078,34.8261719 C26.5180078,34.958985 26.474063,35.0703121 26.3861719,35.1601562 C26.2982808,35.2500004 26.180118,35.2949219 26.0316797,35.2949219 C25.8832415,35.2949219 25.7660551,35.2500004 25.6801172,35.1601562 C25.5941793,35.0703121 25.551211,34.958985 25.551211,34.8261719 L25.551211,34.8261719 Z M30.326836,43 L29.623711,43 L29.623711,34 L30.326836,34 L30.326836,43 Z M34.2762891,43 L33.5731641,43 L33.5731641,34 L34.2762891,34 L34.2762891,43 Z M38.2257422,43 L37.5226172,43 L37.5226172,36.6601562 L38.2257422,36.6601562 L38.2257422,43 Z M37.3995703,34.8261719 C37.3995703,34.6933587 37.4425386,34.5810551 37.5284766,34.4892578 C37.6144145,34.3974605 37.7316008,34.3515625 37.8800391,34.3515625 C38.0284773,34.3515625 38.1466402,34.3974605 38.2345312,34.4892578 C38.3224223,34.5810551 38.3663672,34.6933587 38.3663672,34.8261719 C38.3663672,34.958985 38.3224223,35.0703121 38.2345312,35.1601562 C38.1466402,35.2500004 38.0284773,35.2949219 37.8800391,35.2949219 C37.7316008,35.2949219 37.6144145,35.2500004 37.5284766,35.1601562 C37.4425386,35.0703121 37.3995703,34.958985 37.3995703,34.8261719 L37.3995703,34.8261719 Z M41.0033203,39.7363281 C41.0033203,39.1269501 41.1214832,38.5781274 41.3578125,38.0898438 C41.5941418,37.6015601 41.9281228,37.221681 42.3597656,36.9501953 C42.7914084,36.6787096 43.2806613,36.5429688 43.827539,36.5429688 C44.6712933,36.5429688 45.3548802,36.8388642 45.8783203,37.4306641 C46.4017604,38.0224639 46.6634765,38.8066357 46.6634765,39.7832031 L46.6634765,39.9296875 C46.6634765,40.5429718 46.5453137,41.0947241 46.3089844,41.5849609 C46.0726551,42.0751978 45.7396506,42.4531237 45.3099609,42.71875 C44.8802713,42.9843763 44.3900418,43.1171875 43.8392578,43.1171875 C42.9994098,43.1171875 42.3167995,42.821292 41.7914062,42.2294922 C41.266013,41.6376924 41.0033203,40.8535205 41.0033203,39.8769531 L41.0033203,39.7363281 Z M41.7064453,39.9296875 C41.7064453,40.6875038 41.9027324,41.3095679 42.2953125,41.7958984 C42.6878926,42.282229 43.2025359,42.5253906 43.8392578,42.5253906 C44.4720735,42.5253906 44.9847636,42.282229 45.3773437,41.7958984 C45.7699238,41.3095679 45.9662109,40.6679727 45.9662109,39.8710938 L45.9662109,39.7363281 C45.9662109,39.2519507 45.8763681,38.8085958 45.6966797,38.40625 C45.5169913,38.0039042 45.2650407,37.6923839 44.9408203,37.4716797 C44.6165999,37.2509755 44.2455099,37.140625 43.827539,37.140625 C43.2025359,37.140625 42.6927754,37.3857397 42.2982422,37.8759766 C41.9037089,38.3662134 41.7064453,39.0078085 41.7064453,39.8007812 L41.7064453,39.9296875 Z M50.0387109,36.6601562 L50.0621484,37.7441406 C50.3004309,37.3535137 50.5973029,37.0556651 50.9527734,36.8505859 C51.3082439,36.6455068 51.7008181,36.5429688 52.1305078,36.5429688 C52.8101987,36.5429688 53.316053,36.7343731 53.6480859,37.1171875 C53.9801188,37.5000019 54.1480859,38.0742149 54.1519922,38.8398438 L54.1519922,43 L53.4547265,43 L53.4547265,38.8339844 C53.4508203,38.2675753 53.3307043,37.8457045 53.094375,37.5683594 C52.8580457,37.2910142 52.4801198,37.1523438 51.9605859,37.1523438 C51.52699,37.1523438 51.1432048,37.2880846 50.8092187,37.5595703 C50.4752327,37.831056 50.2281648,38.1972633 50.0680078,38.6582031 L50.0680078,43 L49.3707422,43 L49.3707422,36.6601562 L50.0387109,36.6601562 Z M64.1053125,41.9921875 L65.956875,36.6601562 L66.7127344,36.6601562 L64.0057031,44.078125 L63.8650781,44.40625 C63.5174201,45.1757851 62.9803161,45.5605469 62.25375,45.5605469 C62.0857804,45.5605469 61.9060947,45.5332034 61.7146875,45.4785156 L61.7088281,44.8984375 L62.0721094,44.9335938 C62.4158611,44.9335938 62.6941786,44.8486337 62.9070703,44.6787109 C63.119962,44.5087882 63.3006243,44.2167989 63.4490625,43.8027344 L63.7596094,42.9472656 L61.3689844,36.6601562 L62.1365625,36.6601562 L64.1053125,41.9921875 Z M71.435625,43.1171875 C70.8965598,43.1171875 70.40926,42.9843763 69.9737109,42.71875 C69.5381619,42.4531237 69.1992981,42.0830102 68.9571094,41.6083984 C68.7149207,41.1337867 68.5938281,40.6015654 68.5938281,40.0117188 L68.5938281,39.7597656 C68.5938281,39.1503876 68.711991,38.6015649 68.9483203,38.1132812 C69.1846496,37.6249976 69.5137479,37.2412123 69.935625,36.9619141 C70.3575021,36.6826158 70.8145288,36.5429688 71.3067187,36.5429688 C72.0762538,36.5429688 72.6865993,36.8056614 73.1377734,37.3310547 C73.5889476,37.8564479 73.8145312,38.5742142 73.8145312,39.484375 L73.8145312,39.8769531 L69.2910937,39.8769531 L69.2910937,40.0117188 C69.2910937,40.7304723 69.4971464,41.3290992 69.9092578,41.8076172 C70.3213692,42.2861352 70.8399187,42.5253906 71.4649219,42.5253906 C71.8399237,42.5253906 72.1709751,42.4570319 72.4580859,42.3203125 C72.7451967,42.1835931 73.0059363,41.9648453 73.2403125,41.6640625 L73.6797656,41.9980469 C73.164138,42.7441444 72.4160986,43.1171875 71.435625,43.1171875 L71.435625,43.1171875 Z M71.3067187,37.140625 C70.7793724,37.140625 70.3350409,37.3339824 69.9737109,37.7207031 C69.612381,38.1074238 69.3926566,38.6269499 69.3145312,39.2792969 L73.1172656,39.2792969 L73.1172656,39.203125 C73.0977343,38.593747 72.9239079,38.0976582 72.5957812,37.7148438 C72.2676546,37.3320293 71.8379714,37.140625 71.3067187,37.140625 L71.3067187,37.140625 Z M80.4417187,43 C80.3714059,42.8007803 80.3264845,42.5058613 80.3069531,42.1152344 C80.0608581,42.4355485 79.7473847,42.6826163 79.3665234,42.8564453 C78.9856621,43.0302743 78.5823459,43.1171875 78.1565625,43.1171875 C77.5471844,43.1171875 77.0540253,42.9472673 76.6770703,42.6074219 C76.3001153,42.2675764 76.1116406,41.8378932 76.1116406,41.3183594 C76.1116406,40.7011688 76.368474,40.2128924 76.8821484,39.8535156 C77.3958229,39.4941388 78.111636,39.3144531 79.0296094,39.3144531 L80.3010937,39.3144531 L80.3010937,38.59375 C80.3010937,38.1406227 80.1614467,37.784181 79.8821484,37.5244141 C79.6028502,37.2646471 79.1956277,37.1347656 78.6604687,37.1347656 C78.172185,37.1347656 77.7678922,37.2597644 77.4475781,37.5097656 C77.127264,37.7597669 76.9671094,38.0605451 76.9671094,38.4121094 L76.2639844,38.40625 C76.2639844,37.9023412 76.498357,37.4658222 76.9671094,37.0966797 C77.4358617,36.7275372 78.0120278,36.5429688 78.695625,36.5429688 C79.4026598,36.5429688 79.9602714,36.7197248 80.3684765,37.0732422 C80.7766817,37.4267596 80.9866406,37.9199187 80.9983594,38.5527344 L80.9983594,41.5527344 C80.9983594,42.1660187 81.0628118,42.6249985 81.1917187,42.9296875 L81.1917187,43 L80.4417187,43 Z M78.2385937,42.4960938 C78.7073461,42.4960938 79.1262872,42.3828136 79.4954297,42.15625 C79.8645721,41.9296864 80.1331241,41.626955 80.3010937,41.2480469 L80.3010937,39.8535156 L79.0471875,39.8535156 C78.3479652,39.8613282 77.8010957,39.9892566 77.4065625,40.2373047 C77.0120293,40.4853528 76.8147656,40.8261697 76.8147656,41.2597656 C76.8147656,41.6152362 76.9466002,41.9101551 77.2102734,42.1445312 C77.4739466,42.3789074 77.8167166,42.4960938 78.2385937,42.4960938 L78.2385937,42.4960938 Z M87.0571875,37.2578125 C86.9087492,37.2304686 86.7505477,37.2167969 86.5825781,37.2167969 C86.1450759,37.2167969 85.7749624,37.338866 85.4722265,37.5830078 C85.1694907,37.8271497 84.9536725,38.1816383 84.8247656,38.6464844 L84.8247656,43 L84.1275,43 L84.1275,36.6601562 L84.8130469,36.6601562 L84.8247656,37.6679688 C85.1958612,36.917965 85.7915584,36.5429688 86.611875,36.5429688 C86.8071885,36.5429688 86.9614838,36.5683591 87.0747656,36.6191406 L87.0571875,37.2578125 Z M93.2214843,41.3886719 C93.2214843,41.0410139 93.0818373,40.7617198 92.802539,40.5507812 C92.5232408,40.3398427 92.1023465,40.1748053 91.5398437,40.0556641 C90.9773409,39.9365228 90.5408218,39.7998055 90.2302734,39.6455078 C89.919725,39.4912102 89.6892585,39.3027355 89.5388672,39.0800781 C89.3884758,38.8574208 89.3132812,38.5878922 89.3132812,38.2714844 C89.3132812,37.7714819 89.5222635,37.3584001 89.9402343,37.0322266 C90.3582052,36.7060531 90.8933561,36.5429688 91.5457031,36.5429688 C92.2527379,36.5429688 92.820115,36.7177717 93.2478515,37.0673828 C93.675588,37.4169939 93.8894531,37.8730441 93.8894531,38.4355469 L93.1863281,38.4355469 C93.1863281,38.0644513 93.0310562,37.7558606 92.7205078,37.5097656 C92.4099594,37.2636706 92.0183617,37.140625 91.5457031,37.140625 C91.0847633,37.140625 90.7146498,37.243163 90.4353515,37.4482422 C90.1560533,37.6533213 90.0164062,37.9199202 90.0164062,38.2480469 C90.0164062,38.5644547 90.132616,38.8095694 90.365039,38.9833984 C90.5974621,39.1572274 91.021286,39.3164055 91.6365234,39.4609375 C92.2517609,39.6054695 92.7126937,39.7597648 93.0193359,39.9238281 C93.3259781,40.0878914 93.5535149,40.2851551 93.7019531,40.515625 C93.8503913,40.7460949 93.9246093,41.025389 93.9246093,41.3535156 C93.9246093,41.8886746 93.7087912,42.3164046 93.2771484,42.6367188 C92.8455056,42.9570329 92.2820347,43.1171875 91.5867187,43.1171875 C90.8484338,43.1171875 90.249807,42.9384783 89.7908203,42.5810547 C89.3318336,42.223631 89.1023437,41.7714871 89.1023437,41.2246094 L89.8054687,41.2246094 C89.8328126,41.6347677 90.0056624,41.9541004 90.3240234,42.1826172 C90.6423844,42.411134 91.0632786,42.5253906 91.5867187,42.5253906 C92.0750024,42.5253906 92.4695297,42.4179698 92.7703125,42.203125 C93.0710952,41.9882802 93.2214843,41.7167985 93.2214843,41.3886719 L93.2214843,41.3886719 Z M105.635742,43 C105.565429,42.8007803 105.520508,42.5058613 105.500977,42.1152344 C105.254882,42.4355485 104.941408,42.6826163 104.560547,42.8564453 C104.179686,43.0302743 103.776369,43.1171875 103.350586,43.1171875 C102.741208,43.1171875 102.248049,42.9472673 101.871094,42.6074219 C101.494139,42.2675764 101.305664,41.8378932 101.305664,41.3183594 C101.305664,40.7011688 101.562497,40.2128924 102.076172,39.8535156 C102.589846,39.4941388 103.305659,39.3144531 104.223633,39.3144531 L105.495117,39.3144531 L105.495117,38.59375 C105.495117,38.1406227 105.35547,37.784181 105.076172,37.5244141 C104.796874,37.2646471 104.389651,37.1347656 103.854492,37.1347656 C103.366208,37.1347656 102.961916,37.2597644 102.641602,37.5097656 C102.321287,37.7597669 102.161133,38.0605451 102.161133,38.4121094 L101.458008,38.40625 C101.458008,37.9023412 101.69238,37.4658222 102.161133,37.0966797 C102.629885,36.7275372 103.206051,36.5429688 103.889648,36.5429688 C104.596683,36.5429688 105.154295,36.7197248 105.5625,37.0732422 C105.970705,37.4267596 106.180664,37.9199187 106.192383,38.5527344 L106.192383,41.5527344 C106.192383,42.1660187 106.256835,42.6249985 106.385742,42.9296875 L106.385742,43 L105.635742,43 Z M103.432617,42.4960938 C103.90137,42.4960938 104.320311,42.3828136 104.689453,42.15625 C105.058596,41.9296864 105.327148,41.626955 105.495117,41.2480469 L105.495117,39.8535156 L104.241211,39.8535156 C103.541989,39.8613282 102.995119,39.9892566 102.600586,40.2373047 C102.206053,40.4853528 102.008789,40.8261697 102.008789,41.2597656 C102.008789,41.6152362 102.140624,41.9101551 102.404297,42.1445312 C102.66797,42.3789074 103.01074,42.4960938 103.432617,42.4960938 L103.432617,42.4960938 Z M109.040273,39.7714844 C109.040273,38.7792919 109.259998,37.993167 109.699453,37.4130859 C110.138908,36.8330049 110.735582,36.5429688 111.489492,36.5429688 C112.352778,36.5429688 113.009021,36.8867153 113.458242,37.5742188 L113.493398,36.6601562 L114.149648,36.6601562 L114.149648,42.8710938 C114.149648,43.6875041 113.921135,44.333982 113.464102,44.8105469 C113.007068,45.2871118 112.387934,45.5253906 111.60668,45.5253906 C111.165271,45.5253906 110.744377,45.4267588 110.343984,45.2294922 C109.943592,45.0322256 109.628165,44.7695329 109.397695,44.4414062 L109.790273,44.0195312 C110.28637,44.6289093 110.876208,44.9335938 111.559805,44.9335938 C112.145745,44.9335938 112.602772,44.7607439 112.930898,44.4150391 C113.259025,44.0693342 113.428945,43.5898468 113.440664,42.9765625 L113.440664,42.1796875 C112.991443,42.8046906 112.337153,43.1171875 111.477773,43.1171875 C110.743395,43.1171875 110.153557,42.8242217 109.708242,42.2382812 C109.262927,41.6523408 109.040273,40.8613331 109.040273,39.8652344 L109.040273,39.7714844 Z M109.749258,39.8945312 C109.749258,40.703129 109.911366,41.340818 110.235586,41.8076172 C110.559806,42.2744164 111.016833,42.5078125 111.60668,42.5078125 C112.469965,42.5078125 113.081287,42.1210976 113.440664,41.3476562 L113.440664,38.4003906 C113.276601,37.9941386 113.040275,37.6845714 112.73168,37.4716797 C112.423084,37.258788 112.051994,37.1523438 111.618398,37.1523438 C111.028552,37.1523438 110.569572,37.3837867 110.241445,37.8466797 C109.913319,38.3095726 109.749258,38.992183 109.749258,39.8945312 L109.749258,39.8945312 Z M116.851055,39.7363281 C116.851055,39.1269501 116.969218,38.5781274 117.205547,38.0898438 C117.441876,37.6015601 117.775857,37.221681 118.2075,36.9501953 C118.639143,36.6787096 119.128396,36.5429688 119.675273,36.5429688 C120.519028,36.5429688 121.202615,36.8388642 121.726055,37.4306641 C122.249495,38.0224639 122.511211,38.8066357 122.511211,39.7832031 L122.511211,39.9296875 C122.511211,40.5429718 122.393048,41.0947241 122.156719,41.5849609 C121.920389,42.0751978 121.587385,42.4531237 121.157695,42.71875 C120.728006,42.9843763 120.237776,43.1171875 119.686992,43.1171875 C118.847144,43.1171875 118.164534,42.821292 117.639141,42.2294922 C117.113747,41.6376924 116.851055,40.8535205 116.851055,39.8769531 L116.851055,39.7363281 Z M117.55418,39.9296875 C117.55418,40.6875038 117.750467,41.3095679 118.143047,41.7958984 C118.535627,42.282229 119.05027,42.5253906 119.686992,42.5253906 C120.319808,42.5253906 120.832498,42.282229 121.225078,41.7958984 C121.617658,41.3095679 121.813945,40.6679727 121.813945,39.8710938 L121.813945,39.7363281 C121.813945,39.2519507 121.724102,38.8085958 121.544414,38.40625 C121.364726,38.0039042 121.112775,37.6923839 120.788555,37.4716797 C120.464334,37.2509755 120.093244,37.140625 119.675273,37.140625 C119.05027,37.140625 118.54051,37.3857397 118.145977,37.8759766 C117.751443,38.3662134 117.55418,39.0078085 117.55418,39.8007812 L117.55418,39.9296875 Z M131.181328,35.0371094 L131.181328,36.6601562 L132.493828,36.6601562 L132.493828,37.234375 L131.181328,37.234375 L131.181328,41.4589844 C131.181328,41.8105486 131.244804,42.0722648 131.371758,42.2441406 C131.498712,42.4160165 131.710624,42.5019531 132.0075,42.5019531 C132.124688,42.5019531 132.314139,42.4824221 132.575859,42.4433594 L132.605156,43.0175781 C132.421562,43.0839847 132.171564,43.1171875 131.855156,43.1171875 C131.374685,43.1171875 131.025079,42.9775405 130.806328,42.6982422 C130.587577,42.4189439 130.478203,42.0078152 130.478203,41.4648438 L130.478203,37.234375 L129.312188,37.234375 L129.312188,36.6601562 L130.478203,36.6601562 L130.478203,35.0371094 L131.181328,35.0371094 Z M135.904219,37.7324219 C136.134689,37.3535137 136.429608,37.0605479 136.788984,36.8535156 C137.148361,36.6464833 137.540935,36.5429688 137.966719,36.5429688 C138.64641,36.5429688 139.152264,36.7343731 139.484297,37.1171875 C139.81633,37.5000019 139.984297,38.0742149 139.988203,38.8398438 L139.988203,43 L139.290938,43 L139.290938,38.8339844 C139.287031,38.2675753 139.166915,37.8457045 138.930586,37.5683594 C138.694257,37.2910142 138.316331,37.1523438 137.796797,37.1523438 C137.363201,37.1523438 136.979416,37.2880846 136.64543,37.5595703 C136.311444,37.831056 136.064376,38.1972633 135.904219,38.6582031 L135.904219,43 L135.206953,43 L135.206953,34 L135.904219,34 L135.904219,37.7324219 Z M143.838047,43 L143.134922,43 L143.134922,36.6601562 L143.838047,36.6601562 L143.838047,43 Z M143.011875,34.8261719 C143.011875,34.6933587 143.054843,34.5810551 143.140781,34.4892578 C143.226719,34.3974605 143.343906,34.3515625 143.492344,34.3515625 C143.640782,34.3515625 143.758945,34.3974605 143.846836,34.4892578 C143.934727,34.5810551 143.978672,34.6933587 143.978672,34.8261719 C143.978672,34.958985 143.934727,35.0703121 143.846836,35.1601562 C143.758945,35.2500004 143.640782,35.2949219 143.492344,35.2949219 C143.343906,35.2949219 143.226719,35.2500004 143.140781,35.1601562 C143.054843,35.0703121 143.011875,34.958985 143.011875,34.8261719 L143.011875,34.8261719 Z M150.799219,41.3886719 C150.799219,41.0410139 150.659572,40.7617198 150.380273,40.5507812 C150.100975,40.3398427 149.680081,40.1748053 149.117578,40.0556641 C148.555075,39.9365228 148.118556,39.7998055 147.808008,39.6455078 C147.497459,39.4912102 147.266993,39.3027355 147.116602,39.0800781 C146.96621,38.8574208 146.891016,38.5878922 146.891016,38.2714844 C146.891016,37.7714819 147.099998,37.3584001 147.517969,37.0322266 C147.93594,36.7060531 148.47109,36.5429688 149.123437,36.5429688 C149.830472,36.5429688 150.397849,36.7177717 150.825586,37.0673828 C151.253322,37.4169939 151.467187,37.8730441 151.467187,38.4355469 L150.764062,38.4355469 C150.764062,38.0644513 150.608791,37.7558606 150.298242,37.5097656 C149.987694,37.2636706 149.596096,37.140625 149.123437,37.140625 C148.662498,37.140625 148.292384,37.243163 148.013086,37.4482422 C147.733788,37.6533213 147.594141,37.9199202 147.594141,38.2480469 C147.594141,38.5644547 147.71035,38.8095694 147.942773,38.9833984 C148.175196,39.1572274 148.59902,39.3164055 149.214258,39.4609375 C149.829495,39.6054695 150.290428,39.7597648 150.59707,39.9238281 C150.903712,40.0878914 151.131249,40.2851551 151.279687,40.515625 C151.428126,40.7460949 151.502344,41.025389 151.502344,41.3535156 C151.502344,41.8886746 151.286526,42.3164046 150.854883,42.6367188 C150.42324,42.9570329 149.859769,43.1171875 149.164453,43.1171875 C148.426168,43.1171875 147.827541,42.9384783 147.368555,42.5810547 C146.909568,42.223631 146.680078,41.7714871 146.680078,41.2246094 L147.383203,41.2246094 C147.410547,41.6347677 147.583397,41.9541004 147.901758,42.1826172 C148.220119,42.411134 148.641013,42.5253906 149.164453,42.5253906 C149.652737,42.5253906 150.047264,42.4179698 150.348047,42.203125 C150.64883,41.9882802 150.799219,41.7167985 150.799219,41.3886719 L150.799219,41.3886719 Z M160.729102,41.5410156 L160.83457,42.0859375 L160.975195,41.5117188 L162.498633,36.6601562 L163.096289,36.6601562 L164.602148,41.4707031 L164.766211,42.1386719 L164.900977,41.5234375 L166.201758,36.6601562 L166.92832,36.6601562 L165.082617,43 L164.484961,43 L162.856055,37.9726562 L162.779883,37.6269531 L162.703711,37.9785156 L161.104102,43 L160.506445,43 L158.666602,36.6601562 L159.387305,36.6601562 L160.729102,41.5410156 Z M173.520352,43 C173.450039,42.8007803 173.405117,42.5058613 173.385586,42.1152344 C173.139491,42.4355485 172.826018,42.6826163 172.445156,42.8564453 C172.064295,43.0302743 171.660979,43.1171875 171.235195,43.1171875 C170.625817,43.1171875 170.132658,42.9472673 169.755703,42.6074219 C169.378748,42.2675764 169.190273,41.8378932 169.190273,41.3183594 C169.190273,40.7011688 169.447107,40.2128924 169.960781,39.8535156 C170.474456,39.4941388 171.190269,39.3144531 172.108242,39.3144531 L173.379727,39.3144531 L173.379727,38.59375 C173.379727,38.1406227 173.24008,37.784181 172.960781,37.5244141 C172.681483,37.2646471 172.27426,37.1347656 171.739102,37.1347656 C171.250818,37.1347656 170.846525,37.2597644 170.526211,37.5097656 C170.205897,37.7597669 170.045742,38.0605451 170.045742,38.4121094 L169.342617,38.40625 C169.342617,37.9023412 169.57699,37.4658222 170.045742,37.0966797 C170.514495,36.7275372 171.090661,36.5429688 171.774258,36.5429688 C172.481293,36.5429688 173.038904,36.7197248 173.447109,37.0732422 C173.855315,37.4267596 174.065273,37.9199187 174.076992,38.5527344 L174.076992,41.5527344 C174.076992,42.1660187 174.141445,42.6249985 174.270352,42.9296875 L174.270352,43 L173.520352,43 Z M171.317227,42.4960938 C171.785979,42.4960938 172.20492,42.3828136 172.574063,42.15625 C172.943205,41.9296864 173.211757,41.626955 173.379727,41.2480469 L173.379727,39.8535156 L172.12582,39.8535156 C171.426598,39.8613282 170.879729,39.9892566 170.485195,40.2373047 C170.090662,40.4853528 169.893398,40.8261697 169.893398,41.2597656 C169.893398,41.6152362 170.025233,41.9101551 170.288906,42.1445312 C170.552579,42.3789074 170.895349,42.4960938 171.317227,42.4960938 L171.317227,42.4960938 Z M181.003008,41.3886719 C181.003008,41.0410139 180.863361,40.7617198 180.584062,40.5507812 C180.304764,40.3398427 179.88387,40.1748053 179.321367,40.0556641 C178.758864,39.9365228 178.322345,39.7998055 178.011797,39.6455078 C177.701248,39.4912102 177.470782,39.3027355 177.320391,39.0800781 C177.169999,38.8574208 177.094805,38.5878922 177.094805,38.2714844 C177.094805,37.7714819 177.303787,37.3584001 177.721758,37.0322266 C178.139729,36.7060531 178.67488,36.5429688 179.327227,36.5429688 C180.034261,36.5429688 180.601638,36.7177717 181.029375,37.0673828 C181.457112,37.4169939 181.670977,37.8730441 181.670977,38.4355469 L180.967852,38.4355469 C180.967852,38.0644513 180.81258,37.7558606 180.502031,37.5097656 C180.191483,37.2636706 179.799885,37.140625 179.327227,37.140625 C178.866287,37.140625 178.496173,37.243163 178.216875,37.4482422 C177.937577,37.6533213 177.79793,37.9199202 177.79793,38.2480469 C177.79793,38.5644547 177.914139,38.8095694 178.146562,38.9833984 C178.378986,39.1572274 178.802809,39.3164055 179.418047,39.4609375 C180.033284,39.6054695 180.494217,39.7597648 180.800859,39.9238281 C181.107502,40.0878914 181.335038,40.2851551 181.483477,40.515625 C181.631915,40.7460949 181.706133,41.025389 181.706133,41.3535156 C181.706133,41.8886746 181.490315,42.3164046 181.058672,42.6367188 C180.627029,42.9570329 180.063558,43.1171875 179.368242,43.1171875 C178.629957,43.1171875 178.03133,42.9384783 177.572344,42.5810547 C177.113357,42.223631 176.883867,41.7714871 176.883867,41.2246094 L177.586992,41.2246094 C177.614336,41.6347677 177.787186,41.9541004 178.105547,42.1826172 C178.423908,42.411134 178.844802,42.5253906 179.368242,42.5253906 C179.856526,42.5253906 180.251053,42.4179698 180.551836,42.203125 C180.852619,41.9882802 181.003008,41.7167985 181.003008,41.3886719 L181.003008,41.3886719 Z M190.505156,35.0371094 L190.505156,36.6601562 L191.817656,36.6601562 L191.817656,37.234375 L190.505156,37.234375 L190.505156,41.4589844 C190.505156,41.8105486 190.568632,42.0722648 190.695586,42.2441406 C190.82254,42.4160165 191.034452,42.5019531 191.331328,42.5019531 C191.448516,42.5019531 191.637967,42.4824221 191.899688,42.4433594 L191.928984,43.0175781 C191.74539,43.0839847 191.495392,43.1171875 191.178984,43.1171875 C190.698513,43.1171875 190.348907,42.9775405 190.130156,42.6982422 C189.911405,42.4189439 189.802031,42.0078152 189.802031,41.4648438 L189.802031,37.234375 L188.636016,37.234375 L188.636016,36.6601562 L189.802031,36.6601562 L189.802031,35.0371094 L190.505156,35.0371094 Z M195.228047,37.7324219 C195.458517,37.3535137 195.753436,37.0605479 196.112813,36.8535156 C196.472189,36.6464833 196.864764,36.5429688 197.290547,36.5429688 C197.970238,36.5429688 198.476092,36.7343731 198.808125,37.1171875 C199.140158,37.5000019 199.308125,38.0742149 199.312031,38.8398438 L199.312031,43 L198.614766,43 L198.614766,38.8339844 C198.610859,38.2675753 198.490743,37.8457045 198.254414,37.5683594 C198.018085,37.2910142 197.640159,37.1523438 197.120625,37.1523438 C196.687029,37.1523438 196.303244,37.2880846 195.969258,37.5595703 C195.635272,37.831056 195.388204,38.1972633 195.228047,38.6582031 L195.228047,43 L194.530781,43 L194.530781,34 L195.228047,34 L195.228047,37.7324219 Z M204.831797,43.1171875 C204.292732,43.1171875 203.805432,42.9843763 203.369883,42.71875 C202.934334,42.4531237 202.59547,42.0830102 202.353281,41.6083984 C202.111093,41.1337867 201.99,40.6015654 201.99,40.0117188 L201.99,39.7597656 C201.99,39.1503876 202.108163,38.6015649 202.344492,38.1132812 C202.580822,37.6249976 202.90992,37.2412123 203.331797,36.9619141 C203.753674,36.6826158 204.210701,36.5429688 204.702891,36.5429688 C205.472426,36.5429688 206.082771,36.8056614 206.533945,37.3310547 C206.985119,37.8564479 207.210703,38.5742142 207.210703,39.484375 L207.210703,39.8769531 L202.687266,39.8769531 L202.687266,40.0117188 C202.687266,40.7304723 202.893318,41.3290992 203.30543,41.8076172 C203.717541,42.2861352 204.236091,42.5253906 204.861094,42.5253906 C205.236096,42.5253906 205.567147,42.4570319 205.854258,42.3203125 C206.141369,42.1835931 206.402108,41.9648453 206.636484,41.6640625 L207.075938,41.9980469 C206.56031,42.7441444 205.812271,43.1171875 204.831797,43.1171875 L204.831797,43.1171875 Z M204.702891,37.140625 C204.175544,37.140625 203.731213,37.3339824 203.369883,37.7207031 C203.008553,38.1074238 202.788829,38.6269499 202.710703,39.2792969 L206.513438,39.2792969 L206.513438,39.203125 C206.493906,38.593747 206.32008,38.0976582 205.991953,37.7148438 C205.663826,37.3320293 205.234143,37.140625 204.702891,37.140625 L204.702891,37.140625 Z M5.77734375,55.015625 L1.79882812,55.015625 L1.79882812,59 L1.078125,59 L1.078125,50.46875 L6.36328125,50.46875 L6.36328125,51.0839844 L1.79882812,51.0839844 L1.79882812,54.4003906 L5.77734375,54.4003906 L5.77734375,55.015625 Z M12.8732812,58.1972656 C12.4514041,58.8105499 11.7775827,59.1171875 10.8517969,59.1171875 C10.1760122,59.1171875 9.6623455,58.9209004 9.31078124,58.5283203 C8.95921698,58.1357402 8.77953128,57.5546913 8.77171874,56.7851562 L8.77171874,52.6601562 L9.46898437,52.6601562 L9.46898437,56.6972656 C9.46898437,57.9043029 9.95726073,58.5078125 10.9338281,58.5078125 C11.9494582,58.5078125 12.5920299,58.0878948 12.8615625,57.2480469 L12.8615625,52.6601562 L13.5646875,52.6601562 L13.5646875,59 L12.885,59 L12.8732812,58.1972656 Z M19.5766406,53.2578125 C19.4282024,53.2304686 19.2700008,53.2167969 19.1020312,53.2167969 C18.664529,53.2167969 18.2944156,53.338866 17.9916797,53.5830078 C17.6889438,53.8271497 17.4731256,54.1816383 17.3442187,54.6464844 L17.3442187,59 L16.6469531,59 L16.6469531,52.6601562 L17.3325,52.6601562 L17.3442187,53.6679688 C17.7153143,52.917965 18.3110115,52.5429688 19.1313281,52.5429688 C19.3266416,52.5429688 19.4809369,52.5683591 19.5942187,52.6191406 L19.5766406,53.2578125 Z M22.6120312,52.6601562 L22.6354687,53.7441406 C22.8737512,53.3535137 23.1706232,53.0556651 23.5260937,52.8505859 C23.8815642,52.6455068 24.2741384,52.5429688 24.7038281,52.5429688 C25.383519,52.5429688 25.8893733,52.7343731 26.2214062,53.1171875 C26.5534391,53.5000019 26.7214062,54.0742149 26.7253125,54.8398438 L26.7253125,59 L26.0280468,59 L26.0280468,54.8339844 C26.0241406,54.2675753 25.9040246,53.8457045 25.6676953,53.5683594 C25.431366,53.2910142 25.0534401,53.1523438 24.5339062,53.1523438 C24.1003103,53.1523438 23.7165251,53.2880846 23.382539,53.5595703 C23.048553,53.831056 22.8014851,54.1972633 22.6413281,54.6582031 L22.6413281,59 L21.9440625,59 L21.9440625,52.6601562 L22.6120312,52.6601562 Z M33.7978125,59 C33.7274996,58.8007803 33.6825782,58.5058613 33.6630468,58.1152344 C33.4169519,58.4355485 33.1034784,58.6826163 32.7226171,58.8564453 C32.3417559,59.0302743 31.9384396,59.1171875 31.5126562,59.1171875 C30.9032782,59.1171875 30.410119,58.9472673 30.033164,58.6074219 C29.656209,58.2675764 29.4677343,57.8378932 29.4677343,57.3183594 C29.4677343,56.7011688 29.7245677,56.2128924 30.2382421,55.8535156 C30.7519166,55.4941388 31.4677297,55.3144531 32.3857031,55.3144531 L33.6571875,55.3144531 L33.6571875,54.59375 C33.6571875,54.1406227 33.5175404,53.784181 33.2382421,53.5244141 C32.9589439,53.2646471 32.5517214,53.1347656 32.0165625,53.1347656 C31.5282788,53.1347656 31.1239859,53.2597644 30.8036718,53.5097656 C30.4833577,53.7597669 30.3232031,54.0605451 30.3232031,54.4121094 L29.6200781,54.40625 C29.6200781,53.9023412 29.8544507,53.4658222 30.3232031,53.0966797 C30.7919554,52.7275372 31.3681215,52.5429688 32.0517187,52.5429688 C32.7587535,52.5429688 33.3163651,52.7197248 33.7245703,53.0732422 C34.1327754,53.4267596 34.3427343,53.9199187 34.3544531,54.5527344 L34.3544531,57.5527344 C34.3544531,58.1660187 34.4189056,58.6249985 34.5478125,58.9296875 L34.5478125,59 L33.7978125,59 Z M31.5946875,58.4960938 C32.0634398,58.4960938 32.4823809,58.3828136 32.8515234,58.15625 C33.2206659,57.9296864 33.4892179,57.626955 33.6571875,57.2480469 L33.6571875,55.8535156 L32.4032812,55.8535156 C31.704059,55.8613282 31.1571894,55.9892566 30.7626562,56.2373047 C30.368123,56.4853528 30.1708593,56.8261697 30.1708593,57.2597656 C30.1708593,57.6152362 30.302694,57.9101551 30.5663671,58.1445312 C30.8300403,58.3789074 31.1728104,58.4960938 31.5946875,58.4960938 L31.5946875,58.4960938 Z M39.8273437,58.5253906 C40.3156274,58.5253906 40.724803,58.3876967 41.0548828,58.1123047 C41.3849625,57.8369127 41.5636717,57.4804709 41.5910156,57.0429688 L42.2648437,57.0429688 C42.2453124,57.4296894 42.1242198,57.782225 41.9015625,58.1005859 C41.6789051,58.4189469 41.3830096,58.6679679 41.0138671,58.8476562 C40.6447247,59.0273446 40.2492208,59.1171875 39.8273437,59.1171875 C38.9953083,59.1171875 38.3361352,58.8281279 37.8498046,58.25 C37.3634741,57.6718721 37.1203125,56.8945361 37.1203125,55.9179688 L37.1203125,55.7070312 C37.1203125,55.0820281 37.2296864,54.5292993 37.4484375,54.0488281 C37.6671885,53.568357 37.980662,53.1972669 38.3888671,52.9355469 C38.7970723,52.6738268 39.2746066,52.5429688 39.8214843,52.5429688 C40.5168003,52.5429688 41.0900368,52.7499979 41.5412109,53.1640625 C41.992385,53.5781271 42.2335935,54.1230435 42.2648437,54.7988281 L41.5910156,54.7988281 C41.5597654,54.3027319 41.3810563,53.9023453 41.0548828,53.5976562 C40.7287093,53.2929672 40.3175806,53.140625 39.8214843,53.140625 C39.1886687,53.140625 38.6974626,53.3691383 38.3478515,53.8261719 C37.9982404,54.2832054 37.8234375,54.923824 37.8234375,55.7480469 L37.8234375,55.953125 C37.8234375,56.7617228 37.9982404,57.3925759 38.3478515,57.8457031 C38.6974626,58.2988304 39.1906218,58.5253906 39.8273437,58.5253906 L39.8273437,58.5253906 Z M47.3803124,59.1171875 C46.8412472,59.1171875 46.3539474,58.9843763 45.9183984,58.71875 C45.4828493,58.4531237 45.1439855,58.0830102 44.9017968,57.6083984 C44.6596081,57.1337867 44.5385156,56.6015654 44.5385156,56.0117188 L44.5385156,55.7597656 C44.5385156,55.1503876 44.6566784,54.6015649 44.8930078,54.1132812 C45.1293371,53.6249976 45.4584353,53.2412123 45.8803124,52.9619141 C46.3021896,52.6826158 46.7592162,52.5429688 47.2514062,52.5429688 C48.0209413,52.5429688 48.6312867,52.8056614 49.0824609,53.3310547 C49.533635,53.8564479 49.7592187,54.5742142 49.7592187,55.484375 L49.7592187,55.8769531 L45.2357812,55.8769531 L45.2357812,56.0117188 C45.2357812,56.7304723 45.4418338,57.3290992 45.8539453,57.8076172 C46.2660567,58.2861352 46.7846062,58.5253906 47.4096093,58.5253906 C47.7846112,58.5253906 48.1156626,58.4570319 48.4027734,58.3203125 C48.6898842,58.1835931 48.9506238,57.9648453 49.1849999,57.6640625 L49.6244531,57.9980469 C49.1088255,58.7441444 48.3607861,59.1171875 47.3803124,59.1171875 L47.3803124,59.1171875 Z M47.2514062,53.140625 C46.7240598,53.140625 46.2797283,53.3339824 45.9183984,53.7207031 C45.5570684,54.1074238 45.3373441,54.6269499 45.2592187,55.2792969 L49.0619531,55.2792969 L49.0619531,55.203125 C49.0424217,54.593747 48.8685953,54.0976582 48.5404687,53.7148438 C48.2123421,53.3320293 47.7826588,53.140625 47.2514062,53.140625 L47.2514062,53.140625 Z M65.9327344,56.3398438 C65.8350776,57.2382857 65.5137918,57.9257789 64.9688672,58.4023438 C64.4239426,58.8789086 63.6983639,59.1171875 62.7921094,59.1171875 C62.1592937,59.1171875 61.599729,58.958986 61.1133984,58.6425781 C60.6270679,58.3261703 60.2510951,57.8779326 59.9854687,57.2978516 C59.7198424,56.7177705 59.5850781,56.0546912 59.5811719,55.3085938 L59.5811719,54.2011719 C59.5811719,53.4433556 59.713983,52.7714873 59.9796094,52.1855469 C60.2452357,51.5996064 60.6270678,51.1474625 61.1251172,50.8291016 C61.6231665,50.5107406 62.196403,50.3515625 62.8448437,50.3515625 C63.7589108,50.3515625 64.4805833,50.5986303 65.0098828,51.0927734 C65.5391823,51.5869165 65.8467964,52.2695269 65.9327344,53.140625 L65.2061719,53.140625 C65.0264835,51.691399 64.239382,50.9667969 62.8448437,50.9667969 C62.0714024,50.9667969 61.4551976,51.2558565 60.9962109,51.8339844 C60.5372243,52.4121123 60.3077344,53.2109324 60.3077344,54.2304688 L60.3077344,55.2734375 C60.3077344,56.2578174 60.5313649,57.0429658 60.9786328,57.6289062 C61.4259007,58.2148467 62.0303868,58.5078125 62.7921094,58.5078125 C63.5460194,58.5078125 64.1143731,58.3271502 64.4971875,57.9658203 C64.8800019,57.6044904 65.1163277,57.0625036 65.2061719,56.3398438 L65.9327344,56.3398438 Z M71.7103125,53.2578125 C71.5618742,53.2304686 71.4036727,53.2167969 71.2357031,53.2167969 C70.7982009,53.2167969 70.4280874,53.338866 70.1253515,53.5830078 C69.8226157,53.8271497 69.6067975,54.1816383 69.4778906,54.6464844 L69.4778906,59 L68.780625,59 L68.780625,52.6601562 L69.4661719,52.6601562 L69.4778906,53.6679688 C69.8489862,52.917965 70.4446834,52.5429688 71.265,52.5429688 C71.4603135,52.5429688 71.6146088,52.5683591 71.7278906,52.6191406 L71.7103125,53.2578125 Z M76.4214844,59.1171875 C75.8824192,59.1171875 75.3951193,58.9843763 74.9595703,58.71875 C74.5240212,58.4531237 74.1851574,58.0830102 73.9429687,57.6083984 C73.70078,57.1337867 73.5796875,56.6015654 73.5796875,56.0117188 L73.5796875,55.7597656 C73.5796875,55.1503876 73.6978504,54.6015649 73.9341797,54.1132812 C74.170509,53.6249976 74.4996072,53.2412123 74.9214844,52.9619141 C75.3433615,52.6826158 75.8003881,52.5429688 76.2925781,52.5429688 C77.0621132,52.5429688 77.6724587,52.8056614 78.1236328,53.3310547 C78.5748069,53.8564479 78.8003906,54.5742142 78.8003906,55.484375 L78.8003906,55.8769531 L74.2769531,55.8769531 L74.2769531,56.0117188 C74.2769531,56.7304723 74.4830057,57.3290992 74.8951172,57.8076172 C75.3072286,58.2861352 75.8257781,58.5253906 76.4507812,58.5253906 C76.8257831,58.5253906 77.1568345,58.4570319 77.4439453,58.3203125 C77.7310561,58.1835931 77.9917957,57.9648453 78.2261719,57.6640625 L78.665625,57.9980469 C78.1499974,58.7441444 77.401958,59.1171875 76.4214844,59.1171875 L76.4214844,59.1171875 Z M76.2925781,53.140625 C75.7652317,53.140625 75.3209002,53.3339824 74.9595703,53.7207031 C74.5982404,54.1074238 74.378516,54.6269499 74.3003906,55.2792969 L78.103125,55.2792969 L78.103125,55.203125 C78.0835936,54.593747 77.9097672,54.0976582 77.5816406,53.7148438 C77.253514,53.3320293 76.8238308,53.140625 76.2925781,53.140625 L76.2925781,53.140625 Z M83.8807031,59.1171875 C83.3416379,59.1171875 82.8543381,58.9843763 82.418789,58.71875 C81.98324,58.4531237 81.6443762,58.0830102 81.4021875,57.6083984 C81.1599988,57.1337867 81.0389062,56.6015654 81.0389062,56.0117188 L81.0389062,55.7597656 C81.0389062,55.1503876 81.1570691,54.6015649 81.3933984,54.1132812 C81.6297277,53.6249976 81.958826,53.2412123 82.3807031,52.9619141 C82.8025802,52.6826158 83.2596069,52.5429688 83.7517968,52.5429688 C84.5213319,52.5429688 85.1316774,52.8056614 85.5828515,53.3310547 C86.0340257,53.8564479 86.2596093,54.5742142 86.2596093,55.484375 L86.2596093,55.8769531 L81.7361718,55.8769531 L81.7361718,56.0117188 C81.7361718,56.7304723 81.9422245,57.3290992 82.3543359,57.8076172 C82.7664473,58.2861352 83.2849968,58.5253906 83.91,58.5253906 C84.2850018,58.5253906 84.6160532,58.4570319 84.903164,58.3203125 C85.1902748,58.1835931 85.4510144,57.9648453 85.6853906,57.6640625 L86.1248437,57.9980469 C85.6092161,58.7441444 84.8611767,59.1171875 83.8807031,59.1171875 L83.8807031,59.1171875 Z M83.7517968,53.140625 C83.2244505,53.140625 82.780119,53.3339824 82.418789,53.7207031 C82.0574591,54.1074238 81.8377347,54.6269499 81.7596093,55.2792969 L85.5623437,55.2792969 L85.5623437,55.203125 C85.5428124,54.593747 85.368986,54.0976582 85.0408593,53.7148438 C84.7127327,53.3320293 84.2830495,53.140625 83.7517968,53.140625 L83.7517968,53.140625 Z M90.3907031,55.8066406 L89.5879687,56.5800781 L89.5879687,59 L88.8848437,59 L88.8848437,50 L89.5879687,50 L89.5879687,55.7597656 L90.2500781,55.0449219 L92.6758593,52.6601562 L93.560625,52.6601562 L90.8711718,55.3320312 L93.795,59 L92.9571093,59 L90.3907031,55.8066406 Z M104.255625,58.390625 L108.468516,58.390625 L108.468516,59 L103.529063,59 L103.529063,50.46875 L104.255625,50.46875 L104.255625,58.390625 Z M114.949219,59 C114.878906,58.8007803 114.833984,58.5058613 114.814453,58.1152344 C114.568358,58.4355485 114.254885,58.6826163 113.874023,58.8564453 C113.493162,59.0302743 113.089846,59.1171875 112.664062,59.1171875 C112.054684,59.1171875 111.561525,58.9472673 111.18457,58.6074219 C110.807615,58.2675764 110.619141,57.8378932 110.619141,57.3183594 C110.619141,56.7011688 110.875974,56.2128924 111.389648,55.8535156 C111.903323,55.4941388 112.619136,55.3144531 113.537109,55.3144531 L114.808594,55.3144531 L114.808594,54.59375 C114.808594,54.1406227 114.668947,53.784181 114.389648,53.5244141 C114.11035,53.2646471 113.703128,53.1347656 113.167969,53.1347656 C112.679685,53.1347656 112.275392,53.2597644 111.955078,53.5097656 C111.634764,53.7597669 111.474609,54.0605451 111.474609,54.4121094 L110.771484,54.40625 C110.771484,53.9023412 111.005857,53.4658222 111.474609,53.0966797 C111.943362,52.7275372 112.519528,52.5429688 113.203125,52.5429688 C113.91016,52.5429688 114.467771,52.7197248 114.875977,53.0732422 C115.284182,53.4267596 115.494141,53.9199187 115.505859,54.5527344 L115.505859,57.5527344 C115.505859,58.1660187 115.570312,58.6249985 115.699219,58.9296875 L115.699219,59 L114.949219,59 Z M112.746094,58.4960938 C113.214846,58.4960938 113.633787,58.3828136 114.00293,58.15625 C114.372072,57.9296864 114.640624,57.626955 114.808594,57.2480469 L114.808594,55.8535156 L113.554688,55.8535156 C112.855465,55.8613282 112.308596,55.9892566 111.914062,56.2373047 C111.519529,56.4853528 111.322266,56.8261697 111.322266,57.2597656 C111.322266,57.6152362 111.4541,57.9101551 111.717773,58.1445312 C111.981447,58.3789074 112.324217,58.4960938 112.746094,58.4960938 L112.746094,58.4960938 Z M120.140859,55.8066406 L119.338125,56.5800781 L119.338125,59 L118.635,59 L118.635,50 L119.338125,50 L119.338125,55.7597656 L120.000234,55.0449219 L122.426016,52.6601562 L123.310781,52.6601562 L120.621328,55.3320312 L123.545156,59 L122.707266,59 L120.140859,55.8066406 Z M128.109844,59.1171875 C127.570779,59.1171875 127.083479,58.9843763 126.64793,58.71875 C126.212381,58.4531237 125.873517,58.0830102 125.631328,57.6083984 C125.389139,57.1337867 125.268047,56.6015654 125.268047,56.0117188 L125.268047,55.7597656 C125.268047,55.1503876 125.38621,54.6015649 125.622539,54.1132812 C125.858868,53.6249976 126.187967,53.2412123 126.609844,52.9619141 C127.031721,52.6826158 127.488748,52.5429688 127.980937,52.5429688 C128.750473,52.5429688 129.360818,52.8056614 129.811992,53.3310547 C130.263166,53.8564479 130.48875,54.5742142 130.48875,55.484375 L130.48875,55.8769531 L125.965312,55.8769531 L125.965312,56.0117188 C125.965312,56.7304723 126.171365,57.3290992 126.583477,57.8076172 C126.995588,58.2861352 127.514137,58.5253906 128.139141,58.5253906 C128.514142,58.5253906 128.845194,58.4570319 129.132305,58.3203125 C129.419415,58.1835931 129.680155,57.9648453 129.914531,57.6640625 L130.353984,57.9980469 C129.838357,58.7441444 129.090317,59.1171875 128.109844,59.1171875 L128.109844,59.1171875 Z M127.980937,53.140625 C127.453591,53.140625 127.00926,53.3339824 126.64793,53.7207031 C126.2866,54.1074238 126.066875,54.6269499 125.98875,55.2792969 L129.791484,55.2792969 L129.791484,55.203125 C129.771953,54.593747 129.598127,54.0976582 129.27,53.7148438 C128.941873,53.3320293 128.51219,53.140625 127.980937,53.140625 L127.980937,53.140625 Z M133.049531,58.578125 C133.049531,58.4414056 133.093476,58.3251958 133.181367,58.2294922 C133.269258,58.1337886 133.391327,58.0859375 133.547578,58.0859375 C133.703829,58.0859375 133.826875,58.1337886 133.916719,58.2294922 C134.006563,58.3251958 134.051484,58.4414056 134.051484,58.578125 C134.051484,58.7148444 134.006563,58.827148 133.916719,58.9150391 C133.826875,59.0029301 133.703829,59.046875 133.547578,59.046875 C133.391327,59.046875 133.269258,59.0029301 133.181367,58.9150391 C133.093476,58.827148 133.049531,58.7148444 133.049531,58.578125 L133.049531,58.578125 Z M149.351953,56.609375 L145.478906,56.609375 L144.6,59 L143.844141,59 L147.072656,50.46875 L147.758203,50.46875 L150.986719,59 L150.236719,59 L149.351953,56.609375 Z M145.701563,55.9941406 L149.123438,55.9941406 L147.4125,51.3476562 L145.701563,55.9941406 Z M165.783281,55.8945312 C165.783281,56.8828174 165.564534,57.6669893 165.127031,58.2470703 C164.689529,58.8271513 164.101644,59.1171875 163.363359,59.1171875 C162.480543,59.1171875 161.81258,58.7890658 161.359453,58.1328125 L161.330156,59 L160.673906,59 L160.673906,50 L161.371172,50 L161.371172,53.5800781 C161.816487,52.8886684 162.476636,52.5429688 163.351641,52.5429688 C164.101644,52.5429688 164.694412,52.8290987 165.129961,53.4013672 C165.56551,53.9736357 165.783281,54.7695262 165.783281,55.7890625 L165.783281,55.8945312 Z M165.080156,55.7714844 C165.080156,54.9355427 164.918049,54.2900413 164.593828,53.8349609 C164.269608,53.3798805 163.812581,53.1523438 163.222734,53.1523438 C162.773513,53.1523438 162.392658,53.2626942 162.080156,53.4833984 C161.767655,53.7041027 161.531329,54.0273416 161.371172,54.453125 L161.371172,57.3125 C161.722736,58.109379 162.343824,58.5078125 163.234453,58.5078125 C163.812581,58.5078125 164.264725,58.2792992 164.590899,57.8222656 C164.917072,57.3652321 165.080156,56.6816452 165.080156,55.7714844 L165.080156,55.7714844 Z M171.045234,59.1171875 C170.506169,59.1171875 170.018869,58.9843763 169.58332,58.71875 C169.147771,58.4531237 168.808908,58.0830102 168.566719,57.6083984 C168.32453,57.1337867 168.203438,56.6015654 168.203438,56.0117188 L168.203438,55.7597656 C168.203438,55.1503876 168.3216,54.6015649 168.55793,54.1132812 C168.794259,53.6249976 169.123357,53.2412123 169.545234,52.9619141 C169.967112,52.6826158 170.424138,52.5429688 170.916328,52.5429688 C171.685863,52.5429688 172.296209,52.8056614 172.747383,53.3310547 C173.198557,53.8564479 173.424141,54.5742142 173.424141,55.484375 L173.424141,55.8769531 L168.900703,55.8769531 L168.900703,56.0117188 C168.900703,56.7304723 169.106756,57.3290992 169.518867,57.8076172 C169.930979,58.2861352 170.449528,58.5253906 171.074531,58.5253906 C171.449533,58.5253906 171.780585,58.4570319 172.067695,58.3203125 C172.354806,58.1835931 172.615546,57.9648453 172.849922,57.6640625 L173.289375,57.9980469 C172.773747,58.7441444 172.025708,59.1171875 171.045234,59.1171875 L171.045234,59.1171875 Z M170.916328,53.140625 C170.388982,53.140625 169.94465,53.3339824 169.58332,53.7207031 C169.22199,54.1074238 169.002266,54.6269499 168.924141,55.2792969 L172.726875,55.2792969 L172.726875,55.203125 C172.707344,54.593747 172.533517,54.0976582 172.205391,53.7148438 C171.877264,53.3320293 171.447581,53.140625 170.916328,53.140625 L170.916328,53.140625 Z M180.051328,59 C179.981015,58.8007803 179.936094,58.5058613 179.916563,58.1152344 C179.670468,58.4355485 179.356994,58.6826163 178.976133,58.8564453 C178.595272,59.0302743 178.191955,59.1171875 177.766172,59.1171875 C177.156794,59.1171875 176.663635,58.9472673 176.28668,58.6074219 C175.909725,58.2675764 175.72125,57.8378932 175.72125,57.3183594 C175.72125,56.7011688 175.978083,56.2128924 176.491758,55.8535156 C177.005432,55.4941388 177.721245,55.3144531 178.639219,55.3144531 L179.910703,55.3144531 L179.910703,54.59375 C179.910703,54.1406227 179.771056,53.784181 179.491758,53.5244141 C179.21246,53.2646471 178.805237,53.1347656 178.270078,53.1347656 C177.781794,53.1347656 177.377502,53.2597644 177.057188,53.5097656 C176.736873,53.7597669 176.576719,54.0605451 176.576719,54.4121094 L175.873594,54.40625 C175.873594,53.9023412 176.107966,53.4658222 176.576719,53.0966797 C177.045471,52.7275372 177.621637,52.5429688 178.305234,52.5429688 C179.012269,52.5429688 179.569881,52.7197248 179.978086,53.0732422 C180.386291,53.4267596 180.59625,53.9199187 180.607969,54.5527344 L180.607969,57.5527344 C180.607969,58.1660187 180.672421,58.6249985 180.801328,58.9296875 L180.801328,59 L180.051328,59 Z M177.848203,58.4960938 C178.316956,58.4960938 178.735897,58.3828136 179.105039,58.15625 C179.474182,57.9296864 179.742734,57.626955 179.910703,57.2480469 L179.910703,55.8535156 L178.656797,55.8535156 C177.957575,55.8613282 177.410705,55.9892566 177.016172,56.2373047 C176.621639,56.4853528 176.424375,56.8261697 176.424375,57.2597656 C176.424375,57.6152362 176.55621,57.9101551 176.819883,58.1445312 C177.083556,58.3789074 177.426326,58.4960938 177.848203,58.4960938 L177.848203,58.4960938 Z M184.826953,51.0371094 L184.826953,52.6601562 L186.139453,52.6601562 L186.139453,53.234375 L184.826953,53.234375 L184.826953,57.4589844 C184.826953,57.8105486 184.890429,58.0722648 185.017383,58.2441406 C185.144337,58.4160165 185.356249,58.5019531 185.653125,58.5019531 C185.770313,58.5019531 185.959764,58.4824221 186.221484,58.4433594 L186.250781,59.0175781 C186.067187,59.0839847 185.817189,59.1171875 185.500781,59.1171875 C185.02031,59.1171875 184.670704,58.9775405 184.451953,58.6982422 C184.233202,58.4189439 184.123828,58.0078152 184.123828,57.4648438 L184.123828,53.234375 L182.957813,53.234375 L182.957813,52.6601562 L184.123828,52.6601562 L184.123828,51.0371094 L184.826953,51.0371094 Z M189.637734,59 L188.934609,59 L188.934609,52.6601562 L189.637734,52.6601562 L189.637734,59 Z M188.811563,50.8261719 C188.811563,50.6933587 188.854531,50.5810551 188.940469,50.4892578 C189.026407,50.3974605 189.143593,50.3515625 189.292031,50.3515625 C189.44047,50.3515625 189.558632,50.3974605 189.646523,50.4892578 C189.734415,50.5810551 189.778359,50.6933587 189.778359,50.8261719 C189.778359,50.958985 189.734415,51.0703121 189.646523,51.1601562 C189.558632,51.2500004 189.44047,51.2949219 189.292031,51.2949219 C189.143593,51.2949219 189.026407,51.2500004 188.940469,51.1601562 C188.854531,51.0703121 188.811563,50.958985 188.811563,50.8261719 L188.811563,50.8261719 Z M193.305938,59 L193.305938,53.234375 L192.257109,53.234375 L192.257109,52.6601562 L193.305938,52.6601562 L193.305938,51.8925781 C193.305938,51.2441374 193.470975,50.7460955 193.801055,50.3984375 C194.131134,50.0507795 194.591091,49.8769531 195.180938,49.8769531 C195.446564,49.8769531 195.694608,49.9101559 195.925078,49.9765625 L195.872344,50.5625 C195.67703,50.5156248 195.464142,50.4921875 195.233672,50.4921875 C194.846951,50.4921875 194.546173,50.6123035 194.331328,50.8525391 C194.116483,51.0927746 194.009063,51.4335915 194.009063,51.875 L194.009063,52.6601562 L195.520781,52.6601562 L195.520781,53.234375 L194.009063,53.234375 L194.009063,59 L193.305938,59 Z M202.112813,58.1972656 C201.690935,58.8105499 201.017114,59.1171875 200.091328,59.1171875 C199.415544,59.1171875 198.901877,58.9209004 198.550313,58.5283203 C198.198748,58.1357402 198.019063,57.5546913 198.01125,56.7851562 L198.01125,52.6601562 L198.708516,52.6601562 L198.708516,56.6972656 C198.708516,57.9043029 199.196792,58.5078125 200.173359,58.5078125 C201.188989,58.5078125 201.831561,58.0878948 202.101094,57.2480469 L202.101094,52.6601562 L202.804219,52.6601562 L202.804219,59 L202.124531,59 L202.112813,58.1972656 Z M206.671641,59 L205.968516,59 L205.968516,50 L206.671641,50 L206.671641,59 Z M6.01171875,71.8945312 C6.01171875,72.8828174 5.79297094,73.6669893 5.35546875,74.2470703 C4.91796656,74.8271513 4.33203492,75.1171875 3.59765625,75.1171875 C2.73046441,75.1171875 2.06640855,74.812503 1.60546875,74.203125 L1.60546875,77.4375 L0.908203125,77.4375 L0.908203125,68.6601562 L1.55859375,68.6601562 L1.59375,69.5566406 C2.05078354,68.880856 2.71288629,68.5429688 3.58007812,68.5429688 C4.33789441,68.5429688 4.93261503,68.8300753 5.36425781,69.4042969 C5.7959006,69.9785185 6.01171875,70.7753855 6.01171875,71.7949219 L6.01171875,71.8945312 Z M5.30859375,71.7714844 C5.30859375,70.9628866 5.14257979,70.3242211 4.81054688,69.8554688 C4.47851396,69.3867164 4.01562797,69.1523438 3.421875,69.1523438 C2.99218535,69.1523438 2.62304842,69.2558583 2.31445312,69.4628906 C2.00585783,69.6699229 1.76953207,69.9707012 1.60546875,70.3652344 L1.60546875,73.40625 C1.77343834,73.7695331 2.01367031,74.046874 2.32617188,74.2382812 C2.63867344,74.4296885 3.00781037,74.5253906 3.43359375,74.5253906 C4.02344045,74.5253906 4.48339679,74.2900414 4.81347656,73.8193359 C5.14355634,73.3486305 5.30859375,72.6660201 5.30859375,71.7714844 L5.30859375,71.7714844 Z M9.60960937,75 L8.90648437,75 L8.90648437,66 L9.60960937,66 L9.60960937,75 Z M16.7758594,75 C16.7055465,74.8007803 16.6606251,74.5058613 16.6410937,74.1152344 C16.3949988,74.4355485 16.0815253,74.6826163 15.700664,74.8564453 C15.3198028,75.0302743 14.9164865,75.1171875 14.4907031,75.1171875 C13.8813251,75.1171875 13.3881659,74.9472673 13.0112109,74.6074219 C12.6342559,74.2675764 12.4457812,73.8378932 12.4457812,73.3183594 C12.4457812,72.7011688 12.7026146,72.2128924 13.216289,71.8535156 C13.7299635,71.4941388 14.4457766,71.3144531 15.36375,71.3144531 L16.6352344,71.3144531 L16.6352344,70.59375 C16.6352344,70.1406227 16.4955873,69.784181 16.216289,69.5244141 C15.9369908,69.2646471 15.5297683,69.1347656 14.9946094,69.1347656 C14.5063257,69.1347656 14.1020328,69.2597644 13.7817187,69.5097656 C13.4614046,69.7597669 13.30125,70.0605451 13.30125,70.4121094 L12.598125,70.40625 C12.598125,69.9023412 12.8324976,69.4658222 13.30125,69.0966797 C13.7700023,68.7275372 14.3461684,68.5429688 15.0297656,68.5429688 C15.7368004,68.5429688 16.294412,68.7197248 16.7026172,69.0732422 C17.1108223,69.4267596 17.3207812,69.9199187 17.3325,70.5527344 L17.3325,73.5527344 C17.3325,74.1660187 17.3969525,74.6249985 17.5258594,74.9296875 L17.5258594,75 L16.7758594,75 Z M14.5727344,74.4960938 C15.0414867,74.4960938 15.4604278,74.3828136 15.8295703,74.15625 C16.1987128,73.9296864 16.4672648,73.626955 16.6352344,73.2480469 L16.6352344,71.8535156 L15.3813281,71.8535156 C14.6821059,71.8613282 14.1352363,71.9892566 13.7407031,72.2373047 C13.3461699,72.4853528 13.1489062,72.8261697 13.1489062,73.2597656 C13.1489062,73.6152362 13.2807409,73.9101551 13.544414,74.1445312 C13.8080872,74.3789074 14.1508572,74.4960938 14.5727344,74.4960938 L14.5727344,74.4960938 Z M22.8053906,74.5253906 C23.2936743,74.5253906 23.7028499,74.3876967 24.0329297,74.1123047 C24.3630094,73.8369127 24.5417186,73.4804709 24.5690625,73.0429688 L25.2428906,73.0429688 C25.2233592,73.4296894 25.1022667,73.782225 24.8796093,74.1005859 C24.656952,74.4189469 24.3610565,74.6679679 23.991914,74.8476562 C23.6227716,75.0273446 23.2272677,75.1171875 22.8053906,75.1171875 C21.9733552,75.1171875 21.3141821,74.8281279 20.8278515,74.25 C20.341521,73.6718721 20.0983593,72.8945361 20.0983593,71.9179688 L20.0983593,71.7070312 C20.0983593,71.0820281 20.2077333,70.5292993 20.4264843,70.0488281 C20.6452354,69.568357 20.9587089,69.1972669 21.366914,68.9355469 C21.7751192,68.6738268 22.2526535,68.5429688 22.7995312,68.5429688 C23.4948472,68.5429688 24.0680837,68.7499979 24.5192578,69.1640625 C24.9704319,69.5781271 25.2116404,70.1230435 25.2428906,70.7988281 L24.5690625,70.7988281 C24.5378123,70.3027319 24.3591032,69.9023453 24.0329297,69.5976562 C23.7067562,69.2929672 23.2956275,69.140625 22.7995312,69.140625 C22.1667156,69.140625 21.6755095,69.3691383 21.3258984,69.8261719 C20.9762873,70.2832054 20.8014843,70.923824 20.8014843,71.7480469 L20.8014843,71.953125 C20.8014843,72.7617228 20.9762873,73.3925759 21.3258984,73.8457031 C21.6755095,74.2988304 22.1686687,74.5253906 22.8053906,74.5253906 L22.8053906,74.5253906 Z M30.3583593,75.1171875 C29.8192941,75.1171875 29.3319943,74.9843763 28.8964453,74.71875 C28.4608962,74.4531237 28.1220324,74.0830102 27.8798437,73.6083984 C27.637655,73.1337867 27.5165625,72.6015654 27.5165625,72.0117188 L27.5165625,71.7597656 C27.5165625,71.1503876 27.6347253,70.6015649 27.8710546,70.1132812 C28.107384,69.6249976 28.4364822,69.2412123 28.8583593,68.9619141 C29.2802364,68.6826158 29.7372631,68.5429688 30.2294531,68.5429688 C30.9989882,68.5429688 31.6093336,68.8056614 32.0605078,69.3310547 C32.5116819,69.8564479 32.7372656,70.5742142 32.7372656,71.484375 L32.7372656,71.8769531 L28.2138281,71.8769531 L28.2138281,72.0117188 C28.2138281,72.7304723 28.4198807,73.3290992 28.8319921,73.8076172 C29.2441036,74.2861352 29.7626531,74.5253906 30.3876562,74.5253906 C30.7626581,74.5253906 31.0937095,74.4570319 31.3808203,74.3203125 C31.6679311,74.1835931 31.9286707,73.9648453 32.1630468,73.6640625 L32.6025,73.9980469 C32.0868724,74.7441444 31.338833,75.1171875 30.3583593,75.1171875 L30.3583593,75.1171875 Z M30.2294531,69.140625 C29.7021067,69.140625 29.2577752,69.3339824 28.8964453,69.7207031 C28.5351153,70.1074238 28.315391,70.6269499 28.2372656,71.2792969 L32.04,71.2792969 L32.04,71.203125 C32.0204686,70.593747 31.8466422,70.0976582 31.5185156,69.7148438 C31.1903889,69.3320293 30.7607057,69.140625 30.2294531,69.140625 L30.2294531,69.140625 Z M40.6303124,67.0371094 L40.6303124,68.6601562 L41.9428124,68.6601562 L41.9428124,69.234375 L40.6303124,69.234375 L40.6303124,73.4589844 C40.6303124,73.8105486 40.6937884,74.0722648 40.8207421,74.2441406 C40.9476959,74.4160165 41.1596078,74.5019531 41.4564843,74.5019531 C41.5736724,74.5019531 41.7631236,74.4824221 42.0248437,74.4433594 L42.0541406,75.0175781 C41.8705459,75.0839847 41.6205484,75.1171875 41.3041406,75.1171875 C40.8236694,75.1171875 40.4740635,74.9775405 40.2553124,74.6982422 C40.0365613,74.4189439 39.9271874,74.0078152 39.9271874,73.4648438 L39.9271874,69.234375 L38.7611718,69.234375 L38.7611718,68.6601562 L39.9271874,68.6601562 L39.9271874,67.0371094 L40.6303124,67.0371094 Z M44.1520312,71.7363281 C44.1520312,71.1269501 44.2701941,70.5781274 44.5065234,70.0898438 C44.7428527,69.6015601 45.0768337,69.221681 45.5084765,68.9501953 C45.9401193,68.6787096 46.4293722,68.5429688 46.9762499,68.5429688 C47.8200042,68.5429688 48.5035911,68.8388642 49.0270312,69.4306641 C49.5504713,70.0224639 49.8121874,70.8066357 49.8121874,71.7832031 L49.8121874,71.9296875 C49.8121874,72.5429718 49.6940246,73.0947241 49.4576952,73.5849609 C49.2213659,74.0751978 48.8883615,74.4531237 48.4586718,74.71875 C48.0289822,74.9843763 47.5387527,75.1171875 46.9879687,75.1171875 C46.1481207,75.1171875 45.4655104,74.821292 44.9401171,74.2294922 C44.4147239,73.6376924 44.1520312,72.8535205 44.1520312,71.8769531 L44.1520312,71.7363281 Z M44.8551562,71.9296875 C44.8551562,72.6875038 45.0514433,73.3095679 45.4440234,73.7958984 C45.8366035,74.282229 46.3512467,74.5253906 46.9879687,74.5253906 C47.6207843,74.5253906 48.1334745,74.282229 48.5260546,73.7958984 C48.9186347,73.3095679 49.1149218,72.6679727 49.1149218,71.8710938 L49.1149218,71.7363281 C49.1149218,71.2519507 49.025079,70.8085958 48.8453906,70.40625 C48.6657022,70.0039042 48.4137516,69.6923839 48.0895312,69.4716797 C47.7653108,69.2509755 47.3942208,69.140625 46.9762499,69.140625 C46.3512468,69.140625 45.8414863,69.3857397 45.4469531,69.8759766 C45.0524198,70.3662134 44.8551562,71.0078085 44.8551562,71.8007812 L44.8551562,71.9296875 Z M59.1524999,75.1171875 C58.6134347,75.1171875 58.1261349,74.9843763 57.6905859,74.71875 C57.2550368,74.4531237 56.916173,74.0830102 56.6739843,73.6083984 C56.4317956,73.1337867 56.310703,72.6015654 56.310703,72.0117188 L56.310703,71.7597656 C56.310703,71.1503876 56.4288659,70.6015649 56.6651952,70.1132812 C56.9015245,69.6249976 57.2306228,69.2412123 57.6524999,68.9619141 C58.074377,68.6826158 58.5314037,68.5429688 59.0235937,68.5429688 C59.7931288,68.5429688 60.4034742,68.8056614 60.8546484,69.3310547 C61.3058225,69.8564479 61.5314062,70.5742142 61.5314062,71.484375 L61.5314062,71.8769531 L57.0079687,71.8769531 L57.0079687,72.0117188 C57.0079687,72.7304723 57.2140213,73.3290992 57.6261327,73.8076172 C58.0382442,74.2861352 58.5567937,74.5253906 59.1817968,74.5253906 C59.5567987,74.5253906 59.88785,74.4570319 60.1749609,74.3203125 C60.4620717,74.1835931 60.7228112,73.9648453 60.9571874,73.6640625 L61.3966405,73.9980469 C60.881013,74.7441444 60.1329736,75.1171875 59.1524999,75.1171875 L59.1524999,75.1171875 Z M59.0235937,69.140625 C58.4962473,69.140625 58.0519158,69.3339824 57.6905859,69.7207031 C57.3292559,70.1074238 57.1095316,70.6269499 57.0314062,71.2792969 L60.8341405,71.2792969 L60.8341405,71.203125 C60.8146092,70.593747 60.6407828,70.0976582 60.3126562,69.7148438 C59.9845295,69.3320293 59.5548463,69.140625 59.0235937,69.140625 L59.0235937,69.140625 Z M64.8246093,68.6601562 L64.8480468,69.7441406 C65.0863292,69.3535137 65.3832013,69.0556651 65.7386718,68.8505859 C66.0941423,68.6455068 66.4867165,68.5429688 66.9164062,68.5429688 C67.5960971,68.5429688 68.1019514,68.7343731 68.4339843,69.1171875 C68.7660172,69.5000019 68.9339843,70.0742149 68.9378905,70.8398438 L68.9378905,75 L68.2406249,75 L68.2406249,70.8339844 C68.2367186,70.2675753 68.1166026,69.8457045 67.8802733,69.5683594 C67.643944,69.2910142 67.2660181,69.1523438 66.7464843,69.1523438 C66.3128884,69.1523438 65.9291031,69.2880846 65.5951171,69.5595703 C65.261131,69.831056 65.0140632,70.1972633 64.8539062,70.6582031 L64.8539062,75 L64.1566405,75 L64.1566405,68.6601562 L64.8246093,68.6601562 Z M72.7642968,68.6601562 L72.7642968,75.7558594 C72.7642968,76.3417998 72.6236732,76.789061 72.3424218,77.0976562 C72.0611704,77.4062515 71.647112,77.5605469 71.1002343,77.5605469 C70.8892957,77.5605469 70.6842196,77.5234379 70.4849999,77.4492188 L70.4967186,76.8691406 C70.6685945,76.9199221 70.844374,76.9453125 71.0240624,76.9453125 C71.7193784,76.9453125 72.0670311,76.5449259 72.0670311,75.7441406 L72.0670311,68.6601562 L72.7642968,68.6601562 Z M72.4185936,66.3515625 C72.5709382,66.3515625 72.6900776,66.3974605 72.7760155,66.4892578 C72.8619534,66.5810551 72.9049218,66.6933587 72.9049218,66.8261719 C72.9049218,66.958985 72.8619534,67.0703121 72.7760155,67.1601562 C72.6900776,67.2500004 72.5709382,67.2949219 72.4185936,67.2949219 C72.2701554,67.2949219 72.1539456,67.2500004 72.0699608,67.1601562 C71.985976,67.0703121 71.9439843,66.958985 71.9439843,66.8261719 C71.9439843,66.6933587 71.985976,66.5810551 72.0699608,66.4892578 C72.1539456,66.3974605 72.2701554,66.3515625 72.4185936,66.3515625 L72.4185936,66.3515625 Z M75.6180468,71.7363281 C75.6180468,71.1269501 75.7362096,70.5781274 75.9725389,70.0898438 C76.2088683,69.6015601 76.5428493,69.221681 76.9744921,68.9501953 C77.4061349,68.6787096 77.8953878,68.5429688 78.4422655,68.5429688 C79.2860197,68.5429688 79.9696066,68.8388642 80.4930468,69.4306641 C81.0164869,70.0224639 81.278203,70.8066357 81.278203,71.7832031 L81.278203,71.9296875 C81.278203,72.5429718 81.1600401,73.0947241 80.9237108,73.5849609 C80.6873815,74.0751978 80.354377,74.4531237 79.9246874,74.71875 C79.4949977,74.9843763 79.0047683,75.1171875 78.4539843,75.1171875 C77.6141363,75.1171875 76.931526,74.821292 76.4061327,74.2294922 C75.8807394,73.6376924 75.6180468,72.8535205 75.6180468,71.8769531 L75.6180468,71.7363281 Z M76.3211718,71.9296875 C76.3211718,72.6875038 76.5174589,73.3095679 76.9100389,73.7958984 C77.302619,74.282229 77.8172623,74.5253906 78.4539843,74.5253906 C79.0867999,74.5253906 79.5994901,74.282229 79.9920702,73.7958984 C80.3846503,73.3095679 80.5809374,72.6679727 80.5809374,71.8710938 L80.5809374,71.7363281 C80.5809374,71.2519507 80.4910945,70.8085958 80.3114061,70.40625 C80.1317177,70.0039042 79.8797671,69.6923839 79.5555468,69.4716797 C79.2313264,69.2509755 78.8602364,69.140625 78.4422655,69.140625 C77.8172624,69.140625 77.3075019,69.3857397 76.9129686,69.8759766 C76.5184354,70.3662134 76.3211718,71.0078085 76.3211718,71.8007812 L76.3211718,71.9296875 Z M85.9073436,73.9921875 L87.7589061,68.6601562 L88.5147655,68.6601562 L85.8077343,76.078125 L85.6671093,76.40625 C85.3194513,77.1757851 84.7823473,77.5605469 84.0557811,77.5605469 C83.8878115,77.5605469 83.7081258,77.5332034 83.5167186,77.4785156 L83.5108593,76.8984375 L83.8741405,76.9335938 C84.2178922,76.9335938 84.4962097,76.8486337 84.7091014,76.6787109 C84.9219931,76.5087882 85.1026554,76.2167989 85.2510936,75.8027344 L85.5616405,74.9472656 L83.1710155,68.6601562 L83.9385936,68.6601562 L85.9073436,73.9921875 Z M96.1265624,67.0371094 L96.1265624,68.6601562 L97.4390624,68.6601562 L97.4390624,69.234375 L96.1265624,69.234375 L96.1265624,73.4589844 C96.1265624,73.8105486 96.1900383,74.0722648 96.316992,74.2441406 C96.4439458,74.4160165 96.6558577,74.5019531 96.9527342,74.5019531 C97.0699223,74.5019531 97.2593735,74.4824221 97.5210936,74.4433594 L97.5503905,75.0175781 C97.3667958,75.0839847 97.1167983,75.1171875 96.8003905,75.1171875 C96.3199193,75.1171875 95.9703135,74.9775405 95.7515624,74.6982422 C95.5328113,74.4189439 95.4234374,74.0078152 95.4234374,73.4648438 L95.4234374,69.234375 L94.2574217,69.234375 L94.2574217,68.6601562 L95.4234374,68.6601562 L95.4234374,67.0371094 L96.1265624,67.0371094 Z M100.849453,69.7324219 C101.079923,69.3535137 101.374842,69.0605479 101.734219,68.8535156 C102.093595,68.6464833 102.48617,68.5429688 102.911953,68.5429688 C103.591644,68.5429688 104.097498,68.7343731 104.429531,69.1171875 C104.761564,69.5000019 104.929531,70.0742149 104.933437,70.8398438 L104.933437,75 L104.236172,75 L104.236172,70.8339844 C104.232265,70.2675753 104.112149,69.8457045 103.87582,69.5683594 C103.639491,69.2910142 103.261565,69.1523438 102.742031,69.1523438 C102.308435,69.1523438 101.92465,69.2880846 101.590664,69.5595703 C101.256678,69.831056 101.00961,70.1972633 100.849453,70.6582031 L100.849453,75 L100.152187,75 L100.152187,66 L100.849453,66 L100.849453,69.7324219 Z M110.453203,75.1171875 C109.914138,75.1171875 109.426838,74.9843763 108.991289,74.71875 C108.55574,74.4531237 108.216876,74.0830102 107.974687,73.6083984 C107.732499,73.1337867 107.611406,72.6015654 107.611406,72.0117188 L107.611406,71.7597656 C107.611406,71.1503876 107.729569,70.6015649 107.965898,70.1132812 C108.202228,69.6249976 108.531326,69.2412123 108.953203,68.9619141 C109.37508,68.6826158 109.832107,68.5429688 110.324297,68.5429688 C111.093832,68.5429688 111.704177,68.8056614 112.155351,69.3310547 C112.606526,69.8564479 112.832109,70.5742142 112.832109,71.484375 L112.832109,71.8769531 L108.308672,71.8769531 L108.308672,72.0117188 C108.308672,72.7304723 108.514724,73.3290992 108.926836,73.8076172 C109.338947,74.2861352 109.857497,74.5253906 110.4825,74.5253906 C110.857502,74.5253906 111.188553,74.4570319 111.475664,74.3203125 C111.762775,74.1835931 112.023514,73.9648453 112.25789,73.6640625 L112.697344,73.9980469 C112.181716,74.7441444 111.433677,75.1171875 110.453203,75.1171875 L110.453203,75.1171875 Z M110.324297,69.140625 C109.79695,69.140625 109.352619,69.3339824 108.991289,69.7207031 C108.629959,70.1074238 108.410235,70.6269499 108.332109,71.2792969 L112.134844,71.2792969 L112.134844,71.203125 C112.115312,70.593747 111.941486,70.0976582 111.613359,69.7148438 C111.285233,69.3320293 110.855549,69.140625 110.324297,69.140625 L110.324297,69.140625 Z M123.432187,73.3886719 C123.432187,73.0410139 123.29254,72.7617198 123.013242,72.5507812 C122.733944,72.3398427 122.31305,72.1748053 121.750547,72.0556641 C121.188044,71.9365228 120.751525,71.7998055 120.440976,71.6455078 C120.130428,71.4912102 119.899962,71.3027355 119.74957,71.0800781 C119.599179,70.8574208 119.523984,70.5878922 119.523984,70.2714844 C119.523984,69.7714819 119.732966,69.3584001 120.150937,69.0322266 C120.568908,68.7060531 121.104059,68.5429688 121.756406,68.5429688 C122.463441,68.5429688 123.030818,68.7177717 123.458555,69.0673828 C123.886291,69.4169939 124.100156,69.8730441 124.100156,70.4355469 L123.397031,70.4355469 C123.397031,70.0644513 123.241759,69.7558606 122.931211,69.5097656 C122.620662,69.2636706 122.229065,69.140625 121.756406,69.140625 C121.295466,69.140625 120.925353,69.243163 120.646055,69.4482422 C120.366756,69.6533213 120.227109,69.9199202 120.227109,70.2480469 C120.227109,70.5644547 120.343319,70.8095694 120.575742,70.9833984 C120.808165,71.1572274 121.231989,71.3164055 121.847226,71.4609375 C122.462464,71.6054695 122.923397,71.7597648 123.230039,71.9238281 C123.536681,72.0878914 123.764218,72.2851551 123.912656,72.515625 C124.061094,72.7460949 124.135312,73.025389 124.135312,73.3535156 C124.135312,73.8886746 123.919494,74.3164046 123.487851,74.6367188 C123.056209,74.9570329 122.492738,75.1171875 121.797422,75.1171875 C121.059137,75.1171875 120.46051,74.9384783 120.001523,74.5810547 C119.542537,74.223631 119.313047,73.7714871 119.313047,73.2246094 L120.016172,73.2246094 C120.043516,73.6347677 120.216365,73.9541004 120.534726,74.1826172 C120.853087,74.411134 121.273982,74.5253906 121.797422,74.5253906 C122.285705,74.5253906 122.680233,74.4179698 122.981015,74.203125 C123.281798,73.9882802 123.432187,73.7167985 123.432187,73.3886719 L123.432187,73.3886719 Z M131.049609,74.1972656 C130.627732,74.8105499 129.953911,75.1171875 129.028125,75.1171875 C128.35234,75.1171875 127.838673,74.9209004 127.487109,74.5283203 C127.135545,74.1357402 126.955859,73.5546913 126.948047,72.7851562 L126.948047,68.6601562 L127.645312,68.6601562 L127.645312,72.6972656 C127.645312,73.9043029 128.133589,74.5078125 129.110156,74.5078125 C130.125786,74.5078125 130.768358,74.0878948 131.03789,73.2480469 L131.03789,68.6601562 L131.741015,68.6601562 L131.741015,75 L131.061328,75 L131.049609,74.1972656 Z M135.49125,68.6601562 L135.514687,69.7441406 C135.75297,69.3535137 136.049842,69.0556651 136.405312,68.8505859 C136.760783,68.6455068 137.153357,68.5429688 137.583047,68.5429688 C138.262738,68.5429688 138.768592,68.7343731 139.100625,69.1171875 C139.432658,69.5000019 139.600625,70.0742149 139.604531,70.8398438 L139.604531,75 L138.907265,75 L138.907265,70.8339844 C138.903359,70.2675753 138.783243,69.8457045 138.546914,69.5683594 C138.310585,69.2910142 137.932659,69.1523438 137.413125,69.1523438 C136.979529,69.1523438 136.595744,69.2880846 136.261758,69.5595703 C135.927772,69.831056 135.680704,70.1972633 135.520547,70.6582031 L135.520547,75 L134.823281,75 L134.823281,68.6601562 L135.49125,68.6601562 Z M146.471953,73.3886719 C146.471953,73.0410139 146.332306,72.7617198 146.053008,72.5507812 C145.773709,72.3398427 145.352815,72.1748053 144.790312,72.0556641 C144.227809,71.9365228 143.79129,71.7998055 143.480742,71.6455078 C143.170194,71.4912102 142.939727,71.3027355 142.789336,71.0800781 C142.638944,70.8574208 142.56375,70.5878922 142.56375,70.2714844 C142.56375,69.7714819 142.772732,69.3584001 143.190703,69.0322266 C143.608674,68.7060531 144.143825,68.5429688 144.796172,68.5429688 C145.503206,68.5429688 146.070584,68.7177717 146.49832,69.0673828 C146.926057,69.4169939 147.139922,69.8730441 147.139922,70.4355469 L146.436797,70.4355469 C146.436797,70.0644513 146.281525,69.7558606 145.970976,69.5097656 C145.660428,69.2636706 145.26883,69.140625 144.796172,69.140625 C144.335232,69.140625 143.965118,69.243163 143.68582,69.4482422 C143.406522,69.6533213 143.266875,69.9199202 143.266875,70.2480469 C143.266875,70.5644547 143.383085,70.8095694 143.615508,70.9833984 C143.847931,71.1572274 144.271755,71.3164055 144.886992,71.4609375 C145.502229,71.6054695 145.963162,71.7597648 146.269804,71.9238281 C146.576447,72.0878914 146.803983,72.2851551 146.952422,72.515625 C147.10086,72.7460949 147.175078,73.025389 147.175078,73.3535156 C147.175078,73.8886746 146.95926,74.3164046 146.527617,74.6367188 C146.095974,74.9570329 145.532503,75.1171875 144.837187,75.1171875 C144.098902,75.1171875 143.500276,74.9384783 143.041289,74.5810547 C142.582302,74.223631 142.352812,73.7714871 142.352812,73.2246094 L143.055937,73.2246094 C143.083281,73.6347677 143.256131,73.9541004 143.574492,74.1826172 C143.892853,74.411134 144.313747,74.5253906 144.837187,74.5253906 C145.325471,74.5253906 145.719998,74.4179698 146.020781,74.203125 C146.321564,73.9882802 146.471953,73.7167985 146.471953,73.3886719 L146.471953,73.3886719 Z M152.466328,75.1171875 C151.927263,75.1171875 151.439963,74.9843763 151.004414,74.71875 C150.568865,74.4531237 150.230001,74.0830102 149.987812,73.6083984 C149.745624,73.1337867 149.624531,72.6015654 149.624531,72.0117188 L149.624531,71.7597656 C149.624531,71.1503876 149.742694,70.6015649 149.979023,70.1132812 C150.215353,69.6249976 150.544451,69.2412123 150.966328,68.9619141 C151.388205,68.6826158 151.845232,68.5429688 152.337422,68.5429688 C153.106957,68.5429688 153.717302,68.8056614 154.168476,69.3310547 C154.61965,69.8564479 154.845234,70.5742142 154.845234,71.484375 L154.845234,71.8769531 L150.321797,71.8769531 L150.321797,72.0117188 C150.321797,72.7304723 150.527849,73.3290992 150.939961,73.8076172 C151.352072,74.2861352 151.870622,74.5253906 152.495625,74.5253906 C152.870627,74.5253906 153.201678,74.4570319 153.488789,74.3203125 C153.7759,74.1835931 154.036639,73.9648453 154.271015,73.6640625 L154.710469,73.9980469 C154.194841,74.7441444 153.446802,75.1171875 152.466328,75.1171875 L152.466328,75.1171875 Z M152.337422,69.140625 C151.810075,69.140625 151.365744,69.3339824 151.004414,69.7207031 C150.643084,70.1074238 150.42336,70.6269499 150.345234,71.2792969 L154.147969,71.2792969 L154.147969,71.203125 C154.128437,70.593747 153.954611,70.0976582 153.626484,69.7148438 C153.298358,69.3320293 152.868674,69.140625 152.337422,69.140625 L152.337422,69.140625 Z M158.560312,67.0371094 L158.560312,68.6601562 L159.872812,68.6601562 L159.872812,69.234375 L158.560312,69.234375 L158.560312,73.4589844 C158.560312,73.8105486 158.623788,74.0722648 158.750742,74.2441406 C158.877696,74.4160165 159.089608,74.5019531 159.386484,74.5019531 C159.503672,74.5019531 159.693123,74.4824221 159.954844,74.4433594 L159.98414,75.0175781 C159.800546,75.0839847 159.550548,75.1171875 159.23414,75.1171875 C158.753669,75.1171875 158.404063,74.9775405 158.185312,74.6982422 C157.966561,74.4189439 157.857187,74.0078152 157.857187,73.4648438 L157.857187,69.234375 L156.691172,69.234375 L156.691172,68.6601562 L157.857187,68.6601562 L157.857187,67.0371094 L158.560312,67.0371094 Z M162.521484,74.578125 C162.521484,74.4414056 162.565429,74.3251958 162.65332,74.2294922 C162.741211,74.1337886 162.86328,74.0859375 163.019531,74.0859375 C163.175782,74.0859375 163.298827,74.1337886 163.388672,74.2294922 C163.478516,74.3251958 163.523437,74.4414056 163.523437,74.578125 C163.523437,74.7148444 163.478516,74.827148 163.388672,74.9150391 C163.298827,75.0029301 163.175782,75.046875 163.019531,75.046875 C162.86328,75.046875 162.741211,75.0029301 162.65332,74.9150391 C162.565429,74.827148 162.521484,74.7148444 162.521484,74.578125 L162.521484,74.578125 Z" id="5-million-years-ago"></path>
            </g>
        </g>
    </g>
</svg>