<?xml version="1.0" encoding="UTF-8"?>
<svg width="120px" height="12px" viewBox="0 0 120 12" version="1.1" xmlns="http://www.w3.org/2000/svg" xmlns:xlink="http://www.w3.org/1999/xlink">
    <!-- Generator: Sketch 41.2 (35397) - http://www.bohemiancoding.com/sketch -->
    <title>My Name is Johny</title>
    <desc>Created with Sketch.</desc>
    <defs></defs>
    <g id="Page-1" stroke="none" stroke-width="1" fill="none" fill-rule="evenodd">
        <g id="Desktop-HD-Copy" transform="translate(-811.000000, -403.000000)" fill="#FFFFFF">
            <path d="M812.033203,403.46875 L815.179688,410.998047 L818.337891,403.46875 L819.298828,403.46875 L819.298828,412 L818.578125,412 L818.578125,408.285156 L818.636719,404.476562 L815.460938,412 L814.904297,412 L811.740234,404.505859 L811.798828,408.261719 L811.798828,412 L811.078125,412 L811.078125,403.46875 L812.033203,403.46875 Z M824.823783,410.992188 L826.675346,405.660156 L827.431205,405.660156 L824.724174,413.078125 L824.583549,413.40625 C824.235891,414.175785 823.698787,414.560547 822.972221,414.560547 C822.804251,414.560547 822.624566,414.533203 822.433158,414.478516 L822.427299,413.898438 L822.79058,413.933594 C823.134332,413.933594 823.41265,413.848634 823.625541,413.678711 C823.838433,413.508788 824.019095,413.216799 824.167533,412.802734 L824.47808,411.947266 L822.087455,405.660156 L822.855033,405.660156 L824.823783,410.992188 Z M840.983069,412 L840.262366,412 L835.358069,404.699219 L835.358069,412 L834.631506,412 L834.631506,403.46875 L835.358069,403.46875 L840.268225,410.775391 L840.268225,403.46875 L840.983069,403.46875 L840.983069,412 Z M848.506071,412 C848.435758,411.80078 848.390837,411.505861 848.371305,411.115234 C848.12521,411.435548 847.811737,411.682616 847.430876,411.856445 C847.050014,412.030274 846.646698,412.117188 846.220915,412.117188 C845.611537,412.117188 845.118378,411.947267 844.741423,411.607422 C844.364468,411.267576 844.175993,410.837893 844.175993,410.318359 C844.175993,409.701169 844.432826,409.212892 844.946501,408.853516 C845.460175,408.494139 846.175988,408.314453 847.093962,408.314453 L848.365446,408.314453 L848.365446,407.59375 C848.365446,407.140623 848.225799,406.784181 847.946501,406.524414 C847.667203,406.264647 847.25998,406.134766 846.724821,406.134766 C846.236537,406.134766 845.832245,406.259764 845.51193,406.509766 C845.191616,406.759767 845.031462,407.060545 845.031462,407.412109 L844.328337,407.40625 C844.328337,406.902341 844.562709,406.465822 845.031462,406.09668 C845.500214,405.727537 846.07638,405.542969 846.759977,405.542969 C847.467012,405.542969 848.024624,405.719725 848.432829,406.073242 C848.841034,406.42676 849.050993,406.919919 849.062712,407.552734 L849.062712,410.552734 C849.062712,411.166019 849.127164,411.624998 849.256071,411.929688 L849.256071,412 L848.506071,412 Z M846.302946,411.496094 C846.771698,411.496094 847.19064,411.382814 847.559782,411.15625 C847.928924,410.929686 848.197477,410.626955 848.365446,410.248047 L848.365446,408.853516 L847.11154,408.853516 C846.412318,408.861328 845.865448,408.989257 845.470915,409.237305 C845.076382,409.485353 844.879118,409.82617 844.879118,410.259766 C844.879118,410.615236 845.010953,410.910155 845.274626,411.144531 C845.538299,411.378907 845.881069,411.496094 846.302946,411.496094 Z M853.087667,405.660156 L853.111104,406.691406 C853.345481,406.308592 853.638446,406.021485 853.990011,405.830078 C854.341575,405.638671 854.732196,405.542969 855.161886,405.542969 C856.161891,405.542969 856.79665,405.953121 857.066183,406.773438 C857.292746,406.378904 857.595478,406.075196 857.974386,405.862305 C858.353294,405.649413 858.771258,405.542969 859.228292,405.542969 C860.587674,405.542969 861.281026,406.285149 861.30837,407.769531 L861.30837,412 L860.605245,412 L860.605245,407.822266 C860.601339,407.255857 860.47927,406.835939 860.239034,406.5625 C859.998799,406.289061 859.607201,406.152344 859.064229,406.152344 C858.560321,406.160156 858.134544,406.323241 857.786886,406.641602 C857.439228,406.959963 857.24587,407.347654 857.206808,407.804688 L857.206808,412 L856.503683,412 L856.503683,407.769531 C856.499776,407.22656 856.371848,406.82129 856.119894,406.553711 C855.867939,406.286131 855.480248,406.152344 854.956808,406.152344 C854.515399,406.152344 854.136497,406.278319 853.820089,406.530273 C853.503681,406.782228 853.269308,407.156248 853.116964,407.652344 L853.116964,412 L852.413839,412 L852.413839,405.660156 L853.087667,405.660156 Z M867.055982,412.117188 C866.516916,412.117188 866.029617,411.984376 865.594068,411.71875 C865.158519,411.453124 864.819655,411.08301 864.577466,410.608398 C864.335277,410.133787 864.214185,409.601565 864.214185,409.011719 L864.214185,408.759766 C864.214185,408.150388 864.332348,407.601565 864.568677,407.113281 C864.805006,406.624998 865.134105,406.241212 865.555982,405.961914 C865.977859,405.682616 866.434885,405.542969 866.927075,405.542969 C867.69661,405.542969 868.306956,405.805661 868.75813,406.331055 C869.209304,406.856448 869.434888,407.574214 869.434888,408.484375 L869.434888,408.876953 L864.91145,408.876953 L864.91145,409.011719 C864.91145,409.730472 865.117503,410.329099 865.529614,410.807617 C865.941726,411.286135 866.460275,411.525391 867.085279,411.525391 C867.46028,411.525391 867.791332,411.457032 868.078443,411.320312 C868.365553,411.183593 868.626293,410.964845 868.860669,410.664062 L869.300122,410.998047 C868.784495,411.744144 868.036455,412.117188 867.055982,412.117188 Z M866.927075,406.140625 C866.399729,406.140625 865.955398,406.333982 865.594068,406.720703 C865.232738,407.107424 865.013013,407.62695 864.934888,408.279297 L868.737622,408.279297 L868.737622,408.203125 C868.718091,407.593747 868.544265,407.097658 868.216138,406.714844 C867.888011,406.332029 867.458328,406.140625 866.927075,406.140625 Z M877.537533,412 L876.834408,412 L876.834408,405.660156 L877.537533,405.660156 L877.537533,412 Z M876.711361,403.826172 C876.711361,403.693359 876.754329,403.581055 876.840267,403.489258 C876.926205,403.39746 877.043391,403.351562 877.19183,403.351562 C877.340268,403.351562 877.458431,403.39746 877.546322,403.489258 C877.634213,403.581055 877.678158,403.693359 877.678158,403.826172 C877.678158,403.958985 877.634213,404.070312 877.546322,404.160156 C877.458431,404.25 877.340268,404.294922 877.19183,404.294922 C877.043391,404.294922 876.926205,404.25 876.840267,404.160156 C876.754329,404.070312 876.711361,403.958985 876.711361,403.826172 Z M884.755847,410.388672 C884.755847,410.041014 884.6162,409.76172 884.336902,409.550781 C884.057604,409.339843 883.63671,409.174805 883.074207,409.055664 C882.511704,408.936523 882.075185,408.799805 881.764637,408.645508 C881.454088,408.49121 881.223622,408.302735 881.07323,408.080078 C880.922839,407.857421 880.847644,407.587892 880.847644,407.271484 C880.847644,406.771482 881.056627,406.3584 881.474597,406.032227 C881.892568,405.706053 882.427719,405.542969 883.080066,405.542969 C883.787101,405.542969 884.354478,405.717772 884.782215,406.067383 C885.209951,406.416994 885.423816,406.873044 885.423816,407.435547 L884.720691,407.435547 C884.720691,407.064451 884.565419,406.755861 884.254871,406.509766 C883.944322,406.263671 883.552725,406.140625 883.080066,406.140625 C882.619126,406.140625 882.249013,406.243163 881.969715,406.448242 C881.690416,406.653321 881.550769,406.91992 881.550769,407.248047 C881.550769,407.564455 881.666979,407.809569 881.899402,407.983398 C882.131825,408.157227 882.555649,408.316406 883.170887,408.460938 C883.786124,408.605469 884.247057,408.759765 884.553699,408.923828 C884.860341,409.087891 885.087878,409.285155 885.236316,409.515625 C885.384754,409.746095 885.458972,410.025389 885.458972,410.353516 C885.458972,410.888675 885.243154,411.316405 884.811512,411.636719 C884.379869,411.957033 883.816398,412.117188 883.121082,412.117188 C882.382797,412.117188 881.78417,411.938478 881.325183,411.581055 C880.866197,411.223631 880.636707,410.771487 880.636707,410.224609 L881.339832,410.224609 C881.367176,410.634768 881.540026,410.9541 881.858387,411.182617 C882.176747,411.411134 882.597642,411.525391 883.121082,411.525391 C883.609366,411.525391 884.003893,411.41797 884.304676,411.203125 C884.605458,410.98828 884.755847,410.716799 884.755847,410.388672 Z M896.919039,403.46875 L897.645602,403.46875 L897.645602,409.462891 C897.645602,410.271488 897.412206,410.916013 896.945406,411.396484 C896.478607,411.876956 895.852637,412.117188 895.067477,412.117188 C894.239348,412.117188 893.602635,411.900393 893.15732,411.466797 C892.712006,411.033201 892.489352,410.427738 892.489352,409.650391 L893.210055,409.650391 C893.210055,410.267581 893.372163,410.731444 893.696383,411.041992 C894.020603,411.352541 894.47763,411.507812 895.067477,411.507812 C895.610448,411.507812 896.052827,411.328127 896.394625,410.96875 C896.736424,410.609373 896.911227,410.121097 896.919039,409.503906 L896.919039,403.46875 Z M900.721338,408.736328 C900.721338,408.12695 900.839501,407.578127 901.07583,407.089844 C901.31216,406.60156 901.646141,406.221681 902.077784,405.950195 C902.509426,405.67871 902.998679,405.542969 903.545557,405.542969 C904.389311,405.542969 905.072898,405.838864 905.596338,406.430664 C906.119778,407.022464 906.381495,407.806636 906.381495,408.783203 L906.381495,408.929688 C906.381495,409.542972 906.263332,410.094724 906.027002,410.584961 C905.790673,411.075198 905.457669,411.453124 905.027979,411.71875 C904.598289,411.984376 904.10806,412.117188 903.557276,412.117188 C902.717428,412.117188 902.034817,411.821292 901.509424,411.229492 C900.984031,410.637692 900.721338,409.853521 900.721338,408.876953 L900.721338,408.736328 Z M901.424463,408.929688 C901.424463,409.687504 901.62075,410.309568 902.01333,410.795898 C902.405911,411.282229 902.920554,411.525391 903.557276,411.525391 C904.190091,411.525391 904.702782,411.282229 905.095362,410.795898 C905.487942,410.309568 905.684229,409.667973 905.684229,408.871094 L905.684229,408.736328 C905.684229,408.251951 905.594386,407.808596 905.414698,407.40625 C905.235009,407.003904 904.983059,406.692384 904.658838,406.47168 C904.334618,406.250975 903.963528,406.140625 903.545557,406.140625 C902.920554,406.140625 902.410793,406.38574 902.01626,406.875977 C901.621727,407.366213 901.424463,408.007809 901.424463,408.800781 L901.424463,408.929688 Z M910.043169,406.732422 C910.273638,406.353514 910.568557,406.060548 910.927934,405.853516 C911.287311,405.646483 911.679885,405.542969 912.105669,405.542969 C912.785359,405.542969 913.291214,405.734373 913.623247,406.117188 C913.95528,406.500002 914.123247,407.074215 914.127153,407.839844 L914.127153,412 L913.429887,412 L913.429887,407.833984 C913.425981,407.267575 913.305865,406.845705 913.069536,406.568359 C912.833206,406.291014 912.455281,406.152344 911.935747,406.152344 C911.502151,406.152344 911.118366,406.288085 910.784379,406.55957 C910.450393,406.831056 910.203326,407.197263 910.043169,407.658203 L910.043169,412 L909.345903,412 L909.345903,403 L910.043169,403 L910.043169,406.732422 Z M918.116952,405.660156 L918.140389,406.744141 C918.378672,406.353514 918.675544,406.055665 919.031014,405.850586 C919.386485,405.645507 919.779059,405.542969 920.208749,405.542969 C920.88844,405.542969 921.394294,405.734373 921.726327,406.117188 C922.05836,406.500002 922.226327,407.074215 922.230233,407.839844 L922.230233,412 L921.532968,412 L921.532968,407.833984 C921.529061,407.267575 921.408945,406.845705 921.172616,406.568359 C920.936287,406.291014 920.558361,406.152344 920.038827,406.152344 C919.605231,406.152344 919.221446,406.288085 918.88746,406.55957 C918.553474,406.831056 918.306406,407.197263 918.146249,407.658203 L918.146249,412 L917.448983,412 L917.448983,405.660156 L918.116952,405.660156 Z M927.567688,410.992188 L929.419251,405.660156 L930.17511,405.660156 L927.468079,413.078125 L927.327454,413.40625 C926.979796,414.175785 926.442692,414.560547 925.716126,414.560547 C925.548156,414.560547 925.368471,414.533203 925.177063,414.478516 L925.171204,413.898438 L925.534485,413.933594 C925.878237,413.933594 926.156555,413.848634 926.369446,413.678711 C926.582338,413.508788 926.763,413.216799 926.911438,412.802734 L927.221985,411.947266 L924.83136,405.660156 L925.598938,405.660156 L927.567688,410.992188 Z" id="My-Name-is-Johny"></path>
        </g>
    </g>
</svg>