<?xml version="1.0" encoding="UTF-8"?>
<svg width="207px" height="78px" viewBox="0 0 207 78" version="1.1" xmlns="http://www.w3.org/2000/svg" xmlns:xlink="http://www.w3.org/1999/xlink">
    <!-- Generator: Sketch 41.2 (35397) - http://www.bohemiancoding.com/sketch -->
    <title>Group 5</title>
    <desc>Created with Sketch.</desc>
    <defs></defs>
    <g id="Page-1" stroke="none" stroke-width="1" fill="none" fill-rule="evenodd">
        <g id="Desktop-HD" transform="translate(-339.000000, -371.000000)" fill="#000000">
            <g id="Group-5" transform="translate(339.000000, 371.000000)">
                <path d="M8.8046875,11 L7.48535156,11 L7.48535156,6.39941406 L2.46777344,6.39941406 L2.46777344,11 L1.15527344,11 L1.15527344,1.046875 L2.46777344,1.046875 L2.46777344,5.32617188 L7.48535156,5.32617188 L7.48535156,1.046875 L8.8046875,1.046875 L8.8046875,11 Z M13.8839453,11 L12.5714453,11 L12.5714453,1.046875 L13.8839453,1.046875 L13.8839453,11 Z M24.9719923,9.69433594 C24.634751,10.1774113 24.1642153,10.538573 23.5603712,10.777832 C22.956527,11.017091 22.2535718,11.1367188 21.4514844,11.1367188 C20.6402825,11.1367188 19.9202376,10.9464537 19.2913282,10.565918 C18.6624188,10.1853822 18.1759328,9.64420924 17.8318555,8.94238281 C17.4877783,8.24055639 17.311185,7.42708796 17.3020704,6.50195312 L17.3020704,5.63378906 C17.3020704,4.13443261 17.651839,2.97233485 18.3513868,2.14746094 C19.0509346,1.32258702 20.0341604,0.91015625 21.3010938,0.91015625 C22.3401615,0.91015625 23.1764162,1.17561583 23.8098829,1.70654297 C24.4433496,2.2374701 24.8307155,2.99055502 24.9719923,3.96582031 L23.6594923,3.96582031 C23.4133973,2.64875644 22.6295509,1.99023438 21.3079298,1.99023438 C20.4283681,1.99023438 19.7618708,2.2989878 19.308418,2.91650391 C18.8549652,3.53402001 18.6259636,4.42837956 18.6214063,5.59960938 L18.6214063,6.41308594 C18.6214063,7.52962798 18.8766121,8.41715166 19.3870313,9.07568359 C19.8974505,9.73421553 20.5878733,10.0634766 21.4583204,10.0634766 C21.9505103,10.0634766 22.3811701,10.0087896 22.7503126,9.89941406 C23.119455,9.79003852 23.4247905,9.60547005 23.6663282,9.34570312 L23.6663282,7.11035156 L21.3626173,7.11035156 L21.3626173,6.04394531 L24.9719923,6.04394531 L24.9719923,9.69433594 Z M36.1489064,11 L34.8295704,11 L34.8295704,6.39941406 L29.8119923,6.39941406 L29.8119923,11 L28.4994923,11 L28.4994923,1.046875 L29.8119923,1.046875 L29.8119923,5.32617188 L34.8295704,5.32617188 L34.8295704,1.046875 L36.1489064,1.046875 L36.1489064,11 Z M41.139297,9.92675781 L45.8560939,9.92675781 L45.8560939,11 L39.8199611,11 L39.8199611,1.046875 L41.139297,1.046875 L41.139297,9.92675781 Z M50.1013674,11 L48.7888674,11 L48.7888674,1.046875 L50.1013674,1.046875 L50.1013674,11 Z M61.4901955,11 L60.1708596,11 L55.1601174,3.33007812 L55.1601174,11 L53.8407815,11 L53.8407815,1.046875 L55.1601174,1.046875 L60.1845315,8.75097656 L60.1845315,1.046875 L61.4901955,1.046875 L61.4901955,11 Z M70.7872268,6.39941406 L66.4737502,6.39941406 L66.4737502,9.92675781 L71.4844924,9.92675781 L71.4844924,11 L65.1612502,11 L65.1612502,1.046875 L71.416133,1.046875 L71.416133,2.12695312 L66.4737502,2.12695312 L66.4737502,5.32617188 L70.7872268,5.32617188 L70.7872268,6.39941406 Z" id="HIGHLINE"></path>
                <polygon id="X" points="202.402344 6.86132812 204.788086 3.046875 206.333008 3.046875 203.188477 7.98242188 206.408203 13 204.849609 13 202.402344 9.1171875 199.941406 13 198.389648 13 201.616211 7.98242188 198.464844 3.046875 200.00293 3.046875"></polygon>
                <path d="M2.65429688,40.6972656 L2.91796875,42.0214844 L3.24023438,40.7558594 L5.09179688,34.46875 L5.7421875,34.46875 L7.5703125,40.7558594 L7.88671875,42.0332031 L8.16796875,40.6972656 L9.70898438,34.46875 L10.4472656,34.46875 L8.26171875,43 L7.5703125,43 L5.63671875,36.3261719 L5.41992188,35.4824219 L5.20898438,36.3261719 L3.22851562,43 L2.53710938,43 L0.357421875,34.46875 L1.09570312,34.46875 L2.65429688,40.6972656 Z M15.7965767,43.1171875 C15.2575115,43.1171875 14.7702117,42.9843763 14.3346626,42.71875 C13.8991136,42.4531237 13.5602498,42.0830102 13.3180611,41.6083984 C13.0758724,41.1337867 12.9547798,40.6015654 12.9547798,40.0117188 L12.9547798,39.7597656 C12.9547798,39.1503876 13.0729427,38.6015649 13.309272,38.1132812 C13.5456013,37.6249976 13.8746996,37.2412123 14.2965767,36.9619141 C14.7184538,36.6826158 15.1754805,36.5429688 15.6676705,36.5429688 C16.4372056,36.5429688 17.047551,36.8056614 17.4987251,37.3310547 C17.9498993,37.8564479 18.175483,38.5742142 18.175483,39.484375 L18.175483,39.8769531 L13.6520455,39.8769531 L13.6520455,40.0117188 C13.6520455,40.7304723 13.8580981,41.3290992 14.2702095,41.8076172 C14.682321,42.2861352 15.2008705,42.5253906 15.8258736,42.5253906 C16.2008755,42.5253906 16.5319268,42.4570319 16.8190376,42.3203125 C17.1061485,42.1835931 17.366888,41.9648453 17.6012642,41.6640625 L18.0407173,41.9980469 C17.5250898,42.7441444 16.7770504,43.1171875 15.7965767,43.1171875 L15.7965767,43.1171875 Z M15.6676705,37.140625 C15.1403241,37.140625 14.6959926,37.3339824 14.3346626,37.7207031 C13.9733327,38.1074238 13.7536084,38.6269499 13.675483,39.2792969 L17.4782173,39.2792969 L17.4782173,39.203125 C17.458686,38.593747 17.2848596,38.0976582 16.956733,37.7148438 C16.6286063,37.3320293 16.1989231,37.140625 15.6676705,37.140625 L15.6676705,37.140625 Z M30.8875994,39.7363281 C30.8875994,39.1269501 31.0057623,38.5781274 31.2420916,38.0898438 C31.4784209,37.6015601 31.812402,37.221681 32.2440447,36.9501953 C32.6756875,36.6787096 33.1649404,36.5429688 33.7118182,36.5429688 C34.5555724,36.5429688 35.2391593,36.8388642 35.7625994,37.4306641 C36.2860395,38.0224639 36.5477557,38.8066357 36.5477557,39.7832031 L36.5477557,39.9296875 C36.5477557,40.5429718 36.4295928,41.0947241 36.1932635,41.5849609 C35.9569342,42.0751978 35.6239297,42.4531237 35.19424,42.71875 C34.7645504,42.9843763 34.2743209,43.1171875 33.7235369,43.1171875 C32.883689,43.1171875 32.2010786,42.821292 31.6756854,42.2294922 C31.1502921,41.6376924 30.8875994,40.8535205 30.8875994,39.8769531 L30.8875994,39.7363281 Z M31.5907244,39.9296875 C31.5907244,40.6875038 31.7870115,41.3095679 32.1795916,41.7958984 C32.5721717,42.282229 33.086815,42.5253906 33.7235369,42.5253906 C34.3563526,42.5253906 34.8690428,42.282229 35.2616229,41.7958984 C35.654203,41.3095679 35.85049,40.6679727 35.85049,39.8710938 L35.85049,39.7363281 C35.85049,39.2519507 35.7606472,38.8085958 35.5809588,38.40625 C35.4012704,38.0039042 35.1493198,37.6923839 34.8250994,37.4716797 C34.5008791,37.2509755 34.129789,37.140625 33.7118182,37.140625 C33.086815,37.140625 32.5770545,37.3857397 32.1825213,37.8759766 C31.7879881,38.3662134 31.5907244,39.0078085 31.5907244,39.8007812 L31.5907244,39.9296875 Z M44.9439418,39.8945312 C44.9439418,40.8828174 44.7251939,41.6669893 44.2876918,42.2470703 C43.8501896,42.8271513 43.2642579,43.1171875 42.5298793,43.1171875 C41.6626874,43.1171875 40.9986316,42.812503 40.5376918,42.203125 L40.5376918,45.4375 L39.8404261,45.4375 L39.8404261,36.6601562 L40.4908168,36.6601562 L40.525973,37.5566406 C40.9830065,36.880856 41.6451093,36.5429688 42.5123011,36.5429688 C43.2701174,36.5429688 43.864838,36.8300753 44.2964808,37.4042969 C44.7281236,37.9785185 44.9439418,38.7753855 44.9439418,39.7949219 L44.9439418,39.8945312 Z M44.2408168,39.7714844 C44.2408168,38.9628866 44.0748028,38.3242211 43.7427699,37.8554688 C43.410737,37.3867164 42.947851,37.1523438 42.354098,37.1523438 C41.9244084,37.1523438 41.5552714,37.2558583 41.2466761,37.4628906 C40.9380808,37.6699229 40.7017551,37.9707012 40.5376918,38.3652344 L40.5376918,41.40625 C40.7056613,41.7695331 40.9458933,42.046874 41.2583949,42.2382812 C41.5708964,42.4296885 41.9400334,42.5253906 42.3658168,42.5253906 C42.9556635,42.5253906 43.4156198,42.2900414 43.7456996,41.8193359 C44.0757793,41.3486305 44.2408168,40.6660201 44.2408168,39.7714844 L44.2408168,39.7714844 Z M50.8030185,43.1171875 C50.2639533,43.1171875 49.7766535,42.9843763 49.3411044,42.71875 C48.9055554,42.4531237 48.5666916,42.0830102 48.3245028,41.6083984 C48.0823141,41.1337867 47.9612216,40.6015654 47.9612216,40.0117188 L47.9612216,39.7597656 C47.9612216,39.1503876 48.0793845,38.6015649 48.3157138,38.1132812 C48.5520431,37.6249976 48.8811414,37.2412123 49.3030185,36.9619141 C49.7248956,36.6826158 50.1819223,36.5429688 50.6741122,36.5429688 C51.4436473,36.5429688 52.0539928,36.8056614 52.5051669,37.3310547 C52.956341,37.8564479 53.1819247,38.5742142 53.1819247,39.484375 L53.1819247,39.8769531 L48.6584872,39.8769531 L48.6584872,40.0117188 C48.6584872,40.7304723 48.8645398,41.3290992 49.2766513,41.8076172 C49.6887627,42.2861352 50.2073122,42.5253906 50.8323153,42.5253906 C51.2073172,42.5253906 51.5383686,42.4570319 51.8254794,42.3203125 C52.1125902,42.1835931 52.3733298,41.9648453 52.607706,41.6640625 L53.0471591,41.9980469 C52.5315315,42.7441444 51.7834921,43.1171875 50.8030185,43.1171875 L50.8030185,43.1171875 Z M50.6741122,37.140625 C50.1467658,37.140625 49.7024343,37.3339824 49.3411044,37.7207031 C48.9797745,38.1074238 48.7600501,38.6269499 48.6819247,39.2792969 L52.4846591,39.2792969 L52.4846591,39.203125 C52.4651277,38.593747 52.2913014,38.0976582 51.9631747,37.7148438 C51.6350481,37.3320293 51.2053649,37.140625 50.6741122,37.140625 L50.6741122,37.140625 Z M57.0663921,36.6601562 L57.0898296,37.7441406 C57.328112,37.3535137 57.624984,37.0556651 57.9804546,36.8505859 C58.3359251,36.6455068 58.7284993,36.5429688 59.1581889,36.5429688 C59.8378798,36.5429688 60.3437341,36.7343731 60.6757671,37.1171875 C61.0078,37.5000019 61.175767,38.0742149 61.1796733,38.8398438 L61.1796733,43 L60.4824077,43 L60.4824077,38.8339844 C60.4785014,38.2675753 60.3583854,37.8457045 60.1220561,37.5683594 C59.8857268,37.2910142 59.5078009,37.1523438 58.9882671,37.1523438 C58.5546711,37.1523438 58.1708859,37.2880846 57.8368999,37.5595703 C57.5029138,37.831056 57.255846,38.1972633 57.0956889,38.6582031 L57.0956889,43 L56.3984233,43 L56.3984233,36.6601562 L57.0663921,36.6601562 Z M78.7257741,43 C78.6554613,42.8007803 78.6105399,42.5058613 78.5910085,42.1152344 C78.3449135,42.4355485 78.0314401,42.6826163 77.6505788,42.8564453 C77.2697176,43.0302743 76.8664013,43.1171875 76.4406179,43.1171875 C75.8312398,43.1171875 75.3380807,42.9472673 74.9611257,42.6074219 C74.5841707,42.2675764 74.395696,41.8378932 74.395696,41.3183594 C74.395696,40.7011688 74.6525294,40.2128924 75.1662038,39.8535156 C75.6798783,39.4941388 76.3956914,39.3144531 77.3136648,39.3144531 L78.5851491,39.3144531 L78.5851491,38.59375 C78.5851491,38.1406227 78.4455021,37.784181 78.1662038,37.5244141 C77.8869056,37.2646471 77.4796831,37.1347656 76.9445241,37.1347656 C76.4562405,37.1347656 76.0519476,37.2597644 75.7316335,37.5097656 C75.4113194,37.7597669 75.2511648,38.0605451 75.2511648,38.4121094 L74.5480398,38.40625 C74.5480398,37.9023412 74.7824124,37.4658222 75.2511648,37.0966797 C75.7199171,36.7275372 76.2960832,36.5429688 76.9796804,36.5429688 C77.6867152,36.5429688 78.2443268,36.7197248 78.652532,37.0732422 C79.0607371,37.4267596 79.270696,37.9199187 79.2824148,38.5527344 L79.2824148,41.5527344 C79.2824148,42.1660187 79.3468672,42.6249985 79.4757741,42.9296875 L79.4757741,43 L78.7257741,43 Z M76.5226491,42.4960938 C76.9914015,42.4960938 77.4103426,42.3828136 77.7794851,42.15625 C78.1486276,41.9296864 78.4171796,41.626955 78.5851491,41.2480469 L78.5851491,39.8535156 L77.3312429,39.8535156 C76.6320206,39.8613282 76.0851511,39.9892566 75.6906179,40.2373047 C75.2960847,40.4853528 75.098821,40.8261697 75.098821,41.2597656 C75.098821,41.6152362 75.2306556,41.9101551 75.4943288,42.1445312 C75.758002,42.3789074 76.100772,42.4960938 76.5226491,42.4960938 L76.5226491,42.4960938 Z M93.553125,36.6601562 L93.5765625,37.7441406 C93.8148449,37.3535137 94.111717,37.0556651 94.4671875,36.8505859 C94.822658,36.6455068 95.2152322,36.5429688 95.6449219,36.5429688 C96.3246128,36.5429688 96.8304671,36.7343731 97.1625,37.1171875 C97.4945329,37.5000019 97.6625,38.0742149 97.6664062,38.8398438 L97.6664062,43 L96.9691406,43 L96.9691406,38.8339844 C96.9652343,38.2675753 96.8451184,37.8457045 96.608789,37.5683594 C96.3724597,37.2910142 95.9945338,37.1523438 95.475,37.1523438 C95.0414041,37.1523438 94.6576188,37.2880846 94.3236328,37.5595703 C93.9896468,37.831056 93.7425789,38.1972633 93.5824219,38.6582031 L93.5824219,43 L92.8851562,43 L92.8851562,36.6601562 L93.553125,36.6601562 Z M103.783295,43.1171875 C103.24423,43.1171875 102.75693,42.9843763 102.321381,42.71875 C101.885832,42.4531237 101.546969,42.0830102 101.30478,41.6083984 C101.062591,41.1337867 100.941499,40.6015654 100.941499,40.0117188 L100.941499,39.7597656 C100.941499,39.1503876 101.059661,38.6015649 101.295991,38.1132812 C101.53232,37.6249976 101.861418,37.2412123 102.283295,36.9619141 C102.705173,36.6826158 103.162199,36.5429688 103.654389,36.5429688 C104.423924,36.5429688 105.03427,36.8056614 105.485444,37.3310547 C105.936618,37.8564479 106.162202,38.5742142 106.162202,39.484375 L106.162202,39.8769531 L101.638764,39.8769531 L101.638764,40.0117188 C101.638764,40.7304723 101.844817,41.3290992 102.256928,41.8076172 C102.66904,42.2861352 103.187589,42.5253906 103.812592,42.5253906 C104.187594,42.5253906 104.518646,42.4570319 104.805756,42.3203125 C105.092867,42.1835931 105.353607,41.9648453 105.587983,41.6640625 L106.027436,41.9980469 C105.511808,42.7441444 104.763769,43.1171875 103.783295,43.1171875 L103.783295,43.1171875 Z M103.654389,37.140625 C103.127043,37.140625 102.682711,37.3339824 102.321381,37.7207031 C101.960051,38.1074238 101.740327,38.6269499 101.662202,39.2792969 L105.464936,39.2792969 L105.464936,39.203125 C105.445405,38.593747 105.271578,38.0976582 104.943452,37.7148438 C104.615325,37.3320293 104.185642,37.140625 103.654389,37.140625 L103.654389,37.140625 Z M110.896278,41.5410156 L111.001747,42.0859375 L111.142372,41.5117188 L112.66581,36.6601562 L113.263466,36.6601562 L114.769325,41.4707031 L114.933388,42.1386719 L115.068153,41.5234375 L116.368935,36.6601562 L117.095497,36.6601562 L115.249794,43 L114.652138,43 L113.023232,37.9726562 L112.94706,37.6269531 L112.870888,37.9785156 L111.271278,43 L110.673622,43 L108.833778,36.6601562 L109.554482,36.6601562 L110.896278,41.5410156 Z M136.645504,43 L135.918942,43 L135.918942,38.9101562 L131.043942,38.9101562 L131.043942,43 L130.323239,43 L130.323239,34.46875 L131.043942,34.46875 L131.043942,38.3007812 L135.918942,38.3007812 L135.918942,34.46875 L136.645504,34.46875 L136.645504,43 Z M141.285831,43 L140.582706,43 L140.582706,36.6601562 L141.285831,36.6601562 L141.285831,43 Z M140.459659,34.8261719 C140.459659,34.6933587 140.502627,34.5810551 140.588565,34.4892578 C140.674503,34.3974605 140.79169,34.3515625 140.940128,34.3515625 C141.088566,34.3515625 141.206729,34.3974605 141.29462,34.4892578 C141.382511,34.5810551 141.426456,34.6933587 141.426456,34.8261719 C141.426456,34.958985 141.382511,35.0703121 141.29462,35.1601562 C141.206729,35.2500004 141.088566,35.2949219 140.940128,35.2949219 C140.79169,35.2949219 140.674503,35.2500004 140.588565,35.1601562 C140.502627,35.0703121 140.459659,34.958985 140.459659,34.8261719 L140.459659,34.8261719 Z M144.760142,39.7714844 C144.760142,38.7792919 144.979866,37.993167 145.419322,37.4130859 C145.858777,36.8330049 146.455451,36.5429688 147.209361,36.5429688 C148.072646,36.5429688 148.72889,36.8867153 149.178111,37.5742188 L149.213267,36.6601562 L149.869517,36.6601562 L149.869517,42.8710938 C149.869517,43.6875041 149.641004,44.333982 149.18397,44.8105469 C148.726937,45.2871118 148.107802,45.5253906 147.326548,45.5253906 C146.88514,45.5253906 146.464246,45.4267588 146.063853,45.2294922 C145.66346,45.0322256 145.348034,44.7695329 145.117564,44.4414062 L145.510142,44.0195312 C146.006238,44.6289093 146.596076,44.9335938 147.279673,44.9335938 C147.865614,44.9335938 148.32264,44.7607439 148.650767,44.4150391 C148.978894,44.0693342 149.148814,43.5898468 149.160533,42.9765625 L149.160533,42.1796875 C148.711312,42.8046906 148.057021,43.1171875 147.197642,43.1171875 C146.463263,43.1171875 145.873426,42.8242217 145.428111,42.2382812 C144.982796,41.6523408 144.760142,40.8613331 144.760142,39.8652344 L144.760142,39.7714844 Z M145.469126,39.8945312 C145.469126,40.703129 145.631234,41.340818 145.955455,41.8076172 C146.279675,42.2744164 146.736702,42.5078125 147.326548,42.5078125 C148.189834,42.5078125 148.801156,42.1210976 149.160533,41.3476562 L149.160533,38.4003906 C148.996469,37.9941386 148.760144,37.6845714 148.451548,37.4716797 C148.142953,37.258788 147.771863,37.1523438 147.338267,37.1523438 C146.74842,37.1523438 146.289441,37.3837867 145.961314,37.8466797 C145.633187,38.3095726 145.469126,38.992183 145.469126,39.8945312 L145.469126,39.8945312 Z M154.246172,37.7324219 C154.476642,37.3535137 154.771561,37.0605479 155.130937,36.8535156 C155.490314,36.6464833 155.882888,36.5429688 156.308672,36.5429688 C156.988363,36.5429688 157.494217,36.7343731 157.82625,37.1171875 C158.158283,37.5000019 158.32625,38.0742149 158.330156,38.8398438 L158.330156,43 L157.632891,43 L157.632891,38.8339844 C157.628984,38.2675753 157.508868,37.8457045 157.272539,37.5683594 C157.03621,37.2910142 156.658284,37.1523438 156.13875,37.1523438 C155.705154,37.1523438 155.321369,37.2880846 154.987383,37.5595703 C154.653397,37.831056 154.406329,38.1972633 154.246172,38.6582031 L154.246172,43 L153.548906,43 L153.548906,34 L154.246172,34 L154.246172,37.7324219 Z M162.771264,43 L162.068139,43 L162.068139,34 L162.771264,34 L162.771264,43 Z M167.311982,43 L166.608857,43 L166.608857,36.6601562 L167.311982,36.6601562 L167.311982,43 Z M166.48581,34.8261719 C166.48581,34.6933587 166.528778,34.5810551 166.614716,34.4892578 C166.700654,34.3974605 166.81784,34.3515625 166.966278,34.3515625 C167.114717,34.3515625 167.23288,34.3974605 167.320771,34.4892578 C167.408662,34.5810551 167.452607,34.6933587 167.452607,34.8261719 C167.452607,34.958985 167.408662,35.0703121 167.320771,35.1601562 C167.23288,35.2500004 167.114717,35.2949219 166.966278,35.2949219 C166.81784,35.2949219 166.700654,35.2500004 166.614716,35.1601562 C166.528778,35.0703121 166.48581,34.958985 166.48581,34.8261719 L166.48581,34.8261719 Z M171.735511,36.6601562 L171.758949,37.7441406 C171.997231,37.3535137 172.294103,37.0556651 172.649574,36.8505859 C173.005044,36.6455068 173.397619,36.5429688 173.827308,36.5429688 C174.506999,36.5429688 175.012853,36.7343731 175.344886,37.1171875 C175.676919,37.5000019 175.844886,38.0742149 175.848793,38.8398438 L175.848793,43 L175.151527,43 L175.151527,38.8339844 C175.147621,38.2675753 175.027505,37.8457045 174.791175,37.5683594 C174.554846,37.2910142 174.17692,37.1523438 173.657386,37.1523438 C173.22379,37.1523438 172.840005,37.2880846 172.506019,37.5595703 C172.172033,37.831056 171.924965,38.1972633 171.764808,38.6582031 L171.764808,43 L171.067543,43 L171.067543,36.6601562 L171.735511,36.6601562 Z M181.965682,43.1171875 C181.426617,43.1171875 180.939317,42.9843763 180.503768,42.71875 C180.068219,42.4531237 179.729355,42.0830102 179.487166,41.6083984 C179.244977,41.1337867 179.123885,40.6015654 179.123885,40.0117188 L179.123885,39.7597656 C179.123885,39.1503876 179.242048,38.6015649 179.478377,38.1132812 C179.714706,37.6249976 180.043805,37.2412123 180.465682,36.9619141 C180.887559,36.6826158 181.344586,36.5429688 181.836776,36.5429688 C182.606311,36.5429688 183.216656,36.8056614 183.66783,37.3310547 C184.119004,37.8564479 184.344588,38.5742142 184.344588,39.484375 L184.344588,39.8769531 L179.821151,39.8769531 L179.821151,40.0117188 C179.821151,40.7304723 180.027203,41.3290992 180.439315,41.8076172 C180.851426,42.2861352 181.369976,42.5253906 181.994979,42.5253906 C182.369981,42.5253906 182.701032,42.4570319 182.988143,42.3203125 C183.275254,42.1835931 183.535993,41.9648453 183.770369,41.6640625 L184.209822,41.9980469 C183.694195,42.7441444 182.946155,43.1171875 181.965682,43.1171875 L181.965682,43.1171875 Z M181.836776,37.140625 C181.309429,37.140625 180.865098,37.3339824 180.503768,37.7207031 C180.142438,38.1074238 179.922713,38.6269499 179.844588,39.2792969 L183.647322,39.2792969 L183.647322,39.203125 C183.627791,38.593747 183.453965,38.0976582 183.125838,37.7148438 C182.797711,37.3320293 182.368028,37.140625 181.836776,37.140625 L181.836776,37.140625 Z M198.22858,43 L197.525455,43 L197.525455,36.6601562 L198.22858,36.6601562 L198.22858,43 Z M197.402408,34.8261719 C197.402408,34.6933587 197.445376,34.5810551 197.531314,34.4892578 C197.617252,34.3974605 197.734438,34.3515625 197.882876,34.3515625 C198.031315,34.3515625 198.149478,34.3974605 198.237369,34.4892578 C198.32526,34.5810551 198.369205,34.6933587 198.369205,34.8261719 C198.369205,34.958985 198.32526,35.0703121 198.237369,35.1601562 C198.149478,35.2500004 198.031315,35.2949219 197.882876,35.2949219 C197.734438,35.2949219 197.617252,35.2500004 197.531314,35.1601562 C197.445376,35.0703121 197.402408,34.958985 197.402408,34.8261719 L197.402408,34.8261719 Z M202.652109,36.6601562 L202.675547,37.7441406 C202.913829,37.3535137 203.210701,37.0556651 203.566172,36.8505859 C203.921642,36.6455068 204.314217,36.5429688 204.743906,36.5429688 C205.423597,36.5429688 205.929451,36.7343731 206.261484,37.1171875 C206.593517,37.5000019 206.761484,38.0742149 206.765391,38.8398438 L206.765391,43 L206.068125,43 L206.068125,38.8339844 C206.064219,38.2675753 205.944103,37.8457045 205.707773,37.5683594 C205.471444,37.2910142 205.093518,37.1523438 204.573984,37.1523438 C204.140388,37.1523438 203.756603,37.2880846 203.422617,37.5595703 C203.088631,37.831056 202.841563,38.1972633 202.681406,38.6582031 L202.681406,43 L201.984141,43 L201.984141,36.6601562 L202.652109,36.6601562 Z M7.11914062,56.3398438 C7.02148389,57.2382857 6.70019804,57.9257789 6.15527344,58.4023438 C5.61034884,58.8789086 4.88477016,59.1171875 3.97851563,59.1171875 C3.34569996,59.1171875 2.78613524,58.958986 2.29980469,58.6425781 C1.81347413,58.3261703 1.43750133,57.8779326 1.171875,57.2978516 C0.906248672,56.7177705 0.771484395,56.0546912 0.767578125,55.3085938 L0.767578125,54.2011719 C0.767578125,53.4433556 0.900389297,52.7714873 1.16601562,52.1855469 C1.43164195,51.5996064 1.81347407,51.1474625 2.31152344,50.8291016 C2.8095728,50.5107406 3.38280926,50.3515625 4.03125,50.3515625 C4.94531707,50.3515625 5.66698954,50.5986303 6.19628906,51.0927734 C6.72558858,51.5869165 7.0332027,52.2695269 7.11914062,53.140625 L6.39257812,53.140625 C6.21288973,51.691399 5.42578822,50.9667969 4.03125,50.9667969 C3.25780863,50.9667969 2.64160386,51.2558565 2.18261719,51.8339844 C1.72363052,52.4121123 1.49414062,53.2109324 1.49414062,54.2304688 L1.49414062,55.2734375 C1.49414062,56.2578174 1.7177712,57.0429658 2.16503906,57.6289062 C2.61230692,58.2148467 3.21679307,58.5078125 3.97851563,58.5078125 C4.73242564,58.5078125 5.30077934,58.3271502 5.68359375,57.9658203 C6.06640816,57.6044904 6.30273393,57.0625036 6.39257812,56.3398438 L7.11914062,56.3398438 Z M15.582091,59.1171875 C15.0430258,59.1171875 14.555726,58.9843763 14.1201769,58.71875 C13.6846279,58.4531237 13.3457641,58.0830102 13.1035754,57.6083984 C12.8613867,57.1337867 12.7402941,56.6015654 12.7402941,56.0117188 L12.7402941,55.7597656 C12.7402941,55.1503876 12.858457,54.6015649 13.0947863,54.1132812 C13.3311156,53.6249976 13.6602139,53.2412123 14.082091,52.9619141 C14.5039681,52.6826158 14.9609948,52.5429688 15.4531847,52.5429688 C16.2227198,52.5429688 16.8330653,52.8056614 17.2842394,53.3310547 C17.7354136,53.8564479 17.9609972,54.5742142 17.9609972,55.484375 L17.9609972,55.8769531 L13.4375597,55.8769531 L13.4375597,56.0117188 C13.4375597,56.7304723 13.6436124,57.3290992 14.0557238,57.8076172 C14.4678352,58.2861352 14.9863847,58.5253906 15.6113879,58.5253906 C15.9863897,58.5253906 16.3174411,58.4570319 16.6045519,58.3203125 C16.8916627,58.1835931 17.1524023,57.9648453 17.3867785,57.6640625 L17.8262316,57.9980469 C17.310604,58.7441444 16.5625646,59.1171875 15.582091,59.1171875 L15.582091,59.1171875 Z M15.4531847,53.140625 C14.9258384,53.140625 14.4815069,53.3339824 14.1201769,53.7207031 C13.758847,54.1074238 13.5391226,54.6269499 13.4609972,55.2792969 L17.2637316,55.2792969 L17.2637316,55.203125 C17.2442003,54.593747 17.0703739,54.0976582 16.7422472,53.7148438 C16.4141206,53.3320293 15.9844374,53.140625 15.4531847,53.140625 L15.4531847,53.140625 Z M23.4649632,55.7714844 C23.4649632,54.7871045 23.6846876,54.0029326 24.1241429,53.4189453 C24.5635982,52.834958 25.160272,52.5429688 25.914182,52.5429688 C26.769655,52.5429688 27.4219922,52.880856 27.8712132,53.5566406 L27.8712132,50 L28.5684789,50 L28.5684789,59 L27.9122289,59 L27.882932,58.15625 C27.433711,58.7968782 26.7735613,59.1171875 25.9024632,59.1171875 C25.1719908,59.1171875 24.5831295,58.8232451 24.1358617,58.2353516 C23.6885938,57.647458 23.4649632,56.8535206 23.4649632,55.8535156 L23.4649632,55.7714844 Z M24.1739476,55.8945312 C24.1739476,56.703129 24.3360554,57.340818 24.6602757,57.8076172 C24.9844961,58.2744164 25.4415228,58.5078125 26.0313695,58.5078125 C26.8946551,58.5078125 27.5079302,58.1269569 27.8712132,57.3652344 L27.8712132,54.3886719 C27.5079302,53.564449 26.8985613,53.1523438 26.0430882,53.1523438 C25.4532415,53.1523438 24.9942618,53.3837867 24.6661351,53.8466797 C24.3380085,54.3095726 24.1739476,54.992183 24.1739476,55.8945312 L24.1739476,55.8945312 Z M38.8361167,59 C38.7658039,58.8007803 38.7208825,58.5058613 38.7013511,58.1152344 C38.4552561,58.4355485 38.1417827,58.6826163 37.7609214,58.8564453 C37.3800601,59.0302743 36.9767439,59.1171875 36.5509605,59.1171875 C35.9415824,59.1171875 35.4484233,58.9472673 35.0714683,58.6074219 C34.6945133,58.2675764 34.5060386,57.8378932 34.5060386,57.3183594 C34.5060386,56.7011688 34.762872,56.2128924 35.2765464,55.8535156 C35.7902209,55.4941388 36.506034,55.3144531 37.4240074,55.3144531 L38.6954917,55.3144531 L38.6954917,54.59375 C38.6954917,54.1406227 38.5558447,53.784181 38.2765464,53.5244141 C37.9972482,53.2646471 37.5900257,53.1347656 37.0548667,53.1347656 C36.566583,53.1347656 36.1622902,53.2597644 35.8419761,53.5097656 C35.521662,53.7597669 35.3615074,54.0605451 35.3615074,54.4121094 L34.6583824,54.40625 C34.6583824,53.9023412 34.892755,53.4658222 35.3615074,53.0966797 C35.8302597,52.7275372 36.4064258,52.5429688 37.090023,52.5429688 C37.7970578,52.5429688 38.3546694,52.7197248 38.7628745,53.0732422 C39.1710797,53.4267596 39.3810386,53.9199187 39.3927574,54.5527344 L39.3927574,57.5527344 C39.3927574,58.1660187 39.4572098,58.6249985 39.5861167,58.9296875 L39.5861167,59 L38.8361167,59 Z M36.6329917,58.4960938 C37.1017441,58.4960938 37.5206852,58.3828136 37.8898277,58.15625 C38.2589701,57.9296864 38.5275221,57.626955 38.6954917,57.2480469 L38.6954917,55.8535156 L37.4415855,55.8535156 C36.7423632,55.8613282 36.1954937,55.9892566 35.8009605,56.2373047 C35.4064273,56.4853528 35.2091636,56.8261697 35.2091636,57.2597656 C35.2091636,57.6152362 35.3409982,57.9101551 35.6046714,58.1445312 C35.8683446,58.3789074 36.2111146,58.4960938 36.6329917,58.4960938 L36.6329917,58.4960938 Z M48.6115671,53.2578125 C48.4631289,53.2304686 48.3049273,53.2167969 48.1369577,53.2167969 C47.6994555,53.2167969 47.3293421,53.338866 47.0266062,53.5830078 C46.7238703,53.8271497 46.5080521,54.1816383 46.3791452,54.6464844 L46.3791452,59 L45.6818796,59 L45.6818796,52.6601562 L46.3674265,52.6601562 L46.3791452,53.6679688 C46.7502408,52.917965 47.345938,52.5429688 48.1662546,52.5429688 C48.3615681,52.5429688 48.5158634,52.5683591 48.6291452,52.6191406 L48.6115671,53.2578125 Z M62.901011,59 L62.901011,50.46875 L65.4205423,50.46875 C66.3346093,50.46875 67.0279618,50.6572247 67.5006204,51.0341797 C67.973279,51.4111347 68.2096048,51.9667932 68.2096048,52.7011719 C68.2096048,53.1425803 68.0894888,53.5263656 67.8492532,53.8525391 C67.6090176,54.1787126 67.2799194,54.4121087 66.8619485,54.5527344 C67.3580448,54.6621099 67.7574548,54.9062481 68.0601907,55.2851562 C68.3629266,55.6640644 68.5142923,56.10156 68.5142923,56.5976562 C68.5142923,57.3515663 68.2711306,57.9404276 67.7848001,58.3642578 C67.2984695,58.7880881 66.6217185,59 65.7545267,59 L62.901011,59 Z M63.6217142,54.8984375 L63.6217142,58.390625 L65.7838235,58.390625 C66.4010141,58.390625 66.890267,58.2334 67.251597,57.9189453 C67.6129269,57.6044906 67.7935892,57.1679715 67.7935892,56.609375 C67.7935892,56.0820286 67.6207393,55.6650406 67.2750345,55.3583984 C66.9293296,55.0517563 66.4517953,54.8984375 65.8424173,54.8984375 L63.6217142,54.8984375 Z M63.6217142,54.2949219 L65.5904642,54.2949219 C66.1920297,54.2832031 66.6578453,54.1416029 66.9879251,53.8701172 C67.3180049,53.5986315 67.4830423,53.2031276 67.4830423,52.6835938 C67.4830423,52.136716 67.3121455,51.7333997 66.970347,51.4736328 C66.6285484,51.2138659 66.111952,51.0839844 65.4205423,51.0839844 L63.6217142,51.0839844 L63.6217142,54.2949219 Z M77.4401333,53.2578125 C77.291695,53.2304686 77.1334935,53.2167969 76.9655239,53.2167969 C76.5280217,53.2167969 76.1579082,53.338866 75.8551723,53.5830078 C75.5524364,53.8271497 75.3366183,54.1816383 75.2077114,54.6464844 L75.2077114,59 L74.5104458,59 L74.5104458,52.6601562 L75.1959926,52.6601562 L75.2077114,53.6679688 C75.578807,52.917965 76.1745042,52.5429688 76.9948208,52.5429688 C77.1901342,52.5429688 77.3444296,52.5683591 77.4577114,52.6191406 L77.4401333,53.2578125 Z M85.3112868,59.1171875 C84.7722216,59.1171875 84.2849218,58.9843763 83.8493727,58.71875 C83.4138236,58.4531237 83.0749599,58.0830102 82.8327711,57.6083984 C82.5905824,57.1337867 82.4694899,56.6015654 82.4694899,56.0117188 L82.4694899,55.7597656 C82.4694899,55.1503876 82.5876528,54.6015649 82.8239821,54.1132812 C83.0603114,53.6249976 83.3894097,53.2412123 83.8112868,52.9619141 C84.2331639,52.6826158 84.6901906,52.5429688 85.1823805,52.5429688 C85.9519156,52.5429688 86.5622611,52.8056614 87.0134352,53.3310547 C87.4646093,53.8564479 87.690193,54.5742142 87.690193,55.484375 L87.690193,55.8769531 L83.1667555,55.8769531 L83.1667555,56.0117188 C83.1667555,56.7304723 83.3728081,57.3290992 83.7849196,57.8076172 C84.197031,58.2861352 84.7155805,58.5253906 85.3405836,58.5253906 C85.7155855,58.5253906 86.0466369,58.4570319 86.3337477,58.3203125 C86.6208585,58.1835931 86.8815981,57.9648453 87.1159743,57.6640625 L87.5554274,57.9980469 C87.0397998,58.7441444 86.2917604,59.1171875 85.3112868,59.1171875 L85.3112868,59.1171875 Z M85.1823805,53.140625 C84.6550341,53.140625 84.2107026,53.3339824 83.8493727,53.7207031 C83.4880428,54.1074238 83.2683184,54.6269499 83.190193,55.2792969 L86.9929274,55.2792969 L86.9929274,55.203125 C86.973396,54.593747 86.7995697,54.0976582 86.471443,53.7148438 C86.1433164,53.3320293 85.7136332,53.140625 85.1823805,53.140625 L85.1823805,53.140625 Z M97.4773621,59 C97.4070493,58.8007803 97.3621279,58.5058613 97.3425965,58.1152344 C97.0965015,58.4355485 96.7830281,58.6826163 96.4021668,58.8564453 C96.0213055,59.0302743 95.6179893,59.1171875 95.1922059,59.1171875 C94.5828278,59.1171875 94.0896687,58.9472673 93.7127137,58.6074219 C93.3357587,58.2675764 93.147284,57.8378932 93.147284,57.3183594 C93.147284,56.7011688 93.4041174,56.2128924 93.9177918,55.8535156 C94.4314663,55.4941388 95.1472794,55.3144531 96.0652528,55.3144531 L97.3367371,55.3144531 L97.3367371,54.59375 C97.3367371,54.1406227 97.1970901,53.784181 96.9177918,53.5244141 C96.6384936,53.2646471 96.2312711,53.1347656 95.6961121,53.1347656 C95.2078284,53.1347656 94.8035356,53.2597644 94.4832215,53.5097656 C94.1629074,53.7597669 94.0027528,54.0605451 94.0027528,54.4121094 L93.2996278,54.40625 C93.2996278,53.9023412 93.5340004,53.4658222 94.0027528,53.0966797 C94.4715051,52.7275372 95.0476712,52.5429688 95.7312684,52.5429688 C96.4383032,52.5429688 96.9959148,52.7197248 97.4041199,53.0732422 C97.8123251,53.4267596 98.022284,53.9199187 98.0340028,54.5527344 L98.0340028,57.5527344 C98.0340028,58.1660187 98.0984552,58.6249985 98.2273621,58.9296875 L98.2273621,59 L97.4773621,59 Z M95.2742371,58.4960938 C95.7429895,58.4960938 96.1619306,58.3828136 96.5310731,58.15625 C96.9002155,57.9296864 97.1687675,57.626955 97.3367371,57.2480469 L97.3367371,55.8535156 L96.0828309,55.8535156 C95.3836086,55.8613282 94.8367391,55.9892566 94.4422059,56.2373047 C94.0476727,56.4853528 93.850409,56.8261697 93.850409,57.2597656 C93.850409,57.6152362 93.9822436,57.9101551 94.2459168,58.1445312 C94.50959,58.3789074 94.85236,58.4960938 95.2742371,58.4960938 L95.2742371,58.4960938 Z M105.828984,55.8066406 L105.02625,56.5800781 L105.02625,59 L104.323125,59 L104.323125,50 L105.02625,50 L105.02625,55.7597656 L105.688359,55.0449219 L108.114141,52.6601562 L108.998906,52.6601562 L106.309453,55.3320312 L109.233281,59 L108.395391,59 L105.828984,55.8066406 Z M118.416935,57.3886719 C118.416935,57.0410139 118.277288,56.7617198 117.997989,56.5507812 C117.718691,56.3398427 117.297797,56.1748053 116.735294,56.0556641 C116.172791,55.9365228 115.736272,55.7998055 115.425724,55.6455078 C115.115175,55.4912102 114.884709,55.3027355 114.734318,55.0800781 C114.583926,54.8574208 114.508732,54.5878922 114.508732,54.2714844 C114.508732,53.7714819 114.717714,53.3584001 115.135685,53.0322266 C115.553656,52.7060531 116.088806,52.5429688 116.741153,52.5429688 C117.448188,52.5429688 118.015565,52.7177717 118.443302,53.0673828 C118.871038,53.4169939 119.084903,53.8730441 119.084903,54.4355469 L118.381778,54.4355469 C118.381778,54.0644513 118.226507,53.7558606 117.915958,53.5097656 C117.60541,53.2636706 117.213812,53.140625 116.741153,53.140625 C116.280214,53.140625 115.9101,53.243163 115.630802,53.4482422 C115.351504,53.6533213 115.211857,53.9199202 115.211857,54.2480469 C115.211857,54.5644547 115.328066,54.8095694 115.560489,54.9833984 C115.792912,55.1572274 116.216736,55.3164055 116.831974,55.4609375 C117.447211,55.6054695 117.908144,55.7597648 118.214786,55.9238281 C118.521428,56.0878914 118.748965,56.2851551 118.897403,56.515625 C119.045842,56.7460949 119.12006,57.025389 119.12006,57.3535156 C119.12006,57.8886746 118.904242,58.3164046 118.472599,58.6367188 C118.040956,58.9570329 117.477485,59.1171875 116.782169,59.1171875 C116.043884,59.1171875 115.445257,58.9384783 114.986271,58.5810547 C114.527284,58.223631 114.297794,57.7714871 114.297794,57.2246094 L115.000919,57.2246094 C115.028263,57.6347677 115.201113,57.9541004 115.519474,58.1826172 C115.837835,58.411134 116.258729,58.5253906 116.782169,58.5253906 C117.270453,58.5253906 117.66498,58.4179698 117.965763,58.203125 C118.266546,57.9882802 118.416935,57.7167985 118.416935,57.3886719 L118.416935,57.3886719 Z M140.229816,59 L139.509113,59 L134.604816,51.6992188 L134.604816,59 L133.878254,59 L133.878254,50.46875 L134.604816,50.46875 L139.514972,57.7753906 L139.514972,50.46875 L140.229816,50.46875 L140.229816,59 Z M150.655657,59 C150.585344,58.8007803 150.540423,58.5058613 150.520892,58.1152344 C150.274797,58.4355485 149.961323,58.6826163 149.580462,58.8564453 C149.199601,59.0302743 148.796284,59.1171875 148.370501,59.1171875 C147.761123,59.1171875 147.267964,58.9472673 146.891009,58.6074219 C146.514054,58.2675764 146.325579,57.8378932 146.325579,57.3183594 C146.325579,56.7011688 146.582412,56.2128924 147.096087,55.8535156 C147.609761,55.4941388 148.325574,55.3144531 149.243548,55.3144531 L150.515032,55.3144531 L150.515032,54.59375 C150.515032,54.1406227 150.375385,53.784181 150.096087,53.5244141 C149.816789,53.2646471 149.409566,53.1347656 148.874407,53.1347656 C148.386123,53.1347656 147.981831,53.2597644 147.661517,53.5097656 C147.341202,53.7597669 147.181048,54.0605451 147.181048,54.4121094 L146.477923,54.40625 C146.477923,53.9023412 146.712295,53.4658222 147.181048,53.0966797 C147.6498,52.7275372 148.225966,52.5429688 148.909563,52.5429688 C149.616598,52.5429688 150.17421,52.7197248 150.582415,53.0732422 C150.99062,53.4267596 151.200579,53.9199187 151.212298,54.5527344 L151.212298,57.5527344 C151.212298,58.1660187 151.27675,58.6249985 151.405657,58.9296875 L151.405657,59 L150.655657,59 Z M148.452532,58.4960938 C148.921285,58.4960938 149.340226,58.3828136 149.709368,58.15625 C150.078511,57.9296864 150.347063,57.626955 150.515032,57.2480469 L150.515032,55.8535156 L149.261126,55.8535156 C148.561904,55.8613282 148.015034,55.9892566 147.620501,56.2373047 C147.225968,56.4853528 147.028704,56.8261697 147.028704,57.2597656 C147.028704,57.6152362 147.160539,57.9101551 147.424212,58.1445312 C147.687885,58.3789074 148.030655,58.4960938 148.452532,58.4960938 L148.452532,58.4960938 Z M158.591264,51.0371094 L158.591264,52.6601562 L159.903764,52.6601562 L159.903764,53.234375 L158.591264,53.234375 L158.591264,57.4589844 C158.591264,57.8105486 158.65474,58.0722648 158.781693,58.2441406 C158.908647,58.4160165 159.120559,58.5019531 159.417436,58.5019531 C159.534624,58.5019531 159.724075,58.4824221 159.985795,58.4433594 L160.015092,59.0175781 C159.831497,59.0839847 159.5815,59.1171875 159.265092,59.1171875 C158.784621,59.1171875 158.435015,58.9775405 158.216264,58.6982422 C157.997513,58.4189439 157.888139,58.0078152 157.888139,57.4648438 L157.888139,53.234375 L156.722123,53.234375 L156.722123,52.6601562 L157.888139,52.6601562 L157.888139,51.0371094 L158.591264,51.0371094 Z M166.562027,59 L165.858902,59 L165.858902,52.6601562 L166.562027,52.6601562 L166.562027,59 Z M165.735855,50.8261719 C165.735855,50.6933587 165.778823,50.5810551 165.864761,50.4892578 C165.950699,50.3974605 166.067885,50.3515625 166.216324,50.3515625 C166.364762,50.3515625 166.482925,50.3974605 166.570816,50.4892578 C166.658707,50.5810551 166.702652,50.6933587 166.702652,50.8261719 C166.702652,50.958985 166.658707,51.0703121 166.570816,51.1601562 C166.482925,51.2500004 166.364762,51.2949219 166.216324,51.2949219 C166.067885,51.2949219 165.950699,51.2500004 165.864761,51.1601562 C165.778823,51.0703121 165.735855,50.958985 165.735855,50.8261719 L165.735855,50.8261719 Z M172.499586,55.7363281 C172.499586,55.1269501 172.617749,54.5781274 172.854079,54.0898438 C173.090408,53.6015601 173.424389,53.221681 173.856032,52.9501953 C174.287674,52.6787096 174.776927,52.5429688 175.323805,52.5429688 C176.167559,52.5429688 176.851146,52.8388642 177.374586,53.4306641 C177.898027,54.0224639 178.159743,54.8066357 178.159743,55.7832031 L178.159743,55.9296875 C178.159743,56.5429718 178.04158,57.0947241 177.80525,57.5849609 C177.568921,58.0751978 177.235917,58.4531237 176.806227,58.71875 C176.376537,58.9843763 175.886308,59.1171875 175.335524,59.1171875 C174.495676,59.1171875 173.813066,58.821292 173.287672,58.2294922 C172.762279,57.6376924 172.499586,56.8535205 172.499586,55.8769531 L172.499586,55.7363281 Z M173.202711,55.9296875 C173.202711,56.6875038 173.398998,57.3095679 173.791579,57.7958984 C174.184159,58.282229 174.698802,58.5253906 175.335524,58.5253906 C175.96834,58.5253906 176.48103,58.282229 176.87361,57.7958984 C177.26619,57.3095679 177.462477,56.6679727 177.462477,55.8710938 L177.462477,55.7363281 C177.462477,55.2519507 177.372634,54.8085958 177.192946,54.40625 C177.013257,54.0039042 176.761307,53.6923839 176.437086,53.4716797 C176.112866,53.2509755 175.741776,53.140625 175.323805,53.140625 C174.698802,53.140625 174.189041,53.3857397 173.794508,53.8759766 C173.399975,54.3662134 173.202711,55.0078085 173.202711,55.8007812 L173.202711,55.9296875 Z M184.694959,52.6601562 L184.718396,53.7441406 C184.956679,53.3535137 185.253551,53.0556651 185.609021,52.8505859 C185.964492,52.6455068 186.357066,52.5429688 186.786756,52.5429688 C187.466446,52.5429688 187.972301,52.7343731 188.304334,53.1171875 C188.636367,53.5000019 188.804334,54.0742149 188.80824,54.8398438 L188.80824,59 L188.110974,59 L188.110974,54.8339844 C188.107068,54.2675753 187.986952,53.8457045 187.750623,53.5683594 C187.514293,53.2910142 187.136367,53.1523438 186.616834,53.1523438 C186.183238,53.1523438 185.799453,53.2880846 185.465466,53.5595703 C185.13148,53.831056 184.884413,54.1972633 184.724256,54.6582031 L184.724256,59 L184.02699,59 L184.02699,52.6601562 L184.694959,52.6601562 Z M199.040722,59 C198.970409,58.8007803 198.925487,58.5058613 198.905956,58.1152344 C198.659861,58.4355485 198.346387,58.6826163 197.965526,58.8564453 C197.584665,59.0302743 197.181349,59.1171875 196.755565,59.1171875 C196.146187,59.1171875 195.653028,58.9472673 195.276073,58.6074219 C194.899118,58.2675764 194.710643,57.8378932 194.710643,57.3183594 C194.710643,56.7011688 194.967477,56.2128924 195.481151,55.8535156 C195.994826,55.4941388 196.710639,55.3144531 197.628612,55.3144531 L198.900097,55.3144531 L198.900097,54.59375 C198.900097,54.1406227 198.760449,53.784181 198.481151,53.5244141 C198.201853,53.2646471 197.79463,53.1347656 197.259472,53.1347656 C196.771188,53.1347656 196.366895,53.2597644 196.046581,53.5097656 C195.726267,53.7597669 195.566112,54.0605451 195.566112,54.4121094 L194.862987,54.40625 C194.862987,53.9023412 195.09736,53.4658222 195.566112,53.0966797 C196.034864,52.7275372 196.611031,52.5429688 197.294628,52.5429688 C198.001663,52.5429688 198.559274,52.7197248 198.967479,53.0732422 C199.375684,53.4267596 199.585643,53.9199187 199.597362,54.5527344 L199.597362,57.5527344 C199.597362,58.1660187 199.661815,58.6249985 199.790722,58.9296875 L199.790722,59 L199.040722,59 Z M196.837597,58.4960938 C197.306349,58.4960938 197.72529,58.3828136 198.094432,58.15625 C198.463575,57.9296864 198.732127,57.626955 198.900097,57.2480469 L198.900097,55.8535156 L197.64619,55.8535156 C196.946968,55.8613282 196.400098,55.9892566 196.005565,56.2373047 C195.611032,56.4853528 195.413768,56.8261697 195.413768,57.2597656 C195.413768,57.6152362 195.545603,57.9101551 195.809276,58.1445312 C196.072949,58.3789074 196.415719,58.4960938 196.837597,58.4960938 L196.837597,58.4960938 Z M206.671641,59 L205.968516,59 L205.968516,50 L206.671641,50 L206.671641,59 Z M2.03320312,66.46875 L5.1796875,73.9980469 L8.33789062,66.46875 L9.29882812,66.46875 L9.29882812,75 L8.578125,75 L8.578125,71.2851562 L8.63671875,67.4765625 L5.4609375,75 L4.90429688,75 L1.74023438,67.5058594 L1.79882812,71.2617188 L1.79882812,75 L1.078125,75 L1.078125,66.46875 L2.03320312,66.46875 Z M12.1701562,71.7363281 C12.1701562,71.1269501 12.2883191,70.5781274 12.5246484,70.0898438 C12.7609777,69.6015601 13.0949588,69.221681 13.5266016,68.9501953 C13.9582443,68.6787096 14.4474973,68.5429688 14.994375,68.5429688 C15.8381292,68.5429688 16.5217161,68.8388642 17.0451562,69.4306641 C17.5685964,70.0224639 17.8303125,70.8066357 17.8303125,71.7832031 L17.8303125,71.9296875 C17.8303125,72.5429718 17.7121496,73.0947241 17.4758203,73.5849609 C17.239491,74.0751978 16.9064865,74.4531237 16.4767969,74.71875 C16.0471072,74.9843763 15.5568777,75.1171875 15.0060937,75.1171875 C14.1662458,75.1171875 13.4836354,74.821292 12.9582422,74.2294922 C12.4328489,73.6376924 12.1701562,72.8535205 12.1701562,71.8769531 L12.1701562,71.7363281 Z M12.8732812,71.9296875 C12.8732812,72.6875038 13.0695683,73.3095679 13.4621484,73.7958984 C13.8547285,74.282229 14.3693718,74.5253906 15.0060937,74.5253906 C15.6389094,74.5253906 16.1515996,74.282229 16.5441797,73.7958984 C16.9367598,73.3095679 17.1330469,72.6679727 17.1330469,71.8710938 L17.1330469,71.7363281 C17.1330469,71.2519507 17.043204,70.8085958 16.8635156,70.40625 C16.6838272,70.0039042 16.4318766,69.6923839 16.1076562,69.4716797 C15.7834359,69.2509755 15.4123458,69.140625 14.994375,69.140625 C14.3693719,69.140625 13.8596113,69.3857397 13.4650781,69.8759766 C13.0705449,70.3662134 12.8732812,71.0078085 12.8732812,71.8007812 L12.8732812,71.9296875 Z M21.2055469,68.6601562 L21.2289844,69.7441406 C21.4672668,69.3535137 21.7641388,69.0556651 22.1196094,68.8505859 C22.4750799,68.6455068 22.8676541,68.5429688 23.2973437,68.5429688 C23.9770346,68.5429688 24.4828889,68.7343731 24.8149219,69.1171875 C25.1469548,69.5000019 25.3149218,70.0742149 25.3188281,70.8398438 L25.3188281,75 L24.6215625,75 L24.6215625,70.8339844 C24.6176562,70.2675753 24.4975402,69.8457045 24.2612109,69.5683594 C24.0248816,69.2910142 23.6469557,69.1523438 23.1274219,69.1523438 C22.6938259,69.1523438 22.3100407,69.2880846 21.9760547,69.5595703 C21.6420686,69.831056 21.3950008,70.1972633 21.2348437,70.6582031 L21.2348437,75 L20.5375781,75 L20.5375781,68.6601562 L21.2055469,68.6601562 Z M32.4675,74.1972656 C32.0456229,74.8105499 31.3718015,75.1171875 30.4460156,75.1171875 C29.770231,75.1171875 29.2565642,74.9209004 28.905,74.5283203 C28.5534357,74.1357402 28.37375,73.5546913 28.3659375,72.7851562 L28.3659375,68.6601562 L29.0632031,68.6601562 L29.0632031,72.6972656 C29.0632031,73.9043029 29.5514795,74.5078125 30.5280468,74.5078125 C31.5436769,74.5078125 32.1862486,74.0878948 32.4557812,73.2480469 L32.4557812,68.6601562 L33.1589062,68.6601562 L33.1589062,75 L32.4792187,75 L32.4675,74.1972656 Z M36.8798437,68.6601562 L36.9032812,69.6914062 C37.1376574,69.3085918 37.4306232,69.0214853 37.7821875,68.8300781 C38.1337517,68.6386709 38.5243728,68.5429688 38.9540625,68.5429688 C39.9540675,68.5429688 40.5888267,68.9531209 40.8583593,69.7734375 C41.084923,69.3789043 41.3876543,69.0751964 41.7665625,68.8623047 C42.1454706,68.649413 42.5634352,68.5429688 43.0204687,68.5429688 C44.3798505,68.5429688 45.073203,69.2851488 45.1005468,70.7695312 L45.1005468,75 L44.3974218,75 L44.3974218,70.8222656 C44.3935156,70.2558565 44.2714465,69.8359389 44.0312109,69.5625 C43.7909753,69.2890611 43.3993777,69.1523438 42.8564062,69.1523438 C42.3524974,69.1601563 41.9267205,69.3232406 41.5790625,69.6416016 C41.2314045,69.9599625 41.038047,70.347654 40.9989843,70.8046875 L40.9989843,75 L40.2958593,75 L40.2958593,70.7695312 C40.2919531,70.2265598 40.1640247,69.8212904 39.9120703,69.5537109 C39.6601159,69.2861315 39.2724245,69.1523438 38.7489843,69.1523438 C38.3075759,69.1523438 37.9286734,69.2783191 37.6122656,69.5302734 C37.2958578,69.7822278 37.0614851,70.1562475 36.9091406,70.6523438 L36.9091406,75 L36.2060156,75 L36.2060156,68.6601562 L36.8798437,68.6601562 Z M50.5910156,75.1171875 C50.0519504,75.1171875 49.5646506,74.9843763 49.1291015,74.71875 C48.6935525,74.4531237 48.3546887,74.0830102 48.1125,73.6083984 C47.8703112,73.1337867 47.7492187,72.6015654 47.7492187,72.0117188 L47.7492187,71.7597656 C47.7492187,71.1503876 47.8673816,70.6015649 48.1037109,70.1132812 C48.3400402,69.6249976 48.6691385,69.2412123 49.0910156,68.9619141 C49.5128927,68.6826158 49.9699194,68.5429688 50.4621093,68.5429688 C51.2316444,68.5429688 51.8419899,68.8056614 52.293164,69.3310547 C52.7443381,69.8564479 52.9699218,70.5742142 52.9699218,71.484375 L52.9699218,71.8769531 L48.4464843,71.8769531 L48.4464843,72.0117188 C48.4464843,72.7304723 48.652537,73.3290992 49.0646484,73.8076172 C49.4767598,74.2861352 49.9953093,74.5253906 50.6203125,74.5253906 C50.9953143,74.5253906 51.3263657,74.4570319 51.6134765,74.3203125 C51.9005873,74.1835931 52.1613269,73.9648453 52.3957031,73.6640625 L52.8351562,73.9980469 C52.3195286,74.7441444 51.5714892,75.1171875 50.5910156,75.1171875 L50.5910156,75.1171875 Z M50.4621093,69.140625 C49.9347629,69.140625 49.4904314,69.3339824 49.1291015,69.7207031 C48.7677716,70.1074238 48.5480472,70.6269499 48.4699218,71.2792969 L52.2726562,71.2792969 L52.2726562,71.203125 C52.2531249,70.593747 52.0792985,70.0976582 51.7511718,69.7148438 C51.4230452,69.3320293 50.993362,69.140625 50.4621093,69.140625 L50.4621093,69.140625 Z M56.2631249,68.6601562 L56.2865624,69.7441406 C56.5248449,69.3535137 56.8217169,69.0556651 57.1771874,68.8505859 C57.532658,68.6455068 57.9252322,68.5429688 58.3549218,68.5429688 C59.0346127,68.5429688 59.540467,68.7343731 59.8724999,69.1171875 C60.2045329,69.5000019 60.3724999,70.0742149 60.3764062,70.8398438 L60.3764062,75 L59.6791406,75 L59.6791406,70.8339844 C59.6752343,70.2675753 59.5551183,69.8457045 59.318789,69.5683594 C59.0824597,69.2910142 58.7045338,69.1523438 58.1849999,69.1523438 C57.751404,69.1523438 57.3676188,69.2880846 57.0336328,69.5595703 C56.6996467,69.831056 56.4525789,70.1972633 56.2924218,70.6582031 L56.2924218,75 L55.5951562,75 L55.5951562,68.6601562 L56.2631249,68.6601562 Z M64.5367968,67.0371094 L64.5367968,68.6601562 L65.8492968,68.6601562 L65.8492968,69.234375 L64.5367968,69.234375 L64.5367968,73.4589844 C64.5367968,73.8105486 64.6002727,74.0722648 64.7272265,74.2441406 C64.8541803,74.4160165 65.0660922,74.5019531 65.3629687,74.5019531 C65.4801568,74.5019531 65.669608,74.4824221 65.9313281,74.4433594 L65.9606249,75.0175781 C65.7770303,75.0839847 65.5270328,75.1171875 65.2106249,75.1171875 C64.7301538,75.1171875 64.3805479,74.9775405 64.1617968,74.6982422 C63.9430457,74.4189439 63.8336718,74.0078152 63.8336718,73.4648438 L63.8336718,69.234375 L62.6676562,69.234375 L62.6676562,68.6601562 L63.8336718,68.6601562 L63.8336718,67.0371094 L64.5367968,67.0371094 Z M68.4979687,74.578125 C68.4979687,74.4414056 68.5419135,74.3251958 68.6298046,74.2294922 C68.7176957,74.1337886 68.8397648,74.0859375 68.9960155,74.0859375 C69.1522663,74.0859375 69.275312,74.1337886 69.3651562,74.2294922 C69.4550004,74.3251958 69.4999218,74.4414056 69.4999218,74.578125 C69.4999218,74.7148444 69.4550004,74.827148 69.3651562,74.9150391 C69.275312,75.0029301 69.1522663,75.046875 68.9960155,75.046875 C68.8397648,75.046875 68.7176957,75.0029301 68.6298046,74.9150391 C68.5419135,74.827148 68.4979687,74.7148444 68.4979687,74.578125 L68.4979687,74.578125 Z M81.7289062,71.015625 L77.7503905,71.015625 L77.7503905,75 L77.0296874,75 L77.0296874,66.46875 L82.3148437,66.46875 L82.3148437,67.0839844 L77.7503905,67.0839844 L77.7503905,70.4003906 L81.7289062,70.4003906 L81.7289062,71.015625 Z M85.6607811,75 L84.9576561,75 L84.9576561,68.6601562 L85.6607811,68.6601562 L85.6607811,75 Z M84.8346093,66.8261719 C84.8346093,66.6933587 84.8775776,66.5810551 84.9635155,66.4892578 C85.0494534,66.3974605 85.1666398,66.3515625 85.315078,66.3515625 C85.4635163,66.3515625 85.5816791,66.3974605 85.6695702,66.4892578 C85.7574613,66.5810551 85.8014061,66.6933587 85.8014061,66.8261719 C85.8014061,66.958985 85.7574613,67.0703121 85.6695702,67.1601562 C85.5816791,67.2500004 85.4635163,67.2949219 85.315078,67.2949219 C85.1666398,67.2949219 85.0494534,67.2500004 84.9635155,67.1601562 C84.8775776,67.0703121 84.8346093,66.958985 84.8346093,66.8261719 L84.8346093,66.8261719 Z M88.543828,71.7714844 C88.543828,70.7792919 88.7635524,69.993167 89.2030077,69.4130859 C89.642463,68.8330049 90.243043,68.5429688 91.0047655,68.5429688 C91.8602385,68.5429688 92.5106227,68.8691374 92.9559374,69.5214844 L92.9910936,68.6601562 L93.6473436,68.6601562 L93.6473436,77.4375 L92.9442186,77.4375 L92.9442186,74.2148438 C92.4832788,74.8164093 91.8328947,75.1171875 90.9930468,75.1171875 C90.2508555,75.1171875 89.6571115,74.8242217 89.2117968,74.2382812 C88.766482,73.6523408 88.543828,72.8613331 88.543828,71.8652344 L88.543828,71.7714844 Z M89.2528124,71.8945312 C89.2528124,72.7148479 89.4178498,73.3583961 89.7479296,73.8251953 C90.0780093,74.2919945 90.5360126,74.5253906 91.121953,74.5253906 C91.961801,74.5253906 92.5692168,74.1601599 92.9442186,73.4296875 L92.9442186,70.3242188 C92.7684365,69.9453106 92.5252749,69.6533213 92.2147264,69.4482422 C91.904178,69.243163 91.5438301,69.140625 91.1336718,69.140625 C90.5438251,69.140625 90.0828922,69.3740211 89.7508593,69.8408203 C89.4188264,70.3076195 89.2528124,70.992183 89.2528124,71.8945312 L89.2528124,71.8945312 Z M100.854609,74.1972656 C100.432732,74.8105499 99.7589108,75.1171875 98.8331249,75.1171875 C98.1573402,75.1171875 97.6436735,74.9209004 97.2921093,74.5283203 C96.940545,74.1357402 96.7608593,73.5546913 96.7530468,72.7851562 L96.7530468,68.6601562 L97.4503124,68.6601562 L97.4503124,72.6972656 C97.4503124,73.9043029 97.9385887,74.5078125 98.9151561,74.5078125 C99.9307862,74.5078125 100.573358,74.0878948 100.842891,73.2480469 L100.842891,68.6601562 L101.546016,68.6601562 L101.546016,75 L100.866328,75 L100.854609,74.1972656 Z M107.083359,75.1171875 C106.544294,75.1171875 106.056994,74.9843763 105.621445,74.71875 C105.185896,74.4531237 104.847032,74.0830102 104.604844,73.6083984 C104.362655,73.1337867 104.241562,72.6015654 104.241562,72.0117188 L104.241562,71.7597656 C104.241562,71.1503876 104.359725,70.6015649 104.596055,70.1132812 C104.832384,69.6249976 105.161482,69.2412123 105.583359,68.9619141 C106.005236,68.6826158 106.462263,68.5429688 106.954453,68.5429688 C107.723988,68.5429688 108.334334,68.8056614 108.785508,69.3310547 C109.236682,69.8564479 109.462265,70.5742142 109.462265,71.484375 L109.462265,71.8769531 L104.938828,71.8769531 L104.938828,72.0117188 C104.938828,72.7304723 105.144881,73.3290992 105.556992,73.8076172 C105.969103,74.2861352 106.487653,74.5253906 107.112656,74.5253906 C107.487658,74.5253906 107.818709,74.4570319 108.10582,74.3203125 C108.392931,74.1835931 108.653671,73.9648453 108.888047,73.6640625 L109.3275,73.9980469 C108.811872,74.7441444 108.063833,75.1171875 107.083359,75.1171875 L107.083359,75.1171875 Z M106.954453,69.140625 C106.427107,69.140625 105.982775,69.3339824 105.621445,69.7207031 C105.260115,70.1074238 105.040391,70.6269499 104.962265,71.2792969 L108.765,71.2792969 L108.765,71.203125 C108.745469,70.593747 108.571642,70.0976582 108.243515,69.7148438 C107.915389,69.3320293 107.485706,69.140625 106.954453,69.140625 L106.954453,69.140625 Z M117.355312,67.0371094 L117.355312,68.6601562 L118.667812,68.6601562 L118.667812,69.234375 L117.355312,69.234375 L117.355312,73.4589844 C117.355312,73.8105486 117.418788,74.0722648 117.545742,74.2441406 C117.672696,74.4160165 117.884608,74.5019531 118.181484,74.5019531 C118.298672,74.5019531 118.488124,74.4824221 118.749844,74.4433594 L118.77914,75.0175781 C118.595546,75.0839847 118.345548,75.1171875 118.02914,75.1171875 C117.548669,75.1171875 117.199063,74.9775405 116.980312,74.6982422 C116.761561,74.4189439 116.652187,74.0078152 116.652187,73.4648438 L116.652187,69.234375 L115.486172,69.234375 L115.486172,68.6601562 L116.652187,68.6601562 L116.652187,67.0371094 L117.355312,67.0371094 Z M124.310625,69.2578125 C124.162187,69.2304686 124.003985,69.2167969 123.836015,69.2167969 C123.398513,69.2167969 123.0284,69.338866 122.725664,69.5830078 C122.422928,69.8271497 122.20711,70.1816383 122.078203,70.6464844 L122.078203,75 L121.380937,75 L121.380937,68.6601562 L122.066484,68.6601562 L122.078203,69.6679688 C122.449299,68.917965 123.044996,68.5429688 123.865312,68.5429688 C124.060626,68.5429688 124.214921,68.5683591 124.328203,68.6191406 L124.310625,69.2578125 Z M130.445625,75 C130.375312,74.8007803 130.330391,74.5058613 130.310859,74.1152344 C130.064764,74.4355485 129.751291,74.6826163 129.37043,74.8564453 C128.989568,75.0302743 128.586252,75.1171875 128.160469,75.1171875 C127.551091,75.1171875 127.057931,74.9472673 126.680976,74.6074219 C126.304021,74.2675764 126.115547,73.8378932 126.115547,73.3183594 C126.115547,72.7011688 126.37238,72.2128924 126.886055,71.8535156 C127.399729,71.4941388 128.115542,71.3144531 129.033515,71.3144531 L130.305,71.3144531 L130.305,70.59375 C130.305,70.1406227 130.165353,69.784181 129.886055,69.5244141 C129.606756,69.2646471 129.199534,69.1347656 128.664375,69.1347656 C128.176091,69.1347656 127.771798,69.2597644 127.451484,69.5097656 C127.13117,69.7597669 126.971015,70.0605451 126.971015,70.4121094 L126.26789,70.40625 C126.26789,69.9023412 126.502263,69.4658222 126.971015,69.0966797 C127.439768,68.7275372 128.015934,68.5429688 128.699531,68.5429688 C129.406566,68.5429688 129.964177,68.7197248 130.372383,69.0732422 C130.780588,69.4267596 130.990547,69.9199187 131.002265,70.5527344 L131.002265,73.5527344 C131.002265,74.1660187 131.066718,74.6249985 131.195625,74.9296875 L131.195625,75 L130.445625,75 Z M128.2425,74.4960938 C128.711252,74.4960938 129.130193,74.3828136 129.499336,74.15625 C129.868478,73.9296864 130.13703,73.626955 130.305,73.2480469 L130.305,71.8535156 L129.051094,71.8535156 C128.351871,71.8613282 127.805002,71.9892566 127.410469,72.2373047 C127.015935,72.4853528 126.818672,72.8261697 126.818672,73.2597656 C126.818672,73.6152362 126.950506,73.9101551 127.21418,74.1445312 C127.477853,74.3789074 127.820623,74.4960938 128.2425,74.4960938 L128.2425,74.4960938 Z M134.799375,68.6601562 L134.822812,69.7441406 C135.061095,69.3535137 135.357967,69.0556651 135.713437,68.8505859 C136.068908,68.6455068 136.461482,68.5429688 136.891172,68.5429688 C137.570863,68.5429688 138.076717,68.7343731 138.40875,69.1171875 C138.740783,69.5000019 138.90875,70.0742149 138.912656,70.8398438 L138.912656,75 L138.21539,75 L138.21539,70.8339844 C138.211484,70.2675753 138.091368,69.8457045 137.855039,69.5683594 C137.61871,69.2910142 137.240784,69.1523438 136.72125,69.1523438 C136.287654,69.1523438 135.903869,69.2880846 135.569883,69.5595703 C135.235897,69.831056 134.988829,70.1972633 134.828672,70.6582031 L134.828672,75 L134.131406,75 L134.131406,68.6601562 L134.799375,68.6601562 Z M141.701953,71.7714844 C141.701953,70.7792919 141.921677,69.993167 142.361133,69.4130859 C142.800588,68.8330049 143.401168,68.5429688 144.16289,68.5429688 C145.018363,68.5429688 145.668748,68.8691374 146.114062,69.5214844 L146.149219,68.6601562 L146.805469,68.6601562 L146.805469,77.4375 L146.102344,77.4375 L146.102344,74.2148438 C145.641404,74.8164093 144.99102,75.1171875 144.151172,75.1171875 C143.40898,75.1171875 142.815236,74.8242217 142.369922,74.2382812 C141.924607,73.6523408 141.701953,72.8613331 141.701953,71.8652344 L141.701953,71.7714844 Z M142.410937,71.8945312 C142.410937,72.7148479 142.575975,73.3583961 142.906054,73.8251953 C143.236134,74.2919945 143.694138,74.5253906 144.280078,74.5253906 C145.119926,74.5253906 145.727342,74.1601599 146.102344,73.4296875 L146.102344,70.3242188 C145.926561,69.9453106 145.6834,69.6533213 145.372851,69.4482422 C145.062303,69.243163 144.701955,69.140625 144.291797,69.140625 C143.70195,69.140625 143.241017,69.3740211 142.908984,69.8408203 C142.576951,70.3076195 142.410937,70.992183 142.410937,71.8945312 L142.410937,71.8945312 Z M154.012734,74.1972656 C153.590857,74.8105499 152.917036,75.1171875 151.99125,75.1171875 C151.315465,75.1171875 150.801798,74.9209004 150.450234,74.5283203 C150.09867,74.1357402 149.918984,73.5546913 149.911172,72.7851562 L149.911172,68.6601562 L150.608437,68.6601562 L150.608437,72.6972656 C150.608437,73.9043029 151.096714,74.5078125 152.073281,74.5078125 C153.088911,74.5078125 153.731483,74.0878948 154.001015,73.2480469 L154.001015,68.6601562 L154.70414,68.6601562 L154.70414,75 L154.024453,75 L154.012734,74.1972656 Z M158.571562,75 L157.868437,75 L157.868437,68.6601562 L158.571562,68.6601562 L158.571562,75 Z M157.74539,66.8261719 C157.74539,66.6933587 157.788359,66.5810551 157.874297,66.4892578 C157.960235,66.3974605 158.077421,66.3515625 158.225859,66.3515625 C158.374297,66.3515625 158.49246,66.3974605 158.580351,66.4892578 C158.668242,66.5810551 158.712187,66.6933587 158.712187,66.8261719 C158.712187,66.958985 158.668242,67.0703121 158.580351,67.1601562 C158.49246,67.2500004 158.374297,67.2949219 158.225859,67.2949219 C158.077421,67.2949219 157.960235,67.2500004 157.874297,67.1601562 C157.788359,67.0703121 157.74539,66.958985 157.74539,66.8261719 L157.74539,66.8261719 Z M162.521015,75 L161.81789,75 L161.81789,66 L162.521015,66 L162.521015,75 Z M165.298594,71.7363281 C165.298594,71.1269501 165.416756,70.5781274 165.653086,70.0898438 C165.889415,69.6015601 166.223396,69.221681 166.655039,68.9501953 C167.086682,68.6787096 167.575935,68.5429688 168.122812,68.5429688 C168.966566,68.5429688 169.650153,68.8388642 170.173594,69.4306641 C170.697034,70.0224639 170.95875,70.8066357 170.95875,71.7832031 L170.95875,71.9296875 C170.95875,72.5429718 170.840587,73.0947241 170.604258,73.5849609 C170.367928,74.0751978 170.034924,74.4531237 169.605234,74.71875 C169.175544,74.9843763 168.685315,75.1171875 168.134531,75.1171875 C167.294683,75.1171875 166.612073,74.821292 166.086679,74.2294922 C165.561286,73.6376924 165.298594,72.8535205 165.298594,71.8769531 L165.298594,71.7363281 Z M166.001719,71.9296875 C166.001719,72.6875038 166.198006,73.3095679 166.590586,73.7958984 C166.983166,74.282229 167.497809,74.5253906 168.134531,74.5253906 C168.767347,74.5253906 169.280037,74.282229 169.672617,73.7958984 C170.065197,73.3095679 170.261484,72.6679727 170.261484,71.8710938 L170.261484,71.7363281 C170.261484,71.2519507 170.171641,70.8085958 169.991953,70.40625 C169.812264,70.0039042 169.560314,69.6923839 169.236094,69.4716797 C168.911873,69.2509755 168.540783,69.140625 168.122812,69.140625 C167.497809,69.140625 166.988049,69.3857397 166.593515,69.8759766 C166.198982,70.3662134 166.001719,71.0078085 166.001719,71.8007812 L166.001719,71.9296875 Z M173.601562,74.578125 C173.601562,74.4414056 173.645507,74.3251958 173.733398,74.2294922 C173.821289,74.1337886 173.943358,74.0859375 174.099609,74.0859375 C174.25586,74.0859375 174.378906,74.1337886 174.46875,74.2294922 C174.558594,74.3251958 174.603515,74.4414056 174.603515,74.578125 C174.603515,74.7148444 174.558594,74.827148 174.46875,74.9150391 C174.378906,75.0029301 174.25586,75.046875 174.099609,75.046875 C173.943358,75.046875 173.821289,75.0029301 173.733398,74.9150391 C173.645507,74.827148 173.601562,74.7148444 173.601562,74.578125 L173.601562,74.578125 Z" id="We-open-a-new-Highli"></path>
            </g>
        </g>
    </g>
</svg>