<?xml version="1.0" encoding="UTF-8"?>
<svg width="208px" height="78px" viewBox="0 0 208 78" version="1.1" xmlns="http://www.w3.org/2000/svg" xmlns:xlink="http://www.w3.org/1999/xlink">
    <!-- Generator: Sketch 41.2 (35397) - http://www.bohemiancoding.com/sketch -->
    <title>Group</title>
    <desc>Created with Sketch.</desc>
    <defs></defs>
    <g id="Page-1" stroke="none" stroke-width="1" fill="none" fill-rule="evenodd">
        <g id="Desktop-HD" transform="translate(-337.000000, -56.000000)" fill="#000000">
            <g id="Group" transform="translate(337.000000, 56.000000)">
                <path d="M4.08789062,6.56347656 C2.96223396,6.23990724 2.14306897,5.84228751 1.63037109,5.37060547 C1.11767322,4.89892342 0.861328125,4.31673523 0.861328125,3.62402344 C0.861328125,2.84016535 1.17463879,2.19189709 1.80126953,1.67919922 C2.42790027,1.16650134 3.24250801,0.91015625 4.24511719,0.91015625 C4.92871436,0.91015625 5.53824602,1.04231639 6.07373047,1.30664062 C6.60921492,1.57096486 7.02392431,1.93554455 7.31787109,2.40039062 C7.61181788,2.8652367 7.75878906,3.37336964 7.75878906,3.92480469 L6.43945313,3.92480469 C6.43945313,3.32323918 6.24804879,2.8504249 5.86523438,2.50634766 C5.48241996,2.16227042 4.9423863,1.99023438 4.24511719,1.99023438 C3.59797854,1.99023438 3.09326353,2.13264832 2.73095703,2.41748047 C2.36865053,2.70231262 2.1875,3.09765372 2.1875,3.60351562 C2.1875,4.00911661 2.35953604,4.35204938 2.70361328,4.63232422 C3.04769052,4.91259906 3.63329665,5.16894415 4.46044922,5.40136719 C5.28760179,5.63379022 5.93473074,5.89013532 6.40185547,6.17041016 C6.8689802,6.450685 7.2153309,6.7776674 7.44091797,7.15136719 C7.66650503,7.52506697 7.77929688,7.96484122 7.77929688,8.47070312 C7.77929688,9.27734778 7.46484689,9.92333742 6.8359375,10.4086914 C6.20702811,10.8940454 5.3662162,11.1367188 4.31347656,11.1367188 C3.62987939,11.1367188 2.99186494,11.0056979 2.39941406,10.7436523 C1.80696318,10.4816068 1.35009926,10.1227236 1.02880859,9.66699219 C0.707517925,9.21126074 0.546875,8.69401331 0.546875,8.11523438 L1.86621094,8.11523438 C1.86621094,8.71679988 2.08837668,9.19189279 2.53271484,9.54052734 C2.977053,9.8891619 3.57063431,10.0634766 4.31347656,10.0634766 C5.00618836,10.0634766 5.53710753,9.92220193 5.90625,9.63964844 C6.27539247,9.35709494 6.45996094,8.97200765 6.45996094,8.484375 C6.45996094,7.99674235 6.28906421,7.61963024 5.94726563,7.35302734 C5.60546704,7.08642445 4.98568157,6.82324349 4.08789062,6.56347656 L4.08789062,6.56347656 Z M16.2970313,8.40234375 L12.1271094,8.40234375 L11.190586,11 L9.83707035,11 L13.6378516,1.046875 L14.7862891,1.046875 L18.5939063,11 L17.2472266,11 L16.2970313,8.40234375 Z M12.5235938,7.32226562 L15.9073828,7.32226562 L14.2120703,2.66699219 L12.5235938,7.32226562 Z M22.6819532,11 L21.3694532,11 L21.3694532,1.046875 L22.6819532,1.046875 L22.6819532,11 Z M34.0707814,11 L32.7514454,11 L27.7407032,3.33007812 L27.7407032,11 L26.4213673,11 L26.4213673,1.046875 L27.7407032,1.046875 L32.7651173,8.75097656 L32.7651173,1.046875 L34.0707814,1.046875 L34.0707814,11 Z M44.420547,2.12695312 L41.2213283,2.12695312 L41.2213283,11 L39.9156642,11 L39.9156642,2.12695312 L36.7232814,2.12695312 L36.7232814,1.046875 L44.420547,1.046875 L44.420547,2.12695312 Z M59.1181252,9.69433594 C58.7808839,10.1774113 58.3103483,10.538573 57.7065041,10.777832 C57.1026599,11.017091 56.3997047,11.1367188 55.5976174,11.1367188 C54.7864154,11.1367188 54.0663705,10.9464537 53.4374611,10.565918 C52.8085517,10.1853822 52.3220657,9.64420924 51.9779885,8.94238281 C51.6339112,8.24055639 51.457318,7.42708796 51.4482033,6.50195312 L51.4482033,5.63378906 C51.4482033,4.13443261 51.797972,2.97233485 52.4975197,2.14746094 C53.1970675,1.32258702 54.1802933,0.91015625 55.4472268,0.91015625 C56.4862945,0.91015625 57.3225491,1.17561583 57.9560158,1.70654297 C58.5894825,2.2374701 58.9768485,2.99055502 59.1181252,3.96582031 L57.8056252,3.96582031 C57.5595302,2.64875644 56.7756839,1.99023438 55.4540627,1.99023438 C54.574501,1.99023438 53.9080038,2.2989878 53.454551,2.91650391 C53.0010982,3.53402001 52.7720966,4.42837956 52.7675393,5.59960938 L52.7675393,6.41308594 C52.7675393,7.52962798 53.022745,8.41715166 53.5331643,9.07568359 C54.0435835,9.73421553 54.7340063,10.0634766 55.6044533,10.0634766 C56.0966433,10.0634766 56.527303,10.0087896 56.8964455,9.89941406 C57.265588,9.79003852 57.5709235,9.60547005 57.8124611,9.34570312 L57.8124611,7.11035156 L55.5087502,7.11035156 L55.5087502,6.04394531 L59.1181252,6.04394531 L59.1181252,9.69433594 Z M68.2716018,6.39941406 L63.9581252,6.39941406 L63.9581252,9.92675781 L68.9688674,9.92675781 L68.9688674,11 L62.6456252,11 L62.6456252,1.046875 L68.900508,1.046875 L68.900508,2.12695312 L63.9581252,2.12695312 L63.9581252,5.32617188 L68.2716018,5.32617188 L68.2716018,6.39941406 Z M79.5989065,6.34472656 C79.5989065,7.31999186 79.4348457,8.17105756 79.106719,8.89794922 C78.7785924,9.62484087 78.3137533,10.1796856 77.7121878,10.5625 C77.1106223,10.9453144 76.4088064,11.1367188 75.606719,11.1367188 C74.8228609,11.1367188 74.1278809,10.9441751 73.5217581,10.559082 C72.9156353,10.173989 72.4450996,9.62484081 72.110137,8.91162109 C71.7751744,8.19840138 71.6031383,7.37240053 71.5940237,6.43359375 L71.5940237,5.71582031 C71.5940237,4.75878428 71.7603632,3.91341513 72.0930471,3.1796875 C72.4257311,2.44595987 72.8962668,1.88427929 73.5046682,1.49462891 C74.1130697,1.10497852 74.8091891,0.91015625 75.5930471,0.91015625 C76.3905772,0.91015625 77.0935324,1.1026999 77.7019339,1.48779297 C78.3103353,1.87288604 78.7785924,2.43114869 79.106719,3.16259766 C79.4348457,3.89404663 79.5989065,4.74511233 79.5989065,5.71582031 L79.5989065,6.34472656 Z M78.2932425,5.70214844 C78.2932425,4.52180399 78.0562657,3.61605133 77.582305,2.98486328 C77.1083443,2.35367523 76.4452649,2.03808594 75.5930471,2.03808594 C74.7636159,2.03808594 74.1107904,2.35367523 73.634551,2.98486328 C73.1583117,3.61605133 72.9133597,4.49218189 72.8996878,5.61328125 L72.8996878,6.34472656 C72.8996878,7.48861249 73.1400825,8.38752928 73.6208792,9.04150391 C74.1016758,9.69547853 74.7636158,10.0224609 75.606719,10.0224609 C76.4543795,10.0224609 77.1106229,9.71370751 77.575469,9.09619141 C78.0403151,8.4786753 78.2795705,7.59343024 78.2932425,6.44042969 L78.2932425,5.70214844 Z M86.5580472,6.97363281 L84.2201566,6.97363281 L84.2201566,11 L82.9008206,11 L82.9008206,1.046875 L86.1957425,1.046875 C87.3168418,1.046875 88.1793007,1.30208078 88.7831448,1.8125 C89.386989,2.32291922 89.6889066,3.06575033 89.6889066,4.04101562 C89.6889066,4.66081039 89.5214278,5.20084405 89.1864651,5.66113281 C88.8515025,6.12142157 88.3855241,6.46549365 87.7885159,6.69335938 L90.1264066,10.9179688 L90.1264066,11 L88.7182034,11 L86.5580472,6.97363281 Z M84.2201566,5.90039062 L86.2367581,5.90039062 C86.8884541,5.90039062 87.4068408,5.73177252 87.7919339,5.39453125 C88.177027,5.05728998 88.3695706,4.60612262 88.3695706,4.04101562 C88.3695706,3.42577817 88.1861415,2.9541032 87.8192776,2.62597656 C87.4524138,2.29784992 86.922634,2.13151044 86.2299222,2.12695312 L84.2201566,2.12695312 L84.2201566,5.90039062 Z M100.216407,9.69433594 C99.8791653,10.1774113 99.4086297,10.538573 98.8047855,10.777832 C98.2009413,11.017091 97.4979861,11.1367188 96.6958988,11.1367188 C95.8846968,11.1367188 95.1646519,10.9464537 94.5357425,10.565918 C93.9068331,10.1853822 93.4203471,9.64420924 93.0762699,8.94238281 C92.7321926,8.24055639 92.5555993,7.42708796 92.5464847,6.50195312 L92.5464847,5.63378906 C92.5464847,4.13443261 92.8962533,2.97233485 93.5958011,2.14746094 C94.2953489,1.32258702 95.2785747,0.91015625 96.5455081,0.91015625 C97.5845758,0.91015625 98.4208305,1.17561583 99.0542972,1.70654297 C99.6877639,2.2374701 100.07513,2.99055502 100.216407,3.96582031 L98.9039066,3.96582031 C98.6578116,2.64875644 97.8739653,1.99023438 96.5523441,1.99023438 C95.6727824,1.99023438 95.0062852,2.2989878 94.5528324,2.91650391 C94.0993796,3.53402001 93.870378,4.42837956 93.8658206,5.59960938 L93.8658206,6.41308594 C93.8658206,7.52962798 94.1210264,8.41715166 94.6314456,9.07568359 C95.1418649,9.73421553 95.8322876,10.0634766 96.7027347,10.0634766 C97.1949247,10.0634766 97.6255844,10.0087896 97.9947269,9.89941406 C98.3638694,9.79003852 98.6692049,9.60547005 98.9107425,9.34570312 L98.9107425,7.11035156 L96.6070316,7.11035156 L96.6070316,6.04394531 L100.216407,6.04394531 L100.216407,9.69433594 Z M109.369883,6.39941406 L105.056407,6.39941406 L105.056407,9.92675781 L110.067149,9.92675781 L110.067149,11 L103.743907,11 L103.743907,1.046875 L109.998789,1.046875 L109.998789,2.12695312 L105.056407,2.12695312 L105.056407,5.32617188 L109.369883,5.32617188 L109.369883,6.39941406 Z" id="SAINT-GEORGE"></path>
                <polygon id="X" points="202.402344 6.86132812 204.788086 3.046875 206.333008 3.046875 203.188477 7.98242188 206.408203 13 204.849609 13 202.402344 9.1171875 199.941406 13 198.389648 13 201.616211 7.98242188 198.464844 3.046875 200.00293 3.046875"></polygon>
                <path d="M5.68359375,40.609375 L1.81054688,40.609375 L0.931640625,43 L0.17578125,43 L3.40429688,34.46875 L4.08984375,34.46875 L7.31835938,43 L6.56835938,43 L5.68359375,40.609375 Z M2.03320312,39.9941406 L5.45507812,39.9941406 L3.74414062,35.3476562 L2.03320312,39.9941406 Z M10.595514,43 L10.595514,37.234375 L9.54668586,37.234375 L9.54668586,36.6601562 L10.595514,36.6601562 L10.595514,35.8925781 C10.595514,35.2441374 10.7605514,34.7460955 11.0906312,34.3984375 C11.4207109,34.0507795 11.8806673,33.8769531 12.470514,33.8769531 C12.7361403,33.8769531 12.9841847,33.9101559 13.2146546,33.9765625 L13.1619202,34.5625 C12.9666068,34.5156248 12.7537183,34.4921875 12.5232484,34.4921875 C12.1365277,34.4921875 11.8357494,34.6123035 11.6209046,34.8525391 C11.4060598,35.0927746 11.298639,35.4335915 11.298639,35.875 L11.298639,36.6601562 L12.8103577,36.6601562 L12.8103577,37.234375 L11.298639,37.234375 L11.298639,43 L10.595514,43 Z M16.8375123,35.0371094 L16.8375123,36.6601562 L18.1500123,36.6601562 L18.1500123,37.234375 L16.8375123,37.234375 L16.8375123,41.4589844 C16.8375123,41.8105486 16.9009883,42.0722648 17.027942,42.2441406 C17.1548958,42.4160165 17.3668077,42.5019531 17.6636842,42.5019531 C17.7808723,42.5019531 17.9703235,42.4824221 18.2320436,42.4433594 L18.2613405,43.0175781 C18.0777458,43.0839847 17.8277483,43.1171875 17.5113405,43.1171875 C17.0308693,43.1171875 16.6812634,42.9775405 16.4625123,42.6982422 C16.2437612,42.4189439 16.1343873,42.0078152 16.1343873,41.4648438 L16.1343873,37.234375 L14.9683717,37.234375 L14.9683717,36.6601562 L16.1343873,36.6601562 L16.1343873,35.0371094 L16.8375123,35.0371094 Z M23.7416201,43.1171875 C23.2025549,43.1171875 22.7152551,42.9843763 22.279706,42.71875 C21.844157,42.4531237 21.5052932,42.0830102 21.2631045,41.6083984 C21.0209157,41.1337867 20.8998232,40.6015654 20.8998232,40.0117188 L20.8998232,39.7597656 C20.8998232,39.1503876 21.0179861,38.6015649 21.2543154,38.1132812 C21.4906447,37.6249976 21.819743,37.2412123 22.2416201,36.9619141 C22.6634972,36.6826158 23.1205239,36.5429688 23.6127138,36.5429688 C24.3822489,36.5429688 24.9925944,36.8056614 25.4437685,37.3310547 C25.8949426,37.8564479 26.1205263,38.5742142 26.1205263,39.484375 L26.1205263,39.8769531 L21.5970888,39.8769531 L21.5970888,40.0117188 C21.5970888,40.7304723 21.8031415,41.3290992 22.2152529,41.8076172 C22.6273643,42.2861352 23.1459138,42.5253906 23.770917,42.5253906 C24.1459188,42.5253906 24.4769702,42.4570319 24.764081,42.3203125 C25.0511918,42.1835931 25.3119314,41.9648453 25.5463076,41.6640625 L25.9857607,41.9980469 C25.4701331,42.7441444 24.7220937,43.1171875 23.7416201,43.1171875 L23.7416201,43.1171875 Z M23.6127138,37.140625 C23.0853674,37.140625 22.6410359,37.3339824 22.279706,37.7207031 C21.9183761,38.1074238 21.6986517,38.6269499 21.6205263,39.2792969 L25.4232607,39.2792969 L25.4232607,39.203125 C25.4037294,38.593747 25.229903,38.0976582 24.9017763,37.7148438 C24.5736497,37.3320293 24.1439665,37.140625 23.6127138,37.140625 L23.6127138,37.140625 Z M32.0988528,37.2578125 C31.9504146,37.2304686 31.792213,37.2167969 31.6242434,37.2167969 C31.1867412,37.2167969 30.8166278,37.338866 30.5138919,37.5830078 C30.211156,37.8271497 29.9953378,38.1816383 29.8664309,38.6464844 L29.8664309,43 L29.1691653,43 L29.1691653,36.6601562 L29.8547122,36.6601562 L29.8664309,37.6679688 C30.2375265,36.917965 30.8332237,36.5429688 31.6535403,36.5429688 C31.8488538,36.5429688 32.0031491,36.5683591 32.1164309,36.6191406 L32.0988528,37.2578125 Z M45.4946176,36.6601562 L45.5180551,37.6914062 C45.7524313,37.3085918 46.0453971,37.0214853 46.3969614,36.8300781 C46.7485256,36.6386709 47.1391467,36.5429688 47.5688364,36.5429688 C48.5688414,36.5429688 49.2036006,36.9531209 49.4731332,37.7734375 C49.6996969,37.3789043 50.0024282,37.0751964 50.3813364,36.8623047 C50.7602445,36.649413 51.1782091,36.5429688 51.6352426,36.5429688 C52.9946244,36.5429688 53.6879768,37.2851488 53.7153207,38.7695312 L53.7153207,43 L53.0121957,43 L53.0121957,38.8222656 C53.0082895,38.2558565 52.8862204,37.8359389 52.6459848,37.5625 C52.4057492,37.2890611 52.0141516,37.1523438 51.4711801,37.1523438 C50.9672713,37.1601563 50.5414943,37.3232406 50.1938364,37.6416016 C49.8461784,37.9599625 49.6528209,38.347654 49.6137582,38.8046875 L49.6137582,43 L48.9106332,43 L48.9106332,38.7695312 C48.906727,38.2265598 48.7787985,37.8212904 48.5268442,37.5537109 C48.2748898,37.2861315 47.8871983,37.1523438 47.3637582,37.1523438 C46.9223498,37.1523438 46.5434473,37.2783191 46.2270395,37.5302734 C45.9106316,37.7822278 45.676259,38.1562475 45.5239145,38.6523438 L45.5239145,43 L44.8207895,43 L44.8207895,36.6601562 L45.4946176,36.6601562 Z M56.7873972,39.7363281 C56.7873972,39.1269501 56.9055601,38.5781274 57.1418894,38.0898438 C57.3782187,37.6015601 57.7121997,37.221681 58.1438425,36.9501953 C58.5754853,36.6787096 59.0647382,36.5429688 59.611616,36.5429688 C60.4553702,36.5429688 61.1389571,36.8388642 61.6623972,37.4306641 C62.1858373,38.0224639 62.4475535,38.8066357 62.4475535,39.7832031 L62.4475535,39.9296875 C62.4475535,40.5429718 62.3293906,41.0947241 62.0930613,41.5849609 C61.856732,42.0751978 61.5237275,42.4531237 61.0940378,42.71875 C60.6643482,42.9843763 60.1741187,43.1171875 59.6233347,43.1171875 C58.7834868,43.1171875 58.1008764,42.821292 57.5754831,42.2294922 C57.0500899,41.6376924 56.7873972,40.8535205 56.7873972,39.8769531 L56.7873972,39.7363281 Z M57.4905222,39.9296875 C57.4905222,40.6875038 57.6868093,41.3095679 58.0793894,41.7958984 C58.4719695,42.282229 58.9866128,42.5253906 59.6233347,42.5253906 C60.2561504,42.5253906 60.7688406,42.282229 61.1614206,41.7958984 C61.5540007,41.3095679 61.7502878,40.6679727 61.7502878,39.8710938 L61.7502878,39.7363281 C61.7502878,39.2519507 61.660445,38.8085958 61.4807566,38.40625 C61.3010682,38.0039042 61.0491176,37.6923839 60.7248972,37.4716797 C60.4006768,37.2509755 60.0295868,37.140625 59.611616,37.140625 C58.9866128,37.140625 58.4768523,37.3857397 58.0823191,37.8759766 C57.6877859,38.3662134 57.4905222,39.0078085 57.4905222,39.8007812 L57.4905222,39.9296875 Z M68.5079112,37.2578125 C68.359473,37.2304686 68.2012714,37.2167969 68.0333018,37.2167969 C67.5957996,37.2167969 67.2256861,37.338866 66.9229503,37.5830078 C66.6202144,37.8271497 66.4043962,38.1816383 66.2754893,38.6464844 L66.2754893,43 L65.5782237,43 L65.5782237,36.6601562 L66.2637706,36.6601562 L66.2754893,37.6679688 C66.6465849,36.917965 67.2422821,36.5429688 68.0625987,36.5429688 C68.2579122,36.5429688 68.4122075,36.5683591 68.5254893,36.6191406 L68.5079112,37.2578125 Z M73.6424877,43.1171875 C73.1034225,43.1171875 72.6161227,42.9843763 72.1805736,42.71875 C71.7450246,42.4531237 71.4061608,42.0830102 71.1639721,41.6083984 C70.9217833,41.1337867 70.8006908,40.6015654 70.8006908,40.0117188 L70.8006908,39.7597656 C70.8006908,39.1503876 70.9188537,38.6015649 71.155183,38.1132812 C71.3915123,37.6249976 71.7206106,37.2412123 72.1424877,36.9619141 C72.5643648,36.6826158 73.0213915,36.5429688 73.5135814,36.5429688 C74.2831165,36.5429688 74.893462,36.8056614 75.3446361,37.3310547 C75.7958102,37.8564479 76.0213939,38.5742142 76.0213939,39.484375 L76.0213939,39.8769531 L71.4979564,39.8769531 L71.4979564,40.0117188 C71.4979564,40.7304723 71.7040091,41.3290992 72.1161205,41.8076172 C72.5282319,42.2861352 73.0467814,42.5253906 73.6717846,42.5253906 C74.0467864,42.5253906 74.3778378,42.4570319 74.6649486,42.3203125 C74.9520594,42.1835931 75.212799,41.9648453 75.4471752,41.6640625 L75.8866283,41.9980469 C75.3710007,42.7441444 74.6229613,43.1171875 73.6424877,43.1171875 L73.6424877,43.1171875 Z M73.5135814,37.140625 C72.986235,37.140625 72.5419035,37.3339824 72.1805736,37.7207031 C71.8192437,38.1074238 71.5995193,38.6269499 71.5213939,39.2792969 L75.3241283,39.2792969 L75.3241283,39.203125 C75.304597,38.593747 75.1307706,38.0976582 74.8026439,37.7148438 C74.4745173,37.3320293 74.0448341,37.140625 73.5135814,37.140625 L73.5135814,37.140625 Z M90.1261431,35.0371094 L90.1261431,36.6601562 L91.4386431,36.6601562 L91.4386431,37.234375 L90.1261431,37.234375 L90.1261431,41.4589844 C90.1261431,41.8105486 90.189619,42.0722648 90.3165728,42.2441406 C90.4435265,42.4160165 90.6554385,42.5019531 90.952315,42.5019531 C91.0695031,42.5019531 91.2589543,42.4824221 91.5206743,42.4433594 L91.5499712,43.0175781 C91.3663765,43.0839847 91.116379,43.1171875 90.7999712,43.1171875 C90.3195001,43.1171875 89.9698942,42.9775405 89.7511431,42.6982422 C89.532392,42.4189439 89.4230181,42.0078152 89.4230181,41.4648438 L89.4230181,37.234375 L88.2570025,37.234375 L88.2570025,36.6601562 L89.4230181,36.6601562 L89.4230181,35.0371094 L90.1261431,35.0371094 Z M95.2724383,37.7324219 C95.5029082,37.3535137 95.7978272,37.0605479 96.157204,36.8535156 C96.5165807,36.6464833 96.9091549,36.5429688 97.3349383,36.5429688 C98.0146292,36.5429688 98.5204835,36.7343731 98.8525165,37.1171875 C99.1845494,37.5000019 99.3525164,38.0742149 99.3564227,38.8398438 L99.3564227,43 L98.6591571,43 L98.6591571,38.8339844 C98.6552508,38.2675753 98.5351348,37.8457045 98.2988055,37.5683594 C98.0624762,37.2910142 97.6845503,37.1523438 97.1650165,37.1523438 C96.7314205,37.1523438 96.3476353,37.2880846 96.0136493,37.5595703 C95.6796632,37.831056 95.4325954,38.1972633 95.2724383,38.6582031 L95.2724383,43 L94.5751727,43 L94.5751727,34 L95.2724383,34 L95.2724383,37.7324219 Z M106.846468,43 C106.776155,42.8007803 106.731234,42.5058613 106.711702,42.1152344 C106.465607,42.4355485 106.152134,42.6826163 105.771273,42.8564453 C105.390411,43.0302743 104.987095,43.1171875 104.561312,43.1171875 C103.951934,43.1171875 103.458775,42.9472673 103.081819,42.6074219 C102.704864,42.2675764 102.51639,41.8378932 102.51639,41.3183594 C102.51639,40.7011688 102.773223,40.2128924 103.286898,39.8535156 C103.800572,39.4941388 104.516385,39.3144531 105.434359,39.3144531 L106.705843,39.3144531 L106.705843,38.59375 C106.705843,38.1406227 106.566196,37.784181 106.286898,37.5244141 C106.007599,37.2646471 105.600377,37.1347656 105.065218,37.1347656 C104.576934,37.1347656 104.172641,37.2597644 103.852327,37.5097656 C103.532013,37.7597669 103.371859,38.0605451 103.371859,38.4121094 L102.668734,38.40625 C102.668734,37.9023412 102.903106,37.4658222 103.371859,37.0966797 C103.840611,36.7275372 104.416777,36.5429688 105.100374,36.5429688 C105.807409,36.5429688 106.365021,36.7197248 106.773226,37.0732422 C107.181431,37.4267596 107.39139,37.9199187 107.403109,38.5527344 L107.403109,41.5527344 C107.403109,42.1660187 107.467561,42.6249985 107.596468,42.9296875 L107.596468,43 L106.846468,43 Z M104.643343,42.4960938 C105.112095,42.4960938 105.531036,42.3828136 105.900179,42.15625 C106.269321,41.9296864 106.537873,41.626955 106.705843,41.2480469 L106.705843,39.8535156 L105.451937,39.8535156 C104.752714,39.8613282 104.205845,39.9892566 103.811312,40.2373047 C103.416778,40.4853528 103.219515,40.8261697 103.219515,41.2597656 C103.219515,41.6152362 103.351349,41.9101551 103.615023,42.1445312 C103.878696,42.3789074 104.221466,42.4960938 104.643343,42.4960938 L104.643343,42.4960938 Z M111.623623,36.6601562 L111.64706,37.7441406 C111.885342,37.3535137 112.182215,37.0556651 112.537685,36.8505859 C112.893156,36.6455068 113.28573,36.5429688 113.715419,36.5429688 C114.39511,36.5429688 114.900965,36.7343731 115.232998,37.1171875 C115.56503,37.5000019 115.732998,38.0742149 115.736904,38.8398438 L115.736904,43 L115.039638,43 L115.039638,38.8339844 C115.035732,38.2675753 114.915616,37.8457045 114.679287,37.5683594 C114.442957,37.2910142 114.065031,37.1523438 113.545498,37.1523438 C113.111902,37.1523438 112.728116,37.2880846 112.39413,37.5595703 C112.060144,37.831056 111.813076,38.1972633 111.652919,38.6582031 L111.652919,43 L110.955654,43 L110.955654,36.6601562 L111.623623,36.6601562 Z M133.199075,43 C133.128762,42.8007803 133.083841,42.5058613 133.064309,42.1152344 C132.818214,42.4355485 132.504741,42.6826163 132.12388,42.8564453 C131.743018,43.0302743 131.339702,43.1171875 130.913919,43.1171875 C130.304541,43.1171875 129.811381,42.9472673 129.434426,42.6074219 C129.057471,42.2675764 128.868997,41.8378932 128.868997,41.3183594 C128.868997,40.7011688 129.12583,40.2128924 129.639505,39.8535156 C130.153179,39.4941388 130.868992,39.3144531 131.786965,39.3144531 L133.05845,39.3144531 L133.05845,38.59375 C133.05845,38.1406227 132.918803,37.784181 132.639505,37.5244141 C132.360206,37.2646471 131.952984,37.1347656 131.417825,37.1347656 C130.929541,37.1347656 130.525248,37.2597644 130.204934,37.5097656 C129.88462,37.7597669 129.724465,38.0605451 129.724465,38.4121094 L129.02134,38.40625 C129.02134,37.9023412 129.255713,37.4658222 129.724465,37.0966797 C130.193218,36.7275372 130.769384,36.5429688 131.452981,36.5429688 C132.160016,36.5429688 132.717627,36.7197248 133.125833,37.0732422 C133.534038,37.4267596 133.743997,37.9199187 133.755715,38.5527344 L133.755715,41.5527344 C133.755715,42.1660187 133.820168,42.6249985 133.949075,42.9296875 L133.949075,43 L133.199075,43 Z M130.99595,42.4960938 C131.464702,42.4960938 131.883643,42.3828136 132.252786,42.15625 C132.621928,41.9296864 132.89048,41.626955 133.05845,41.2480469 L133.05845,39.8535156 L131.804544,39.8535156 C131.105321,39.8613282 130.558452,39.9892566 130.163919,40.2373047 C129.769385,40.4853528 129.572122,40.8261697 129.572122,41.2597656 C129.572122,41.6152362 129.703956,41.9101551 129.96763,42.1445312 C130.231303,42.3789074 130.574073,42.4960938 130.99595,42.4960938 L130.99595,42.4960938 Z M148.364371,35.0371094 L148.364371,36.6601562 L149.676871,36.6601562 L149.676871,37.234375 L148.364371,37.234375 L148.364371,41.4589844 C148.364371,41.8105486 148.427847,42.0722648 148.554801,42.2441406 C148.681754,42.4160165 148.893666,42.5019531 149.190543,42.5019531 C149.307731,42.5019531 149.497182,42.4824221 149.758902,42.4433594 L149.788199,43.0175781 C149.604604,43.0839847 149.354607,43.1171875 149.038199,43.1171875 C148.557728,43.1171875 148.208122,42.9775405 147.989371,42.6982422 C147.77062,42.4189439 147.661246,42.0078152 147.661246,41.4648438 L147.661246,37.234375 L146.49523,37.234375 L146.49523,36.6601562 L147.661246,36.6601562 L147.661246,35.0371094 L148.364371,35.0371094 Z M153.510666,37.7324219 C153.741136,37.3535137 154.036055,37.0605479 154.395432,36.8535156 C154.754809,36.6464833 155.147383,36.5429688 155.573166,36.5429688 C156.252857,36.5429688 156.758711,36.7343731 157.090744,37.1171875 C157.422777,37.5000019 157.590744,38.0742149 157.59465,38.8398438 L157.59465,43 L156.897385,43 L156.897385,38.8339844 C156.893479,38.2675753 156.773363,37.8457045 156.537033,37.5683594 C156.300704,37.2910142 155.922778,37.1523438 155.403244,37.1523438 C154.969648,37.1523438 154.585863,37.2880846 154.251877,37.5595703 C153.917891,37.831056 153.670823,38.1972633 153.510666,38.6582031 L153.510666,43 L152.8134,43 L152.8134,34 L153.510666,34 L153.510666,37.7324219 Z M160.696024,39.7363281 C160.696024,39.1269501 160.814187,38.5781274 161.050516,38.0898438 C161.286845,37.6015601 161.620826,37.221681 162.052469,36.9501953 C162.484112,36.6787096 162.973365,36.5429688 163.520243,36.5429688 C164.363997,36.5429688 165.047584,36.8388642 165.571024,37.4306641 C166.094464,38.0224639 166.35618,38.8066357 166.35618,39.7832031 L166.35618,39.9296875 C166.35618,40.5429718 166.238017,41.0947241 166.001688,41.5849609 C165.765359,42.0751978 165.432354,42.4531237 165.002664,42.71875 C164.572975,42.9843763 164.082745,43.1171875 163.531961,43.1171875 C162.692113,43.1171875 162.009503,42.821292 161.48411,42.2294922 C160.958717,41.6376924 160.696024,40.8535205 160.696024,39.8769531 L160.696024,39.7363281 Z M161.399149,39.9296875 C161.399149,40.6875038 161.595436,41.3095679 161.988016,41.7958984 C162.380596,42.282229 162.895239,42.5253906 163.531961,42.5253906 C164.164777,42.5253906 164.677467,42.282229 165.070047,41.7958984 C165.462627,41.3095679 165.658914,40.6679727 165.658914,39.8710938 L165.658914,39.7363281 C165.658914,39.2519507 165.569072,38.8085958 165.389383,38.40625 C165.209695,38.0039042 164.957744,37.6923839 164.633524,37.4716797 C164.309303,37.2509755 163.938213,37.140625 163.520243,37.140625 C162.895239,37.140625 162.385479,37.3857397 161.990946,37.8759766 C161.596412,38.3662134 161.399149,39.0078085 161.399149,39.8007812 L161.399149,39.9296875 Z M173.564975,42.1972656 C173.143098,42.8105499 172.469277,43.1171875 171.543491,43.1171875 C170.867706,43.1171875 170.35404,42.9209004 170.002475,42.5283203 C169.650911,42.1357402 169.471225,41.5546913 169.463413,40.7851562 L169.463413,36.6601562 L170.160678,36.6601562 L170.160678,40.6972656 C170.160678,41.9043029 170.648955,42.5078125 171.625522,42.5078125 C172.641152,42.5078125 173.283724,42.0878948 173.553257,41.2480469 L173.553257,36.6601562 L174.256382,36.6601562 L174.256382,43 L173.576694,43 L173.564975,42.1972656 Z M181.558927,41.3886719 C181.558927,41.0410139 181.41928,40.7617198 181.139981,40.5507812 C180.860683,40.3398427 180.439789,40.1748053 179.877286,40.0556641 C179.314783,39.9365228 178.878264,39.7998055 178.567716,39.6455078 C178.257167,39.4912102 178.026701,39.3027355 177.87631,39.0800781 C177.725918,38.8574208 177.650724,38.5878922 177.650724,38.2714844 C177.650724,37.7714819 177.859706,37.3584001 178.277677,37.0322266 C178.695648,36.7060531 179.230799,36.5429688 179.883146,36.5429688 C180.59018,36.5429688 181.157557,36.7177717 181.585294,37.0673828 C182.013031,37.4169939 182.226896,37.8730441 182.226896,38.4355469 L181.523771,38.4355469 C181.523771,38.0644513 181.368499,37.7558606 181.05795,37.5097656 C180.747402,37.2636706 180.355804,37.140625 179.883146,37.140625 C179.422206,37.140625 179.052092,37.243163 178.772794,37.4482422 C178.493496,37.6533213 178.353849,37.9199202 178.353849,38.2480469 C178.353849,38.5644547 178.470058,38.8095694 178.702481,38.9833984 C178.934905,39.1572274 179.358728,39.3164055 179.973966,39.4609375 C180.589203,39.6054695 181.050136,39.7597648 181.356778,39.9238281 C181.663421,40.0878914 181.890957,40.2851551 182.039396,40.515625 C182.187834,40.7460949 182.262052,41.025389 182.262052,41.3535156 C182.262052,41.8886746 182.046234,42.3164046 181.614591,42.6367188 C181.182948,42.9570329 180.619477,43.1171875 179.924161,43.1171875 C179.185876,43.1171875 178.587249,42.9384783 178.128263,42.5810547 C177.669276,42.223631 177.439786,41.7714871 177.439786,41.2246094 L178.142911,41.2246094 C178.170255,41.6347677 178.343105,41.9541004 178.661466,42.1826172 C178.979827,42.411134 179.400721,42.5253906 179.924161,42.5253906 C180.412445,42.5253906 180.806972,42.4179698 181.107755,42.203125 C181.408538,41.9882802 181.558927,41.7167985 181.558927,41.3886719 L181.558927,41.3886719 Z M189.523581,43 C189.453269,42.8007803 189.408347,42.5058613 189.388816,42.1152344 C189.142721,42.4355485 188.829247,42.6826163 188.448386,42.8564453 C188.067525,43.0302743 187.664209,43.1171875 187.238425,43.1171875 C186.629047,43.1171875 186.135888,42.9472673 185.758933,42.6074219 C185.381978,42.2675764 185.193503,41.8378932 185.193503,41.3183594 C185.193503,40.7011688 185.450337,40.2128924 185.964011,39.8535156 C186.477686,39.4941388 187.193499,39.3144531 188.111472,39.3144531 L189.382956,39.3144531 L189.382956,38.59375 C189.382956,38.1406227 189.243309,37.784181 188.964011,37.5244141 C188.684713,37.2646471 188.27749,37.1347656 187.742331,37.1347656 C187.254048,37.1347656 186.849755,37.2597644 186.529441,37.5097656 C186.209127,37.7597669 186.048972,38.0605451 186.048972,38.4121094 L185.345847,38.40625 C185.345847,37.9023412 185.58022,37.4658222 186.048972,37.0966797 C186.517724,36.7275372 187.09389,36.5429688 187.777488,36.5429688 C188.484522,36.5429688 189.042134,36.7197248 189.450339,37.0732422 C189.858544,37.4267596 190.068503,37.9199187 190.080222,38.5527344 L190.080222,41.5527344 C190.080222,42.1660187 190.144675,42.6249985 190.273581,42.9296875 L190.273581,43 L189.523581,43 Z M187.320456,42.4960938 C187.789209,42.4960938 188.20815,42.3828136 188.577292,42.15625 C188.946435,41.9296864 189.214987,41.626955 189.382956,41.2480469 L189.382956,39.8535156 L188.12905,39.8535156 C187.429828,39.8613282 186.882958,39.9892566 186.488425,40.2373047 C186.093892,40.4853528 185.896628,40.8261697 185.896628,41.2597656 C185.896628,41.6152362 186.028463,41.9101551 186.292136,42.1445312 C186.555809,42.3789074 186.898579,42.4960938 187.320456,42.4960938 L187.320456,42.4960938 Z M194.300736,36.6601562 L194.324174,37.7441406 C194.562456,37.3535137 194.859328,37.0556651 195.214799,36.8505859 C195.570269,36.6455068 195.962843,36.5429688 196.392533,36.5429688 C197.072224,36.5429688 197.578078,36.7343731 197.910111,37.1171875 C198.242144,37.5000019 198.410111,38.0742149 198.414017,38.8398438 L198.414017,43 L197.716752,43 L197.716752,38.8339844 C197.712845,38.2675753 197.592729,37.8457045 197.3564,37.5683594 C197.120071,37.2910142 196.742145,37.1523438 196.222611,37.1523438 C195.789015,37.1523438 195.40523,37.2880846 195.071244,37.5595703 C194.737258,37.831056 194.49019,38.1972633 194.330033,38.6582031 L194.330033,43 L193.632767,43 L193.632767,36.6601562 L194.300736,36.6601562 Z M201.626719,39.7714844 C201.626719,38.7871045 201.846443,38.0029326 202.285898,37.4189453 C202.725354,36.834958 203.322027,36.5429688 204.075938,36.5429688 C204.931411,36.5429688 205.583748,36.880856 206.032969,37.5566406 L206.032969,34 L206.730234,34 L206.730234,43 L206.073984,43 L206.044688,42.15625 C205.595467,42.7968782 204.935317,43.1171875 204.064219,43.1171875 C203.333746,43.1171875 202.744885,42.8232451 202.297617,42.2353516 C201.850349,41.647458 201.626719,40.8535206 201.626719,39.8535156 L201.626719,39.7714844 Z M202.335703,39.8945312 C202.335703,40.703129 202.497811,41.340818 202.822031,41.8076172 C203.146252,42.2744164 203.603278,42.5078125 204.193125,42.5078125 C205.056411,42.5078125 205.669686,42.1269569 206.032969,41.3652344 L206.032969,38.3886719 C205.669686,37.564449 205.060317,37.1523438 204.204844,37.1523438 C203.614997,37.1523438 203.156017,37.3837867 202.827891,37.8466797 C202.499764,38.3095726 202.335703,38.992183 202.335703,39.8945312 L202.335703,39.8945312 Z M2.41992188,55.8066406 L1.6171875,56.5800781 L1.6171875,59 L0.9140625,59 L0.9140625,50 L1.6171875,50 L1.6171875,55.7597656 L2.27929688,55.0449219 L4.70507812,52.6601562 L5.58984375,52.6601562 L2.90039062,55.3320312 L5.82421875,59 L4.98632812,59 L2.41992188,55.8066406 Z M8.83617187,59 L8.13304687,59 L8.13304687,52.6601562 L8.83617187,52.6601562 L8.83617187,59 Z M8.00999999,50.8261719 C8.00999999,50.6933587 8.05296831,50.5810551 8.13890624,50.4892578 C8.22484417,50.3974605 8.3420305,50.3515625 8.49046874,50.3515625 C8.63890698,50.3515625 8.75706986,50.3974605 8.84496093,50.4892578 C8.93285199,50.5810551 8.97679687,50.6933587 8.97679687,50.8261719 C8.97679687,50.958985 8.93285199,51.0703121 8.84496093,51.1601562 C8.75706986,51.2500004 8.63890698,51.2949219 8.49046874,51.2949219 C8.3420305,51.2949219 8.22484417,51.2500004 8.13890624,51.1601562 C8.05296831,51.0703121 8.00999999,50.958985 8.00999999,50.8261719 L8.00999999,50.8261719 Z M12.785625,59 L12.0825,59 L12.0825,50 L12.785625,50 L12.785625,59 Z M15.5632031,55.7363281 C15.5632031,55.1269501 15.681366,54.5781274 15.9176953,54.0898438 C16.1540246,53.6015601 16.4880056,53.221681 16.9196484,52.9501953 C17.3512912,52.6787096 17.8405441,52.5429688 18.3874218,52.5429688 C19.2311761,52.5429688 19.914763,52.8388642 20.4382031,53.4306641 C20.9616432,54.0224639 21.2233593,54.8066357 21.2233593,55.7832031 L21.2233593,55.9296875 C21.2233593,56.5429718 21.1051965,57.0947241 20.8688672,57.5849609 C20.6325379,58.0751978 20.2995334,58.4531237 19.8698437,58.71875 C19.4401541,58.9843763 18.9499246,59.1171875 18.3991406,59.1171875 C17.5592926,59.1171875 16.8766823,58.821292 16.351289,58.2294922 C15.8258958,57.6376924 15.5632031,56.8535205 15.5632031,55.8769531 L15.5632031,55.7363281 Z M16.2663281,55.9296875 C16.2663281,56.6875038 16.4626152,57.3095679 16.8551953,57.7958984 C17.2477754,58.282229 17.7624187,58.5253906 18.3991406,58.5253906 C19.0319563,58.5253906 19.5446464,58.282229 19.9372265,57.7958984 C20.3298066,57.3095679 20.5260937,56.6679727 20.5260937,55.8710938 L20.5260937,55.7363281 C20.5260937,55.2519507 20.4362509,54.8085958 20.2565625,54.40625 C20.0768741,54.0039042 19.8249235,53.6923839 19.5007031,53.4716797 C19.1764827,53.2509755 18.8053927,53.140625 18.3874218,53.140625 C17.7624187,53.140625 17.2526582,53.3857397 16.858125,53.8759766 C16.4635917,54.3662134 16.2663281,55.0078085 16.2663281,55.8007812 L16.2663281,55.9296875 Z M24.5692968,52.6601562 L24.5927343,53.6914062 C24.8271105,53.3085918 25.1200763,53.0214853 25.4716406,52.8300781 C25.8232048,52.6386709 26.2138259,52.5429688 26.6435156,52.5429688 C27.6435206,52.5429688 28.2782799,52.9531209 28.5478125,53.7734375 C28.7743761,53.3789043 29.0771074,53.0751964 29.4560156,52.8623047 C29.8349237,52.649413 30.2528883,52.5429688 30.7099218,52.5429688 C32.0693036,52.5429688 32.7626561,53.2851488 32.79,54.7695312 L32.79,59 L32.086875,59 L32.086875,54.8222656 C32.0829687,54.2558565 31.9608996,53.8359389 31.720664,53.5625 C31.4804284,53.2890611 31.0888308,53.1523438 30.5458593,53.1523438 C30.0419506,53.1601563 29.6161736,53.3232406 29.2685156,53.6416016 C28.9208576,53.9599625 28.7275002,54.347654 28.6884375,54.8046875 L28.6884375,59 L27.9853125,59 L27.9853125,54.7695312 C27.9814062,54.2265598 27.8534778,53.8212904 27.6015234,53.5537109 C27.349569,53.2861315 26.9618776,53.1523438 26.4384375,53.1523438 C25.997029,53.1523438 25.6181265,53.2783191 25.3017187,53.5302734 C24.9853109,53.7822278 24.7509382,54.1562475 24.5985937,54.6523438 L24.5985937,59 L23.8954687,59 L23.8954687,52.6601562 L24.5692968,52.6601562 Z M38.2804687,59.1171875 C37.7414035,59.1171875 37.2541037,58.9843763 36.8185546,58.71875 C36.3830056,58.4531237 36.0441418,58.0830102 35.8019531,57.6083984 C35.5597644,57.1337867 35.4386718,56.6015654 35.4386718,56.0117188 L35.4386718,55.7597656 C35.4386718,55.1503876 35.5568347,54.6015649 35.793164,54.1132812 C36.0294933,53.6249976 36.3585916,53.2412123 36.7804687,52.9619141 C37.2023458,52.6826158 37.6593725,52.5429688 38.1515625,52.5429688 C38.9210975,52.5429688 39.531443,52.8056614 39.9826171,53.3310547 C40.4337913,53.8564479 40.659375,54.5742142 40.659375,55.484375 L40.659375,55.8769531 L36.1359375,55.8769531 L36.1359375,56.0117188 C36.1359375,56.7304723 36.3419901,57.3290992 36.7541015,57.8076172 C37.166213,58.2861352 37.6847625,58.5253906 38.3097656,58.5253906 C38.6847675,58.5253906 39.0158188,58.4570319 39.3029296,58.3203125 C39.5900405,58.1835931 39.85078,57.9648453 40.0851562,57.6640625 L40.5246093,57.9980469 C40.0089817,58.7441444 39.2609424,59.1171875 38.2804687,59.1171875 L38.2804687,59.1171875 Z M38.1515625,53.140625 C37.6242161,53.140625 37.1798846,53.3339824 36.8185546,53.7207031 C36.4572247,54.1074238 36.2375003,54.6269499 36.159375,55.2792969 L39.9621093,55.2792969 L39.9621093,55.203125 C39.942578,54.593747 39.7687516,54.0976582 39.440625,53.7148438 C39.1124983,53.3320293 38.6828151,53.140625 38.1515625,53.140625 L38.1515625,53.140625 Z M44.3744531,51.0371094 L44.3744531,52.6601562 L45.6869531,52.6601562 L45.6869531,53.234375 L44.3744531,53.234375 L44.3744531,57.4589844 C44.3744531,57.8105486 44.437929,58.0722648 44.5648828,58.2441406 C44.6918365,58.4160165 44.9037485,58.5019531 45.2006249,58.5019531 C45.317813,58.5019531 45.5072643,58.4824221 45.7689843,58.4433594 L45.7982812,59.0175781 C45.6146865,59.0839847 45.364689,59.1171875 45.0482812,59.1171875 C44.56781,59.1171875 44.2182042,58.9775405 43.9994531,58.6982422 C43.780702,58.4189439 43.6713281,58.0078152 43.6713281,57.4648438 L43.6713281,53.234375 L42.5053124,53.234375 L42.5053124,52.6601562 L43.6713281,52.6601562 L43.6713281,51.0371094 L44.3744531,51.0371094 Z M50.8551562,59.1171875 C50.316091,59.1171875 49.8287912,58.9843763 49.3932421,58.71875 C48.9576931,58.4531237 48.6188293,58.0830102 48.3766406,57.6083984 C48.1344518,57.1337867 48.0133593,56.6015654 48.0133593,56.0117188 L48.0133593,55.7597656 C48.0133593,55.1503876 48.1315222,54.6015649 48.3678515,54.1132812 C48.6041808,53.6249976 48.9332791,53.2412123 49.3551562,52.9619141 C49.7770333,52.6826158 50.23406,52.5429688 50.7262499,52.5429688 C51.495785,52.5429688 52.1061305,52.8056614 52.5573046,53.3310547 C53.0084788,53.8564479 53.2340624,54.5742142 53.2340624,55.484375 L53.2340624,55.8769531 L48.7106249,55.8769531 L48.7106249,56.0117188 C48.7106249,56.7304723 48.9166776,57.3290992 49.328789,57.8076172 C49.7409004,58.2861352 50.2594499,58.5253906 50.8844531,58.5253906 C51.2594549,58.5253906 51.5905063,58.4570319 51.8776171,58.3203125 C52.1647279,58.1835931 52.4254675,57.9648453 52.6598437,57.6640625 L53.0992968,57.9980469 C52.5836692,58.7441444 51.8356298,59.1171875 50.8551562,59.1171875 L50.8551562,59.1171875 Z M50.7262499,53.140625 C50.1989035,53.140625 49.7545721,53.3339824 49.3932421,53.7207031 C49.0319122,54.1074238 48.8121878,54.6269499 48.7340624,55.2792969 L52.5367968,55.2792969 L52.5367968,55.203125 C52.5172655,54.593747 52.3434391,54.0976582 52.0153124,53.7148438 C51.6871858,53.3320293 51.2575026,53.140625 50.7262499,53.140625 L50.7262499,53.140625 Z M58.7889843,53.2578125 C58.6405461,53.2304686 58.4823445,53.2167969 58.3143749,53.2167969 C57.8768727,53.2167969 57.5067592,53.338866 57.2040234,53.5830078 C56.9012875,53.8271497 56.6854693,54.1816383 56.5565624,54.6464844 L56.5565624,59 L55.8592968,59 L55.8592968,52.6601562 L56.5448437,52.6601562 L56.5565624,53.6679688 C56.927658,52.917965 57.5233552,52.5429688 58.3436718,52.5429688 C58.5389853,52.5429688 58.6932806,52.5683591 58.8065624,52.6191406 L58.7889843,53.2578125 Z M64.9532812,57.3886719 C64.9532812,57.0410139 64.8136341,56.7617198 64.5343359,56.5507812 C64.2550376,56.3398427 63.8341434,56.1748053 63.2716405,56.0556641 C62.7091377,55.9365228 62.2726187,55.7998055 61.9620702,55.6455078 C61.6515218,55.4912102 61.4210554,55.3027355 61.270664,55.0800781 C61.1202726,54.8574208 61.045078,54.5878922 61.045078,54.2714844 C61.045078,53.7714819 61.2540603,53.3584001 61.6720312,53.0322266 C62.090002,52.7060531 62.6251529,52.5429688 63.2774999,52.5429688 C63.9845347,52.5429688 64.5519118,52.7177717 64.9796484,53.0673828 C65.4073849,53.4169939 65.6212499,53.8730441 65.6212499,54.4355469 L64.9181249,54.4355469 C64.9181249,54.0644513 64.762853,53.7558606 64.4523046,53.5097656 C64.1417562,53.2636706 63.7501585,53.140625 63.2774999,53.140625 C62.8165601,53.140625 62.4464466,53.243163 62.1671484,53.4482422 C61.8878501,53.6533213 61.748203,53.9199202 61.748203,54.2480469 C61.748203,54.5644547 61.8644128,54.8095694 62.0968359,54.9833984 C62.3292589,55.1572274 62.7530828,55.3164055 63.3683202,55.4609375 C63.9835577,55.6054695 64.4444906,55.7597648 64.7511327,55.9238281 C65.0577749,56.0878914 65.2853117,56.2851551 65.4337499,56.515625 C65.5821882,56.7460949 65.6564062,57.025389 65.6564062,57.3535156 C65.6564062,57.8886746 65.440588,58.3164046 65.0089452,58.6367188 C64.5773024,58.9570329 64.0138315,59.1171875 63.3185155,59.1171875 C62.5802306,59.1171875 61.9816038,58.9384783 61.5226171,58.5810547 C61.0636304,58.223631 60.8341405,57.7714871 60.8341405,57.2246094 L61.5372655,57.2246094 C61.5646094,57.6347677 61.7374593,57.9541004 62.0558202,58.1826172 C62.3741812,58.411134 62.7950754,58.5253906 63.3185155,58.5253906 C63.8067992,58.5253906 64.2013265,58.4179698 64.5021093,58.203125 C64.802892,57.9882802 64.9532812,57.7167985 64.9532812,57.3886719 L64.9532812,57.3886719 Z M81.0595312,53.2578125 C80.911093,53.2304686 80.7528914,53.2167969 80.5849218,53.2167969 C80.1474196,53.2167969 79.7773062,53.338866 79.4745703,53.5830078 C79.1718344,53.8271497 78.9560162,54.1816383 78.8271093,54.6464844 L78.8271093,59 L78.1298437,59 L78.1298437,52.6601562 L78.8153906,52.6601562 L78.8271093,53.6679688 C79.1982049,52.917965 79.7939021,52.5429688 80.6142187,52.5429688 C80.8095322,52.5429688 80.9638275,52.5683591 81.0771093,52.6191406 L81.0595312,53.2578125 Z M84.2121093,59 L83.5089843,59 L83.5089843,52.6601562 L84.2121093,52.6601562 L84.2121093,59 Z M83.3859375,50.8261719 C83.3859375,50.6933587 83.4289058,50.5810551 83.5148437,50.4892578 C83.6007816,50.3974605 83.717968,50.3515625 83.8664062,50.3515625 C84.0148444,50.3515625 84.1330073,50.3974605 84.2208984,50.4892578 C84.3087895,50.5810551 84.3527343,50.6933587 84.3527343,50.8261719 C84.3527343,50.958985 84.3087895,51.0703121 84.2208984,51.1601562 C84.1330073,51.2500004 84.0148444,51.2949219 83.8664062,51.2949219 C83.717968,51.2949219 83.6007816,51.2500004 83.5148437,51.1601562 C83.4289058,51.0703121 83.3859375,50.958985 83.3859375,50.8261719 L83.3859375,50.8261719 Z M87.0951562,55.7714844 C87.0951562,54.7871045 87.3148806,54.0029326 87.7543359,53.4189453 C88.1937912,52.834958 88.7904649,52.5429688 89.5443749,52.5429688 C90.399848,52.5429688 91.0521852,52.880856 91.5014062,53.5566406 L91.5014062,50 L92.1986718,50 L92.1986718,59 L91.5424218,59 L91.5131249,58.15625 C91.0639039,58.7968782 90.4037543,59.1171875 89.5326562,59.1171875 C88.8021838,59.1171875 88.2133225,58.8232451 87.7660546,58.2353516 C87.3187868,57.647458 87.0951562,56.8535206 87.0951562,55.8535156 L87.0951562,55.7714844 Z M87.8041406,55.8945312 C87.8041406,56.703129 87.9662483,57.340818 88.2904687,57.8076172 C88.6146891,58.2744164 89.0717157,58.5078125 89.6615624,58.5078125 C90.524848,58.5078125 91.1381231,58.1269569 91.5014062,57.3652344 L91.5014062,54.3886719 C91.1381231,53.564449 90.5287542,53.1523438 89.6732812,53.1523438 C89.0834345,53.1523438 88.6244547,53.3837867 88.2963281,53.8466797 C87.9682014,54.3095726 87.8041406,54.992183 87.8041406,55.8945312 L87.8041406,55.8945312 Z M95.0231249,55.7714844 C95.0231249,54.7871045 95.2428493,54.0029326 95.6823046,53.4189453 C96.1217599,52.834958 96.7184337,52.5429688 97.4723437,52.5429688 C98.3278167,52.5429688 98.9801539,52.880856 99.4293749,53.5566406 L99.4293749,50 L100.126641,50 L100.126641,59 L99.4703906,59 L99.4410937,58.15625 C98.9918727,58.7968782 98.331723,59.1171875 97.4606249,59.1171875 C96.7301525,59.1171875 96.1412912,58.8232451 95.6940234,58.2353516 C95.2467555,57.647458 95.0231249,56.8535206 95.0231249,55.8535156 L95.0231249,55.7714844 Z M95.7321093,55.8945312 C95.7321093,56.703129 95.8942171,57.340818 96.2184374,57.8076172 C96.5426578,58.2744164 96.9996845,58.5078125 97.5895312,58.5078125 C98.4528167,58.5078125 99.0660919,58.1269569 99.4293749,57.3652344 L99.4293749,54.3886719 C99.0660919,53.564449 98.456723,53.1523438 97.6012499,53.1523438 C97.0114032,53.1523438 96.5524234,53.3837867 96.2242968,53.8466797 C95.8961702,54.3095726 95.7321093,54.992183 95.7321093,55.8945312 L95.7321093,55.8945312 Z M105.687422,59.1171875 C105.148357,59.1171875 104.661057,58.9843763 104.225508,58.71875 C103.789959,58.4531237 103.451095,58.0830102 103.208906,57.6083984 C102.966717,57.1337867 102.845625,56.6015654 102.845625,56.0117188 L102.845625,55.7597656 C102.845625,55.1503876 102.963788,54.6015649 103.200117,54.1132812 C103.436446,53.6249976 103.765545,53.2412123 104.187422,52.9619141 C104.609299,52.6826158 105.066326,52.5429688 105.558516,52.5429688 C106.328051,52.5429688 106.938396,52.8056614 107.38957,53.3310547 C107.840744,53.8564479 108.066328,54.5742142 108.066328,55.484375 L108.066328,55.8769531 L103.542891,55.8769531 L103.542891,56.0117188 C103.542891,56.7304723 103.748943,57.3290992 104.161055,57.8076172 C104.573166,58.2861352 105.091716,58.5253906 105.716719,58.5253906 C106.091721,58.5253906 106.422772,58.4570319 106.709883,58.3203125 C106.996994,58.1835931 107.257733,57.9648453 107.492109,57.6640625 L107.931562,57.9980469 C107.415935,58.7441444 106.667895,59.1171875 105.687422,59.1171875 L105.687422,59.1171875 Z M105.558516,53.140625 C105.031169,53.140625 104.586838,53.3339824 104.225508,53.7207031 C103.864178,54.1074238 103.644453,54.6269499 103.566328,55.2792969 L107.369062,55.2792969 L107.369062,55.203125 C107.349531,54.593747 107.175705,54.0976582 106.847578,53.7148438 C106.519451,53.3320293 106.089768,53.140625 105.558516,53.140625 L105.558516,53.140625 Z M111.359531,52.6601562 L111.382969,53.7441406 C111.621251,53.3535137 111.918123,53.0556651 112.273594,52.8505859 C112.629064,52.6455068 113.021638,52.5429688 113.451328,52.5429688 C114.131019,52.5429688 114.636873,52.7343731 114.968906,53.1171875 C115.300939,53.5000019 115.468906,54.0742149 115.472812,54.8398438 L115.472812,59 L114.775547,59 L114.775547,54.8339844 C114.771641,54.2675753 114.651525,53.8457045 114.415195,53.5683594 C114.178866,53.2910142 113.80094,53.1523438 113.281406,53.1523438 C112.84781,53.1523438 112.464025,53.2880846 112.130039,53.5595703 C111.796053,53.831056 111.548985,54.1972633 111.388828,54.6582031 L111.388828,59 L110.691562,59 L110.691562,52.6601562 L111.359531,52.6601562 Z M129.698203,57.5410156 L129.803672,58.0859375 L129.944297,57.5117188 L131.467734,52.6601562 L132.065391,52.6601562 L133.57125,57.4707031 L133.735312,58.1386719 L133.870078,57.5234375 L135.170859,52.6601562 L135.897422,52.6601562 L134.051719,59 L133.454062,59 L131.825156,53.9726562 L131.748984,53.6269531 L131.672812,53.9785156 L130.073203,59 L129.475547,59 L127.635703,52.6601562 L128.356406,52.6601562 L129.698203,57.5410156 Z M140.942578,59.1171875 C140.403513,59.1171875 139.916213,58.9843763 139.480664,58.71875 C139.045115,58.4531237 138.706251,58.0830102 138.464062,57.6083984 C138.221874,57.1337867 138.100781,56.6015654 138.100781,56.0117188 L138.100781,55.7597656 C138.100781,55.1503876 138.218944,54.6015649 138.455273,54.1132812 C138.691603,53.6249976 139.020701,53.2412123 139.442578,52.9619141 C139.864455,52.6826158 140.321482,52.5429688 140.813672,52.5429688 C141.583207,52.5429688 142.193552,52.8056614 142.644727,53.3310547 C143.095901,53.8564479 143.321484,54.5742142 143.321484,55.484375 L143.321484,55.8769531 L138.798047,55.8769531 L138.798047,56.0117188 C138.798047,56.7304723 139.004099,57.3290992 139.416211,57.8076172 C139.828322,58.2861352 140.346872,58.5253906 140.971875,58.5253906 C141.346877,58.5253906 141.677928,58.4570319 141.965039,58.3203125 C142.25215,58.1835931 142.512889,57.9648453 142.747266,57.6640625 L143.186719,57.9980469 C142.671091,58.7441444 141.923052,59.1171875 140.942578,59.1171875 L140.942578,59.1171875 Z M140.813672,53.140625 C140.286325,53.140625 139.841994,53.3339824 139.480664,53.7207031 C139.119334,54.1074238 138.89961,54.6269499 138.821484,55.2792969 L142.624219,55.2792969 L142.624219,55.203125 C142.604687,54.593747 142.430861,54.0976582 142.102734,53.7148438 C141.774608,53.3320293 141.344924,53.140625 140.813672,53.140625 L140.813672,53.140625 Z M156.005859,59 L156.005859,53.234375 L154.951172,53.234375 L154.951172,52.6601562 L156.005859,52.6601562 L156.005859,52.0097656 C156.005859,51.333981 156.189451,50.8095722 156.556641,50.4365234 C156.92383,50.0634747 157.441403,49.8769531 158.109375,49.8769531 C158.632815,49.8769531 159.171872,49.9921863 159.726562,50.2226562 L159.609375,50.8261719 C159.13281,50.6191396 158.64844,50.515625 158.15625,50.515625 C157.191401,50.515625 156.708984,51.0175731 156.708984,52.0214844 L156.708984,52.6601562 L158.191406,52.6601562 L158.191406,53.234375 L156.708984,53.234375 L156.708984,59 L156.005859,59 Z M160.107422,59 L159.404297,59 L159.404297,52.6601562 L160.107422,52.6601562 L160.107422,59 Z M163.957266,52.6601562 L163.980703,53.7441406 C164.218986,53.3535137 164.515858,53.0556651 164.871328,52.8505859 C165.226799,52.6455068 165.619373,52.5429688 166.049062,52.5429688 C166.728753,52.5429688 167.234608,52.7343731 167.566641,53.1171875 C167.898674,53.5000019 168.066641,54.0742149 168.070547,54.8398438 L168.070547,59 L167.373281,59 L167.373281,54.8339844 C167.369375,54.2675753 167.249259,53.8457045 167.01293,53.5683594 C166.7766,53.2910142 166.398674,53.1523438 165.879141,53.1523438 C165.445545,53.1523438 165.061759,53.2880846 164.727773,53.5595703 C164.393787,53.831056 164.14672,54.1972633 163.986562,54.6582031 L163.986562,59 L163.289297,59 L163.289297,52.6601562 L163.957266,52.6601562 Z M170.859844,55.7714844 C170.859844,54.7871045 171.079568,54.0029326 171.519023,53.4189453 C171.958479,52.834958 172.555152,52.5429688 173.309062,52.5429688 C174.164536,52.5429688 174.816873,52.880856 175.266094,53.5566406 L175.266094,50 L175.963359,50 L175.963359,59 L175.307109,59 L175.277812,58.15625 C174.828591,58.7968782 174.168442,59.1171875 173.297344,59.1171875 C172.566871,59.1171875 171.97801,58.8232451 171.530742,58.2353516 C171.083474,57.647458 170.859844,56.8535206 170.859844,55.8535156 L170.859844,55.7714844 Z M171.568828,55.8945312 C171.568828,56.703129 171.730936,57.340818 172.055156,57.8076172 C172.379377,58.2744164 172.836403,58.5078125 173.42625,58.5078125 C174.289536,58.5078125 174.902811,58.1269569 175.266094,57.3652344 L175.266094,54.3886719 C174.902811,53.564449 174.293442,53.1523438 173.437969,53.1523438 C172.848122,53.1523438 172.389142,53.3837867 172.061016,53.8466797 C171.732889,54.3095726 171.568828,54.992183 171.568828,55.8945312 L171.568828,55.8945312 Z M188.319609,55.7363281 C188.319609,55.1269501 188.437772,54.5781274 188.674102,54.0898438 C188.910431,53.6015601 189.244412,53.221681 189.676055,52.9501953 C190.107697,52.6787096 190.59695,52.5429688 191.143828,52.5429688 C191.987582,52.5429688 192.671169,52.8388642 193.194609,53.4306641 C193.71805,54.0224639 193.979766,54.8066357 193.979766,55.7832031 L193.979766,55.9296875 C193.979766,56.5429718 193.861603,57.0947241 193.625273,57.5849609 C193.388944,58.0751978 193.05594,58.4531237 192.62625,58.71875 C192.19656,58.9843763 191.706331,59.1171875 191.155547,59.1171875 C190.315699,59.1171875 189.633089,58.821292 189.107695,58.2294922 C188.582302,57.6376924 188.319609,56.8535205 188.319609,55.8769531 L188.319609,55.7363281 Z M189.022734,55.9296875 C189.022734,56.6875038 189.219022,57.3095679 189.611602,57.7958984 C190.004182,58.282229 190.518825,58.5253906 191.155547,58.5253906 C191.788363,58.5253906 192.301053,58.282229 192.693633,57.7958984 C193.086213,57.3095679 193.2825,56.6679727 193.2825,55.8710938 L193.2825,55.7363281 C193.2825,55.2519507 193.192657,54.8085958 193.012969,54.40625 C192.83328,54.0039042 192.58133,53.6923839 192.257109,53.4716797 C191.932889,53.2509755 191.561799,53.140625 191.143828,53.140625 C190.518825,53.140625 190.009065,53.3857397 189.614531,53.8759766 C189.219998,54.3662134 189.022734,55.0078085 189.022734,55.8007812 L189.022734,55.9296875 Z M200.765156,58.1972656 C200.343279,58.8105499 199.669458,59.1171875 198.743672,59.1171875 C198.067887,59.1171875 197.554221,58.9209004 197.202656,58.5283203 C196.851092,58.1357402 196.671406,57.5546913 196.663594,56.7851562 L196.663594,52.6601562 L197.360859,52.6601562 L197.360859,56.6972656 C197.360859,57.9043029 197.849136,58.5078125 198.825703,58.5078125 C199.841333,58.5078125 200.483905,58.0878948 200.753438,57.2480469 L200.753438,52.6601562 L201.456563,52.6601562 L201.456563,59 L200.776875,59 L200.765156,58.1972656 Z M207.468516,53.2578125 C207.320077,53.2304686 207.161876,53.2167969 206.993906,53.2167969 C206.556404,53.2167969 206.186291,53.338866 205.883555,53.5830078 C205.580819,53.8271497 205.365001,54.1816383 205.236094,54.6464844 L205.236094,59 L204.538828,59 L204.538828,52.6601562 L205.224375,52.6601562 L205.236094,53.6679688 C205.607189,52.917965 206.202887,52.5429688 207.023203,52.5429688 C207.218517,52.5429688 207.372812,52.5683591 207.486094,52.6191406 L207.468516,53.2578125 Z M4.82226562,66.6679688 C4.24413773,66.5507807 3.76367379,66.4921875 3.38085938,66.4921875 C2.97851361,66.4921875 2.66796984,66.6123035 2.44921875,66.8525391 C2.23046766,67.0927746 2.12109375,67.4335915 2.12109375,67.875 L2.12109375,68.6601562 L3.6328125,68.6601562 L3.6328125,69.234375 L2.12109375,69.234375 L2.12109375,75 L1.41796875,75 L1.41796875,69.234375 L0.369140625,69.234375 L0.369140625,68.6601562 L1.41796875,68.6601562 L1.41796875,67.8515625 C1.42187502,67.2109343 1.5917952,66.7216814 1.92773438,66.3837891 C2.26367355,66.0458967 2.73241887,65.8769531 3.33398438,65.8769531 C3.8183618,65.8769531 4.54687014,65.9960926 5.51953125,66.234375 L5.51953125,75 L4.82226562,75 L4.82226562,66.6679688 Z M8.32054687,71.7363281 C8.32054687,71.1269501 8.43870975,70.5781274 8.67503905,70.0898438 C8.91136836,69.6015601 9.24534939,69.221681 9.67699218,68.9501953 C10.108635,68.6787096 10.5978879,68.5429688 11.1447656,68.5429688 C11.9885198,68.5429688 12.6721067,68.8388642 13.1955469,69.4306641 C13.718987,70.0224639 13.9807031,70.8066357 13.9807031,71.7832031 L13.9807031,71.9296875 C13.9807031,72.5429718 13.8625402,73.0947241 13.6262109,73.5849609 C13.3898816,74.0751978 13.0568771,74.4531237 12.6271875,74.71875 C12.1974978,74.9843763 11.7072684,75.1171875 11.1564844,75.1171875 C10.3166364,75.1171875 9.63402605,74.821292 9.1086328,74.2294922 C8.58323955,73.6376924 8.32054687,72.8535205 8.32054687,71.8769531 L8.32054687,71.7363281 Z M9.02367187,71.9296875 C9.02367187,72.6875038 9.21995897,73.3095679 9.61253905,73.7958984 C10.0051191,74.282229 10.5197624,74.5253906 11.1564844,74.5253906 C11.7893,74.5253906 12.3019902,74.282229 12.6945703,73.7958984 C13.0871504,73.3095679 13.2834375,72.6679727 13.2834375,71.8710938 L13.2834375,71.7363281 C13.2834375,71.2519507 13.1935946,70.8085958 13.0139062,70.40625 C12.8342178,70.0039042 12.5822672,69.6923839 12.2580469,69.4716797 C11.9338265,69.2509755 11.5627365,69.140625 11.1447656,69.140625 C10.5197625,69.140625 10.010002,69.3857397 9.61546874,69.8759766 C9.22093552,70.3662134 9.02367187,71.0078085 9.02367187,71.8007812 L9.02367187,71.9296875 Z M18.2055469,73.5410156 L18.3110156,74.0859375 L18.4516406,73.5117188 L19.9750781,68.6601562 L20.5727344,68.6601562 L22.0785937,73.4707031 L22.2426562,74.1386719 L22.3774219,73.5234375 L23.6782031,68.6601562 L24.4047656,68.6601562 L22.5590625,75 L21.9614062,75 L20.3325,69.9726562 L20.2563281,69.6269531 L20.1801562,69.9785156 L18.5805469,75 L17.9828906,75 L16.1430469,68.6601562 L16.86375,68.6601562 L18.2055469,73.5410156 Z M31.9579687,75 L31.2548437,75 L31.2548437,68.6601562 L31.9579687,68.6601562 L31.9579687,75 Z M31.1317968,66.8261719 C31.1317968,66.6933587 31.1747652,66.5810551 31.2607031,66.4892578 C31.346641,66.3974605 31.4638273,66.3515625 31.6122656,66.3515625 C31.7607038,66.3515625 31.8788667,66.3974605 31.9667578,66.4892578 C32.0546488,66.5810551 32.0985937,66.6933587 32.0985937,66.8261719 C32.0985937,66.958985 32.0546488,67.0703121 31.9667578,67.1601562 C31.8788667,67.2500004 31.7607038,67.2949219 31.6122656,67.2949219 C31.4638273,67.2949219 31.346641,67.2500004 31.2607031,67.1601562 C31.1747652,67.0703121 31.1317968,66.958985 31.1317968,66.8261719 L31.1317968,66.8261719 Z M35.7902343,68.6601562 L35.8136718,69.7441406 C36.0519543,69.3535137 36.3488263,69.0556651 36.7042968,68.8505859 C37.0597674,68.6455068 37.4523416,68.5429688 37.8820312,68.5429688 C38.5617221,68.5429688 39.0675764,68.7343731 39.3996093,69.1171875 C39.7316422,69.5000019 39.8996093,70.0742149 39.9035156,70.8398438 L39.9035156,75 L39.20625,75 L39.20625,70.8339844 C39.2023437,70.2675753 39.0822277,69.8457045 38.8458984,69.5683594 C38.6095691,69.2910142 38.2316432,69.1523438 37.7121093,69.1523438 C37.2785134,69.1523438 36.8947282,69.2880846 36.5607421,69.5595703 C36.2267561,69.831056 35.9796883,70.1972633 35.8195312,70.6582031 L35.8195312,75 L35.1222656,75 L35.1222656,68.6601562 L35.7902343,68.6601562 Z M48.2418749,67.0371094 L48.2418749,68.6601562 L49.5543749,68.6601562 L49.5543749,69.234375 L48.2418749,69.234375 L48.2418749,73.4589844 C48.2418749,73.8105486 48.3053509,74.0722648 48.4323046,74.2441406 C48.5592584,74.4160165 48.7711703,74.5019531 49.0680468,74.5019531 C49.1852349,74.5019531 49.3746861,74.4824221 49.6364062,74.4433594 L49.6657031,75.0175781 C49.4821084,75.0839847 49.2321109,75.1171875 48.9157031,75.1171875 C48.4352319,75.1171875 48.085626,74.9775405 47.8668749,74.6982422 C47.6481238,74.4189439 47.5387499,74.0078152 47.5387499,73.4648438 L47.5387499,69.234375 L46.3727343,69.234375 L46.3727343,68.6601562 L47.5387499,68.6601562 L47.5387499,67.0371094 L48.2418749,67.0371094 Z M52.9647655,69.7324219 C53.1952355,69.3535137 53.4901544,69.0605479 53.8495312,68.8535156 C54.208908,68.6464833 54.6014822,68.5429688 55.0272655,68.5429688 C55.7069564,68.5429688 56.2128108,68.7343731 56.5448437,69.1171875 C56.8768766,69.5000019 57.0448437,70.0742149 57.0487499,70.8398438 L57.0487499,75 L56.3514843,75 L56.3514843,70.8339844 C56.347578,70.2675753 56.227462,69.8457045 55.9911327,69.5683594 C55.7548034,69.2910142 55.3768775,69.1523438 54.8573437,69.1523438 C54.4237478,69.1523438 54.0399625,69.2880846 53.7059765,69.5595703 C53.3719904,69.831056 53.1249226,70.1972633 52.9647655,70.6582031 L52.9647655,75 L52.2674999,75 L52.2674999,66 L52.9647655,66 L52.9647655,69.7324219 Z M62.5685155,75.1171875 C62.0294503,75.1171875 61.5421505,74.9843763 61.1066015,74.71875 C60.6710524,74.4531237 60.3321886,74.0830102 60.0899999,73.6083984 C59.8478112,73.1337867 59.7267187,72.6015654 59.7267187,72.0117188 L59.7267187,71.7597656 C59.7267187,71.1503876 59.8448815,70.6015649 60.0812109,70.1132812 C60.3175402,69.6249976 60.6466384,69.2412123 61.0685155,68.9619141 C61.4903926,68.6826158 61.9474193,68.5429688 62.4396093,68.5429688 C63.2091444,68.5429688 63.8194898,68.8056614 64.270664,69.3310547 C64.7218381,69.8564479 64.9474218,70.5742142 64.9474218,71.484375 L64.9474218,71.8769531 L60.4239843,71.8769531 L60.4239843,72.0117188 C60.4239843,72.7304723 60.6300369,73.3290992 61.0421484,73.8076172 C61.4542598,74.2861352 61.9728093,74.5253906 62.5978124,74.5253906 C62.9728143,74.5253906 63.3038657,74.4570319 63.5909765,74.3203125 C63.8780873,74.1835931 64.1388269,73.9648453 64.373203,73.6640625 L64.8126562,73.9980469 C64.2970286,74.7441444 63.5489892,75.1171875 62.5685155,75.1171875 L62.5685155,75.1171875 Z M62.4396093,69.140625 C61.9122629,69.140625 61.4679314,69.3339824 61.1066015,69.7207031 C60.7452715,70.1074238 60.5255472,70.6269499 60.4474218,71.2792969 L64.2501562,71.2792969 L64.2501562,71.203125 C64.2306248,70.593747 64.0567984,70.0976582 63.7286718,69.7148438 C63.4005451,69.3320293 62.9708619,69.140625 62.4396093,69.140625 L62.4396093,69.140625 Z M74.6803124,69.2578125 C74.5318742,69.2304686 74.3736726,69.2167969 74.205703,69.2167969 C73.7682008,69.2167969 73.3980873,69.338866 73.0953515,69.5830078 C72.7926156,69.8271497 72.5767974,70.1816383 72.4478905,70.6464844 L72.4478905,75 L71.7506249,75 L71.7506249,68.6601562 L72.4361718,68.6601562 L72.4478905,69.6679688 C72.8189861,68.917965 73.4146833,68.5429688 74.2349999,68.5429688 C74.4303134,68.5429688 74.5846087,68.5683591 74.6978905,68.6191406 L74.6803124,69.2578125 Z M76.543828,71.7363281 C76.543828,71.1269501 76.6619909,70.5781274 76.8983202,70.0898438 C77.1346495,69.6015601 77.4686305,69.221681 77.9002733,68.9501953 C78.3319161,68.6787096 78.821169,68.5429688 79.3680468,68.5429688 C80.211801,68.5429688 80.8953879,68.8388642 81.418828,69.4306641 C81.9422681,70.0224639 82.2039843,70.8066357 82.2039843,71.7832031 L82.2039843,71.9296875 C82.2039843,72.5429718 82.0858214,73.0947241 81.8494921,73.5849609 C81.6131628,74.0751978 81.2801583,74.4531237 80.8504686,74.71875 C80.420779,74.9843763 79.9305495,75.1171875 79.3797655,75.1171875 C78.5399176,75.1171875 77.8573072,74.821292 77.3319139,74.2294922 C76.8065207,73.6376924 76.543828,72.8535205 76.543828,71.8769531 L76.543828,71.7363281 Z M77.246953,71.9296875 C77.246953,72.6875038 77.4432401,73.3095679 77.8358202,73.7958984 C78.2284003,74.282229 78.7430436,74.5253906 79.3797655,74.5253906 C80.0125812,74.5253906 80.5252714,74.282229 80.9178514,73.7958984 C81.3104315,73.3095679 81.5067186,72.6679727 81.5067186,71.8710938 L81.5067186,71.7363281 C81.5067186,71.2519507 81.4168758,70.8085958 81.2371874,70.40625 C81.057499,70.0039042 80.8055484,69.6923839 80.481328,69.4716797 C80.1571076,69.2509755 79.7860176,69.140625 79.3680468,69.140625 C78.7430436,69.140625 78.2332831,69.3857397 77.8387499,69.8759766 C77.4442167,70.3662134 77.246953,71.0078085 77.246953,71.8007812 L77.246953,71.9296875 Z M87.2549999,74.5253906 C87.7432836,74.5253906 88.1524592,74.3876967 88.4825389,74.1123047 C88.8126187,73.8369127 88.9913279,73.4804709 89.0186718,73.0429688 L89.6924999,73.0429688 C89.6729685,73.4296894 89.551876,73.782225 89.3292186,74.1005859 C89.1065613,74.4189469 88.8106658,74.6679679 88.4415233,74.8476562 C88.0723808,75.0273446 87.676877,75.1171875 87.2549999,75.1171875 C86.4229645,75.1171875 85.7637914,74.8281279 85.2774608,74.25 C84.7911303,73.6718721 84.5479686,72.8945361 84.5479686,71.9179688 L84.5479686,71.7070312 C84.5479686,71.0820281 84.6573425,70.5292993 84.8760936,70.0488281 C85.0948447,69.568357 85.4083181,69.1972669 85.8165233,68.9355469 C86.2247285,68.6738268 86.7022628,68.5429688 87.2491405,68.5429688 C87.9444565,68.5429688 88.5176929,68.7499979 88.9688671,69.1640625 C89.4200412,69.5781271 89.6612497,70.1230435 89.6924999,70.7988281 L89.0186718,70.7988281 C88.9874216,70.3027319 88.8087124,69.9023453 88.4825389,69.5976562 C88.1563654,69.2929672 87.7452367,69.140625 87.2491405,69.140625 C86.6163248,69.140625 86.1251188,69.3691383 85.7755077,69.8261719 C85.4258966,70.2832054 85.2510936,70.923824 85.2510936,71.7480469 L85.2510936,71.953125 C85.2510936,72.7617228 85.4258966,73.3925759 85.7755077,73.8457031 C86.1251188,74.2988304 86.6182779,74.5253906 87.2549999,74.5253906 L87.2549999,74.5253906 Z M93.8587499,71.8066406 L93.0560155,72.5800781 L93.0560155,75 L92.3528905,75 L92.3528905,66 L93.0560155,66 L93.0560155,71.7597656 L93.7181249,71.0449219 L96.1439061,68.6601562 L97.0286717,68.6601562 L94.3392186,71.3320312 L97.2630467,75 L96.4251561,75 L93.8587499,71.8066406 Z M106.011562,74.5253906 C106.499846,74.5253906 106.909022,74.3876967 107.239101,74.1123047 C107.569181,73.8369127 107.74789,73.4804709 107.775234,73.0429688 L108.449062,73.0429688 C108.429531,73.4296894 108.308438,73.782225 108.085781,74.1005859 C107.863124,74.4189469 107.567228,74.6679679 107.198086,74.8476562 C106.828943,75.0273446 106.433439,75.1171875 106.011562,75.1171875 C105.179527,75.1171875 104.520354,74.8281279 104.034023,74.25 C103.547693,73.6718721 103.304531,72.8945361 103.304531,71.9179688 L103.304531,71.7070312 C103.304531,71.0820281 103.413905,70.5292993 103.632656,70.0488281 C103.851407,69.568357 104.164881,69.1972669 104.573086,68.9355469 C104.981291,68.6738268 105.458825,68.5429688 106.005703,68.5429688 C106.701019,68.5429688 107.274255,68.7499979 107.72543,69.1640625 C108.176604,69.5781271 108.417812,70.1230435 108.449062,70.7988281 L107.775234,70.7988281 C107.743984,70.3027319 107.565275,69.9023453 107.239101,69.5976562 C106.912928,69.2929672 106.501799,69.140625 106.005703,69.140625 C105.372887,69.140625 104.881681,69.3691383 104.53207,69.8261719 C104.182459,70.2832054 104.007656,70.923824 104.007656,71.7480469 L104.007656,71.953125 C104.007656,72.7617228 104.182459,73.3925759 104.53207,73.8457031 C104.881681,74.2988304 105.37484,74.5253906 106.011562,74.5253906 L106.011562,74.5253906 Z M111.894609,75 L111.191484,75 L111.191484,66 L111.894609,66 L111.894609,75 Z M115.844062,75 L115.140937,75 L115.140937,68.6601562 L115.844062,68.6601562 L115.844062,75 Z M115.01789,66.8261719 C115.01789,66.6933587 115.060859,66.5810551 115.146797,66.4892578 C115.232735,66.3974605 115.349921,66.3515625 115.498359,66.3515625 C115.646797,66.3515625 115.76496,66.3974605 115.852851,66.4892578 C115.940742,66.5810551 115.984687,66.6933587 115.984687,66.8261719 C115.984687,66.958985 115.940742,67.0703121 115.852851,67.1601562 C115.76496,67.2500004 115.646797,67.2949219 115.498359,67.2949219 C115.349921,67.2949219 115.232735,67.2500004 115.146797,67.1601562 C115.060859,67.0703121 115.01789,66.958985 115.01789,66.8261719 L115.01789,66.8261719 Z M119.647031,68.6601562 L119.670469,69.6914062 C119.904845,69.3085918 120.197811,69.0214853 120.549375,68.8300781 C120.900939,68.6386709 121.29156,68.5429688 121.72125,68.5429688 C122.721255,68.5429688 123.356014,68.9531209 123.625547,69.7734375 C123.85211,69.3789043 124.154842,69.0751964 124.53375,68.8623047 C124.912658,68.649413 125.330623,68.5429688 125.787656,68.5429688 C127.147038,68.5429688 127.84039,69.2851488 127.867734,70.7695312 L127.867734,75 L127.164609,75 L127.164609,70.8222656 C127.160703,70.2558565 127.038634,69.8359389 126.798398,69.5625 C126.558163,69.2890611 126.166565,69.1523438 125.623594,69.1523438 C125.119685,69.1601563 124.693908,69.3232406 124.34625,69.6416016 C123.998592,69.9599625 123.805234,70.347654 123.766172,70.8046875 L123.766172,75 L123.063047,75 L123.063047,70.7695312 C123.05914,70.2265598 122.931212,69.8212904 122.679258,69.5537109 C122.427303,69.2861315 122.039612,69.1523438 121.516172,69.1523438 C121.074763,69.1523438 120.695861,69.2783191 120.379453,69.5302734 C120.063045,69.7822278 119.828672,70.1562475 119.676328,70.6523438 L119.676328,75 L118.973203,75 L118.973203,68.6601562 L119.647031,68.6601562 Z M136.00664,71.8945312 C136.00664,72.8828174 135.787893,73.6669893 135.35039,74.2470703 C134.912888,74.8271513 134.325004,75.1171875 133.586719,75.1171875 C132.703902,75.1171875 132.03594,74.7890658 131.582812,74.1328125 L131.553515,75 L130.897265,75 L130.897265,66 L131.594531,66 L131.594531,69.5800781 C132.039846,68.8886684 132.699995,68.5429688 133.575,68.5429688 C134.325004,68.5429688 134.917771,68.8290987 135.35332,69.4013672 C135.788869,69.9736357 136.00664,70.7695262 136.00664,71.7890625 L136.00664,71.8945312 Z M135.303515,71.7714844 C135.303515,70.9355427 135.141408,70.2900413 134.817187,69.8349609 C134.492967,69.3798805 134.03594,69.1523438 133.446094,69.1523438 C132.996873,69.1523438 132.616017,69.2626942 132.303515,69.4833984 C131.991014,69.7041027 131.754688,70.0273416 131.594531,70.453125 L131.594531,73.3125 C131.946095,74.109379 132.567183,74.5078125 133.457812,74.5078125 C134.03594,74.5078125 134.488084,74.2792992 134.814258,73.8222656 C135.140431,73.3652321 135.303515,72.6816452 135.303515,71.7714844 L135.303515,71.7714844 Z M139.598672,75 L138.895547,75 L138.895547,68.6601562 L139.598672,68.6601562 L139.598672,75 Z M138.7725,66.8261719 C138.7725,66.6933587 138.815468,66.5810551 138.901406,66.4892578 C138.987344,66.3974605 139.10453,66.3515625 139.252969,66.3515625 C139.401407,66.3515625 139.51957,66.3974605 139.607461,66.4892578 C139.695352,66.5810551 139.739297,66.6933587 139.739297,66.8261719 C139.739297,66.958985 139.695352,67.0703121 139.607461,67.1601562 C139.51957,67.2500004 139.401407,67.2949219 139.252969,67.2949219 C139.10453,67.2949219 138.987344,67.2500004 138.901406,67.1601562 C138.815468,67.0703121 138.7725,66.958985 138.7725,66.8261719 L138.7725,66.8261719 Z M143.430937,68.6601562 L143.454375,69.7441406 C143.692657,69.3535137 143.989529,69.0556651 144.345,68.8505859 C144.70047,68.6455068 145.093045,68.5429688 145.522734,68.5429688 C146.202425,68.5429688 146.708279,68.7343731 147.040312,69.1171875 C147.372345,69.5000019 147.540312,70.0742149 147.544219,70.8398438 L147.544219,75 L146.846953,75 L146.846953,70.8339844 C146.843047,70.2675753 146.722931,69.8457045 146.486601,69.5683594 C146.250272,69.2910142 145.872346,69.1523438 145.352812,69.1523438 C144.919216,69.1523438 144.535431,69.2880846 144.201445,69.5595703 C143.867459,69.831056 143.620391,70.1972633 143.460234,70.6582031 L143.460234,75 L142.762969,75 L142.762969,68.6601562 L143.430937,68.6601562 Z M150.333515,71.7714844 C150.333515,70.7792919 150.55324,69.993167 150.992695,69.4130859 C151.43215,68.8330049 152.028824,68.5429688 152.782734,68.5429688 C153.64602,68.5429688 154.302263,68.8867153 154.751484,69.5742188 L154.78664,68.6601562 L155.44289,68.6601562 L155.44289,74.8710938 C155.44289,75.6875041 155.214377,76.333982 154.757344,76.8105469 C154.30031,77.2871118 153.681176,77.5253906 152.899922,77.5253906 C152.458513,77.5253906 152.037619,77.4267588 151.637226,77.2294922 C151.236834,77.0322256 150.921407,76.7695329 150.690937,76.4414062 L151.083515,76.0195312 C151.579612,76.6289093 152.169449,76.9335938 152.853047,76.9335938 C153.438987,76.9335938 153.896014,76.7607439 154.22414,76.4150391 C154.552267,76.0693342 154.722187,75.5898468 154.733906,74.9765625 L154.733906,74.1796875 C154.284685,74.8046906 153.630395,75.1171875 152.771015,75.1171875 C152.036637,75.1171875 151.446799,74.8242217 151.001484,74.2382812 C150.556169,73.6523408 150.333515,72.8613331 150.333515,71.8652344 L150.333515,71.7714844 Z M151.0425,71.8945312 C151.0425,72.703129 151.204608,73.340818 151.528828,73.8076172 C151.853048,74.2744164 152.310075,74.5078125 152.899922,74.5078125 C153.763207,74.5078125 154.374529,74.1210976 154.733906,73.3476562 L154.733906,70.4003906 C154.569843,69.9941386 154.333517,69.6845714 154.024922,69.4716797 C153.716326,69.258788 153.345236,69.1523438 152.91164,69.1523438 C152.321794,69.1523438 151.862814,69.3837867 151.534687,69.8466797 C151.206561,70.3095726 151.0425,70.992183 151.0425,71.8945312 L151.0425,71.8945312 Z M158.466562,74.578125 C158.466562,74.4414056 158.510507,74.3251958 158.598398,74.2294922 C158.686289,74.1337886 158.808358,74.0859375 158.964609,74.0859375 C159.12086,74.0859375 159.243906,74.1337886 159.33375,74.2294922 C159.423594,74.3251958 159.468515,74.4414056 159.468515,74.578125 C159.468515,74.7148444 159.423594,74.827148 159.33375,74.9150391 C159.243906,75.0029301 159.12086,75.046875 158.964609,75.046875 C158.808358,75.046875 158.686289,75.0029301 158.598398,74.9150391 C158.510507,74.827148 158.466562,74.7148444 158.466562,74.578125 L158.466562,74.578125 Z" id="After-more-than-a-th"></path>
            </g>
        </g>
    </g>
</svg>