<?xml version="1.0" encoding="UTF-8"?>
<svg width="208px" height="78px" viewBox="0 0 208 78" version="1.1" xmlns="http://www.w3.org/2000/svg" xmlns:xlink="http://www.w3.org/1999/xlink">
    <!-- Generator: Sketch 41.2 (35397) - http://www.bohemiancoding.com/sketch -->
    <title>Group 7</title>
    <desc>Created with Sketch.</desc>
    <defs></defs>
    <g id="Page-1" stroke="none" stroke-width="1" fill="none" fill-rule="evenodd">
        <g id="Desktop-HD" transform="translate(-922.000000, -371.000000)" fill="#000000">
            <g id="Group-7" transform="translate(922.000000, 371.000000)">
                <path d="M6.65136719,8.40234375 L2.48144531,8.40234375 L1.54492188,11 L0.19140625,11 L3.9921875,1.046875 L5.140625,1.046875 L8.94824219,11 L7.6015625,11 L6.65136719,8.40234375 Z M2.87792969,7.32226562 L6.26171875,7.32226562 L4.56640625,2.66699219 L2.87792969,7.32226562 Z M12.9474219,9.92675781 L17.6642188,9.92675781 L17.6642188,11 L11.628086,11 L11.628086,1.046875 L12.9474219,1.046875 L12.9474219,9.92675781 Z M21.8206251,9.92675781 L26.5374219,9.92675781 L26.5374219,11 L20.5012891,11 L20.5012891,1.046875 L21.8206251,1.046875 L21.8206251,9.92675781 Z M40.7838283,2.12695312 L37.5846095,2.12695312 L37.5846095,11 L36.2789454,11 L36.2789454,2.12695312 L33.0865626,2.12695312 L33.0865626,1.046875 L40.7838283,1.046875 L40.7838283,2.12695312 Z M51.2498049,11 L49.9304689,11 L49.9304689,6.39941406 L44.9128908,6.39941406 L44.9128908,11 L43.6003908,11 L43.6003908,1.046875 L44.9128908,1.046875 L44.9128908,5.32617188 L49.9304689,5.32617188 L49.9304689,1.046875 L51.2498049,1.046875 L51.2498049,11 Z M60.5468361,6.39941406 L56.2333596,6.39941406 L56.2333596,9.92675781 L61.2441018,9.92675781 L61.2441018,11 L54.9208596,11 L54.9208596,1.046875 L61.1757424,1.046875 L61.1757424,2.12695312 L56.2333596,2.12695312 L56.2333596,5.32617188 L60.5468361,5.32617188 L60.5468361,6.39941406 Z M69.0237112,11 L69.0237112,1.046875 L72.2776175,1.046875 C73.357701,1.046875 74.1700301,1.27018006 74.7146292,1.71679688 C75.2592283,2.16341369 75.5315237,2.82421437 75.5315237,3.69921875 C75.5315237,4.16406482 75.3993636,4.57535628 75.1350393,4.93310547 C74.8707151,5.29085465 74.5106926,5.56770735 74.0549612,5.76367188 C74.5927243,5.91406325 75.0176875,6.20003044 75.3298635,6.62158203 C75.6420396,7.04313362 75.7981253,7.54557 75.7981253,8.12890625 C75.7981253,9.02213988 75.5087401,9.72395578 74.9299612,10.234375 C74.3511823,10.7447942 73.5331566,11 72.4758596,11 L69.0237112,11 Z M70.3362112,6.34472656 L70.3362112,9.92675781 L72.5032034,9.92675781 C73.1138835,9.92675781 73.5958123,9.76839351 73.9490042,9.45166016 C74.302196,9.1349268 74.4787893,8.69857049 74.4787893,8.14257812 C74.4787893,6.94400442 73.8271031,6.34472656 72.5237112,6.34472656 L70.3362112,6.34472656 Z M70.3362112,5.29199219 L72.3186331,5.29199219 C72.8928547,5.29199219 73.3519972,5.14843894 73.6960745,4.86132812 C74.0401517,4.57421731 74.2121878,4.18457277 74.2121878,3.69238281 C74.2121878,3.14550508 74.0526842,2.74788536 73.7336721,2.49951172 C73.4146601,2.25113808 72.9293134,2.12695312 72.2776175,2.12695312 L70.3362112,2.12695312 L70.3362112,5.29199219 Z M84.7055081,6.39941406 L80.3920316,6.39941406 L80.3920316,9.92675781 L85.4027737,9.92675781 L85.4027737,11 L79.0795316,11 L79.0795316,1.046875 L85.3344144,1.046875 L85.3344144,2.12695312 L80.3920316,2.12695312 L80.3920316,5.32617188 L84.7055081,5.32617188 L84.7055081,6.39941406 Z M91.30918,6.56347656 C90.1835234,6.23990724 89.3643584,5.84228751 88.8516605,5.37060547 C88.3389626,4.89892342 88.0826175,4.31673523 88.0826175,3.62402344 C88.0826175,2.84016535 88.3959282,2.19189709 89.0225589,1.67919922 C89.6491897,1.16650134 90.4637974,0.91015625 91.4664066,0.91015625 C92.1500038,0.91015625 92.7595354,1.04231639 93.2950199,1.30664062 C93.8305043,1.57096486 94.2452137,1.93554455 94.5391605,2.40039062 C94.8331073,2.8652367 94.9800785,3.37336964 94.9800785,3.92480469 L93.6607425,3.92480469 C93.6607425,3.32323918 93.4693382,2.8504249 93.0865238,2.50634766 C92.7037094,2.16227042 92.1636757,1.99023438 91.4664066,1.99023438 C90.8192679,1.99023438 90.3145529,2.13264832 89.9522464,2.41748047 C89.5899399,2.70231262 89.4087894,3.09765372 89.4087894,3.60351562 C89.4087894,4.00911661 89.5808254,4.35204938 89.9249027,4.63232422 C90.2689799,4.91259906 90.854586,5.16894415 91.6817386,5.40136719 C92.5088912,5.63379022 93.1560201,5.89013532 93.6231449,6.17041016 C94.0902696,6.450685 94.4366203,6.7776674 94.6622074,7.15136719 C94.8877944,7.52506697 95.0005863,7.96484122 95.0005863,8.47070312 C95.0005863,9.27734778 94.6861363,9.92333742 94.0572269,10.4086914 C93.4283175,10.8940454 92.5875056,11.1367188 91.534766,11.1367188 C90.8511688,11.1367188 90.2131543,11.0056979 89.6207035,10.7436523 C89.0282526,10.4816068 88.5713887,10.1227236 88.250098,9.66699219 C87.9288073,9.21126074 87.7681644,8.69401331 87.7681644,8.11523438 L89.0875003,8.11523438 C89.0875003,8.71679988 89.3096661,9.19189279 89.7540042,9.54052734 C90.1983424,9.8891619 90.7919237,10.0634766 91.534766,10.0634766 C92.2274778,10.0634766 92.7583969,9.92220193 93.1275394,9.63964844 C93.4966819,9.35709494 93.6812503,8.97200765 93.6812503,8.484375 C93.6812503,7.99674235 93.5103536,7.61963024 93.168555,7.35302734 C92.8267564,7.08642445 92.206971,6.82324349 91.30918,6.56347656 L91.30918,6.56347656 Z M104.89918,2.12695312 L101.699961,2.12695312 L101.699961,11 L100.394297,11 L100.394297,2.12695312 L97.2019144,2.12695312 L97.2019144,1.046875 L104.89918,1.046875 L104.89918,2.12695312 Z" id="ALL-THE-BEST"></path>
                <polygon id="X" points="202.402344 6.86132812 204.788086 3.046875 206.333008 3.046875 203.188477 7.98242188 206.408203 13 204.849609 13 202.402344 9.1171875 199.941406 13 198.389648 13 201.616211 7.98242188 198.464844 3.046875 200.00293 3.046875"></polygon>
                <path d="M1.078125,43 L1.078125,34.46875 L3.46289062,34.46875 C4.16211287,34.46875 4.78905973,34.6279281 5.34375,34.9462891 C5.89844027,35.26465 6.33105313,35.7207002 6.64160156,36.3144531 C6.95214999,36.9082061 7.10742188,37.5839806 7.10742188,38.3417969 L7.10742188,39.1269531 C7.10742188,39.8886757 6.95312654,40.5644502 6.64453125,41.1542969 C6.33593596,41.7441436 5.90136999,42.1992171 5.34082031,42.5195312 C4.78027063,42.8398454 4.13672238,43 3.41015625,43 L1.078125,43 Z M1.79882812,35.0839844 L1.79882812,42.390625 L3.41601562,42.390625 C4.31445762,42.390625 5.03515354,42.0927764 5.578125,41.4970703 C6.12109646,40.9013642 6.39257812,40.0957082 6.39257812,39.0800781 L6.39257812,38.3300781 C6.39257812,37.3496045 6.12500268,36.5644561 5.58984375,35.9746094 C5.05468482,35.3847627 4.34961375,35.0878906 3.47460938,35.0839844 L1.79882812,35.0839844 Z M10.8166406,43 L10.1135156,43 L10.1135156,36.6601562 L10.8166406,36.6601562 L10.8166406,43 Z M9.99046874,34.8261719 C9.99046874,34.6933587 10.0334371,34.5810551 10.119375,34.4892578 C10.2053129,34.3974605 10.3224992,34.3515625 10.4709375,34.3515625 C10.6193757,34.3515625 10.7375386,34.3974605 10.8254297,34.4892578 C10.9133207,34.5810551 10.9572656,34.6933587 10.9572656,34.8261719 C10.9572656,34.958985 10.9133207,35.0703121 10.8254297,35.1601562 C10.7375386,35.2500004 10.6193757,35.2949219 10.4709375,35.2949219 C10.3224992,35.2949219 10.2053129,35.2500004 10.119375,35.1601562 C10.0334371,35.0703121 9.99046874,34.958985 9.99046874,34.8261719 L9.99046874,34.8261719 Z M14.4848437,43 L14.4848437,37.234375 L13.4360156,37.234375 L13.4360156,36.6601562 L14.4848437,36.6601562 L14.4848437,35.8925781 C14.4848437,35.2441374 14.6498811,34.7460955 14.9799609,34.3984375 C15.3100407,34.0507795 15.769997,33.8769531 16.3598437,33.8769531 C16.6254701,33.8769531 16.8735145,33.9101559 17.1039844,33.9765625 L17.05125,34.5625 C16.8559365,34.5156248 16.643048,34.4921875 16.4125781,34.4921875 C16.0258574,34.4921875 15.7250792,34.6123035 15.5102344,34.8525391 C15.2953895,35.0927746 15.1879687,35.4335915 15.1879687,35.875 L15.1879687,36.6601562 L16.6996875,36.6601562 L16.6996875,37.234375 L15.1879687,37.234375 L15.1879687,43 L14.4848437,43 Z M19.7175,43 L19.7175,37.234375 L18.6686718,37.234375 L18.6686718,36.6601562 L19.7175,36.6601562 L19.7175,35.8925781 C19.7175,35.2441374 19.8825374,34.7460955 20.2126172,34.3984375 C20.5426969,34.0507795 21.0026533,33.8769531 21.5925,33.8769531 C21.8581263,33.8769531 22.1061707,33.9101559 22.3366406,33.9765625 L22.2839062,34.5625 C22.0885927,34.5156248 21.8757042,34.4921875 21.6452343,34.4921875 C21.2585137,34.4921875 20.9577354,34.6123035 20.7428906,34.8525391 C20.5280458,35.0927746 20.420625,35.4335915 20.420625,35.875 L20.420625,36.6601562 L21.9323437,36.6601562 L21.9323437,37.234375 L20.420625,37.234375 L20.420625,43 L19.7175,43 Z M26.7607031,43.1171875 C26.2216379,43.1171875 25.7343381,42.9843763 25.298789,42.71875 C24.86324,42.4531237 24.5243762,42.0830102 24.2821875,41.6083984 C24.0399988,41.1337867 23.9189062,40.6015654 23.9189062,40.0117188 L23.9189062,39.7597656 C23.9189062,39.1503876 24.0370691,38.6015649 24.2733984,38.1132812 C24.5097277,37.6249976 24.838826,37.2412123 25.2607031,36.9619141 C25.6825802,36.6826158 26.1396069,36.5429688 26.6317968,36.5429688 C27.4013319,36.5429688 28.0116774,36.8056614 28.4628515,37.3310547 C28.9140257,37.8564479 29.1396093,38.5742142 29.1396093,39.484375 L29.1396093,39.8769531 L24.6161718,39.8769531 L24.6161718,40.0117188 C24.6161718,40.7304723 24.8222245,41.3290992 25.2343359,41.8076172 C25.6464473,42.2861352 26.1649968,42.5253906 26.79,42.5253906 C27.1650018,42.5253906 27.4960532,42.4570319 27.783164,42.3203125 C28.0702748,42.1835931 28.3310144,41.9648453 28.5653906,41.6640625 L29.0048437,41.9980469 C28.4892161,42.7441444 27.7411767,43.1171875 26.7607031,43.1171875 L26.7607031,43.1171875 Z M26.6317968,37.140625 C26.1044505,37.140625 25.660119,37.3339824 25.298789,37.7207031 C24.9374591,38.1074238 24.7177347,38.6269499 24.6396093,39.2792969 L28.4423437,39.2792969 L28.4423437,39.203125 C28.4228124,38.593747 28.248986,38.0976582 27.9208593,37.7148438 C27.5927327,37.3320293 27.1630495,37.140625 26.6317968,37.140625 L26.6317968,37.140625 Z M34.6945312,37.2578125 C34.546093,37.2304686 34.3878914,37.2167969 34.2199218,37.2167969 C33.7824196,37.2167969 33.4123062,37.338866 33.1095703,37.5830078 C32.8068344,37.8271497 32.5910162,38.1816383 32.4621093,38.6464844 L32.4621093,43 L31.7648437,43 L31.7648437,36.6601562 L32.4503906,36.6601562 L32.4621093,37.6679688 C32.8332049,36.917965 33.4289021,36.5429688 34.2492187,36.5429688 C34.4445322,36.5429688 34.5988275,36.5683591 34.7121093,36.6191406 L34.6945312,37.2578125 Z M39.4057031,43.1171875 C38.8666379,43.1171875 38.3793381,42.9843763 37.943789,42.71875 C37.50824,42.4531237 37.1693762,42.0830102 36.9271874,41.6083984 C36.6849987,41.1337867 36.5639062,40.6015654 36.5639062,40.0117188 L36.5639062,39.7597656 C36.5639062,39.1503876 36.6820691,38.6015649 36.9183984,38.1132812 C37.1547277,37.6249976 37.483826,37.2412123 37.9057031,36.9619141 C38.3275802,36.6826158 38.7846069,36.5429688 39.2767968,36.5429688 C40.0463319,36.5429688 40.6566774,36.8056614 41.1078515,37.3310547 C41.5590256,37.8564479 41.7846093,38.5742142 41.7846093,39.484375 L41.7846093,39.8769531 L37.2611718,39.8769531 L37.2611718,40.0117188 C37.2611718,40.7304723 37.4672244,41.3290992 37.8793359,41.8076172 C38.2914473,42.2861352 38.8099968,42.5253906 39.4349999,42.5253906 C39.8100018,42.5253906 40.1410532,42.4570319 40.428164,42.3203125 C40.7152748,42.1835931 40.9760144,41.9648453 41.2103906,41.6640625 L41.6498437,41.9980469 C41.1342161,42.7441444 40.3861767,43.1171875 39.4057031,43.1171875 L39.4057031,43.1171875 Z M39.2767968,37.140625 C38.7494504,37.140625 38.3051189,37.3339824 37.943789,37.7207031 C37.5824591,38.1074238 37.3627347,38.6269499 37.2846093,39.2792969 L41.0873437,39.2792969 L41.0873437,39.203125 C41.0678123,38.593747 40.893986,38.0976582 40.5658593,37.7148438 C40.2377327,37.3320293 39.8080495,37.140625 39.2767968,37.140625 L39.2767968,37.140625 Z M45.0778124,36.6601562 L45.1012499,37.7441406 C45.3395324,37.3535137 45.6364044,37.0556651 45.9918749,36.8505859 C46.3473455,36.6455068 46.7399197,36.5429688 47.1696093,36.5429688 C47.8493002,36.5429688 48.3551545,36.7343731 48.6871874,37.1171875 C49.0192203,37.5000019 49.1871874,38.0742149 49.1910937,38.8398438 L49.1910937,43 L48.4938281,43 L48.4938281,38.8339844 C48.4899218,38.2675753 48.3698058,37.8457045 48.1334765,37.5683594 C47.8971472,37.2910142 47.5192213,37.1523438 46.9996874,37.1523438 C46.5660915,37.1523438 46.1823063,37.2880846 45.8483202,37.5595703 C45.5143342,37.831056 45.2672664,38.1972633 45.1071093,38.6582031 L45.1071093,43 L44.4098437,43 L44.4098437,36.6601562 L45.0778124,36.6601562 Z M53.3514843,35.0371094 L53.3514843,36.6601562 L54.6639843,36.6601562 L54.6639843,37.234375 L53.3514843,37.234375 L53.3514843,41.4589844 C53.3514843,41.8105486 53.4149602,42.0722648 53.541914,42.2441406 C53.6688677,42.4160165 53.8807797,42.5019531 54.1776562,42.5019531 C54.2948443,42.5019531 54.4842955,42.4824221 54.7460155,42.4433594 L54.7753124,43.0175781 C54.5917178,43.0839847 54.3417203,43.1171875 54.0253124,43.1171875 C53.5448413,43.1171875 53.1952354,42.9775405 52.9764843,42.6982422 C52.7577332,42.4189439 52.6483593,42.0078152 52.6483593,41.4648438 L52.6483593,37.234375 L51.4823437,37.234375 L51.4823437,36.6601562 L52.6483593,36.6601562 L52.6483593,35.0371094 L53.3514843,35.0371094 Z M61.1739843,41.3886719 C61.1739843,41.0410139 61.0343372,40.7617198 60.755039,40.5507812 C60.4757407,40.3398427 60.0548465,40.1748053 59.4923437,40.0556641 C58.9298409,39.9365228 58.4933218,39.7998055 58.1827734,39.6455078 C57.8722249,39.4912102 57.6417585,39.3027355 57.4913671,39.0800781 C57.3409757,38.8574208 57.2657812,38.5878922 57.2657812,38.2714844 C57.2657812,37.7714819 57.4747634,37.3584001 57.8927343,37.0322266 C58.3107051,36.7060531 58.845856,36.5429688 59.498203,36.5429688 C60.2052378,36.5429688 60.772615,36.7177717 61.2003515,37.0673828 C61.628088,37.4169939 61.841953,37.8730441 61.841953,38.4355469 L61.138828,38.4355469 C61.138828,38.0644513 60.9835562,37.7558606 60.6730077,37.5097656 C60.3624593,37.2636706 59.9708617,37.140625 59.498203,37.140625 C59.0372632,37.140625 58.6671497,37.243163 58.3878515,37.4482422 C58.1085532,37.6533213 57.9689062,37.9199202 57.9689062,38.2480469 C57.9689062,38.5644547 58.0851159,38.8095694 58.317539,38.9833984 C58.549962,39.1572274 58.9737859,39.3164055 59.5890234,39.4609375 C60.2042608,39.6054695 60.6651937,39.7597648 60.9718359,39.9238281 C61.278478,40.0878914 61.5060148,40.2851551 61.654453,40.515625 C61.8028913,40.7460949 61.8771093,41.025389 61.8771093,41.3535156 C61.8771093,41.8886746 61.6612911,42.3164046 61.2296484,42.6367188 C60.7980056,42.9570329 60.2345346,43.1171875 59.5392187,43.1171875 C58.8009337,43.1171875 58.2023069,42.9384783 57.7433202,42.5810547 C57.2843336,42.223631 57.0548437,41.7714871 57.0548437,41.2246094 L57.7579687,41.2246094 C57.7853126,41.6347677 57.9581624,41.9541004 58.2765234,42.1826172 C58.5948843,42.411134 59.0157785,42.5253906 59.5392187,42.5253906 C60.0275024,42.5253906 60.4220297,42.4179698 60.7228124,42.203125 C61.0235952,41.9882802 61.1739843,41.7167985 61.1739843,41.3886719 L61.1739843,41.3886719 Z M75.9764648,37.2578125 C75.8280266,37.2304686 75.669825,37.2167969 75.5018554,37.2167969 C75.0643532,37.2167969 74.6942398,37.338866 74.3915039,37.5830078 C74.088768,37.8271497 73.8729498,38.1816383 73.7440429,38.6464844 L73.7440429,43 L73.0467773,43 L73.0467773,36.6601562 L73.7323242,36.6601562 L73.7440429,37.6679688 C74.1151385,36.917965 74.7108357,36.5429688 75.5311523,36.5429688 C75.7264658,36.5429688 75.8807611,36.5683591 75.9940429,36.6191406 L75.9764648,37.2578125 Z M77.8399804,39.7363281 C77.8399804,39.1269501 77.9581433,38.5781274 78.1944726,38.0898438 C78.4308019,37.6015601 78.764783,37.221681 79.1964257,36.9501953 C79.6280685,36.6787096 80.1173214,36.5429688 80.6641992,36.5429688 C81.5079534,36.5429688 82.1915403,36.8388642 82.7149804,37.4306641 C83.2384205,38.0224639 83.5001367,38.8066357 83.5001367,39.7832031 L83.5001367,39.9296875 C83.5001367,40.5429718 83.3819738,41.0947241 83.1456445,41.5849609 C82.9093152,42.0751978 82.5763107,42.4531237 82.146621,42.71875 C81.7169314,42.9843763 81.2267019,43.1171875 80.6759179,43.1171875 C79.83607,43.1171875 79.1534596,42.821292 78.6280664,42.2294922 C78.1026731,41.6376924 77.8399804,40.8535205 77.8399804,39.8769531 L77.8399804,39.7363281 Z M78.5431054,39.9296875 C78.5431054,40.6875038 78.7393925,41.3095679 79.1319726,41.7958984 C79.5245527,42.282229 80.039196,42.5253906 80.6759179,42.5253906 C81.3087336,42.5253906 81.8214238,42.282229 82.2140039,41.7958984 C82.6065839,41.3095679 82.802871,40.6679727 82.802871,39.8710938 L82.802871,39.7363281 C82.802871,39.2519507 82.7130282,38.8085958 82.5333398,38.40625 C82.3536514,38.0039042 82.1017008,37.6923839 81.7774804,37.4716797 C81.4532601,37.2509755 81.08217,37.140625 80.6641992,37.140625 C80.039196,37.140625 79.5294355,37.3857397 79.1349023,37.8759766 C78.7403691,38.3662134 78.5431054,39.0078085 78.5431054,39.8007812 L78.5431054,39.9296875 Z M90.2093554,43 C90.1390426,42.8007803 90.0941211,42.5058613 90.0745898,42.1152344 C89.8284948,42.4355485 89.5150214,42.6826163 89.1341601,42.8564453 C88.7532988,43.0302743 88.3499825,43.1171875 87.9241992,43.1171875 C87.3148211,43.1171875 86.821662,42.9472673 86.444707,42.6074219 C86.067752,42.2675764 85.8792773,41.8378932 85.8792773,41.3183594 C85.8792773,40.7011688 86.1361107,40.2128924 86.6497851,39.8535156 C87.1634595,39.4941388 87.8792727,39.3144531 88.797246,39.3144531 L90.0687304,39.3144531 L90.0687304,38.59375 C90.0687304,38.1406227 89.9290834,37.784181 89.6497851,37.5244141 C89.3704868,37.2646471 88.9632643,37.1347656 88.4281054,37.1347656 C87.9398217,37.1347656 87.5355289,37.2597644 87.2152148,37.5097656 C86.8949007,37.7597669 86.734746,38.0605451 86.734746,38.4121094 L86.031621,38.40625 C86.031621,37.9023412 86.2659937,37.4658222 86.734746,37.0966797 C87.2034984,36.7275372 87.7796645,36.5429688 88.4632617,36.5429688 C89.1702964,36.5429688 89.7279081,36.7197248 90.1361132,37.0732422 C90.5443184,37.4267596 90.7542772,37.9199187 90.765996,38.5527344 L90.765996,41.5527344 C90.765996,42.1660187 90.8304485,42.6249985 90.9593554,42.9296875 L90.9593554,43 L90.2093554,43 Z M88.0062304,42.4960938 C88.4749828,42.4960938 88.8939239,42.3828136 89.2630664,42.15625 C89.6322088,41.9296864 89.9007608,41.626955 90.0687304,41.2480469 L90.0687304,39.8535156 L88.8148242,39.8535156 C88.1156019,39.8613282 87.5687324,39.9892566 87.1741992,40.2373047 C86.7796659,40.4853528 86.5824023,40.8261697 86.5824023,41.2597656 C86.5824023,41.6152362 86.7142369,41.9101551 86.9779101,42.1445312 C87.2415833,42.3789074 87.5843533,42.4960938 88.0062304,42.4960938 L88.0062304,42.4960938 Z M93.6138867,39.7714844 C93.6138867,38.7871045 93.833611,38.0029326 94.2730663,37.4189453 C94.7125217,36.834958 95.3091954,36.5429688 96.0631054,36.5429688 C96.9185784,36.5429688 97.5709157,36.880856 98.0201367,37.5566406 L98.0201367,34 L98.7174023,34 L98.7174023,43 L98.0611523,43 L98.0318554,42.15625 C97.5826344,42.7968782 96.9224848,43.1171875 96.0513867,43.1171875 C95.3209143,43.1171875 94.732053,42.8232451 94.2847851,42.2353516 C93.8375172,41.647458 93.6138867,40.8535206 93.6138867,39.8535156 L93.6138867,39.7714844 Z M94.322871,39.8945312 C94.322871,40.703129 94.4849788,41.340818 94.8091992,41.8076172 C95.1334195,42.2744164 95.5904462,42.5078125 96.1802929,42.5078125 C97.0435785,42.5078125 97.6568536,42.1269569 98.0201367,41.3652344 L98.0201367,38.3886719 C97.6568536,37.564449 97.0474847,37.1523438 96.1920117,37.1523438 C95.602165,37.1523438 95.1431852,37.3837867 94.8150585,37.8466797 C94.4869319,38.3095726 94.322871,38.992183 94.322871,39.8945312 L94.322871,39.8945312 Z M105.61998,41.3886719 C105.61998,41.0410139 105.480333,40.7617198 105.201035,40.5507812 C104.921737,40.3398427 104.500843,40.1748053 103.93834,40.0556641 C103.375837,39.9365228 102.939318,39.7998055 102.628769,39.6455078 C102.318221,39.4912102 102.087755,39.3027355 101.937363,39.0800781 C101.786972,38.8574208 101.711777,38.5878922 101.711777,38.2714844 C101.711777,37.7714819 101.92076,37.3584001 102.33873,37.0322266 C102.756701,36.7060531 103.291852,36.5429688 103.944199,36.5429688 C104.651234,36.5429688 105.218611,36.7177717 105.646348,37.0673828 C106.074084,37.4169939 106.287949,37.8730441 106.287949,38.4355469 L105.584824,38.4355469 C105.584824,38.0644513 105.429552,37.7558606 105.119004,37.5097656 C104.808455,37.2636706 104.416858,37.140625 103.944199,37.140625 C103.483259,37.140625 103.113146,37.243163 102.833848,37.4482422 C102.554549,37.6533213 102.414902,37.9199202 102.414902,38.2480469 C102.414902,38.5644547 102.531112,38.8095694 102.763535,38.9833984 C102.995958,39.1572274 103.419782,39.3164055 104.035019,39.4609375 C104.650257,39.6054695 105.11119,39.7597648 105.417832,39.9238281 C105.724474,40.0878914 105.952011,40.2851551 106.100449,40.515625 C106.248887,40.7460949 106.323105,41.025389 106.323105,41.3535156 C106.323105,41.8886746 106.107287,42.3164046 105.675644,42.6367188 C105.244002,42.9570329 104.680531,43.1171875 103.985215,43.1171875 C103.24693,43.1171875 102.648303,42.9384783 102.189316,42.5810547 C101.73033,42.223631 101.50084,41.7714871 101.50084,41.2246094 L102.203965,41.2246094 C102.231309,41.6347677 102.404158,41.9541004 102.722519,42.1826172 C103.04088,42.411134 103.461775,42.5253906 103.985215,42.5253906 C104.473498,42.5253906 104.868026,42.4179698 105.168809,42.203125 C105.469591,41.9882802 105.61998,41.7167985 105.61998,41.3886719 L105.61998,41.3886719 Z M122.596289,39.8945312 C122.596289,40.8828174 122.377541,41.6669893 121.940039,42.2470703 C121.502537,42.8271513 120.914652,43.1171875 120.176367,43.1171875 C119.29355,43.1171875 118.625588,42.7890658 118.172461,42.1328125 L118.143164,43 L117.486914,43 L117.486914,34 L118.18418,34 L118.18418,37.5800781 C118.629494,36.8886684 119.289644,36.5429688 120.164648,36.5429688 C120.914652,36.5429688 121.50742,36.8290987 121.942969,37.4013672 C122.378518,37.9736357 122.596289,38.7695262 122.596289,39.7890625 L122.596289,39.8945312 Z M121.893164,39.7714844 C121.893164,38.9355427 121.731056,38.2900413 121.406836,37.8349609 C121.082616,37.3798805 120.625589,37.1523438 120.035742,37.1523438 C119.586521,37.1523438 119.205666,37.2626942 118.893164,37.4833984 C118.580662,37.7041027 118.344337,38.0273416 118.18418,38.453125 L118.18418,41.3125 C118.535744,42.109379 119.156831,42.5078125 120.047461,42.5078125 C120.625589,42.5078125 121.077733,42.2792992 121.403906,41.8222656 C121.73008,41.3652321 121.893164,40.6816452 121.893164,39.7714844 L121.893164,39.7714844 Z M129.481289,42.1972656 C129.059412,42.8105499 128.385591,43.1171875 127.459805,43.1171875 C126.78402,43.1171875 126.270353,42.9209004 125.918789,42.5283203 C125.567225,42.1357402 125.387539,41.5546913 125.379727,40.7851562 L125.379727,36.6601562 L126.076992,36.6601562 L126.076992,40.6972656 C126.076992,41.9043029 126.565269,42.5078125 127.541836,42.5078125 C128.557466,42.5078125 129.200038,42.0878948 129.46957,41.2480469 L129.46957,36.6601562 L130.172695,36.6601562 L130.172695,43 L129.493008,43 L129.481289,42.1972656 Z M134.344805,35.0371094 L134.344805,36.6601562 L135.657305,36.6601562 L135.657305,37.234375 L134.344805,37.234375 L134.344805,41.4589844 C134.344805,41.8105486 134.408281,42.0722648 134.535234,42.2441406 C134.662188,42.4160165 134.8741,42.5019531 135.170977,42.5019531 C135.288165,42.5019531 135.477616,42.4824221 135.739336,42.4433594 L135.768633,43.0175781 C135.585038,43.0839847 135.335041,43.1171875 135.018633,43.1171875 C134.538162,43.1171875 134.188556,42.9775405 133.969805,42.6982422 C133.751054,42.4189439 133.64168,42.0078152 133.64168,41.4648438 L133.64168,37.234375 L132.475664,37.234375 L132.475664,36.6601562 L133.64168,36.6601562 L133.64168,35.0371094 L134.344805,35.0371094 Z M147.79377,35.0371094 L147.79377,36.6601562 L149.10627,36.6601562 L149.10627,37.234375 L147.79377,37.234375 L147.79377,41.4589844 C147.79377,41.8105486 147.857245,42.0722648 147.984199,42.2441406 C148.111153,42.4160165 148.323065,42.5019531 148.619941,42.5019531 C148.737129,42.5019531 148.926581,42.4824221 149.188301,42.4433594 L149.217598,43.0175781 C149.034003,43.0839847 148.784005,43.1171875 148.467598,43.1171875 C147.987127,43.1171875 147.637521,42.9775405 147.41877,42.6982422 C147.200018,42.4189439 147.090645,42.0078152 147.090645,41.4648438 L147.090645,37.234375 L145.924629,37.234375 L145.924629,36.6601562 L147.090645,36.6601562 L147.090645,35.0371094 L147.79377,35.0371094 Z M152.51666,37.7324219 C152.74713,37.3535137 153.042049,37.0605479 153.401426,36.8535156 C153.760803,36.6464833 154.153377,36.5429688 154.57916,36.5429688 C155.258851,36.5429688 155.764705,36.7343731 156.096738,37.1171875 C156.428771,37.5000019 156.596738,38.0742149 156.600645,38.8398438 L156.600645,43 L155.903379,43 L155.903379,38.8339844 C155.899473,38.2675753 155.779357,37.8457045 155.543027,37.5683594 C155.306698,37.2910142 154.928772,37.1523438 154.409238,37.1523438 C153.975642,37.1523438 153.591857,37.2880846 153.257871,37.5595703 C152.923885,37.831056 152.676817,38.1972633 152.51666,38.6582031 L152.51666,43 L151.819395,43 L151.819395,34 L152.51666,34 L152.51666,37.7324219 Z M162.12041,43.1171875 C161.581345,43.1171875 161.094045,42.9843763 160.658496,42.71875 C160.222947,42.4531237 159.884083,42.0830102 159.641895,41.6083984 C159.399706,41.1337867 159.278613,40.6015654 159.278613,40.0117188 L159.278613,39.7597656 C159.278613,39.1503876 159.396776,38.6015649 159.633105,38.1132812 C159.869435,37.6249976 160.198533,37.2412123 160.62041,36.9619141 C161.042287,36.6826158 161.499314,36.5429688 161.991504,36.5429688 C162.761039,36.5429688 163.371384,36.8056614 163.822559,37.3310547 C164.273733,37.8564479 164.499316,38.5742142 164.499316,39.484375 L164.499316,39.8769531 L159.975879,39.8769531 L159.975879,40.0117188 C159.975879,40.7304723 160.181932,41.3290992 160.594043,41.8076172 C161.006154,42.2861352 161.524704,42.5253906 162.149707,42.5253906 C162.524709,42.5253906 162.85576,42.4570319 163.142871,42.3203125 C163.429982,42.1835931 163.690721,41.9648453 163.925098,41.6640625 L164.364551,41.9980469 C163.848923,42.7441444 163.100884,43.1171875 162.12041,43.1171875 L162.12041,43.1171875 Z M161.991504,37.140625 C161.464158,37.140625 161.019826,37.3339824 160.658496,37.7207031 C160.297166,38.1074238 160.077442,38.6269499 159.999316,39.2792969 L163.802051,39.2792969 L163.802051,39.203125 C163.782519,38.593747 163.608693,38.0976582 163.280566,37.7148438 C162.95244,37.3320293 162.522757,37.140625 161.991504,37.140625 L161.991504,37.140625 Z M179.254922,41.3886719 C179.254922,41.0410139 179.115275,40.7617198 178.835977,40.5507812 C178.556678,40.3398427 178.135784,40.1748053 177.573281,40.0556641 C177.010778,39.9365228 176.574259,39.7998055 176.263711,39.6455078 C175.953163,39.4912102 175.722696,39.3027355 175.572305,39.0800781 C175.421913,38.8574208 175.346719,38.5878922 175.346719,38.2714844 C175.346719,37.7714819 175.555701,37.3584001 175.973672,37.0322266 C176.391643,36.7060531 176.926794,36.5429688 177.579141,36.5429688 C178.286175,36.5429688 178.853553,36.7177717 179.281289,37.0673828 C179.709026,37.4169939 179.922891,37.8730441 179.922891,38.4355469 L179.219766,38.4355469 C179.219766,38.0644513 179.064494,37.7558606 178.753945,37.5097656 C178.443397,37.2636706 178.051799,37.140625 177.579141,37.140625 C177.118201,37.140625 176.748087,37.243163 176.468789,37.4482422 C176.189491,37.6533213 176.049844,37.9199202 176.049844,38.2480469 C176.049844,38.5644547 176.166054,38.8095694 176.398477,38.9833984 C176.6309,39.1572274 177.054724,39.3164055 177.669961,39.4609375 C178.285198,39.6054695 178.746131,39.7597648 179.052773,39.9238281 C179.359416,40.0878914 179.586952,40.2851551 179.735391,40.515625 C179.883829,40.7460949 179.958047,41.025389 179.958047,41.3535156 C179.958047,41.8886746 179.742229,42.3164046 179.310586,42.6367188 C178.878943,42.9570329 178.315472,43.1171875 177.620156,43.1171875 C176.881871,43.1171875 176.283245,42.9384783 175.824258,42.5810547 C175.365271,42.223631 175.135781,41.7714871 175.135781,41.2246094 L175.838906,41.2246094 C175.86625,41.6347677 176.0391,41.9541004 176.357461,42.1826172 C176.675822,42.411134 177.096716,42.5253906 177.620156,42.5253906 C178.10844,42.5253906 178.502967,42.4179698 178.80375,42.203125 C179.104533,41.9882802 179.254922,41.7167985 179.254922,41.3886719 L179.254922,41.3886719 Z M186.796172,43 C186.725859,42.8007803 186.680938,42.5058613 186.661406,42.1152344 C186.415311,42.4355485 186.101838,42.6826163 185.720977,42.8564453 C185.340115,43.0302743 184.936799,43.1171875 184.511016,43.1171875 C183.901638,43.1171875 183.408478,42.9472673 183.031523,42.6074219 C182.654568,42.2675764 182.466094,41.8378932 182.466094,41.3183594 C182.466094,40.7011688 182.722927,40.2128924 183.236602,39.8535156 C183.750276,39.4941388 184.466089,39.3144531 185.384063,39.3144531 L186.655547,39.3144531 L186.655547,38.59375 C186.655547,38.1406227 186.5159,37.784181 186.236602,37.5244141 C185.957303,37.2646471 185.550081,37.1347656 185.014922,37.1347656 C184.526638,37.1347656 184.122345,37.2597644 183.802031,37.5097656 C183.481717,37.7597669 183.321563,38.0605451 183.321563,38.4121094 L182.618438,38.40625 C182.618438,37.9023412 182.85281,37.4658222 183.321563,37.0966797 C183.790315,36.7275372 184.366481,36.5429688 185.050078,36.5429688 C185.757113,36.5429688 186.314725,36.7197248 186.72293,37.0732422 C187.131135,37.4267596 187.341094,37.9199187 187.352813,38.5527344 L187.352813,41.5527344 C187.352813,42.1660187 187.417265,42.6249985 187.546172,42.9296875 L187.546172,43 L186.796172,43 Z M184.593047,42.4960938 C185.061799,42.4960938 185.48074,42.3828136 185.849883,42.15625 C186.219025,41.9296864 186.487577,41.626955 186.655547,41.2480469 L186.655547,39.8535156 L185.401641,39.8535156 C184.702418,39.8613282 184.155549,39.9892566 183.761016,40.2373047 C183.366482,40.4853528 183.169219,40.8261697 183.169219,41.2597656 C183.169219,41.6152362 183.301053,41.9101551 183.564727,42.1445312 C183.8284,42.3789074 184.17117,42.4960938 184.593047,42.4960938 L184.593047,42.4960938 Z M191.120625,36.6601562 L191.144063,37.6914062 C191.378439,37.3085918 191.671405,37.0214853 192.022969,36.8300781 C192.374533,36.6386709 192.765154,36.5429688 193.194844,36.5429688 C194.194849,36.5429688 194.829608,36.9531209 195.099141,37.7734375 C195.325704,37.3789043 195.628436,37.0751964 196.007344,36.8623047 C196.386252,36.649413 196.804216,36.5429688 197.26125,36.5429688 C198.620632,36.5429688 199.313984,37.2851488 199.341328,38.7695312 L199.341328,43 L198.638203,43 L198.638203,38.8222656 C198.634297,38.2558565 198.512228,37.8359389 198.271992,37.5625 C198.031757,37.2890611 197.640159,37.1523438 197.097188,37.1523438 C196.593279,37.1601563 196.167502,37.3232406 195.819844,37.6416016 C195.472186,37.9599625 195.278828,38.347654 195.239766,38.8046875 L195.239766,43 L194.536641,43 L194.536641,38.7695312 C194.532734,38.2265598 194.404806,37.8212904 194.152852,37.5537109 C193.900897,37.2861315 193.513206,37.1523438 192.989766,37.1523438 C192.548357,37.1523438 192.169455,37.2783191 191.853047,37.5302734 C191.536639,37.7822278 191.302266,38.1562475 191.149922,38.6523438 L191.149922,43 L190.446797,43 L190.446797,36.6601562 L191.120625,36.6601562 Z M204.831797,43.1171875 C204.292732,43.1171875 203.805432,42.9843763 203.369883,42.71875 C202.934334,42.4531237 202.59547,42.0830102 202.353281,41.6083984 C202.111093,41.1337867 201.99,40.6015654 201.99,40.0117188 L201.99,39.7597656 C201.99,39.1503876 202.108163,38.6015649 202.344492,38.1132812 C202.580822,37.6249976 202.90992,37.2412123 203.331797,36.9619141 C203.753674,36.6826158 204.210701,36.5429688 204.702891,36.5429688 C205.472426,36.5429688 206.082771,36.8056614 206.533945,37.3310547 C206.985119,37.8564479 207.210703,38.5742142 207.210703,39.484375 L207.210703,39.8769531 L202.687266,39.8769531 L202.687266,40.0117188 C202.687266,40.7304723 202.893318,41.3290992 203.30543,41.8076172 C203.717541,42.2861352 204.236091,42.5253906 204.861094,42.5253906 C205.236096,42.5253906 205.567147,42.4570319 205.854258,42.3203125 C206.141369,42.1835931 206.402108,41.9648453 206.636484,41.6640625 L207.075938,41.9980469 C206.56031,42.7441444 205.812271,43.1171875 204.831797,43.1171875 L204.831797,43.1171875 Z M204.702891,37.140625 C204.175544,37.140625 203.731213,37.3339824 203.369883,37.7207031 C203.008553,38.1074238 202.788829,38.6269499 202.710703,39.2792969 L206.513438,39.2792969 L206.513438,39.203125 C206.493906,38.593747 206.32008,38.0976582 205.991953,37.7148438 C205.663826,37.3320293 205.234143,37.140625 204.702891,37.140625 L204.702891,37.140625 Z M0.6328125,55.7714844 C0.6328125,54.7871045 0.852536865,54.0029326 1.29199219,53.4189453 C1.73144751,52.834958 2.32812123,52.5429688 3.08203125,52.5429688 C3.93750428,52.5429688 4.5898415,52.880856 5.0390625,53.5566406 L5.0390625,50 L5.73632812,50 L5.73632812,59 L5.08007812,59 L5.05078125,58.15625 C4.60156025,58.7968782 3.94141061,59.1171875 3.0703125,59.1171875 C2.3398401,59.1171875 1.7509788,58.8232451 1.30371094,58.2353516 C0.856443076,57.647458 0.6328125,56.8535206 0.6328125,55.8535156 L0.6328125,55.7714844 Z M1.34179688,55.8945312 C1.34179688,56.703129 1.50390463,57.340818 1.828125,57.8076172 C2.15234537,58.2744164 2.60937205,58.5078125 3.19921875,58.5078125 C4.06250432,58.5078125 4.67577943,58.1269569 5.0390625,57.3652344 L5.0390625,54.3886719 C4.67577943,53.564449 4.06641053,53.1523438 3.2109375,53.1523438 C2.6210908,53.1523438 2.16211102,53.3837867 1.83398438,53.8466797 C1.50585773,54.3095726 1.34179688,54.992183 1.34179688,55.8945312 L1.34179688,55.8945312 Z M11.2062139,59 L10.5030889,59 L10.5030889,52.6601562 L11.2062139,52.6601562 L11.2062139,59 Z M10.3800421,50.8261719 C10.3800421,50.6933587 10.4230104,50.5810551 10.5089483,50.4892578 C10.5948862,50.3974605 10.7120726,50.3515625 10.8605108,50.3515625 C11.0089491,50.3515625 11.1271119,50.3974605 11.215003,50.4892578 C11.3028941,50.5810551 11.3468389,50.6933587 11.3468389,50.8261719 C11.3468389,50.958985 11.3028941,51.0703121 11.215003,51.1601562 C11.1271119,51.2500004 11.0089491,51.2949219 10.8605108,51.2949219 C10.7120726,51.2949219 10.5948862,51.2500004 10.5089483,51.1601562 C10.4230104,51.0703121 10.3800421,50.958985 10.3800421,50.8261719 L10.3800421,50.8261719 Z M18.8792248,53.2578125 C18.7307865,53.2304686 18.572585,53.2167969 18.4046154,53.2167969 C17.9671132,53.2167969 17.5969997,53.338866 17.2942638,53.5830078 C16.9915279,53.8271497 16.7757098,54.1816383 16.6468029,54.6464844 L16.6468029,59 L15.9495373,59 L15.9495373,52.6601562 L16.6350841,52.6601562 L16.6468029,53.6679688 C17.0178985,52.917965 17.6135957,52.5429688 18.4339123,52.5429688 C18.6292257,52.5429688 18.7835211,52.5683591 18.8968029,52.6191406 L18.8792248,53.2578125 Z M25.1694231,59.1171875 C24.6303579,59.1171875 24.1430581,58.9843763 23.707509,58.71875 C23.27196,58.4531237 22.9330962,58.0830102 22.6909075,57.6083984 C22.4487187,57.1337867 22.3276262,56.6015654 22.3276262,56.0117188 L22.3276262,55.7597656 C22.3276262,55.1503876 22.4457891,54.6015649 22.6821184,54.1132812 C22.9184477,53.6249976 23.247546,53.2412123 23.6694231,52.9619141 C24.0913002,52.6826158 24.5483269,52.5429688 25.0405168,52.5429688 C25.8100519,52.5429688 26.4203974,52.8056614 26.8715715,53.3310547 C27.3227457,53.8564479 27.5483293,54.5742142 27.5483293,55.484375 L27.5483293,55.8769531 L23.0248918,55.8769531 L23.0248918,56.0117188 C23.0248918,56.7304723 23.2309445,57.3290992 23.6430559,57.8076172 C24.0551673,58.2861352 24.5737168,58.5253906 25.19872,58.5253906 C25.5737218,58.5253906 25.9047732,58.4570319 26.191884,58.3203125 C26.4789948,58.1835931 26.7397344,57.9648453 26.9741106,57.6640625 L27.4135637,57.9980469 C26.8979361,58.7441444 26.1498967,59.1171875 25.1694231,59.1171875 L25.1694231,59.1171875 Z M25.0405168,53.140625 C24.5131704,53.140625 24.068839,53.3339824 23.707509,53.7207031 C23.3461791,54.1074238 23.1264547,54.6269499 23.0483293,55.2792969 L26.8510637,55.2792969 L26.8510637,55.203125 C26.8315324,54.593747 26.657706,54.0976582 26.3295793,53.7148438 C26.0014527,53.3320293 25.5717695,53.140625 25.0405168,53.140625 L25.0405168,53.140625 Z M34.0963402,58.5253906 C34.5846238,58.5253906 34.9937994,58.3876967 35.3238792,58.1123047 C35.653959,57.8369127 35.8326681,57.4804709 35.860012,57.0429688 L36.5338402,57.0429688 C36.5143088,57.4296894 36.3932163,57.782225 36.1705589,58.1005859 C35.9479015,58.4189469 35.6520061,58.6679679 35.2828636,58.8476562 C34.9137211,59.0273446 34.5182173,59.1171875 34.0963402,59.1171875 C33.2643047,59.1171875 32.6051316,58.8281279 32.1188011,58.25 C31.6324705,57.6718721 31.3893089,56.8945361 31.3893089,55.9179688 L31.3893089,55.7070312 C31.3893089,55.0820281 31.4986828,54.5292993 31.7174339,54.0488281 C31.936185,53.568357 32.2496584,53.1972669 32.6578636,52.9355469 C33.0660688,52.6738268 33.543603,52.5429688 34.0904808,52.5429688 C34.7857968,52.5429688 35.3590332,52.7499979 35.8102073,53.1640625 C36.2613815,53.5781271 36.50259,54.1230435 36.5338402,54.7988281 L35.860012,54.7988281 C35.8287619,54.3027319 35.6500527,53.9023453 35.3238792,53.5976562 C34.9977057,53.2929672 34.586577,53.140625 34.0904808,53.140625 C33.4576651,53.140625 32.9664591,53.3691383 32.616848,53.8261719 C32.2672368,54.2832054 32.0924339,54.923824 32.0924339,55.7480469 L32.0924339,55.953125 C32.0924339,56.7617228 32.2672368,57.3925759 32.616848,57.8457031 C32.9664591,58.2988304 33.4596182,58.5253906 34.0963402,58.5253906 L34.0963402,58.5253906 Z M41.863101,51.0371094 L41.863101,52.6601562 L43.175601,52.6601562 L43.175601,53.234375 L41.863101,53.234375 L41.863101,57.4589844 C41.863101,57.8105486 41.9265769,58.0722648 42.0535307,58.2441406 C42.1804844,58.4160165 42.3923964,58.5019531 42.6892728,58.5019531 C42.8064609,58.5019531 42.9959122,58.4824221 43.2576322,58.4433594 L43.2869291,59.0175781 C43.1033344,59.0839847 42.8533369,59.1171875 42.5369291,59.1171875 C42.0564579,59.1171875 41.7068521,58.9775405 41.488101,58.6982422 C41.2693499,58.4189439 41.159976,58.0078152 41.159976,57.4648438 L41.159976,53.234375 L39.9939603,53.234375 L39.9939603,52.6601562 L41.159976,52.6601562 L41.159976,51.0371094 L41.863101,51.0371094 Z M48.2529087,59 L47.5497837,59 L47.5497837,52.6601562 L48.2529087,52.6601562 L48.2529087,59 Z M47.4267368,50.8261719 C47.4267368,50.6933587 47.4697051,50.5810551 47.555643,50.4892578 C47.641581,50.3974605 47.7587673,50.3515625 47.9072055,50.3515625 C48.0556438,50.3515625 48.1738067,50.3974605 48.2616977,50.4892578 C48.3495888,50.5810551 48.3935337,50.6933587 48.3935337,50.8261719 C48.3935337,50.958985 48.3495888,51.0703121 48.2616977,51.1601562 C48.1738067,51.2500004 48.0556438,51.2949219 47.9072055,51.2949219 C47.7587673,51.2949219 47.641581,51.2500004 47.555643,51.1601562 C47.4697051,51.0703121 47.4267368,50.958985 47.4267368,50.8261719 L47.4267368,50.8261719 Z M52.6095132,55.7363281 C52.6095132,55.1269501 52.7276761,54.5781274 52.9640054,54.0898438 C53.2003347,53.6015601 53.5343158,53.221681 53.9659586,52.9501953 C54.3976013,52.6787096 54.8868543,52.5429688 55.433732,52.5429688 C56.2774862,52.5429688 56.9610731,52.8388642 57.4845132,53.4306641 C58.0079534,54.0224639 58.2696695,54.8066357 58.2696695,55.7832031 L58.2696695,55.9296875 C58.2696695,56.5429718 58.1515066,57.0947241 57.9151773,57.5849609 C57.678848,58.0751978 57.3458435,58.4531237 56.9161539,58.71875 C56.4864642,58.9843763 55.9962347,59.1171875 55.4454507,59.1171875 C54.6056028,59.1171875 53.9229924,58.821292 53.3975992,58.2294922 C52.8722059,57.6376924 52.6095132,56.8535205 52.6095132,55.8769531 L52.6095132,55.7363281 Z M53.3126382,55.9296875 C53.3126382,56.6875038 53.5089253,57.3095679 53.9015054,57.7958984 C54.2940855,58.282229 54.8087288,58.5253906 55.4454507,58.5253906 C56.0782664,58.5253906 56.5909566,58.282229 56.9835367,57.7958984 C57.3761168,57.3095679 57.5724039,56.6679727 57.5724039,55.8710938 L57.5724039,55.7363281 C57.5724039,55.2519507 57.482561,54.8085958 57.3028726,54.40625 C57.1231842,54.0039042 56.8712336,53.6923839 56.5470132,53.4716797 C56.2227929,53.2509755 55.8517028,53.140625 55.433732,53.140625 C54.8087289,53.140625 54.2989683,53.3857397 53.9044351,53.8759766 C53.5099019,54.3662134 53.3126382,55.0078085 53.3126382,55.8007812 L53.3126382,55.9296875 Z M63.2239303,52.6601562 L63.2473678,53.7441406 C63.4856503,53.3535137 63.7825223,53.0556651 64.1379928,52.8505859 C64.4934633,52.6455068 64.8860375,52.5429688 65.3157272,52.5429688 C65.9954181,52.5429688 66.5012724,52.7343731 66.8333053,53.1171875 C67.1653382,53.5000019 67.3333053,54.0742149 67.3372116,54.8398438 L67.3372116,59 L66.6399459,59 L66.6399459,54.8339844 C66.6360397,54.2675753 66.5159237,53.8457045 66.2795944,53.5683594 C66.0432651,53.2910142 65.6653392,53.1523438 65.1458053,53.1523438 C64.7122094,53.1523438 64.3284242,53.2880846 63.9944381,53.5595703 C63.6604521,53.831056 63.4133842,54.1972633 63.2532272,54.6582031 L63.2532272,59 L62.5559616,59 L62.5559616,52.6601562 L63.2239303,52.6601562 Z M71.9223318,58.578125 C71.9223318,58.4414056 71.9662766,58.3251958 72.0541677,58.2294922 C72.1420588,58.1337886 72.2641278,58.0859375 72.4203786,58.0859375 C72.5766294,58.0859375 72.6996751,58.1337886 72.7895193,58.2294922 C72.8793635,58.3251958 72.9242849,58.4414056 72.9242849,58.578125 C72.9242849,58.7148444 72.8793635,58.827148 72.7895193,58.9150391 C72.6996751,59.0029301 72.5766294,59.046875 72.4203786,59.046875 C72.2641278,59.046875 72.1420588,59.0029301 72.0541677,58.9150391 C71.9662766,58.827148 71.9223318,58.7148444 71.9223318,58.578125 L71.9223318,58.578125 Z M87.9701262,58.390625 L92.1830168,58.390625 L92.1830168,59 L87.2435637,59 L87.2435637,50.46875 L87.9701262,50.46875 L87.9701262,58.390625 Z M98.6958714,59.1171875 C98.1568062,59.1171875 97.6695064,58.9843763 97.2339573,58.71875 C96.7984083,58.4531237 96.4595445,58.0830102 96.2173558,57.6083984 C95.9751671,57.1337867 95.8540745,56.6015654 95.8540745,56.0117188 L95.8540745,55.7597656 C95.8540745,55.1503876 95.9722374,54.6015649 96.2085667,54.1132812 C96.444896,53.6249976 96.7739943,53.2412123 97.1958714,52.9619141 C97.6177485,52.6826158 98.0747752,52.5429688 98.5669652,52.5429688 C99.3365003,52.5429688 99.9468457,52.8056614 100.39802,53.3310547 C100.849194,53.8564479 101.074778,54.5742142 101.074778,55.484375 L101.074778,55.8769531 L96.5513402,55.8769531 L96.5513402,56.0117188 C96.5513402,56.7304723 96.7573928,57.3290992 97.1695042,57.8076172 C97.5816157,58.2861352 98.1001652,58.5253906 98.7251683,58.5253906 C99.1001702,58.5253906 99.4312215,58.4570319 99.7183323,58.3203125 C100.005443,58.1835931 100.266183,57.9648453 100.500559,57.6640625 L100.940012,57.9980469 C100.424384,58.7441444 99.6763451,59.1171875 98.6958714,59.1171875 L98.6958714,59.1171875 Z M98.5669652,53.140625 C98.0396188,53.140625 97.5952873,53.3339824 97.2339573,53.7207031 C96.8726274,54.1074238 96.652903,54.6269499 96.5747777,55.2792969 L100.377512,55.2792969 L100.377512,55.203125 C100.357981,54.593747 100.184154,54.0976582 99.8560277,53.7148438 C99.527901,53.3320293 99.0982178,53.140625 98.5669652,53.140625 L98.5669652,53.140625 Z M106.368882,51.0371094 L106.368882,52.6601562 L107.681382,52.6601562 L107.681382,53.234375 L106.368882,53.234375 L106.368882,57.4589844 C106.368882,57.8105486 106.432358,58.0722648 106.559312,58.2441406 C106.686266,58.4160165 106.898178,58.5019531 107.195054,58.5019531 C107.312242,58.5019531 107.501693,58.4824221 107.763413,58.4433594 L107.79271,59.0175781 C107.609116,59.0839847 107.359118,59.1171875 107.04271,59.1171875 C106.562239,59.1171875 106.212633,58.9775405 105.993882,58.6982422 C105.775131,58.4189439 105.665757,58.0078152 105.665757,57.4648438 L105.665757,53.234375 L104.499742,53.234375 L104.499742,52.6601562 L105.665757,52.6601562 L105.665757,51.0371094 L106.368882,51.0371094 Z M112.905174,50.0703125 L113.754784,50.0703125 L112.401268,51.7050781 L111.786034,51.7050781 L112.905174,50.0703125 Z M121.984435,57.3886719 C121.984435,57.0410139 121.844788,56.7617198 121.56549,56.5507812 C121.286192,56.3398427 120.865297,56.1748053 120.302794,56.0556641 C119.740292,55.9365228 119.303773,55.7998055 118.993224,55.6455078 C118.682676,55.4912102 118.452209,55.3027355 118.301818,55.0800781 C118.151427,54.8574208 118.076232,54.5878922 118.076232,54.2714844 C118.076232,53.7714819 118.285214,53.3584001 118.703185,53.0322266 C119.121156,52.7060531 119.656307,52.5429688 120.308654,52.5429688 C121.015689,52.5429688 121.583066,52.7177717 122.010802,53.0673828 C122.438539,53.4169939 122.652404,53.8730441 122.652404,54.4355469 L121.949279,54.4355469 C121.949279,54.0644513 121.794007,53.7558606 121.483459,53.5097656 C121.17291,53.2636706 120.781312,53.140625 120.308654,53.140625 C119.847714,53.140625 119.477601,53.243163 119.198302,53.4482422 C118.919004,53.6533213 118.779357,53.9199202 118.779357,54.2480469 C118.779357,54.5644547 118.895567,54.8095694 119.12799,54.9833984 C119.360413,55.1572274 119.784237,55.3164055 120.399474,55.4609375 C121.014712,55.6054695 121.475645,55.7597648 121.782287,55.9238281 C122.088929,56.0878914 122.316466,56.2851551 122.464904,56.515625 C122.613342,56.7460949 122.68756,57.025389 122.68756,57.3535156 C122.68756,57.8886746 122.471742,58.3164046 122.040099,58.6367188 C121.608456,58.9570329 121.044985,59.1171875 120.349669,59.1171875 C119.611385,59.1171875 119.012758,58.9384783 118.553771,58.5810547 C118.094784,58.223631 117.865294,57.7714871 117.865294,57.2246094 L118.568419,57.2246094 C118.595763,57.6347677 118.768613,57.9541004 119.086974,58.1826172 C119.405335,58.411134 119.826229,58.5253906 120.349669,58.5253906 C120.837953,58.5253906 121.23248,58.4179698 121.533263,58.203125 C121.834046,57.9882802 121.984435,57.7167985 121.984435,57.3886719 L121.984435,57.3886719 Z M137.129886,52.6601562 L137.153323,53.6914062 C137.387699,53.3085918 137.680665,53.0214853 138.03223,52.8300781 C138.383794,52.6386709 138.774415,52.5429688 139.204105,52.5429688 C140.20411,52.5429688 140.838869,52.9531209 141.108401,53.7734375 C141.334965,53.3789043 141.637696,53.0751964 142.016605,52.8623047 C142.395513,52.649413 142.813477,52.5429688 143.270511,52.5429688 C144.629893,52.5429688 145.323245,53.2851488 145.350589,54.7695312 L145.350589,59 L144.647464,59 L144.647464,54.8222656 C144.643558,54.2558565 144.521489,53.8359389 144.281253,53.5625 C144.041017,53.2890611 143.64942,53.1523438 143.106448,53.1523438 C142.60254,53.1601563 142.176763,53.3232406 141.829105,53.6416016 C141.481447,53.9599625 141.288089,54.347654 141.249026,54.8046875 L141.249026,59 L140.545901,59 L140.545901,54.7695312 C140.541995,54.2265598 140.414067,53.8212904 140.162112,53.5537109 C139.910158,53.2861315 139.522467,53.1523438 138.999026,53.1523438 C138.557618,53.1523438 138.178716,53.2783191 137.862308,53.5302734 C137.5459,53.7822278 137.311527,54.1562475 137.159183,54.6523438 L137.159183,59 L136.456058,59 L136.456058,52.6601562 L137.129886,52.6601562 Z M153.966959,59 C153.896646,58.8007803 153.851725,58.5058613 153.832194,58.1152344 C153.586099,58.4355485 153.272625,58.6826163 152.891764,58.8564453 C152.510903,59.0302743 152.107586,59.1171875 151.681803,59.1171875 C151.072425,59.1171875 150.579266,58.9472673 150.202311,58.6074219 C149.825356,58.2675764 149.636881,57.8378932 149.636881,57.3183594 C149.636881,56.7011688 149.893714,56.2128924 150.407389,55.8535156 C150.921063,55.4941388 151.636876,55.3144531 152.55485,55.3144531 L153.826334,55.3144531 L153.826334,54.59375 C153.826334,54.1406227 153.686687,53.784181 153.407389,53.5244141 C153.128091,53.2646471 152.720868,53.1347656 152.185709,53.1347656 C151.697425,53.1347656 151.293133,53.2597644 150.972819,53.5097656 C150.652504,53.7597669 150.49235,54.0605451 150.49235,54.4121094 L149.789225,54.40625 C149.789225,53.9023412 150.023597,53.4658222 150.49235,53.0966797 C150.961102,52.7275372 151.537268,52.5429688 152.220865,52.5429688 C152.9279,52.5429688 153.485512,52.7197248 153.893717,53.0732422 C154.301922,53.4267596 154.511881,53.9199187 154.5236,54.5527344 L154.5236,57.5527344 C154.5236,58.1660187 154.588052,58.6249985 154.716959,58.9296875 L154.716959,59 L153.966959,59 Z M151.763834,58.4960938 C152.232586,58.4960938 152.651528,58.3828136 153.02067,58.15625 C153.389813,57.9296864 153.658365,57.626955 153.826334,57.2480469 L153.826334,55.8535156 L152.572428,55.8535156 C151.873206,55.8613282 151.326336,55.9892566 150.931803,56.2373047 C150.53727,56.4853528 150.340006,56.8261697 150.340006,57.2597656 C150.340006,57.6152362 150.471841,57.9101551 150.735514,58.1445312 C150.999187,58.3789074 151.341957,58.4960938 151.763834,58.4960938 L151.763834,58.4960938 Z M160.737626,55.8066406 L159.934892,56.5800781 L159.934892,59 L159.231767,59 L159.231767,50 L159.934892,50 L159.934892,55.7597656 L160.597001,55.0449219 L163.022782,52.6601562 L163.907548,52.6601562 L161.218095,55.3320312 L164.141923,59 L163.304032,59 L160.737626,55.8066406 Z M170.285637,59.1171875 C169.746572,59.1171875 169.259272,58.9843763 168.823723,58.71875 C168.388174,58.4531237 168.04931,58.0830102 167.807121,57.6083984 C167.564933,57.1337867 167.44384,56.6015654 167.44384,56.0117188 L167.44384,55.7597656 C167.44384,55.1503876 167.562003,54.6015649 167.798332,54.1132812 C168.034662,53.6249976 168.36376,53.2412123 168.785637,52.9619141 C169.207514,52.6826158 169.664541,52.5429688 170.156731,52.5429688 C170.926266,52.5429688 171.536611,52.8056614 171.987785,53.3310547 C172.43896,53.8564479 172.664543,54.5742142 172.664543,55.484375 L172.664543,55.8769531 L168.141106,55.8769531 L168.141106,56.0117188 C168.141106,56.7304723 168.347158,57.3290992 168.75927,57.8076172 C169.171381,58.2861352 169.689931,58.5253906 170.314934,58.5253906 C170.689936,58.5253906 171.020987,58.4570319 171.308098,58.3203125 C171.595209,58.1835931 171.855948,57.9648453 172.090325,57.6640625 L172.529778,57.9980469 C172.01415,58.7441444 171.266111,59.1171875 170.285637,59.1171875 L170.285637,59.1171875 Z M170.156731,53.140625 C169.629384,53.140625 169.185053,53.3339824 168.823723,53.7207031 C168.462393,54.1074238 168.242669,54.6269499 168.164543,55.2792969 L171.967278,55.2792969 L171.967278,55.203125 C171.947746,54.593747 171.77392,54.0976582 171.445793,53.7148438 C171.117667,53.3320293 170.687983,53.140625 170.156731,53.140625 L170.156731,53.140625 Z M187.347103,51.0371094 L187.347103,52.6601562 L188.659603,52.6601562 L188.659603,53.234375 L187.347103,53.234375 L187.347103,57.4589844 C187.347103,57.8105486 187.410579,58.0722648 187.537533,58.2441406 C187.664487,58.4160165 187.876399,58.5019531 188.173275,58.5019531 C188.290463,58.5019531 188.479915,58.4824221 188.741635,58.4433594 L188.770931,59.0175781 C188.587337,59.0839847 188.337339,59.1171875 188.020931,59.1171875 C187.54046,59.1171875 187.190854,58.9775405 186.972103,58.6982422 C186.753352,58.4189439 186.643978,58.0078152 186.643978,57.4648438 L186.643978,53.234375 L185.477963,53.234375 L185.477963,52.6601562 L186.643978,52.6601562 L186.643978,51.0371094 L187.347103,51.0371094 Z M193.64902,53.7324219 C193.87949,53.3535137 194.174409,53.0605479 194.533786,52.8535156 C194.893163,52.6464833 195.285737,52.5429688 195.71152,52.5429688 C196.391211,52.5429688 196.897066,52.7343731 197.229099,53.1171875 C197.561131,53.5000019 197.729099,54.0742149 197.733005,54.8398438 L197.733005,59 L197.035739,59 L197.035739,54.8339844 C197.031833,54.2675753 196.911717,53.8457045 196.675388,53.5683594 C196.439058,53.2910142 196.061132,53.1523438 195.541599,53.1523438 C195.108003,53.1523438 194.724217,53.2880846 194.390231,53.5595703 C194.056245,53.831056 193.809177,54.1972633 193.64902,54.6582031 L193.64902,59 L192.951755,59 L192.951755,50 L193.64902,50 L193.64902,53.7324219 Z M204.831797,59.1171875 C204.292732,59.1171875 203.805432,58.9843763 203.369883,58.71875 C202.934334,58.4531237 202.59547,58.0830102 202.353281,57.6083984 C202.111093,57.1337867 201.99,56.6015654 201.99,56.0117188 L201.99,55.7597656 C201.99,55.1503876 202.108163,54.6015649 202.344492,54.1132812 C202.580822,53.6249976 202.90992,53.2412123 203.331797,52.9619141 C203.753674,52.6826158 204.210701,52.5429688 204.702891,52.5429688 C205.472426,52.5429688 206.082771,52.8056614 206.533945,53.3310547 C206.985119,53.8564479 207.210703,54.5742142 207.210703,55.484375 L207.210703,55.8769531 L202.687266,55.8769531 L202.687266,56.0117188 C202.687266,56.7304723 202.893318,57.3290992 203.30543,57.8076172 C203.717541,58.2861352 204.236091,58.5253906 204.861094,58.5253906 C205.236096,58.5253906 205.567147,58.4570319 205.854258,58.3203125 C206.141369,58.1835931 206.402108,57.9648453 206.636484,57.6640625 L207.075938,57.9980469 C206.56031,58.7441444 205.812271,59.1171875 204.831797,59.1171875 L204.831797,59.1171875 Z M204.702891,53.140625 C204.175544,53.140625 203.731213,53.3339824 203.369883,53.7207031 C203.008553,54.1074238 202.788829,54.6269499 202.710703,55.2792969 L206.513438,55.2792969 L206.513438,55.203125 C206.493906,54.593747 206.32008,54.0976582 205.991953,53.7148438 C205.663826,53.3320293 205.234143,53.140625 204.702891,53.140625 L204.702891,53.140625 Z M5.77734375,71.015625 L1.79882812,71.015625 L1.79882812,75 L1.078125,75 L1.078125,66.46875 L6.36328125,66.46875 L6.36328125,67.0839844 L1.79882812,67.0839844 L1.79882812,70.4003906 L5.77734375,70.4003906 L5.77734375,71.015625 Z M9.70921874,75 L9.00609374,75 L9.00609374,66 L9.70921874,66 L9.70921874,75 Z M12.4867969,71.7363281 C12.4867969,71.1269501 12.6049597,70.5781274 12.841289,70.0898438 C13.0776184,69.6015601 13.4115994,69.221681 13.8432422,68.9501953 C14.274885,68.6787096 14.7641379,68.5429688 15.3110156,68.5429688 C16.1547698,68.5429688 16.8383567,68.8388642 17.3617969,69.4306641 C17.885237,70.0224639 18.1469531,70.8066357 18.1469531,71.7832031 L18.1469531,71.9296875 C18.1469531,72.5429718 18.0287902,73.0947241 17.7924609,73.5849609 C17.5561316,74.0751978 17.2231271,74.4531237 16.7934375,74.71875 C16.3637478,74.9843763 15.8735184,75.1171875 15.3227344,75.1171875 C14.4828864,75.1171875 13.800276,74.821292 13.2748828,74.2294922 C12.7494895,73.6376924 12.4867969,72.8535205 12.4867969,71.8769531 L12.4867969,71.7363281 Z M13.1899219,71.9296875 C13.1899219,72.6875038 13.386209,73.3095679 13.778789,73.7958984 C14.1713691,74.282229 14.6860124,74.5253906 15.3227344,74.5253906 C15.95555,74.5253906 16.4682402,74.282229 16.8608203,73.7958984 C17.2534004,73.3095679 17.4496875,72.6679727 17.4496875,71.8710938 L17.4496875,71.7363281 C17.4496875,71.2519507 17.3598446,70.8085958 17.1801562,70.40625 C17.0004678,70.0039042 16.7485172,69.6923839 16.4242969,69.4716797 C16.1000765,69.2509755 15.7289864,69.140625 15.3110156,69.140625 C14.6860125,69.140625 14.176252,69.3857397 13.7817187,69.8759766 C13.3871855,70.3662134 13.1899219,71.0078085 13.1899219,71.8007812 L13.1899219,71.9296875 Z M22.3717968,73.5410156 L22.4772656,74.0859375 L22.6178906,73.5117188 L24.1413281,68.6601562 L24.7389843,68.6601562 L26.2448437,73.4707031 L26.4089062,74.1386719 L26.5436718,73.5234375 L27.8444531,68.6601562 L28.5710156,68.6601562 L26.7253125,75 L26.1276562,75 L24.49875,69.9726562 L24.4225781,69.6269531 L24.3464062,69.9785156 L22.7467968,75 L22.1491406,75 L20.3092968,68.6601562 L21.03,68.6601562 L22.3717968,73.5410156 Z M36.2646093,71.8945312 C36.2646093,72.8828174 36.0458615,73.6669893 35.6083593,74.2470703 C35.1708571,74.8271513 34.5829724,75.1171875 33.8446875,75.1171875 C32.9618705,75.1171875 32.2939085,74.7890658 31.8407812,74.1328125 L31.8114843,75 L31.1552343,75 L31.1552343,66 L31.8525,66 L31.8525,69.5800781 C32.2978147,68.8886684 32.9579643,68.5429688 33.8329687,68.5429688 C34.5829725,68.5429688 35.17574,68.8290987 35.611289,69.4013672 C36.0468381,69.9736357 36.2646093,70.7695262 36.2646093,71.7890625 L36.2646093,71.8945312 Z M35.5614843,71.7714844 C35.5614843,70.9355427 35.3993766,70.2900413 35.0751562,69.8349609 C34.7509358,69.3798805 34.2939092,69.1523438 33.7040625,69.1523438 C33.2548415,69.1523438 32.8739859,69.2626942 32.5614843,69.4833984 C32.2489828,69.7041027 32.012657,70.0273416 31.8525,70.453125 L31.8525,73.3125 C32.2040642,74.109379 32.8251518,74.5078125 33.7157812,74.5078125 C34.2939091,74.5078125 34.746053,74.2792992 35.0722265,73.8222656 C35.3984,73.3652321 35.5614843,72.6816452 35.5614843,71.7714844 L35.5614843,71.7714844 Z M38.6847656,71.7363281 C38.6847656,71.1269501 38.8029285,70.5781274 39.0392578,70.0898438 C39.2755871,69.6015601 39.6095681,69.221681 40.0412109,68.9501953 C40.4728537,68.6787096 40.9621066,68.5429688 41.5089843,68.5429688 C42.3527385,68.5429688 43.0363255,68.8388642 43.5597656,69.4306641 C44.0832057,70.0224639 44.3449218,70.8066357 44.3449218,71.7832031 L44.3449218,71.9296875 C44.3449218,72.5429718 44.2267589,73.0947241 43.9904296,73.5849609 C43.7541003,74.0751978 43.4210959,74.4531237 42.9914062,74.71875 C42.5617166,74.9843763 42.0714871,75.1171875 41.5207031,75.1171875 C40.6808551,75.1171875 39.9982448,74.821292 39.4728515,74.2294922 C38.9474583,73.6376924 38.6847656,72.8535205 38.6847656,71.8769531 L38.6847656,71.7363281 Z M39.3878906,71.9296875 C39.3878906,72.6875038 39.5841777,73.3095679 39.9767578,73.7958984 C40.3693379,74.282229 40.8839811,74.5253906 41.5207031,74.5253906 C42.1535187,74.5253906 42.6662089,74.282229 43.058789,73.7958984 C43.4513691,73.3095679 43.6476562,72.6679727 43.6476562,71.8710938 L43.6476562,71.7363281 C43.6476562,71.2519507 43.5578134,70.8085958 43.378125,70.40625 C43.1984366,70.0039042 42.9464859,69.6923839 42.6222656,69.4716797 C42.2980452,69.2509755 41.9269552,69.140625 41.5089843,69.140625 C40.8839812,69.140625 40.3742207,69.3857397 39.9796875,69.8759766 C39.5851542,70.3662134 39.3878906,71.0078085 39.3878906,71.8007812 L39.3878906,71.9296875 Z M46.7709374,71.7714844 C46.7709374,70.7871045 46.9906618,70.0029326 47.4301171,69.4189453 C47.8695725,68.834958 48.4662462,68.5429688 49.2201562,68.5429688 C50.0756292,68.5429688 50.7279664,68.880856 51.1771874,69.5566406 L51.1771874,66 L51.8744531,66 L51.8744531,75 L51.2182031,75 L51.1889062,74.15625 C50.7396852,74.7968782 50.0795355,75.1171875 49.2084374,75.1171875 C48.477965,75.1171875 47.8891037,74.8232451 47.4418359,74.2353516 C46.994568,73.647458 46.7709374,72.8535206 46.7709374,71.8535156 L46.7709374,71.7714844 Z M47.4799218,71.8945312 C47.4799218,72.703129 47.6420296,73.340818 47.9662499,73.8076172 C48.2904703,74.2744164 48.747497,74.5078125 49.3373437,74.5078125 C50.2006293,74.5078125 50.8139044,74.1269569 51.1771874,73.3652344 L51.1771874,70.3886719 C50.8139044,69.564449 50.2045355,69.1523438 49.3490624,69.1523438 C48.7592157,69.1523438 48.300236,69.3837867 47.9721093,69.8466797 C47.6439827,70.3095726 47.4799218,70.992183 47.4799218,71.8945312 L47.4799218,71.8945312 Z M55.7653124,75 L55.0621874,75 L55.0621874,68.6601562 L55.7653124,68.6601562 L55.7653124,75 Z M54.9391406,66.8261719 C54.9391406,66.6933587 54.9821089,66.5810551 55.0680468,66.4892578 C55.1539847,66.3974605 55.2711711,66.3515625 55.4196093,66.3515625 C55.5680476,66.3515625 55.6862104,66.3974605 55.7741015,66.4892578 C55.8619926,66.5810551 55.9059374,66.6933587 55.9059374,66.8261719 C55.9059374,66.958985 55.8619926,67.0703121 55.7741015,67.1601562 C55.6862104,67.2500004 55.5680476,67.2949219 55.4196093,67.2949219 C55.2711711,67.2949219 55.1539847,67.2500004 55.0680468,67.1601562 C54.9821089,67.0703121 54.9391406,66.958985 54.9391406,66.8261719 L54.9391406,66.8261719 Z M61.3846874,75.1171875 C60.8456222,75.1171875 60.3583224,74.9843763 59.9227734,74.71875 C59.4872243,74.4531237 59.1483605,74.0830102 58.9061718,73.6083984 C58.6639831,73.1337867 58.5428905,72.6015654 58.5428905,72.0117188 L58.5428905,71.7597656 C58.5428905,71.1503876 58.6610534,70.6015649 58.8973827,70.1132812 C59.133712,69.6249976 59.4628103,69.2412123 59.8846874,68.9619141 C60.3065645,68.6826158 60.7635912,68.5429688 61.2557812,68.5429688 C62.0253163,68.5429688 62.6356617,68.8056614 63.0868359,69.3310547 C63.53801,69.8564479 63.7635937,70.5742142 63.7635937,71.484375 L63.7635937,71.8769531 L59.2401562,71.8769531 L59.2401562,72.0117188 C59.2401562,72.7304723 59.4462088,73.3290992 59.8583202,73.8076172 C60.2704317,74.2861352 60.7889812,74.5253906 61.4139843,74.5253906 C61.7889862,74.5253906 62.1200376,74.4570319 62.4071484,74.3203125 C62.6942592,74.1835931 62.9549988,73.9648453 63.1893749,73.6640625 L63.628828,73.9980469 C63.1132005,74.7441444 62.3651611,75.1171875 61.3846874,75.1171875 L61.3846874,75.1171875 Z M61.2557812,69.140625 C60.7284348,69.140625 60.2841033,69.3339824 59.9227734,69.7207031 C59.5614434,70.1074238 59.3417191,70.6269499 59.2635937,71.2792969 L63.066328,71.2792969 L63.066328,71.203125 C63.0467967,70.593747 62.8729703,70.0976582 62.5448437,69.7148438 C62.216717,69.3320293 61.7870338,69.140625 61.2557812,69.140625 L61.2557812,69.140625 Z M70.185703,73.3886719 C70.185703,73.0410139 70.046056,72.7617198 69.7667577,72.5507812 C69.4874595,72.3398427 69.0665652,72.1748053 68.5040624,72.0556641 C67.9415596,71.9365228 67.5050405,71.7998055 67.1944921,71.6455078 C66.8839437,71.4912102 66.6534772,71.3027355 66.5030859,71.0800781 C66.3526945,70.8574208 66.2774999,70.5878922 66.2774999,70.2714844 C66.2774999,69.7714819 66.4864822,69.3584001 66.904453,69.0322266 C67.3224239,68.7060531 67.8575748,68.5429688 68.5099218,68.5429688 C69.2169566,68.5429688 69.7843337,68.7177717 70.2120702,69.0673828 C70.6398067,69.4169939 70.8536718,69.8730441 70.8536718,70.4355469 L70.1505468,70.4355469 C70.1505468,70.0644513 69.9952749,69.7558606 69.6847265,69.5097656 C69.374178,69.2636706 68.9825804,69.140625 68.5099218,69.140625 C68.048982,69.140625 67.6788685,69.243163 67.3995702,69.4482422 C67.120272,69.6533213 66.9806249,69.9199202 66.9806249,70.2480469 C66.9806249,70.5644547 67.0968347,70.8095694 67.3292577,70.9833984 C67.5616808,71.1572274 67.9855047,71.3164055 68.6007421,71.4609375 C69.2159796,71.6054695 69.6769124,71.7597648 69.9835546,71.9238281 C70.2901968,72.0878914 70.5177335,72.2851551 70.6661718,72.515625 C70.81461,72.7460949 70.888828,73.025389 70.888828,73.3535156 C70.888828,73.8886746 70.6730099,74.3164046 70.2413671,74.6367188 C69.8097243,74.9570329 69.2462534,75.1171875 68.5509374,75.1171875 C67.8126525,75.1171875 67.2140256,74.9384783 66.755039,74.5810547 C66.2960523,74.223631 66.0665624,73.7714871 66.0665624,73.2246094 L66.7696874,73.2246094 C66.7970313,73.6347677 66.9698811,73.9541004 67.2882421,74.1826172 C67.6066031,74.411134 68.0274973,74.5253906 68.5509374,74.5253906 C69.0392211,74.5253906 69.4337484,74.4179698 69.7345312,74.203125 C70.0353139,73.9882802 70.185703,73.7167985 70.185703,73.3886719 L70.185703,73.3886719 Z M81.9049218,75 C81.8346089,74.8007803 81.7896875,74.5058613 81.7701561,74.1152344 C81.5240612,74.4355485 81.2105877,74.6826163 80.8297265,74.8564453 C80.4488652,75.0302743 80.0455489,75.1171875 79.6197655,75.1171875 C79.0103875,75.1171875 78.5172283,74.9472673 78.1402733,74.6074219 C77.7633183,74.2675764 77.5748436,73.8378932 77.5748436,73.3183594 C77.5748436,72.7011688 77.831677,72.2128924 78.3453515,71.8535156 C78.8590259,71.4941388 79.5748391,71.3144531 80.4928124,71.3144531 L81.7642968,71.3144531 L81.7642968,70.59375 C81.7642968,70.1406227 81.6246497,69.784181 81.3453515,69.5244141 C81.0660532,69.2646471 80.6588307,69.1347656 80.1236718,69.1347656 C79.6353881,69.1347656 79.2310952,69.2597644 78.9107811,69.5097656 C78.590467,69.7597669 78.4303124,70.0605451 78.4303124,70.4121094 L77.7271874,70.40625 C77.7271874,69.9023412 77.9615601,69.4658222 78.4303124,69.0966797 C78.8990647,68.7275372 79.4752309,68.5429688 80.158828,68.5429688 C80.8658628,68.5429688 81.4234744,68.7197248 81.8316796,69.0732422 C82.2398847,69.4267596 82.4498436,69.9199187 82.4615624,70.5527344 L82.4615624,73.5527344 C82.4615624,74.1660187 82.5260149,74.6249985 82.6549218,74.9296875 L82.6549218,75 L81.9049218,75 Z M79.7017968,74.4960938 C80.1705491,74.4960938 80.5894902,74.3828136 80.9586327,74.15625 C81.3277752,73.9296864 81.5963272,73.626955 81.7642968,73.2480469 L81.7642968,71.8535156 L80.5103905,71.8535156 C79.8111683,71.8613282 79.2642987,71.9892566 78.8697655,72.2373047 C78.4752323,72.4853528 78.2779686,72.8261697 78.2779686,73.2597656 C78.2779686,73.6152362 78.4098033,73.9101551 78.6734765,74.1445312 C78.9371497,74.3789074 79.2799197,74.4960938 79.7017968,74.4960938 L79.7017968,74.4960938 Z M92.6983593,69.2578125 C92.549921,69.2304686 92.3917195,69.2167969 92.2237499,69.2167969 C91.7862477,69.2167969 91.4161342,69.338866 91.1133983,69.5830078 C90.8106624,69.8271497 90.5948443,70.1816383 90.4659374,70.6464844 L90.4659374,75 L89.7686718,75 L89.7686718,68.6601562 L90.4542186,68.6601562 L90.4659374,69.6679688 C90.837033,68.917965 91.4327301,68.5429688 92.2530468,68.5429688 C92.4483602,68.5429688 92.6026556,68.5683591 92.7159374,68.6191406 L92.6983593,69.2578125 Z M97.4095311,75.1171875 C96.8704659,75.1171875 96.3831661,74.9843763 95.9476171,74.71875 C95.512068,74.4531237 95.1732042,74.0830102 94.9310155,73.6083984 C94.6888268,73.1337867 94.5677342,72.6015654 94.5677342,72.0117188 L94.5677342,71.7597656 C94.5677342,71.1503876 94.6858971,70.6015649 94.9222264,70.1132812 C95.1585557,69.6249976 95.487654,69.2412123 95.9095311,68.9619141 C96.3314082,68.6826158 96.7884349,68.5429688 97.2806249,68.5429688 C98.05016,68.5429688 98.6605054,68.8056614 99.1116796,69.3310547 C99.5628537,69.8564479 99.7884374,70.5742142 99.7884374,71.484375 L99.7884374,71.8769531 L95.2649999,71.8769531 L95.2649999,72.0117188 C95.2649999,72.7304723 95.4710525,73.3290992 95.8831639,73.8076172 C96.2952754,74.2861352 96.8138249,74.5253906 97.438828,74.5253906 C97.8138299,74.5253906 98.1448812,74.4570319 98.4319921,74.3203125 C98.7191029,74.1835931 98.9798424,73.9648453 99.2142186,73.6640625 L99.6536717,73.9980469 C99.1380442,74.7441444 98.3900048,75.1171875 97.4095311,75.1171875 L97.4095311,75.1171875 Z M97.2806249,69.140625 C96.7532785,69.140625 96.308947,69.3339824 95.9476171,69.7207031 C95.5862871,70.1074238 95.3665628,70.6269499 95.2884374,71.2792969 L99.0911717,71.2792969 L99.0911717,71.203125 C99.0716404,70.593747 98.897814,70.0976582 98.5696874,69.7148438 C98.2415607,69.3320293 97.8118775,69.140625 97.2806249,69.140625 L97.2806249,69.140625 Z M106.415625,75 C106.345312,74.8007803 106.300391,74.5058613 106.280859,74.1152344 C106.034764,74.4355485 105.721291,74.6826163 105.34043,74.8564453 C104.959568,75.0302743 104.556252,75.1171875 104.130469,75.1171875 C103.521091,75.1171875 103.027931,74.9472673 102.650976,74.6074219 C102.274021,74.2675764 102.085547,73.8378932 102.085547,73.3183594 C102.085547,72.7011688 102.34238,72.2128924 102.856055,71.8535156 C103.369729,71.4941388 104.085542,71.3144531 105.003515,71.3144531 L106.275,71.3144531 L106.275,70.59375 C106.275,70.1406227 106.135353,69.784181 105.856055,69.5244141 C105.576756,69.2646471 105.169534,69.1347656 104.634375,69.1347656 C104.146091,69.1347656 103.741798,69.2597644 103.421484,69.5097656 C103.10117,69.7597669 102.941015,70.0605451 102.941015,70.4121094 L102.23789,70.40625 C102.23789,69.9023412 102.472263,69.4658222 102.941015,69.0966797 C103.409768,68.7275372 103.985934,68.5429688 104.669531,68.5429688 C105.376566,68.5429688 105.934178,68.7197248 106.342383,69.0732422 C106.750588,69.4267596 106.960547,69.9199187 106.972265,70.5527344 L106.972265,73.5527344 C106.972265,74.1660187 107.036718,74.6249985 107.165625,74.9296875 L107.165625,75 L106.415625,75 Z M104.2125,74.4960938 C104.681252,74.4960938 105.100193,74.3828136 105.469336,74.15625 C105.838478,73.9296864 106.10703,73.626955 106.275,73.2480469 L106.275,71.8535156 L105.021094,71.8535156 C104.321871,71.8613282 103.775002,71.9892566 103.380469,72.2373047 C102.985935,72.4853528 102.788672,72.8261697 102.788672,73.2597656 C102.788672,73.6152362 102.920506,73.9101551 103.18418,74.1445312 C103.447853,74.3789074 103.790623,74.4960938 104.2125,74.4960938 L104.2125,74.4960938 Z M110.886562,75 L110.183437,75 L110.183437,66 L110.886562,66 L110.886562,75 Z M114.836015,75 L114.13289,75 L114.13289,68.6601562 L114.836015,68.6601562 L114.836015,75 Z M114.009844,66.8261719 C114.009844,66.6933587 114.052812,66.5810551 114.13875,66.4892578 C114.224688,66.3974605 114.341874,66.3515625 114.490312,66.3515625 C114.638751,66.3515625 114.756913,66.3974605 114.844805,66.4892578 C114.932696,66.5810551 114.97664,66.6933587 114.97664,66.8261719 C114.97664,66.958985 114.932696,67.0703121 114.844805,67.1601562 C114.756913,67.2500004 114.638751,67.2949219 114.490312,67.2949219 C114.341874,67.2949219 114.224688,67.2500004 114.13875,67.1601562 C114.052812,67.0703121 114.009844,66.958985 114.009844,66.8261719 L114.009844,66.8261719 Z M119.090156,67.0371094 L119.090156,68.6601562 L120.402656,68.6601562 L120.402656,69.234375 L119.090156,69.234375 L119.090156,73.4589844 C119.090156,73.8105486 119.153632,74.0722648 119.280586,74.2441406 C119.40754,74.4160165 119.619451,74.5019531 119.916328,74.5019531 C120.033516,74.5019531 120.222967,74.4824221 120.484687,74.4433594 L120.513984,75.0175781 C120.33039,75.0839847 120.080392,75.1171875 119.763984,75.1171875 C119.283513,75.1171875 118.933907,74.9775405 118.715156,74.6982422 C118.496405,74.4189439 118.387031,74.0078152 118.387031,73.4648438 L118.387031,69.234375 L117.221015,69.234375 L117.221015,68.6601562 L118.387031,68.6601562 L118.387031,67.0371094 L119.090156,67.0371094 Z M125.125547,73.9921875 L126.977109,68.6601562 L127.732969,68.6601562 L125.025937,76.078125 L124.885312,76.40625 C124.537654,77.1757851 124.00055,77.5605469 123.273984,77.5605469 C123.106015,77.5605469 122.926329,77.5332034 122.734922,77.4785156 L122.729062,76.8984375 L123.092344,76.9335938 C123.436095,76.9335938 123.714413,76.8486337 123.927305,76.6787109 C124.140196,76.5087882 124.320858,76.2167989 124.469297,75.8027344 L124.779844,74.9472656 L122.389219,68.6601562 L123.156797,68.6601562 L125.125547,73.9921875 Z M129.385547,74.578125 C129.385547,74.4414056 129.429492,74.3251958 129.517383,74.2294922 C129.605274,74.1337886 129.727343,74.0859375 129.883594,74.0859375 C130.039844,74.0859375 130.16289,74.1337886 130.252734,74.2294922 C130.342578,74.3251958 130.3875,74.4414056 130.3875,74.578125 C130.3875,74.7148444 130.342578,74.827148 130.252734,74.9150391 C130.16289,75.0029301 130.039844,75.046875 129.883594,75.046875 C129.727343,75.046875 129.605274,75.0029301 129.517383,74.9150391 C129.429492,74.827148 129.385547,74.7148444 129.385547,74.578125 L129.385547,74.578125 Z" id="Differents-roads-but"></path>
            </g>
        </g>
    </g>
</svg>