<?xml version="1.0" encoding="UTF-8"?>
<svg width="40px" height="12px" viewBox="0 0 40 12" version="1.1" xmlns="http://www.w3.org/2000/svg" xmlns:xlink="http://www.w3.org/1999/xlink">
    <!-- Generator: Sketch 41.2 (35397) - http://www.bohemiancoding.com/sketch -->
    <title>El Cap</title>
    <desc>Created with Sketch.</desc>
    <defs></defs>
    <g id="Page-1" stroke="none" stroke-width="1" fill="none" fill-rule="evenodd">
        <g id="Desktop-HD-Copy" transform="translate(-1158.000000, -417.000000)" fill="#FFFFFF">
            <path d="M1162.78906,421.910156 L1158.79883,421.910156 L1158.79883,425.390625 L1163.38672,425.390625 L1163.38672,426 L1158.07812,426 L1158.07812,417.46875 L1163.35742,417.46875 L1163.35742,418.083984 L1158.79883,418.083984 L1158.79883,421.300781 L1162.78906,421.300781 L1162.78906,421.910156 Z M1167.04253,426 L1166.33941,426 L1166.33941,417 L1167.04253,417 L1167.04253,426 Z M1181.10416,423.339844 C1181.00651,424.238286 1180.68522,424.925779 1180.1403,425.402344 C1179.59537,425.878909 1178.86979,426.117188 1177.96354,426.117188 C1177.33072,426.117188 1176.77116,425.958986 1176.28483,425.642578 C1175.7985,425.32617 1175.42252,424.877933 1175.1569,424.297852 C1174.89127,423.717771 1174.75651,423.054691 1174.7526,422.308594 L1174.7526,421.201172 C1174.7526,420.443356 1174.88541,419.771487 1175.15104,419.185547 C1175.41666,418.599606 1175.7985,418.147463 1176.29655,417.829102 C1176.79459,417.510741 1177.36783,417.351562 1178.01627,417.351562 C1178.93034,417.351562 1179.65201,417.59863 1180.18131,418.092773 C1180.71061,418.586917 1181.01822,419.269527 1181.10416,420.140625 L1180.3776,420.140625 C1180.19791,418.691399 1179.41081,417.966797 1178.01627,417.966797 C1177.24283,417.966797 1176.62663,418.255856 1176.16764,418.833984 C1175.70865,419.412112 1175.47916,420.210932 1175.47916,421.230469 L1175.47916,422.273438 C1175.47916,423.257817 1175.70279,424.042966 1176.15006,424.628906 C1176.59733,425.214847 1177.20182,425.507812 1177.96354,425.507812 C1178.71745,425.507812 1179.2858,425.32715 1179.66862,424.96582 C1180.05143,424.60449 1180.28776,424.062504 1180.3776,423.339844 L1181.10416,423.339844 Z M1188.21115,426 C1188.14084,425.80078 1188.09591,425.505861 1188.07638,425.115234 C1187.83029,425.435548 1187.51682,425.682616 1187.13595,425.856445 C1186.75509,426.030274 1186.35178,426.117188 1185.92599,426.117188 C1185.31661,426.117188 1184.82346,425.947267 1184.4465,425.607422 C1184.06955,425.267576 1183.88107,424.837893 1183.88107,424.318359 C1183.88107,423.701169 1184.1379,423.212892 1184.65158,422.853516 C1185.16525,422.494139 1185.88107,422.314453 1186.79904,422.314453 L1188.07052,422.314453 L1188.07052,421.59375 C1188.07052,421.140623 1187.93088,420.784181 1187.65158,420.524414 C1187.37228,420.264647 1186.96506,420.134766 1186.4299,420.134766 C1185.94162,420.134766 1185.53732,420.259764 1185.21701,420.509766 C1184.89669,420.759767 1184.73654,421.060545 1184.73654,421.412109 L1184.03341,421.40625 C1184.03341,420.902341 1184.26779,420.465822 1184.73654,420.09668 C1185.20529,419.727537 1185.78146,419.542969 1186.46506,419.542969 C1187.17209,419.542969 1187.7297,419.719725 1188.13791,420.073242 C1188.54611,420.42676 1188.75607,420.919919 1188.76779,421.552734 L1188.76779,424.552734 C1188.76779,425.166019 1188.83224,425.624998 1188.96115,425.929688 L1188.96115,426 L1188.21115,426 Z M1186.00802,425.496094 C1186.47678,425.496094 1186.89572,425.382814 1187.26486,425.15625 C1187.634,424.929686 1187.90255,424.626955 1188.07052,424.248047 L1188.07052,422.853516 L1186.81662,422.853516 C1186.1174,422.861328 1185.57053,422.989257 1185.17599,423.237305 C1184.78146,423.485353 1184.5842,423.82617 1184.5842,424.259766 C1184.5842,424.615236 1184.71603,424.910155 1184.9797,425.144531 C1185.24338,425.378907 1185.58615,425.496094 1186.00802,425.496094 Z M1197.25173,422.894531 C1197.25173,423.882817 1197.03298,424.666989 1196.59548,425.24707 C1196.15798,425.827151 1195.57205,426.117188 1194.83767,426.117188 C1193.97048,426.117188 1193.30642,425.812503 1192.84548,425.203125 L1192.84548,428.4375 L1192.14821,428.4375 L1192.14821,419.660156 L1192.7986,419.660156 L1192.83376,420.556641 C1193.29079,419.880856 1193.9529,419.542969 1194.82009,419.542969 C1195.57791,419.542969 1196.17263,419.830075 1196.60427,420.404297 C1197.03591,420.978518 1197.25173,421.775386 1197.25173,422.794922 L1197.25173,422.894531 Z M1196.5486,422.771484 C1196.5486,421.962887 1196.38259,421.324221 1196.05056,420.855469 C1195.71852,420.386716 1195.25564,420.152344 1194.66189,420.152344 C1194.2322,420.152344 1193.86306,420.255858 1193.55446,420.462891 C1193.24587,420.669923 1193.00954,420.970701 1192.84548,421.365234 L1192.84548,424.40625 C1193.01345,424.769533 1193.25368,425.046874 1193.56618,425.238281 C1193.87868,425.429688 1194.24782,425.525391 1194.6736,425.525391 C1195.26345,425.525391 1195.72341,425.290041 1196.05349,424.819336 C1196.38357,424.34863 1196.5486,423.66602 1196.5486,422.771484 Z" id="El-Cap"></path>
        </g>
    </g>
</svg>