<?xml version="1.0" encoding="UTF-8"?>
<svg width="52px" height="12px" viewBox="0 0 52 12" version="1.1" xmlns="http://www.w3.org/2000/svg" xmlns:xlink="http://www.w3.org/1999/xlink">
    <!-- Generator: Sketch 41.2 (35397) - http://www.bohemiancoding.com/sketch -->
    <title>Highline</title>
    <desc>Created with Sketch.</desc>
    <defs></defs>
    <g id="Page-1" stroke="none" stroke-width="1" fill="none" fill-rule="evenodd">
        <g id="Desktop-HD" transform="translate(-108.000000, -892.000000)" fill="#FFFFFF">
            <path d="M114.400391,901 L113.673828,901 L113.673828,896.910156 L108.798828,896.910156 L108.798828,901 L108.078125,901 L108.078125,892.46875 L108.798828,892.46875 L108.798828,896.300781 L113.673828,896.300781 L113.673828,892.46875 L114.400391,892.46875 L114.400391,901 Z M118.706596,901 L118.003471,901 L118.003471,894.660156 L118.706596,894.660156 L118.706596,901 Z M117.880424,892.826172 C117.880424,892.693359 117.923392,892.581055 118.00933,892.489258 C118.095268,892.39746 118.212455,892.351562 118.360893,892.351562 C118.509331,892.351562 118.627494,892.39746 118.715385,892.489258 C118.803276,892.581055 118.847221,892.693359 118.847221,892.826172 C118.847221,892.958985 118.803276,893.070312 118.715385,893.160156 C118.627494,893.25 118.509331,893.294922 118.360893,893.294922 C118.212455,893.294922 118.095268,893.25 118.00933,893.160156 C117.923392,893.070312 117.880424,892.958985 117.880424,892.826172 Z M121.846786,897.771484 C121.846786,896.779292 122.06651,895.993167 122.505965,895.413086 C122.945421,894.833005 123.542094,894.542969 124.296004,894.542969 C125.15929,894.542969 125.815533,894.886715 126.264754,895.574219 L126.299911,894.660156 L126.956161,894.660156 L126.956161,900.871094 C126.956161,901.687504 126.727647,902.333982 126.270614,902.810547 C125.81358,903.287112 125.194446,903.525391 124.413192,903.525391 C123.971783,903.525391 123.550889,903.426759 123.150496,903.229492 C122.750104,903.032226 122.434677,902.769533 122.204207,902.441406 L122.596786,902.019531 C123.092882,902.628909 123.68272,902.933594 124.366317,902.933594 C124.952257,902.933594 125.409284,902.760744 125.737411,902.415039 C126.065537,902.069334 126.235457,901.589847 126.247176,900.976562 L126.247176,900.179688 C125.797955,900.804691 125.143665,901.117188 124.284286,901.117188 C123.549907,901.117188 122.960069,900.824222 122.514754,900.238281 C122.06944,899.652341 121.846786,898.861333 121.846786,897.865234 L121.846786,897.771484 Z M122.55577,897.894531 C122.55577,898.703129 122.717878,899.340818 123.042098,899.807617 C123.366318,900.274416 123.823345,900.507812 124.413192,900.507812 C125.276477,900.507812 125.887799,900.121098 126.247176,899.347656 L126.247176,896.400391 C126.083113,895.994139 125.846787,895.684571 125.538192,895.47168 C125.229597,895.258788 124.858506,895.152344 124.424911,895.152344 C123.835064,895.152344 123.376084,895.383787 123.047957,895.84668 C122.719831,896.309573 122.55577,896.992183 122.55577,897.894531 Z M130.998694,895.732422 C131.229164,895.353514 131.524083,895.060548 131.88346,894.853516 C132.242836,894.646483 132.635411,894.542969 133.061194,894.542969 C133.740885,894.542969 134.246739,894.734373 134.578772,895.117188 C134.910805,895.500002 135.078772,896.074215 135.082678,896.839844 L135.082678,901 L134.385413,901 L134.385413,896.833984 C134.381506,896.267575 134.26139,895.845705 134.025061,895.568359 C133.788732,895.291014 133.410806,895.152344 132.891272,895.152344 C132.457676,895.152344 132.073891,895.288085 131.739905,895.55957 C131.405919,895.831056 131.158851,896.197263 130.998694,896.658203 L130.998694,901 L130.301428,901 L130.301428,892 L130.998694,892 L130.998694,895.732422 Z M139.189665,901 L138.48654,901 L138.48654,892 L139.189665,892 L139.189665,901 Z M143.396261,901 L142.693136,901 L142.693136,894.660156 L143.396261,894.660156 L143.396261,901 Z M142.570089,892.826172 C142.570089,892.693359 142.613057,892.581055 142.698995,892.489258 C142.784933,892.39746 142.902119,892.351562 143.050558,892.351562 C143.198996,892.351562 143.317159,892.39746 143.40505,892.489258 C143.492941,892.581055 143.536886,892.693359 143.536886,892.826172 C143.536886,892.958985 143.492941,893.070312 143.40505,893.160156 C143.317159,893.25 143.198996,893.294922 143.050558,893.294922 C142.902119,893.294922 142.784933,893.25 142.698995,893.160156 C142.613057,893.070312 142.570089,892.958985 142.570089,892.826172 Z M147.485669,894.660156 L147.509107,895.744141 C147.747389,895.353514 148.044261,895.055665 148.399732,894.850586 C148.755202,894.645507 149.147776,894.542969 149.577466,894.542969 C150.257157,894.542969 150.763011,894.734373 151.095044,895.117188 C151.427077,895.500002 151.595044,896.074215 151.59895,896.839844 L151.59895,901 L150.901685,901 L150.901685,896.833984 C150.897778,896.267575 150.777663,895.845705 150.541333,895.568359 C150.305004,895.291014 149.927078,895.152344 149.407544,895.152344 C148.973948,895.152344 148.590163,895.288085 148.256177,895.55957 C147.922191,895.831056 147.675123,896.197263 147.514966,896.658203 L147.514966,901 L146.8177,901 L146.8177,894.660156 L147.485669,894.660156 Z M157.381718,901.117188 C156.842653,901.117188 156.355353,900.984376 155.919804,900.71875 C155.484255,900.453124 155.145391,900.08301 154.903203,899.608398 C154.661014,899.133787 154.539921,898.601565 154.539921,898.011719 L154.539921,897.759766 C154.539921,897.150388 154.658084,896.601565 154.894413,896.113281 C155.130743,895.624998 155.459841,895.241212 155.881718,894.961914 C156.303595,894.682616 156.760622,894.542969 157.252812,894.542969 C158.022347,894.542969 158.632692,894.805661 159.083867,895.331055 C159.535041,895.856448 159.760624,896.574214 159.760624,897.484375 L159.760624,897.876953 L155.237187,897.876953 L155.237187,898.011719 C155.237187,898.730472 155.44324,899.329099 155.855351,899.807617 C156.267462,900.286135 156.786012,900.525391 157.411015,900.525391 C157.786017,900.525391 158.117068,900.457032 158.404179,900.320312 C158.69129,900.183593 158.952029,899.964845 159.186406,899.664062 L159.625859,899.998047 C159.110231,900.744144 158.362192,901.117188 157.381718,901.117188 Z M157.252812,895.140625 C156.725466,895.140625 156.281134,895.333982 155.919804,895.720703 C155.558474,896.107424 155.33875,896.62695 155.260624,897.279297 L159.063359,897.279297 L159.063359,897.203125 C159.043827,896.593747 158.870001,896.097658 158.541874,895.714844 C158.213748,895.332029 157.784065,895.140625 157.252812,895.140625 Z" id="Highline"></path>
        </g>
    </g>
</svg>