<?xml version="1.0" encoding="UTF-8"?>
<svg width="73px" height="12px" viewBox="0 0 73 12" version="1.1" xmlns="http://www.w3.org/2000/svg" xmlns:xlink="http://www.w3.org/1999/xlink">
    <!-- Generator: Sketch 41.2 (35397) - http://www.bohemiancoding.com/sketch -->
    <title>Tioga Road</title>
    <desc>Created with Sketch.</desc>
    <defs></defs>
    <g id="Page-1" stroke="none" stroke-width="1" fill="none" fill-rule="evenodd">
        <g id="index-1-rast" transform="translate(-242.000000, -486.000000)" fill="#FFFFFF">
            <path d="M248.867188,487.083984 L245.943359,487.083984 L245.943359,495 L245.222656,495 L245.222656,487.083984 L242.304688,487.083984 L242.304688,486.46875 L248.867188,486.46875 L248.867188,487.083984 Z M252.382377,495 L251.679252,495 L251.679252,488.660156 L252.382377,488.660156 L252.382377,495 Z M251.556205,486.826172 C251.556205,486.693359 251.599174,486.581055 251.685112,486.489258 C251.771049,486.39746 251.888236,486.351562 252.036674,486.351562 C252.185112,486.351562 252.303275,486.39746 252.391166,486.489258 C252.479057,486.581055 252.523002,486.693359 252.523002,486.826172 C252.523002,486.958985 252.479057,487.070312 252.391166,487.160156 C252.303275,487.25 252.185112,487.294922 252.036674,487.294922 C251.888236,487.294922 251.771049,487.25 251.685112,487.160156 C251.599174,487.070312 251.556205,486.958985 251.556205,486.826172 Z M255.417098,491.736328 C255.417098,491.12695 255.535261,490.578127 255.77159,490.089844 C256.00792,489.60156 256.341901,489.221681 256.773543,488.950195 C257.205186,488.67871 257.694439,488.542969 258.241317,488.542969 C259.085071,488.542969 259.768658,488.838864 260.292098,489.430664 C260.815538,490.022464 261.077254,490.806636 261.077254,491.783203 L261.077254,491.929688 C261.077254,492.542972 260.959091,493.094724 260.722762,493.584961 C260.486433,494.075198 260.153428,494.453124 259.723739,494.71875 C259.294049,494.984376 258.80382,495.117188 258.253036,495.117188 C257.413188,495.117188 256.730577,494.821292 256.205184,494.229492 C255.679791,493.637692 255.417098,492.853521 255.417098,491.876953 L255.417098,491.736328 Z M256.120223,491.929688 C256.120223,492.687504 256.31651,493.309568 256.70909,493.795898 C257.10167,494.282229 257.616314,494.525391 258.253036,494.525391 C258.885851,494.525391 259.398541,494.282229 259.791121,493.795898 C260.183702,493.309568 260.379989,492.667973 260.379989,491.871094 L260.379989,491.736328 C260.379989,491.251951 260.290146,490.808596 260.110457,490.40625 C259.930769,490.003904 259.678818,489.692384 259.354598,489.47168 C259.030378,489.250975 258.659288,489.140625 258.241317,489.140625 C257.616314,489.140625 257.106553,489.38574 256.71202,489.875977 C256.317487,490.366213 256.120223,491.007809 256.120223,491.800781 L256.120223,491.929688 Z M263.760413,491.771484 C263.760413,490.779292 263.980137,489.993167 264.419592,489.413086 C264.859048,488.833005 265.455721,488.542969 266.209631,488.542969 C267.072917,488.542969 267.72916,488.886715 268.178381,489.574219 L268.213538,488.660156 L268.869788,488.660156 L268.869788,494.871094 C268.869788,495.687504 268.641274,496.333982 268.184241,496.810547 C267.727207,497.287112 267.108073,497.525391 266.326819,497.525391 C265.88541,497.525391 265.464516,497.426759 265.064124,497.229492 C264.663731,497.032226 264.348304,496.769533 264.117835,496.441406 L264.510413,496.019531 C265.006509,496.628909 265.596347,496.933594 266.279944,496.933594 C266.865884,496.933594 267.322911,496.760744 267.651038,496.415039 C267.979164,496.069334 268.149085,495.589847 268.160803,494.976562 L268.160803,494.179688 C267.711582,494.804691 267.057292,495.117188 266.197913,495.117188 C265.463534,495.117188 264.873696,494.824222 264.428381,494.238281 C263.983067,493.652341 263.760413,492.861333 263.760413,491.865234 L263.760413,491.771484 Z M264.469397,491.894531 C264.469397,492.703129 264.631505,493.340818 264.955725,493.807617 C265.279946,494.274416 265.736972,494.507812 266.326819,494.507812 C267.190105,494.507812 267.801427,494.121098 268.160803,493.347656 L268.160803,490.400391 C267.99674,489.994139 267.760414,489.684571 267.451819,489.47168 C267.143224,489.258788 266.772134,489.152344 266.338538,489.152344 C265.748691,489.152344 265.289711,489.383787 264.961585,489.84668 C264.633458,490.309573 264.469397,490.992183 264.469397,491.894531 Z M276.217009,495 C276.146696,494.80078 276.101774,494.505861 276.082243,494.115234 C275.836148,494.435548 275.522675,494.682616 275.141813,494.856445 C274.760952,495.030274 274.357636,495.117188 273.931852,495.117188 C273.322474,495.117188 272.829315,494.947267 272.45236,494.607422 C272.075405,494.267576 271.88693,493.837893 271.88693,493.318359 C271.88693,492.701169 272.143764,492.212892 272.657438,491.853516 C273.171113,491.494139 273.886926,491.314453 274.804899,491.314453 L276.076384,491.314453 L276.076384,490.59375 C276.076384,490.140623 275.936737,489.784181 275.657438,489.524414 C275.37814,489.264647 274.970918,489.134766 274.435759,489.134766 C273.947475,489.134766 273.543182,489.259764 273.222868,489.509766 C272.902554,489.759767 272.742399,490.060545 272.742399,490.412109 L272.039274,490.40625 C272.039274,489.902341 272.273647,489.465822 272.742399,489.09668 C273.211152,488.727537 273.787318,488.542969 274.470915,488.542969 C275.17795,488.542969 275.735561,488.719725 276.143766,489.073242 C276.551972,489.42676 276.76193,489.919919 276.773649,490.552734 L276.773649,493.552734 C276.773649,494.166019 276.838102,494.624998 276.967009,494.929688 L276.967009,495 L276.217009,495 Z M274.013884,494.496094 C274.482636,494.496094 274.901577,494.382814 275.27072,494.15625 C275.639862,493.929686 275.908414,493.626955 276.076384,493.248047 L276.076384,491.853516 L274.822477,491.853516 C274.123255,491.861328 273.576386,491.989257 273.181852,492.237305 C272.787319,492.485353 272.590055,492.82617 272.590055,493.259766 C272.590055,493.615236 272.72189,493.910155 272.985563,494.144531 C273.249236,494.378907 273.592006,494.496094 274.013884,494.496094 Z M287.946607,491.449219 L285.468091,491.449219 L285.468091,495 L284.741529,495 L284.741529,486.46875 L287.513013,486.46875 C288.423174,486.46875 289.134104,486.689451 289.645825,487.130859 C290.157547,487.572268 290.413404,488.189449 290.413404,488.982422 C290.413404,489.5293 290.253249,490.011717 289.932935,490.429688 C289.612621,490.847658 289.182937,491.136718 288.643872,491.296875 L290.776685,494.923828 L290.776685,495 L290.009107,495 L287.946607,491.449219 Z M285.468091,490.833984 L287.677075,490.833984 C288.282547,490.833984 288.76887,490.662111 289.13606,490.318359 C289.503249,489.974608 289.686841,489.5293 289.686841,488.982422 C289.686841,488.380856 289.495437,487.914064 289.112622,487.582031 C288.729808,487.249998 288.192704,487.083984 287.501294,487.083984 L285.468091,487.083984 L285.468091,490.833984 Z M293.342656,491.736328 C293.342656,491.12695 293.460819,490.578127 293.697148,490.089844 C293.933477,489.60156 294.267458,489.221681 294.699101,488.950195 C295.130744,488.67871 295.619997,488.542969 296.166874,488.542969 C297.010629,488.542969 297.694216,488.838864 298.217656,489.430664 C298.741096,490.022464 299.002812,490.806636 299.002812,491.783203 L299.002812,491.929688 C299.002812,492.542972 298.884649,493.094724 298.64832,493.584961 C298.41199,494.075198 298.078986,494.453124 297.649296,494.71875 C297.219607,494.984376 296.729377,495.117188 296.178593,495.117188 C295.338745,495.117188 294.656135,494.821292 294.130742,494.229492 C293.605348,493.637692 293.342656,492.853521 293.342656,491.876953 L293.342656,491.736328 Z M294.045781,491.929688 C294.045781,492.687504 294.242068,493.309568 294.634648,493.795898 C295.027228,494.282229 295.541871,494.525391 296.178593,494.525391 C296.811409,494.525391 297.324099,494.282229 297.716679,493.795898 C298.109259,493.309568 298.305546,492.667973 298.305546,491.871094 L298.305546,491.736328 C298.305546,491.251951 298.215703,490.808596 298.036015,490.40625 C297.856327,490.003904 297.604376,489.692384 297.280156,489.47168 C296.955935,489.250975 296.584845,489.140625 296.166874,489.140625 C295.541871,489.140625 295.032111,489.38574 294.637578,489.875977 C294.243044,490.366213 294.045781,491.007809 294.045781,491.800781 L294.045781,491.929688 Z M305.969173,495 C305.898861,494.80078 305.853939,494.505861 305.834408,494.115234 C305.588313,494.435548 305.274839,494.682616 304.893978,494.856445 C304.513117,495.030274 304.109801,495.117188 303.684017,495.117188 C303.074639,495.117188 302.58148,494.947267 302.204525,494.607422 C301.82757,494.267576 301.639095,493.837893 301.639095,493.318359 C301.639095,492.701169 301.895929,492.212892 302.409603,491.853516 C302.923278,491.494139 303.639091,491.314453 304.557064,491.314453 L305.828548,491.314453 L305.828548,490.59375 C305.828548,490.140623 305.688901,489.784181 305.409603,489.524414 C305.130305,489.264647 304.723082,489.134766 304.187923,489.134766 C303.69964,489.134766 303.295347,489.259764 302.975033,489.509766 C302.654719,489.759767 302.494564,490.060545 302.494564,490.412109 L301.791439,490.40625 C301.791439,489.902341 302.025812,489.465822 302.494564,489.09668 C302.963316,488.727537 303.539483,488.542969 304.22308,488.542969 C304.930114,488.542969 305.487726,488.719725 305.895931,489.073242 C306.304136,489.42676 306.514095,489.919919 306.525814,490.552734 L306.525814,493.552734 C306.525814,494.166019 306.590267,494.624998 306.719173,494.929688 L306.719173,495 L305.969173,495 Z M303.766048,494.496094 C304.234801,494.496094 304.653742,494.382814 305.022884,494.15625 C305.392027,493.929686 305.660579,493.626955 305.828548,493.248047 L305.828548,491.853516 L304.574642,491.853516 C303.87542,491.861328 303.32855,491.989257 302.934017,492.237305 C302.539484,492.485353 302.34222,492.82617 302.34222,493.259766 C302.34222,493.615236 302.474055,493.910155 302.737728,494.144531 C303.001401,494.378907 303.344171,494.496094 303.766048,494.496094 Z M309.630847,491.771484 C309.630847,490.787104 309.850572,490.002933 310.290027,489.418945 C310.729482,488.834958 311.326156,488.542969 312.080066,488.542969 C312.935539,488.542969 313.587876,488.880856 314.037097,489.556641 L314.037097,486 L314.734363,486 L314.734363,495 L314.078113,495 L314.048816,494.15625 C313.599595,494.796878 312.939446,495.117188 312.068347,495.117188 C311.337875,495.117188 310.749014,494.823245 310.301746,494.235352 C309.854478,493.647458 309.630847,492.853521 309.630847,491.853516 L309.630847,491.771484 Z M310.339832,491.894531 C310.339832,492.703129 310.50194,493.340818 310.82616,493.807617 C311.15038,494.274416 311.607407,494.507812 312.197254,494.507812 C313.060539,494.507812 313.673814,494.126957 314.037097,493.365234 L314.037097,490.388672 C313.673814,489.564449 313.064445,489.152344 312.208972,489.152344 C311.619126,489.152344 311.160146,489.383787 310.832019,489.84668 C310.503893,490.309573 310.339832,490.992183 310.339832,491.894531 Z" id="Tioga-Road"></path>
        </g>
    </g>
</svg>