<?xml version="1.0" encoding="UTF-8"?>
<svg width="207px" height="76px" viewBox="0 0 207 76" version="1.1" xmlns="http://www.w3.org/2000/svg" xmlns:xlink="http://www.w3.org/1999/xlink">
    <!-- Generator: Sketch 41.2 (35397) - http://www.bohemiancoding.com/sketch -->
    <title>Group</title>
    <desc>Created with Sketch.</desc>
    <defs></defs>
    <g id="Page-1" stroke="none" stroke-width="1" fill="none" fill-rule="evenodd">
        <g id="Desktop-HD" transform="translate(-318.000000, -55.000000)" fill="#000000">
            <g id="Group" transform="translate(318.000000, 55.000000)">
                <path d="M8.03222656,2.12695312 L4.83300781,2.12695312 L4.83300781,11 L3.52734375,11 L3.52734375,2.12695312 L0.334960938,2.12695312 L0.334960938,1.046875 L8.03222656,1.046875 L8.03222656,2.12695312 Z M12.2569922,11 L10.9444922,11 L10.9444922,1.046875 L12.2569922,1.046875 L12.2569922,11 Z M23.6526563,6.34472656 C23.6526563,7.31999186 23.4885955,8.17105756 23.1604688,8.89794922 C22.8323422,9.62484087 22.3675031,10.1796856 21.7659376,10.5625 C21.1643721,10.9453144 20.4625562,11.1367188 19.6604688,11.1367188 C18.8766107,11.1367188 18.1816307,10.9441751 17.5755079,10.559082 C16.9693851,10.173989 16.4988494,9.62484081 16.1638868,8.91162109 C15.8289242,8.19840138 15.6568881,7.37240053 15.6477735,6.43359375 L15.6477735,5.71582031 C15.6477735,4.75878428 15.814113,3.91341513 16.1467969,3.1796875 C16.4794809,2.44595987 16.9500166,1.88427929 17.558418,1.49462891 C18.1668195,1.10497852 18.8629389,0.91015625 19.6467969,0.91015625 C20.444327,0.91015625 21.1472822,1.1026999 21.7556837,1.48779297 C22.3640851,1.87288604 22.8323422,2.43114869 23.1604688,3.16259766 C23.4885955,3.89404663 23.6526563,4.74511233 23.6526563,5.71582031 L23.6526563,6.34472656 Z M22.3469923,5.70214844 C22.3469923,4.52180399 22.1100155,3.61605133 21.6360548,2.98486328 C21.1620941,2.35367523 20.4990147,2.03808594 19.6467969,2.03808594 C18.8173657,2.03808594 18.1645402,2.35367523 17.6883008,2.98486328 C17.2120615,3.61605133 16.9671095,4.49218189 16.9534376,5.61328125 L16.9534376,6.34472656 C16.9534376,7.48861249 17.1938323,8.38752928 17.674629,9.04150391 C18.1554256,9.69547853 18.8173656,10.0224609 19.6604688,10.0224609 C20.5081293,10.0224609 21.1643727,9.71370751 21.6292188,9.09619141 C22.0940649,8.4786753 22.3333203,7.59343024 22.3469923,6.44042969 L22.3469923,5.70214844 Z M34.3100392,9.69433594 C33.9727979,10.1774113 33.5022622,10.538573 32.8984181,10.777832 C32.2945739,11.017091 31.5916187,11.1367188 30.7895314,11.1367188 C29.9783294,11.1367188 29.2582845,10.9464537 28.6293751,10.565918 C28.0004657,10.1853822 27.5139797,9.64420924 27.1699024,8.94238281 C26.8258252,8.24055639 26.6492319,7.42708796 26.6401173,6.50195312 L26.6401173,5.63378906 C26.6401173,4.13443261 26.9898859,2.97233485 27.6894337,2.14746094 C28.3889815,1.32258702 29.3722073,0.91015625 30.6391407,0.91015625 C31.6782084,0.91015625 32.5144631,1.17561583 33.1479298,1.70654297 C33.7813965,2.2374701 34.1687624,2.99055502 34.3100392,3.96582031 L32.9975392,3.96582031 C32.7514442,2.64875644 31.9675979,1.99023438 30.6459767,1.99023438 C29.766415,1.99023438 29.0999177,2.2989878 28.6464649,2.91650391 C28.1930122,3.53402001 27.9640105,4.42837956 27.9594532,5.59960938 L27.9594532,6.41308594 C27.9594532,7.52962798 28.214659,8.41715166 28.7250782,9.07568359 C29.2354974,9.73421553 29.9259202,10.0634766 30.7963673,10.0634766 C31.2885572,10.0634766 31.719217,10.0087896 32.0883595,9.89941406 C32.4575019,9.79003852 32.7628374,9.60547005 33.0043751,9.34570312 L33.0043751,7.11035156 L30.7006642,7.11035156 L30.7006642,6.04394531 L34.3100392,6.04394531 L34.3100392,9.69433594 Z M43.3336329,8.40234375 L39.1637111,8.40234375 L38.2271876,11 L36.873672,11 L40.6744533,1.046875 L41.8228908,1.046875 L45.6305079,11 L44.2838283,11 L43.3336329,8.40234375 Z M39.5601954,7.32226562 L42.9439845,7.32226562 L41.248672,2.66699219 L39.5601954,7.32226562 Z M56.7665627,6.97363281 L54.4286721,6.97363281 L54.4286721,11 L53.1093361,11 L53.1093361,1.046875 L56.404258,1.046875 C57.5253574,1.046875 58.3878162,1.30208078 58.9916604,1.8125 C59.5955045,2.32291922 59.8974221,3.06575033 59.8974221,4.04101562 C59.8974221,4.66081039 59.7299433,5.20084405 59.3949807,5.66113281 C59.0600181,6.12142157 58.5940396,6.46549365 57.9970315,6.69335938 L60.3349221,10.9179688 L60.3349221,11 L58.926719,11 L56.7665627,6.97363281 Z M54.4286721,5.90039062 L56.4452736,5.90039062 C57.0969696,5.90039062 57.6153563,5.73177252 58.0004494,5.39453125 C58.3855425,5.05728998 58.5780861,4.60612262 58.5780861,4.04101562 C58.5780861,3.42577817 58.394657,2.9541032 58.0277932,2.62597656 C57.6609294,2.29784992 57.1311495,2.13151044 56.4384377,2.12695312 L54.4286721,2.12695312 L54.4286721,5.90039062 Z M70.7325393,6.34472656 C70.7325393,7.31999186 70.5684784,8.17105756 70.2403518,8.89794922 C69.9122252,9.62484087 69.4473861,10.1796856 68.8458205,10.5625 C68.244255,10.9453144 67.5424391,11.1367188 66.7403518,11.1367188 C65.9564937,11.1367188 65.2615137,10.9441751 64.6553909,10.559082 C64.049268,10.173989 63.5787324,9.62484081 63.2437698,8.91162109 C62.9088072,8.19840138 62.7367711,7.37240053 62.7276565,6.43359375 L62.7276565,5.71582031 C62.7276565,4.75878428 62.893996,3.91341513 63.2266799,3.1796875 C63.5593639,2.44595987 64.0298995,1.88427929 64.638301,1.49462891 C65.2467025,1.10497852 65.9428218,0.91015625 66.7266799,0.91015625 C67.52421,0.91015625 68.2271652,1.1026999 68.8355666,1.48779297 C69.4439681,1.87288604 69.9122252,2.43114869 70.2403518,3.16259766 C70.5684784,3.89404663 70.7325393,4.74511233 70.7325393,5.71582031 L70.7325393,6.34472656 Z M69.4268752,5.70214844 C69.4268752,4.52180399 69.1898984,3.61605133 68.7159377,2.98486328 C68.241977,2.35367523 67.5788977,2.03808594 66.7266799,2.03808594 C65.8972487,2.03808594 65.2444232,2.35367523 64.7681838,2.98486328 C64.2919445,3.61605133 64.0469925,4.49218189 64.0333205,5.61328125 L64.0333205,6.34472656 C64.0333205,7.48861249 64.2737153,8.38752928 64.754512,9.04150391 C65.2353086,9.69547853 65.8972486,10.0224609 66.7403518,10.0224609 C67.5880123,10.0224609 68.2442557,9.71370751 68.7091018,9.09619141 C69.1739479,8.4786753 69.4132033,7.59343024 69.4268752,6.44042969 L69.4268752,5.70214844 Z M79.3938284,8.40234375 L75.2239065,8.40234375 L74.2873831,11 L72.9338675,11 L76.7346487,1.046875 L77.8830862,1.046875 L81.6907034,11 L80.3440237,11 L79.3938284,8.40234375 Z M75.6203909,7.32226562 L79.00418,7.32226562 L77.3088675,2.66699219 L75.6203909,7.32226562 Z M84.3705472,11 L84.3705472,1.046875 L87.1801175,1.046875 C88.0460072,1.046875 88.8116246,1.23827934 89.4769925,1.62109375 C90.1423604,2.00390816 90.6561899,2.54849907 91.0184964,3.25488281 C91.3808029,3.96126655 91.564232,4.77245636 91.5687894,5.68847656 L91.5687894,6.32421875 C91.5687894,7.26302553 91.3876388,8.08560845 91.0253323,8.79199219 C90.6630258,9.49837593 90.1457784,10.0406882 89.4735745,10.4189453 C88.8013706,10.7972024 88.0186636,10.9908854 87.12543,11 L84.3705472,11 Z M85.6830472,2.12695312 L85.6830472,9.92675781 L87.0639066,9.92675781 C88.0756304,9.92675781 88.8628946,9.61230783 89.425723,8.98339844 C89.9885513,8.35448904 90.2699612,7.45899019 90.2699612,6.296875 L90.2699612,5.71582031 C90.2699612,4.58560633 90.0045017,3.70719714 89.4735745,3.08056641 C88.9426474,2.45393567 88.1895625,2.13606775 87.2142972,2.12695312 L85.6830472,2.12695312 Z" id="TIOGA-ROAD"></path>
                <polygon id="X" points="202.402344 6.86132812 204.788086 3.046875 206.333008 3.046875 203.188477 7.98242188 206.408203 13 204.849609 13 202.402344 9.1171875 199.941406 13 198.389648 13 201.616211 7.98242188 198.464844 3.046875 200.00293 3.046875"></polygon>
                <path d="M5.1796875,39.0507812 C4.92968625,39.4179706 4.61914248,39.7021474 4.24804688,39.9033203 C3.87695127,40.1044932 3.47461154,40.2050781 3.04101562,40.2050781 C2.5566382,40.2050781 2.12890811,40.0800794 1.7578125,39.8300781 C1.38671689,39.5800769 1.09961039,39.2343772 0.896484375,38.7929688 C0.693358359,38.3515603 0.591796875,37.8691432 0.591796875,37.3457031 C0.591796875,36.7832003 0.700194229,36.2714867 0.916992188,35.8105469 C1.13379015,35.3496071 1.43652149,34.9912122 1.82519531,34.7353516 C2.21386913,34.4794909 2.66210684,34.3515625 3.16992188,34.3515625 C4.0253949,34.3515625 4.69140387,34.6513642 5.16796875,35.2509766 C5.64453363,35.8505889 5.8828125,36.7011664 5.8828125,37.8027344 L5.8828125,38.4355469 C5.8828125,39.9746171 5.55469078,41.1308555 4.8984375,41.9042969 C4.24218422,42.6777382 3.24024111,43.0644531 1.89257812,43.0644531 L1.76367188,43.0644531 L1.76953125,42.4550781 L2.015625,42.4550781 C3.03516135,42.439453 3.81054422,42.1503934 4.34179688,41.5878906 C4.87304953,41.0253878 5.15234361,40.1796931 5.1796875,39.0507812 L5.1796875,39.0507812 Z M3.12890625,39.6015625 C3.59765859,39.6015625 4.01855282,39.4619155 4.39160156,39.1826172 C4.7646503,38.9033189 5.02929609,38.5410179 5.18554688,38.0957031 L5.18554688,37.6914062 C5.18554688,36.8242144 5.00488462,36.1513696 4.64355469,35.6728516 C4.28222476,35.1943335 3.79492494,34.9550781 3.18164062,34.9550781 C2.62695035,34.9550781 2.17187678,35.1787087 1.81640625,35.6259766 C1.46093572,36.0732444 1.28320313,36.6367154 1.28320313,37.3164062 C1.28320313,37.9687533 1.45409985,38.5126931 1.79589844,38.9482422 C2.13769702,39.3837912 2.58202852,39.6015625 3.12890625,39.6015625 L3.12890625,39.6015625 Z M8.67796874,44.59375 L8.26195312,44.2890625 C8.61742364,43.8124976 8.80101556,43.3183619 8.81273437,42.8066406 L8.81273437,41.8984375 L9.49828124,41.8984375 L9.49828124,42.6308594 C9.49828124,43.4433634 9.22484647,44.0976538 8.67796874,44.59375 L8.67796874,44.59375 Z M16.6469531,39.0507812 C16.3969519,39.4179706 16.0864081,39.7021474 15.7153125,39.9033203 C15.3442169,40.1044932 14.9418771,40.2050781 14.5082812,40.2050781 C14.0239038,40.2050781 13.5961737,40.0800794 13.2250781,39.8300781 C12.8539825,39.5800769 12.566876,39.2343772 12.36375,38.7929688 C12.160624,38.3515603 12.0590625,37.8691432 12.0590625,37.3457031 C12.0590625,36.7832003 12.1674598,36.2714867 12.3842578,35.8105469 C12.6010558,35.3496071 12.9037871,34.9912122 13.2924609,34.7353516 C13.6811347,34.4794909 14.1293724,34.3515625 14.6371875,34.3515625 C15.4926605,34.3515625 16.1586695,34.6513642 16.6352344,35.2509766 C17.1117992,35.8505889 17.3500781,36.7011664 17.3500781,37.8027344 L17.3500781,38.4355469 C17.3500781,39.9746171 17.0219564,41.1308555 16.3657031,41.9042969 C15.7094498,42.6777382 14.7075067,43.0644531 13.3598437,43.0644531 L13.2309375,43.0644531 L13.2367969,42.4550781 L13.4828906,42.4550781 C14.502427,42.439453 15.2778098,42.1503934 15.8090625,41.5878906 C16.3403151,41.0253878 16.6196092,40.1796931 16.6469531,39.0507812 L16.6469531,39.0507812 Z M14.5961719,39.6015625 C15.0649242,39.6015625 15.4858184,39.4619155 15.8588672,39.1826172 C16.2319159,38.9033189 16.4965617,38.5410179 16.6528125,38.0957031 L16.6528125,37.6914062 C16.6528125,36.8242144 16.4721502,36.1513696 16.1108203,35.6728516 C15.7494904,35.1943335 15.2621905,34.9550781 14.6489062,34.9550781 C14.094216,34.9550781 13.6391424,35.1787087 13.2836719,35.6259766 C12.9282013,36.0732444 12.7504687,36.6367154 12.7504687,37.3164062 C12.7504687,37.9687533 12.9213655,38.5126931 13.263164,38.9482422 C13.6049626,39.3837912 14.0492941,39.6015625 14.5961719,39.6015625 L14.5961719,39.6015625 Z M24.4870312,40.2519531 L25.8171093,40.2519531 L25.8171093,40.84375 L24.4870312,40.84375 L24.4870312,43 L23.7839062,43 L23.7839062,40.84375 L19.7702343,40.84375 L19.7702343,40.4453125 L23.7194531,34.46875 L24.4870312,34.46875 L24.4870312,40.2519531 Z M20.6315625,40.2519531 L23.7839062,40.2519531 L23.7839062,35.3769531 L23.4733593,35.9160156 L20.6315625,40.2519531 Z M29.649375,38.3535156 L30.3759375,38.3535156 C30.7782832,38.3535156 31.1298422,38.2822273 31.430625,38.1396484 C31.7314077,37.9970696 31.9608976,37.8017591 32.1191015,37.5537109 C32.2773054,37.3056628 32.3564062,37.0195329 32.3564062,36.6953125 C32.3564062,36.1484348 32.2021109,35.7207047 31.8935156,35.4121094 C31.5849203,35.1035141 31.1415654,34.9492188 30.5634375,34.9492188 C30.0165597,34.9492188 29.568322,35.11035 29.2187109,35.4326172 C28.8690998,35.7548844 28.6942968,36.1796849 28.6942968,36.7070312 L27.9911718,36.7070312 C27.9911718,36.2656228 28.1024988,35.8623065 28.3251562,35.4970703 C28.5478136,35.1318341 28.8564042,34.8496104 29.2509375,34.6503906 C29.6454707,34.4511709 30.0829663,34.3515625 30.5634375,34.3515625 C31.3368788,34.3515625 31.9462477,34.5624979 32.3915625,34.984375 C32.8368772,35.4062521 33.0595312,35.9843713 33.0595312,36.71875 C33.0595312,37.1289083 32.9296497,37.5068342 32.6698828,37.8525391 C32.4101159,38.1982439 32.0536741,38.4570304 31.6005468,38.6289062 C32.1317995,38.7773445 32.5341392,39.0322248 32.8075781,39.3935547 C33.081017,39.7548846 33.2177343,40.1855444 33.2177343,40.6855469 C33.2177343,41.4160193 32.9794555,42.003904 32.5028906,42.4492188 C32.0263257,42.8945335 31.3896133,43.1171875 30.5927343,43.1171875 C30.0849193,43.1171875 29.6191036,43.015626 29.1952734,42.8125 C28.7714432,42.609374 28.4433214,42.3251971 28.2108984,41.9599609 C27.9784754,41.5947247 27.8622656,41.1699243 27.8622656,40.6855469 L28.5653906,40.6855469 C28.5653906,41.2285183 28.7548418,41.6708967 29.13375,42.0126953 C29.5126581,42.3544939 29.9989814,42.5253906 30.5927343,42.5253906 C31.1982061,42.5253906 31.6698811,42.3701187 32.0077734,42.0595703 C32.3456657,41.7490219 32.5146093,41.2988311 32.5146093,40.7089844 C32.5146093,40.138669 32.331994,39.7031265 31.9667578,39.4023438 C31.6015216,39.101561 31.063441,38.9511719 30.3525,38.9511719 L29.649375,38.9511719 L29.649375,38.3535156 Z M41.0841016,43 L41.0841016,37.234375 L40.0352734,37.234375 L40.0352734,36.6601562 L41.0841016,36.6601562 L41.0841016,35.8925781 C41.0841016,35.2441374 41.249139,34.7460955 41.5792187,34.3984375 C41.9092985,34.0507795 42.3692549,33.8769531 42.9591016,33.8769531 C43.2247279,33.8769531 43.4727723,33.9101559 43.7032422,33.9765625 L43.6505078,34.5625 C43.4551943,34.5156248 43.2423058,34.4921875 43.0118359,34.4921875 C42.6251152,34.4921875 42.324337,34.6123035 42.1094922,34.8525391 C41.8946474,35.0927746 41.7872266,35.4335915 41.7872266,35.875 L41.7872266,36.6601562 L43.2989453,36.6601562 L43.2989453,37.234375 L41.7872266,37.234375 L41.7872266,43 L41.0841016,43 Z M48.1273047,43.1171875 C47.5882395,43.1171875 47.1009397,42.9843763 46.6653906,42.71875 C46.2298416,42.4531237 45.8909778,42.0830102 45.648789,41.6083984 C45.4066003,41.1337867 45.2855078,40.6015654 45.2855078,40.0117188 L45.2855078,39.7597656 C45.2855078,39.1503876 45.4036707,38.6015649 45.64,38.1132812 C45.8763293,37.6249976 46.2054276,37.2412123 46.6273047,36.9619141 C47.0491818,36.6826158 47.5062085,36.5429688 47.9983984,36.5429688 C48.7679335,36.5429688 49.378279,36.8056614 49.8294531,37.3310547 C50.2806272,37.8564479 50.5062109,38.5742142 50.5062109,39.484375 L50.5062109,39.8769531 L45.9827734,39.8769531 L45.9827734,40.0117188 C45.9827734,40.7304723 46.1888261,41.3290992 46.6009375,41.8076172 C47.0130489,42.2861352 47.5315984,42.5253906 48.1566015,42.5253906 C48.5316034,42.5253906 48.8626548,42.4570319 49.1497656,42.3203125 C49.4368764,42.1835931 49.697616,41.9648453 49.9319922,41.6640625 L50.3714453,41.9980469 C49.8558177,42.7441444 49.1077783,43.1171875 48.1273047,43.1171875 L48.1273047,43.1171875 Z M47.9983984,37.140625 C47.471052,37.140625 47.0267205,37.3339824 46.6653906,37.7207031 C46.3040607,38.1074238 46.0843363,38.6269499 46.0062109,39.2792969 L49.8089453,39.2792969 L49.8089453,39.203125 C49.789414,38.593747 49.6155876,38.0976582 49.2874609,37.7148438 C48.9593343,37.3320293 48.5296511,37.140625 47.9983984,37.140625 L47.9983984,37.140625 Z M55.5865234,43.1171875 C55.0474582,43.1171875 54.5601584,42.9843763 54.1246094,42.71875 C53.6890603,42.4531237 53.3501965,42.0830102 53.1080078,41.6083984 C52.8658191,41.1337867 52.7447265,40.6015654 52.7447265,40.0117188 L52.7447265,39.7597656 C52.7447265,39.1503876 52.8628894,38.6015649 53.0992187,38.1132812 C53.335548,37.6249976 53.6646463,37.2412123 54.0865234,36.9619141 C54.5084005,36.6826158 54.9654272,36.5429688 55.4576172,36.5429688 C56.2271523,36.5429688 56.8374977,36.8056614 57.2886719,37.3310547 C57.739846,37.8564479 57.9654297,38.5742142 57.9654297,39.484375 L57.9654297,39.8769531 L53.4419922,39.8769531 L53.4419922,40.0117188 C53.4419922,40.7304723 53.6480448,41.3290992 54.0601562,41.8076172 C54.4722677,42.2861352 54.9908172,42.5253906 55.6158203,42.5253906 C55.9908222,42.5253906 56.3218735,42.4570319 56.6089844,42.3203125 C56.8960952,42.1835931 57.1568347,41.9648453 57.3912109,41.6640625 L57.830664,41.9980469 C57.3150365,42.7441444 56.5669971,43.1171875 55.5865234,43.1171875 L55.5865234,43.1171875 Z M55.4576172,37.140625 C54.9302708,37.140625 54.4859393,37.3339824 54.1246094,37.7207031 C53.7632794,38.1074238 53.5435551,38.6269499 53.4654297,39.2792969 L57.268164,39.2792969 L57.268164,39.203125 C57.2486327,38.593747 57.0748063,38.0976582 56.7466797,37.7148438 C56.418553,37.3320293 55.9888698,37.140625 55.4576172,37.140625 L55.4576172,37.140625 Z M61.6805078,35.0371094 L61.6805078,36.6601562 L62.9930078,36.6601562 L62.9930078,37.234375 L61.6805078,37.234375 L61.6805078,41.4589844 C61.6805078,41.8105486 61.7439837,42.0722648 61.8709375,42.2441406 C61.9978912,42.4160165 62.2098032,42.5019531 62.5066797,42.5019531 C62.6238677,42.5019531 62.813319,42.4824221 63.075039,42.4433594 L63.1043359,43.0175781 C62.9207412,43.0839847 62.6707437,43.1171875 62.3543359,43.1171875 C61.8738648,43.1171875 61.5242589,42.9775405 61.3055078,42.6982422 C61.0867567,42.4189439 60.9773828,42.0078152 60.9773828,41.4648438 L60.9773828,37.234375 L59.8113672,37.234375 L59.8113672,36.6601562 L60.9773828,36.6601562 L60.9773828,35.0371094 L61.6805078,35.0371094 Z M74.1757812,43 C74.1054684,42.8007803 74.060547,42.5058613 74.0410156,42.1152344 C73.7949206,42.4355485 73.4814472,42.6826163 73.1005859,42.8564453 C72.7197247,43.0302743 72.3164084,43.1171875 71.890625,43.1171875 C71.281247,43.1171875 70.7880878,42.9472673 70.4111328,42.6074219 C70.0341778,42.2675764 69.8457031,41.8378932 69.8457031,41.3183594 C69.8457031,40.7011688 70.1025365,40.2128924 70.6162109,39.8535156 C71.1298854,39.4941388 71.8456985,39.3144531 72.7636719,39.3144531 L74.0351562,39.3144531 L74.0351562,38.59375 C74.0351562,38.1406227 73.8955092,37.784181 73.6162109,37.5244141 C73.3369127,37.2646471 72.9296902,37.1347656 72.3945312,37.1347656 C71.9062476,37.1347656 71.5019547,37.2597644 71.1816406,37.5097656 C70.8613265,37.7597669 70.7011719,38.0605451 70.7011719,38.4121094 L69.9980469,38.40625 C69.9980469,37.9023412 70.2324195,37.4658222 70.7011719,37.0966797 C71.1699242,36.7275372 71.7460903,36.5429688 72.4296875,36.5429688 C73.1367223,36.5429688 73.6943339,36.7197248 74.1025391,37.0732422 C74.5107442,37.4267596 74.7207031,37.9199187 74.7324219,38.5527344 L74.7324219,41.5527344 C74.7324219,42.1660187 74.7968744,42.6249985 74.9257812,42.9296875 L74.9257812,43 L74.1757812,43 Z M71.9726562,42.4960938 C72.4414086,42.4960938 72.8603497,42.3828136 73.2294922,42.15625 C73.5986347,41.9296864 73.8671867,41.626955 74.0351562,41.2480469 L74.0351562,39.8535156 L72.78125,39.8535156 C72.0820278,39.8613282 71.5351582,39.9892566 71.140625,40.2373047 C70.7460918,40.4853528 70.5488281,40.8261697 70.5488281,41.2597656 C70.5488281,41.6152362 70.6806627,41.9101551 70.9443359,42.1445312 C71.2080091,42.3789074 71.5507791,42.4960938 71.9726562,42.4960938 L71.9726562,42.4960938 Z M82.9650781,39.8945312 C82.9650781,40.8828174 82.7463303,41.6669893 82.3088281,42.2470703 C81.8713259,42.8271513 81.2834412,43.1171875 80.5451562,43.1171875 C79.6623393,43.1171875 78.9943773,42.7890658 78.54125,42.1328125 L78.5119531,43 L77.8557031,43 L77.8557031,34 L78.5529687,34 L78.5529687,37.5800781 C78.9982835,36.8886684 79.6584331,36.5429688 80.5334375,36.5429688 C81.2834412,36.5429688 81.8762088,36.8290987 82.3117578,37.4013672 C82.7473069,37.9736357 82.9650781,38.7695262 82.9650781,39.7890625 L82.9650781,39.8945312 Z M82.2619531,39.7714844 C82.2619531,38.9355427 82.0998454,38.2900413 81.775625,37.8349609 C81.4514046,37.3798805 80.9943779,37.1523438 80.4045312,37.1523438 C79.9553102,37.1523438 79.5744547,37.2626942 79.2619531,37.4833984 C78.9494516,37.7041027 78.7131258,38.0273416 78.5529687,38.453125 L78.5529687,41.3125 C78.904533,42.109379 79.5256205,42.5078125 80.41625,42.5078125 C80.9943779,42.5078125 81.4465218,42.2792992 81.7726953,41.8222656 C82.0988688,41.3652321 82.2619531,40.6816452 82.2619531,39.7714844 L82.2619531,39.7714844 Z M85.3852344,39.7363281 C85.3852344,39.1269501 85.5033972,38.5781274 85.7397265,38.0898438 C85.9760559,37.6015601 86.3100369,37.221681 86.7416797,36.9501953 C87.1733225,36.6787096 87.6625754,36.5429688 88.2094531,36.5429688 C89.0532073,36.5429688 89.7367942,36.8388642 90.2602344,37.4306641 C90.7836745,38.0224639 91.0453906,38.8066357 91.0453906,39.7832031 L91.0453906,39.9296875 C91.0453906,40.5429718 90.9272277,41.0947241 90.6908984,41.5849609 C90.4545691,42.0751978 90.1215646,42.4531237 89.691875,42.71875 C89.2621853,42.9843763 88.7719559,43.1171875 88.2211719,43.1171875 C87.3813239,43.1171875 86.6987135,42.821292 86.1733203,42.2294922 C85.647927,41.6376924 85.3852344,40.8535205 85.3852344,39.8769531 L85.3852344,39.7363281 Z M86.0883594,39.9296875 C86.0883594,40.6875038 86.2846465,41.3095679 86.6772265,41.7958984 C87.0698066,42.282229 87.5844499,42.5253906 88.2211719,42.5253906 C88.8539875,42.5253906 89.3666777,42.282229 89.7592578,41.7958984 C90.1518379,41.3095679 90.348125,40.6679727 90.348125,39.8710938 L90.348125,39.7363281 C90.348125,39.2519507 90.2582821,38.8085958 90.0785937,38.40625 C89.8989053,38.0039042 89.6469547,37.6923839 89.3227344,37.4716797 C88.998514,37.2509755 88.6274239,37.140625 88.2094531,37.140625 C87.58445,37.140625 87.0746895,37.3857397 86.6801562,37.8759766 C86.285623,38.3662134 86.0883594,39.0078085 86.0883594,39.8007812 L86.0883594,39.9296875 Z M95.639375,42.0332031 L97.5671093,36.6601562 L98.2878125,36.6601562 L95.920625,43 L95.3522656,43 L92.9733593,36.6601562 L93.6940625,36.6601562 L95.639375,42.0332031 Z M103.075156,43.1171875 C102.536091,43.1171875 102.048791,42.9843763 101.613242,42.71875 C101.177693,42.4531237 100.838829,42.0830102 100.596641,41.6083984 C100.354452,41.1337867 100.233359,40.6015654 100.233359,40.0117188 L100.233359,39.7597656 C100.233359,39.1503876 100.351522,38.6015649 100.587852,38.1132812 C100.824181,37.6249976 101.153279,37.2412123 101.575156,36.9619141 C101.997033,36.6826158 102.45406,36.5429688 102.94625,36.5429688 C103.715785,36.5429688 104.326131,36.8056614 104.777305,37.3310547 C105.228479,37.8564479 105.454062,38.5742142 105.454062,39.484375 L105.454062,39.8769531 L100.930625,39.8769531 L100.930625,40.0117188 C100.930625,40.7304723 101.136678,41.3290992 101.548789,41.8076172 C101.9609,42.2861352 102.47945,42.5253906 103.104453,42.5253906 C103.479455,42.5253906 103.810506,42.4570319 104.097617,42.3203125 C104.384728,42.1835931 104.645468,41.9648453 104.879844,41.6640625 L105.319297,41.9980469 C104.803669,42.7441444 104.05563,43.1171875 103.075156,43.1171875 L103.075156,43.1171875 Z M102.94625,37.140625 C102.418904,37.140625 101.974572,37.3339824 101.613242,37.7207031 C101.251912,38.1074238 101.032188,38.6269499 100.954062,39.2792969 L104.756797,39.2792969 L104.756797,39.203125 C104.737265,38.593747 104.563439,38.0976582 104.235312,37.7148438 C103.907186,37.3320293 103.477503,37.140625 102.94625,37.140625 L102.94625,37.140625 Z M113.636836,35.0371094 L113.636836,36.6601562 L114.949336,36.6601562 L114.949336,37.234375 L113.636836,37.234375 L113.636836,41.4589844 C113.636836,41.8105486 113.700312,42.0722648 113.827266,42.2441406 C113.954219,42.4160165 114.166131,42.5019531 114.463008,42.5019531 C114.580196,42.5019531 114.769647,42.4824221 115.031367,42.4433594 L115.060664,43.0175781 C114.877069,43.0839847 114.627072,43.1171875 114.310664,43.1171875 C113.830193,43.1171875 113.480587,42.9775405 113.261836,42.6982422 C113.043085,42.4189439 112.933711,42.0078152 112.933711,41.4648438 L112.933711,37.234375 L111.767695,37.234375 L111.767695,36.6601562 L112.933711,36.6601562 L112.933711,35.0371094 L113.636836,35.0371094 Z M118.359727,37.7324219 C118.590196,37.3535137 118.885115,37.0605479 119.244492,36.8535156 C119.603869,36.6464833 119.996443,36.5429688 120.422227,36.5429688 C121.101917,36.5429688 121.607772,36.7343731 121.939805,37.1171875 C122.271838,37.5000019 122.439805,38.0742149 122.443711,38.8398438 L122.443711,43 L121.746445,43 L121.746445,38.8339844 C121.742539,38.2675753 121.622423,37.8457045 121.386094,37.5683594 C121.149764,37.2910142 120.771839,37.1523438 120.252305,37.1523438 C119.818709,37.1523438 119.434924,37.2880846 119.100937,37.5595703 C118.766951,37.831056 118.519884,38.1972633 118.359727,38.6582031 L118.359727,43 L117.662461,43 L117.662461,34 L118.359727,34 L118.359727,37.7324219 Z M127.963477,43.1171875 C127.424411,43.1171875 126.937112,42.9843763 126.501562,42.71875 C126.066013,42.4531237 125.72715,42.0830102 125.484961,41.6083984 C125.242772,41.1337867 125.12168,40.6015654 125.12168,40.0117188 L125.12168,39.7597656 C125.12168,39.1503876 125.239843,38.6015649 125.476172,38.1132812 C125.712501,37.6249976 126.041599,37.2412123 126.463477,36.9619141 C126.885354,36.6826158 127.34238,36.5429688 127.83457,36.5429688 C128.604105,36.5429688 129.214451,36.8056614 129.665625,37.3310547 C130.116799,37.8564479 130.342383,38.5742142 130.342383,39.484375 L130.342383,39.8769531 L125.818945,39.8769531 L125.818945,40.0117188 C125.818945,40.7304723 126.024998,41.3290992 126.437109,41.8076172 C126.849221,42.2861352 127.36777,42.5253906 127.992773,42.5253906 C128.367775,42.5253906 128.698827,42.4570319 128.985937,42.3203125 C129.273048,42.1835931 129.533788,41.9648453 129.768164,41.6640625 L130.207617,41.9980469 C129.69199,42.7441444 128.94395,43.1171875 127.963477,43.1171875 L127.963477,43.1171875 Z M127.83457,37.140625 C127.307224,37.140625 126.862892,37.3339824 126.501562,37.7207031 C126.140233,38.1074238 125.920508,38.6269499 125.842383,39.2792969 L129.645117,39.2792969 L129.645117,39.203125 C129.625586,38.593747 129.451759,38.0976582 129.123633,37.7148438 C128.795506,37.3320293 128.365823,37.140625 127.83457,37.140625 L127.83457,37.140625 Z M141.232188,41.3886719 C141.232188,41.0410139 141.09254,40.7617198 140.813242,40.5507812 C140.533944,40.3398427 140.11305,40.1748053 139.550547,40.0556641 C138.988044,39.9365228 138.551525,39.7998055 138.240977,39.6455078 C137.930428,39.4912102 137.699962,39.3027355 137.54957,39.0800781 C137.399179,38.8574208 137.323984,38.5878922 137.323984,38.2714844 C137.323984,37.7714819 137.532967,37.3584001 137.950938,37.0322266 C138.368908,36.7060531 138.904059,36.5429688 139.556406,36.5429688 C140.263441,36.5429688 140.830818,36.7177717 141.258555,37.0673828 C141.686291,37.4169939 141.900156,37.8730441 141.900156,38.4355469 L141.197031,38.4355469 C141.197031,38.0644513 141.041759,37.7558606 140.731211,37.5097656 C140.420663,37.2636706 140.029065,37.140625 139.556406,37.140625 C139.095466,37.140625 138.725353,37.243163 138.446055,37.4482422 C138.166756,37.6533213 138.027109,37.9199202 138.027109,38.2480469 C138.027109,38.5644547 138.143319,38.8095694 138.375742,38.9833984 C138.608165,39.1572274 139.031989,39.3164055 139.647227,39.4609375 C140.262464,39.6054695 140.723397,39.7597648 141.030039,39.9238281 C141.336681,40.0878914 141.564218,40.2851551 141.712656,40.515625 C141.861095,40.7460949 141.935313,41.025389 141.935313,41.3535156 C141.935313,41.8886746 141.719494,42.3164046 141.287852,42.6367188 C140.856209,42.9570329 140.292738,43.1171875 139.597422,43.1171875 C138.859137,43.1171875 138.26051,42.9384783 137.801523,42.5810547 C137.342537,42.223631 137.113047,41.7714871 137.113047,41.2246094 L137.816172,41.2246094 C137.843516,41.6347677 138.016366,41.9541004 138.334727,42.1826172 C138.653088,42.411134 139.073982,42.5253906 139.597422,42.5253906 C140.085706,42.5253906 140.480233,42.4179698 140.781016,42.203125 C141.081798,41.9882802 141.232188,41.7167985 141.232188,41.3886719 L141.232188,41.3886719 Z M147.226562,43.1171875 C146.687497,43.1171875 146.200197,42.9843763 145.764648,42.71875 C145.329099,42.4531237 144.990236,42.0830102 144.748047,41.6083984 C144.505858,41.1337867 144.384766,40.6015654 144.384766,40.0117188 L144.384766,39.7597656 C144.384766,39.1503876 144.502929,38.6015649 144.739258,38.1132812 C144.975587,37.6249976 145.304685,37.2412123 145.726562,36.9619141 C146.14844,36.6826158 146.605466,36.5429688 147.097656,36.5429688 C147.867191,36.5429688 148.477537,36.8056614 148.928711,37.3310547 C149.379885,37.8564479 149.605469,38.5742142 149.605469,39.484375 L149.605469,39.8769531 L145.082031,39.8769531 L145.082031,40.0117188 C145.082031,40.7304723 145.288084,41.3290992 145.700195,41.8076172 C146.112307,42.2861352 146.630856,42.5253906 147.255859,42.5253906 C147.630861,42.5253906 147.961913,42.4570319 148.249023,42.3203125 C148.536134,42.1835931 148.796874,41.9648453 149.03125,41.6640625 L149.470703,41.9980469 C148.955076,42.7441444 148.207036,43.1171875 147.226562,43.1171875 L147.226562,43.1171875 Z M147.097656,37.140625 C146.57031,37.140625 146.125978,37.3339824 145.764648,37.7207031 C145.403319,38.1074238 145.183594,38.6269499 145.105469,39.2792969 L148.908203,39.2792969 L148.908203,39.203125 C148.888672,38.593747 148.714845,38.0976582 148.386719,37.7148438 C148.058592,37.3320293 147.628909,37.140625 147.097656,37.140625 L147.097656,37.140625 Z M156.232656,43 C156.162343,42.8007803 156.117422,42.5058613 156.097891,42.1152344 C155.851796,42.4355485 155.538322,42.6826163 155.157461,42.8564453 C154.7766,43.0302743 154.373283,43.1171875 153.9475,43.1171875 C153.338122,43.1171875 152.844963,42.9472673 152.468008,42.6074219 C152.091053,42.2675764 151.902578,41.8378932 151.902578,41.3183594 C151.902578,40.7011688 152.159411,40.2128924 152.673086,39.8535156 C153.18676,39.4941388 153.902574,39.3144531 154.820547,39.3144531 L156.092031,39.3144531 L156.092031,38.59375 C156.092031,38.1406227 155.952384,37.784181 155.673086,37.5244141 C155.393788,37.2646471 154.986565,37.1347656 154.451406,37.1347656 C153.963123,37.1347656 153.55883,37.2597644 153.238516,37.5097656 C152.918202,37.7597669 152.758047,38.0605451 152.758047,38.4121094 L152.054922,38.40625 C152.054922,37.9023412 152.289295,37.4658222 152.758047,37.0966797 C153.226799,36.7275372 153.802965,36.5429688 154.486562,36.5429688 C155.193597,36.5429688 155.751209,36.7197248 156.159414,37.0732422 C156.567619,37.4267596 156.777578,37.9199187 156.789297,38.5527344 L156.789297,41.5527344 C156.789297,42.1660187 156.853749,42.6249985 156.982656,42.9296875 L156.982656,43 L156.232656,43 Z M154.029531,42.4960938 C154.498284,42.4960938 154.917225,42.3828136 155.286367,42.15625 C155.65551,41.9296864 155.924062,41.626955 156.092031,41.2480469 L156.092031,39.8535156 L154.838125,39.8535156 C154.138903,39.8613282 153.592033,39.9892566 153.1975,40.2373047 C152.802967,40.4853528 152.605703,40.8261697 152.605703,41.2597656 C152.605703,41.6152362 152.737538,41.9101551 153.001211,42.1445312 C153.264884,42.3789074 153.607654,42.4960938 154.029531,42.4960938 L154.029531,42.4960938 Z M165.171289,43 L164.468164,43 L164.468164,34 L165.171289,34 L165.171289,43 Z M170.790664,43.1171875 C170.251599,43.1171875 169.764299,42.9843763 169.32875,42.71875 C168.893201,42.4531237 168.554337,42.0830102 168.312148,41.6083984 C168.06996,41.1337867 167.948867,40.6015654 167.948867,40.0117188 L167.948867,39.7597656 C167.948867,39.1503876 168.06703,38.6015649 168.303359,38.1132812 C168.539689,37.6249976 168.868787,37.2412123 169.290664,36.9619141 C169.712541,36.6826158 170.169568,36.5429688 170.661758,36.5429688 C171.431293,36.5429688 172.041638,36.8056614 172.492813,37.3310547 C172.943987,37.8564479 173.16957,38.5742142 173.16957,39.484375 L173.16957,39.8769531 L168.646133,39.8769531 L168.646133,40.0117188 C168.646133,40.7304723 168.852185,41.3290992 169.264297,41.8076172 C169.676408,42.2861352 170.194958,42.5253906 170.819961,42.5253906 C171.194963,42.5253906 171.526014,42.4570319 171.813125,42.3203125 C172.100236,42.1835931 172.360975,41.9648453 172.595352,41.6640625 L173.034805,41.9980469 C172.519177,42.7441444 171.771138,43.1171875 170.790664,43.1171875 L170.790664,43.1171875 Z M170.661758,37.140625 C170.134411,37.140625 169.69008,37.3339824 169.32875,37.7207031 C168.96742,38.1074238 168.747696,38.6269499 168.66957,39.2792969 L172.472305,39.2792969 L172.472305,39.203125 C172.452773,38.593747 172.278947,38.0976582 171.95082,37.7148438 C171.622694,37.3320293 171.19301,37.140625 170.661758,37.140625 L170.661758,37.140625 Z M177.693242,42.0332031 L179.620977,36.6601562 L180.34168,36.6601562 L177.974492,43 L177.406133,43 L175.027227,36.6601562 L175.74793,36.6601562 L177.693242,42.0332031 Z M185.129023,43.1171875 C184.589958,43.1171875 184.102658,42.9843763 183.667109,42.71875 C183.23156,42.4531237 182.892697,42.0830102 182.650508,41.6083984 C182.408319,41.1337867 182.287227,40.6015654 182.287227,40.0117188 L182.287227,39.7597656 C182.287227,39.1503876 182.405389,38.6015649 182.641719,38.1132812 C182.878048,37.6249976 183.207146,37.2412123 183.629023,36.9619141 C184.050901,36.6826158 184.507927,36.5429688 185.000117,36.5429688 C185.769652,36.5429688 186.379998,36.8056614 186.831172,37.3310547 C187.282346,37.8564479 187.50793,38.5742142 187.50793,39.484375 L187.50793,39.8769531 L182.984492,39.8769531 L182.984492,40.0117188 C182.984492,40.7304723 183.190545,41.3290992 183.602656,41.8076172 C184.014768,42.2861352 184.533317,42.5253906 185.15832,42.5253906 C185.533322,42.5253906 185.864374,42.4570319 186.151484,42.3203125 C186.438595,42.1835931 186.699335,41.9648453 186.933711,41.6640625 L187.373164,41.9980469 C186.857536,42.7441444 186.109497,43.1171875 185.129023,43.1171875 L185.129023,43.1171875 Z M185.000117,37.140625 C184.472771,37.140625 184.028439,37.3339824 183.667109,37.7207031 C183.305779,38.1074238 183.086055,38.6269499 183.00793,39.2792969 L186.810664,39.2792969 L186.810664,39.203125 C186.791133,38.593747 186.617306,38.0976582 186.28918,37.7148438 C185.961053,37.3320293 185.53137,37.140625 185.000117,37.140625 L185.000117,37.140625 Z M190.91832,43 L190.215195,43 L190.215195,34 L190.91832,34 L190.91832,43 Z M199.335469,43 L198.632344,43 L198.632344,36.6601562 L199.335469,36.6601562 L199.335469,43 Z M198.509297,34.8261719 C198.509297,34.6933587 198.552265,34.5810551 198.638203,34.4892578 C198.724141,34.3974605 198.841327,34.3515625 198.989766,34.3515625 C199.138204,34.3515625 199.256367,34.3974605 199.344258,34.4892578 C199.432149,34.5810551 199.476094,34.6933587 199.476094,34.8261719 C199.476094,34.958985 199.432149,35.0703121 199.344258,35.1601562 C199.256367,35.2500004 199.138204,35.2949219 198.989766,35.2949219 C198.841327,35.2949219 198.724141,35.2500004 198.638203,35.1601562 C198.552265,35.0703121 198.509297,34.958985 198.509297,34.8261719 L198.509297,34.8261719 Z M206.296641,41.3886719 C206.296641,41.0410139 206.156994,40.7617198 205.877695,40.5507812 C205.598397,40.3398427 205.177503,40.1748053 204.615,40.0556641 C204.052497,39.9365228 203.615978,39.7998055 203.30543,39.6455078 C202.994881,39.4912102 202.764415,39.3027355 202.614023,39.0800781 C202.463632,38.8574208 202.388438,38.5878922 202.388438,38.2714844 C202.388438,37.7714819 202.59742,37.3584001 203.015391,37.0322266 C203.433361,36.7060531 203.968512,36.5429688 204.620859,36.5429688 C205.327894,36.5429688 205.895271,36.7177717 206.323008,37.0673828 C206.750744,37.4169939 206.964609,37.8730441 206.964609,38.4355469 L206.261484,38.4355469 C206.261484,38.0644513 206.106212,37.7558606 205.795664,37.5097656 C205.485116,37.2636706 205.093518,37.140625 204.620859,37.140625 C204.15992,37.140625 203.789806,37.243163 203.510508,37.4482422 C203.23121,37.6533213 203.091563,37.9199202 203.091563,38.2480469 C203.091563,38.5644547 203.207772,38.8095694 203.440195,38.9833984 C203.672618,39.1572274 204.096442,39.3164055 204.71168,39.4609375 C205.326917,39.6054695 205.78785,39.7597648 206.094492,39.9238281 C206.401134,40.0878914 206.628671,40.2851551 206.777109,40.515625 C206.925548,40.7460949 206.999766,41.025389 206.999766,41.3535156 C206.999766,41.8886746 206.783947,42.3164046 206.352305,42.6367188 C205.920662,42.9570329 205.357191,43.1171875 204.661875,43.1171875 C203.92359,43.1171875 203.324963,42.9384783 202.865977,42.5810547 C202.40699,42.223631 202.1775,41.7714871 202.1775,41.2246094 L202.880625,41.2246094 C202.907969,41.6347677 203.080819,41.9541004 203.39918,42.1826172 C203.717541,42.411134 204.138435,42.5253906 204.661875,42.5253906 C205.150159,42.5253906 205.544686,42.4179698 205.845469,42.203125 C206.146252,41.9882802 206.296641,41.7167985 206.296641,41.3886719 L206.296641,41.3886719 Z M2.00390625,51.0371094 L2.00390625,52.6601562 L3.31640625,52.6601562 L3.31640625,53.234375 L2.00390625,53.234375 L2.00390625,57.4589844 C2.00390625,57.8105486 2.06738218,58.0722648 2.19433594,58.2441406 C2.3212897,58.4160165 2.53320164,58.5019531 2.83007812,58.5019531 C2.94726621,58.5019531 3.13671744,58.4824221 3.3984375,58.4433594 L3.42773438,59.0175781 C3.24413971,59.0839847 2.99414221,59.1171875 2.67773438,59.1171875 C2.19726322,59.1171875 1.84765734,58.9775405 1.62890625,58.6982422 C1.41015516,58.4189439 1.30078125,58.0078152 1.30078125,57.4648438 L1.30078125,53.234375 L0.134765625,53.234375 L0.134765625,52.6601562 L1.30078125,52.6601562 L1.30078125,51.0371094 L2.00390625,51.0371094 Z M6.72679687,53.7324219 C6.95726677,53.3535137 7.25218569,53.0605479 7.61156249,52.8535156 C7.97093929,52.6464833 8.36351349,52.5429688 8.78929687,52.5429688 C9.46898776,52.5429688 9.97484208,52.7343731 10.306875,53.1171875 C10.6389079,53.5000019 10.806875,54.0742149 10.8107812,54.8398438 L10.8107812,59 L10.1135156,59 L10.1135156,54.8339844 C10.1096093,54.2675753 9.98949336,53.8457045 9.75316405,53.5683594 C9.51683475,53.2910142 9.13890884,53.1523438 8.61937499,53.1523438 C8.18577907,53.1523438 7.80199385,53.2880846 7.4680078,53.5595703 C7.13402176,53.831056 6.88695392,54.1972633 6.72679687,54.6582031 L6.72679687,59 L6.02953124,59 L6.02953124,50 L6.72679687,50 L6.72679687,53.7324219 Z M16.3305469,59.1171875 C15.7914817,59.1171875 15.3041818,58.9843763 14.8686328,58.71875 C14.4330837,58.4531237 14.0942199,58.0830102 13.8520312,57.6083984 C13.6098425,57.1337867 13.48875,56.6015654 13.48875,56.0117188 L13.48875,55.7597656 C13.48875,55.1503876 13.6069129,54.6015649 13.8432422,54.1132812 C14.0795715,53.6249976 14.4086697,53.2412123 14.8305469,52.9619141 C15.252424,52.6826158 15.7094506,52.5429688 16.2016406,52.5429688 C16.9711757,52.5429688 17.5815212,52.8056614 18.0326953,53.3310547 C18.4838694,53.8564479 18.7094531,54.5742142 18.7094531,55.484375 L18.7094531,55.8769531 L14.1860156,55.8769531 L14.1860156,56.0117188 C14.1860156,56.7304723 14.3920682,57.3290992 14.8041797,57.8076172 C15.2162911,58.2861352 15.7348406,58.5253906 16.3598437,58.5253906 C16.7348456,58.5253906 17.065897,58.4570319 17.3530078,58.3203125 C17.6401186,58.1835931 17.9008582,57.9648453 18.1352344,57.6640625 L18.5746875,57.9980469 C18.0590599,58.7441444 17.3110205,59.1171875 16.3305469,59.1171875 L16.3305469,59.1171875 Z M16.2016406,53.140625 C15.6742942,53.140625 15.2299627,53.3339824 14.8686328,53.7207031 C14.5073029,54.1074238 14.2875785,54.6269499 14.2094531,55.2792969 L18.0121875,55.2792969 L18.0121875,55.203125 C17.9926561,54.593747 17.8188297,54.0976582 17.4907031,53.7148438 C17.1625765,53.3320293 16.7328933,53.140625 16.2016406,53.140625 L16.2016406,53.140625 Z M27.4040234,53.7324219 C27.6344934,53.3535137 27.9294123,53.0605479 28.2887891,52.8535156 C28.6481659,52.6464833 29.0407401,52.5429688 29.4665234,52.5429688 C30.1462143,52.5429688 30.6520687,52.7343731 30.9841016,53.1171875 C31.3161345,53.5000019 31.4841016,54.0742149 31.4880078,54.8398438 L31.4880078,59 L30.7907422,59 L30.7907422,54.8339844 C30.7868359,54.2675753 30.6667199,53.8457045 30.4303906,53.5683594 C30.1940613,53.2910142 29.8161354,53.1523438 29.2966016,53.1523438 C28.8630057,53.1523438 28.4792204,53.2880846 28.1452344,53.5595703 C27.8112483,53.831056 27.5641805,54.1972633 27.4040234,54.6582031 L27.4040234,59 L26.7067578,59 L26.7067578,50 L27.4040234,50 L27.4040234,53.7324219 Z M37.0077734,59.1171875 C36.4687082,59.1171875 35.9814084,58.9843763 35.5458594,58.71875 C35.1103103,58.4531237 34.7714465,58.0830102 34.5292578,57.6083984 C34.2870691,57.1337867 34.1659766,56.6015654 34.1659766,56.0117188 L34.1659766,55.7597656 C34.1659766,55.1503876 34.2841394,54.6015649 34.5204688,54.1132812 C34.7567981,53.6249976 35.0858963,53.2412123 35.5077734,52.9619141 C35.9296505,52.6826158 36.3866772,52.5429688 36.8788672,52.5429688 C37.6484023,52.5429688 38.2587477,52.8056614 38.7099219,53.3310547 C39.161096,53.8564479 39.3866797,54.5742142 39.3866797,55.484375 L39.3866797,55.8769531 L34.8632422,55.8769531 L34.8632422,56.0117188 C34.8632422,56.7304723 35.0692948,57.3290992 35.4814063,57.8076172 C35.8935177,58.2861352 36.4120672,58.5253906 37.0370703,58.5253906 C37.4120722,58.5253906 37.7431236,58.4570319 38.0302344,58.3203125 C38.3173452,58.1835931 38.5780848,57.9648453 38.8124609,57.6640625 L39.2519141,57.9980469 C38.7362865,58.7441444 37.9882471,59.1171875 37.0077734,59.1171875 L37.0077734,59.1171875 Z M36.8788672,53.140625 C36.3515208,53.140625 35.9071893,53.3339824 35.5458594,53.7207031 C35.1845294,54.1074238 34.9648051,54.6269499 34.8866797,55.2792969 L38.6894141,55.2792969 L38.6894141,55.203125 C38.6698827,54.593747 38.4960563,54.0976582 38.1679297,53.7148438 C37.839803,53.3320293 37.4101198,53.140625 36.8788672,53.140625 L36.8788672,53.140625 Z M42.7970703,59 L42.0939453,59 L42.0939453,52.6601562 L42.7970703,52.6601562 L42.7970703,59 Z M41.9708984,50.8261719 C41.9708984,50.6933587 42.0138667,50.5810551 42.0998047,50.4892578 C42.1857426,50.3974605 42.3029289,50.3515625 42.4513672,50.3515625 C42.5998054,50.3515625 42.7179683,50.3974605 42.8058594,50.4892578 C42.8937504,50.5810551 42.9376953,50.6933587 42.9376953,50.8261719 C42.9376953,50.958985 42.8937504,51.0703121 42.8058594,51.1601562 C42.7179683,51.2500004 42.5998054,51.2949219 42.4513672,51.2949219 C42.3029289,51.2949219 42.1857426,51.2500004 42.0998047,51.1601562 C42.0138667,51.0703121 41.9708984,50.958985 41.9708984,50.8261719 L41.9708984,50.8261719 Z M45.6801172,55.7714844 C45.6801172,54.7792919 45.8998415,53.993167 46.3392969,53.4130859 C46.7787522,52.8330049 47.3754259,52.5429688 48.1293359,52.5429688 C48.9926215,52.5429688 49.6488649,52.8867153 50.0980859,53.5742188 L50.1332422,52.6601562 L50.7894922,52.6601562 L50.7894922,58.8710938 C50.7894922,59.6875041 50.5609788,60.333982 50.1039453,60.8105469 C49.6469118,61.2871118 49.0277773,61.5253906 48.2465234,61.5253906 C47.805115,61.5253906 47.3842207,61.4267588 46.9838281,61.2294922 C46.5834355,61.0322256 46.2680089,60.7695329 46.037539,60.4414062 L46.4301172,60.0195312 C46.9262134,60.6289093 47.5160513,60.9335938 48.1996484,60.9335938 C48.7855888,60.9335938 49.2426155,60.7607439 49.5707422,60.4150391 C49.8988688,60.0693342 50.068789,59.5898468 50.0805078,58.9765625 L50.0805078,58.1796875 C49.6312868,58.8046906 48.9769965,59.1171875 48.1176172,59.1171875 C47.3832385,59.1171875 46.7934006,58.8242217 46.3480859,58.2382812 C45.9027712,57.6523408 45.6801172,56.8613331 45.6801172,55.8652344 L45.6801172,55.7714844 Z M46.3891015,55.8945312 C46.3891015,56.703129 46.5512093,57.340818 46.8754297,57.8076172 C47.19965,58.2744164 47.6566767,58.5078125 48.2465234,58.5078125 C49.109809,58.5078125 49.721131,58.1210976 50.0805078,57.3476562 L50.0805078,54.4003906 C49.9164445,53.9941386 49.6801187,53.6845714 49.3715234,53.4716797 C49.0629281,53.258788 48.6918381,53.1523438 48.2582422,53.1523438 C47.6683955,53.1523438 47.2094157,53.3837867 46.881289,53.8466797 C46.5531624,54.3095726 46.3891015,54.992183 46.3891015,55.8945312 L46.3891015,55.8945312 Z M54.5748828,53.7324219 C54.8053527,53.3535137 55.1002716,53.0605479 55.4596484,52.8535156 C55.8190252,52.6464833 56.2115994,52.5429688 56.6373828,52.5429688 C57.3170737,52.5429688 57.822928,52.7343731 58.1549609,53.1171875 C58.4869938,53.5000019 58.6549609,54.0742149 58.6588672,54.8398438 L58.6588672,59 L57.9616015,59 L57.9616015,54.8339844 C57.9576953,54.2675753 57.8375793,53.8457045 57.60125,53.5683594 C57.3649207,53.2910142 56.9869948,53.1523438 56.4674609,53.1523438 C56.033865,53.1523438 55.6500798,53.2880846 55.3160937,53.5595703 C54.9821077,53.831056 54.7350398,54.1972633 54.5748828,54.6582031 L54.5748828,59 L53.8776172,59 L53.8776172,50 L54.5748828,50 L54.5748828,53.7324219 Z M62.8133984,51.0371094 L62.8133984,52.6601562 L64.1258984,52.6601562 L64.1258984,53.234375 L62.8133984,53.234375 L62.8133984,57.4589844 C62.8133984,57.8105486 62.8768743,58.0722648 63.0038281,58.2441406 C63.1307818,58.4160165 63.3426938,58.5019531 63.6395703,58.5019531 C63.7567584,58.5019531 63.9462096,58.4824221 64.2079297,58.4433594 L64.2372265,59.0175781 C64.0536319,59.0839847 63.8036344,59.1171875 63.4872265,59.1171875 C63.0067554,59.1171875 62.6571495,58.9775405 62.4383984,58.6982422 C62.2196473,58.4189439 62.1102734,58.0078152 62.1102734,57.4648438 L62.1102734,53.234375 L60.9442578,53.234375 L60.9442578,52.6601562 L62.1102734,52.6601562 L62.1102734,51.0371094 L62.8133984,51.0371094 Z M71.824375,55.7363281 C71.824375,55.1269501 71.9425379,54.5781274 72.1788672,54.0898438 C72.4151965,53.6015601 72.7491775,53.221681 73.1808203,52.9501953 C73.6124631,52.6787096 74.101716,52.5429688 74.6485937,52.5429688 C75.492348,52.5429688 76.1759349,52.8388642 76.699375,53.4306641 C77.2228151,54.0224639 77.4845312,54.8066357 77.4845312,55.7832031 L77.4845312,55.9296875 C77.4845312,56.5429718 77.3663684,57.0947241 77.1300391,57.5849609 C76.8937097,58.0751978 76.5607053,58.4531237 76.1310156,58.71875 C75.701326,58.9843763 75.2110965,59.1171875 74.6603125,59.1171875 C73.8204645,59.1171875 73.1378542,58.821292 72.6124609,58.2294922 C72.0870677,57.6376924 71.824375,56.8535205 71.824375,55.8769531 L71.824375,55.7363281 Z M72.5275,55.9296875 C72.5275,56.6875038 72.7237871,57.3095679 73.1163672,57.7958984 C73.5089473,58.282229 74.0235906,58.5253906 74.6603125,58.5253906 C75.2931282,58.5253906 75.8058183,58.282229 76.1983984,57.7958984 C76.5909785,57.3095679 76.7872656,56.6679727 76.7872656,55.8710938 L76.7872656,55.7363281 C76.7872656,55.2519507 76.6974228,54.8085958 76.5177344,54.40625 C76.338046,54.0039042 76.0860954,53.6923839 75.761875,53.4716797 C75.4376546,53.2509755 75.0665646,53.140625 74.6485937,53.140625 C74.0235906,53.140625 73.5138301,53.3857397 73.1192969,53.8759766 C72.7247636,54.3662134 72.5275,55.0078085 72.5275,55.8007812 L72.5275,55.9296875 Z M80.6957031,59 L80.6957031,53.234375 L79.646875,53.234375 L79.646875,52.6601562 L80.6957031,52.6601562 L80.6957031,51.8925781 C80.6957031,51.2441374 80.8607405,50.7460955 81.1908203,50.3984375 C81.5209001,50.0507795 81.9808564,49.8769531 82.5707031,49.8769531 C82.8363294,49.8769531 83.0843738,49.9101559 83.3148437,49.9765625 L83.2621094,50.5625 C83.0667959,50.5156248 82.8539074,50.4921875 82.6234375,50.4921875 C82.2367168,50.4921875 81.9359386,50.6123035 81.7210937,50.8525391 C81.5062489,51.0927746 81.3988281,51.4335915 81.3988281,51.875 L81.3988281,52.6601562 L82.9105469,52.6601562 L82.9105469,53.234375 L81.3988281,53.234375 L81.3988281,59 L80.6957031,59 Z M91.8863672,51.0371094 L91.8863672,52.6601562 L93.1988672,52.6601562 L93.1988672,53.234375 L91.8863672,53.234375 L91.8863672,57.4589844 C91.8863672,57.8105486 91.9498431,58.0722648 92.0767969,58.2441406 C92.2037506,58.4160165 92.4156626,58.5019531 92.7125391,58.5019531 C92.8297272,58.5019531 93.0191784,58.4824221 93.2808985,58.4433594 L93.3101953,59.0175781 C93.1266007,59.0839847 92.8766032,59.1171875 92.5601953,59.1171875 C92.0797242,59.1171875 91.7301183,58.9775405 91.5113672,58.6982422 C91.2926161,58.4189439 91.1832422,58.0078152 91.1832422,57.4648438 L91.1832422,53.234375 L90.0172266,53.234375 L90.0172266,52.6601562 L91.1832422,52.6601562 L91.1832422,51.0371094 L91.8863672,51.0371094 Z M96.6092578,53.7324219 C96.8397277,53.3535137 97.1346466,53.0605479 97.4940234,52.8535156 C97.8534002,52.6464833 98.2459744,52.5429688 98.6717578,52.5429688 C99.3514487,52.5429688 99.857303,52.7343731 100.189336,53.1171875 C100.521369,53.5000019 100.689336,54.0742149 100.693242,54.8398438 L100.693242,59 L99.9959766,59 L99.9959766,54.8339844 C99.9920703,54.2675753 99.8719543,53.8457045 99.635625,53.5683594 C99.3992957,53.2910142 99.0213698,53.1523438 98.5018359,53.1523438 C98.06824,53.1523438 97.6844548,53.2880846 97.3504688,53.5595703 C97.0164827,53.831056 96.7694149,54.1972633 96.6092578,54.6582031 L96.6092578,59 L95.9119922,59 L95.9119922,50 L96.6092578,50 L96.6092578,53.7324219 Z M106.213008,59.1171875 C105.673943,59.1171875 105.186643,58.9843763 104.751094,58.71875 C104.315545,58.4531237 103.976681,58.0830102 103.734492,57.6083984 C103.492303,57.1337867 103.371211,56.6015654 103.371211,56.0117188 L103.371211,55.7597656 C103.371211,55.1503876 103.489374,54.6015649 103.725703,54.1132812 C103.962032,53.6249976 104.291131,53.2412123 104.713008,52.9619141 C105.134885,52.6826158 105.591912,52.5429688 106.084102,52.5429688 C106.853637,52.5429688 107.463982,52.8056614 107.915156,53.3310547 C108.36633,53.8564479 108.591914,54.5742142 108.591914,55.484375 L108.591914,55.8769531 L104.068477,55.8769531 L104.068477,56.0117188 C104.068477,56.7304723 104.274529,57.3290992 104.686641,57.8076172 C105.098752,58.2861352 105.617302,58.5253906 106.242305,58.5253906 C106.617307,58.5253906 106.948358,58.4570319 107.235469,58.3203125 C107.52258,58.1835931 107.783319,57.9648453 108.017695,57.6640625 L108.457148,57.9980469 C107.941521,58.7441444 107.193481,59.1171875 106.213008,59.1171875 L106.213008,59.1171875 Z M106.084102,53.140625 C105.556755,53.140625 105.112424,53.3339824 104.751094,53.7207031 C104.389764,54.1074238 104.170039,54.6269499 104.091914,55.2792969 L107.894648,55.2792969 L107.894648,55.203125 C107.875117,54.593747 107.701291,54.0976582 107.373164,53.7148438 C107.045037,53.3320293 106.615354,53.140625 106.084102,53.140625 L106.084102,53.140625 Z M122.307969,51.0839844 L119.384141,51.0839844 L119.384141,59 L118.663438,59 L118.663438,51.0839844 L115.745469,51.0839844 L115.745469,50.46875 L122.307969,50.46875 L122.307969,51.0839844 Z M125.566016,59 L124.862891,59 L124.862891,52.6601562 L125.566016,52.6601562 L125.566016,59 Z M124.739844,50.8261719 C124.739844,50.6933587 124.782812,50.5810551 124.86875,50.4892578 C124.954688,50.3974605 125.071874,50.3515625 125.220313,50.3515625 C125.368751,50.3515625 125.486914,50.3974605 125.574805,50.4892578 C125.662696,50.5810551 125.706641,50.6933587 125.706641,50.8261719 C125.706641,50.958985 125.662696,51.0703121 125.574805,51.1601562 C125.486914,51.2500004 125.368751,51.2949219 125.220313,51.2949219 C125.071874,51.2949219 124.954688,51.2500004 124.86875,51.1601562 C124.782812,51.0703121 124.739844,50.958985 124.739844,50.8261719 L124.739844,50.8261719 Z M128.343594,55.7363281 C128.343594,55.1269501 128.461757,54.5781274 128.698086,54.0898438 C128.934415,53.6015601 129.268396,53.221681 129.700039,52.9501953 C130.131682,52.6787096 130.620935,52.5429688 131.167813,52.5429688 C132.011567,52.5429688 132.695154,52.8388642 133.218594,53.4306641 C133.742034,54.0224639 134.00375,54.8066357 134.00375,55.7832031 L134.00375,55.9296875 C134.00375,56.5429718 133.885587,57.0947241 133.649258,57.5849609 C133.412929,58.0751978 133.079924,58.4531237 132.650234,58.71875 C132.220545,58.9843763 131.730315,59.1171875 131.179531,59.1171875 C130.339683,59.1171875 129.657073,58.821292 129.13168,58.2294922 C128.606286,57.6376924 128.343594,56.8535205 128.343594,55.8769531 L128.343594,55.7363281 Z M129.046719,55.9296875 C129.046719,56.6875038 129.243006,57.3095679 129.635586,57.7958984 C130.028166,58.282229 130.542809,58.5253906 131.179531,58.5253906 C131.812347,58.5253906 132.325037,58.282229 132.717617,57.7958984 C133.110197,57.3095679 133.306484,56.6679727 133.306484,55.8710938 L133.306484,55.7363281 C133.306484,55.2519507 133.216642,54.8085958 133.036953,54.40625 C132.857265,54.0039042 132.605314,53.6923839 132.281094,53.4716797 C131.956873,53.2509755 131.585783,53.140625 131.167813,53.140625 C130.542809,53.140625 130.033049,53.3857397 129.638516,53.8759766 C129.243982,54.3662134 129.046719,55.0078085 129.046719,55.8007812 L129.046719,55.9296875 Z M136.429766,55.7714844 C136.429766,54.7792919 136.64949,53.993167 137.088945,53.4130859 C137.528401,52.8330049 138.125074,52.5429688 138.878984,52.5429688 C139.74227,52.5429688 140.398513,52.8867153 140.847734,53.5742188 L140.882891,52.6601562 L141.539141,52.6601562 L141.539141,58.8710938 C141.539141,59.6875041 141.310627,60.333982 140.853594,60.8105469 C140.39656,61.2871118 139.777426,61.5253906 138.996172,61.5253906 C138.554763,61.5253906 138.133869,61.4267588 137.733477,61.2294922 C137.333084,61.0322256 137.017657,60.7695329 136.787187,60.4414062 L137.179766,60.0195312 C137.675862,60.6289093 138.2657,60.9335938 138.949297,60.9335938 C139.535237,60.9335938 139.992264,60.7607439 140.320391,60.4150391 C140.648517,60.0693342 140.818437,59.5898468 140.830156,58.9765625 L140.830156,58.1796875 C140.380935,58.8046906 139.726645,59.1171875 138.867266,59.1171875 C138.132887,59.1171875 137.543049,58.8242217 137.097734,58.2382812 C136.65242,57.6523408 136.429766,56.8613331 136.429766,55.8652344 L136.429766,55.7714844 Z M137.13875,55.8945312 C137.13875,56.703129 137.300858,57.340818 137.625078,57.8076172 C137.949298,58.2744164 138.406325,58.5078125 138.996172,58.5078125 C139.859457,58.5078125 140.470779,58.1210976 140.830156,57.3476562 L140.830156,54.4003906 C140.666093,53.9941386 140.429767,53.6845714 140.121172,53.4716797 C139.812577,53.258788 139.441487,53.1523438 139.007891,53.1523438 C138.418044,53.1523438 137.959064,53.3837867 137.630937,53.8466797 C137.302811,54.3095726 137.13875,54.992183 137.13875,55.8945312 L137.13875,55.8945312 Z M148.629219,59 C148.558906,58.8007803 148.513984,58.5058613 148.494453,58.1152344 C148.248358,58.4355485 147.934885,58.6826163 147.554023,58.8564453 C147.173162,59.0302743 146.769846,59.1171875 146.344062,59.1171875 C145.734684,59.1171875 145.241525,58.9472673 144.86457,58.6074219 C144.487615,58.2675764 144.299141,57.8378932 144.299141,57.3183594 C144.299141,56.7011688 144.555974,56.2128924 145.069648,55.8535156 C145.583323,55.4941388 146.299136,55.3144531 147.217109,55.3144531 L148.488594,55.3144531 L148.488594,54.59375 C148.488594,54.1406227 148.348947,53.784181 148.069648,53.5244141 C147.79035,53.2646471 147.383128,53.1347656 146.847969,53.1347656 C146.359685,53.1347656 145.955392,53.2597644 145.635078,53.5097656 C145.314764,53.7597669 145.154609,54.0605451 145.154609,54.4121094 L144.451484,54.40625 C144.451484,53.9023412 144.685857,53.4658222 145.154609,53.0966797 C145.623362,52.7275372 146.199528,52.5429688 146.883125,52.5429688 C147.59016,52.5429688 148.147771,52.7197248 148.555977,53.0732422 C148.964182,53.4267596 149.174141,53.9199187 149.185859,54.5527344 L149.185859,57.5527344 C149.185859,58.1660187 149.250312,58.6249985 149.379219,58.9296875 L149.379219,59 L148.629219,59 Z M146.426094,58.4960938 C146.894846,58.4960938 147.313787,58.3828136 147.68293,58.15625 C148.052072,57.9296864 148.320624,57.626955 148.488594,57.2480469 L148.488594,55.8535156 L147.234687,55.8535156 C146.535465,55.8613282 145.988596,55.9892566 145.594062,56.2373047 C145.199529,56.4853528 145.002266,56.8261697 145.002266,57.2597656 C145.002266,57.6152362 145.1341,57.9101551 145.397773,58.1445312 C145.661447,58.3789074 146.004217,58.4960938 146.426094,58.4960938 L146.426094,58.4960938 Z M158.571836,55.5253906 L158.571836,59 L157.851133,59 L157.851133,50.46875 L160.757383,50.46875 C161.644106,50.46875 162.344294,50.6953102 162.857969,51.1484375 C163.371643,51.6015648 163.628477,52.2246054 163.628477,53.0175781 C163.628477,53.8183634 163.381409,54.4365213 162.887266,54.8720703 C162.393123,55.3076194 161.677309,55.5253906 160.739805,55.5253906 L158.571836,55.5253906 Z M158.571836,54.9160156 L160.757383,54.9160156 C161.456605,54.9160156 161.989803,54.7500017 162.356992,54.4179688 C162.724182,54.0859358 162.907773,53.6230498 162.907773,53.0292969 C162.907773,52.4394502 162.725158,51.9697283 162.359922,51.6201172 C161.994686,51.2705061 161.476136,51.0917969 160.804258,51.0839844 L158.571836,51.0839844 L158.571836,54.9160156 Z M170.273242,59 C170.202929,58.8007803 170.158008,58.5058613 170.138477,58.1152344 C169.892382,58.4355485 169.578908,58.6826163 169.198047,58.8564453 C168.817186,59.0302743 168.413869,59.1171875 167.988086,59.1171875 C167.378708,59.1171875 166.885549,58.9472673 166.508594,58.6074219 C166.131639,58.2675764 165.943164,57.8378932 165.943164,57.3183594 C165.943164,56.7011688 166.199997,56.2128924 166.713672,55.8535156 C167.227346,55.4941388 167.943159,55.3144531 168.861133,55.3144531 L170.132617,55.3144531 L170.132617,54.59375 C170.132617,54.1406227 169.99297,53.784181 169.713672,53.5244141 C169.434374,53.2646471 169.027151,53.1347656 168.491992,53.1347656 C168.003709,53.1347656 167.599416,53.2597644 167.279102,53.5097656 C166.958787,53.7597669 166.798633,54.0605451 166.798633,54.4121094 L166.095508,54.40625 C166.095508,53.9023412 166.32988,53.4658222 166.798633,53.0966797 C167.267385,52.7275372 167.843551,52.5429688 168.527148,52.5429688 C169.234183,52.5429688 169.791795,52.7197248 170.2,53.0732422 C170.608205,53.4267596 170.818164,53.9199187 170.829883,54.5527344 L170.829883,57.5527344 C170.829883,58.1660187 170.894335,58.6249985 171.023242,58.9296875 L171.023242,59 L170.273242,59 Z M168.070117,58.4960938 C168.53887,58.4960938 168.957811,58.3828136 169.326953,58.15625 C169.696096,57.9296864 169.964648,57.626955 170.132617,57.2480469 L170.132617,55.8535156 L168.878711,55.8535156 C168.179489,55.8613282 167.632619,55.9892566 167.238086,56.2373047 C166.843553,56.4853528 166.646289,56.8261697 166.646289,57.2597656 C166.646289,57.6152362 166.778124,57.9101551 167.041797,58.1445312 C167.30547,58.3789074 167.64824,58.4960938 168.070117,58.4960938 L168.070117,58.4960938 Z M177.755898,57.3886719 C177.755898,57.0410139 177.616251,56.7617198 177.336953,56.5507812 C177.057655,56.3398427 176.636761,56.1748053 176.074258,56.0556641 C175.511755,55.9365228 175.075236,55.7998055 174.764687,55.6455078 C174.454139,55.4912102 174.223673,55.3027355 174.073281,55.0800781 C173.92289,54.8574208 173.847695,54.5878922 173.847695,54.2714844 C173.847695,53.7714819 174.056678,53.3584001 174.474648,53.0322266 C174.892619,52.7060531 175.42777,52.5429688 176.080117,52.5429688 C176.787152,52.5429688 177.354529,52.7177717 177.782266,53.0673828 C178.210002,53.4169939 178.423867,53.8730441 178.423867,54.4355469 L177.720742,54.4355469 C177.720742,54.0644513 177.56547,53.7558606 177.254922,53.5097656 C176.944373,53.2636706 176.552776,53.140625 176.080117,53.140625 C175.619177,53.140625 175.249064,53.243163 174.969766,53.4482422 C174.690467,53.6533213 174.55082,53.9199202 174.55082,54.2480469 C174.55082,54.5644547 174.66703,54.8095694 174.899453,54.9833984 C175.131876,55.1572274 175.5557,55.3164055 176.170937,55.4609375 C176.786175,55.6054695 177.247108,55.7597648 177.55375,55.9238281 C177.860392,56.0878914 178.087929,56.2851551 178.236367,56.515625 C178.384805,56.7460949 178.459023,57.025389 178.459023,57.3535156 C178.459023,57.8886746 178.243205,58.3164046 177.811562,58.6367188 C177.37992,58.9570329 176.816449,59.1171875 176.121133,59.1171875 C175.382848,59.1171875 174.784221,58.9384783 174.325234,58.5810547 C173.866248,58.223631 173.636758,57.7714871 173.636758,57.2246094 L174.339883,57.2246094 C174.367227,57.6347677 174.540077,57.9541004 174.858437,58.1826172 C175.176798,58.411134 175.597693,58.5253906 176.121133,58.5253906 C176.609417,58.5253906 177.003944,58.4179698 177.304727,58.203125 C177.605509,57.9882802 177.755898,57.7167985 177.755898,57.3886719 L177.755898,57.3886719 Z M185.09207,57.3886719 C185.09207,57.0410139 184.952423,56.7617198 184.673125,56.5507812 C184.393827,56.3398427 183.972932,56.1748053 183.41043,56.0556641 C182.847927,55.9365228 182.411408,55.7998055 182.100859,55.6455078 C181.790311,55.4912102 181.559844,55.3027355 181.409453,55.0800781 C181.259062,54.8574208 181.183867,54.5878922 181.183867,54.2714844 C181.183867,53.7714819 181.392849,53.3584001 181.81082,53.0322266 C182.228791,52.7060531 182.763942,52.5429688 183.416289,52.5429688 C184.123324,52.5429688 184.690701,52.7177717 185.118437,53.0673828 C185.546174,53.4169939 185.760039,53.8730441 185.760039,54.4355469 L185.056914,54.4355469 C185.056914,54.0644513 184.901642,53.7558606 184.591094,53.5097656 C184.280545,53.2636706 183.888948,53.140625 183.416289,53.140625 C182.955349,53.140625 182.585236,53.243163 182.305937,53.4482422 C182.026639,53.6533213 181.886992,53.9199202 181.886992,54.2480469 C181.886992,54.5644547 182.003202,54.8095694 182.235625,54.9833984 C182.468048,55.1572274 182.891872,55.3164055 183.507109,55.4609375 C184.122347,55.6054695 184.58328,55.7597648 184.889922,55.9238281 C185.196564,56.0878914 185.424101,56.2851551 185.572539,56.515625 C185.720977,56.7460949 185.795195,57.025389 185.795195,57.3535156 C185.795195,57.8886746 185.579377,58.3164046 185.147734,58.6367188 C184.716092,58.9570329 184.152621,59.1171875 183.457305,59.1171875 C182.71902,59.1171875 182.120393,58.9384783 181.661406,58.5810547 C181.20242,58.223631 180.97293,57.7714871 180.97293,57.2246094 L181.676055,57.2246094 C181.703399,57.6347677 181.876248,57.9541004 182.194609,58.1826172 C182.51297,58.411134 182.933865,58.5253906 183.457305,58.5253906 C183.945588,58.5253906 184.340116,58.4179698 184.640898,58.203125 C184.941681,57.9882802 185.09207,57.7167985 185.09207,57.3886719 L185.09207,57.3886719 Z M193.616719,55.7363281 C193.616719,55.1269501 193.734882,54.5781274 193.971211,54.0898438 C194.20754,53.6015601 194.541521,53.221681 194.973164,52.9501953 C195.404807,52.6787096 195.89406,52.5429688 196.440938,52.5429688 C197.284692,52.5429688 197.968279,52.8388642 198.491719,53.4306641 C199.015159,54.0224639 199.276875,54.8066357 199.276875,55.7832031 L199.276875,55.9296875 C199.276875,56.5429718 199.158712,57.0947241 198.922383,57.5849609 C198.686054,58.0751978 198.353049,58.4531237 197.923359,58.71875 C197.49367,58.9843763 197.00344,59.1171875 196.452656,59.1171875 C195.612808,59.1171875 194.930198,58.821292 194.404805,58.2294922 C193.879411,57.6376924 193.616719,56.8535205 193.616719,55.8769531 L193.616719,55.7363281 Z M194.319844,55.9296875 C194.319844,56.6875038 194.516131,57.3095679 194.908711,57.7958984 C195.301291,58.282229 195.815934,58.5253906 196.452656,58.5253906 C197.085472,58.5253906 197.598162,58.282229 197.990742,57.7958984 C198.383322,57.3095679 198.579609,56.6679727 198.579609,55.8710938 L198.579609,55.7363281 C198.579609,55.2519507 198.489767,54.8085958 198.310078,54.40625 C198.13039,54.0039042 197.878439,53.6923839 197.554219,53.4716797 C197.229998,53.2509755 196.858908,53.140625 196.440938,53.140625 C195.815934,53.140625 195.306174,53.3857397 194.911641,53.8759766 C194.517107,54.3662134 194.319844,55.0078085 194.319844,55.8007812 L194.319844,55.9296875 Z M202.652109,52.6601562 L202.675547,53.7441406 C202.913829,53.3535137 203.210701,53.0556651 203.566172,52.8505859 C203.921642,52.6455068 204.314217,52.5429688 204.743906,52.5429688 C205.423597,52.5429688 205.929451,52.7343731 206.261484,53.1171875 C206.593517,53.5000019 206.761484,54.0742149 206.765391,54.8398438 L206.765391,59 L206.068125,59 L206.068125,54.8339844 C206.064219,54.2675753 205.944103,53.8457045 205.707773,53.5683594 C205.471444,53.2910142 205.093518,53.1523438 204.573984,53.1523438 C204.140388,53.1523438 203.756603,53.2880846 203.422617,53.5595703 C203.088631,53.831056 202.841563,54.1972633 202.681406,54.6582031 L202.681406,59 L201.984141,59 L201.984141,52.6601562 L202.652109,52.6601562 Z M2.00390625,67.0371094 L2.00390625,68.6601562 L3.31640625,68.6601562 L3.31640625,69.234375 L2.00390625,69.234375 L2.00390625,73.4589844 C2.00390625,73.8105486 2.06738218,74.0722648 2.19433594,74.2441406 C2.3212897,74.4160165 2.53320164,74.5019531 2.83007812,74.5019531 C2.94726621,74.5019531 3.13671744,74.4824221 3.3984375,74.4433594 L3.42773438,75.0175781 C3.24413971,75.0839847 2.99414221,75.1171875 2.67773438,75.1171875 C2.19726322,75.1171875 1.84765734,74.9775405 1.62890625,74.6982422 C1.41015516,74.4189439 1.30078125,74.0078152 1.30078125,73.4648438 L1.30078125,69.234375 L0.134765625,69.234375 L0.134765625,68.6601562 L1.30078125,68.6601562 L1.30078125,67.0371094 L2.00390625,67.0371094 Z M6.72679687,69.7324219 C6.95726677,69.3535137 7.25218569,69.0605479 7.61156249,68.8535156 C7.97093929,68.6464833 8.36351349,68.5429688 8.78929687,68.5429688 C9.46898776,68.5429688 9.97484208,68.7343731 10.306875,69.1171875 C10.6389079,69.5000019 10.806875,70.0742149 10.8107812,70.8398438 L10.8107812,75 L10.1135156,75 L10.1135156,70.8339844 C10.1096093,70.2675753 9.98949336,69.8457045 9.75316405,69.5683594 C9.51683475,69.2910142 9.13890884,69.1523438 8.61937499,69.1523438 C8.18577907,69.1523438 7.80199385,69.2880846 7.4680078,69.5595703 C7.13402176,69.831056 6.88695392,70.1972633 6.72679687,70.6582031 L6.72679687,75 L6.02953124,75 L6.02953124,66 L6.72679687,66 L6.72679687,69.7324219 Z M16.3305469,75.1171875 C15.7914817,75.1171875 15.3041818,74.9843763 14.8686328,74.71875 C14.4330837,74.4531237 14.0942199,74.0830102 13.8520312,73.6083984 C13.6098425,73.1337867 13.48875,72.6015654 13.48875,72.0117188 L13.48875,71.7597656 C13.48875,71.1503876 13.6069129,70.6015649 13.8432422,70.1132812 C14.0795715,69.6249976 14.4086697,69.2412123 14.8305469,68.9619141 C15.252424,68.6826158 15.7094506,68.5429688 16.2016406,68.5429688 C16.9711757,68.5429688 17.5815212,68.8056614 18.0326953,69.3310547 C18.4838694,69.8564479 18.7094531,70.5742142 18.7094531,71.484375 L18.7094531,71.8769531 L14.1860156,71.8769531 L14.1860156,72.0117188 C14.1860156,72.7304723 14.3920682,73.3290992 14.8041797,73.8076172 C15.2162911,74.2861352 15.7348406,74.5253906 16.3598437,74.5253906 C16.7348456,74.5253906 17.065897,74.4570319 17.3530078,74.3203125 C17.6401186,74.1835931 17.9008582,73.9648453 18.1352344,73.6640625 L18.5746875,73.9980469 C18.0590599,74.7441444 17.3110205,75.1171875 16.3305469,75.1171875 L16.3305469,75.1171875 Z M16.2016406,69.140625 C15.6742942,69.140625 15.2299627,69.3339824 14.8686328,69.7207031 C14.5073029,70.1074238 14.2875785,70.6269499 14.2094531,71.2792969 L18.0121875,71.2792969 L18.0121875,71.203125 C17.9926561,70.593747 17.8188297,70.0976582 17.4907031,69.7148438 C17.1625765,69.3320293 16.7328933,69.140625 16.2016406,69.140625 L16.2016406,69.140625 Z M30.5048437,72.9023438 C30.5048437,72.4296851 30.3388297,72.0556654 30.0067968,71.7802734 C29.6747639,71.5048814 29.0673481,71.2431653 28.1845312,70.9951172 C27.3017143,70.7470691 26.6571895,70.476564 26.2509375,70.1835938 C25.6728096,69.7695292 25.38375,69.2265659 25.38375,68.5546875 C25.38375,67.9023405 25.652302,67.3720724 26.189414,66.9638672 C26.7265261,66.555662 27.4130427,66.3515625 28.2489843,66.3515625 C28.8153934,66.3515625 29.3222243,66.4609364 29.7694921,66.6796875 C30.21676,66.8984386 30.5634362,67.203123 30.8095312,67.59375 C31.0556262,67.984377 31.1786718,68.4199195 31.1786718,68.9003906 L30.4521093,68.9003906 C30.4521093,68.3183565 30.2528926,67.8505877 29.8544531,67.4970703 C29.4560136,67.1435529 28.9208627,66.9667969 28.2489843,66.9667969 C27.5966373,66.9667969 27.0771113,67.1123032 26.6903906,67.4033203 C26.3036699,67.6943374 26.1103125,68.0742164 26.1103125,68.5429688 C26.1103125,68.9765647 26.2841388,69.3300768 26.6317968,69.6035156 C26.9794548,69.8769545 27.5360899,70.118163 28.3017187,70.3271484 C29.0673475,70.5361339 29.6474199,70.7529286 30.0419531,70.9775391 C30.4364863,71.2021496 30.7333583,71.4707016 30.9325781,71.7832031 C31.1317978,72.0957047 31.2314062,72.4648416 31.2314062,72.890625 C31.2314062,73.5625034 30.9628542,74.1015605 30.4257421,74.5078125 C29.8886301,74.9140645 29.1806294,75.1171875 28.3017187,75.1171875 C27.7001532,75.1171875 27.1484009,75.0097667 26.6464453,74.7949219 C26.1444896,74.5800771 25.7636341,74.2792988 25.5038671,73.8925781 C25.2441002,73.5058574 25.1142187,73.0625025 25.1142187,72.5625 L25.8349218,72.5625 C25.8349218,73.1640655 26.059529,73.6386701 26.50875,73.9863281 C26.957971,74.3339861 27.5556212,74.5078125 28.3017187,74.5078125 C28.9657845,74.5078125 29.4989823,74.3613296 29.9013281,74.0683594 C30.3036738,73.7753892 30.5048437,73.3867212 30.5048437,72.9023438 L30.5048437,72.9023438 Z M34.9699218,67.0371094 L34.9699218,68.6601562 L36.2824218,68.6601562 L36.2824218,69.234375 L34.9699218,69.234375 L34.9699218,73.4589844 C34.9699218,73.8105486 35.0333978,74.0722648 35.1603515,74.2441406 C35.2873053,74.4160165 35.4992172,74.5019531 35.7960937,74.5019531 C35.9132818,74.5019531 36.102733,74.4824221 36.3644531,74.4433594 L36.39375,75.0175781 C36.2101553,75.0839847 35.9601578,75.1171875 35.64375,75.1171875 C35.1632788,75.1171875 34.8136729,74.9775405 34.5949218,74.6982422 C34.3761707,74.4189439 34.2667968,74.0078152 34.2667968,73.4648438 L34.2667968,69.234375 L33.1007812,69.234375 L33.1007812,68.6601562 L34.2667968,68.6601562 L34.2667968,67.0371094 L34.9699218,67.0371094 Z M42.9974999,75 C42.9271871,74.8007803 42.8822657,74.5058613 42.8627343,74.1152344 C42.6166393,74.4355485 42.3031659,74.6826163 41.9223046,74.8564453 C41.5414434,75.0302743 41.1381271,75.1171875 40.7123437,75.1171875 C40.1029656,75.1171875 39.6098065,74.9472673 39.2328515,74.6074219 C38.8558965,74.2675764 38.6674218,73.8378932 38.6674218,73.3183594 C38.6674218,72.7011688 38.9242552,72.2128924 39.4379296,71.8535156 C39.9516041,71.4941388 40.6674172,71.3144531 41.5853906,71.3144531 L42.8568749,71.3144531 L42.8568749,70.59375 C42.8568749,70.1406227 42.7172279,69.784181 42.4379296,69.5244141 C42.1586314,69.2646471 41.7514089,69.1347656 41.2162499,69.1347656 C40.7279663,69.1347656 40.3236734,69.2597644 40.0033593,69.5097656 C39.6830452,69.7597669 39.5228906,70.0605451 39.5228906,70.4121094 L38.8197656,70.40625 C38.8197656,69.9023412 39.0541382,69.4658222 39.5228906,69.0966797 C39.9916429,68.7275372 40.567809,68.5429688 41.2514062,68.5429688 C41.958441,68.5429688 42.5160526,68.7197248 42.9242578,69.0732422 C43.3324629,69.4267596 43.5424218,69.9199187 43.5541406,70.5527344 L43.5541406,73.5527344 C43.5541406,74.1660187 43.618593,74.6249985 43.7474999,74.9296875 L43.7474999,75 L42.9974999,75 Z M40.7943749,74.4960938 C41.2631273,74.4960938 41.6820684,74.3828136 42.0512109,74.15625 C42.4203534,73.9296864 42.6889054,73.626955 42.8568749,73.2480469 L42.8568749,71.8535156 L41.6029687,71.8535156 C40.9037464,71.8613282 40.3568769,71.9892566 39.9623437,72.2373047 C39.5678105,72.4853528 39.3705468,72.8261697 39.3705468,73.2597656 C39.3705468,73.6152362 39.5023814,73.9101551 39.7660546,74.1445312 C40.0297278,74.3789074 40.3724978,74.4960938 40.7943749,74.4960938 L40.7943749,74.4960938 Z M47.7731249,67.0371094 L47.7731249,68.6601562 L49.0856249,68.6601562 L49.0856249,69.234375 L47.7731249,69.234375 L47.7731249,73.4589844 C47.7731249,73.8105486 47.8366009,74.0722648 47.9635546,74.2441406 C48.0905084,74.4160165 48.3024203,74.5019531 48.5992968,74.5019531 C48.7164849,74.5019531 48.9059361,74.4824221 49.1676562,74.4433594 L49.1969531,75.0175781 C49.0133584,75.0839847 48.7633609,75.1171875 48.4469531,75.1171875 C47.9664819,75.1171875 47.616876,74.9775405 47.3981249,74.6982422 C47.1793738,74.4189439 47.0699999,74.0078152 47.0699999,73.4648438 L47.0699999,69.234375 L45.9039843,69.234375 L45.9039843,68.6601562 L47.0699999,68.6601562 L47.0699999,67.0371094 L47.7731249,67.0371094 Z M54.253828,75.1171875 C53.7147629,75.1171875 53.227463,74.9843763 52.791914,74.71875 C52.3563649,74.4531237 52.0175011,74.0830102 51.7753124,73.6083984 C51.5331237,73.1337867 51.4120312,72.6015654 51.4120312,72.0117188 L51.4120312,71.7597656 C51.4120312,71.1503876 51.5301941,70.6015649 51.7665234,70.1132812 C52.0028527,69.6249976 52.3319509,69.2412123 52.753828,68.9619141 C53.1757052,68.6826158 53.6327318,68.5429688 54.1249218,68.5429688 C54.8944569,68.5429688 55.5048024,68.8056614 55.9559765,69.3310547 C56.4071506,69.8564479 56.6327343,70.5742142 56.6327343,71.484375 L56.6327343,71.8769531 L52.1092968,71.8769531 L52.1092968,72.0117188 C52.1092968,72.7304723 52.3153494,73.3290992 52.7274609,73.8076172 C53.1395723,74.2861352 53.6581218,74.5253906 54.2831249,74.5253906 C54.6581268,74.5253906 54.9891782,74.4570319 55.276289,74.3203125 C55.5633998,74.1835931 55.8241394,73.9648453 56.0585155,73.6640625 L56.4979687,73.9980469 C55.9823411,74.7441444 55.2343017,75.1171875 54.253828,75.1171875 L54.253828,75.1171875 Z M54.1249218,69.140625 C53.5975754,69.140625 53.1532439,69.3339824 52.791914,69.7207031 C52.4305841,70.1074238 52.2108597,70.6269499 52.1327343,71.2792969 L55.9354687,71.2792969 L55.9354687,71.203125 C55.9159373,70.593747 55.7421109,70.0976582 55.4139843,69.7148438 C55.0858577,69.3320293 54.6561745,69.140625 54.1249218,69.140625 L54.1249218,69.140625 Z M66.7874999,71.4492188 L64.3089843,71.4492188 L64.3089843,75 L63.5824218,75 L63.5824218,66.46875 L66.3539062,66.46875 C67.264067,66.46875 67.9749973,66.6894509 68.4867187,67.1308594 C68.99844,67.5722678 69.2542968,68.1894492 69.2542968,68.9824219 C69.2542968,69.5292996 69.0941421,70.0117167 68.773828,70.4296875 C68.4535139,70.8476583 68.0238307,71.1367179 67.4847655,71.296875 L69.617578,74.9238281 L69.617578,75 L68.8499999,75 L66.7874999,71.4492188 Z M64.3089843,70.8339844 L66.5179687,70.8339844 C67.1234404,70.8339844 67.6097637,70.6621111 67.976953,70.3183594 C68.3441424,69.9746077 68.5277343,69.5292996 68.5277343,68.9824219 C68.5277343,68.3808564 68.3363299,67.9140642 67.9535155,67.5820312 C67.5707011,67.2499983 67.0335971,67.0839844 66.3421874,67.0839844 L64.3089843,67.0839844 L64.3089843,70.8339844 Z M71.9264061,71.7363281 C71.9264061,71.1269501 72.044569,70.5781274 72.2808983,70.0898438 C72.5172276,69.6015601 72.8512087,69.221681 73.2828515,68.9501953 C73.7144942,68.6787096 74.2037472,68.5429688 74.7506249,68.5429688 C75.5943791,68.5429688 76.277966,68.8388642 76.8014061,69.4306641 C77.3248463,70.0224639 77.5865624,70.8066357 77.5865624,71.7832031 L77.5865624,71.9296875 C77.5865624,72.5429718 77.4683995,73.0947241 77.2320702,73.5849609 C76.9957409,74.0751978 76.6627364,74.4531237 76.2330468,74.71875 C75.8033571,74.9843763 75.3131276,75.1171875 74.7623436,75.1171875 C73.9224957,75.1171875 73.2398853,74.821292 72.7144921,74.2294922 C72.1890988,73.6376924 71.9264061,72.8535205 71.9264061,71.8769531 L71.9264061,71.7363281 Z M72.6295311,71.9296875 C72.6295311,72.6875038 72.8258182,73.3095679 73.2183983,73.7958984 C73.6109784,74.282229 74.1256217,74.5253906 74.7623436,74.5253906 C75.3951593,74.5253906 75.9078495,74.282229 76.3004296,73.7958984 C76.6930097,73.3095679 76.8892968,72.6679727 76.8892968,71.8710938 L76.8892968,71.7363281 C76.8892968,71.2519507 76.7994539,70.8085958 76.6197655,70.40625 C76.4400771,70.0039042 76.1881265,69.6923839 75.8639061,69.4716797 C75.5396858,69.2509755 75.1685957,69.140625 74.7506249,69.140625 C74.1256218,69.140625 73.6158612,69.3857397 73.221328,69.8759766 C72.8267948,70.3662134 72.6295311,71.0078085 72.6295311,71.8007812 L72.6295311,71.9296875 Z M84.371953,74.1972656 C83.9500759,74.8105499 83.2762545,75.1171875 82.3504686,75.1171875 C81.674684,75.1171875 81.1610173,74.9209004 80.809453,74.5283203 C80.4578888,74.1357402 80.278203,73.5546913 80.2703905,72.7851562 L80.2703905,68.6601562 L80.9676561,68.6601562 L80.9676561,72.6972656 C80.9676561,73.9043029 81.4559325,74.5078125 82.4324999,74.5078125 C83.44813,74.5078125 84.0907017,74.0878948 84.3602343,73.2480469 L84.3602343,68.6601562 L85.0633593,68.6601562 L85.0633593,75 L84.3836718,75 L84.371953,74.1972656 Z M89.2354686,67.0371094 L89.2354686,68.6601562 L90.5479686,68.6601562 L90.5479686,69.234375 L89.2354686,69.234375 L89.2354686,73.4589844 C89.2354686,73.8105486 89.2989446,74.0722648 89.4258983,74.2441406 C89.5528521,74.4160165 89.764764,74.5019531 90.0616405,74.5019531 C90.1788286,74.5019531 90.3682798,74.4824221 90.6299999,74.4433594 L90.6592968,75.0175781 C90.4757021,75.0839847 90.2257046,75.1171875 89.9092968,75.1171875 C89.4288256,75.1171875 89.0792197,74.9775405 88.8604686,74.6982422 C88.6417175,74.4189439 88.5323436,74.0078152 88.5323436,73.4648438 L88.5323436,69.234375 L87.366328,69.234375 L87.366328,68.6601562 L88.5323436,68.6601562 L88.5323436,67.0371094 L89.2354686,67.0371094 Z M95.7161717,75.1171875 C95.1771065,75.1171875 94.6898067,74.9843763 94.2542577,74.71875 C93.8187086,74.4531237 93.4798448,74.0830102 93.2376561,73.6083984 C92.9954674,73.1337867 92.8743749,72.6015654 92.8743749,72.0117188 L92.8743749,71.7597656 C92.8743749,71.1503876 92.9925377,70.6015649 93.2288671,70.1132812 C93.4651964,69.6249976 93.7942946,69.2412123 94.2161717,68.9619141 C94.6380489,68.6826158 95.0950755,68.5429688 95.5872655,68.5429688 C96.3568006,68.5429688 96.967146,68.8056614 97.4183202,69.3310547 C97.8694943,69.8564479 98.095078,70.5742142 98.095078,71.484375 L98.095078,71.8769531 L93.5716405,71.8769531 L93.5716405,72.0117188 C93.5716405,72.7304723 93.7776931,73.3290992 94.1898046,73.8076172 C94.601916,74.2861352 95.1204655,74.5253906 95.7454686,74.5253906 C96.1204705,74.5253906 96.4515219,74.4570319 96.7386327,74.3203125 C97.0257435,74.1835931 97.2864831,73.9648453 97.5208592,73.6640625 L97.9603124,73.9980469 C97.4446848,74.7441444 96.6966454,75.1171875 95.7161717,75.1171875 L95.7161717,75.1171875 Z M95.5872655,69.140625 C95.0599191,69.140625 94.6155876,69.3339824 94.2542577,69.7207031 C93.8929277,70.1074238 93.6732034,70.6269499 93.595078,71.2792969 L97.3978124,71.2792969 L97.3978124,71.203125 C97.378281,70.593747 97.2044546,70.0976582 96.876328,69.7148438 C96.5482014,69.3320293 96.1185181,69.140625 95.5872655,69.140625 L95.5872655,69.140625 Z M108.050625,75 L107.3475,75 L107.3475,67.3125 L105.027187,68.1738281 L105.027187,67.5175781 L107.933437,66.4394531 L108.050625,66.4394531 L108.050625,75 Z M118.041094,75 L112.697344,75 L112.697344,74.4609375 L115.621172,71.1445312 C116.105549,70.5859347 116.441483,70.1250018 116.628984,69.7617188 C116.816485,69.3984357 116.910234,69.0449236 116.910234,68.7011719 C116.910234,68.1621067 116.752033,67.7353531 116.435625,67.4208984 C116.119217,67.1064437 115.683674,66.9492188 115.128984,66.9492188 C114.554763,66.9492188 114.0909,67.1328107 113.737383,67.5 C113.383865,67.8671893 113.207109,68.3437471 113.207109,68.9296875 L112.509844,68.9296875 C112.509844,68.4492163 112.618241,68.0117207 112.835039,67.6171875 C113.051837,67.2226543 113.360428,66.9130871 113.76082,66.6884766 C114.161213,66.4638661 114.617263,66.3515625 115.128984,66.3515625 C115.910238,66.3515625 116.520584,66.5566386 116.960039,66.9667969 C117.399494,67.3769552 117.619219,67.9355433 117.619219,68.6425781 C117.619219,69.0410176 117.495196,69.4765601 117.247148,69.9492188 C116.9991,70.4218774 116.562581,71.0117152 115.937578,71.71875 L113.558672,74.4082031 L118.041094,74.4082031 L118.041094,75 Z M125.752265,71.4433594 C125.752265,72.6464904 125.531565,73.5595672 125.090156,74.1826172 C124.648748,74.8056672 123.998364,75.1171875 123.138984,75.1171875 C122.29523,75.1171875 121.648752,74.8115265 121.199531,74.2001953 C120.75031,73.5888641 120.519844,72.6992246 120.508125,71.53125 L120.508125,70.0019531 C120.508125,68.8027284 120.730779,67.8945343 121.176094,67.2773438 C121.621408,66.6601532 122.271792,66.3515625 123.127265,66.3515625 C123.97102,66.3515625 124.615544,66.6494111 125.060859,67.2451172 C125.506174,67.8408233 125.73664,68.7187442 125.752265,69.8789062 L125.752265,71.4433594 Z M125.04914,69.9140625 C125.04914,68.9374951 124.889962,68.1992212 124.571601,67.6992188 C124.25324,67.1992163 123.7718,66.9492188 123.127265,66.9492188 C122.49445,66.9492188 122.017892,67.1933569 121.697578,67.6816406 C121.377264,68.1699243 121.213203,68.8906202 121.20539,69.84375 L121.20539,71.5195312 C121.20539,72.4921924 121.370428,73.2363255 121.700508,73.7519531 C122.030587,74.2675807 122.510075,74.5253906 123.138984,74.5253906 C123.763987,74.5253906 124.237615,74.27344 124.559883,73.7695312 C124.88215,73.2656225 125.045234,72.5273486 125.04914,71.5546875 L125.04914,69.9140625 Z M128.565,74.578125 C128.565,74.4414056 128.608945,74.3251958 128.696836,74.2294922 C128.784727,74.1337886 128.906796,74.0859375 129.063047,74.0859375 C129.219297,74.0859375 129.342343,74.1337886 129.432187,74.2294922 C129.522032,74.3251958 129.566953,74.4414056 129.566953,74.578125 C129.566953,74.7148444 129.522032,74.827148 129.432187,74.9150391 C129.342343,75.0029301 129.219297,75.046875 129.063047,75.046875 C128.906796,75.046875 128.784727,75.0029301 128.696836,74.9150391 C128.608945,74.827148 128.565,74.7148444 128.565,74.578125 L128.565,74.578125 Z" id="9,943-feet-above-the"></path>
            </g>
        </g>
    </g>
</svg>