<?xml version="1.0" encoding="UTF-8"?>
<svg width="60px" height="10px" viewBox="0 0 60 10" version="1.1" xmlns="http://www.w3.org/2000/svg" xmlns:xlink="http://www.w3.org/1999/xlink">
    <!-- Generator: Sketch 41.2 (35397) - http://www.bohemiancoding.com/sketch -->
    <title>Yosemite</title>
    <desc>Created with Sketch.</desc>
    <defs></defs>
    <g id="Page-1" stroke="none" stroke-width="1" fill="none" fill-rule="evenodd">
        <g id="index-1-rast" transform="translate(-169.000000, -565.000000)" fill="#FFFFFF">
            <path d="M172.580078,570.121094 L175.1875,565.46875 L176.019531,565.46875 L172.9375,570.789062 L172.9375,574 L172.216797,574 L172.216797,570.789062 L169.140625,565.46875 L169.996094,565.46875 L172.580078,570.121094 Z M177.847221,570.736328 C177.847221,570.12695 177.965384,569.578127 178.201713,569.089844 C178.438042,568.60156 178.772023,568.221681 179.203666,567.950195 C179.635309,567.67871 180.124562,567.542969 180.67144,567.542969 C181.515194,567.542969 182.198781,567.838864 182.722221,568.430664 C183.245661,569.022464 183.507377,569.806636 183.507377,570.783203 L183.507377,570.929688 C183.507377,571.542972 183.389214,572.094724 183.152885,572.584961 C182.916556,573.075198 182.583551,573.453124 182.153862,573.71875 C181.724172,573.984376 181.233942,574.117188 180.683158,574.117188 C179.84331,574.117188 179.1607,573.821292 178.635307,573.229492 C178.109914,572.637692 177.847221,571.853521 177.847221,570.876953 L177.847221,570.736328 Z M178.550346,570.929688 C178.550346,571.687504 178.746633,572.309568 179.139213,572.795898 C179.531793,573.282229 180.046436,573.525391 180.683158,573.525391 C181.315974,573.525391 181.828664,573.282229 182.221244,572.795898 C182.613824,572.309568 182.810112,571.667973 182.810112,570.871094 L182.810112,570.736328 C182.810112,570.251951 182.720269,569.808596 182.54058,569.40625 C182.360892,569.003904 182.108941,568.692384 181.784721,568.47168 C181.460501,568.250975 181.08941,568.140625 180.67144,568.140625 C180.046437,568.140625 179.536676,568.38574 179.142143,568.875977 C178.74761,569.366213 178.550346,570.007809 178.550346,570.800781 L178.550346,570.929688 Z M190.268661,572.388672 C190.268661,572.041014 190.129014,571.76172 189.849715,571.550781 C189.570417,571.339843 189.149523,571.174805 188.58702,571.055664 C188.024517,570.936523 187.587998,570.799805 187.27745,570.645508 C186.966901,570.49121 186.736435,570.302735 186.586043,570.080078 C186.435652,569.857421 186.360457,569.587892 186.360457,569.271484 C186.360457,568.771482 186.56944,568.3584 186.987411,568.032227 C187.405381,567.706053 187.940532,567.542969 188.592879,567.542969 C189.299914,567.542969 189.867291,567.717772 190.295028,568.067383 C190.722764,568.416994 190.936629,568.873044 190.936629,569.435547 L190.233504,569.435547 C190.233504,569.064451 190.078232,568.755861 189.767684,568.509766 C189.457136,568.263671 189.065538,568.140625 188.592879,568.140625 C188.131939,568.140625 187.761826,568.243163 187.482528,568.448242 C187.203229,568.653321 187.063582,568.91992 187.063582,569.248047 C187.063582,569.564455 187.179792,569.809569 187.412215,569.983398 C187.644638,570.157227 188.068462,570.316406 188.6837,570.460938 C189.298937,570.605469 189.75987,570.759765 190.066512,570.923828 C190.373154,571.087891 190.600691,571.285155 190.749129,571.515625 C190.897568,571.746095 190.971786,572.025389 190.971786,572.353516 C190.971786,572.888675 190.755967,573.316405 190.324325,573.636719 C189.892682,573.957033 189.329211,574.117188 188.633895,574.117188 C187.89561,574.117188 187.296983,573.938478 186.837996,573.581055 C186.37901,573.223631 186.14952,572.771487 186.14952,572.224609 L186.852645,572.224609 C186.879989,572.634768 187.052839,572.9541 187.3712,573.182617 C187.689561,573.411134 188.110455,573.525391 188.633895,573.525391 C189.122179,573.525391 189.516706,573.41797 189.817489,573.203125 C190.118271,572.98828 190.268661,572.716799 190.268661,572.388672 Z M196.520178,574.117188 C195.981113,574.117188 195.493813,573.984376 195.058264,573.71875 C194.622715,573.453124 194.283851,573.08301 194.041663,572.608398 C193.799474,572.133787 193.678381,571.601565 193.678381,571.011719 L193.678381,570.759766 C193.678381,570.150388 193.796544,569.601565 194.032874,569.113281 C194.269203,568.624998 194.598301,568.241212 195.020178,567.961914 C195.442055,567.682616 195.899082,567.542969 196.391272,567.542969 C197.160807,567.542969 197.771153,567.805661 198.222327,568.331055 C198.673501,568.856448 198.899085,569.574214 198.899085,570.484375 L198.899085,570.876953 L194.375647,570.876953 L194.375647,571.011719 C194.375647,571.730472 194.5817,572.329099 194.993811,572.807617 C195.405923,573.286135 195.924472,573.525391 196.549475,573.525391 C196.924477,573.525391 197.255528,573.457032 197.542639,573.320312 C197.82975,573.183593 198.09049,572.964845 198.324866,572.664062 L198.764319,572.998047 C198.248691,573.744144 197.500652,574.117188 196.520178,574.117188 Z M196.391272,568.140625 C195.863926,568.140625 195.419594,568.333982 195.058264,568.720703 C194.696934,569.107424 194.47721,569.62695 194.399085,570.279297 L198.201819,570.279297 L198.201819,570.203125 C198.182288,569.593747 198.008461,569.097658 197.680335,568.714844 C197.352208,568.332029 196.922525,568.140625 196.391272,568.140625 Z M202.420134,567.660156 L202.443571,568.691406 C202.677947,568.308592 202.970913,568.021485 203.322477,567.830078 C203.674042,567.638671 204.064663,567.542969 204.494352,567.542969 C205.494357,567.542969 206.129117,567.953121 206.398649,568.773438 C206.625213,568.378904 206.927944,568.075196 207.306852,567.862305 C207.68576,567.649413 208.103725,567.542969 208.560759,567.542969 C209.92014,567.542969 210.613493,568.285149 210.640837,569.769531 L210.640837,574 L209.937712,574 L209.937712,569.822266 C209.933805,569.255857 209.811736,568.835939 209.571501,568.5625 C209.331265,568.289061 208.939668,568.152344 208.396696,568.152344 C207.892787,568.160156 207.46701,568.323241 207.119352,568.641602 C206.771694,568.959963 206.578337,569.347654 206.539274,569.804688 L206.539274,574 L205.836149,574 L205.836149,569.769531 C205.832243,569.22656 205.704315,568.82129 205.45236,568.553711 C205.200406,568.286131 204.812714,568.152344 204.289274,568.152344 C203.847866,568.152344 203.468963,568.278319 203.152555,568.530273 C202.836148,568.782228 202.601775,569.156248 202.44943,569.652344 L202.44943,574 L201.746305,574 L201.746305,567.660156 L202.420134,567.660156 Z M214.718526,574 L214.015401,574 L214.015401,567.660156 L214.718526,567.660156 L214.718526,574 Z M213.892354,565.826172 C213.892354,565.693359 213.935323,565.581055 214.021261,565.489258 C214.107199,565.39746 214.224385,565.351562 214.372823,565.351562 C214.521261,565.351562 214.639424,565.39746 214.727315,565.489258 C214.815206,565.581055 214.859151,565.693359 214.859151,565.826172 C214.859151,565.958985 214.815206,566.070312 214.727315,566.160156 C214.639424,566.25 214.521261,566.294922 214.372823,566.294922 C214.224385,566.294922 214.107199,566.25 214.021261,566.160156 C213.935323,566.070312 213.892354,565.958985 213.892354,565.826172 Z M219.22981,566.037109 L219.22981,567.660156 L220.54231,567.660156 L220.54231,568.234375 L219.22981,568.234375 L219.22981,572.458984 C219.22981,572.810549 219.293286,573.072265 219.420239,573.244141 C219.547193,573.416016 219.759105,573.501953 220.055982,573.501953 C220.17317,573.501953 220.362621,573.482422 220.624341,573.443359 L220.653638,574.017578 C220.470043,574.083985 220.220046,574.117188 219.903638,574.117188 C219.423167,574.117188 219.073561,573.97754 218.85481,573.698242 C218.636059,573.418944 218.526685,573.007815 218.526685,572.464844 L218.526685,568.234375 L217.360669,568.234375 L217.360669,567.660156 L218.526685,567.660156 L218.526685,566.037109 L219.22981,566.037109 Z M225.967656,574.117188 C225.42859,574.117188 224.941291,573.984376 224.505742,573.71875 C224.070193,573.453124 223.731329,573.08301 223.48914,572.608398 C223.246951,572.133787 223.125859,571.601565 223.125859,571.011719 L223.125859,570.759766 C223.125859,570.150388 223.244022,569.601565 223.480351,569.113281 C223.71668,568.624998 224.045779,568.241212 224.467656,567.961914 C224.889533,567.682616 225.346559,567.542969 225.838749,567.542969 C226.608285,567.542969 227.21863,567.805661 227.669804,568.331055 C228.120978,568.856448 228.346562,569.574214 228.346562,570.484375 L228.346562,570.876953 L223.823124,570.876953 L223.823124,571.011719 C223.823124,571.730472 224.029177,572.329099 224.441288,572.807617 C224.8534,573.286135 225.371949,573.525391 225.996953,573.525391 C226.371954,573.525391 226.703006,573.457032 226.990117,573.320312 C227.277227,573.183593 227.537967,572.964845 227.772343,572.664062 L228.211796,572.998047 C227.696169,573.744144 226.948129,574.117188 225.967656,574.117188 Z M225.838749,568.140625 C225.311403,568.140625 224.867072,568.333982 224.505742,568.720703 C224.144412,569.107424 223.924687,569.62695 223.846562,570.279297 L227.649296,570.279297 L227.649296,570.203125 C227.629765,569.593747 227.455939,569.097658 227.127812,568.714844 C226.799685,568.332029 226.370002,568.140625 225.838749,568.140625 Z" id="Yosemite"></path>
        </g>
    </g>
</svg>